<?xml version="1.0" encoding="UTF-8" standalone="no"?>
<svg
   width="453.009107pt"
   height="338.4pt"
   viewBox="0 0 453.009107 338.4"
   version="1.1"
   id="svg141"
   sodipodi:docname="fig11_final.svg"
   inkscape:export-filename="fig11_final.pdf"
   inkscape:export-xdpi="96"
   inkscape:export-ydpi="96"
   inkscape:version="1.4.3 (0d15f75, 2025-12-25)"
   xmlns:inkscape="http://www.inkscape.org/namespaces/inkscape"
   xmlns:sodipodi="http://sodipodi.sourceforge.net/DTD/sodipodi-0.dtd"
   xmlns:xlink="http://www.w3.org/1999/xlink"
   xmlns="http://www.w3.org/2000/svg"
   xmlns:svg="http://www.w3.org/2000/svg"
   xmlns:rdf="http://www.w3.org/1999/02/22-rdf-syntax-ns#"
   xmlns:cc="http://creativecommons.org/ns#"
   xmlns:dc="http://purl.org/dc/elements/1.1/">
  <sodipodi:namedview
     id="namedview141"
     pagecolor="#ffffff"
     bordercolor="#000000"
     borderopacity="0.25"
     inkscape:showpageshadow="2"
     inkscape:pageopacity="0.0"
     inkscape:pagecheckerboard="0"
     inkscape:deskcolor="#d1d1d1"
     inkscape:document-units="pt"
     inkscape:zoom="0.015514185"
     inkscape:cx="290.05714"
     inkscape:cy="193.37143"
     inkscape:window-width="1252"
     inkscape:window-height="681"
     inkscape:window-x="0"
     inkscape:window-y="38"
     inkscape:window-maximized="0"
     inkscape:current-layer="svg141" />
  <metadata
     id="metadata1">
    <rdf:RDF>
      <cc:Work>
        <dc:type
           rdf:resource="http://purl.org/dc/dcmitype/StillImage" />
        <dc:date>2026-06-09T17:09:48.865789</dc:date>
        <dc:format>image/svg+xml</dc:format>
        <dc:creator>
          <cc:Agent>
            <dc:title>Matplotlib v3.9.2, https://matplotlib.org/</dc:title>
          </cc:Agent>
        </dc:creator>
      </cc:Work>
    </rdf:RDF>
  </metadata>
  <defs
     id="defs1">
    <style
       type="text/css"
       id="style1">*{stroke-linejoin: round; stroke-linecap: butt}</style>
  </defs>
  <g
     id="figure_1">
    <g
       id="patch_1">
      <path
         d="M 0 338.4  L 453.009107 338.4  L 453.009107 0  L 0 0  z "
         style="fill: #ffffff"
         id="path1" />
    </g>
    <g
       id="axes_1">
      <g
         id="patch_2">
        <path
           d="M 45.846205 295.40416  L 440.340186 295.40416  L 440.340186 27.036997  L 45.846205 27.036997  z "
           style="fill: #ffffff"
           id="path2" />
      </g>
      <g
         id="matplotlib.axis_1">
        <g
           id="xtick_1">
          <g
             id="line2d_1">
            <defs
               id="defs2">
              <path
                 id="m4d4607319d"
                 d="M 0 0  L 0 3.5  "
                 style="stroke: #000000; stroke-width: 0.8" />
            </defs>
            <g
               id="g2">
              <use
                 xlink:href="#m4d4607319d"
                 x="93.013963"
                 y="295.40416"
                 style="stroke: #000000; stroke-width: 0.8"
                 id="use2" />
            </g>
          </g>
          <g
             id="text_1">
            <!-- $\mathdefault{1850}$ -->
            <g
               transform="translate(81.307983 310.70634) scale(0.12 -0.12)"
               id="g6">
              <defs
                 id="defs3">
                <path
                   id="CMR17-31"
                   d="M 1702 4058  C 1702 4192 1696 4192 1606 4192  C 1357 3916 979 3827 621 3827  C 602 3827 570 3827 563 3808  C 557 3795 557 3782 557 3648  C 755 3648 1088 3686 1344 3839  L 1344 461  C 1344 236 1331 160 781 160  L 589 160  L 589 0  C 896 0 1216 0 1523 0  C 1830 0 2150 0 2458 0  L 2458 160  L 2266 160  C 1715 160 1702 230 1702 458  L 1702 4058  z "
                   transform="scale(0.015625)" />
                <path
                   id="CMR17-38"
                   d="M 1741 2264  C 2144 2467 2554 2773 2554 3263  C 2554 3841 1990 4179 1472 4179  C 890 4179 378 3759 378 3180  C 378 3021 416 2747 666 2505  C 730 2442 998 2251 1171 2130  C 883 1983 211 1634 211 934  C 211 279 838 -128 1459 -128  C 2144 -128 2720 362 2720 1010  C 2720 1590 2330 1857 2074 2029  L 1741 2264  z M 902 2822  C 851 2854 595 3051 595 3351  C 595 3739 998 4032 1459 4032  C 1965 4032 2336 3676 2336 3262  C 2336 2669 1670 2331 1638 2331  C 1632 2331 1626 2331 1574 2370  L 902 2822  z M 2080 1519  C 2176 1449 2483 1240 2483 851  C 2483 381 2010 25 1472 25  C 890 25 448 438 448 940  C 448 1443 838 1862 1280 2060  L 2080 1519  z "
                   transform="scale(0.015625)" />
                <path
                   id="CMR17-35"
                   d="M 730 3692  C 794 3666 1056 3584 1325 3584  C 1920 3584 2246 3911 2432 4100  C 2432 4157 2432 4192 2394 4192  C 2387 4192 2374 4192 2323 4163  C 2099 4058 1837 3973 1517 3973  C 1325 3973 1037 3999 723 4139  C 653 4171 640 4171 634 4171  C 602 4171 595 4164 595 4037  L 595 2203  C 595 2089 595 2057 659 2057  C 691 2057 704 2070 736 2114  C 941 2401 1222 2522 1542 2522  C 1766 2522 2246 2382 2246 1289  C 2246 1085 2246 715 2054 421  C 1894 159 1645 25 1370 25  C 947 25 518 320 403 814  C 429 807 480 795 506 795  C 589 795 749 840 749 1038  C 749 1210 627 1280 506 1280  C 358 1280 262 1190 262 1011  C 262 454 704 -128 1382 -128  C 2042 -128 2669 440 2669 1264  C 2669 2030 2170 2624 1549 2624  C 1222 2624 947 2503 730 2274  L 730 3692  z "
                   transform="scale(0.015625)" />
                <path
                   id="CMR17-30"
                   d="M 2688 2025  C 2688 2416 2682 3080 2413 3591  C 2176 4039 1798 4198 1466 4198  C 1158 4198 768 4058 525 3597  C 269 3118 243 2524 243 2025  C 243 1661 250 1106 448 619  C 723 -39 1216 -128 1466 -128  C 1760 -128 2208 -7 2470 600  C 2662 1042 2688 1559 2688 2025  z M 1466 -26  C 1056 -26 813 325 723 812  C 653 1188 653 1738 653 2096  C 653 2588 653 2997 736 3387  C 858 3929 1216 4096 1466 4096  C 1728 4096 2067 3923 2189 3400  C 2272 3036 2278 2607 2278 2096  C 2278 1680 2278 1169 2202 792  C 2067 95 1690 -26 1466 -26  z "
                   transform="scale(0.015625)" />
              </defs>
              <use
                 xlink:href="#CMR17-31"
                 transform="scale(0.996264)"
                 id="use3" />
              <use
                 xlink:href="#CMR17-38"
                 transform="translate(45.690477 0) scale(0.996264)"
                 id="use4" />
              <use
                 xlink:href="#CMR17-35"
                 transform="translate(91.380954 0) scale(0.996264)"
                 id="use5" />
              <use
                 xlink:href="#CMR17-30"
                 transform="translate(137.071431 0) scale(0.996264)"
                 id="use6" />
            </g>
          </g>
        </g>
        <g
           id="xtick_2">
          <g
             id="line2d_2">
            <g
               id="g7">
              <use
                 xlink:href="#m4d4607319d"
                 x="141.740987"
                 y="295.40416"
                 style="stroke: #000000; stroke-width: 0.8"
                 id="use7" />
            </g>
          </g>
          <g
             id="text_2">
            <!-- $\mathdefault{1875}$ -->
            <g
               transform="translate(130.035006 310.70634) scale(0.12 -0.12)"
               id="g11">
              <defs
                 id="defs7">
                <path
                   id="CMR17-37"
                   d="M 2886 3941  L 2886 4081  L 1382 4081  C 634 4081 621 4165 595 4288  L 480 4288  L 294 3094  L 410 3094  C 429 3215 474 3540 550 3661  C 589 3712 1062 3712 1171 3712  L 2579 3712  L 1869 2661  C 1395 1954 1069 999 1069 165  C 1069 89 1069 -128 1299 -128  C 1530 -128 1530 89 1530 171  L 1530 465  C 1530 1508 1709 2196 2003 2636  L 2886 3941  z "
                   transform="scale(0.015625)" />
              </defs>
              <use
                 xlink:href="#CMR17-31"
                 transform="scale(0.996264)"
                 id="use8" />
              <use
                 xlink:href="#CMR17-38"
                 transform="translate(45.690477 0) scale(0.996264)"
                 id="use9" />
              <use
                 xlink:href="#CMR17-37"
                 transform="translate(91.380954 0) scale(0.996264)"
                 id="use10" />
              <use
                 xlink:href="#CMR17-35"
                 transform="translate(137.071431 0) scale(0.996264)"
                 id="use11" />
            </g>
          </g>
        </g>
        <g
           id="xtick_3">
          <g
             id="line2d_3">
            <g
               id="g12">
              <use
                 xlink:href="#m4d4607319d"
                 x="190.46801"
                 y="295.40416"
                 style="stroke: #000000; stroke-width: 0.8"
                 id="use12" />
            </g>
          </g>
          <g
             id="text_3">
            <!-- $\mathdefault{1900}$ -->
            <g
               transform="translate(178.762029 310.70634) scale(0.12 -0.12)"
               id="g16">
              <defs
                 id="defs12">
                <path
                   id="CMR17-39"
                   d="M 2253 1864  C 2253 464 1670 31 1190 31  C 1043 31 685 31 538 294  C 704 268 826 357 826 518  C 826 692 685 749 595 749  C 538 749 365 723 365 506  C 365 71 742 -128 1203 -128  C 1939 -128 2688 674 2688 2073  C 2688 3817 1971 4179 1485 4179  C 851 4179 243 3628 243 2778  C 243 1991 762 1408 1414 1408  C 1952 1408 2189 1903 2253 2112  L 2253 1864  z M 1427 1510  C 1254 1510 1011 1542 813 1922  C 678 2169 678 2461 678 2771  C 678 3146 678 3405 858 3684  C 947 3817 1114 4032 1485 4032  C 2240 4032 2240 2885 2240 2632  C 2240 2182 2035 1510 1427 1510  z "
                   transform="scale(0.015625)" />
              </defs>
              <use
                 xlink:href="#CMR17-31"
                 transform="scale(0.996264)"
                 id="use13" />
              <use
                 xlink:href="#CMR17-39"
                 transform="translate(45.690477 0) scale(0.996264)"
                 id="use14" />
              <use
                 xlink:href="#CMR17-30"
                 transform="translate(91.380954 0) scale(0.996264)"
                 id="use15" />
              <use
                 xlink:href="#CMR17-30"
                 transform="translate(137.071431 0) scale(0.996264)"
                 id="use16" />
            </g>
          </g>
        </g>
        <g
           id="xtick_4">
          <g
             id="line2d_4">
            <g
               id="g17">
              <use
                 xlink:href="#m4d4607319d"
                 x="239.195033"
                 y="295.40416"
                 style="stroke: #000000; stroke-width: 0.8"
                 id="use17" />
            </g>
          </g>
          <g
             id="text_4">
            <!-- $\mathdefault{1925}$ -->
            <g
               transform="translate(227.489053 310.70634) scale(0.12 -0.12)"
               id="g21">
              <defs
                 id="defs17">
                <path
                   id="CMR17-32"
                   d="M 2669 989  L 2554 989  C 2490 536 2438 459 2413 420  C 2381 369 1920 369 1830 369  L 602 369  C 832 619 1280 1072 1824 1597  C 2214 1967 2669 2402 2669 3035  C 2669 3790 2067 4224 1395 4224  C 691 4224 262 3604 262 3030  C 262 2780 448 2748 525 2748  C 589 2748 781 2787 781 3010  C 781 3207 614 3264 525 3264  C 486 3264 448 3258 422 3245  C 544 3790 915 4058 1306 4058  C 1862 4058 2227 3617 2227 3035  C 2227 2479 1901 2000 1536 1584  L 262 146  L 262 0  L 2515 0  L 2669 989  z "
                   transform="scale(0.015625)" />
              </defs>
              <use
                 xlink:href="#CMR17-31"
                 transform="scale(0.996264)"
                 id="use18" />
              <use
                 xlink:href="#CMR17-39"
                 transform="translate(45.690477 0) scale(0.996264)"
                 id="use19" />
              <use
                 xlink:href="#CMR17-32"
                 transform="translate(91.380954 0) scale(0.996264)"
                 id="use20" />
              <use
                 xlink:href="#CMR17-35"
                 transform="translate(137.071431 0) scale(0.996264)"
                 id="use21" />
            </g>
          </g>
        </g>
        <g
           id="xtick_5">
          <g
             id="line2d_5">
            <g
               id="g22">
              <use
                 xlink:href="#m4d4607319d"
                 x="287.922057"
                 y="295.40416"
                 style="stroke: #000000; stroke-width: 0.8"
                 id="use22" />
            </g>
          </g>
          <g
             id="text_5">
            <!-- $\mathdefault{1950}$ -->
            <g
               transform="translate(276.216076 310.70634) scale(0.12 -0.12)"
               id="g26">
              <use
                 xlink:href="#CMR17-31"
                 transform="scale(0.996264)"
                 id="use23" />
              <use
                 xlink:href="#CMR17-39"
                 transform="translate(45.690477 0) scale(0.996264)"
                 id="use24" />
              <use
                 xlink:href="#CMR17-35"
                 transform="translate(91.380954 0) scale(0.996264)"
                 id="use25" />
              <use
                 xlink:href="#CMR17-30"
                 transform="translate(137.071431 0) scale(0.996264)"
                 id="use26" />
            </g>
          </g>
        </g>
        <g
           id="xtick_6">
          <g
             id="line2d_6">
            <g
               id="g27">
              <use
                 xlink:href="#m4d4607319d"
                 x="336.64908"
                 y="295.40416"
                 style="stroke: #000000; stroke-width: 0.8"
                 id="use27" />
            </g>
          </g>
          <g
             id="text_6">
            <!-- $\mathdefault{1975}$ -->
            <g
               transform="translate(324.943099 310.70634) scale(0.12 -0.12)"
               id="g31">
              <use
                 xlink:href="#CMR17-31"
                 transform="scale(0.996264)"
                 id="use28" />
              <use
                 xlink:href="#CMR17-39"
                 transform="translate(45.690477 0) scale(0.996264)"
                 id="use29" />
              <use
                 xlink:href="#CMR17-37"
                 transform="translate(91.380954 0) scale(0.996264)"
                 id="use30" />
              <use
                 xlink:href="#CMR17-35"
                 transform="translate(137.071431 0) scale(0.996264)"
                 id="use31" />
            </g>
          </g>
        </g>
        <g
           id="xtick_7">
          <g
             id="line2d_7">
            <g
               id="g32">
              <use
                 xlink:href="#m4d4607319d"
                 x="385.376103"
                 y="295.40416"
                 style="stroke: #000000; stroke-width: 0.8"
                 id="use32" />
            </g>
          </g>
          <g
             id="text_7">
            <!-- $\mathdefault{2000}$ -->
            <g
               transform="translate(373.670123 310.70634) scale(0.12 -0.12)"
               id="g36">
              <use
                 xlink:href="#CMR17-32"
                 transform="scale(0.996264)"
                 id="use33" />
              <use
                 xlink:href="#CMR17-30"
                 transform="translate(45.690477 0) scale(0.996264)"
                 id="use34" />
              <use
                 xlink:href="#CMR17-30"
                 transform="translate(91.380954 0) scale(0.996264)"
                 id="use35" />
              <use
                 xlink:href="#CMR17-30"
                 transform="translate(137.071431 0) scale(0.996264)"
                 id="use36" />
            </g>
          </g>
        </g>
        <g
           id="xtick_8">
          <g
             id="line2d_8">
            <g
               id="g37">
              <use
                 xlink:href="#m4d4607319d"
                 x="434.103127"
                 y="295.40416"
                 style="stroke: #000000; stroke-width: 0.8"
                 id="use37" />
            </g>
          </g>
          <g
             id="text_8">
            <!-- $\mathdefault{2025}$ -->
            <g
               transform="translate(422.397146 310.70634) scale(0.12 -0.12)"
               id="g41">
              <use
                 xlink:href="#CMR17-32"
                 transform="scale(0.996264)"
                 id="use38" />
              <use
                 xlink:href="#CMR17-30"
                 transform="translate(45.690477 0) scale(0.996264)"
                 id="use39" />
              <use
                 xlink:href="#CMR17-32"
                 transform="translate(91.380954 0) scale(0.996264)"
                 id="use40" />
              <use
                 xlink:href="#CMR17-35"
                 transform="translate(137.071431 0) scale(0.996264)"
                 id="use41" />
            </g>
          </g>
        </g>
        <g
           id="text_9">
          <!-- Year -->
          <g
             transform="translate(227.48798 328.100524) scale(0.16 -0.16)"
             id="g45">
            <defs
               id="defs41">
              <path
                 id="CMR17-59"
                 d="M 3706 3766  C 3955 4160 4301 4160 4416 4160  L 4416 4332  C 4269 4319 4102 4319 3942 4319  C 3782 4319 3526 4319 3373 4332  L 3373 4160  C 3533 4160 3616 4077 3616 3957  C 3616 3881 3584 3830 3533 3747  L 2381 1912  L 1120 3912  C 1075 3988 1069 3994 1069 4039  C 1069 4160 1293 4160 1382 4160  L 1382 4319  C 1178 4319 864 4319 653 4319  C 486 4319 166 4319 13 4332  L 13 4160  C 378 4160 480 4141 595 3958  L 2010 1728  L 2010 445  C 2010 160 1939 160 1498 160  L 1498 0  C 1683 0 2016 0 2214 0  C 2413 0 2752 0 2938 0  L 2938 160  C 2477 160 2419 160 2419 471  L 2419 1728  L 3706 3766  z "
                 transform="scale(0.015625)" />
              <path
                 id="CMR17-65"
                 d="M 2438 1472  C 2464 1498 2464 1511 2464 1576  C 2464 2238 2118 2816 1389 2816  C 710 2816 173 2169 173 1383  C 173 551 781 -64 1459 -64  C 2176 -64 2458 607 2458 740  C 2458 784 2419 784 2406 784  C 2362 784 2355 771 2330 696  C 2189 265 1837 51 1504 51  C 1229 51 954 203 781 480  C 582 803 582 1176 582 1472  L 2438 1472  z M 589 1568  C 634 2505 1126 2714 1382 2714  C 1818 2714 2112 2297 2118 1568  L 589 1568  z "
                 transform="scale(0.015625)" />
              <path
                 id="CMR17-61"
                 d="M 2304 1653  C 2304 2072 2304 2294 2035 2543  C 1798 2752 1523 2816 1306 2816  C 800 2816 435 2407 435 1971  C 435 1728 627 1728 666 1728  C 749 1728 896 1778 896 1954  C 896 2112 774 2181 666 2181  C 640 2181 608 2174 589 2168  C 723 2592 1069 2714 1293 2714  C 1613 2714 1965 2429 1965 1885  L 1965 1600  C 1587 1600 1133 1549 774 1357  C 371 1133 256 813 256 570  C 256 77 832 -64 1171 -64  C 1523 -64 1850 139 1990 511  C 2003 233 2182 -18 2464 -18  C 2598 -18 2938 70 2938 567  L 2938 920  L 2822 920  L 2822 562  C 2822 178 2650 128 2566 128  C 2304 128 2304 458 2304 738  L 2304 1653  z M 1965 870  C 1965 317 1568 38 1216 38  C 896 38 646 275 646 570  C 646 761 730 1100 1101 1305  C 1408 1478 1760 1504 1965 1504  L 1965 870  z "
                 transform="scale(0.015625)" />
              <path
                 id="CMR17-72"
                 d="M 960 1497  C 960 2112 1222 2688 1702 2688  C 1747 2688 1792 2682 1837 2662  C 1837 2662 1696 2617 1696 2452  C 1696 2298 1818 2234 1914 2234  C 1990 2234 2131 2279 2131 2458  C 2131 2663 1926 2790 1709 2790  C 1222 2790 1011 2317 947 2093  L 941 2093  L 941 2790  L 198 2720  L 198 2554  C 576 2554 634 2515 634 2208  L 634 428  C 634 184 608 153 198 153  L 198 -13  C 352 0 646 0 813 0  C 998 0 1325 0 1498 -13  L 1498 153  C 1037 153 960 153 960 440  L 960 1497  z "
                 transform="scale(0.015625)" />
            </defs>
            <use
               xlink:href="#CMR17-59"
               transform="scale(0.996264)"
               id="use42" />
            <use
               xlink:href="#CMR17-65"
               transform="translate(61.265174 0) scale(0.996264)"
               id="use43" />
            <use
               xlink:href="#CMR17-61"
               transform="translate(101.750835 0) scale(0.996264)"
               id="use44" />
            <use
               xlink:href="#CMR17-72"
               transform="translate(147.441312 0) scale(0.996264)"
               id="use45" />
          </g>
        </g>
      </g>
      <g
         id="matplotlib.axis_2">
        <g
           id="ytick_1">
          <g
             id="line2d_9">
            <defs
               id="defs45">
              <path
                 id="m7389024359"
                 d="M 0 0  L -3.5 0  "
                 style="stroke: #000000; stroke-width: 0.8" />
            </defs>
            <g
               id="g46">
              <use
                 xlink:href="#m7389024359"
                 x="45.846205"
                 y="32.458556"
                 style="stroke: #000000; stroke-width: 0.8"
                 id="use46" />
            </g>
          </g>
          <g
             id="text_10">
            <!-- $\mathdefault{0}$ -->
            <g
               transform="translate(32.993214 36.609646) scale(0.12 -0.12)"
               id="g47">
              <use
                 xlink:href="#CMR17-30"
                 transform="scale(0.996264)"
                 id="use47" />
            </g>
          </g>
        </g>
        <g
           id="ytick_2">
          <g
             id="line2d_10">
            <g
               id="g48">
              <use
                 xlink:href="#m7389024359"
                 x="45.846205"
                 y="59.56635"
                 style="stroke: #000000; stroke-width: 0.8"
                 id="use48" />
            </g>
          </g>
          <g
             id="text_11">
            <!-- $\mathdefault{4}$ -->
            <g
               transform="translate(32.993214 63.71744) scale(0.12 -0.12)"
               id="g49">
              <defs
                 id="defs48">
                <path
                   id="CMR17-34"
                   d="M 2150 4122  C 2150 4256 2144 4256 2029 4256  L 128 1254  L 128 1088  L 1779 1088  L 1779 457  C 1779 224 1766 160 1318 160  L 1197 160  L 1197 0  C 1402 0 1747 0 1965 0  C 2182 0 2528 0 2733 0  L 2733 160  L 2611 160  C 2163 160 2150 224 2150 457  L 2150 1088  L 2803 1088  L 2803 1254  L 2150 1254  L 2150 4122  z M 1798 3703  L 1798 1254  L 256 1254  L 1798 3703  z "
                   transform="scale(0.015625)" />
              </defs>
              <use
                 xlink:href="#CMR17-34"
                 transform="scale(0.996264)"
                 id="use49" />
            </g>
          </g>
        </g>
        <g
           id="ytick_3">
          <g
             id="line2d_11">
            <g
               id="g50">
              <use
                 xlink:href="#m7389024359"
                 x="45.846205"
                 y="86.674144"
                 style="stroke: #000000; stroke-width: 0.8"
                 id="use50" />
            </g>
          </g>
          <g
             id="text_12">
            <!-- $\mathdefault{8}$ -->
            <g
               transform="translate(32.993214 90.825234) scale(0.12 -0.12)"
               id="g51">
              <use
                 xlink:href="#CMR17-38"
                 transform="scale(0.996264)"
                 id="use51" />
            </g>
          </g>
        </g>
        <g
           id="ytick_4">
          <g
             id="line2d_12">
            <g
               id="g52">
              <use
                 xlink:href="#m7389024359"
                 x="45.846205"
                 y="113.781938"
                 style="stroke: #000000; stroke-width: 0.8"
                 id="use52" />
            </g>
          </g>
          <g
             id="text_13">
            <!-- $\mathdefault{12}$ -->
            <g
               transform="translate(27.140224 117.933028) scale(0.12 -0.12)"
               id="g54">
              <use
                 xlink:href="#CMR17-31"
                 transform="scale(0.996264)"
                 id="use53" />
              <use
                 xlink:href="#CMR17-32"
                 transform="translate(45.690477 0) scale(0.996264)"
                 id="use54" />
            </g>
          </g>
        </g>
        <g
           id="ytick_5">
          <g
             id="line2d_13">
            <g
               id="g55">
              <use
                 xlink:href="#m7389024359"
                 x="45.846205"
                 y="140.889733"
                 style="stroke: #000000; stroke-width: 0.8"
                 id="use55" />
            </g>
          </g>
          <g
             id="text_14">
            <!-- $\mathdefault{16}$ -->
            <g
               transform="translate(27.140224 145.040823) scale(0.12 -0.12)"
               id="g57">
              <defs
                 id="defs55">
                <path
                   id="CMR17-36"
                   d="M 678 2176  C 678 3690 1395 4032 1811 4032  C 1946 4032 2272 4009 2400 3776  C 2298 3776 2106 3776 2106 3553  C 2106 3381 2246 3323 2336 3323  C 2394 3323 2566 3348 2566 3560  C 2566 3954 2246 4179 1805 4179  C 1043 4179 243 3390 243 1984  C 243 253 966 -128 1478 -128  C 2099 -128 2688 427 2688 1283  C 2688 2081 2170 2662 1517 2662  C 1126 2662 838 2407 678 1960  L 678 2176  z M 1478 25  C 691 25 691 1200 691 1436  C 691 1896 909 2560 1504 2560  C 1613 2560 1926 2560 2138 2120  C 2253 1870 2253 1609 2253 1289  C 2253 944 2253 690 2118 434  C 1978 171 1773 25 1478 25  z "
                   transform="scale(0.015625)" />
              </defs>
              <use
                 xlink:href="#CMR17-31"
                 transform="scale(0.996264)"
                 id="use56" />
              <use
                 xlink:href="#CMR17-36"
                 transform="translate(45.690477 0) scale(0.996264)"
                 id="use57" />
            </g>
          </g>
        </g>
        <g
           id="ytick_6">
          <g
             id="line2d_14">
            <g
               id="g58">
              <use
                 xlink:href="#m7389024359"
                 x="45.846205"
                 y="167.997527"
                 style="stroke: #000000; stroke-width: 0.8"
                 id="use58" />
            </g>
          </g>
          <g
             id="text_15">
            <!-- $\mathdefault{20}$ -->
            <g
               transform="translate(27.140224 172.148617) scale(0.12 -0.12)"
               id="g60">
              <use
                 xlink:href="#CMR17-32"
                 transform="scale(0.996264)"
                 id="use59" />
              <use
                 xlink:href="#CMR17-30"
                 transform="translate(45.690477 0) scale(0.996264)"
                 id="use60" />
            </g>
          </g>
        </g>
        <g
           id="ytick_7">
          <g
             id="line2d_15">
            <g
               id="g61">
              <use
                 xlink:href="#m7389024359"
                 x="45.846205"
                 y="195.105321"
                 style="stroke: #000000; stroke-width: 0.8"
                 id="use61" />
            </g>
          </g>
          <g
             id="text_16">
            <!-- $\mathdefault{24}$ -->
            <g
               transform="translate(27.140224 199.256411) scale(0.12 -0.12)"
               id="g63">
              <use
                 xlink:href="#CMR17-32"
                 transform="scale(0.996264)"
                 id="use62" />
              <use
                 xlink:href="#CMR17-34"
                 transform="translate(45.690477 0) scale(0.996264)"
                 id="use63" />
            </g>
          </g>
        </g>
        <g
           id="ytick_8">
          <g
             id="line2d_16">
            <g
               id="g64">
              <use
                 xlink:href="#m7389024359"
                 x="45.846205"
                 y="222.213115"
                 style="stroke: #000000; stroke-width: 0.8"
                 id="use64" />
            </g>
          </g>
          <g
             id="text_17">
            <!-- $\mathdefault{28}$ -->
            <g
               transform="translate(27.140224 226.364205) scale(0.12 -0.12)"
               id="g66">
              <use
                 xlink:href="#CMR17-32"
                 transform="scale(0.996264)"
                 id="use65" />
              <use
                 xlink:href="#CMR17-38"
                 transform="translate(45.690477 0) scale(0.996264)"
                 id="use66" />
            </g>
          </g>
        </g>
        <g
           id="ytick_9">
          <g
             id="line2d_17">
            <g
               id="g67">
              <use
                 xlink:href="#m7389024359"
                 x="45.846205"
                 y="249.32091"
                 style="stroke: #000000; stroke-width: 0.8"
                 id="use67" />
            </g>
          </g>
          <g
             id="text_18">
            <!-- $\mathdefault{32}$ -->
            <g
               transform="translate(27.140224 253.472) scale(0.12 -0.12)"
               id="g69">
              <defs
                 id="defs67">
                <path
                   id="CMR17-33"
                   d="M 1414 2157  C 1984 2157 2234 1662 2234 1090  C 2234 320 1824 25 1453 25  C 1114 25 563 194 390 693  C 422 680 454 680 486 680  C 640 680 755 782 755 948  C 755 1133 614 1216 486 1216  C 378 1216 211 1165 211 926  C 211 335 787 -128 1466 -128  C 2176 -128 2720 430 2720 1085  C 2720 1707 2208 2157 1600 2227  C 2086 2328 2554 2756 2554 3329  C 2554 3820 2048 4179 1472 4179  C 890 4179 378 3829 378 3329  C 378 3110 544 3072 627 3072  C 762 3072 877 3155 877 3321  C 877 3486 762 3569 627 3569  C 602 3569 570 3569 544 3557  C 730 3959 1235 4032 1459 4032  C 1683 4032 2106 3925 2106 3320  C 2106 3143 2080 2828 1862 2550  C 1670 2304 1453 2304 1242 2284  C 1210 2284 1062 2269 1037 2269  C 992 2263 966 2257 966 2208  C 966 2163 973 2157 1101 2157  L 1414 2157  z "
                   transform="scale(0.015625)" />
              </defs>
              <use
                 xlink:href="#CMR17-33"
                 transform="scale(0.996264)"
                 id="use68" />
              <use
                 xlink:href="#CMR17-32"
                 transform="translate(45.690477 0) scale(0.996264)"
                 id="use69" />
            </g>
          </g>
        </g>
        <g
           id="ytick_10">
          <g
             id="line2d_18">
            <g
               id="g70">
              <use
                 xlink:href="#m7389024359"
                 x="45.846205"
                 y="276.428704"
                 style="stroke: #000000; stroke-width: 0.8"
                 id="use70" />
            </g>
          </g>
          <g
             id="text_19">
            <!-- $\mathdefault{36}$ -->
            <g
               transform="translate(27.140224 280.579794) scale(0.12 -0.12)"
               id="g72">
              <use
                 xlink:href="#CMR17-33"
                 transform="scale(0.996264)"
                 id="use71" />
              <use
                 xlink:href="#CMR17-36"
                 transform="translate(45.690477 0) scale(0.996264)"
                 id="use72" />
            </g>
          </g>
        </g>
        <g
           id="text_20">
          <!-- Rank (1 = best) -->
          <g
             transform="translate(19.155168 217.29952) rotate(-90) scale(0.16 -0.16)"
             id="g84">
            <defs
               id="defs72">
              <path
                 id="CMR17-52"
                 d="M 2509 2146  C 3117 2268 3629 2676 3629 3186  C 3629 3785 2950 4326 2054 4326  L 333 4326  L 333 4160  C 774 4160 845 4160 845 3873  L 845 415  C 845 128 774 128 333 128  L 333 -26  C 518 -26 851 -26 1050 -26  C 1248 -26 1581 -26 1766 -26  L 1766 128  C 1325 128 1254 128 1254 417  L 1254 2112  L 2003 2112  C 2368 2112 2573 1964 2662 1881  C 2918 1632 2918 1459 2918 1024  C 2918 595 2918 377 3110 160  C 3354 -102 3680 -128 3821 -128  C 4294 -128 4365 396 4365 503  C 4365 540 4365 585 4307 585  C 4256 585 4250 547 4250 522  C 4218 112 4032 -26 3834 -26  C 3482 -26 3443 375 3405 764  C 3386 898 3373 993 3360 1133  C 3322 1452 3270 1917 2509 2146  z M 1984 2214  L 1254 2214  L 1254 3913  C 1254 4129 1267 4160 1523 4160  L 1990 4160  C 2522 4160 3142 3977 3142 3190  C 3142 2372 2464 2214 1984 2214  z "
                 transform="scale(0.015625)" />
              <path
                 id="CMR17-6e"
                 d="M 2656 1933  C 2656 2259 2592 2790 1837 2790  C 1331 2790 1069 2400 973 2144  L 966 2144  L 966 2790  L 211 2720  L 211 2554  C 589 2554 646 2515 646 2208  L 646 428  C 646 184 621 153 211 153  L 211 -13  C 365 0 646 0 813 0  C 979 0 1267 0 1421 -13  L 1421 153  C 1011 153 986 178 986 428  L 986 1658  C 986 2247 1344 2688 1792 2688  C 2266 2688 2317 2266 2317 1958  L 2317 428  C 2317 184 2291 153 1882 153  L 1882 -13  C 2035 0 2317 0 2483 0  C 2650 0 2938 0 3091 -13  L 3091 153  C 2682 153 2656 178 2656 428  L 2656 1933  z "
                 transform="scale(0.015625)" />
              <path
                 id="CMR17-6b"
                 d="M 1670 1673  C 1664 1686 1632 1724 1632 1743  C 1632 1756 2086 2171 2144 2222  C 2509 2528 2739 2560 2906 2560  L 2906 2733  C 2867 2733 2854 2733 2848 2720  L 2534 2720  C 2355 2720 2080 2720 1907 2733  L 1907 2566  C 1997 2559 2061 2508 2061 2419  C 2061 2291 1933 2170 1926 2170  L 960 1289  L 960 4396  L 198 4326  L 198 4160  C 576 4160 634 4122 634 3817  L 634 426  C 634 184 608 153 198 153  L 198 -13  C 352 0 634 0 794 0  C 954 0 1235 0 1389 -13  L 1389 153  C 979 153 954 178 954 428  L 954 1130  L 1395 1532  L 2042 574  C 2118 459 2182 369 2182 286  C 2182 172 2067 153 1990 153  L 1990 -13  C 2144 0 2419 0 2579 0  C 2694 0 2931 0 3040 0  L 3040 153  C 2739 153 2669 210 2477 491  L 1670 1673  z "
                 transform="scale(0.015625)" />
              <path
                 id="CMR17-28"
                 d="M 1958 -1561  C 1958 -1555 1958 -1542 1939 -1523  C 1645 -1224 858 -407 858 1581  C 858 3569 1632 4379 1946 4697  C 1946 4704 1958 4717 1958 4736  C 1958 4755 1939 4768 1914 4768  C 1843 4768 1299 4296 986 3594  C 666 2887 576 2199 576 1588  C 576 1128 621 351 1005 -471  C 1312 -1135 1837 -1600 1914 -1600  C 1946 -1600 1958 -1587 1958 -1561  z "
                 transform="scale(0.015625)" />
              <path
                 id="CMR17-3d"
                 d="M 4115 2017  C 4211 2017 4307 2017 4307 2125  C 4307 2240 4198 2240 4090 2240  L 512 2240  C 403 2240 294 2240 294 2125  C 294 2017 390 2017 486 2017  L 4115 2017  z M 4090 896  C 4198 896 4307 896 4307 1011  C 4307 1119 4211 1119 4115 1119  L 486 1119  C 390 1119 294 1119 294 1011  C 294 896 403 896 512 896  L 4090 896  z "
                 transform="scale(0.015625)" />
              <path
                 id="CMR17-62"
                 d="M 960 4396  L 198 4326  L 198 4160  C 576 4160 634 4122 634 3817  L 634 -13  L 749 -13  L 934 441  C 1120 141 1395 -64 1766 -64  C 2406 -64 3053 500 3053 1370  C 3053 2188 2477 2790 1830 2790  C 1434 2790 1152 2579 960 2330  L 960 4396  z M 973 2004  C 973 2118 973 2138 1062 2272  C 1312 2657 1670 2688 1792 2688  C 1984 2688 2643 2585 2643 1376  C 2643 108 1888 38 1734 38  C 1536 38 1248 114 1043 486  C 973 608 973 621 973 735  L 973 2004  z "
                 transform="scale(0.015625)" />
              <path
                 id="CMR17-73"
                 d="M 1978 2697  C 1978 2813 1971 2819 1933 2819  C 1907 2819 1901 2813 1824 2717  C 1805 2691 1747 2626 1728 2601  C 1523 2819 1235 2819 1126 2819  C 416 2819 160 2447 160 2076  C 160 1498 813 1365 998 1325  C 1402 1243 1542 1217 1677 1101  C 1760 1025 1901 884 1901 654  C 1901 384 1747 38 1158 38  C 602 38 403 460 288 1021  C 269 1110 269 1117 218 1117  C 166 1117 160 1110 160 983  L 160 63  C 160 -51 166 -58 205 -58  C 237 -58 243 -51 275 0  C 314 57 410 211 448 276  C 576 103 800 -64 1158 -64  C 1792 -64 2131 283 2131 784  C 2131 1112 1958 1285 1875 1362  C 1683 1561 1459 1606 1190 1657  C 838 1735 390 1825 390 2217  C 390 2383 480 2737 1126 2737  C 1811 2737 1850 2094 1862 1888  C 1869 1856 1901 1849 1920 1849  C 1978 1849 1978 1869 1978 1978  L 1978 2697  z "
                 transform="scale(0.015625)" />
              <path
                 id="CMR17-74"
                 d="M 966 2560  L 1862 2560  L 1862 2725  L 966 2725  L 966 3904  L 851 3904  C 838 3245 614 2668 70 2668  L 70 2560  L 627 2560  L 627 771  C 627 650 627 -64 1370 -64  C 1747 -64 1965 306 1965 777  L 1965 1140  L 1850 1140  L 1850 783  C 1850 344 1677 51 1408 51  C 1222 51 966 178 966 758  L 966 2560  z "
                 transform="scale(0.015625)" />
              <path
                 id="CMR17-29"
                 d="M 1683 1581  C 1683 2040 1638 2817 1254 3639  C 947 4303 422 4768 346 4768  C 326 4768 301 4761 301 4729  C 301 4717 307 4710 314 4697  C 621 4378 1402 3568 1402 1584  C 1402 -407 627 -1217 314 -1537  C 307 -1549 301 -1556 301 -1568  C 301 -1600 326 -1600 346 -1600  C 416 -1600 960 -1128 1274 -426  C 1594 281 1683 969 1683 1581  z "
                 transform="scale(0.015625)" />
            </defs>
            <use
               xlink:href="#CMR17-52"
               transform="scale(0.996264)"
               id="use73" />
            <use
               xlink:href="#CMR17-61"
               transform="translate(67.791102 0) scale(0.996264)"
               id="use74" />
            <use
               xlink:href="#CMR17-6e"
               transform="translate(113.481579 0) scale(0.996264)"
               id="use75" />
            <use
               xlink:href="#CMR17-6b"
               transform="translate(164.376949 0) scale(0.996264)"
               id="use76" />
            <use
               xlink:href="#CMR17-28"
               transform="translate(242.745831 0) scale(0.996264)"
               id="use77" />
            <use
               xlink:href="#CMR17-31"
               transform="translate(278.026599 0) scale(0.996264)"
               id="use78" />
            <use
               xlink:href="#CMR17-3d"
               transform="translate(353.793042 0) scale(0.996264)"
               id="use79" />
            <use
               xlink:href="#CMR17-62"
               transform="translate(455.583797 0) scale(0.996264)"
               id="use80" />
            <use
               xlink:href="#CMR17-65"
               transform="translate(509.081606 0) scale(0.996264)"
               id="use81" />
            <use
               xlink:href="#CMR17-73"
               transform="translate(549.567266 0) scale(0.996264)"
               id="use82" />
            <use
               xlink:href="#CMR17-74"
               transform="translate(585.368604 0) scale(0.996264)"
               id="use83" />
            <use
               xlink:href="#CMR17-29"
               transform="translate(620.649371 0) scale(0.996264)"
               id="use84" />
          </g>
        </g>
      </g>
      <g
         id="line2d_19">
        <path
           d="M 63.777749 120.558887  L 106.65753 107.00499  L 159.282715 195.105321  L 170.977201 181.551424  L 174.875362 167.997527  L 182.671686 167.997527  L 190.46801 154.44363  L 194.366172 127.335836  L 202.162495 127.335836  L 206.060657 66.343298  L 209.958819 66.343298  L 211.9079 66.343298  L 215.806062 66.343298  L 217.755143 73.120247  L 225.551467 73.120247  L 229.449629 66.343298  L 235.296871 73.120247  L 252.8386 73.120247  L 266.482166 181.551424  L 282.074814 134.112784  L 291.820218 154.44363  L 311.311028 147.666681  L 323.005513 161.220578  L 346.394485 228.990064  L 369.783456 201.88227  L 385.376103 249.32091  L 400.968751 262.874807  L 404.866913 201.88227  L 418.510479 256.097858  L 422.408641 283.205653  "
           clip-path="url(#pe596d99a04)"
           style="fill: none; stroke: #79a899; stroke-width: 1.5; stroke-linecap: square"
           id="path84" />
      </g>
      <g
         id="line2d_20">
        <path
           d="M 266.482166 46.012453  L 282.074814 52.789401  L 291.820218 39.235504  L 311.311028 100.228041  L 323.005513 39.235504  L 346.394485 39.235504  L 369.783456 39.235504  L 385.376103 39.235504  L 400.968751 39.235504  L 404.866913 59.56635  L 418.510479 46.012453  L 422.408641 46.012453  "
           clip-path="url(#pe596d99a04)"
           style="fill: none; stroke-dasharray: 5.55,2.4; stroke-dashoffset: 0; stroke: #a8748d; stroke-width: 1.5"
           id="path85" />
      </g>
      <g
         id="line2d_21">
        <path
           d="M 63.777749 86.674144  L 106.65753 66.343298  L 159.282715 79.897196  L 170.977201 93.451093  L 174.875362 79.897196  L 182.671686 79.897196  L 190.46801 73.120247  L 194.366172 100.228041  L 202.162495 100.228041  L 206.060657 127.335836  L 209.958819 127.335836  L 211.9079 127.335836  L 215.806062 127.335836  L 217.755143 134.112784  L 225.551467 134.112784  L 229.449629 140.889733  L 235.296871 140.889733  L 252.8386 154.44363  L 266.482166 154.44363  L 282.074814 154.44363  L 291.820218 86.674144  L 311.311028 46.012453  L 323.005513 86.674144  L 346.394485 52.789401  L 369.783456 52.789401  L 385.376103 66.343298  L 400.968751 46.012453  L 404.866913 39.235504  L 418.510479 39.235504  L 422.408641 39.235504  "
           clip-path="url(#pe596d99a04)"
           style="fill: none; stroke-dasharray: 9.6,2.4,1.5,2.4; stroke-dashoffset: 0; stroke: #cda173; stroke-width: 1.5"
           id="path86" />
      </g>
      <g
         id="patch_3">
        <path
           d="M 45.846205 295.40416  L 45.846205 27.036997  "
           style="fill: none; stroke: #000000; stroke-width: 0.8; stroke-linejoin: miter; stroke-linecap: square"
           id="path87" />
      </g>
      <g
         id="patch_4">
        <path
           d="M 440.340186 295.40416  L 440.340186 27.036997  "
           style="fill: none; stroke: #000000; stroke-width: 0.8; stroke-linejoin: miter; stroke-linecap: square"
           id="path88" />
      </g>
      <g
         id="patch_5">
        <path
           d="M 45.846205 295.40416  L 440.340186 295.40416  "
           style="fill: none; stroke: #000000; stroke-width: 0.8; stroke-linejoin: miter; stroke-linecap: square"
           id="path89" />
      </g>
      <g
         id="patch_6">
        <path
           d="M 45.846205 27.036997  L 440.340186 27.036997  "
           style="fill: none; stroke: #000000; stroke-width: 0.8; stroke-linejoin: miter; stroke-linecap: square"
           id="path90" />
      </g>
      <g
         id="text_21">
        <!-- Law rankings over time -->
        <g
           transform="translate(149.420542 21.036997) scale(0.2 -0.2)"
           id="g108">
          <defs
             id="defs90">
            <path
               id="CMR17-4c"
               d="M 3469 1615  L 3354 1615  C 3302 983 3219 166 2125 166  L 1530 166  C 1274 166 1261 197 1261 414  L 1261 3898  C 1261 4129 1274 4192 1760 4192  L 1901 4192  L 1901 4352  C 1638 4352 1331 4352 1069 4352  C 870 4352 512 4352 326 4352  L 326 4192  C 768 4192 838 4192 838 3905  L 838 452  C 838 166 768 166 326 166  L 326 0  L 3315 0  L 3469 1615  z "
               transform="scale(0.015625)" />
            <path
               id="CMR17-77"
               d="M 3725 2183  C 3853 2560 4109 2560 4205 2560  L 4205 2732  C 4077 2732 3949 2732 3821 2732  C 3699 2732 3424 2732 3315 2738  L 3315 2560  C 3514 2560 3622 2445 3622 2286  C 3622 2241 3610 2184 3597 2140  L 2995 407  L 2342 2275  C 2330 2319 2310 2370 2310 2395  C 2310 2560 2528 2560 2630 2560  L 2630 2738  C 2483 2732 2214 2732 2061 2732  C 1901 2732 1734 2732 1587 2738  L 1587 2560  C 1939 2560 1939 2547 2074 2149  L 1485 451  L 851 2281  C 819 2363 819 2376 819 2395  C 819 2560 1037 2560 1139 2560  L 1139 2738  C 986 2732 717 2732 557 2732  C 416 2732 198 2732 64 2738  L 64 2560  C 346 2560 416 2541 486 2331  L 1274 49  C 1299 -33 1318 -52 1370 -52  C 1414 -52 1440 -39 1472 56  L 2131 1980  L 2797 56  C 2829 -39 2854 -52 2899 -52  C 2950 -52 2970 -33 2995 50  L 3725 2183  z "
               transform="scale(0.015625)" />
            <path
               id="CMR17-69"
               d="M 992 3909  C 992 4049 877 4170 730 4170  C 589 4170 467 4056 467 3909  C 467 3769 582 3648 730 3648  C 870 3648 992 3763 992 3909  z M 243 2706  L 243 2541  C 602 2541 653 2502 653 2197  L 653 427  C 653 184 627 153 218 153  L 218 -13  C 371 0 646 0 806 0  C 960 0 1222 0 1370 -13  L 1370 153  C 992 153 979 191 979 420  L 979 2776  L 243 2706  z "
               transform="scale(0.015625)" />
            <path
               id="CMR17-67"
               d="M 710 1164  C 832 1068 1043 960 1299 960  C 1805 960 2240 1357 2240 1888  C 2240 2054 2189 2310 1997 2509  C 2176 2692 2438 2752 2586 2752  C 2611 2752 2650 2752 2682 2734  C 2656 2728 2598 2703 2598 2605  C 2598 2527 2656 2471 2739 2471  C 2835 2471 2886 2533 2886 2614  C 2886 2731 2790 2854 2586 2854  C 2330 2854 2106 2738 1926 2580  C 1734 2753 1504 2816 1299 2816  C 794 2816 358 2419 358 1888  C 358 1522 570 1292 634 1228  C 442 1004 442 743 442 711  C 442 545 506 302 723 168  C 390 85 128 -169 128 -486  C 128 -943 736 -1280 1466 -1280  C 2170 -1280 2803 -956 2803 -479  C 2803 384 1856 384 1363 384  C 1216 384 954 384 922 391  C 723 423 589 602 589 826  C 589 883 589 1024 710 1164  z M 1299 1068  C 736 1068 736 1760 736 1889  C 736 2016 736 2708 1299 2708  C 1862 2708 1862 2016 1862 1889  C 1862 1760 1862 1068 1299 1068  z M 1466 -1171  C 826 -1171 384 -835 384 -486  C 384 -289 493 -105 634 -4  C 794 104 858 104 1293 104  C 1818 104 2547 104 2547 -486  C 2547 -835 2106 -1171 1466 -1171  z "
               transform="scale(0.015625)" />
            <path
               id="CMR17-6f"
               d="M 2758 1356  C 2758 2176 2163 2816 1466 2816  C 768 2816 173 2176 173 1356  C 173 551 768 -64 1466 -64  C 2163 -64 2758 551 2758 1356  z M 1466 51  C 1165 51 909 230 762 480  C 602 767 582 1126 582 1408  C 582 1677 595 2010 762 2298  C 890 2509 1139 2714 1466 2714  C 1754 2714 1997 2554 2150 2330  C 2349 2029 2349 1607 2349 1408  C 2349 1158 2336 775 2163 467  C 1984 173 1709 51 1466 51  z "
               transform="scale(0.015625)" />
            <path
               id="CMR17-76"
               d="M 2502 2163  C 2560 2304 2662 2560 3034 2560  L 3034 2726  C 2912 2726 2752 2726 2630 2726  C 2496 2726 2285 2726 2157 2732  L 2157 2566  C 2317 2553 2406 2477 2406 2311  C 2406 2253 2406 2240 2368 2151  L 1664 377  L 902 2286  C 864 2369 864 2381 864 2407  C 864 2560 1075 2560 1171 2560  L 1171 2732  C 1018 2726 736 2726 576 2726  C 403 2726 205 2726 64 2732  L 64 2560  C 307 2560 442 2560 518 2362  L 1446 44  C 1485 -51 1491 -64 1549 -64  C 1606 -64 1613 -51 1651 44  L 2502 2163  z "
               transform="scale(0.015625)" />
            <path
               id="CMR17-6d"
               d="M 4326 1933  C 4326 2252 4269 2790 3507 2790  C 3072 2790 2771 2496 2656 2151  L 2650 2151  C 2573 2676 2195 2790 1837 2790  C 1331 2790 1069 2400 973 2144  L 966 2144  L 966 2790  L 211 2720  L 211 2554  C 589 2554 646 2515 646 2208  L 646 428  C 646 184 621 153 211 153  L 211 -13  C 365 0 646 0 813 0  C 979 0 1267 0 1421 -13  L 1421 153  C 1011 153 986 178 986 428  L 986 1658  C 986 2247 1344 2688 1792 2688  C 2266 2688 2317 2266 2317 1958  L 2317 428  C 2317 184 2291 153 1882 153  L 1882 -13  C 2035 0 2317 0 2483 0  C 2650 0 2938 0 3091 -13  L 3091 153  C 2682 153 2656 178 2656 428  L 2656 1658  C 2656 2247 3014 2688 3462 2688  C 3936 2688 3987 2266 3987 1958  L 3987 428  C 3987 184 3962 153 3552 153  L 3552 -13  C 3706 0 3987 0 4154 0  C 4320 0 4608 0 4762 -13  L 4762 153  C 4352 153 4326 178 4326 428  L 4326 1933  z "
               transform="scale(0.015625)" />
          </defs>
          <use
             xlink:href="#CMR17-4c"
             transform="scale(0.996264)"
             id="use90" />
          <use
             xlink:href="#CMR17-61"
             transform="translate(57.381408 0) scale(0.996264)"
             id="use91" />
          <use
             xlink:href="#CMR17-77"
             transform="translate(100.469431 0) scale(0.996264)"
             id="use92" />
          <use
             xlink:href="#CMR17-72"
             transform="translate(197.055278 0) scale(0.996264)"
             id="use93" />
          <use
             xlink:href="#CMR17-61"
             transform="translate(232.336046 0) scale(0.996264)"
             id="use94" />
          <use
             xlink:href="#CMR17-6e"
             transform="translate(278.026523 0) scale(0.996264)"
             id="use95" />
          <use
             xlink:href="#CMR17-6b"
             transform="translate(328.921893 0) scale(0.996264)"
             id="use96" />
          <use
             xlink:href="#CMR17-69"
             transform="translate(377.214808 0) scale(0.996264)"
             id="use97" />
          <use
             xlink:href="#CMR17-6e"
             transform="translate(402.085867 0) scale(0.996264)"
             id="use98" />
          <use
             xlink:href="#CMR17-67"
             transform="translate(452.981237 0) scale(0.996264)"
             id="use99" />
          <use
             xlink:href="#CMR17-73"
             transform="translate(498.671714 0) scale(0.996264)"
             id="use100" />
          <use
             xlink:href="#CMR17-6f"
             transform="translate(564.549018 0) scale(0.996264)"
             id="use101" />
          <use
             xlink:href="#CMR17-76"
             transform="translate(607.637041 0) scale(0.996264)"
             id="use102" />
          <use
             xlink:href="#CMR17-65"
             transform="translate(653.327503 0) scale(0.996264)"
             id="use103" />
          <use
             xlink:href="#CMR17-72"
             transform="translate(693.813163 0) scale(0.996264)"
             id="use104" />
          <use
             xlink:href="#CMR17-74"
             transform="translate(759.169898 0) scale(0.996264)"
             id="use105" />
          <use
             xlink:href="#CMR17-69"
             transform="translate(794.450665 0) scale(0.996264)"
             id="use106" />
          <use
             xlink:href="#CMR17-6d"
             transform="translate(819.321724 0) scale(0.996264)"
             id="use107" />
          <use
             xlink:href="#CMR17-65"
             transform="translate(896.241314 0) scale(0.996264)"
             id="use108" />
        </g>
      </g>
      <g
         id="legend_1">
        <g
           id="patch_7">
          <path
             d="M 52.846205 290.40416  L 157.684359 290.40416  Q 159.684359 290.40416 159.684359 288.40416  L 159.684359 246.567163  Q 159.684359 244.567163 157.684359 244.567163  L 52.846205 244.567163  Q 50.846205 244.567163 50.846205 246.567163  L 50.846205 288.40416  Q 50.846205 290.40416 52.846205 290.40416  z "
             style="fill: #ffffff; opacity: 0.8; stroke: #cccccc; stroke-linejoin: miter"
             id="path108" />
        </g>
        <g
           id="line2d_22">
          <path
             d="M 54.846205 252.067163  L 64.846205 252.067163  L 74.846205 252.067163  "
             style="fill: none; stroke: #79a899; stroke-width: 1.5; stroke-linecap: square"
             id="path109" />
        </g>
        <g
           id="text_22">
          <!-- Caught -->
          <g
             transform="translate(82.846205 255.567163) scale(0.1 -0.1)"
             id="g114">
            <defs
               id="defs109">
              <path
                 id="CMR17-43"
                 d="M 3974 4289  C 3974 4403 3968 4410 3930 4410  C 3904 4410 3898 4403 3853 4327  L 3571 3792  C 3258 4187 2874 4416 2381 4416  C 1286 4416 294 3456 294 2148  C 294 826 1286 -128 2387 -128  C 3366 -128 3974 730 3974 1461  C 3974 1524 3974 1550 3917 1550  C 3866 1550 3866 1531 3859 1474  C 3808 585 3168 38 2477 38  C 1824 38 781 495 781 2147  C 781 3805 1843 4250 2464 4250  C 3187 4250 3712 3628 3834 2745  C 3846 2668 3846 2655 3904 2655  C 3974 2655 3974 2668 3974 2783  L 3974 4289  z "
                 transform="scale(0.015625)" />
              <path
                 id="CMR17-75"
                 d="M 1882 2693  L 1882 2528  C 2259 2528 2317 2489 2317 2186  L 2317 1032  C 2317 500 2029 38 1555 38  C 1030 38 986 348 986 678  L 986 2763  L 211 2693  L 211 2528  C 467 2528 640 2528 646 2274  L 646 1058  C 646 633 646 361 813 183  C 896 101 1056 -64 1517 -64  C 2061 -64 2272 377 2323 506  L 2330 506  L 2330 -63  L 3091 -63  L 3091 128  C 2714 128 2656 166 2656 473  L 2656 2763  L 1882 2693  z "
                 transform="scale(0.015625)" />
              <path
                 id="CMR17-68"
                 d="M 2656 1933  C 2656 2259 2592 2790 1837 2790  C 1312 2790 1056 2368 979 2157  L 973 2157  L 973 4396  L 211 4326  L 211 4160  C 589 4160 646 4122 646 3817  L 646 426  C 646 184 621 153 211 153  L 211 -13  C 365 0 646 0 813 0  C 979 0 1267 0 1421 -13  L 1421 153  C 1011 153 986 178 986 428  L 986 1658  C 986 2247 1344 2688 1792 2688  C 2266 2688 2317 2266 2317 1958  L 2317 428  C 2317 184 2291 153 1882 153  L 1882 -13  C 2035 0 2317 0 2483 0  C 2650 0 2938 0 3091 -13  L 3091 153  C 2682 153 2656 178 2656 428  L 2656 1933  z "
                 transform="scale(0.015625)" />
            </defs>
            <use
               xlink:href="#CMR17-43"
               transform="scale(0.996264)"
               id="use109" />
            <use
               xlink:href="#CMR17-61"
               transform="translate(66.509881 0) scale(0.996264)"
               id="use110" />
            <use
               xlink:href="#CMR17-75"
               transform="translate(112.200358 0) scale(0.996264)"
               id="use111" />
            <use
               xlink:href="#CMR17-67"
               transform="translate(163.095727 0) scale(0.996264)"
               id="use112" />
            <use
               xlink:href="#CMR17-68"
               transform="translate(208.786205 0) scale(0.996264)"
               id="use113" />
            <use
               xlink:href="#CMR17-74"
               transform="translate(257.07912 0) scale(0.996264)"
               id="use114" />
          </g>
        </g>
        <g
           id="line2d_23">
          <path
             d="M 54.846205 266.476322  L 64.846205 266.476322  L 74.846205 266.476322  "
             style="fill: none; stroke-dasharray: 5.55,2.4; stroke-dashoffset: 0; stroke: #a8748d; stroke-width: 1.5"
             id="path114" />
        </g>
        <g
           id="text_23">
          <!-- Fair/Unfair Play -->
          <g
             transform="translate(82.846205 269.976322) scale(0.1 -0.1)"
             id="g129">
            <defs
               id="defs114">
              <path
                 id="CMR17-46"
                 d="M 3482 4325  L 326 4325  L 326 4160  C 768 4160 838 4160 838 3874  L 838 446  C 838 160 768 160 326 160  L 326 0  C 512 0 870 0 1069 0  C 1331 0 1638 0 1901 0  L 1901 160  L 1760 160  C 1274 160 1261 223 1261 452  L 1261 2075  L 1837 2075  C 2432 2075 2490 1865 2490 1332  L 2605 1332  L 2605 2987  L 2490 2987  C 2490 2450 2432 2240 1837 2240  L 1261 2240  L 1261 3911  C 1261 4128 1274 4160 1530 4160  L 2355 4160  C 3322 4160 3430 3765 3520 2916  L 3635 2916  L 3482 4325  z "
                 transform="scale(0.015625)" />
              <path
                 id="CMR17-2f"
                 d="M 2605 4545  C 2637 4627 2637 4640 2637 4653  C 2637 4729 2579 4768 2528 4768  C 2451 4768 2426 4717 2400 4640  L 326 -1377  C 294 -1460 294 -1473 294 -1486  C 294 -1562 352 -1600 403 -1600  C 480 -1600 506 -1549 531 -1473  L 2605 4545  z "
                 transform="scale(0.015625)" />
              <path
                 id="CMR17-55"
                 d="M 3456 1433  C 3456 579 2899 38 2291 38  C 1965 38 1670 210 1491 477  C 1286 783 1261 1178 1261 1401  L 1261 3874  C 1261 4160 1331 4160 1773 4160  L 1773 4320  C 1587 4320 1248 4320 1050 4320  C 851 4320 512 4320 326 4320  L 326 4160  C 768 4160 838 4160 838 3874  L 838 1433  C 838 516 1536 -128 2278 -128  C 3110 -128 3590 719 3590 1344  L 3590 3766  C 3590 4122 3917 4160 4102 4160  L 4102 4326  C 3955 4320 3686 4320 3526 4320  C 3366 4320 3091 4320 2944 4326  L 2944 4160  C 3456 4160 3456 3861 3456 3702  L 3456 1433  z "
                 transform="scale(0.015625)" />
              <path
                 id="CMR17-66"
                 d="M 979 2560  L 1709 2560  L 1709 2725  L 966 2725  L 966 3494  C 966 4022 1235 4352 1510 4352  C 1594 4352 1690 4327 1754 4282  C 1702 4269 1568 4225 1568 4067  C 1568 3901 1696 3850 1786 3850  C 1875 3850 2003 3901 2003 4067  C 2003 4308 1773 4454 1517 4454  C 1152 4454 653 4156 653 3481  L 653 2725  L 141 2725  L 141 2560  L 653 2560  L 653 427  C 653 184 627 153 218 153  L 218 -13  C 371 0 666 0 832 0  C 1018 0 1344 0 1517 -13  L 1517 153  C 1056 153 979 153 979 439  L 979 2560  z "
                 transform="scale(0.015625)" />
              <path
                 id="CMR17-50"
                 d="M 1267 2042  L 2291 2042  C 3117 2042 3718 2578 3718 3184  C 3718 3791 3130 4352 2291 4352  L 333 4352  L 333 4186  C 774 4186 845 4186 845 3899  L 845 446  C 845 160 774 160 333 160  L 333 0  C 518 0 858 0 1056 0  C 1254 0 1594 0 1779 0  L 1779 160  C 1338 160 1267 160 1267 446  L 1267 2042  z M 1254 2176  L 1254 3938  C 1254 4155 1267 4186 1523 4186  L 2170 4186  C 2995 4186 3232 3714 3232 3184  C 3232 2604 2950 2176 2170 2176  L 1254 2176  z "
                 transform="scale(0.015625)" />
              <path
                 id="CMR17-6c"
                 d="M 979 4396  L 218 4326  L 218 4160  C 595 4160 653 4122 653 3817  L 653 426  C 653 184 627 153 218 153  L 218 -13  C 371 0 653 0 813 0  C 979 0 1261 0 1414 -13  L 1414 153  C 1005 153 979 178 979 426  L 979 4396  z "
                 transform="scale(0.015625)" />
              <path
                 id="CMR17-79"
                 d="M 2496 2197  C 2656 2586 2944 2586 3034 2586  L 3034 2752  C 2912 2752 2752 2752 2630 2752  C 2496 2752 2285 2752 2157 2758  L 2157 2592  C 2400 2573 2406 2394 2406 2343  C 2406 2280 2394 2248 2362 2171  L 1664 449  L 902 2306  C 870 2382 870 2426 870 2433  C 870 2573 1018 2586 1171 2586  L 1171 2758  C 1018 2752 742 2752 582 2752  C 410 2752 205 2752 64 2758  L 64 2586  C 410 2586 448 2554 531 2350  L 1485 15  C 1197 -738 1030 -1178 627 -1178  C 557 -1178 397 -1159 282 -1044  C 429 -1031 493 -942 493 -833  C 493 -725 416 -629 288 -629  C 147 -629 77 -725 77 -840  C 77 -1095 339 -1280 627 -1280  C 998 -1280 1229 -922 1357 -604  L 2496 2197  z "
                 transform="scale(0.015625)" />
            </defs>
            <use
               xlink:href="#CMR17-46"
               transform="scale(0.996264)"
               id="use115" />
            <use
               xlink:href="#CMR17-61"
               transform="translate(52.176591 0) scale(0.996264)"
               id="use116" />
            <use
               xlink:href="#CMR17-69"
               transform="translate(97.867068 0) scale(0.996264)"
               id="use117" />
            <use
               xlink:href="#CMR17-72"
               transform="translate(122.738127 0) scale(0.996264)"
               id="use118" />
            <use
               xlink:href="#CMR17-2f"
               transform="translate(158.018895 0) scale(0.996264)"
               id="use119" />
            <use
               xlink:href="#CMR17-55"
               transform="translate(203.709372 0) scale(0.996264)"
               id="use120" />
            <use
               xlink:href="#CMR17-6e"
               transform="translate(272.781802 0) scale(0.996264)"
               id="use121" />
            <use
               xlink:href="#CMR17-66"
               transform="translate(323.677171 0) scale(0.996264)"
               id="use122" />
            <use
               xlink:href="#CMR17-61"
               transform="translate(351.150684 0) scale(0.996264)"
               id="use123" />
            <use
               xlink:href="#CMR17-69"
               transform="translate(396.841161 0) scale(0.996264)"
               id="use124" />
            <use
               xlink:href="#CMR17-72"
               transform="translate(421.712219 0) scale(0.996264)"
               id="use125" />
            <use
               xlink:href="#CMR17-50"
               transform="translate(487.068953 0) scale(0.996264)"
               id="use126" />
            <use
               xlink:href="#CMR17-6c"
               transform="translate(549.655254 0) scale(0.996264)"
               id="use127" />
            <use
               xlink:href="#CMR17-61"
               transform="translate(574.526312 0) scale(0.996264)"
               id="use128" />
            <use
               xlink:href="#CMR17-79"
               transform="translate(617.614336 0) scale(0.996264)"
               id="use129" />
          </g>
        </g>
        <g
           id="line2d_24">
          <path
             d="M 54.846205 280.966982  L 64.846205 280.966982  L 74.846205 280.966982  "
             style="fill: none; stroke-dasharray: 9.6,2.4,1.5,2.4; stroke-dashoffset: 0; stroke: #cda173; stroke-width: 1.5"
             id="path129" />
        </g>
        <g
           id="text_24">
          <!-- The Fieldsman -->
          <g
             transform="translate(82.846205 284.466982) scale(0.1 -0.1)"
             id="g141">
            <defs
               id="defs129">
              <path
                 id="CMR17-54"
                 d="M 3981 4326  L 288 4326  L 179 2918  L 294 2918  C 378 3976 467 4160 1453 4160  C 1568 4160 1754 4160 1805 4154  C 1926 4135 1926 4058 1926 3912  L 1926 459  C 1926 230 1907 160 1376 160  L 1197 160  L 1197 0  C 1504 0 1824 0 2138 0  C 2451 0 2771 0 3078 0  L 3078 160  L 2899 160  C 2368 160 2349 230 2349 459  L 2349 3912  C 2349 4052 2349 4129 2464 4154  C 2515 4160 2701 4160 2816 4160  C 3795 4160 3891 3976 3974 2918  L 4090 2918  L 3981 4326  z "
                 transform="scale(0.015625)" />
              <path
                 id="CMR17-64"
                 d="M 1869 4326  L 1869 4160  C 2246 4160 2304 4122 2304 3820  L 2304 2345  C 2278 2377 2016 2790 1498 2790  C 845 2790 211 2208 211 1364  C 211 525 806 -64 1434 -64  C 1978 -64 2259 337 2291 380  L 2291 -63  L 3066 -63  L 3066 128  C 2688 128 2630 166 2630 473  L 2630 4396  L 1869 4326  z M 2291 755  C 2291 563 2176 390 2029 262  C 1811 70 1594 38 1472 38  C 1286 38 621 134 621 1356  C 621 2612 1363 2688 1530 2688  C 1824 2688 2061 2522 2208 2291  C 2291 2157 2291 2138 2291 2023  L 2291 755  z "
                 transform="scale(0.015625)" />
            </defs>
            <use
               xlink:href="#CMR17-54"
               transform="scale(0.996264)"
               id="use130" />
            <use
               xlink:href="#CMR17-68"
               transform="translate(66.509881 0) scale(0.996264)"
               id="use131" />
            <use
               xlink:href="#CMR17-65"
               transform="translate(117.40525 0) scale(0.996264)"
               id="use132" />
            <use
               xlink:href="#CMR17-46"
               transform="translate(187.966877 0) scale(0.996264)"
               id="use133" />
            <use
               xlink:href="#CMR17-69"
               transform="translate(247.950724 0) scale(0.996264)"
               id="use134" />
            <use
               xlink:href="#CMR17-65"
               transform="translate(272.821782 0) scale(0.996264)"
               id="use135" />
            <use
               xlink:href="#CMR17-6c"
               transform="translate(313.307443 0) scale(0.996264)"
               id="use136" />
            <use
               xlink:href="#CMR17-64"
               transform="translate(338.178501 0) scale(0.996264)"
               id="use137" />
            <use
               xlink:href="#CMR17-73"
               transform="translate(389.073871 0) scale(0.996264)"
               id="use138" />
            <use
               xlink:href="#CMR17-6d"
               transform="translate(424.875209 0) scale(0.996264)"
               id="use139" />
            <use
               xlink:href="#CMR17-61"
               transform="translate(501.794798 0) scale(0.996264)"
               id="use140" />
            <use
               xlink:href="#CMR17-6e"
               transform="translate(547.485276 0) scale(0.996264)"
               id="use141" />
          </g>
        </g>
      </g>
    </g>
  </g>
  <defs
     id="defs141">
    <clipPath
       id="pe596d99a04">
      <rect
         x="45.846205"
         y="27.036997"
         width="394.493981"
         height="268.367163"
         id="rect141" />
    </clipPath>
  </defs>
</svg>
