<?xml version="1.0" encoding="utf-8" standalone="no"?>
<!DOCTYPE svg PUBLIC "-//W3C//DTD SVG 1.1//EN"
  "http://www.w3.org/Graphics/SVG/1.1/DTD/svg11.dtd">
<svg xmlns:xlink="http://www.w3.org/1999/xlink" width="864pt" height="864pt" viewBox="0 0 864 864" xmlns="http://www.w3.org/2000/svg" version="1.1">
 <metadata>
  <rdf:RDF xmlns:dc="http://purl.org/dc/elements/1.1/" xmlns:cc="http://creativecommons.org/ns#" xmlns:rdf="http://www.w3.org/1999/02/22-rdf-syntax-ns#">
   <cc:Work>
    <dc:type rdf:resource="http://purl.org/dc/dcmitype/StillImage"/>
    <dc:date>2026-06-09T22:33:00.257978</dc:date>
    <dc:format>image/svg+xml</dc:format>
    <dc:creator>
     <cc:Agent>
      <dc:title>Matplotlib v3.9.2, https://matplotlib.org/</dc:title>
     </cc:Agent>
    </dc:creator>
   </cc:Work>
  </rdf:RDF>
 </metadata>
 <defs>
  <style type="text/css">*{stroke-linejoin: round; stroke-linecap: butt}</style>
 </defs>
 <g id="figure_1">
  <g id="patch_1">
   <path d="M 0 864 
L 864 864 
L 864 0 
L 0 0 
z
" style="fill: #ffffff"/>
  </g>
  <g id="axes_1">
   <g id="patch_2">
    <path d="M 10.8 764.486395 
L 675.772791 764.486395 
L 675.772791 99.513605 
L 10.8 99.513605 
z
" style="fill: #ffffff"/>
   </g>
   <g id="LineCollection_1">
    <path d="M 645.546755 458.437774 
L 343.286395 431.995786 
" clip-path="url(#pbd0b605e3d)" style="fill: none; stroke: #808080; stroke-opacity: 0.3"/>
    <path d="M 343.286395 431.995786 
L 645.546755 405.553799 
" clip-path="url(#pbd0b605e3d)" style="fill: none; stroke: #808080; stroke-opacity: 0.3"/>
    <path d="M 343.286395 431.995786 
L 636.360534 353.474672 
" clip-path="url(#pbd0b605e3d)" style="fill: none; stroke: #808080; stroke-opacity: 0.3"/>
    <path d="M 343.286395 431.995786 
L 618.240926 303.793232 
" clip-path="url(#pbd0b605e3d)" style="fill: none; stroke: #808080; stroke-opacity: 0.3"/>
    <path d="M 343.286395 431.995786 
L 591.820007 257.988547 
" clip-path="url(#pbd0b605e3d)" style="fill: none; stroke: #808080; stroke-opacity: 0.3"/>
    <path d="M 343.286395 431.995786 
L 557.814137 217.451189 
" clip-path="url(#pbd0b605e3d)" style="fill: none; stroke: #808080; stroke-opacity: 0.3"/>
    <path d="M 343.286395 431.995786 
L 517.318918 183.487457 
" clip-path="url(#pbd0b605e3d)" style="fill: none; stroke: #808080; stroke-opacity: 0.3"/>
    <path d="M 343.286395 431.995786 
L 471.514232 157.0244 
" clip-path="url(#pbd0b605e3d)" style="fill: none; stroke: #808080; stroke-opacity: 0.3"/>
    <path d="M 343.286395 431.995786 
L 421.832793 138.94693 
" clip-path="url(#pbd0b605e3d)" style="fill: none; stroke: #808080; stroke-opacity: 0.3"/>
    <path d="M 343.286395 431.995786 
L 369.749452 129.76071 
" clip-path="url(#pbd0b605e3d)" style="fill: none; stroke: #808080; stroke-opacity: 0.3"/>
    <path d="M 343.286395 431.995786 
L 316.865477 129.76071 
" clip-path="url(#pbd0b605e3d)" style="fill: none; stroke: #808080; stroke-opacity: 0.3"/>
    <path d="M 343.286395 431.995786 
L 264.782136 138.94693 
" clip-path="url(#pbd0b605e3d)" style="fill: none; stroke: #808080; stroke-opacity: 0.3"/>
    <path d="M 343.286395 431.995786 
L 215.058558 157.0244 
" clip-path="url(#pbd0b605e3d)" style="fill: none; stroke: #808080; stroke-opacity: 0.3"/>
    <path d="M 343.286395 431.995786 
L 169.253873 183.487457 
" clip-path="url(#pbd0b605e3d)" style="fill: none; stroke: #808080; stroke-opacity: 0.3"/>
    <path d="M 343.286395 431.995786 
L 128.758654 217.451189 
" clip-path="url(#pbd0b605e3d)" style="fill: none; stroke: #808080; stroke-opacity: 0.3"/>
    <path d="M 343.286395 431.995786 
L 94.752783 257.988547 
" clip-path="url(#pbd0b605e3d)" style="fill: none; stroke: #808080; stroke-opacity: 0.3"/>
    <path d="M 343.286395 431.995786 
L 68.331865 303.793232 
" clip-path="url(#pbd0b605e3d)" style="fill: none; stroke: #808080; stroke-opacity: 0.3"/>
    <path d="M 343.286395 431.995786 
L 50.212256 353.474672 
" clip-path="url(#pbd0b605e3d)" style="fill: none; stroke: #808080; stroke-opacity: 0.3"/>
    <path d="M 343.286395 431.995786 
L 41.026036 405.553799 
" clip-path="url(#pbd0b605e3d)" style="fill: none; stroke: #808080; stroke-opacity: 0.3"/>
    <path d="M 343.286395 431.995786 
L 41.026036 458.437774 
" clip-path="url(#pbd0b605e3d)" style="fill: none; stroke: #808080; stroke-opacity: 0.3"/>
    <path d="M 343.286395 431.995786 
L 50.212256 510.521114 
" clip-path="url(#pbd0b605e3d)" style="fill: none; stroke: #808080; stroke-opacity: 0.3"/>
    <path d="M 343.286395 431.995786 
L 68.331865 560.215195 
" clip-path="url(#pbd0b605e3d)" style="fill: none; stroke: #808080; stroke-opacity: 0.3"/>
    <path d="M 343.286395 431.995786 
L 94.752783 606.015667 
" clip-path="url(#pbd0b605e3d)" style="fill: none; stroke: #808080; stroke-opacity: 0.3"/>
    <path d="M 343.286395 431.995786 
L 128.758654 646.531955 
" clip-path="url(#pbd0b605e3d)" style="fill: none; stroke: #808080; stroke-opacity: 0.3"/>
    <path d="M 343.286395 431.995786 
L 169.253873 680.525184 
" clip-path="url(#pbd0b605e3d)" style="fill: none; stroke: #808080; stroke-opacity: 0.3"/>
    <path d="M 343.286395 431.995786 
L 215.058558 706.967172 
" clip-path="url(#pbd0b605e3d)" style="fill: none; stroke: #808080; stroke-opacity: 0.3"/>
    <path d="M 343.286395 431.995786 
L 264.782136 725.057284 
" clip-path="url(#pbd0b605e3d)" style="fill: none; stroke: #808080; stroke-opacity: 0.3"/>
    <path d="M 343.286395 431.995786 
L 316.865477 734.23929 
" clip-path="url(#pbd0b605e3d)" style="fill: none; stroke: #808080; stroke-opacity: 0.3"/>
    <path d="M 343.286395 431.995786 
L 369.749452 734.23929 
" clip-path="url(#pbd0b605e3d)" style="fill: none; stroke: #808080; stroke-opacity: 0.3"/>
    <path d="M 343.286395 431.995786 
L 421.832793 725.057284 
" clip-path="url(#pbd0b605e3d)" style="fill: none; stroke: #808080; stroke-opacity: 0.3"/>
    <path d="M 343.286395 431.995786 
L 471.514232 706.967172 
" clip-path="url(#pbd0b605e3d)" style="fill: none; stroke: #808080; stroke-opacity: 0.3"/>
    <path d="M 343.286395 431.995786 
L 517.318918 680.525184 
" clip-path="url(#pbd0b605e3d)" style="fill: none; stroke: #808080; stroke-opacity: 0.3"/>
    <path d="M 343.286395 431.995786 
L 557.814137 646.531955 
" clip-path="url(#pbd0b605e3d)" style="fill: none; stroke: #808080; stroke-opacity: 0.3"/>
    <path d="M 343.286395 431.995786 
L 591.820007 606.015667 
" clip-path="url(#pbd0b605e3d)" style="fill: none; stroke: #808080; stroke-opacity: 0.3"/>
    <path d="M 343.286395 431.995786 
L 618.240926 560.215195 
" clip-path="url(#pbd0b605e3d)" style="fill: none; stroke: #808080; stroke-opacity: 0.3"/>
    <path d="M 343.286395 431.995786 
L 636.360534 510.521114 
" clip-path="url(#pbd0b605e3d)" style="fill: none; stroke: #808080; stroke-opacity: 0.3"/>
   </g>
   <g id="matplotlib.axis_1">
    <g id="xtick_1"/>
    <g id="xtick_2"/>
    <g id="xtick_3"/>
    <g id="xtick_4"/>
    <g id="xtick_5"/>
    <g id="xtick_6"/>
    <g id="xtick_7"/>
   </g>
   <g id="matplotlib.axis_2">
    <g id="ytick_1"/>
    <g id="ytick_2"/>
    <g id="ytick_3"/>
    <g id="ytick_4"/>
    <g id="ytick_5"/>
    <g id="ytick_6"/>
    <g id="ytick_7"/>
    <g id="ytick_8"/>
   </g>
   <g id="PathCollection_1">
    <path d="M 645.546755 469.618113 
C 648.511816 469.618113 651.355834 468.440082 653.452449 466.343468 
C 655.549063 464.246853 656.727095 461.402834 656.727095 458.437774 
C 656.727095 455.472713 655.549063 452.628694 653.452449 450.532079 
C 651.355834 448.435465 648.511816 447.257434 645.546755 447.257434 
C 642.581694 447.257434 639.737675 448.435465 637.641061 450.532079 
C 635.544446 452.628694 634.366415 455.472713 634.366415 458.437774 
C 634.366415 461.402834 635.544446 464.246853 637.641061 466.343468 
C 639.737675 468.440082 642.581694 469.618113 645.546755 469.618113 
z
" clip-path="url(#pbd0b605e3d)" style="fill: #ad35ca; stroke: #ad35ca"/>
    <path d="M 343.286395 439.066854 
C 345.161664 439.066854 346.96038 438.321802 348.286395 436.995786 
C 349.612411 435.669771 350.357463 433.871055 350.357463 431.995786 
C 350.357463 430.120517 349.612411 428.321802 348.286395 426.995786 
C 346.96038 425.669771 345.161664 424.924718 343.286395 424.924718 
C 341.411126 424.924718 339.612411 425.669771 338.286395 426.995786 
C 336.96038 428.321802 336.215328 430.120517 336.215328 431.995786 
C 336.215328 433.871055 336.96038 435.669771 338.286395 436.995786 
C 339.612411 438.321802 341.411126 439.066854 343.286395 439.066854 
z
" clip-path="url(#pbd0b605e3d)" style="fill: #8f81b5; stroke: #8f81b5"/>
    <path d="M 645.546755 410.025935 
C 646.732779 410.025935 647.870387 409.554722 648.709032 408.716076 
C 649.547678 407.877431 650.018891 406.739823 650.018891 405.553799 
C 650.018891 404.367774 649.547678 403.230167 648.709032 402.391521 
C 647.870387 401.552875 646.732779 401.081663 645.546755 401.081663 
C 644.36073 401.081663 643.223123 401.552875 642.384477 402.391521 
C 641.545831 403.230167 641.074619 404.367774 641.074619 405.553799 
C 641.074619 406.739823 641.545831 407.877431 642.384477 408.716076 
C 643.223123 409.554722 644.36073 410.025935 645.546755 410.025935 
z
" clip-path="url(#pbd0b605e3d)" style="fill: #879dba; stroke: #879dba"/>
    <path d="M 636.360534 357.946808 
C 637.546559 357.946808 638.684166 357.475595 639.522812 356.636949 
C 640.361458 355.798304 640.83267 354.660696 640.83267 353.474672 
C 640.83267 352.288647 640.361458 351.15104 639.522812 350.312394 
C 638.684166 349.473748 637.546559 349.002536 636.360534 349.002536 
C 635.17451 349.002536 634.036903 349.473748 633.198257 350.312394 
C 632.359611 351.15104 631.888398 352.288647 631.888398 353.474672 
C 631.888398 354.660696 632.359611 355.798304 633.198257 356.636949 
C 634.036903 357.475595 635.17451 357.946808 636.360534 357.946808 
z
" clip-path="url(#pbd0b605e3d)" style="fill: #879dba; stroke: #879dba"/>
    <path d="M 618.240926 308.265368 
C 619.42695 308.265368 620.564557 307.794156 621.403203 306.95551 
C 622.241849 306.116864 622.713061 304.979257 622.713061 303.793232 
C 622.713061 302.607208 622.241849 301.469601 621.403203 300.630955 
C 620.564557 299.792309 619.42695 299.321097 618.240926 299.321097 
C 617.054901 299.321097 615.917294 299.792309 615.078648 300.630955 
C 614.240002 301.469601 613.76879 302.607208 613.76879 303.793232 
C 613.76879 304.979257 614.240002 306.116864 615.078648 306.95551 
C 615.917294 307.794156 617.054901 308.265368 618.240926 308.265368 
z
" clip-path="url(#pbd0b605e3d)" style="fill: #879dba; stroke: #879dba"/>
    <path d="M 591.820007 262.460683 
C 593.006032 262.460683 594.143639 261.98947 594.982285 261.150824 
C 595.820931 260.312179 596.292143 259.174571 596.292143 257.988547 
C 596.292143 256.802522 595.820931 255.664915 594.982285 254.826269 
C 594.143639 253.987623 593.006032 253.516411 591.820007 253.516411 
C 590.633983 253.516411 589.496376 253.987623 588.65773 254.826269 
C 587.819084 255.664915 587.347872 256.802522 587.347872 257.988547 
C 587.347872 259.174571 587.819084 260.312179 588.65773 261.150824 
C 589.496376 261.98947 590.633983 262.460683 591.820007 262.460683 
z
" clip-path="url(#pbd0b605e3d)" style="fill: #879dba; stroke: #879dba"/>
    <path d="M 557.814137 221.923325 
C 559.000161 221.923325 560.137769 221.452113 560.976414 220.613467 
C 561.81506 219.774821 562.286273 218.637214 562.286273 217.451189 
C 562.286273 216.265165 561.81506 215.127557 560.976414 214.288912 
C 560.137769 213.450266 559.000161 212.979053 557.814137 212.979053 
C 556.628113 212.979053 555.490505 213.450266 554.651859 214.288912 
C 553.813213 215.127557 553.342001 216.265165 553.342001 217.451189 
C 553.342001 218.637214 553.813213 219.774821 554.651859 220.613467 
C 555.490505 221.452113 556.628113 221.923325 557.814137 221.923325 
z
" clip-path="url(#pbd0b605e3d)" style="fill: #879dba; stroke: #879dba"/>
    <path d="M 517.318918 187.959593 
C 518.504942 187.959593 519.64255 187.488381 520.481196 186.649735 
C 521.319841 185.811089 521.791054 184.673482 521.791054 183.487457 
C 521.791054 182.301433 521.319841 181.163825 520.481196 180.32518 
C 519.64255 179.486534 518.504942 179.015321 517.318918 179.015321 
C 516.132894 179.015321 514.995286 179.486534 514.15664 180.32518 
C 513.317994 181.163825 512.846782 182.301433 512.846782 183.487457 
C 512.846782 184.673482 513.317994 185.811089 514.15664 186.649735 
C 514.995286 187.488381 516.132894 187.959593 517.318918 187.959593 
z
" clip-path="url(#pbd0b605e3d)" style="fill: #879dba; stroke: #879dba"/>
    <path d="M 471.514232 161.496536 
C 472.700256 161.496536 473.837864 161.025324 474.67651 160.186678 
C 475.515156 159.348032 475.986368 158.210425 475.986368 157.0244 
C 475.986368 155.838376 475.515156 154.700769 474.67651 153.862123 
C 473.837864 153.023477 472.700256 152.552265 471.514232 152.552265 
C 470.328208 152.552265 469.1906 153.023477 468.351955 153.862123 
C 467.513309 154.700769 467.042096 155.838376 467.042096 157.0244 
C 467.042096 158.210425 467.513309 159.348032 468.351955 160.186678 
C 469.1906 161.025324 470.328208 161.496536 471.514232 161.496536 
z
" clip-path="url(#pbd0b605e3d)" style="fill: #879dba; stroke: #879dba"/>
    <path d="M 421.832793 143.419066 
C 423.018817 143.419066 424.156425 142.947854 424.995071 142.109208 
C 425.833716 141.270562 426.304929 140.132955 426.304929 138.94693 
C 426.304929 137.760906 425.833716 136.623298 424.995071 135.784653 
C 424.156425 134.946007 423.018817 134.474794 421.832793 134.474794 
C 420.646769 134.474794 419.509161 134.946007 418.670515 135.784653 
C 417.831869 136.623298 417.360657 137.760906 417.360657 138.94693 
C 417.360657 140.132955 417.831869 141.270562 418.670515 142.109208 
C 419.509161 142.947854 420.646769 143.419066 421.832793 143.419066 
z
" clip-path="url(#pbd0b605e3d)" style="fill: #879dba; stroke: #879dba"/>
    <path d="M 369.749452 134.232846 
C 370.935476 134.232846 372.073084 133.761633 372.91173 132.922988 
C 373.750376 132.084342 374.221588 130.946734 374.221588 129.76071 
C 374.221588 128.574686 373.750376 127.437078 372.91173 126.598432 
C 372.073084 125.759786 370.935476 125.288574 369.749452 125.288574 
C 368.563428 125.288574 367.42582 125.759786 366.587174 126.598432 
C 365.748529 127.437078 365.277316 128.574686 365.277316 129.76071 
C 365.277316 130.946734 365.748529 132.084342 366.587174 132.922988 
C 367.42582 133.761633 368.563428 134.232846 369.749452 134.232846 
z
" clip-path="url(#pbd0b605e3d)" style="fill: #879dba; stroke: #879dba"/>
    <path d="M 316.865477 134.232846 
C 318.051502 134.232846 319.189109 133.761633 320.027755 132.922988 
C 320.866401 132.084342 321.337613 130.946734 321.337613 129.76071 
C 321.337613 128.574686 320.866401 127.437078 320.027755 126.598432 
C 319.189109 125.759786 318.051502 125.288574 316.865477 125.288574 
C 315.679453 125.288574 314.541845 125.759786 313.7032 126.598432 
C 312.864554 127.437078 312.393341 128.574686 312.393341 129.76071 
C 312.393341 130.946734 312.864554 132.084342 313.7032 132.922988 
C 314.541845 133.761633 315.679453 134.232846 316.865477 134.232846 
z
" clip-path="url(#pbd0b605e3d)" style="fill: #879dba; stroke: #879dba"/>
    <path d="M 264.782136 143.419066 
C 265.968161 143.419066 267.105768 142.947854 267.944414 142.109208 
C 268.78306 141.270562 269.254272 140.132955 269.254272 138.94693 
C 269.254272 137.760906 268.78306 136.623298 267.944414 135.784653 
C 267.105768 134.946007 265.968161 134.474794 264.782136 134.474794 
C 263.596112 134.474794 262.458505 134.946007 261.619859 135.784653 
C 260.781213 136.623298 260.31 137.760906 260.31 138.94693 
C 260.31 140.132955 260.781213 141.270562 261.619859 142.109208 
C 262.458505 142.947854 263.596112 143.419066 264.782136 143.419066 
z
" clip-path="url(#pbd0b605e3d)" style="fill: #879dba; stroke: #879dba"/>
    <path d="M 215.058558 161.496536 
C 216.244583 161.496536 217.38219 161.025324 218.220836 160.186678 
C 219.059482 159.348032 219.530694 158.210425 219.530694 157.0244 
C 219.530694 155.838376 219.059482 154.700769 218.220836 153.862123 
C 217.38219 153.023477 216.244583 152.552265 215.058558 152.552265 
C 213.872534 152.552265 212.734927 153.023477 211.896281 153.862123 
C 211.057635 154.700769 210.586423 155.838376 210.586423 157.0244 
C 210.586423 158.210425 211.057635 159.348032 211.896281 160.186678 
C 212.734927 161.025324 213.872534 161.496536 215.058558 161.496536 
z
" clip-path="url(#pbd0b605e3d)" style="fill: #879dba; stroke: #879dba"/>
    <path d="M 169.253873 187.959593 
C 170.439897 187.959593 171.577505 187.488381 172.41615 186.649735 
C 173.254796 185.811089 173.726009 184.673482 173.726009 183.487457 
C 173.726009 182.301433 173.254796 181.163825 172.41615 180.32518 
C 171.577505 179.486534 170.439897 179.015321 169.253873 179.015321 
C 168.067848 179.015321 166.930241 179.486534 166.091595 180.32518 
C 165.252949 181.163825 164.781737 182.301433 164.781737 183.487457 
C 164.781737 184.673482 165.252949 185.811089 166.091595 186.649735 
C 166.930241 187.488381 168.067848 187.959593 169.253873 187.959593 
z
" clip-path="url(#pbd0b605e3d)" style="fill: #879dba; stroke: #879dba"/>
    <path d="M 128.758654 221.923325 
C 129.944678 221.923325 131.082286 221.452113 131.920932 220.613467 
C 132.759577 219.774821 133.23079 218.637214 133.23079 217.451189 
C 133.23079 216.265165 132.759577 215.127557 131.920932 214.288912 
C 131.082286 213.450266 129.944678 212.979053 128.758654 212.979053 
C 127.57263 212.979053 126.435022 213.450266 125.596376 214.288912 
C 124.75773 215.127557 124.286518 216.265165 124.286518 217.451189 
C 124.286518 218.637214 124.75773 219.774821 125.596376 220.613467 
C 126.435022 221.452113 127.57263 221.923325 128.758654 221.923325 
z
" clip-path="url(#pbd0b605e3d)" style="fill: #879dba; stroke: #879dba"/>
    <path d="M 94.752783 262.460683 
C 95.938808 262.460683 97.076415 261.98947 97.915061 261.150824 
C 98.753707 260.312179 99.224919 259.174571 99.224919 257.988547 
C 99.224919 256.802522 98.753707 255.664915 97.915061 254.826269 
C 97.076415 253.987623 95.938808 253.516411 94.752783 253.516411 
C 93.566759 253.516411 92.429151 253.987623 91.590506 254.826269 
C 90.75186 255.664915 90.280647 256.802522 90.280647 257.988547 
C 90.280647 259.174571 90.75186 260.312179 91.590506 261.150824 
C 92.429151 261.98947 93.566759 262.460683 94.752783 262.460683 
z
" clip-path="url(#pbd0b605e3d)" style="fill: #879dba; stroke: #879dba"/>
    <path d="M 68.331865 308.265368 
C 69.517889 308.265368 70.655497 307.794156 71.494143 306.95551 
C 72.332789 306.116864 72.804001 304.979257 72.804001 303.793232 
C 72.804001 302.607208 72.332789 301.469601 71.494143 300.630955 
C 70.655497 299.792309 69.517889 299.321097 68.331865 299.321097 
C 67.145841 299.321097 66.008233 299.792309 65.169587 300.630955 
C 64.330942 301.469601 63.859729 302.607208 63.859729 303.793232 
C 63.859729 304.979257 64.330942 306.116864 65.169587 306.95551 
C 66.008233 307.794156 67.145841 308.265368 68.331865 308.265368 
z
" clip-path="url(#pbd0b605e3d)" style="fill: #879dba; stroke: #879dba"/>
    <path d="M 50.212256 357.946808 
C 51.398281 357.946808 52.535888 357.475595 53.374534 356.636949 
C 54.21318 355.798304 54.684392 354.660696 54.684392 353.474672 
C 54.684392 352.288647 54.21318 351.15104 53.374534 350.312394 
C 52.535888 349.473748 51.398281 349.002536 50.212256 349.002536 
C 49.026232 349.002536 47.888624 349.473748 47.049979 350.312394 
C 46.211333 351.15104 45.74012 352.288647 45.74012 353.474672 
C 45.74012 354.660696 46.211333 355.798304 47.049979 356.636949 
C 47.888624 357.475595 49.026232 357.946808 50.212256 357.946808 
z
" clip-path="url(#pbd0b605e3d)" style="fill: #879dba; stroke: #879dba"/>
    <path d="M 41.026036 410.025935 
C 42.21206 410.025935 43.349668 409.554722 44.188314 408.716076 
C 45.026959 407.877431 45.498172 406.739823 45.498172 405.553799 
C 45.498172 404.367774 45.026959 403.230167 44.188314 402.391521 
C 43.349668 401.552875 42.21206 401.081663 41.026036 401.081663 
C 39.840012 401.081663 38.702404 401.552875 37.863758 402.391521 
C 37.025112 403.230167 36.5539 404.367774 36.5539 405.553799 
C 36.5539 406.739823 37.025112 407.877431 37.863758 408.716076 
C 38.702404 409.554722 39.840012 410.025935 41.026036 410.025935 
z
" clip-path="url(#pbd0b605e3d)" style="fill: #879dba; stroke: #879dba"/>
    <path d="M 41.026036 462.909909 
C 42.21206 462.909909 43.349668 462.438697 44.188314 461.600051 
C 45.026959 460.761405 45.498172 459.623798 45.498172 458.437774 
C 45.498172 457.251749 45.026959 456.114142 44.188314 455.275496 
C 43.349668 454.43685 42.21206 453.965638 41.026036 453.965638 
C 39.840012 453.965638 38.702404 454.43685 37.863758 455.275496 
C 37.025112 456.114142 36.5539 457.251749 36.5539 458.437774 
C 36.5539 459.623798 37.025112 460.761405 37.863758 461.600051 
C 38.702404 462.438697 39.840012 462.909909 41.026036 462.909909 
z
" clip-path="url(#pbd0b605e3d)" style="fill: #879dba; stroke: #879dba"/>
    <path d="M 50.212256 514.99325 
C 51.398281 514.99325 52.535888 514.522038 53.374534 513.683392 
C 54.21318 512.844746 54.684392 511.707139 54.684392 510.521114 
C 54.684392 509.33509 54.21318 508.197483 53.374534 507.358837 
C 52.535888 506.520191 51.398281 506.048978 50.212256 506.048978 
C 49.026232 506.048978 47.888624 506.520191 47.049979 507.358837 
C 46.211333 508.197483 45.74012 509.33509 45.74012 510.521114 
C 45.74012 511.707139 46.211333 512.844746 47.049979 513.683392 
C 47.888624 514.522038 49.026232 514.99325 50.212256 514.99325 
z
" clip-path="url(#pbd0b605e3d)" style="fill: #879dba; stroke: #879dba"/>
    <path d="M 68.331865 564.687331 
C 69.517889 564.687331 70.655497 564.216119 71.494143 563.377473 
C 72.332789 562.538827 72.804001 561.40122 72.804001 560.215195 
C 72.804001 559.029171 72.332789 557.891563 71.494143 557.052918 
C 70.655497 556.214272 69.517889 555.743059 68.331865 555.743059 
C 67.145841 555.743059 66.008233 556.214272 65.169587 557.052918 
C 64.330942 557.891563 63.859729 559.029171 63.859729 560.215195 
C 63.859729 561.40122 64.330942 562.538827 65.169587 563.377473 
C 66.008233 564.216119 67.145841 564.687331 68.331865 564.687331 
z
" clip-path="url(#pbd0b605e3d)" style="fill: #879dba; stroke: #879dba"/>
    <path d="M 94.752783 610.487803 
C 95.938808 610.487803 97.076415 610.016591 97.915061 609.177945 
C 98.753707 608.339299 99.224919 607.201691 99.224919 606.015667 
C 99.224919 604.829643 98.753707 603.692035 97.915061 602.853389 
C 97.076415 602.014744 95.938808 601.543531 94.752783 601.543531 
C 93.566759 601.543531 92.429151 602.014744 91.590506 602.853389 
C 90.75186 603.692035 90.280647 604.829643 90.280647 606.015667 
C 90.280647 607.201691 90.75186 608.339299 91.590506 609.177945 
C 92.429151 610.016591 93.566759 610.487803 94.752783 610.487803 
z
" clip-path="url(#pbd0b605e3d)" style="fill: #879dba; stroke: #879dba"/>
    <path d="M 128.758654 651.004091 
C 129.944678 651.004091 131.082286 650.532879 131.920932 649.694233 
C 132.759577 648.855587 133.23079 647.71798 133.23079 646.531955 
C 133.23079 645.345931 132.759577 644.208324 131.920932 643.369678 
C 131.082286 642.531032 129.944678 642.059819 128.758654 642.059819 
C 127.57263 642.059819 126.435022 642.531032 125.596376 643.369678 
C 124.75773 644.208324 124.286518 645.345931 124.286518 646.531955 
C 124.286518 647.71798 124.75773 648.855587 125.596376 649.694233 
C 126.435022 650.532879 127.57263 651.004091 128.758654 651.004091 
z
" clip-path="url(#pbd0b605e3d)" style="fill: #879dba; stroke: #879dba"/>
    <path d="M 169.253873 684.99732 
C 170.439897 684.99732 171.577505 684.526108 172.41615 683.687462 
C 173.254796 682.848816 173.726009 681.711209 173.726009 680.525184 
C 173.726009 679.33916 173.254796 678.201553 172.41615 677.362907 
C 171.577505 676.524261 170.439897 676.053048 169.253873 676.053048 
C 168.067848 676.053048 166.930241 676.524261 166.091595 677.362907 
C 165.252949 678.201553 164.781737 679.33916 164.781737 680.525184 
C 164.781737 681.711209 165.252949 682.848816 166.091595 683.687462 
C 166.930241 684.526108 168.067848 684.99732 169.253873 684.99732 
z
" clip-path="url(#pbd0b605e3d)" style="fill: #879dba; stroke: #879dba"/>
    <path d="M 215.058558 711.439308 
C 216.244583 711.439308 217.38219 710.968095 218.220836 710.129449 
C 219.059482 709.290804 219.530694 708.153196 219.530694 706.967172 
C 219.530694 705.781147 219.059482 704.64354 218.220836 703.804894 
C 217.38219 702.966248 216.244583 702.495036 215.058558 702.495036 
C 213.872534 702.495036 212.734927 702.966248 211.896281 703.804894 
C 211.057635 704.64354 210.586423 705.781147 210.586423 706.967172 
C 210.586423 708.153196 211.057635 709.290804 211.896281 710.129449 
C 212.734927 710.968095 213.872534 711.439308 215.058558 711.439308 
z
" clip-path="url(#pbd0b605e3d)" style="fill: #879dba; stroke: #879dba"/>
    <path d="M 264.782136 729.52942 
C 265.968161 729.52942 267.105768 729.058207 267.944414 728.219561 
C 268.78306 727.380915 269.254272 726.243308 269.254272 725.057284 
C 269.254272 723.871259 268.78306 722.733652 267.944414 721.895006 
C 267.105768 721.05636 265.968161 720.585148 264.782136 720.585148 
C 263.596112 720.585148 262.458505 721.05636 261.619859 721.895006 
C 260.781213 722.733652 260.31 723.871259 260.31 725.057284 
C 260.31 726.243308 260.781213 727.380915 261.619859 728.219561 
C 262.458505 729.058207 263.596112 729.52942 264.782136 729.52942 
z
" clip-path="url(#pbd0b605e3d)" style="fill: #879dba; stroke: #879dba"/>
    <path d="M 316.865477 738.711426 
C 318.051502 738.711426 319.189109 738.240214 320.027755 737.401568 
C 320.866401 736.562922 321.337613 735.425314 321.337613 734.23929 
C 321.337613 733.053266 320.866401 731.915658 320.027755 731.077012 
C 319.189109 730.238367 318.051502 729.767154 316.865477 729.767154 
C 315.679453 729.767154 314.541845 730.238367 313.7032 731.077012 
C 312.864554 731.915658 312.393341 733.053266 312.393341 734.23929 
C 312.393341 735.425314 312.864554 736.562922 313.7032 737.401568 
C 314.541845 738.240214 315.679453 738.711426 316.865477 738.711426 
z
" clip-path="url(#pbd0b605e3d)" style="fill: #879dba; stroke: #879dba"/>
    <path d="M 369.749452 738.711426 
C 370.935476 738.711426 372.073084 738.240214 372.91173 737.401568 
C 373.750376 736.562922 374.221588 735.425314 374.221588 734.23929 
C 374.221588 733.053266 373.750376 731.915658 372.91173 731.077012 
C 372.073084 730.238367 370.935476 729.767154 369.749452 729.767154 
C 368.563428 729.767154 367.42582 730.238367 366.587174 731.077012 
C 365.748529 731.915658 365.277316 733.053266 365.277316 734.23929 
C 365.277316 735.425314 365.748529 736.562922 366.587174 737.401568 
C 367.42582 738.240214 368.563428 738.711426 369.749452 738.711426 
z
" clip-path="url(#pbd0b605e3d)" style="fill: #879dba; stroke: #879dba"/>
    <path d="M 421.832793 729.52942 
C 423.018817 729.52942 424.156425 729.058207 424.995071 728.219561 
C 425.833716 727.380915 426.304929 726.243308 426.304929 725.057284 
C 426.304929 723.871259 425.833716 722.733652 424.995071 721.895006 
C 424.156425 721.05636 423.018817 720.585148 421.832793 720.585148 
C 420.646769 720.585148 419.509161 721.05636 418.670515 721.895006 
C 417.831869 722.733652 417.360657 723.871259 417.360657 725.057284 
C 417.360657 726.243308 417.831869 727.380915 418.670515 728.219561 
C 419.509161 729.058207 420.646769 729.52942 421.832793 729.52942 
z
" clip-path="url(#pbd0b605e3d)" style="fill: #879dba; stroke: #879dba"/>
    <path d="M 471.514232 711.439308 
C 472.700256 711.439308 473.837864 710.968095 474.67651 710.129449 
C 475.515156 709.290804 475.986368 708.153196 475.986368 706.967172 
C 475.986368 705.781147 475.515156 704.64354 474.67651 703.804894 
C 473.837864 702.966248 472.700256 702.495036 471.514232 702.495036 
C 470.328208 702.495036 469.1906 702.966248 468.351955 703.804894 
C 467.513309 704.64354 467.042096 705.781147 467.042096 706.967172 
C 467.042096 708.153196 467.513309 709.290804 468.351955 710.129449 
C 469.1906 710.968095 470.328208 711.439308 471.514232 711.439308 
z
" clip-path="url(#pbd0b605e3d)" style="fill: #879dba; stroke: #879dba"/>
    <path d="M 517.318918 684.99732 
C 518.504942 684.99732 519.64255 684.526108 520.481196 683.687462 
C 521.319841 682.848816 521.791054 681.711209 521.791054 680.525184 
C 521.791054 679.33916 521.319841 678.201553 520.481196 677.362907 
C 519.64255 676.524261 518.504942 676.053048 517.318918 676.053048 
C 516.132894 676.053048 514.995286 676.524261 514.15664 677.362907 
C 513.317994 678.201553 512.846782 679.33916 512.846782 680.525184 
C 512.846782 681.711209 513.317994 682.848816 514.15664 683.687462 
C 514.995286 684.526108 516.132894 684.99732 517.318918 684.99732 
z
" clip-path="url(#pbd0b605e3d)" style="fill: #879dba; stroke: #879dba"/>
    <path d="M 557.814137 651.004091 
C 559.000161 651.004091 560.137769 650.532879 560.976414 649.694233 
C 561.81506 648.855587 562.286273 647.71798 562.286273 646.531955 
C 562.286273 645.345931 561.81506 644.208324 560.976414 643.369678 
C 560.137769 642.531032 559.000161 642.059819 557.814137 642.059819 
C 556.628113 642.059819 555.490505 642.531032 554.651859 643.369678 
C 553.813213 644.208324 553.342001 645.345931 553.342001 646.531955 
C 553.342001 647.71798 553.813213 648.855587 554.651859 649.694233 
C 555.490505 650.532879 556.628113 651.004091 557.814137 651.004091 
z
" clip-path="url(#pbd0b605e3d)" style="fill: #879dba; stroke: #879dba"/>
    <path d="M 591.820007 610.487803 
C 593.006032 610.487803 594.143639 610.016591 594.982285 609.177945 
C 595.820931 608.339299 596.292143 607.201691 596.292143 606.015667 
C 596.292143 604.829643 595.820931 603.692035 594.982285 602.853389 
C 594.143639 602.014744 593.006032 601.543531 591.820007 601.543531 
C 590.633983 601.543531 589.496376 602.014744 588.65773 602.853389 
C 587.819084 603.692035 587.347872 604.829643 587.347872 606.015667 
C 587.347872 607.201691 587.819084 608.339299 588.65773 609.177945 
C 589.496376 610.016591 590.633983 610.487803 591.820007 610.487803 
z
" clip-path="url(#pbd0b605e3d)" style="fill: #879dba; stroke: #879dba"/>
    <path d="M 618.240926 564.687331 
C 619.42695 564.687331 620.564557 564.216119 621.403203 563.377473 
C 622.241849 562.538827 622.713061 561.40122 622.713061 560.215195 
C 622.713061 559.029171 622.241849 557.891563 621.403203 557.052918 
C 620.564557 556.214272 619.42695 555.743059 618.240926 555.743059 
C 617.054901 555.743059 615.917294 556.214272 615.078648 557.052918 
C 614.240002 557.891563 613.76879 559.029171 613.76879 560.215195 
C 613.76879 561.40122 614.240002 562.538827 615.078648 563.377473 
C 615.917294 564.216119 617.054901 564.687331 618.240926 564.687331 
z
" clip-path="url(#pbd0b605e3d)" style="fill: #879dba; stroke: #879dba"/>
    <path d="M 636.360534 514.99325 
C 637.546559 514.99325 638.684166 514.522038 639.522812 513.683392 
C 640.361458 512.844746 640.83267 511.707139 640.83267 510.521114 
C 640.83267 509.33509 640.361458 508.197483 639.522812 507.358837 
C 638.684166 506.520191 637.546559 506.048978 636.360534 506.048978 
C 635.17451 506.048978 634.036903 506.520191 633.198257 507.358837 
C 632.359611 508.197483 631.888398 509.33509 631.888398 510.521114 
C 631.888398 511.707139 632.359611 512.844746 633.198257 513.683392 
C 634.036903 514.522038 635.17451 514.99325 636.360534 514.99325 
z
" clip-path="url(#pbd0b605e3d)" style="fill: #879dba; stroke: #879dba"/>
   </g>
   <g id="patch_3">
    <path d="M 10.8 764.486395 
L 10.8 99.513605 
" style="fill: none; stroke: #000000; stroke-width: 0.8; stroke-linejoin: miter; stroke-linecap: square"/>
   </g>
   <g id="patch_4">
    <path d="M 675.772791 764.486395 
L 675.772791 99.513605 
" style="fill: none; stroke: #000000; stroke-width: 0.8; stroke-linejoin: miter; stroke-linecap: square"/>
   </g>
   <g id="patch_5">
    <path d="M 10.8 764.486395 
L 675.772791 764.486395 
" style="fill: none; stroke: #000000; stroke-width: 0.8; stroke-linejoin: miter; stroke-linecap: square"/>
   </g>
   <g id="patch_6">
    <path d="M 10.8 99.513605 
L 675.772791 99.513605 
" style="fill: none; stroke: #000000; stroke-width: 0.8; stroke-linejoin: miter; stroke-linecap: square"/>
   </g>
   <g id="text_1">
    <!-- Year: 1755 -->
    <g transform="translate(17.449728 126.918828) scale(0.3 -0.3)">
     <defs>
      <path id="CMR17-59" d="M 3706 3766 
C 3955 4160 4301 4160 4416 4160 
L 4416 4332 
C 4269 4319 4102 4319 3942 4319 
C 3782 4319 3526 4319 3373 4332 
L 3373 4160 
C 3533 4160 3616 4077 3616 3957 
C 3616 3881 3584 3830 3533 3747 
L 2381 1912 
L 1120 3912 
C 1075 3988 1069 3994 1069 4039 
C 1069 4160 1293 4160 1382 4160 
L 1382 4319 
C 1178 4319 864 4319 653 4319 
C 486 4319 166 4319 13 4332 
L 13 4160 
C 378 4160 480 4141 595 3958 
L 2010 1728 
L 2010 445 
C 2010 160 1939 160 1498 160 
L 1498 0 
C 1683 0 2016 0 2214 0 
C 2413 0 2752 0 2938 0 
L 2938 160 
C 2477 160 2419 160 2419 471 
L 2419 1728 
L 3706 3766 
z
" transform="scale(0.015625)"/>
      <path id="CMR17-65" d="M 2438 1472 
C 2464 1498 2464 1511 2464 1576 
C 2464 2238 2118 2816 1389 2816 
C 710 2816 173 2169 173 1383 
C 173 551 781 -64 1459 -64 
C 2176 -64 2458 607 2458 740 
C 2458 784 2419 784 2406 784 
C 2362 784 2355 771 2330 696 
C 2189 265 1837 51 1504 51 
C 1229 51 954 203 781 480 
C 582 803 582 1176 582 1472 
L 2438 1472 
z
M 589 1568 
C 634 2505 1126 2714 1382 2714 
C 1818 2714 2112 2297 2118 1568 
L 589 1568 
z
" transform="scale(0.015625)"/>
      <path id="CMR17-61" d="M 2304 1653 
C 2304 2072 2304 2294 2035 2543 
C 1798 2752 1523 2816 1306 2816 
C 800 2816 435 2407 435 1971 
C 435 1728 627 1728 666 1728 
C 749 1728 896 1778 896 1954 
C 896 2112 774 2181 666 2181 
C 640 2181 608 2174 589 2168 
C 723 2592 1069 2714 1293 2714 
C 1613 2714 1965 2429 1965 1885 
L 1965 1600 
C 1587 1600 1133 1549 774 1357 
C 371 1133 256 813 256 570 
C 256 77 832 -64 1171 -64 
C 1523 -64 1850 139 1990 511 
C 2003 233 2182 -18 2464 -18 
C 2598 -18 2938 70 2938 567 
L 2938 920 
L 2822 920 
L 2822 562 
C 2822 178 2650 128 2566 128 
C 2304 128 2304 458 2304 738 
L 2304 1653 
z
M 1965 870 
C 1965 317 1568 38 1216 38 
C 896 38 646 275 646 570 
C 646 761 730 1100 1101 1305 
C 1408 1478 1760 1504 1965 1504 
L 1965 870 
z
" transform="scale(0.015625)"/>
      <path id="CMR17-72" d="M 960 1497 
C 960 2112 1222 2688 1702 2688 
C 1747 2688 1792 2682 1837 2662 
C 1837 2662 1696 2617 1696 2452 
C 1696 2298 1818 2234 1914 2234 
C 1990 2234 2131 2279 2131 2458 
C 2131 2663 1926 2790 1709 2790 
C 1222 2790 1011 2317 947 2093 
L 941 2093 
L 941 2790 
L 198 2720 
L 198 2554 
C 576 2554 634 2515 634 2208 
L 634 428 
C 634 184 608 153 198 153 
L 198 -13 
C 352 0 646 0 813 0 
C 998 0 1325 0 1498 -13 
L 1498 153 
C 1037 153 960 153 960 440 
L 960 1497 
z
" transform="scale(0.015625)"/>
      <path id="CMR17-3a" d="M 1062 2491 
C 1062 2650 934 2752 800 2752 
C 672 2752 538 2650 538 2491 
C 538 2332 666 2230 800 2230 
C 928 2230 1062 2332 1062 2491 
z
M 1062 261 
C 1062 420 934 522 800 522 
C 672 522 538 420 538 261 
C 538 102 666 0 800 0 
C 928 0 1062 102 1062 261 
z
" transform="scale(0.015625)"/>
      <path id="CMR17-31" d="M 1702 4058 
C 1702 4192 1696 4192 1606 4192 
C 1357 3916 979 3827 621 3827 
C 602 3827 570 3827 563 3808 
C 557 3795 557 3782 557 3648 
C 755 3648 1088 3686 1344 3839 
L 1344 461 
C 1344 236 1331 160 781 160 
L 589 160 
L 589 0 
C 896 0 1216 0 1523 0 
C 1830 0 2150 0 2458 0 
L 2458 160 
L 2266 160 
C 1715 160 1702 230 1702 458 
L 1702 4058 
z
" transform="scale(0.015625)"/>
      <path id="CMR17-37" d="M 2886 3941 
L 2886 4081 
L 1382 4081 
C 634 4081 621 4165 595 4288 
L 480 4288 
L 294 3094 
L 410 3094 
C 429 3215 474 3540 550 3661 
C 589 3712 1062 3712 1171 3712 
L 2579 3712 
L 1869 2661 
C 1395 1954 1069 999 1069 165 
C 1069 89 1069 -128 1299 -128 
C 1530 -128 1530 89 1530 171 
L 1530 465 
C 1530 1508 1709 2196 2003 2636 
L 2886 3941 
z
" transform="scale(0.015625)"/>
      <path id="CMR17-35" d="M 730 3692 
C 794 3666 1056 3584 1325 3584 
C 1920 3584 2246 3911 2432 4100 
C 2432 4157 2432 4192 2394 4192 
C 2387 4192 2374 4192 2323 4163 
C 2099 4058 1837 3973 1517 3973 
C 1325 3973 1037 3999 723 4139 
C 653 4171 640 4171 634 4171 
C 602 4171 595 4164 595 4037 
L 595 2203 
C 595 2089 595 2057 659 2057 
C 691 2057 704 2070 736 2114 
C 941 2401 1222 2522 1542 2522 
C 1766 2522 2246 2382 2246 1289 
C 2246 1085 2246 715 2054 421 
C 1894 159 1645 25 1370 25 
C 947 25 518 320 403 814 
C 429 807 480 795 506 795 
C 589 795 749 840 749 1038 
C 749 1210 627 1280 506 1280 
C 358 1280 262 1190 262 1011 
C 262 454 704 -128 1382 -128 
C 2042 -128 2669 440 2669 1264 
C 2669 2030 2170 2624 1549 2624 
C 1222 2624 947 2503 730 2274 
L 730 3692 
z
" transform="scale(0.015625)"/>
     </defs>
     <use xlink:href="#CMR17-59" transform="scale(0.996264)"/>
     <use xlink:href="#CMR17-65" transform="translate(61.265174 0) scale(0.996264)"/>
     <use xlink:href="#CMR17-61" transform="translate(101.750835 0) scale(0.996264)"/>
     <use xlink:href="#CMR17-72" transform="translate(147.441312 0) scale(0.996264)"/>
     <use xlink:href="#CMR17-3a" transform="translate(182.72208 0) scale(0.996264)"/>
     <use xlink:href="#CMR17-31" transform="translate(248.078799 0) scale(0.996264)"/>
     <use xlink:href="#CMR17-37" transform="translate(293.769276 0) scale(0.996264)"/>
     <use xlink:href="#CMR17-35" transform="translate(339.459753 0) scale(0.996264)"/>
     <use xlink:href="#CMR17-35" transform="translate(385.15023 0) scale(0.996264)"/>
    </g>
   </g>
  </g>
  <g id="axes_2">
   <g id="patch_7">
    <path d="M 717.33359 853.2 
L 759.45359 853.2 
L 759.45359 10.8 
L 717.33359 10.8 
z
" style="fill: #ffffff"/>
   </g>
   <g id="QuadMesh_1">
    <path d="M 717.33359 853.2 
L 759.45359 853.2 
L 759.45359 747.9 
L 717.33359 747.9 
L 717.33359 853.2 
" clip-path="url(#p33575a9ceb)" style="fill: #ad35ca"/>
    <path d="M 717.33359 747.9 
L 759.45359 747.9 
L 759.45359 642.6 
L 717.33359 642.6 
L 717.33359 747.9 
" clip-path="url(#p33575a9ceb)" style="fill: #8f81b5"/>
    <path d="M 717.33359 642.6 
L 759.45359 642.6 
L 759.45359 537.3 
L 717.33359 537.3 
L 717.33359 642.6 
" clip-path="url(#p33575a9ceb)" style="fill: #879dba"/>
    <path d="M 717.33359 537.3 
L 759.45359 537.3 
L 759.45359 432 
L 717.33359 432 
L 717.33359 537.3 
" clip-path="url(#p33575a9ceb)" style="fill: #7bb4be"/>
    <path d="M 717.33359 432 
L 759.45359 432 
L 759.45359 326.7 
L 717.33359 326.7 
L 717.33359 432 
" clip-path="url(#p33575a9ceb)" style="fill: #79c6b7"/>
    <path d="M 717.33359 326.7 
L 759.45359 326.7 
L 759.45359 221.4 
L 717.33359 221.4 
L 717.33359 326.7 
" clip-path="url(#p33575a9ceb)" style="fill: #a1ccad"/>
    <path d="M 717.33359 221.4 
L 759.45359 221.4 
L 759.45359 116.1 
L 717.33359 116.1 
L 717.33359 221.4 
" clip-path="url(#p33575a9ceb)" style="fill: #c1d59b"/>
    <path d="M 717.33359 116.1 
L 759.45359 116.1 
L 759.45359 10.8 
L 717.33359 10.8 
L 717.33359 116.1 
" clip-path="url(#p33575a9ceb)" style="fill: #e4dc96"/>
   </g>
   <g id="matplotlib.axis_3"/>
   <g id="matplotlib.axis_4">
    <g id="ytick_9">
     <g id="line2d_1">
      <defs>
       <path id="me424d2d38f" d="M 0 0 
L 3.5 0 
" style="stroke: #000000; stroke-width: 0.8"/>
      </defs>
      <g>
       <use xlink:href="#me424d2d38f" x="759.45359" y="800.55" style="stroke: #000000; stroke-width: 0.8"/>
      </g>
     </g>
     <g id="text_2">
      <!-- 0 -->
      <g transform="translate(766.45359 811.619603) scale(0.32 -0.32)">
       <defs>
        <path id="CMR17-30" d="M 2688 2025 
C 2688 2416 2682 3080 2413 3591 
C 2176 4039 1798 4198 1466 4198 
C 1158 4198 768 4058 525 3597 
C 269 3118 243 2524 243 2025 
C 243 1661 250 1106 448 619 
C 723 -39 1216 -128 1466 -128 
C 1760 -128 2208 -7 2470 600 
C 2662 1042 2688 1559 2688 2025 
z
M 1466 -26 
C 1056 -26 813 325 723 812 
C 653 1188 653 1738 653 2096 
C 653 2588 653 2997 736 3387 
C 858 3929 1216 4096 1466 4096 
C 1728 4096 2067 3923 2189 3400 
C 2272 3036 2278 2607 2278 2096 
C 2278 1680 2278 1169 2202 792 
C 2067 95 1690 -26 1466 -26 
z
" transform="scale(0.015625)"/>
       </defs>
       <use xlink:href="#CMR17-30" transform="scale(0.996264)"/>
      </g>
     </g>
    </g>
    <g id="ytick_10">
     <g id="line2d_2">
      <g>
       <use xlink:href="#me424d2d38f" x="759.45359" y="695.25" style="stroke: #000000; stroke-width: 0.8"/>
      </g>
     </g>
     <g id="text_3">
      <!-- 1 -->
      <g transform="translate(766.45359 706.319603) scale(0.32 -0.32)">
       <use xlink:href="#CMR17-31" transform="scale(0.996264)"/>
      </g>
     </g>
    </g>
    <g id="ytick_11">
     <g id="line2d_3">
      <g>
       <use xlink:href="#me424d2d38f" x="759.45359" y="589.95" style="stroke: #000000; stroke-width: 0.8"/>
      </g>
     </g>
     <g id="text_4">
      <!-- 2 -->
      <g transform="translate(766.45359 601.019603) scale(0.32 -0.32)">
       <defs>
        <path id="CMR17-32" d="M 2669 989 
L 2554 989 
C 2490 536 2438 459 2413 420 
C 2381 369 1920 369 1830 369 
L 602 369 
C 832 619 1280 1072 1824 1597 
C 2214 1967 2669 2402 2669 3035 
C 2669 3790 2067 4224 1395 4224 
C 691 4224 262 3604 262 3030 
C 262 2780 448 2748 525 2748 
C 589 2748 781 2787 781 3010 
C 781 3207 614 3264 525 3264 
C 486 3264 448 3258 422 3245 
C 544 3790 915 4058 1306 4058 
C 1862 4058 2227 3617 2227 3035 
C 2227 2479 1901 2000 1536 1584 
L 262 146 
L 262 0 
L 2515 0 
L 2669 989 
z
" transform="scale(0.015625)"/>
       </defs>
       <use xlink:href="#CMR17-32" transform="scale(0.996264)"/>
      </g>
     </g>
    </g>
    <g id="ytick_12">
     <g id="line2d_4">
      <g>
       <use xlink:href="#me424d2d38f" x="759.45359" y="484.65" style="stroke: #000000; stroke-width: 0.8"/>
      </g>
     </g>
     <g id="text_5">
      <!-- 3 -->
      <g transform="translate(766.45359 495.719603) scale(0.32 -0.32)">
       <defs>
        <path id="CMR17-33" d="M 1414 2157 
C 1984 2157 2234 1662 2234 1090 
C 2234 320 1824 25 1453 25 
C 1114 25 563 194 390 693 
C 422 680 454 680 486 680 
C 640 680 755 782 755 948 
C 755 1133 614 1216 486 1216 
C 378 1216 211 1165 211 926 
C 211 335 787 -128 1466 -128 
C 2176 -128 2720 430 2720 1085 
C 2720 1707 2208 2157 1600 2227 
C 2086 2328 2554 2756 2554 3329 
C 2554 3820 2048 4179 1472 4179 
C 890 4179 378 3829 378 3329 
C 378 3110 544 3072 627 3072 
C 762 3072 877 3155 877 3321 
C 877 3486 762 3569 627 3569 
C 602 3569 570 3569 544 3557 
C 730 3959 1235 4032 1459 4032 
C 1683 4032 2106 3925 2106 3320 
C 2106 3143 2080 2828 1862 2550 
C 1670 2304 1453 2304 1242 2284 
C 1210 2284 1062 2269 1037 2269 
C 992 2263 966 2257 966 2208 
C 966 2163 973 2157 1101 2157 
L 1414 2157 
z
" transform="scale(0.015625)"/>
       </defs>
       <use xlink:href="#CMR17-33" transform="scale(0.996264)"/>
      </g>
     </g>
    </g>
    <g id="ytick_13">
     <g id="line2d_5">
      <g>
       <use xlink:href="#me424d2d38f" x="759.45359" y="379.35" style="stroke: #000000; stroke-width: 0.8"/>
      </g>
     </g>
     <g id="text_6">
      <!-- 4 -->
      <g transform="translate(766.45359 390.419603) scale(0.32 -0.32)">
       <defs>
        <path id="CMR17-34" d="M 2150 4122 
C 2150 4256 2144 4256 2029 4256 
L 128 1254 
L 128 1088 
L 1779 1088 
L 1779 457 
C 1779 224 1766 160 1318 160 
L 1197 160 
L 1197 0 
C 1402 0 1747 0 1965 0 
C 2182 0 2528 0 2733 0 
L 2733 160 
L 2611 160 
C 2163 160 2150 224 2150 457 
L 2150 1088 
L 2803 1088 
L 2803 1254 
L 2150 1254 
L 2150 4122 
z
M 1798 3703 
L 1798 1254 
L 256 1254 
L 1798 3703 
z
" transform="scale(0.015625)"/>
       </defs>
       <use xlink:href="#CMR17-34" transform="scale(0.996264)"/>
      </g>
     </g>
    </g>
    <g id="ytick_14">
     <g id="line2d_6">
      <g>
       <use xlink:href="#me424d2d38f" x="759.45359" y="274.05" style="stroke: #000000; stroke-width: 0.8"/>
      </g>
     </g>
     <g id="text_7">
      <!-- 5 -->
      <g transform="translate(766.45359 285.119603) scale(0.32 -0.32)">
       <use xlink:href="#CMR17-35" transform="scale(0.996264)"/>
      </g>
     </g>
    </g>
    <g id="ytick_15">
     <g id="line2d_7">
      <g>
       <use xlink:href="#me424d2d38f" x="759.45359" y="168.75" style="stroke: #000000; stroke-width: 0.8"/>
      </g>
     </g>
     <g id="text_8">
      <!-- 6 -->
      <g transform="translate(766.45359 179.819603) scale(0.32 -0.32)">
       <defs>
        <path id="CMR17-36" d="M 678 2176 
C 678 3690 1395 4032 1811 4032 
C 1946 4032 2272 4009 2400 3776 
C 2298 3776 2106 3776 2106 3553 
C 2106 3381 2246 3323 2336 3323 
C 2394 3323 2566 3348 2566 3560 
C 2566 3954 2246 4179 1805 4179 
C 1043 4179 243 3390 243 1984 
C 243 253 966 -128 1478 -128 
C 2099 -128 2688 427 2688 1283 
C 2688 2081 2170 2662 1517 2662 
C 1126 2662 838 2407 678 1960 
L 678 2176 
z
M 1478 25 
C 691 25 691 1200 691 1436 
C 691 1896 909 2560 1504 2560 
C 1613 2560 1926 2560 2138 2120 
C 2253 1870 2253 1609 2253 1289 
C 2253 944 2253 690 2118 434 
C 1978 171 1773 25 1478 25 
z
" transform="scale(0.015625)"/>
       </defs>
       <use xlink:href="#CMR17-36" transform="scale(0.996264)"/>
      </g>
     </g>
    </g>
    <g id="ytick_16">
     <g id="line2d_8">
      <g>
       <use xlink:href="#me424d2d38f" x="759.45359" y="63.45" style="stroke: #000000; stroke-width: 0.8"/>
      </g>
     </g>
     <g id="text_9">
      <!-- 7 -->
      <g transform="translate(766.45359 74.519603) scale(0.32 -0.32)">
       <use xlink:href="#CMR17-37" transform="scale(0.996264)"/>
      </g>
     </g>
    </g>
    <g id="ytick_17">
     <g id="line2d_9">
      <defs>
       <path id="mc452e69be2" d="M 0 0 
L 2 0 
" style="stroke: #000000; stroke-width: 0.6"/>
      </defs>
      <g>
       <use xlink:href="#mc452e69be2" x="759.45359" y="853.2" style="stroke: #000000; stroke-width: 0.6"/>
      </g>
     </g>
    </g>
    <g id="ytick_18">
     <g id="line2d_10">
      <g>
       <use xlink:href="#mc452e69be2" x="759.45359" y="747.9" style="stroke: #000000; stroke-width: 0.6"/>
      </g>
     </g>
    </g>
    <g id="ytick_19">
     <g id="line2d_11">
      <g>
       <use xlink:href="#mc452e69be2" x="759.45359" y="642.6" style="stroke: #000000; stroke-width: 0.6"/>
      </g>
     </g>
    </g>
    <g id="ytick_20">
     <g id="line2d_12">
      <g>
       <use xlink:href="#mc452e69be2" x="759.45359" y="537.3" style="stroke: #000000; stroke-width: 0.6"/>
      </g>
     </g>
    </g>
    <g id="ytick_21">
     <g id="line2d_13">
      <g>
       <use xlink:href="#mc452e69be2" x="759.45359" y="432" style="stroke: #000000; stroke-width: 0.6"/>
      </g>
     </g>
    </g>
    <g id="ytick_22">
     <g id="line2d_14">
      <g>
       <use xlink:href="#mc452e69be2" x="759.45359" y="326.7" style="stroke: #000000; stroke-width: 0.6"/>
      </g>
     </g>
    </g>
    <g id="ytick_23">
     <g id="line2d_15">
      <g>
       <use xlink:href="#mc452e69be2" x="759.45359" y="221.4" style="stroke: #000000; stroke-width: 0.6"/>
      </g>
     </g>
    </g>
    <g id="ytick_24">
     <g id="line2d_16">
      <g>
       <use xlink:href="#mc452e69be2" x="759.45359" y="116.1" style="stroke: #000000; stroke-width: 0.6"/>
      </g>
     </g>
    </g>
    <g id="ytick_25">
     <g id="line2d_17">
      <g>
       <use xlink:href="#mc452e69be2" x="759.45359" y="10.8" style="stroke: #000000; stroke-width: 0.6"/>
      </g>
     </g>
    </g>
    <g id="text_10">
     <!-- Node Depth -->
     <g transform="translate(828.899641 543.95779) rotate(-90) scale(0.46 -0.46)">
      <defs>
       <path id="CMR17-4e" d="M 1312 4250 
C 1267 4320 1261 4320 1139 4320 
L 326 4320 
L 326 4160 
L 448 4160 
C 704 4160 819 4129 838 4122 
L 838 610 
C 838 451 838 153 326 153 
L 326 -13 
C 474 0 742 0 902 0 
C 1062 0 1331 0 1478 -13 
L 1478 153 
C 966 153 966 451 966 610 
L 966 4033 
C 1011 3995 1011 3982 1056 3919 
L 3430 76 
C 3475 0 3494 0 3526 0 
C 3590 0 3590 19 3590 139 
L 3590 3705 
C 3590 3863 3590 4160 4102 4160 
L 4102 4326 
C 3955 4320 3686 4320 3526 4320 
C 3366 4320 3098 4320 2950 4326 
L 2950 4160 
C 3462 4160 3462 3862 3462 3703 
L 3462 763 
L 1312 4250 
z
" transform="scale(0.015625)"/>
       <path id="CMR17-6f" d="M 2758 1356 
C 2758 2176 2163 2816 1466 2816 
C 768 2816 173 2176 173 1356 
C 173 551 768 -64 1466 -64 
C 2163 -64 2758 551 2758 1356 
z
M 1466 51 
C 1165 51 909 230 762 480 
C 602 767 582 1126 582 1408 
C 582 1677 595 2010 762 2298 
C 890 2509 1139 2714 1466 2714 
C 1754 2714 1997 2554 2150 2330 
C 2349 2029 2349 1607 2349 1408 
C 2349 1158 2336 775 2163 467 
C 1984 173 1709 51 1466 51 
z
" transform="scale(0.015625)"/>
       <path id="CMR17-64" d="M 1869 4326 
L 1869 4160 
C 2246 4160 2304 4122 2304 3820 
L 2304 2345 
C 2278 2377 2016 2790 1498 2790 
C 845 2790 211 2208 211 1364 
C 211 525 806 -64 1434 -64 
C 1978 -64 2259 337 2291 380 
L 2291 -63 
L 3066 -63 
L 3066 128 
C 2688 128 2630 166 2630 473 
L 2630 4396 
L 1869 4326 
z
M 2291 755 
C 2291 563 2176 390 2029 262 
C 1811 70 1594 38 1472 38 
C 1286 38 621 134 621 1356 
C 621 2612 1363 2688 1530 2688 
C 1824 2688 2061 2522 2208 2291 
C 2291 2157 2291 2138 2291 2023 
L 2291 755 
z
" transform="scale(0.015625)"/>
       <path id="CMR17-44" d="M 333 4352 
L 333 4186 
C 774 4186 845 4186 845 3900 
L 845 452 
C 845 166 774 166 333 166 
L 333 0 
L 2368 0 
C 3398 0 4224 943 4224 2141 
C 4224 3346 3411 4352 2368 4352 
L 333 4352 
z
M 1523 166 
C 1267 166 1254 197 1254 414 
L 1254 3938 
C 1254 4155 1267 4186 1523 4186 
L 2240 4186 
C 2771 4186 3750 3874 3750 2141 
C 3750 1242 3488 879 3366 707 
C 3213 510 2848 166 2240 166 
L 1523 166 
z
" transform="scale(0.015625)"/>
       <path id="CMR17-70" d="M 1408 -1063 
C 998 -1063 973 -1037 973 -789 
L 973 402 
C 1158 134 1427 -38 1766 -38 
C 2406 -38 3053 523 3053 1388 
C 3053 2191 2496 2802 1837 2802 
C 1453 2802 1139 2592 960 2338 
L 960 2802 
L 198 2732 
L 198 2567 
C 576 2567 634 2528 634 2223 
L 634 -789 
C 634 -1031 608 -1063 198 -1063 
L 198 -1228 
C 352 -1216 634 -1216 800 -1216 
C 966 -1216 1254 -1216 1408 -1228 
L 1408 -1063 
z
M 973 2012 
C 973 2102 973 2235 1222 2471 
C 1254 2497 1472 2688 1792 2688 
C 2259 2688 2643 2108 2643 1382 
C 2643 656 2234 64 1728 64 
C 1498 64 1248 172 1056 472 
C 973 612 973 650 973 752 
L 973 2012 
z
" transform="scale(0.015625)"/>
       <path id="CMR17-74" d="M 966 2560 
L 1862 2560 
L 1862 2725 
L 966 2725 
L 966 3904 
L 851 3904 
C 838 3245 614 2668 70 2668 
L 70 2560 
L 627 2560 
L 627 771 
C 627 650 627 -64 1370 -64 
C 1747 -64 1965 306 1965 777 
L 1965 1140 
L 1850 1140 
L 1850 783 
C 1850 344 1677 51 1408 51 
C 1222 51 966 178 966 758 
L 966 2560 
z
" transform="scale(0.015625)"/>
       <path id="CMR17-68" d="M 2656 1933 
C 2656 2259 2592 2790 1837 2790 
C 1312 2790 1056 2368 979 2157 
L 973 2157 
L 973 4396 
L 211 4326 
L 211 4160 
C 589 4160 646 4122 646 3817 
L 646 426 
C 646 184 621 153 211 153 
L 211 -13 
C 365 0 646 0 813 0 
C 979 0 1267 0 1421 -13 
L 1421 153 
C 1011 153 986 178 986 428 
L 986 1658 
C 986 2247 1344 2688 1792 2688 
C 2266 2688 2317 2266 2317 1958 
L 2317 428 
C 2317 184 2291 153 1882 153 
L 1882 -13 
C 2035 0 2317 0 2483 0 
C 2650 0 2938 0 3091 -13 
L 3091 153 
C 2682 153 2656 178 2656 428 
L 2656 1933 
z
" transform="scale(0.015625)"/>
      </defs>
      <use xlink:href="#CMR17-4e" transform="scale(0.996264)"/>
      <use xlink:href="#CMR17-6f" transform="translate(69.07243 0) scale(0.996264)"/>
      <use xlink:href="#CMR17-64" transform="translate(117.365346 0) scale(0.996264)"/>
      <use xlink:href="#CMR17-65" transform="translate(168.260715 0) scale(0.996264)"/>
      <use xlink:href="#CMR17-44" transform="translate(238.822342 0) scale(0.996264)"/>
      <use xlink:href="#CMR17-65" transform="translate(309.215898 0) scale(0.996264)"/>
      <use xlink:href="#CMR17-70" transform="translate(349.701559 0) scale(0.996264)"/>
      <use xlink:href="#CMR17-74" transform="translate(400.596928 0) scale(0.996264)"/>
      <use xlink:href="#CMR17-68" transform="translate(435.877696 0) scale(0.996264)"/>
     </g>
    </g>
   </g>
   <g id="LineCollection_2"/>
   <g id="patch_8">
    <path d="M 717.33359 853.2 
L 738.39359 853.2 
L 759.45359 853.2 
L 759.45359 10.8 
L 738.39359 10.8 
L 717.33359 10.8 
L 717.33359 853.2 
z
" style="fill: none; stroke: #000000; stroke-width: 0.8; stroke-linejoin: miter; stroke-linecap: square"/>
   </g>
  </g>
 </g>
 <defs>
  <clipPath id="pbd0b605e3d">
   <rect x="10.8" y="99.513605" width="664.972791" height="664.972791"/>
  </clipPath>
  <clipPath id="p33575a9ceb">
   <rect x="717.33359" y="10.8" width="42.12" height="842.4"/>
  </clipPath>
 </defs>
</svg>
