<?xml version="1.0" encoding="utf-8" standalone="no"?>
<!DOCTYPE svg PUBLIC "-//W3C//DTD SVG 1.1//EN"
  "http://www.w3.org/Graphics/SVG/1.1/DTD/svg11.dtd">
<svg xmlns:xlink="http://www.w3.org/1999/xlink" width="864pt" height="864pt" viewBox="0 0 864 864" xmlns="http://www.w3.org/2000/svg" version="1.1">
 <metadata>
  <rdf:RDF xmlns:dc="http://purl.org/dc/elements/1.1/" xmlns:cc="http://creativecommons.org/ns#" xmlns:rdf="http://www.w3.org/1999/02/22-rdf-syntax-ns#">
   <cc:Work>
    <dc:type rdf:resource="http://purl.org/dc/dcmitype/StillImage"/>
    <dc:date>2026-06-09T22:33:01.008898</dc:date>
    <dc:format>image/svg+xml</dc:format>
    <dc:creator>
     <cc:Agent>
      <dc:title>Matplotlib v3.9.2, https://matplotlib.org/</dc:title>
     </cc:Agent>
    </dc:creator>
   </cc:Work>
  </rdf:RDF>
 </metadata>
 <defs>
  <style type="text/css">*{stroke-linejoin: round; stroke-linecap: butt}</style>
 </defs>
 <g id="figure_1">
  <g id="patch_1">
   <path d="M 0 864 
L 864 864 
L 864 0 
L 0 0 
z
" style="fill: #ffffff"/>
  </g>
  <g id="axes_1">
   <g id="patch_2">
    <path d="M 10.8 764.486395 
L 675.772791 764.486395 
L 675.772791 99.513605 
L 10.8 99.513605 
z
" style="fill: #ffffff"/>
   </g>
   <g id="LineCollection_1">
    <path d="M 644.51823 456.961668 
L 343.307386 432 
" clip-path="url(#p2dbdcc2f8d)" style="fill: none; stroke: #808080; stroke-opacity: 0.3"/>
    <path d="M 343.307386 432 
L 644.51823 407.038332 
" clip-path="url(#p2dbdcc2f8d)" style="fill: none; stroke: #808080; stroke-opacity: 0.3"/>
    <path d="M 343.307386 432 
L 636.332012 357.82027 
" clip-path="url(#p2dbdcc2f8d)" style="fill: none; stroke: #808080; stroke-opacity: 0.3"/>
    <path d="M 343.307386 432 
L 620.085518 310.592089 
" clip-path="url(#p2dbdcc2f8d)" style="fill: none; stroke: #808080; stroke-opacity: 0.3"/>
    <path d="M 343.307386 432 
L 596.324495 266.680376 
" clip-path="url(#p2dbdcc2f8d)" style="fill: none; stroke: #808080; stroke-opacity: 0.3"/>
    <path d="M 343.307386 432 
L 565.678653 227.302568 
" clip-path="url(#p2dbdcc2f8d)" style="fill: none; stroke: #808080; stroke-opacity: 0.3"/>
    <path d="M 343.307386 432 
L 528.945623 193.4662 
" clip-path="url(#p2dbdcc2f8d)" style="fill: none; stroke: #808080; stroke-opacity: 0.3"/>
    <path d="M 343.307386 432 
L 487.174921 166.178806 
" clip-path="url(#p2dbdcc2f8d)" style="fill: none; stroke: #808080; stroke-opacity: 0.3"/>
    <path d="M 343.307386 432 
L 441.458041 146.112077 
" clip-path="url(#p2dbdcc2f8d)" style="fill: none; stroke: #808080; stroke-opacity: 0.3"/>
    <path d="M 343.307386 432 
L 393.054403 133.85374 
" clip-path="url(#p2dbdcc2f8d)" style="fill: none; stroke: #808080; stroke-opacity: 0.3"/>
    <path d="M 343.307386 432 
L 343.307386 129.739641 
" clip-path="url(#p2dbdcc2f8d)" style="fill: none; stroke: #808080; stroke-opacity: 0.3"/>
    <path d="M 343.307386 432 
L 293.560368 133.85374 
" clip-path="url(#p2dbdcc2f8d)" style="fill: none; stroke: #808080; stroke-opacity: 0.3"/>
    <path d="M 343.307386 432 
L 245.15673 146.112077 
" clip-path="url(#p2dbdcc2f8d)" style="fill: none; stroke: #808080; stroke-opacity: 0.3"/>
    <path d="M 343.307386 432 
L 199.439851 166.178806 
" clip-path="url(#p2dbdcc2f8d)" style="fill: none; stroke: #808080; stroke-opacity: 0.3"/>
    <path d="M 343.307386 432 
L 157.669148 193.4662 
" clip-path="url(#p2dbdcc2f8d)" style="fill: none; stroke: #808080; stroke-opacity: 0.3"/>
    <path d="M 343.307386 432 
L 120.936118 227.302568 
" clip-path="url(#p2dbdcc2f8d)" style="fill: none; stroke: #808080; stroke-opacity: 0.3"/>
    <path d="M 343.307386 432 
L 90.248296 266.680376 
" clip-path="url(#p2dbdcc2f8d)" style="fill: none; stroke: #808080; stroke-opacity: 0.3"/>
    <path d="M 343.307386 432 
L 66.487273 310.592089 
" clip-path="url(#p2dbdcc2f8d)" style="fill: none; stroke: #808080; stroke-opacity: 0.3"/>
    <path d="M 343.307386 432 
L 50.282759 357.82027 
" clip-path="url(#p2dbdcc2f8d)" style="fill: none; stroke: #808080; stroke-opacity: 0.3"/>
    <path d="M 343.307386 432 
L 42.054561 407.038332 
" clip-path="url(#p2dbdcc2f8d)" style="fill: none; stroke: #808080; stroke-opacity: 0.3"/>
    <path d="M 343.307386 432 
L 42.054561 456.961668 
" clip-path="url(#p2dbdcc2f8d)" style="fill: none; stroke: #808080; stroke-opacity: 0.3"/>
    <path d="M 343.307386 432 
L 50.282759 506.20072 
" clip-path="url(#p2dbdcc2f8d)" style="fill: none; stroke: #808080; stroke-opacity: 0.3"/>
    <path d="M 343.307386 432 
L 66.487273 553.416307 
" clip-path="url(#p2dbdcc2f8d)" style="fill: none; stroke: #808080; stroke-opacity: 0.3"/>
    <path d="M 343.307386 432 
L 90.248296 597.319624 
" clip-path="url(#p2dbdcc2f8d)" style="fill: none; stroke: #808080; stroke-opacity: 0.3"/>
    <path d="M 343.307386 432 
L 120.936118 636.714225 
" clip-path="url(#p2dbdcc2f8d)" style="fill: none; stroke: #808080; stroke-opacity: 0.3"/>
    <path d="M 343.307386 432 
L 157.669148 670.525404 
" clip-path="url(#p2dbdcc2f8d)" style="fill: none; stroke: #808080; stroke-opacity: 0.3"/>
    <path d="M 343.307386 432 
L 199.439851 697.82959 
" clip-path="url(#p2dbdcc2f8d)" style="fill: none; stroke: #808080; stroke-opacity: 0.3"/>
    <path d="M 343.307386 432 
L 245.15673 717.883725 
" clip-path="url(#p2dbdcc2f8d)" style="fill: none; stroke: #808080; stroke-opacity: 0.3"/>
    <path d="M 343.307386 432 
L 293.560368 730.137864 
" clip-path="url(#p2dbdcc2f8d)" style="fill: none; stroke: #808080; stroke-opacity: 0.3"/>
    <path d="M 343.307386 432 
L 343.307386 734.260359 
" clip-path="url(#p2dbdcc2f8d)" style="fill: none; stroke: #808080; stroke-opacity: 0.3"/>
    <path d="M 343.307386 432 
L 393.054403 730.137864 
" clip-path="url(#p2dbdcc2f8d)" style="fill: none; stroke: #808080; stroke-opacity: 0.3"/>
    <path d="M 343.307386 432 
L 441.458041 717.883725 
" clip-path="url(#p2dbdcc2f8d)" style="fill: none; stroke: #808080; stroke-opacity: 0.3"/>
    <path d="M 343.307386 432 
L 487.174921 697.82959 
" clip-path="url(#p2dbdcc2f8d)" style="fill: none; stroke: #808080; stroke-opacity: 0.3"/>
    <path d="M 343.307386 432 
L 528.945623 670.525404 
" clip-path="url(#p2dbdcc2f8d)" style="fill: none; stroke: #808080; stroke-opacity: 0.3"/>
    <path d="M 343.307386 432 
L 565.678653 636.714225 
" clip-path="url(#p2dbdcc2f8d)" style="fill: none; stroke: #808080; stroke-opacity: 0.3"/>
    <path d="M 343.307386 432 
L 596.324495 597.319624 
" clip-path="url(#p2dbdcc2f8d)" style="fill: none; stroke: #808080; stroke-opacity: 0.3"/>
    <path d="M 343.307386 432 
L 620.085518 553.416307 
" clip-path="url(#p2dbdcc2f8d)" style="fill: none; stroke: #808080; stroke-opacity: 0.3"/>
    <path d="M 343.307386 432 
L 636.332012 506.20072 
" clip-path="url(#p2dbdcc2f8d)" style="fill: none; stroke: #808080; stroke-opacity: 0.3"/>
   </g>
   <g id="matplotlib.axis_1">
    <g id="xtick_1"/>
    <g id="xtick_2"/>
    <g id="xtick_3"/>
    <g id="xtick_4"/>
    <g id="xtick_5"/>
    <g id="xtick_6"/>
    <g id="xtick_7"/>
   </g>
   <g id="matplotlib.axis_2">
    <g id="ytick_1"/>
    <g id="ytick_2"/>
    <g id="ytick_3"/>
    <g id="ytick_4"/>
    <g id="ytick_5"/>
    <g id="ytick_6"/>
    <g id="ytick_7"/>
    <g id="ytick_8"/>
   </g>
   <g id="PathCollection_1">
    <path d="M 644.51823 468.142008 
C 647.483291 468.142008 650.327309 466.963977 652.423924 464.867362 
C 654.520539 462.770748 655.69857 459.926729 655.69857 456.961668 
C 655.69857 453.996607 654.520539 451.152588 652.423924 449.055974 
C 650.327309 446.959359 647.483291 445.781328 644.51823 445.781328 
C 641.553169 445.781328 638.70915 446.959359 636.612536 449.055974 
C 634.515921 451.152588 633.33789 453.996607 633.33789 456.961668 
C 633.33789 459.926729 634.515921 462.770748 636.612536 464.867362 
C 638.70915 466.963977 641.553169 468.142008 644.51823 468.142008 
z
" clip-path="url(#p2dbdcc2f8d)" style="fill: #ad35ca; stroke: #ad35ca"/>
    <path d="M 343.307386 439.071068 
C 345.182655 439.071068 346.98137 438.326015 348.307386 437 
C 349.633401 435.673985 350.378453 433.875269 350.378453 432 
C 350.378453 430.124731 349.633401 428.326015 348.307386 427 
C 346.98137 425.673985 345.182655 424.928932 343.307386 424.928932 
C 341.432117 424.928932 339.633401 425.673985 338.307386 427 
C 336.98137 428.326015 336.236318 430.124731 336.236318 432 
C 336.236318 433.875269 336.98137 435.673985 338.307386 437 
C 339.633401 438.326015 341.432117 439.071068 343.307386 439.071068 
z
" clip-path="url(#p2dbdcc2f8d)" style="fill: #8f81b5; stroke: #8f81b5"/>
    <path d="M 644.51823 411.510468 
C 645.704254 411.510468 646.841862 411.039255 647.680508 410.20061 
C 648.519153 409.361964 648.990366 408.224356 648.990366 407.038332 
C 648.990366 405.852308 648.519153 404.7147 647.680508 403.876054 
C 646.841862 403.037408 645.704254 402.566196 644.51823 402.566196 
C 643.332206 402.566196 642.194598 403.037408 641.355952 403.876054 
C 640.517306 404.7147 640.046094 405.852308 640.046094 407.038332 
C 640.046094 408.224356 640.517306 409.361964 641.355952 410.20061 
C 642.194598 411.039255 643.332206 411.510468 644.51823 411.510468 
z
" clip-path="url(#p2dbdcc2f8d)" style="fill: #879dba; stroke: #879dba"/>
    <path d="M 636.332012 362.292406 
C 637.518036 362.292406 638.655644 361.821194 639.494289 360.982548 
C 640.332935 360.143902 640.804148 359.006294 640.804148 357.82027 
C 640.804148 356.634246 640.332935 355.496638 639.494289 354.657992 
C 638.655644 353.819347 637.518036 353.348134 636.332012 353.348134 
C 635.145988 353.348134 634.00838 353.819347 633.169734 354.657992 
C 632.331088 355.496638 631.859876 356.634246 631.859876 357.82027 
C 631.859876 359.006294 632.331088 360.143902 633.169734 360.982548 
C 634.00838 361.821194 635.145988 362.292406 636.332012 362.292406 
z
" clip-path="url(#p2dbdcc2f8d)" style="fill: #879dba; stroke: #879dba"/>
    <path d="M 620.085518 315.064225 
C 621.271542 315.064225 622.409149 314.593012 623.247795 313.754367 
C 624.086441 312.915721 624.557653 311.778113 624.557653 310.592089 
C 624.557653 309.406065 624.086441 308.268457 623.247795 307.429811 
C 622.409149 306.591165 621.271542 306.119953 620.085518 306.119953 
C 618.899493 306.119953 617.761886 306.591165 616.92324 307.429811 
C 616.084594 308.268457 615.613382 309.406065 615.613382 310.592089 
C 615.613382 311.778113 616.084594 312.915721 616.92324 313.754367 
C 617.761886 314.593012 618.899493 315.064225 620.085518 315.064225 
z
" clip-path="url(#p2dbdcc2f8d)" style="fill: #879dba; stroke: #879dba"/>
    <path d="M 596.324495 271.152512 
C 597.510519 271.152512 598.648127 270.681299 599.486772 269.842653 
C 600.325418 269.004007 600.796631 267.8664 600.796631 266.680376 
C 600.796631 265.494351 600.325418 264.356744 599.486772 263.518098 
C 598.648127 262.679452 597.510519 262.20824 596.324495 262.20824 
C 595.138471 262.20824 594.000863 262.679452 593.162217 263.518098 
C 592.323571 264.356744 591.852359 265.494351 591.852359 266.680376 
C 591.852359 267.8664 592.323571 269.004007 593.162217 269.842653 
C 594.000863 270.681299 595.138471 271.152512 596.324495 271.152512 
z
" clip-path="url(#p2dbdcc2f8d)" style="fill: #879dba; stroke: #879dba"/>
    <path d="M 565.678653 231.774704 
C 566.864677 231.774704 568.002285 231.303491 568.84093 230.464845 
C 569.679576 229.6262 570.150789 228.488592 570.150789 227.302568 
C 570.150789 226.116543 569.679576 224.978936 568.84093 224.14029 
C 568.002285 223.301644 566.864677 222.830432 565.678653 222.830432 
C 564.492629 222.830432 563.355021 223.301644 562.516375 224.14029 
C 561.677729 224.978936 561.206517 226.116543 561.206517 227.302568 
C 561.206517 228.488592 561.677729 229.6262 562.516375 230.464845 
C 563.355021 231.303491 564.492629 231.774704 565.678653 231.774704 
z
" clip-path="url(#p2dbdcc2f8d)" style="fill: #879dba; stroke: #879dba"/>
    <path d="M 528.945623 197.938336 
C 530.131647 197.938336 531.269255 197.467123 532.107901 196.628477 
C 532.946547 195.789832 533.417759 194.652224 533.417759 193.4662 
C 533.417759 192.280175 532.946547 191.142568 532.107901 190.303922 
C 531.269255 189.465276 530.131647 188.994064 528.945623 188.994064 
C 527.759599 188.994064 526.621991 189.465276 525.783345 190.303922 
C 524.9447 191.142568 524.473487 192.280175 524.473487 193.4662 
C 524.473487 194.652224 524.9447 195.789832 525.783345 196.628477 
C 526.621991 197.467123 527.759599 197.938336 528.945623 197.938336 
z
" clip-path="url(#p2dbdcc2f8d)" style="fill: #879dba; stroke: #879dba"/>
    <path d="M 487.174921 170.650942 
C 488.360945 170.650942 489.498552 170.17973 490.337198 169.341084 
C 491.175844 168.502438 491.647057 167.36483 491.647057 166.178806 
C 491.647057 164.992782 491.175844 163.855174 490.337198 163.016528 
C 489.498552 162.177883 488.360945 161.70667 487.174921 161.70667 
C 485.988896 161.70667 484.851289 162.177883 484.012643 163.016528 
C 483.173997 163.855174 482.702785 164.992782 482.702785 166.178806 
C 482.702785 167.36483 483.173997 168.502438 484.012643 169.341084 
C 484.851289 170.17973 485.988896 170.650942 487.174921 170.650942 
z
" clip-path="url(#p2dbdcc2f8d)" style="fill: #879dba; stroke: #879dba"/>
    <path d="M 441.458041 150.584213 
C 442.644066 150.584213 443.781673 150.113 444.620319 149.274354 
C 445.458965 148.435709 445.930177 147.298101 445.930177 146.112077 
C 445.930177 144.926052 445.458965 143.788445 444.620319 142.949799 
C 443.781673 142.111153 442.644066 141.639941 441.458041 141.639941 
C 440.272017 141.639941 439.134409 142.111153 438.295764 142.949799 
C 437.457118 143.788445 436.985905 144.926052 436.985905 146.112077 
C 436.985905 147.298101 437.457118 148.435709 438.295764 149.274354 
C 439.134409 150.113 440.272017 150.584213 441.458041 150.584213 
z
" clip-path="url(#p2dbdcc2f8d)" style="fill: #879dba; stroke: #879dba"/>
    <path d="M 393.054403 138.325876 
C 394.240427 138.325876 395.378035 137.854663 396.216681 137.016018 
C 397.055327 136.177372 397.526539 135.039764 397.526539 133.85374 
C 397.526539 132.667716 397.055327 131.530108 396.216681 130.691462 
C 395.378035 129.852816 394.240427 129.381604 393.054403 129.381604 
C 391.868379 129.381604 390.730771 129.852816 389.892125 130.691462 
C 389.05348 131.530108 388.582267 132.667716 388.582267 133.85374 
C 388.582267 135.039764 389.05348 136.177372 389.892125 137.016018 
C 390.730771 137.854663 391.868379 138.325876 393.054403 138.325876 
z
" clip-path="url(#p2dbdcc2f8d)" style="fill: #879dba; stroke: #879dba"/>
    <path d="M 343.307386 134.211777 
C 344.49341 134.211777 345.631017 133.740564 346.469663 132.901918 
C 347.308309 132.063272 347.779522 130.925665 347.779522 129.739641 
C 347.779522 128.553616 347.308309 127.416009 346.469663 126.577363 
C 345.631017 125.738717 344.49341 125.267505 343.307386 125.267505 
C 342.121361 125.267505 340.983754 125.738717 340.145108 126.577363 
C 339.306462 127.416009 338.83525 128.553616 338.83525 129.739641 
C 338.83525 130.925665 339.306462 132.063272 340.145108 132.901918 
C 340.983754 133.740564 342.121361 134.211777 343.307386 134.211777 
z
" clip-path="url(#p2dbdcc2f8d)" style="fill: #879dba; stroke: #879dba"/>
    <path d="M 293.560368 138.325876 
C 294.746392 138.325876 295.884 137.854663 296.722646 137.016018 
C 297.561292 136.177372 298.032504 135.039764 298.032504 133.85374 
C 298.032504 132.667716 297.561292 131.530108 296.722646 130.691462 
C 295.884 129.852816 294.746392 129.381604 293.560368 129.381604 
C 292.374344 129.381604 291.236736 129.852816 290.39809 130.691462 
C 289.559445 131.530108 289.088232 132.667716 289.088232 133.85374 
C 289.088232 135.039764 289.559445 136.177372 290.39809 137.016018 
C 291.236736 137.854663 292.374344 138.325876 293.560368 138.325876 
z
" clip-path="url(#p2dbdcc2f8d)" style="fill: #879dba; stroke: #879dba"/>
    <path d="M 245.15673 150.584213 
C 246.342754 150.584213 247.480362 150.113 248.319008 149.274354 
C 249.157654 148.435709 249.628866 147.298101 249.628866 146.112077 
C 249.628866 144.926052 249.157654 143.788445 248.319008 142.949799 
C 247.480362 142.111153 246.342754 141.639941 245.15673 141.639941 
C 243.970706 141.639941 242.833098 142.111153 241.994452 142.949799 
C 241.155807 143.788445 240.684594 144.926052 240.684594 146.112077 
C 240.684594 147.298101 241.155807 148.435709 241.994452 149.274354 
C 242.833098 150.113 243.970706 150.584213 245.15673 150.584213 
z
" clip-path="url(#p2dbdcc2f8d)" style="fill: #879dba; stroke: #879dba"/>
    <path d="M 199.439851 170.650942 
C 200.625875 170.650942 201.763483 170.17973 202.602128 169.341084 
C 203.440774 168.502438 203.911987 167.36483 203.911987 166.178806 
C 203.911987 164.992782 203.440774 163.855174 202.602128 163.016528 
C 201.763483 162.177883 200.625875 161.70667 199.439851 161.70667 
C 198.253826 161.70667 197.116219 162.177883 196.277573 163.016528 
C 195.438927 163.855174 194.967715 164.992782 194.967715 166.178806 
C 194.967715 167.36483 195.438927 168.502438 196.277573 169.341084 
C 197.116219 170.17973 198.253826 170.650942 199.439851 170.650942 
z
" clip-path="url(#p2dbdcc2f8d)" style="fill: #879dba; stroke: #879dba"/>
    <path d="M 157.669148 197.938336 
C 158.855173 197.938336 159.99278 197.467123 160.831426 196.628477 
C 161.670072 195.789832 162.141284 194.652224 162.141284 193.4662 
C 162.141284 192.280175 161.670072 191.142568 160.831426 190.303922 
C 159.99278 189.465276 158.855173 188.994064 157.669148 188.994064 
C 156.483124 188.994064 155.345516 189.465276 154.506871 190.303922 
C 153.668225 191.142568 153.197012 192.280175 153.197012 193.4662 
C 153.197012 194.652224 153.668225 195.789832 154.506871 196.628477 
C 155.345516 197.467123 156.483124 197.938336 157.669148 197.938336 
z
" clip-path="url(#p2dbdcc2f8d)" style="fill: #879dba; stroke: #879dba"/>
    <path d="M 120.936118 231.774704 
C 122.122143 231.774704 123.25975 231.303491 124.098396 230.464845 
C 124.937042 229.6262 125.408254 228.488592 125.408254 227.302568 
C 125.408254 226.116543 124.937042 224.978936 124.098396 224.14029 
C 123.25975 223.301644 122.122143 222.830432 120.936118 222.830432 
C 119.750094 222.830432 118.612487 223.301644 117.773841 224.14029 
C 116.935195 224.978936 116.463983 226.116543 116.463983 227.302568 
C 116.463983 228.488592 116.935195 229.6262 117.773841 230.464845 
C 118.612487 231.303491 119.750094 231.774704 120.936118 231.774704 
z
" clip-path="url(#p2dbdcc2f8d)" style="fill: #879dba; stroke: #879dba"/>
    <path d="M 90.248296 271.152512 
C 91.43432 271.152512 92.571928 270.681299 93.410574 269.842653 
C 94.249219 269.004007 94.720432 267.8664 94.720432 266.680376 
C 94.720432 265.494351 94.249219 264.356744 93.410574 263.518098 
C 92.571928 262.679452 91.43432 262.20824 90.248296 262.20824 
C 89.062272 262.20824 87.924664 262.679452 87.086018 263.518098 
C 86.247372 264.356744 85.77616 265.494351 85.77616 266.680376 
C 85.77616 267.8664 86.247372 269.004007 87.086018 269.842653 
C 87.924664 270.681299 89.062272 271.152512 90.248296 271.152512 
z
" clip-path="url(#p2dbdcc2f8d)" style="fill: #879dba; stroke: #879dba"/>
    <path d="M 66.487273 315.064225 
C 67.673297 315.064225 68.810905 314.593012 69.649551 313.754367 
C 70.488197 312.915721 70.959409 311.778113 70.959409 310.592089 
C 70.959409 309.406065 70.488197 308.268457 69.649551 307.429811 
C 68.810905 306.591165 67.673297 306.119953 66.487273 306.119953 
C 65.301249 306.119953 64.163641 306.591165 63.324995 307.429811 
C 62.48635 308.268457 62.015137 309.406065 62.015137 310.592089 
C 62.015137 311.778113 62.48635 312.915721 63.324995 313.754367 
C 64.163641 314.593012 65.301249 315.064225 66.487273 315.064225 
z
" clip-path="url(#p2dbdcc2f8d)" style="fill: #879dba; stroke: #879dba"/>
    <path d="M 50.282759 362.292406 
C 51.468784 362.292406 52.606391 361.821194 53.445037 360.982548 
C 54.283683 360.143902 54.754895 359.006294 54.754895 357.82027 
C 54.754895 356.634246 54.283683 355.496638 53.445037 354.657992 
C 52.606391 353.819347 51.468784 353.348134 50.282759 353.348134 
C 49.096735 353.348134 47.959128 353.819347 47.120482 354.657992 
C 46.281836 355.496638 45.810623 356.634246 45.810623 357.82027 
C 45.810623 359.006294 46.281836 360.143902 47.120482 360.982548 
C 47.959128 361.821194 49.096735 362.292406 50.282759 362.292406 
z
" clip-path="url(#p2dbdcc2f8d)" style="fill: #879dba; stroke: #879dba"/>
    <path d="M 42.054561 411.510468 
C 43.240585 411.510468 44.378193 411.039255 45.216838 410.20061 
C 46.055484 409.361964 46.526697 408.224356 46.526697 407.038332 
C 46.526697 405.852308 46.055484 404.7147 45.216838 403.876054 
C 44.378193 403.037408 43.240585 402.566196 42.054561 402.566196 
C 40.868536 402.566196 39.730929 403.037408 38.892283 403.876054 
C 38.053637 404.7147 37.582425 405.852308 37.582425 407.038332 
C 37.582425 408.224356 38.053637 409.361964 38.892283 410.20061 
C 39.730929 411.039255 40.868536 411.510468 42.054561 411.510468 
z
" clip-path="url(#p2dbdcc2f8d)" style="fill: #879dba; stroke: #879dba"/>
    <path d="M 42.054561 461.433804 
C 43.240585 461.433804 44.378193 460.962592 45.216838 460.123946 
C 46.055484 459.2853 46.526697 458.147692 46.526697 456.961668 
C 46.526697 455.775644 46.055484 454.638036 45.216838 453.79939 
C 44.378193 452.960745 43.240585 452.489532 42.054561 452.489532 
C 40.868536 452.489532 39.730929 452.960745 38.892283 453.79939 
C 38.053637 454.638036 37.582425 455.775644 37.582425 456.961668 
C 37.582425 458.147692 38.053637 459.2853 38.892283 460.123946 
C 39.730929 460.962592 40.868536 461.433804 42.054561 461.433804 
z
" clip-path="url(#p2dbdcc2f8d)" style="fill: #879dba; stroke: #879dba"/>
    <path d="M 50.282759 510.672856 
C 51.468784 510.672856 52.606391 510.201644 53.445037 509.362998 
C 54.283683 508.524352 54.754895 507.386744 54.754895 506.20072 
C 54.754895 505.014696 54.283683 503.877088 53.445037 503.038443 
C 52.606391 502.199797 51.468784 501.728584 50.282759 501.728584 
C 49.096735 501.728584 47.959128 502.199797 47.120482 503.038443 
C 46.281836 503.877088 45.810623 505.014696 45.810623 506.20072 
C 45.810623 507.386744 46.281836 508.524352 47.120482 509.362998 
C 47.959128 510.201644 49.096735 510.672856 50.282759 510.672856 
z
" clip-path="url(#p2dbdcc2f8d)" style="fill: #879dba; stroke: #879dba"/>
    <path d="M 66.487273 557.888443 
C 67.673297 557.888443 68.810905 557.417231 69.649551 556.578585 
C 70.488197 555.739939 70.959409 554.602331 70.959409 553.416307 
C 70.959409 552.230283 70.488197 551.092675 69.649551 550.254029 
C 68.810905 549.415384 67.673297 548.944171 66.487273 548.944171 
C 65.301249 548.944171 64.163641 549.415384 63.324995 550.254029 
C 62.48635 551.092675 62.015137 552.230283 62.015137 553.416307 
C 62.015137 554.602331 62.48635 555.739939 63.324995 556.578585 
C 64.163641 557.417231 65.301249 557.888443 66.487273 557.888443 
z
" clip-path="url(#p2dbdcc2f8d)" style="fill: #879dba; stroke: #879dba"/>
    <path d="M 90.248296 601.79176 
C 91.43432 601.79176 92.571928 601.320548 93.410574 600.481902 
C 94.249219 599.643256 94.720432 598.505649 94.720432 597.319624 
C 94.720432 596.1336 94.249219 594.995993 93.410574 594.157347 
C 92.571928 593.318701 91.43432 592.847488 90.248296 592.847488 
C 89.062272 592.847488 87.924664 593.318701 87.086018 594.157347 
C 86.247372 594.995993 85.77616 596.1336 85.77616 597.319624 
C 85.77616 598.505649 86.247372 599.643256 87.086018 600.481902 
C 87.924664 601.320548 89.062272 601.79176 90.248296 601.79176 
z
" clip-path="url(#p2dbdcc2f8d)" style="fill: #879dba; stroke: #879dba"/>
    <path d="M 120.936118 641.18636 
C 122.122143 641.18636 123.25975 640.715148 124.098396 639.876502 
C 124.937042 639.037856 125.408254 637.900249 125.408254 636.714225 
C 125.408254 635.5282 124.937042 634.390593 124.098396 633.551947 
C 123.25975 632.713301 122.122143 632.242089 120.936118 632.242089 
C 119.750094 632.242089 118.612487 632.713301 117.773841 633.551947 
C 116.935195 634.390593 116.463983 635.5282 116.463983 636.714225 
C 116.463983 637.900249 116.935195 639.037856 117.773841 639.876502 
C 118.612487 640.715148 119.750094 641.18636 120.936118 641.18636 
z
" clip-path="url(#p2dbdcc2f8d)" style="fill: #879dba; stroke: #879dba"/>
    <path d="M 157.669148 674.99754 
C 158.855173 674.99754 159.99278 674.526328 160.831426 673.687682 
C 161.670072 672.849036 162.141284 671.711428 162.141284 670.525404 
C 162.141284 669.33938 161.670072 668.201772 160.831426 667.363127 
C 159.99278 666.524481 158.855173 666.053268 157.669148 666.053268 
C 156.483124 666.053268 155.345516 666.524481 154.506871 667.363127 
C 153.668225 668.201772 153.197012 669.33938 153.197012 670.525404 
C 153.197012 671.711428 153.668225 672.849036 154.506871 673.687682 
C 155.345516 674.526328 156.483124 674.99754 157.669148 674.99754 
z
" clip-path="url(#p2dbdcc2f8d)" style="fill: #879dba; stroke: #879dba"/>
    <path d="M 199.439851 702.301726 
C 200.625875 702.301726 201.763483 701.830513 202.602128 700.991868 
C 203.440774 700.153222 203.911987 699.015614 203.911987 697.82959 
C 203.911987 696.643566 203.440774 695.505958 202.602128 694.667312 
C 201.763483 693.828666 200.625875 693.357454 199.439851 693.357454 
C 198.253826 693.357454 197.116219 693.828666 196.277573 694.667312 
C 195.438927 695.505958 194.967715 696.643566 194.967715 697.82959 
C 194.967715 699.015614 195.438927 700.153222 196.277573 700.991868 
C 197.116219 701.830513 198.253826 702.301726 199.439851 702.301726 
z
" clip-path="url(#p2dbdcc2f8d)" style="fill: #879dba; stroke: #879dba"/>
    <path d="M 245.15673 722.355861 
C 246.342754 722.355861 247.480362 721.884649 248.319008 721.046003 
C 249.157654 720.207357 249.628866 719.06975 249.628866 717.883725 
C 249.628866 716.697701 249.157654 715.560093 248.319008 714.721448 
C 247.480362 713.882802 246.342754 713.411589 245.15673 713.411589 
C 243.970706 713.411589 242.833098 713.882802 241.994452 714.721448 
C 241.155807 715.560093 240.684594 716.697701 240.684594 717.883725 
C 240.684594 719.06975 241.155807 720.207357 241.994452 721.046003 
C 242.833098 721.884649 243.970706 722.355861 245.15673 722.355861 
z
" clip-path="url(#p2dbdcc2f8d)" style="fill: #879dba; stroke: #879dba"/>
    <path d="M 293.560368 734.61 
C 294.746392 734.61 295.884 734.138787 296.722646 733.300142 
C 297.561292 732.461496 298.032504 731.323888 298.032504 730.137864 
C 298.032504 728.95184 297.561292 727.814232 296.722646 726.975586 
C 295.884 726.13694 294.746392 725.665728 293.560368 725.665728 
C 292.374344 725.665728 291.236736 726.13694 290.39809 726.975586 
C 289.559445 727.814232 289.088232 728.95184 289.088232 730.137864 
C 289.088232 731.323888 289.559445 732.461496 290.39809 733.300142 
C 291.236736 734.138787 292.374344 734.61 293.560368 734.61 
z
" clip-path="url(#p2dbdcc2f8d)" style="fill: #879dba; stroke: #879dba"/>
    <path d="M 343.307386 738.732495 
C 344.49341 738.732495 345.631017 738.261283 346.469663 737.422637 
C 347.308309 736.583991 347.779522 735.446384 347.779522 734.260359 
C 347.779522 733.074335 347.308309 731.936728 346.469663 731.098082 
C 345.631017 730.259436 344.49341 729.788223 343.307386 729.788223 
C 342.121361 729.788223 340.983754 730.259436 340.145108 731.098082 
C 339.306462 731.936728 338.83525 733.074335 338.83525 734.260359 
C 338.83525 735.446384 339.306462 736.583991 340.145108 737.422637 
C 340.983754 738.261283 342.121361 738.732495 343.307386 738.732495 
z
" clip-path="url(#p2dbdcc2f8d)" style="fill: #879dba; stroke: #879dba"/>
    <path d="M 393.054403 734.61 
C 394.240427 734.61 395.378035 734.138787 396.216681 733.300142 
C 397.055327 732.461496 397.526539 731.323888 397.526539 730.137864 
C 397.526539 728.95184 397.055327 727.814232 396.216681 726.975586 
C 395.378035 726.13694 394.240427 725.665728 393.054403 725.665728 
C 391.868379 725.665728 390.730771 726.13694 389.892125 726.975586 
C 389.05348 727.814232 388.582267 728.95184 388.582267 730.137864 
C 388.582267 731.323888 389.05348 732.461496 389.892125 733.300142 
C 390.730771 734.138787 391.868379 734.61 393.054403 734.61 
z
" clip-path="url(#p2dbdcc2f8d)" style="fill: #879dba; stroke: #879dba"/>
    <path d="M 441.458041 722.355861 
C 442.644066 722.355861 443.781673 721.884649 444.620319 721.046003 
C 445.458965 720.207357 445.930177 719.06975 445.930177 717.883725 
C 445.930177 716.697701 445.458965 715.560093 444.620319 714.721448 
C 443.781673 713.882802 442.644066 713.411589 441.458041 713.411589 
C 440.272017 713.411589 439.134409 713.882802 438.295764 714.721448 
C 437.457118 715.560093 436.985905 716.697701 436.985905 717.883725 
C 436.985905 719.06975 437.457118 720.207357 438.295764 721.046003 
C 439.134409 721.884649 440.272017 722.355861 441.458041 722.355861 
z
" clip-path="url(#p2dbdcc2f8d)" style="fill: #879dba; stroke: #879dba"/>
    <path d="M 487.174921 702.301726 
C 488.360945 702.301726 489.498552 701.830513 490.337198 700.991868 
C 491.175844 700.153222 491.647057 699.015614 491.647057 697.82959 
C 491.647057 696.643566 491.175844 695.505958 490.337198 694.667312 
C 489.498552 693.828666 488.360945 693.357454 487.174921 693.357454 
C 485.988896 693.357454 484.851289 693.828666 484.012643 694.667312 
C 483.173997 695.505958 482.702785 696.643566 482.702785 697.82959 
C 482.702785 699.015614 483.173997 700.153222 484.012643 700.991868 
C 484.851289 701.830513 485.988896 702.301726 487.174921 702.301726 
z
" clip-path="url(#p2dbdcc2f8d)" style="fill: #879dba; stroke: #879dba"/>
    <path d="M 528.945623 674.99754 
C 530.131647 674.99754 531.269255 674.526328 532.107901 673.687682 
C 532.946547 672.849036 533.417759 671.711428 533.417759 670.525404 
C 533.417759 669.33938 532.946547 668.201772 532.107901 667.363127 
C 531.269255 666.524481 530.131647 666.053268 528.945623 666.053268 
C 527.759599 666.053268 526.621991 666.524481 525.783345 667.363127 
C 524.9447 668.201772 524.473487 669.33938 524.473487 670.525404 
C 524.473487 671.711428 524.9447 672.849036 525.783345 673.687682 
C 526.621991 674.526328 527.759599 674.99754 528.945623 674.99754 
z
" clip-path="url(#p2dbdcc2f8d)" style="fill: #879dba; stroke: #879dba"/>
    <path d="M 565.678653 641.18636 
C 566.864677 641.18636 568.002285 640.715148 568.84093 639.876502 
C 569.679576 639.037856 570.150789 637.900249 570.150789 636.714225 
C 570.150789 635.5282 569.679576 634.390593 568.84093 633.551947 
C 568.002285 632.713301 566.864677 632.242089 565.678653 632.242089 
C 564.492629 632.242089 563.355021 632.713301 562.516375 633.551947 
C 561.677729 634.390593 561.206517 635.5282 561.206517 636.714225 
C 561.206517 637.900249 561.677729 639.037856 562.516375 639.876502 
C 563.355021 640.715148 564.492629 641.18636 565.678653 641.18636 
z
" clip-path="url(#p2dbdcc2f8d)" style="fill: #879dba; stroke: #879dba"/>
    <path d="M 596.324495 601.79176 
C 597.510519 601.79176 598.648127 601.320548 599.486772 600.481902 
C 600.325418 599.643256 600.796631 598.505649 600.796631 597.319624 
C 600.796631 596.1336 600.325418 594.995993 599.486772 594.157347 
C 598.648127 593.318701 597.510519 592.847488 596.324495 592.847488 
C 595.138471 592.847488 594.000863 593.318701 593.162217 594.157347 
C 592.323571 594.995993 591.852359 596.1336 591.852359 597.319624 
C 591.852359 598.505649 592.323571 599.643256 593.162217 600.481902 
C 594.000863 601.320548 595.138471 601.79176 596.324495 601.79176 
z
" clip-path="url(#p2dbdcc2f8d)" style="fill: #879dba; stroke: #879dba"/>
    <path d="M 620.085518 557.888443 
C 621.271542 557.888443 622.409149 557.417231 623.247795 556.578585 
C 624.086441 555.739939 624.557653 554.602331 624.557653 553.416307 
C 624.557653 552.230283 624.086441 551.092675 623.247795 550.254029 
C 622.409149 549.415384 621.271542 548.944171 620.085518 548.944171 
C 618.899493 548.944171 617.761886 549.415384 616.92324 550.254029 
C 616.084594 551.092675 615.613382 552.230283 615.613382 553.416307 
C 615.613382 554.602331 616.084594 555.739939 616.92324 556.578585 
C 617.761886 557.417231 618.899493 557.888443 620.085518 557.888443 
z
" clip-path="url(#p2dbdcc2f8d)" style="fill: #879dba; stroke: #879dba"/>
    <path d="M 636.332012 510.672856 
C 637.518036 510.672856 638.655644 510.201644 639.494289 509.362998 
C 640.332935 508.524352 640.804148 507.386744 640.804148 506.20072 
C 640.804148 505.014696 640.332935 503.877088 639.494289 503.038443 
C 638.655644 502.199797 637.518036 501.728584 636.332012 501.728584 
C 635.145988 501.728584 634.00838 502.199797 633.169734 503.038443 
C 632.331088 503.877088 631.859876 505.014696 631.859876 506.20072 
C 631.859876 507.386744 632.331088 508.524352 633.169734 509.362998 
C 634.00838 510.201644 635.145988 510.672856 636.332012 510.672856 
z
" clip-path="url(#p2dbdcc2f8d)" style="fill: #879dba; stroke: #879dba"/>
   </g>
   <g id="patch_3">
    <path d="M 10.8 764.486395 
L 10.8 99.513605 
" style="fill: none; stroke: #000000; stroke-width: 0.8; stroke-linejoin: miter; stroke-linecap: square"/>
   </g>
   <g id="patch_4">
    <path d="M 675.772791 764.486395 
L 675.772791 99.513605 
" style="fill: none; stroke: #000000; stroke-width: 0.8; stroke-linejoin: miter; stroke-linecap: square"/>
   </g>
   <g id="patch_5">
    <path d="M 10.8 764.486395 
L 675.772791 764.486395 
" style="fill: none; stroke: #000000; stroke-width: 0.8; stroke-linejoin: miter; stroke-linecap: square"/>
   </g>
   <g id="patch_6">
    <path d="M 10.8 99.513605 
L 675.772791 99.513605 
" style="fill: none; stroke: #000000; stroke-width: 0.8; stroke-linejoin: miter; stroke-linecap: square"/>
   </g>
   <g id="text_1">
    <!-- Year: 1788 -->
    <g transform="translate(17.449728 126.918828) scale(0.3 -0.3)">
     <defs>
      <path id="CMR17-59" d="M 3706 3766 
C 3955 4160 4301 4160 4416 4160 
L 4416 4332 
C 4269 4319 4102 4319 3942 4319 
C 3782 4319 3526 4319 3373 4332 
L 3373 4160 
C 3533 4160 3616 4077 3616 3957 
C 3616 3881 3584 3830 3533 3747 
L 2381 1912 
L 1120 3912 
C 1075 3988 1069 3994 1069 4039 
C 1069 4160 1293 4160 1382 4160 
L 1382 4319 
C 1178 4319 864 4319 653 4319 
C 486 4319 166 4319 13 4332 
L 13 4160 
C 378 4160 480 4141 595 3958 
L 2010 1728 
L 2010 445 
C 2010 160 1939 160 1498 160 
L 1498 0 
C 1683 0 2016 0 2214 0 
C 2413 0 2752 0 2938 0 
L 2938 160 
C 2477 160 2419 160 2419 471 
L 2419 1728 
L 3706 3766 
z
" transform="scale(0.015625)"/>
      <path id="CMR17-65" d="M 2438 1472 
C 2464 1498 2464 1511 2464 1576 
C 2464 2238 2118 2816 1389 2816 
C 710 2816 173 2169 173 1383 
C 173 551 781 -64 1459 -64 
C 2176 -64 2458 607 2458 740 
C 2458 784 2419 784 2406 784 
C 2362 784 2355 771 2330 696 
C 2189 265 1837 51 1504 51 
C 1229 51 954 203 781 480 
C 582 803 582 1176 582 1472 
L 2438 1472 
z
M 589 1568 
C 634 2505 1126 2714 1382 2714 
C 1818 2714 2112 2297 2118 1568 
L 589 1568 
z
" transform="scale(0.015625)"/>
      <path id="CMR17-61" d="M 2304 1653 
C 2304 2072 2304 2294 2035 2543 
C 1798 2752 1523 2816 1306 2816 
C 800 2816 435 2407 435 1971 
C 435 1728 627 1728 666 1728 
C 749 1728 896 1778 896 1954 
C 896 2112 774 2181 666 2181 
C 640 2181 608 2174 589 2168 
C 723 2592 1069 2714 1293 2714 
C 1613 2714 1965 2429 1965 1885 
L 1965 1600 
C 1587 1600 1133 1549 774 1357 
C 371 1133 256 813 256 570 
C 256 77 832 -64 1171 -64 
C 1523 -64 1850 139 1990 511 
C 2003 233 2182 -18 2464 -18 
C 2598 -18 2938 70 2938 567 
L 2938 920 
L 2822 920 
L 2822 562 
C 2822 178 2650 128 2566 128 
C 2304 128 2304 458 2304 738 
L 2304 1653 
z
M 1965 870 
C 1965 317 1568 38 1216 38 
C 896 38 646 275 646 570 
C 646 761 730 1100 1101 1305 
C 1408 1478 1760 1504 1965 1504 
L 1965 870 
z
" transform="scale(0.015625)"/>
      <path id="CMR17-72" d="M 960 1497 
C 960 2112 1222 2688 1702 2688 
C 1747 2688 1792 2682 1837 2662 
C 1837 2662 1696 2617 1696 2452 
C 1696 2298 1818 2234 1914 2234 
C 1990 2234 2131 2279 2131 2458 
C 2131 2663 1926 2790 1709 2790 
C 1222 2790 1011 2317 947 2093 
L 941 2093 
L 941 2790 
L 198 2720 
L 198 2554 
C 576 2554 634 2515 634 2208 
L 634 428 
C 634 184 608 153 198 153 
L 198 -13 
C 352 0 646 0 813 0 
C 998 0 1325 0 1498 -13 
L 1498 153 
C 1037 153 960 153 960 440 
L 960 1497 
z
" transform="scale(0.015625)"/>
      <path id="CMR17-3a" d="M 1062 2491 
C 1062 2650 934 2752 800 2752 
C 672 2752 538 2650 538 2491 
C 538 2332 666 2230 800 2230 
C 928 2230 1062 2332 1062 2491 
z
M 1062 261 
C 1062 420 934 522 800 522 
C 672 522 538 420 538 261 
C 538 102 666 0 800 0 
C 928 0 1062 102 1062 261 
z
" transform="scale(0.015625)"/>
      <path id="CMR17-31" d="M 1702 4058 
C 1702 4192 1696 4192 1606 4192 
C 1357 3916 979 3827 621 3827 
C 602 3827 570 3827 563 3808 
C 557 3795 557 3782 557 3648 
C 755 3648 1088 3686 1344 3839 
L 1344 461 
C 1344 236 1331 160 781 160 
L 589 160 
L 589 0 
C 896 0 1216 0 1523 0 
C 1830 0 2150 0 2458 0 
L 2458 160 
L 2266 160 
C 1715 160 1702 230 1702 458 
L 1702 4058 
z
" transform="scale(0.015625)"/>
      <path id="CMR17-37" d="M 2886 3941 
L 2886 4081 
L 1382 4081 
C 634 4081 621 4165 595 4288 
L 480 4288 
L 294 3094 
L 410 3094 
C 429 3215 474 3540 550 3661 
C 589 3712 1062 3712 1171 3712 
L 2579 3712 
L 1869 2661 
C 1395 1954 1069 999 1069 165 
C 1069 89 1069 -128 1299 -128 
C 1530 -128 1530 89 1530 171 
L 1530 465 
C 1530 1508 1709 2196 2003 2636 
L 2886 3941 
z
" transform="scale(0.015625)"/>
      <path id="CMR17-38" d="M 1741 2264 
C 2144 2467 2554 2773 2554 3263 
C 2554 3841 1990 4179 1472 4179 
C 890 4179 378 3759 378 3180 
C 378 3021 416 2747 666 2505 
C 730 2442 998 2251 1171 2130 
C 883 1983 211 1634 211 934 
C 211 279 838 -128 1459 -128 
C 2144 -128 2720 362 2720 1010 
C 2720 1590 2330 1857 2074 2029 
L 1741 2264 
z
M 902 2822 
C 851 2854 595 3051 595 3351 
C 595 3739 998 4032 1459 4032 
C 1965 4032 2336 3676 2336 3262 
C 2336 2669 1670 2331 1638 2331 
C 1632 2331 1626 2331 1574 2370 
L 902 2822 
z
M 2080 1519 
C 2176 1449 2483 1240 2483 851 
C 2483 381 2010 25 1472 25 
C 890 25 448 438 448 940 
C 448 1443 838 1862 1280 2060 
L 2080 1519 
z
" transform="scale(0.015625)"/>
     </defs>
     <use xlink:href="#CMR17-59" transform="scale(0.996264)"/>
     <use xlink:href="#CMR17-65" transform="translate(61.265174 0) scale(0.996264)"/>
     <use xlink:href="#CMR17-61" transform="translate(101.750835 0) scale(0.996264)"/>
     <use xlink:href="#CMR17-72" transform="translate(147.441312 0) scale(0.996264)"/>
     <use xlink:href="#CMR17-3a" transform="translate(182.72208 0) scale(0.996264)"/>
     <use xlink:href="#CMR17-31" transform="translate(248.078799 0) scale(0.996264)"/>
     <use xlink:href="#CMR17-37" transform="translate(293.769276 0) scale(0.996264)"/>
     <use xlink:href="#CMR17-38" transform="translate(339.459753 0) scale(0.996264)"/>
     <use xlink:href="#CMR17-38" transform="translate(385.15023 0) scale(0.996264)"/>
    </g>
   </g>
  </g>
  <g id="axes_2">
   <g id="patch_7">
    <path d="M 717.33359 853.2 
L 759.45359 853.2 
L 759.45359 10.8 
L 717.33359 10.8 
z
" style="fill: #ffffff"/>
   </g>
   <g id="QuadMesh_1">
    <path d="M 717.33359 853.2 
L 759.45359 853.2 
L 759.45359 747.9 
L 717.33359 747.9 
L 717.33359 853.2 
" clip-path="url(#pb5ec289796)" style="fill: #ad35ca"/>
    <path d="M 717.33359 747.9 
L 759.45359 747.9 
L 759.45359 642.6 
L 717.33359 642.6 
L 717.33359 747.9 
" clip-path="url(#pb5ec289796)" style="fill: #8f81b5"/>
    <path d="M 717.33359 642.6 
L 759.45359 642.6 
L 759.45359 537.3 
L 717.33359 537.3 
L 717.33359 642.6 
" clip-path="url(#pb5ec289796)" style="fill: #879dba"/>
    <path d="M 717.33359 537.3 
L 759.45359 537.3 
L 759.45359 432 
L 717.33359 432 
L 717.33359 537.3 
" clip-path="url(#pb5ec289796)" style="fill: #7bb4be"/>
    <path d="M 717.33359 432 
L 759.45359 432 
L 759.45359 326.7 
L 717.33359 326.7 
L 717.33359 432 
" clip-path="url(#pb5ec289796)" style="fill: #79c6b7"/>
    <path d="M 717.33359 326.7 
L 759.45359 326.7 
L 759.45359 221.4 
L 717.33359 221.4 
L 717.33359 326.7 
" clip-path="url(#pb5ec289796)" style="fill: #a1ccad"/>
    <path d="M 717.33359 221.4 
L 759.45359 221.4 
L 759.45359 116.1 
L 717.33359 116.1 
L 717.33359 221.4 
" clip-path="url(#pb5ec289796)" style="fill: #c1d59b"/>
    <path d="M 717.33359 116.1 
L 759.45359 116.1 
L 759.45359 10.8 
L 717.33359 10.8 
L 717.33359 116.1 
" clip-path="url(#pb5ec289796)" style="fill: #e4dc96"/>
   </g>
   <g id="matplotlib.axis_3"/>
   <g id="matplotlib.axis_4">
    <g id="ytick_9">
     <g id="line2d_1">
      <defs>
       <path id="m6a9d60eebf" d="M 0 0 
L 3.5 0 
" style="stroke: #000000; stroke-width: 0.8"/>
      </defs>
      <g>
       <use xlink:href="#m6a9d60eebf" x="759.45359" y="800.55" style="stroke: #000000; stroke-width: 0.8"/>
      </g>
     </g>
     <g id="text_2">
      <!-- 0 -->
      <g transform="translate(766.45359 811.619603) scale(0.32 -0.32)">
       <defs>
        <path id="CMR17-30" d="M 2688 2025 
C 2688 2416 2682 3080 2413 3591 
C 2176 4039 1798 4198 1466 4198 
C 1158 4198 768 4058 525 3597 
C 269 3118 243 2524 243 2025 
C 243 1661 250 1106 448 619 
C 723 -39 1216 -128 1466 -128 
C 1760 -128 2208 -7 2470 600 
C 2662 1042 2688 1559 2688 2025 
z
M 1466 -26 
C 1056 -26 813 325 723 812 
C 653 1188 653 1738 653 2096 
C 653 2588 653 2997 736 3387 
C 858 3929 1216 4096 1466 4096 
C 1728 4096 2067 3923 2189 3400 
C 2272 3036 2278 2607 2278 2096 
C 2278 1680 2278 1169 2202 792 
C 2067 95 1690 -26 1466 -26 
z
" transform="scale(0.015625)"/>
       </defs>
       <use xlink:href="#CMR17-30" transform="scale(0.996264)"/>
      </g>
     </g>
    </g>
    <g id="ytick_10">
     <g id="line2d_2">
      <g>
       <use xlink:href="#m6a9d60eebf" x="759.45359" y="695.25" style="stroke: #000000; stroke-width: 0.8"/>
      </g>
     </g>
     <g id="text_3">
      <!-- 1 -->
      <g transform="translate(766.45359 706.319603) scale(0.32 -0.32)">
       <use xlink:href="#CMR17-31" transform="scale(0.996264)"/>
      </g>
     </g>
    </g>
    <g id="ytick_11">
     <g id="line2d_3">
      <g>
       <use xlink:href="#m6a9d60eebf" x="759.45359" y="589.95" style="stroke: #000000; stroke-width: 0.8"/>
      </g>
     </g>
     <g id="text_4">
      <!-- 2 -->
      <g transform="translate(766.45359 601.019603) scale(0.32 -0.32)">
       <defs>
        <path id="CMR17-32" d="M 2669 989 
L 2554 989 
C 2490 536 2438 459 2413 420 
C 2381 369 1920 369 1830 369 
L 602 369 
C 832 619 1280 1072 1824 1597 
C 2214 1967 2669 2402 2669 3035 
C 2669 3790 2067 4224 1395 4224 
C 691 4224 262 3604 262 3030 
C 262 2780 448 2748 525 2748 
C 589 2748 781 2787 781 3010 
C 781 3207 614 3264 525 3264 
C 486 3264 448 3258 422 3245 
C 544 3790 915 4058 1306 4058 
C 1862 4058 2227 3617 2227 3035 
C 2227 2479 1901 2000 1536 1584 
L 262 146 
L 262 0 
L 2515 0 
L 2669 989 
z
" transform="scale(0.015625)"/>
       </defs>
       <use xlink:href="#CMR17-32" transform="scale(0.996264)"/>
      </g>
     </g>
    </g>
    <g id="ytick_12">
     <g id="line2d_4">
      <g>
       <use xlink:href="#m6a9d60eebf" x="759.45359" y="484.65" style="stroke: #000000; stroke-width: 0.8"/>
      </g>
     </g>
     <g id="text_5">
      <!-- 3 -->
      <g transform="translate(766.45359 495.719603) scale(0.32 -0.32)">
       <defs>
        <path id="CMR17-33" d="M 1414 2157 
C 1984 2157 2234 1662 2234 1090 
C 2234 320 1824 25 1453 25 
C 1114 25 563 194 390 693 
C 422 680 454 680 486 680 
C 640 680 755 782 755 948 
C 755 1133 614 1216 486 1216 
C 378 1216 211 1165 211 926 
C 211 335 787 -128 1466 -128 
C 2176 -128 2720 430 2720 1085 
C 2720 1707 2208 2157 1600 2227 
C 2086 2328 2554 2756 2554 3329 
C 2554 3820 2048 4179 1472 4179 
C 890 4179 378 3829 378 3329 
C 378 3110 544 3072 627 3072 
C 762 3072 877 3155 877 3321 
C 877 3486 762 3569 627 3569 
C 602 3569 570 3569 544 3557 
C 730 3959 1235 4032 1459 4032 
C 1683 4032 2106 3925 2106 3320 
C 2106 3143 2080 2828 1862 2550 
C 1670 2304 1453 2304 1242 2284 
C 1210 2284 1062 2269 1037 2269 
C 992 2263 966 2257 966 2208 
C 966 2163 973 2157 1101 2157 
L 1414 2157 
z
" transform="scale(0.015625)"/>
       </defs>
       <use xlink:href="#CMR17-33" transform="scale(0.996264)"/>
      </g>
     </g>
    </g>
    <g id="ytick_13">
     <g id="line2d_5">
      <g>
       <use xlink:href="#m6a9d60eebf" x="759.45359" y="379.35" style="stroke: #000000; stroke-width: 0.8"/>
      </g>
     </g>
     <g id="text_6">
      <!-- 4 -->
      <g transform="translate(766.45359 390.419603) scale(0.32 -0.32)">
       <defs>
        <path id="CMR17-34" d="M 2150 4122 
C 2150 4256 2144 4256 2029 4256 
L 128 1254 
L 128 1088 
L 1779 1088 
L 1779 457 
C 1779 224 1766 160 1318 160 
L 1197 160 
L 1197 0 
C 1402 0 1747 0 1965 0 
C 2182 0 2528 0 2733 0 
L 2733 160 
L 2611 160 
C 2163 160 2150 224 2150 457 
L 2150 1088 
L 2803 1088 
L 2803 1254 
L 2150 1254 
L 2150 4122 
z
M 1798 3703 
L 1798 1254 
L 256 1254 
L 1798 3703 
z
" transform="scale(0.015625)"/>
       </defs>
       <use xlink:href="#CMR17-34" transform="scale(0.996264)"/>
      </g>
     </g>
    </g>
    <g id="ytick_14">
     <g id="line2d_6">
      <g>
       <use xlink:href="#m6a9d60eebf" x="759.45359" y="274.05" style="stroke: #000000; stroke-width: 0.8"/>
      </g>
     </g>
     <g id="text_7">
      <!-- 5 -->
      <g transform="translate(766.45359 285.119603) scale(0.32 -0.32)">
       <defs>
        <path id="CMR17-35" d="M 730 3692 
C 794 3666 1056 3584 1325 3584 
C 1920 3584 2246 3911 2432 4100 
C 2432 4157 2432 4192 2394 4192 
C 2387 4192 2374 4192 2323 4163 
C 2099 4058 1837 3973 1517 3973 
C 1325 3973 1037 3999 723 4139 
C 653 4171 640 4171 634 4171 
C 602 4171 595 4164 595 4037 
L 595 2203 
C 595 2089 595 2057 659 2057 
C 691 2057 704 2070 736 2114 
C 941 2401 1222 2522 1542 2522 
C 1766 2522 2246 2382 2246 1289 
C 2246 1085 2246 715 2054 421 
C 1894 159 1645 25 1370 25 
C 947 25 518 320 403 814 
C 429 807 480 795 506 795 
C 589 795 749 840 749 1038 
C 749 1210 627 1280 506 1280 
C 358 1280 262 1190 262 1011 
C 262 454 704 -128 1382 -128 
C 2042 -128 2669 440 2669 1264 
C 2669 2030 2170 2624 1549 2624 
C 1222 2624 947 2503 730 2274 
L 730 3692 
z
" transform="scale(0.015625)"/>
       </defs>
       <use xlink:href="#CMR17-35" transform="scale(0.996264)"/>
      </g>
     </g>
    </g>
    <g id="ytick_15">
     <g id="line2d_7">
      <g>
       <use xlink:href="#m6a9d60eebf" x="759.45359" y="168.75" style="stroke: #000000; stroke-width: 0.8"/>
      </g>
     </g>
     <g id="text_8">
      <!-- 6 -->
      <g transform="translate(766.45359 179.819603) scale(0.32 -0.32)">
       <defs>
        <path id="CMR17-36" d="M 678 2176 
C 678 3690 1395 4032 1811 4032 
C 1946 4032 2272 4009 2400 3776 
C 2298 3776 2106 3776 2106 3553 
C 2106 3381 2246 3323 2336 3323 
C 2394 3323 2566 3348 2566 3560 
C 2566 3954 2246 4179 1805 4179 
C 1043 4179 243 3390 243 1984 
C 243 253 966 -128 1478 -128 
C 2099 -128 2688 427 2688 1283 
C 2688 2081 2170 2662 1517 2662 
C 1126 2662 838 2407 678 1960 
L 678 2176 
z
M 1478 25 
C 691 25 691 1200 691 1436 
C 691 1896 909 2560 1504 2560 
C 1613 2560 1926 2560 2138 2120 
C 2253 1870 2253 1609 2253 1289 
C 2253 944 2253 690 2118 434 
C 1978 171 1773 25 1478 25 
z
" transform="scale(0.015625)"/>
       </defs>
       <use xlink:href="#CMR17-36" transform="scale(0.996264)"/>
      </g>
     </g>
    </g>
    <g id="ytick_16">
     <g id="line2d_8">
      <g>
       <use xlink:href="#m6a9d60eebf" x="759.45359" y="63.45" style="stroke: #000000; stroke-width: 0.8"/>
      </g>
     </g>
     <g id="text_9">
      <!-- 7 -->
      <g transform="translate(766.45359 74.519603) scale(0.32 -0.32)">
       <use xlink:href="#CMR17-37" transform="scale(0.996264)"/>
      </g>
     </g>
    </g>
    <g id="ytick_17">
     <g id="line2d_9">
      <defs>
       <path id="m913165903c" d="M 0 0 
L 2 0 
" style="stroke: #000000; stroke-width: 0.6"/>
      </defs>
      <g>
       <use xlink:href="#m913165903c" x="759.45359" y="853.2" style="stroke: #000000; stroke-width: 0.6"/>
      </g>
     </g>
    </g>
    <g id="ytick_18">
     <g id="line2d_10">
      <g>
       <use xlink:href="#m913165903c" x="759.45359" y="747.9" style="stroke: #000000; stroke-width: 0.6"/>
      </g>
     </g>
    </g>
    <g id="ytick_19">
     <g id="line2d_11">
      <g>
       <use xlink:href="#m913165903c" x="759.45359" y="642.6" style="stroke: #000000; stroke-width: 0.6"/>
      </g>
     </g>
    </g>
    <g id="ytick_20">
     <g id="line2d_12">
      <g>
       <use xlink:href="#m913165903c" x="759.45359" y="537.3" style="stroke: #000000; stroke-width: 0.6"/>
      </g>
     </g>
    </g>
    <g id="ytick_21">
     <g id="line2d_13">
      <g>
       <use xlink:href="#m913165903c" x="759.45359" y="432" style="stroke: #000000; stroke-width: 0.6"/>
      </g>
     </g>
    </g>
    <g id="ytick_22">
     <g id="line2d_14">
      <g>
       <use xlink:href="#m913165903c" x="759.45359" y="326.7" style="stroke: #000000; stroke-width: 0.6"/>
      </g>
     </g>
    </g>
    <g id="ytick_23">
     <g id="line2d_15">
      <g>
       <use xlink:href="#m913165903c" x="759.45359" y="221.4" style="stroke: #000000; stroke-width: 0.6"/>
      </g>
     </g>
    </g>
    <g id="ytick_24">
     <g id="line2d_16">
      <g>
       <use xlink:href="#m913165903c" x="759.45359" y="116.1" style="stroke: #000000; stroke-width: 0.6"/>
      </g>
     </g>
    </g>
    <g id="ytick_25">
     <g id="line2d_17">
      <g>
       <use xlink:href="#m913165903c" x="759.45359" y="10.8" style="stroke: #000000; stroke-width: 0.6"/>
      </g>
     </g>
    </g>
    <g id="text_10">
     <!-- Node Depth -->
     <g transform="translate(828.899641 543.95779) rotate(-90) scale(0.46 -0.46)">
      <defs>
       <path id="CMR17-4e" d="M 1312 4250 
C 1267 4320 1261 4320 1139 4320 
L 326 4320 
L 326 4160 
L 448 4160 
C 704 4160 819 4129 838 4122 
L 838 610 
C 838 451 838 153 326 153 
L 326 -13 
C 474 0 742 0 902 0 
C 1062 0 1331 0 1478 -13 
L 1478 153 
C 966 153 966 451 966 610 
L 966 4033 
C 1011 3995 1011 3982 1056 3919 
L 3430 76 
C 3475 0 3494 0 3526 0 
C 3590 0 3590 19 3590 139 
L 3590 3705 
C 3590 3863 3590 4160 4102 4160 
L 4102 4326 
C 3955 4320 3686 4320 3526 4320 
C 3366 4320 3098 4320 2950 4326 
L 2950 4160 
C 3462 4160 3462 3862 3462 3703 
L 3462 763 
L 1312 4250 
z
" transform="scale(0.015625)"/>
       <path id="CMR17-6f" d="M 2758 1356 
C 2758 2176 2163 2816 1466 2816 
C 768 2816 173 2176 173 1356 
C 173 551 768 -64 1466 -64 
C 2163 -64 2758 551 2758 1356 
z
M 1466 51 
C 1165 51 909 230 762 480 
C 602 767 582 1126 582 1408 
C 582 1677 595 2010 762 2298 
C 890 2509 1139 2714 1466 2714 
C 1754 2714 1997 2554 2150 2330 
C 2349 2029 2349 1607 2349 1408 
C 2349 1158 2336 775 2163 467 
C 1984 173 1709 51 1466 51 
z
" transform="scale(0.015625)"/>
       <path id="CMR17-64" d="M 1869 4326 
L 1869 4160 
C 2246 4160 2304 4122 2304 3820 
L 2304 2345 
C 2278 2377 2016 2790 1498 2790 
C 845 2790 211 2208 211 1364 
C 211 525 806 -64 1434 -64 
C 1978 -64 2259 337 2291 380 
L 2291 -63 
L 3066 -63 
L 3066 128 
C 2688 128 2630 166 2630 473 
L 2630 4396 
L 1869 4326 
z
M 2291 755 
C 2291 563 2176 390 2029 262 
C 1811 70 1594 38 1472 38 
C 1286 38 621 134 621 1356 
C 621 2612 1363 2688 1530 2688 
C 1824 2688 2061 2522 2208 2291 
C 2291 2157 2291 2138 2291 2023 
L 2291 755 
z
" transform="scale(0.015625)"/>
       <path id="CMR17-44" d="M 333 4352 
L 333 4186 
C 774 4186 845 4186 845 3900 
L 845 452 
C 845 166 774 166 333 166 
L 333 0 
L 2368 0 
C 3398 0 4224 943 4224 2141 
C 4224 3346 3411 4352 2368 4352 
L 333 4352 
z
M 1523 166 
C 1267 166 1254 197 1254 414 
L 1254 3938 
C 1254 4155 1267 4186 1523 4186 
L 2240 4186 
C 2771 4186 3750 3874 3750 2141 
C 3750 1242 3488 879 3366 707 
C 3213 510 2848 166 2240 166 
L 1523 166 
z
" transform="scale(0.015625)"/>
       <path id="CMR17-70" d="M 1408 -1063 
C 998 -1063 973 -1037 973 -789 
L 973 402 
C 1158 134 1427 -38 1766 -38 
C 2406 -38 3053 523 3053 1388 
C 3053 2191 2496 2802 1837 2802 
C 1453 2802 1139 2592 960 2338 
L 960 2802 
L 198 2732 
L 198 2567 
C 576 2567 634 2528 634 2223 
L 634 -789 
C 634 -1031 608 -1063 198 -1063 
L 198 -1228 
C 352 -1216 634 -1216 800 -1216 
C 966 -1216 1254 -1216 1408 -1228 
L 1408 -1063 
z
M 973 2012 
C 973 2102 973 2235 1222 2471 
C 1254 2497 1472 2688 1792 2688 
C 2259 2688 2643 2108 2643 1382 
C 2643 656 2234 64 1728 64 
C 1498 64 1248 172 1056 472 
C 973 612 973 650 973 752 
L 973 2012 
z
" transform="scale(0.015625)"/>
       <path id="CMR17-74" d="M 966 2560 
L 1862 2560 
L 1862 2725 
L 966 2725 
L 966 3904 
L 851 3904 
C 838 3245 614 2668 70 2668 
L 70 2560 
L 627 2560 
L 627 771 
C 627 650 627 -64 1370 -64 
C 1747 -64 1965 306 1965 777 
L 1965 1140 
L 1850 1140 
L 1850 783 
C 1850 344 1677 51 1408 51 
C 1222 51 966 178 966 758 
L 966 2560 
z
" transform="scale(0.015625)"/>
       <path id="CMR17-68" d="M 2656 1933 
C 2656 2259 2592 2790 1837 2790 
C 1312 2790 1056 2368 979 2157 
L 973 2157 
L 973 4396 
L 211 4326 
L 211 4160 
C 589 4160 646 4122 646 3817 
L 646 426 
C 646 184 621 153 211 153 
L 211 -13 
C 365 0 646 0 813 0 
C 979 0 1267 0 1421 -13 
L 1421 153 
C 1011 153 986 178 986 428 
L 986 1658 
C 986 2247 1344 2688 1792 2688 
C 2266 2688 2317 2266 2317 1958 
L 2317 428 
C 2317 184 2291 153 1882 153 
L 1882 -13 
C 2035 0 2317 0 2483 0 
C 2650 0 2938 0 3091 -13 
L 3091 153 
C 2682 153 2656 178 2656 428 
L 2656 1933 
z
" transform="scale(0.015625)"/>
      </defs>
      <use xlink:href="#CMR17-4e" transform="scale(0.996264)"/>
      <use xlink:href="#CMR17-6f" transform="translate(69.07243 0) scale(0.996264)"/>
      <use xlink:href="#CMR17-64" transform="translate(117.365346 0) scale(0.996264)"/>
      <use xlink:href="#CMR17-65" transform="translate(168.260715 0) scale(0.996264)"/>
      <use xlink:href="#CMR17-44" transform="translate(238.822342 0) scale(0.996264)"/>
      <use xlink:href="#CMR17-65" transform="translate(309.215898 0) scale(0.996264)"/>
      <use xlink:href="#CMR17-70" transform="translate(349.701559 0) scale(0.996264)"/>
      <use xlink:href="#CMR17-74" transform="translate(400.596928 0) scale(0.996264)"/>
      <use xlink:href="#CMR17-68" transform="translate(435.877696 0) scale(0.996264)"/>
     </g>
    </g>
   </g>
   <g id="LineCollection_2"/>
   <g id="patch_8">
    <path d="M 717.33359 853.2 
L 738.39359 853.2 
L 759.45359 853.2 
L 759.45359 10.8 
L 738.39359 10.8 
L 717.33359 10.8 
L 717.33359 853.2 
z
" style="fill: none; stroke: #000000; stroke-width: 0.8; stroke-linejoin: miter; stroke-linecap: square"/>
   </g>
  </g>
 </g>
 <defs>
  <clipPath id="p2dbdcc2f8d">
   <rect x="10.8" y="99.513605" width="664.972791" height="664.972791"/>
  </clipPath>
  <clipPath id="pb5ec289796">
   <rect x="717.33359" y="10.8" width="42.12" height="842.4"/>
  </clipPath>
 </defs>
</svg>
