<?xml version="1.0" encoding="utf-8" standalone="no"?>
<!DOCTYPE svg PUBLIC "-//W3C//DTD SVG 1.1//EN"
  "http://www.w3.org/Graphics/SVG/1.1/DTD/svg11.dtd">
<svg xmlns:xlink="http://www.w3.org/1999/xlink" width="864pt" height="864pt" viewBox="0 0 864 864" xmlns="http://www.w3.org/2000/svg" version="1.1">
 <metadata>
  <rdf:RDF xmlns:dc="http://purl.org/dc/elements/1.1/" xmlns:cc="http://creativecommons.org/ns#" xmlns:rdf="http://www.w3.org/1999/02/22-rdf-syntax-ns#">
   <cc:Work>
    <dc:type rdf:resource="http://purl.org/dc/dcmitype/StillImage"/>
    <dc:date>2026-06-09T22:33:00.209433</dc:date>
    <dc:format>image/svg+xml</dc:format>
    <dc:creator>
     <cc:Agent>
      <dc:title>Matplotlib v3.9.2, https://matplotlib.org/</dc:title>
     </cc:Agent>
    </dc:creator>
   </cc:Work>
  </rdf:RDF>
 </metadata>
 <defs>
  <style type="text/css">*{stroke-linejoin: round; stroke-linecap: butt}</style>
 </defs>
 <g id="figure_1">
  <g id="patch_1">
   <path d="M 0 864 
L 864 864 
L 864 0 
L 0 0 
z
" style="fill: #ffffff"/>
  </g>
  <g id="axes_1">
   <g id="patch_2">
    <path d="M 10.8 764.486395 
L 675.772791 764.486395 
L 675.772791 99.513605 
L 10.8 99.513605 
z
" style="fill: #ffffff"/>
   </g>
   <g id="LineCollection_1">
    <path d="M 644.854075 452.625071 
L 343.307386 432 
" clip-path="url(#p4fabd8c395)" style="fill: none; stroke: #808080; stroke-opacity: 0.3"/>
    <path d="M 343.307386 432 
L 644.854075 411.374929 
" clip-path="url(#p4fabd8c395)" style="fill: none; stroke: #808080; stroke-opacity: 0.3"/>
    <path d="M 343.307386 432 
L 639.228674 370.498413 
" clip-path="url(#p4fabd8c395)" style="fill: none; stroke: #808080; stroke-opacity: 0.3"/>
    <path d="M 343.307386 432 
L 628.103813 330.78476 
" clip-path="url(#p4fabd8c395)" style="fill: none; stroke: #808080; stroke-opacity: 0.3"/>
    <path d="M 343.307386 432 
L 611.647416 292.960235 
" clip-path="url(#p4fabd8c395)" style="fill: none; stroke: #808080; stroke-opacity: 0.3"/>
    <path d="M 343.307386 432 
L 590.237307 257.696526 
" clip-path="url(#p4fabd8c395)" style="fill: none; stroke: #808080; stroke-opacity: 0.3"/>
    <path d="M 343.307386 432 
L 564.209332 225.707305 
" clip-path="url(#p4fabd8c395)" style="fill: none; stroke: #808080; stroke-opacity: 0.3"/>
    <path d="M 343.307386 432 
L 534.025276 197.538318 
" clip-path="url(#p4fabd8c395)" style="fill: none; stroke: #808080; stroke-opacity: 0.3"/>
    <path d="M 343.307386 432 
L 500.356831 173.735315 
" clip-path="url(#p4fabd8c395)" style="fill: none; stroke: #808080; stroke-opacity: 0.3"/>
    <path d="M 343.307386 432 
L 463.707762 154.760081 
" clip-path="url(#p4fabd8c395)" style="fill: none; stroke: #808080; stroke-opacity: 0.3"/>
    <path d="M 343.307386 432 
L 424.833721 140.948462 
" clip-path="url(#p4fabd8c395)" style="fill: none; stroke: #808080; stroke-opacity: 0.3"/>
    <path d="M 343.307386 432 
L 384.448379 132.552341 
" clip-path="url(#p4fabd8c395)" style="fill: none; stroke: #808080; stroke-opacity: 0.3"/>
    <path d="M 343.307386 432 
L 343.307386 129.739641 
" clip-path="url(#p4fabd8c395)" style="fill: none; stroke: #808080; stroke-opacity: 0.3"/>
    <path d="M 343.307386 432 
L 302.124412 132.552341 
" clip-path="url(#p4fabd8c395)" style="fill: none; stroke: #808080; stroke-opacity: 0.3"/>
    <path d="M 343.307386 432 
L 261.739069 140.948462 
" clip-path="url(#p4fabd8c395)" style="fill: none; stroke: #808080; stroke-opacity: 0.3"/>
    <path d="M 343.307386 432 
L 222.865029 154.760081 
" clip-path="url(#p4fabd8c395)" style="fill: none; stroke: #808080; stroke-opacity: 0.3"/>
    <path d="M 343.307386 432 
L 186.257941 173.735315 
" clip-path="url(#p4fabd8c395)" style="fill: none; stroke: #808080; stroke-opacity: 0.3"/>
    <path d="M 343.307386 432 
L 152.547514 197.538318 
" clip-path="url(#p4fabd8c395)" style="fill: none; stroke: #808080; stroke-opacity: 0.3"/>
    <path d="M 343.307386 432 
L 122.40544 225.707305 
" clip-path="url(#p4fabd8c395)" style="fill: none; stroke: #808080; stroke-opacity: 0.3"/>
    <path d="M 343.307386 432 
L 96.335484 257.696526 
" clip-path="url(#p4fabd8c395)" style="fill: none; stroke: #808080; stroke-opacity: 0.3"/>
    <path d="M 343.307386 432 
L 74.925375 292.960235 
" clip-path="url(#p4fabd8c395)" style="fill: none; stroke: #808080; stroke-opacity: 0.3"/>
    <path d="M 343.307386 432 
L 58.468978 330.78476 
" clip-path="url(#p4fabd8c395)" style="fill: none; stroke: #808080; stroke-opacity: 0.3"/>
    <path d="M 343.307386 432 
L 47.344117 370.498413 
" clip-path="url(#p4fabd8c395)" style="fill: none; stroke: #808080; stroke-opacity: 0.3"/>
    <path d="M 343.307386 432 
L 41.718716 411.374929 
" clip-path="url(#p4fabd8c395)" style="fill: none; stroke: #808080; stroke-opacity: 0.3"/>
    <path d="M 343.307386 432 
L 41.718716 452.625071 
" clip-path="url(#p4fabd8c395)" style="fill: none; stroke: #808080; stroke-opacity: 0.3"/>
    <path d="M 343.307386 432 
L 47.344117 493.497389 
" clip-path="url(#p4fabd8c395)" style="fill: none; stroke: #808080; stroke-opacity: 0.3"/>
    <path d="M 343.307386 432 
L 58.468978 533.219438 
" clip-path="url(#p4fabd8c395)" style="fill: none; stroke: #808080; stroke-opacity: 0.3"/>
    <path d="M 343.307386 432 
L 74.925375 571.060756 
" clip-path="url(#p4fabd8c395)" style="fill: none; stroke: #808080; stroke-opacity: 0.3"/>
    <path d="M 343.307386 432 
L 96.335484 606.307672 
" clip-path="url(#p4fabd8c395)" style="fill: none; stroke: #808080; stroke-opacity: 0.3"/>
    <path d="M 343.307386 432 
L 122.40544 638.309488 
" clip-path="url(#p4fabd8c395)" style="fill: none; stroke: #808080; stroke-opacity: 0.3"/>
    <path d="M 343.307386 432 
L 152.547514 666.46588 
" clip-path="url(#p4fabd8c395)" style="fill: none; stroke: #808080; stroke-opacity: 0.3"/>
    <path d="M 343.307386 432 
L 186.257941 690.256289 
" clip-path="url(#p4fabd8c395)" style="fill: none; stroke: #808080; stroke-opacity: 0.3"/>
    <path d="M 343.307386 432 
L 222.865029 709.23572 
" clip-path="url(#p4fabd8c395)" style="fill: none; stroke: #808080; stroke-opacity: 0.3"/>
    <path d="M 343.307386 432 
L 261.739069 723.051538 
" clip-path="url(#p4fabd8c395)" style="fill: none; stroke: #808080; stroke-opacity: 0.3"/>
    <path d="M 343.307386 432 
L 302.124412 731.443461 
" clip-path="url(#p4fabd8c395)" style="fill: none; stroke: #808080; stroke-opacity: 0.3"/>
    <path d="M 343.307386 432 
L 343.307386 734.260359 
" clip-path="url(#p4fabd8c395)" style="fill: none; stroke: #808080; stroke-opacity: 0.3"/>
    <path d="M 343.307386 432 
L 384.448379 731.443461 
" clip-path="url(#p4fabd8c395)" style="fill: none; stroke: #808080; stroke-opacity: 0.3"/>
    <path d="M 343.307386 432 
L 424.833721 723.051538 
" clip-path="url(#p4fabd8c395)" style="fill: none; stroke: #808080; stroke-opacity: 0.3"/>
    <path d="M 343.307386 432 
L 463.707762 709.23572 
" clip-path="url(#p4fabd8c395)" style="fill: none; stroke: #808080; stroke-opacity: 0.3"/>
    <path d="M 343.307386 432 
L 500.356831 690.256289 
" clip-path="url(#p4fabd8c395)" style="fill: none; stroke: #808080; stroke-opacity: 0.3"/>
    <path d="M 343.307386 432 
L 534.025276 666.46588 
" clip-path="url(#p4fabd8c395)" style="fill: none; stroke: #808080; stroke-opacity: 0.3"/>
    <path d="M 343.307386 432 
L 564.209332 638.309488 
" clip-path="url(#p4fabd8c395)" style="fill: none; stroke: #808080; stroke-opacity: 0.3"/>
    <path d="M 343.307386 432 
L 590.237307 606.307672 
" clip-path="url(#p4fabd8c395)" style="fill: none; stroke: #808080; stroke-opacity: 0.3"/>
    <path d="M 343.307386 432 
L 611.647416 571.060756 
" clip-path="url(#p4fabd8c395)" style="fill: none; stroke: #808080; stroke-opacity: 0.3"/>
    <path d="M 343.307386 432 
L 628.103813 533.219438 
" clip-path="url(#p4fabd8c395)" style="fill: none; stroke: #808080; stroke-opacity: 0.3"/>
    <path d="M 343.307386 432 
L 639.228674 493.497389 
" clip-path="url(#p4fabd8c395)" style="fill: none; stroke: #808080; stroke-opacity: 0.3"/>
   </g>
   <g id="matplotlib.axis_1">
    <g id="xtick_1"/>
    <g id="xtick_2"/>
    <g id="xtick_3"/>
    <g id="xtick_4"/>
    <g id="xtick_5"/>
    <g id="xtick_6"/>
    <g id="xtick_7"/>
   </g>
   <g id="matplotlib.axis_2">
    <g id="ytick_1"/>
    <g id="ytick_2"/>
    <g id="ytick_3"/>
    <g id="ytick_4"/>
    <g id="ytick_5"/>
    <g id="ytick_6"/>
    <g id="ytick_7"/>
    <g id="ytick_8"/>
   </g>
   <g id="PathCollection_1">
    <path d="M 644.854075 463.805411 
C 647.819136 463.805411 650.663154 462.62738 652.759769 460.530766 
C 654.856383 458.434151 656.034415 455.590132 656.034415 452.625071 
C 656.034415 449.660011 654.856383 446.815992 652.759769 444.719377 
C 650.663154 442.622763 647.819136 441.444732 644.854075 441.444732 
C 641.889014 441.444732 639.044995 442.622763 636.948381 444.719377 
C 634.851766 446.815992 633.673735 449.660011 633.673735 452.625071 
C 633.673735 455.590132 634.851766 458.434151 636.948381 460.530766 
C 639.044995 462.62738 641.889014 463.805411 644.854075 463.805411 
z
" clip-path="url(#p4fabd8c395)" style="fill: #ad35ca; stroke: #ad35ca"/>
    <path d="M 343.307386 439.071068 
C 345.182655 439.071068 346.98137 438.326015 348.307386 437 
C 349.633401 435.673984 350.378453 433.875269 350.378453 432 
C 350.378453 430.124731 349.633401 428.326015 348.307386 427 
C 346.98137 425.673984 345.182655 424.928932 343.307386 424.928932 
C 341.432117 424.928932 339.633401 425.673984 338.307386 427 
C 336.98137 428.326015 336.236318 430.124731 336.236318 432 
C 336.236318 433.875269 336.98137 435.673984 338.307386 437 
C 339.633401 438.326015 341.432117 439.071068 343.307386 439.071068 
z
" clip-path="url(#p4fabd8c395)" style="fill: #8f81b5; stroke: #8f81b5"/>
    <path d="M 644.854075 415.847064 
C 646.040099 415.847064 647.177707 415.375852 648.016352 414.537206 
C 648.854998 413.69856 649.326211 412.560953 649.326211 411.374929 
C 649.326211 410.188904 648.854998 409.051297 648.016352 408.212651 
C 647.177707 407.374005 646.040099 406.902793 644.854075 406.902793 
C 643.66805 406.902793 642.530443 407.374005 641.691797 408.212651 
C 640.853151 409.051297 640.381939 410.188904 640.381939 411.374929 
C 640.381939 412.560953 640.853151 413.69856 641.691797 414.537206 
C 642.530443 415.375852 643.66805 415.847064 644.854075 415.847064 
z
" clip-path="url(#p4fabd8c395)" style="fill: #879dba; stroke: #879dba"/>
    <path d="M 639.228674 374.970549 
C 640.414698 374.970549 641.552305 374.499336 642.390951 373.660691 
C 643.229597 372.822045 643.70081 371.684437 643.70081 370.498413 
C 643.70081 369.312389 643.229597 368.174781 642.390951 367.336135 
C 641.552305 366.497489 640.414698 366.026277 639.228674 366.026277 
C 638.042649 366.026277 636.905042 366.497489 636.066396 367.336135 
C 635.22775 368.174781 634.756538 369.312389 634.756538 370.498413 
C 634.756538 371.684437 635.22775 372.822045 636.066396 373.660691 
C 636.905042 374.499336 638.042649 374.970549 639.228674 374.970549 
z
" clip-path="url(#p4fabd8c395)" style="fill: #879dba; stroke: #879dba"/>
    <path d="M 628.103813 335.256896 
C 629.289837 335.256896 630.427445 334.785684 631.266091 333.947038 
C 632.104737 333.108392 632.575949 331.970785 632.575949 330.78476 
C 632.575949 329.598736 632.104737 328.461128 631.266091 327.622483 
C 630.427445 326.783837 629.289837 326.312624 628.103813 326.312624 
C 626.917789 326.312624 625.780181 326.783837 624.941536 327.622483 
C 624.10289 328.461128 623.631677 329.598736 623.631677 330.78476 
C 623.631677 331.970785 624.10289 333.108392 624.941536 333.947038 
C 625.780181 334.785684 626.917789 335.256896 628.103813 335.256896 
z
" clip-path="url(#p4fabd8c395)" style="fill: #879dba; stroke: #879dba"/>
    <path d="M 611.647416 297.432371 
C 612.83344 297.432371 613.971048 296.961158 614.809693 296.122512 
C 615.648339 295.283866 616.119552 294.146259 616.119552 292.960235 
C 616.119552 291.77421 615.648339 290.636603 614.809693 289.797957 
C 613.971048 288.959311 612.83344 288.488099 611.647416 288.488099 
C 610.461392 288.488099 609.323784 288.959311 608.485138 289.797957 
C 607.646492 290.636603 607.17528 291.77421 607.17528 292.960235 
C 607.17528 294.146259 607.646492 295.283866 608.485138 296.122512 
C 609.323784 296.961158 610.461392 297.432371 611.647416 297.432371 
z
" clip-path="url(#p4fabd8c395)" style="fill: #879dba; stroke: #879dba"/>
    <path d="M 590.237307 262.168662 
C 591.423331 262.168662 592.560939 261.69745 593.399585 260.858804 
C 594.238231 260.020158 594.709443 258.88255 594.709443 257.696526 
C 594.709443 256.510502 594.238231 255.372894 593.399585 254.534248 
C 592.560939 253.695603 591.423331 253.22439 590.237307 253.22439 
C 589.051283 253.22439 587.913675 253.695603 587.075029 254.534248 
C 586.236384 255.372894 585.765171 256.510502 585.765171 257.696526 
C 585.765171 258.88255 586.236384 260.020158 587.075029 260.858804 
C 587.913675 261.69745 589.051283 262.168662 590.237307 262.168662 
z
" clip-path="url(#p4fabd8c395)" style="fill: #879dba; stroke: #879dba"/>
    <path d="M 564.209332 230.179441 
C 565.395356 230.179441 566.532963 229.708228 567.371609 228.869582 
C 568.210255 228.030937 568.681468 226.893329 568.681468 225.707305 
C 568.681468 224.52128 568.210255 223.383673 567.371609 222.545027 
C 566.532963 221.706381 565.395356 221.235169 564.209332 221.235169 
C 563.023307 221.235169 561.8857 221.706381 561.047054 222.545027 
C 560.208408 223.383673 559.737196 224.52128 559.737196 225.707305 
C 559.737196 226.893329 560.208408 228.030937 561.047054 228.869582 
C 561.8857 229.708228 563.023307 230.179441 564.209332 230.179441 
z
" clip-path="url(#p4fabd8c395)" style="fill: #879dba; stroke: #879dba"/>
    <path d="M 534.025276 202.010454 
C 535.211301 202.010454 536.348908 201.539242 537.187554 200.700596 
C 538.0262 199.86195 538.497412 198.724343 538.497412 197.538318 
C 538.497412 196.352294 538.0262 195.214687 537.187554 194.376041 
C 536.348908 193.537395 535.211301 193.066182 534.025276 193.066182 
C 532.839252 193.066182 531.701644 193.537395 530.862999 194.376041 
C 530.024353 195.214687 529.55314 196.352294 529.55314 197.538318 
C 529.55314 198.724343 530.024353 199.86195 530.862999 200.700596 
C 531.701644 201.539242 532.839252 202.010454 534.025276 202.010454 
z
" clip-path="url(#p4fabd8c395)" style="fill: #879dba; stroke: #879dba"/>
    <path d="M 500.356831 178.207451 
C 501.542855 178.207451 502.680463 177.736239 503.519108 176.897593 
C 504.357754 176.058947 504.828967 174.921339 504.828967 173.735315 
C 504.828967 172.549291 504.357754 171.411683 503.519108 170.573037 
C 502.680463 169.734392 501.542855 169.263179 500.356831 169.263179 
C 499.170806 169.263179 498.033199 169.734392 497.194553 170.573037 
C 496.355907 171.411683 495.884695 172.549291 495.884695 173.735315 
C 495.884695 174.921339 496.355907 176.058947 497.194553 176.897593 
C 498.033199 177.736239 499.170806 178.207451 500.356831 178.207451 
z
" clip-path="url(#p4fabd8c395)" style="fill: #879dba; stroke: #879dba"/>
    <path d="M 463.707762 159.232217 
C 464.893786 159.232217 466.031394 158.761005 466.87004 157.922359 
C 467.708686 157.083713 468.179898 155.946106 468.179898 154.760081 
C 468.179898 153.574057 467.708686 152.43645 466.87004 151.597804 
C 466.031394 150.759158 464.893786 150.287946 463.707762 150.287946 
C 462.521738 150.287946 461.38413 150.759158 460.545484 151.597804 
C 459.706839 152.43645 459.235626 153.574057 459.235626 154.760081 
C 459.235626 155.946106 459.706839 157.083713 460.545484 157.922359 
C 461.38413 158.761005 462.521738 159.232217 463.707762 159.232217 
z
" clip-path="url(#p4fabd8c395)" style="fill: #879dba; stroke: #879dba"/>
    <path d="M 424.833721 145.420598 
C 426.019746 145.420598 427.157353 144.949386 427.995999 144.11074 
C 428.834645 143.272094 429.305857 142.134487 429.305857 140.948462 
C 429.305857 139.762438 428.834645 138.62483 427.995999 137.786185 
C 427.157353 136.947539 426.019746 136.476326 424.833721 136.476326 
C 423.647697 136.476326 422.51009 136.947539 421.671444 137.786185 
C 420.832798 138.62483 420.361586 139.762438 420.361586 140.948462 
C 420.361586 142.134487 420.832798 143.272094 421.671444 144.11074 
C 422.51009 144.949386 423.647697 145.420598 424.833721 145.420598 
z
" clip-path="url(#p4fabd8c395)" style="fill: #879dba; stroke: #879dba"/>
    <path d="M 384.448379 137.024477 
C 385.634403 137.024477 386.772011 136.553265 387.610657 135.714619 
C 388.449303 134.875973 388.920515 133.738365 388.920515 132.552341 
C 388.920515 131.366317 388.449303 130.228709 387.610657 129.390064 
C 386.772011 128.551418 385.634403 128.080205 384.448379 128.080205 
C 383.262355 128.080205 382.124747 128.551418 381.286101 129.390064 
C 380.447456 130.228709 379.976243 131.366317 379.976243 132.552341 
C 379.976243 133.738365 380.447456 134.875973 381.286101 135.714619 
C 382.124747 136.553265 383.262355 137.024477 384.448379 137.024477 
z
" clip-path="url(#p4fabd8c395)" style="fill: #879dba; stroke: #879dba"/>
    <path d="M 343.307386 134.211777 
C 344.49341 134.211777 345.631017 133.740564 346.469663 132.901918 
C 347.308309 132.063272 347.779522 130.925665 347.779522 129.739641 
C 347.779522 128.553616 347.308309 127.416009 346.469663 126.577363 
C 345.631017 125.738717 344.49341 125.267505 343.307386 125.267505 
C 342.121361 125.267505 340.983754 125.738717 340.145108 126.577363 
C 339.306462 127.416009 338.83525 128.553616 338.83525 129.739641 
C 338.83525 130.925665 339.306462 132.063272 340.145108 132.901918 
C 340.983754 133.740564 342.121361 134.211777 343.307386 134.211777 
z
" clip-path="url(#p4fabd8c395)" style="fill: #879dba; stroke: #879dba"/>
    <path d="M 302.124412 137.024477 
C 303.310436 137.024477 304.448043 136.553265 305.286689 135.714619 
C 306.125335 134.875973 306.596548 133.738365 306.596548 132.552341 
C 306.596548 131.366317 306.125335 130.228709 305.286689 129.390064 
C 304.448043 128.551418 303.310436 128.080205 302.124412 128.080205 
C 300.938387 128.080205 299.80078 128.551418 298.962134 129.390064 
C 298.123488 130.228709 297.652276 131.366317 297.652276 132.552341 
C 297.652276 133.738365 298.123488 134.875973 298.962134 135.714619 
C 299.80078 136.553265 300.938387 137.024477 302.124412 137.024477 
z
" clip-path="url(#p4fabd8c395)" style="fill: #879dba; stroke: #879dba"/>
    <path d="M 261.739069 145.420598 
C 262.925094 145.420598 264.062701 144.949386 264.901347 144.11074 
C 265.739993 143.272094 266.211205 142.134487 266.211205 140.948462 
C 266.211205 139.762438 265.739993 138.62483 264.901347 137.786185 
C 264.062701 136.947539 262.925094 136.476326 261.739069 136.476326 
C 260.553045 136.476326 259.415437 136.947539 258.576792 137.786185 
C 257.738146 138.62483 257.266933 139.762438 257.266933 140.948462 
C 257.266933 142.134487 257.738146 143.272094 258.576792 144.11074 
C 259.415437 144.949386 260.553045 145.420598 261.739069 145.420598 
z
" clip-path="url(#p4fabd8c395)" style="fill: #879dba; stroke: #879dba"/>
    <path d="M 222.865029 159.232217 
C 224.051053 159.232217 225.18866 158.761005 226.027306 157.922359 
C 226.865952 157.083713 227.337164 155.946106 227.337164 154.760081 
C 227.337164 153.574057 226.865952 152.43645 226.027306 151.597804 
C 225.18866 150.759158 224.051053 150.287946 222.865029 150.287946 
C 221.679004 150.287946 220.541397 150.759158 219.702751 151.597804 
C 218.864105 152.43645 218.392893 153.574057 218.392893 154.760081 
C 218.392893 155.946106 218.864105 157.083713 219.702751 157.922359 
C 220.541397 158.761005 221.679004 159.232217 222.865029 159.232217 
z
" clip-path="url(#p4fabd8c395)" style="fill: #879dba; stroke: #879dba"/>
    <path d="M 186.257941 178.207451 
C 187.443965 178.207451 188.581572 177.736239 189.420218 176.897593 
C 190.258864 176.058947 190.730077 174.921339 190.730077 173.735315 
C 190.730077 172.549291 190.258864 171.411683 189.420218 170.573037 
C 188.581572 169.734392 187.443965 169.263179 186.257941 169.263179 
C 185.071916 169.263179 183.934309 169.734392 183.095663 170.573037 
C 182.257017 171.411683 181.785805 172.549291 181.785805 173.735315 
C 181.785805 174.921339 182.257017 176.058947 183.095663 176.897593 
C 183.934309 177.736239 185.071916 178.207451 186.257941 178.207451 
z
" clip-path="url(#p4fabd8c395)" style="fill: #879dba; stroke: #879dba"/>
    <path d="M 152.547514 202.010454 
C 153.733539 202.010454 154.871146 201.539242 155.709792 200.700596 
C 156.548438 199.86195 157.01965 198.724343 157.01965 197.538318 
C 157.01965 196.352294 156.548438 195.214687 155.709792 194.376041 
C 154.871146 193.537395 153.733539 193.066182 152.547514 193.066182 
C 151.36149 193.066182 150.223883 193.537395 149.385237 194.376041 
C 148.546591 195.214687 148.075378 196.352294 148.075378 197.538318 
C 148.075378 198.724343 148.546591 199.86195 149.385237 200.700596 
C 150.223883 201.539242 151.36149 202.010454 152.547514 202.010454 
z
" clip-path="url(#p4fabd8c395)" style="fill: #879dba; stroke: #879dba"/>
    <path d="M 122.40544 230.179441 
C 123.591464 230.179441 124.729071 229.708228 125.567717 228.869582 
C 126.406363 228.030937 126.877576 226.893329 126.877576 225.707305 
C 126.877576 224.52128 126.406363 223.383673 125.567717 222.545027 
C 124.729071 221.706381 123.591464 221.235169 122.40544 221.235169 
C 121.219415 221.235169 120.081808 221.706381 119.243162 222.545027 
C 118.404516 223.383673 117.933304 224.52128 117.933304 225.707305 
C 117.933304 226.893329 118.404516 228.030937 119.243162 228.869582 
C 120.081808 229.708228 121.219415 230.179441 122.40544 230.179441 
z
" clip-path="url(#p4fabd8c395)" style="fill: #879dba; stroke: #879dba"/>
    <path d="M 96.335484 262.168662 
C 97.521508 262.168662 98.659115 261.69745 99.497761 260.858804 
C 100.336407 260.020158 100.80762 258.88255 100.80762 257.696526 
C 100.80762 256.510502 100.336407 255.372894 99.497761 254.534248 
C 98.659115 253.695603 97.521508 253.22439 96.335484 253.22439 
C 95.149459 253.22439 94.011852 253.695603 93.173206 254.534248 
C 92.33456 255.372894 91.863348 256.510502 91.863348 257.696526 
C 91.863348 258.88255 92.33456 260.020158 93.173206 260.858804 
C 94.011852 261.69745 95.149459 262.168662 96.335484 262.168662 
z
" clip-path="url(#p4fabd8c395)" style="fill: #879dba; stroke: #879dba"/>
    <path d="M 74.925375 297.432371 
C 76.111399 297.432371 77.249007 296.961158 78.087653 296.122512 
C 78.926298 295.283866 79.397511 294.146259 79.397511 292.960235 
C 79.397511 291.77421 78.926298 290.636603 78.087653 289.797957 
C 77.249007 288.959311 76.111399 288.488099 74.925375 288.488099 
C 73.739351 288.488099 72.601743 288.959311 71.763097 289.797957 
C 70.924451 290.636603 70.453239 291.77421 70.453239 292.960235 
C 70.453239 294.146259 70.924451 295.283866 71.763097 296.122512 
C 72.601743 296.961158 73.739351 297.432371 74.925375 297.432371 
z
" clip-path="url(#p4fabd8c395)" style="fill: #879dba; stroke: #879dba"/>
    <path d="M 58.468978 335.256896 
C 59.655002 335.256896 60.792609 334.785684 61.631255 333.947038 
C 62.469901 333.108392 62.941113 331.970785 62.941113 330.78476 
C 62.941113 329.598736 62.469901 328.461128 61.631255 327.622483 
C 60.792609 326.783837 59.655002 326.312624 58.468978 326.312624 
C 57.282953 326.312624 56.145346 326.783837 55.3067 327.622483 
C 54.468054 328.461128 53.996842 329.598736 53.996842 330.78476 
C 53.996842 331.970785 54.468054 333.108392 55.3067 333.947038 
C 56.145346 334.785684 57.282953 335.256896 58.468978 335.256896 
z
" clip-path="url(#p4fabd8c395)" style="fill: #879dba; stroke: #879dba"/>
    <path d="M 47.344117 374.970549 
C 48.530141 374.970549 49.667749 374.499336 50.506395 373.660691 
C 51.345041 372.822045 51.816253 371.684437 51.816253 370.498413 
C 51.816253 369.312389 51.345041 368.174781 50.506395 367.336135 
C 49.667749 366.497489 48.530141 366.026277 47.344117 366.026277 
C 46.158093 366.026277 45.020485 366.497489 44.181839 367.336135 
C 43.343194 368.174781 42.871981 369.312389 42.871981 370.498413 
C 42.871981 371.684437 43.343194 372.822045 44.181839 373.660691 
C 45.020485 374.499336 46.158093 374.970549 47.344117 374.970549 
z
" clip-path="url(#p4fabd8c395)" style="fill: #879dba; stroke: #879dba"/>
    <path d="M 41.718716 415.847064 
C 42.90474 415.847064 44.042348 415.375852 44.880994 414.537206 
C 45.719639 413.69856 46.190852 412.560953 46.190852 411.374929 
C 46.190852 410.188904 45.719639 409.051297 44.880994 408.212651 
C 44.042348 407.374005 42.90474 406.902793 41.718716 406.902793 
C 40.532692 406.902793 39.395084 407.374005 38.556438 408.212651 
C 37.717792 409.051297 37.24658 410.188904 37.24658 411.374929 
C 37.24658 412.560953 37.717792 413.69856 38.556438 414.537206 
C 39.395084 415.375852 40.532692 415.847064 41.718716 415.847064 
z
" clip-path="url(#p4fabd8c395)" style="fill: #879dba; stroke: #879dba"/>
    <path d="M 41.718716 457.097207 
C 42.90474 457.097207 44.042348 456.625995 44.880994 455.787349 
C 45.719639 454.948703 46.190852 453.811096 46.190852 452.625071 
C 46.190852 451.439047 45.719639 450.30144 44.880994 449.462794 
C 44.042348 448.624148 42.90474 448.152936 41.718716 448.152936 
C 40.532692 448.152936 39.395084 448.624148 38.556438 449.462794 
C 37.717792 450.30144 37.24658 451.439047 37.24658 452.625071 
C 37.24658 453.811096 37.717792 454.948703 38.556438 455.787349 
C 39.395084 456.625995 40.532692 457.097207 41.718716 457.097207 
z
" clip-path="url(#p4fabd8c395)" style="fill: #879dba; stroke: #879dba"/>
    <path d="M 47.344117 497.969525 
C 48.530141 497.969525 49.667749 497.498312 50.506395 496.659667 
C 51.345041 495.821021 51.816253 494.683413 51.816253 493.497389 
C 51.816253 492.311365 51.345041 491.173757 50.506395 490.335111 
C 49.667749 489.496465 48.530141 489.025253 47.344117 489.025253 
C 46.158093 489.025253 45.020485 489.496465 44.181839 490.335111 
C 43.343194 491.173757 42.871981 492.311365 42.871981 493.497389 
C 42.871981 494.683413 43.343194 495.821021 44.181839 496.659667 
C 45.020485 497.498312 46.158093 497.969525 47.344117 497.969525 
z
" clip-path="url(#p4fabd8c395)" style="fill: #879dba; stroke: #879dba"/>
    <path d="M 58.468978 537.691574 
C 59.655002 537.691574 60.792609 537.220361 61.631255 536.381716 
C 62.469901 535.54307 62.941113 534.405462 62.941113 533.219438 
C 62.941113 532.033414 62.469901 530.895806 61.631255 530.05716 
C 60.792609 529.218514 59.655002 528.747302 58.468978 528.747302 
C 57.282953 528.747302 56.145346 529.218514 55.3067 530.05716 
C 54.468054 530.895806 53.996842 532.033414 53.996842 533.219438 
C 53.996842 534.405462 54.468054 535.54307 55.3067 536.381716 
C 56.145346 537.220361 57.282953 537.691574 58.468978 537.691574 
z
" clip-path="url(#p4fabd8c395)" style="fill: #879dba; stroke: #879dba"/>
    <path d="M 74.925375 575.532892 
C 76.111399 575.532892 77.249007 575.061679 78.087653 574.223033 
C 78.926298 573.384387 79.397511 572.24678 79.397511 571.060756 
C 79.397511 569.874731 78.926298 568.737124 78.087653 567.898478 
C 77.249007 567.059832 76.111399 566.58862 74.925375 566.58862 
C 73.739351 566.58862 72.601743 567.059832 71.763097 567.898478 
C 70.924451 568.737124 70.453239 569.874731 70.453239 571.060756 
C 70.453239 572.24678 70.924451 573.384387 71.763097 574.223033 
C 72.601743 575.061679 73.739351 575.532892 74.925375 575.532892 
z
" clip-path="url(#p4fabd8c395)" style="fill: #879dba; stroke: #879dba"/>
    <path d="M 96.335484 610.779808 
C 97.521508 610.779808 98.659115 610.308595 99.497761 609.46995 
C 100.336407 608.631304 100.80762 607.493696 100.80762 606.307672 
C 100.80762 605.121648 100.336407 603.98404 99.497761 603.145394 
C 98.659115 602.306748 97.521508 601.835536 96.335484 601.835536 
C 95.149459 601.835536 94.011852 602.306748 93.173206 603.145394 
C 92.33456 603.98404 91.863348 605.121648 91.863348 606.307672 
C 91.863348 607.493696 92.33456 608.631304 93.173206 609.46995 
C 94.011852 610.308595 95.149459 610.779808 96.335484 610.779808 
z
" clip-path="url(#p4fabd8c395)" style="fill: #879dba; stroke: #879dba"/>
    <path d="M 122.40544 642.781623 
C 123.591464 642.781623 124.729071 642.310411 125.567717 641.471765 
C 126.406363 640.633119 126.877576 639.495512 126.877576 638.309488 
C 126.877576 637.123463 126.406363 635.985856 125.567717 635.14721 
C 124.729071 634.308564 123.591464 633.837352 122.40544 633.837352 
C 121.219415 633.837352 120.081808 634.308564 119.243162 635.14721 
C 118.404516 635.985856 117.933304 637.123463 117.933304 638.309488 
C 117.933304 639.495512 118.404516 640.633119 119.243162 641.471765 
C 120.081808 642.310411 121.219415 642.781623 122.40544 642.781623 
z
" clip-path="url(#p4fabd8c395)" style="fill: #879dba; stroke: #879dba"/>
    <path d="M 152.547514 670.938016 
C 153.733539 670.938016 154.871146 670.466803 155.709792 669.628157 
C 156.548438 668.789511 157.01965 667.651904 157.01965 666.46588 
C 157.01965 665.279855 156.548438 664.142248 155.709792 663.303602 
C 154.871146 662.464956 153.733539 661.993744 152.547514 661.993744 
C 151.36149 661.993744 150.223883 662.464956 149.385237 663.303602 
C 148.546591 664.142248 148.075378 665.279855 148.075378 666.46588 
C 148.075378 667.651904 148.546591 668.789511 149.385237 669.628157 
C 150.223883 670.466803 151.36149 670.938016 152.547514 670.938016 
z
" clip-path="url(#p4fabd8c395)" style="fill: #879dba; stroke: #879dba"/>
    <path d="M 186.257941 694.728425 
C 187.443965 694.728425 188.581572 694.257212 189.420218 693.418566 
C 190.258864 692.579921 190.730077 691.442313 190.730077 690.256289 
C 190.730077 689.070264 190.258864 687.932657 189.420218 687.094011 
C 188.581572 686.255365 187.443965 685.784153 186.257941 685.784153 
C 185.071916 685.784153 183.934309 686.255365 183.095663 687.094011 
C 182.257017 687.932657 181.785805 689.070264 181.785805 690.256289 
C 181.785805 691.442313 182.257017 692.579921 183.095663 693.418566 
C 183.934309 694.257212 185.071916 694.728425 186.257941 694.728425 
z
" clip-path="url(#p4fabd8c395)" style="fill: #879dba; stroke: #879dba"/>
    <path d="M 222.865029 713.707856 
C 224.051053 713.707856 225.18866 713.236644 226.027306 712.397998 
C 226.865952 711.559352 227.337164 710.421745 227.337164 709.23572 
C 227.337164 708.049696 226.865952 706.912089 226.027306 706.073443 
C 225.18866 705.234797 224.051053 704.763585 222.865029 704.763585 
C 221.679004 704.763585 220.541397 705.234797 219.702751 706.073443 
C 218.864105 706.912089 218.392893 708.049696 218.392893 709.23572 
C 218.392893 710.421745 218.864105 711.559352 219.702751 712.397998 
C 220.541397 713.236644 221.679004 713.707856 222.865029 713.707856 
z
" clip-path="url(#p4fabd8c395)" style="fill: #879dba; stroke: #879dba"/>
    <path d="M 261.739069 727.523674 
C 262.925094 727.523674 264.062701 727.052461 264.901347 726.213815 
C 265.739993 725.37517 266.211205 724.237562 266.211205 723.051538 
C 266.211205 721.865513 265.739993 720.727906 264.901347 719.88926 
C 264.062701 719.050614 262.925094 718.579402 261.739069 718.579402 
C 260.553045 718.579402 259.415437 719.050614 258.576792 719.88926 
C 257.738146 720.727906 257.266933 721.865513 257.266933 723.051538 
C 257.266933 724.237562 257.738146 725.37517 258.576792 726.213815 
C 259.415437 727.052461 260.553045 727.523674 261.739069 727.523674 
z
" clip-path="url(#p4fabd8c395)" style="fill: #879dba; stroke: #879dba"/>
    <path d="M 302.124412 735.915597 
C 303.310436 735.915597 304.448043 735.444384 305.286689 734.605738 
C 306.125335 733.767093 306.596548 732.629485 306.596548 731.443461 
C 306.596548 730.257436 306.125335 729.119829 305.286689 728.281183 
C 304.448043 727.442537 303.310436 726.971325 302.124412 726.971325 
C 300.938387 726.971325 299.80078 727.442537 298.962134 728.281183 
C 298.123488 729.119829 297.652276 730.257436 297.652276 731.443461 
C 297.652276 732.629485 298.123488 733.767093 298.962134 734.605738 
C 299.80078 735.444384 300.938387 735.915597 302.124412 735.915597 
z
" clip-path="url(#p4fabd8c395)" style="fill: #879dba; stroke: #879dba"/>
    <path d="M 343.307386 738.732495 
C 344.49341 738.732495 345.631017 738.261283 346.469663 737.422637 
C 347.308309 736.583991 347.779522 735.446384 347.779522 734.260359 
C 347.779522 733.074335 347.308309 731.936728 346.469663 731.098082 
C 345.631017 730.259436 344.49341 729.788223 343.307386 729.788223 
C 342.121361 729.788223 340.983754 730.259436 340.145108 731.098082 
C 339.306462 731.936728 338.83525 733.074335 338.83525 734.260359 
C 338.83525 735.446384 339.306462 736.583991 340.145108 737.422637 
C 340.983754 738.261283 342.121361 738.732495 343.307386 738.732495 
z
" clip-path="url(#p4fabd8c395)" style="fill: #879dba; stroke: #879dba"/>
    <path d="M 384.448379 735.915597 
C 385.634403 735.915597 386.772011 735.444384 387.610657 734.605738 
C 388.449303 733.767093 388.920515 732.629485 388.920515 731.443461 
C 388.920515 730.257436 388.449303 729.119829 387.610657 728.281183 
C 386.772011 727.442537 385.634403 726.971325 384.448379 726.971325 
C 383.262355 726.971325 382.124747 727.442537 381.286101 728.281183 
C 380.447456 729.119829 379.976243 730.257436 379.976243 731.443461 
C 379.976243 732.629485 380.447456 733.767093 381.286101 734.605738 
C 382.124747 735.444384 383.262355 735.915597 384.448379 735.915597 
z
" clip-path="url(#p4fabd8c395)" style="fill: #879dba; stroke: #879dba"/>
    <path d="M 424.833721 727.523674 
C 426.019746 727.523674 427.157353 727.052461 427.995999 726.213815 
C 428.834645 725.37517 429.305857 724.237562 429.305857 723.051538 
C 429.305857 721.865513 428.834645 720.727906 427.995999 719.88926 
C 427.157353 719.050614 426.019746 718.579402 424.833721 718.579402 
C 423.647697 718.579402 422.51009 719.050614 421.671444 719.88926 
C 420.832798 720.727906 420.361586 721.865513 420.361586 723.051538 
C 420.361586 724.237562 420.832798 725.37517 421.671444 726.213815 
C 422.51009 727.052461 423.647697 727.523674 424.833721 727.523674 
z
" clip-path="url(#p4fabd8c395)" style="fill: #879dba; stroke: #879dba"/>
    <path d="M 463.707762 713.707856 
C 464.893786 713.707856 466.031394 713.236644 466.87004 712.397998 
C 467.708686 711.559352 468.179898 710.421745 468.179898 709.23572 
C 468.179898 708.049696 467.708686 706.912089 466.87004 706.073443 
C 466.031394 705.234797 464.893786 704.763585 463.707762 704.763585 
C 462.521738 704.763585 461.38413 705.234797 460.545484 706.073443 
C 459.706839 706.912089 459.235626 708.049696 459.235626 709.23572 
C 459.235626 710.421745 459.706839 711.559352 460.545484 712.397998 
C 461.38413 713.236644 462.521738 713.707856 463.707762 713.707856 
z
" clip-path="url(#p4fabd8c395)" style="fill: #879dba; stroke: #879dba"/>
    <path d="M 500.356831 694.728425 
C 501.542855 694.728425 502.680463 694.257212 503.519108 693.418566 
C 504.357754 692.579921 504.828967 691.442313 504.828967 690.256289 
C 504.828967 689.070264 504.357754 687.932657 503.519108 687.094011 
C 502.680463 686.255365 501.542855 685.784153 500.356831 685.784153 
C 499.170806 685.784153 498.033199 686.255365 497.194553 687.094011 
C 496.355907 687.932657 495.884695 689.070264 495.884695 690.256289 
C 495.884695 691.442313 496.355907 692.579921 497.194553 693.418566 
C 498.033199 694.257212 499.170806 694.728425 500.356831 694.728425 
z
" clip-path="url(#p4fabd8c395)" style="fill: #879dba; stroke: #879dba"/>
    <path d="M 534.025276 670.938016 
C 535.211301 670.938016 536.348908 670.466803 537.187554 669.628157 
C 538.0262 668.789511 538.497412 667.651904 538.497412 666.46588 
C 538.497412 665.279855 538.0262 664.142248 537.187554 663.303602 
C 536.348908 662.464956 535.211301 661.993744 534.025276 661.993744 
C 532.839252 661.993744 531.701644 662.464956 530.862999 663.303602 
C 530.024353 664.142248 529.55314 665.279855 529.55314 666.46588 
C 529.55314 667.651904 530.024353 668.789511 530.862999 669.628157 
C 531.701644 670.466803 532.839252 670.938016 534.025276 670.938016 
z
" clip-path="url(#p4fabd8c395)" style="fill: #879dba; stroke: #879dba"/>
    <path d="M 564.209332 642.781623 
C 565.395356 642.781623 566.532963 642.310411 567.371609 641.471765 
C 568.210255 640.633119 568.681468 639.495512 568.681468 638.309488 
C 568.681468 637.123463 568.210255 635.985856 567.371609 635.14721 
C 566.532963 634.308564 565.395356 633.837352 564.209332 633.837352 
C 563.023307 633.837352 561.8857 634.308564 561.047054 635.14721 
C 560.208408 635.985856 559.737196 637.123463 559.737196 638.309488 
C 559.737196 639.495512 560.208408 640.633119 561.047054 641.471765 
C 561.8857 642.310411 563.023307 642.781623 564.209332 642.781623 
z
" clip-path="url(#p4fabd8c395)" style="fill: #879dba; stroke: #879dba"/>
    <path d="M 590.237307 610.779808 
C 591.423331 610.779808 592.560939 610.308595 593.399585 609.46995 
C 594.238231 608.631304 594.709443 607.493696 594.709443 606.307672 
C 594.709443 605.121648 594.238231 603.98404 593.399585 603.145394 
C 592.560939 602.306748 591.423331 601.835536 590.237307 601.835536 
C 589.051283 601.835536 587.913675 602.306748 587.075029 603.145394 
C 586.236384 603.98404 585.765171 605.121648 585.765171 606.307672 
C 585.765171 607.493696 586.236384 608.631304 587.075029 609.46995 
C 587.913675 610.308595 589.051283 610.779808 590.237307 610.779808 
z
" clip-path="url(#p4fabd8c395)" style="fill: #879dba; stroke: #879dba"/>
    <path d="M 611.647416 575.532892 
C 612.83344 575.532892 613.971048 575.061679 614.809693 574.223033 
C 615.648339 573.384387 616.119552 572.24678 616.119552 571.060756 
C 616.119552 569.874731 615.648339 568.737124 614.809693 567.898478 
C 613.971048 567.059832 612.83344 566.58862 611.647416 566.58862 
C 610.461392 566.58862 609.323784 567.059832 608.485138 567.898478 
C 607.646492 568.737124 607.17528 569.874731 607.17528 571.060756 
C 607.17528 572.24678 607.646492 573.384387 608.485138 574.223033 
C 609.323784 575.061679 610.461392 575.532892 611.647416 575.532892 
z
" clip-path="url(#p4fabd8c395)" style="fill: #879dba; stroke: #879dba"/>
    <path d="M 628.103813 537.691574 
C 629.289837 537.691574 630.427445 537.220361 631.266091 536.381716 
C 632.104737 535.54307 632.575949 534.405462 632.575949 533.219438 
C 632.575949 532.033414 632.104737 530.895806 631.266091 530.05716 
C 630.427445 529.218514 629.289837 528.747302 628.103813 528.747302 
C 626.917789 528.747302 625.780181 529.218514 624.941536 530.05716 
C 624.10289 530.895806 623.631677 532.033414 623.631677 533.219438 
C 623.631677 534.405462 624.10289 535.54307 624.941536 536.381716 
C 625.780181 537.220361 626.917789 537.691574 628.103813 537.691574 
z
" clip-path="url(#p4fabd8c395)" style="fill: #879dba; stroke: #879dba"/>
    <path d="M 639.228674 497.969525 
C 640.414698 497.969525 641.552305 497.498312 642.390951 496.659667 
C 643.229597 495.821021 643.70081 494.683413 643.70081 493.497389 
C 643.70081 492.311365 643.229597 491.173757 642.390951 490.335111 
C 641.552305 489.496465 640.414698 489.025253 639.228674 489.025253 
C 638.042649 489.025253 636.905042 489.496465 636.066396 490.335111 
C 635.22775 491.173757 634.756538 492.311365 634.756538 493.497389 
C 634.756538 494.683413 635.22775 495.821021 636.066396 496.659667 
C 636.905042 497.498312 638.042649 497.969525 639.228674 497.969525 
z
" clip-path="url(#p4fabd8c395)" style="fill: #879dba; stroke: #879dba"/>
   </g>
   <g id="patch_3">
    <path d="M 10.8 764.486395 
L 10.8 99.513605 
" style="fill: none; stroke: #000000; stroke-width: 0.8; stroke-linejoin: miter; stroke-linecap: square"/>
   </g>
   <g id="patch_4">
    <path d="M 675.772791 764.486395 
L 675.772791 99.513605 
" style="fill: none; stroke: #000000; stroke-width: 0.8; stroke-linejoin: miter; stroke-linecap: square"/>
   </g>
   <g id="patch_5">
    <path d="M 10.8 764.486395 
L 675.772791 764.486395 
" style="fill: none; stroke: #000000; stroke-width: 0.8; stroke-linejoin: miter; stroke-linecap: square"/>
   </g>
   <g id="patch_6">
    <path d="M 10.8 99.513605 
L 675.772791 99.513605 
" style="fill: none; stroke: #000000; stroke-width: 0.8; stroke-linejoin: miter; stroke-linecap: square"/>
   </g>
   <g id="text_1">
    <!-- Year: 1806 -->
    <g transform="translate(17.449728 126.918828) scale(0.3 -0.3)">
     <defs>
      <path id="CMR17-59" d="M 3706 3766 
C 3955 4160 4301 4160 4416 4160 
L 4416 4332 
C 4269 4319 4102 4319 3942 4319 
C 3782 4319 3526 4319 3373 4332 
L 3373 4160 
C 3533 4160 3616 4077 3616 3957 
C 3616 3881 3584 3830 3533 3747 
L 2381 1912 
L 1120 3912 
C 1075 3988 1069 3994 1069 4039 
C 1069 4160 1293 4160 1382 4160 
L 1382 4319 
C 1178 4319 864 4319 653 4319 
C 486 4319 166 4319 13 4332 
L 13 4160 
C 378 4160 480 4141 595 3958 
L 2010 1728 
L 2010 445 
C 2010 160 1939 160 1498 160 
L 1498 0 
C 1683 0 2016 0 2214 0 
C 2413 0 2752 0 2938 0 
L 2938 160 
C 2477 160 2419 160 2419 471 
L 2419 1728 
L 3706 3766 
z
" transform="scale(0.015625)"/>
      <path id="CMR17-65" d="M 2438 1472 
C 2464 1498 2464 1511 2464 1576 
C 2464 2238 2118 2816 1389 2816 
C 710 2816 173 2169 173 1383 
C 173 551 781 -64 1459 -64 
C 2176 -64 2458 607 2458 740 
C 2458 784 2419 784 2406 784 
C 2362 784 2355 771 2330 696 
C 2189 265 1837 51 1504 51 
C 1229 51 954 203 781 480 
C 582 803 582 1176 582 1472 
L 2438 1472 
z
M 589 1568 
C 634 2505 1126 2714 1382 2714 
C 1818 2714 2112 2297 2118 1568 
L 589 1568 
z
" transform="scale(0.015625)"/>
      <path id="CMR17-61" d="M 2304 1653 
C 2304 2072 2304 2294 2035 2543 
C 1798 2752 1523 2816 1306 2816 
C 800 2816 435 2407 435 1971 
C 435 1728 627 1728 666 1728 
C 749 1728 896 1778 896 1954 
C 896 2112 774 2181 666 2181 
C 640 2181 608 2174 589 2168 
C 723 2592 1069 2714 1293 2714 
C 1613 2714 1965 2429 1965 1885 
L 1965 1600 
C 1587 1600 1133 1549 774 1357 
C 371 1133 256 813 256 570 
C 256 77 832 -64 1171 -64 
C 1523 -64 1850 139 1990 511 
C 2003 233 2182 -18 2464 -18 
C 2598 -18 2938 70 2938 567 
L 2938 920 
L 2822 920 
L 2822 562 
C 2822 178 2650 128 2566 128 
C 2304 128 2304 458 2304 738 
L 2304 1653 
z
M 1965 870 
C 1965 317 1568 38 1216 38 
C 896 38 646 275 646 570 
C 646 761 730 1100 1101 1305 
C 1408 1478 1760 1504 1965 1504 
L 1965 870 
z
" transform="scale(0.015625)"/>
      <path id="CMR17-72" d="M 960 1497 
C 960 2112 1222 2688 1702 2688 
C 1747 2688 1792 2682 1837 2662 
C 1837 2662 1696 2617 1696 2452 
C 1696 2298 1818 2234 1914 2234 
C 1990 2234 2131 2279 2131 2458 
C 2131 2663 1926 2790 1709 2790 
C 1222 2790 1011 2317 947 2093 
L 941 2093 
L 941 2790 
L 198 2720 
L 198 2554 
C 576 2554 634 2515 634 2208 
L 634 428 
C 634 184 608 153 198 153 
L 198 -13 
C 352 0 646 0 813 0 
C 998 0 1325 0 1498 -13 
L 1498 153 
C 1037 153 960 153 960 440 
L 960 1497 
z
" transform="scale(0.015625)"/>
      <path id="CMR17-3a" d="M 1062 2491 
C 1062 2650 934 2752 800 2752 
C 672 2752 538 2650 538 2491 
C 538 2332 666 2230 800 2230 
C 928 2230 1062 2332 1062 2491 
z
M 1062 261 
C 1062 420 934 522 800 522 
C 672 522 538 420 538 261 
C 538 102 666 0 800 0 
C 928 0 1062 102 1062 261 
z
" transform="scale(0.015625)"/>
      <path id="CMR17-31" d="M 1702 4058 
C 1702 4192 1696 4192 1606 4192 
C 1357 3916 979 3827 621 3827 
C 602 3827 570 3827 563 3808 
C 557 3795 557 3782 557 3648 
C 755 3648 1088 3686 1344 3839 
L 1344 461 
C 1344 236 1331 160 781 160 
L 589 160 
L 589 0 
C 896 0 1216 0 1523 0 
C 1830 0 2150 0 2458 0 
L 2458 160 
L 2266 160 
C 1715 160 1702 230 1702 458 
L 1702 4058 
z
" transform="scale(0.015625)"/>
      <path id="CMR17-38" d="M 1741 2264 
C 2144 2467 2554 2773 2554 3263 
C 2554 3841 1990 4179 1472 4179 
C 890 4179 378 3759 378 3180 
C 378 3021 416 2747 666 2505 
C 730 2442 998 2251 1171 2130 
C 883 1983 211 1634 211 934 
C 211 279 838 -128 1459 -128 
C 2144 -128 2720 362 2720 1010 
C 2720 1590 2330 1857 2074 2029 
L 1741 2264 
z
M 902 2822 
C 851 2854 595 3051 595 3351 
C 595 3739 998 4032 1459 4032 
C 1965 4032 2336 3676 2336 3262 
C 2336 2669 1670 2331 1638 2331 
C 1632 2331 1626 2331 1574 2370 
L 902 2822 
z
M 2080 1519 
C 2176 1449 2483 1240 2483 851 
C 2483 381 2010 25 1472 25 
C 890 25 448 438 448 940 
C 448 1443 838 1862 1280 2060 
L 2080 1519 
z
" transform="scale(0.015625)"/>
      <path id="CMR17-30" d="M 2688 2025 
C 2688 2416 2682 3080 2413 3591 
C 2176 4039 1798 4198 1466 4198 
C 1158 4198 768 4058 525 3597 
C 269 3118 243 2524 243 2025 
C 243 1661 250 1106 448 619 
C 723 -39 1216 -128 1466 -128 
C 1760 -128 2208 -7 2470 600 
C 2662 1042 2688 1559 2688 2025 
z
M 1466 -26 
C 1056 -26 813 325 723 812 
C 653 1188 653 1738 653 2096 
C 653 2588 653 2997 736 3387 
C 858 3929 1216 4096 1466 4096 
C 1728 4096 2067 3923 2189 3400 
C 2272 3036 2278 2607 2278 2096 
C 2278 1680 2278 1169 2202 792 
C 2067 95 1690 -26 1466 -26 
z
" transform="scale(0.015625)"/>
      <path id="CMR17-36" d="M 678 2176 
C 678 3690 1395 4032 1811 4032 
C 1946 4032 2272 4009 2400 3776 
C 2298 3776 2106 3776 2106 3553 
C 2106 3381 2246 3323 2336 3323 
C 2394 3323 2566 3348 2566 3560 
C 2566 3954 2246 4179 1805 4179 
C 1043 4179 243 3390 243 1984 
C 243 253 966 -128 1478 -128 
C 2099 -128 2688 427 2688 1283 
C 2688 2081 2170 2662 1517 2662 
C 1126 2662 838 2407 678 1960 
L 678 2176 
z
M 1478 25 
C 691 25 691 1200 691 1436 
C 691 1896 909 2560 1504 2560 
C 1613 2560 1926 2560 2138 2120 
C 2253 1870 2253 1609 2253 1289 
C 2253 944 2253 690 2118 434 
C 1978 171 1773 25 1478 25 
z
" transform="scale(0.015625)"/>
     </defs>
     <use xlink:href="#CMR17-59" transform="scale(0.996264)"/>
     <use xlink:href="#CMR17-65" transform="translate(61.265174 0) scale(0.996264)"/>
     <use xlink:href="#CMR17-61" transform="translate(101.750835 0) scale(0.996264)"/>
     <use xlink:href="#CMR17-72" transform="translate(147.441312 0) scale(0.996264)"/>
     <use xlink:href="#CMR17-3a" transform="translate(182.72208 0) scale(0.996264)"/>
     <use xlink:href="#CMR17-31" transform="translate(248.078799 0) scale(0.996264)"/>
     <use xlink:href="#CMR17-38" transform="translate(293.769276 0) scale(0.996264)"/>
     <use xlink:href="#CMR17-30" transform="translate(339.459753 0) scale(0.996264)"/>
     <use xlink:href="#CMR17-36" transform="translate(385.15023 0) scale(0.996264)"/>
    </g>
   </g>
  </g>
  <g id="axes_2">
   <g id="patch_7">
    <path d="M 717.33359 853.2 
L 759.45359 853.2 
L 759.45359 10.8 
L 717.33359 10.8 
z
" style="fill: #ffffff"/>
   </g>
   <g id="QuadMesh_1">
    <path d="M 717.33359 853.2 
L 759.45359 853.2 
L 759.45359 747.9 
L 717.33359 747.9 
L 717.33359 853.2 
" clip-path="url(#p7f5dff4b3d)" style="fill: #ad35ca"/>
    <path d="M 717.33359 747.9 
L 759.45359 747.9 
L 759.45359 642.6 
L 717.33359 642.6 
L 717.33359 747.9 
" clip-path="url(#p7f5dff4b3d)" style="fill: #8f81b5"/>
    <path d="M 717.33359 642.6 
L 759.45359 642.6 
L 759.45359 537.3 
L 717.33359 537.3 
L 717.33359 642.6 
" clip-path="url(#p7f5dff4b3d)" style="fill: #879dba"/>
    <path d="M 717.33359 537.3 
L 759.45359 537.3 
L 759.45359 432 
L 717.33359 432 
L 717.33359 537.3 
" clip-path="url(#p7f5dff4b3d)" style="fill: #7bb4be"/>
    <path d="M 717.33359 432 
L 759.45359 432 
L 759.45359 326.7 
L 717.33359 326.7 
L 717.33359 432 
" clip-path="url(#p7f5dff4b3d)" style="fill: #79c6b7"/>
    <path d="M 717.33359 326.7 
L 759.45359 326.7 
L 759.45359 221.4 
L 717.33359 221.4 
L 717.33359 326.7 
" clip-path="url(#p7f5dff4b3d)" style="fill: #a1ccad"/>
    <path d="M 717.33359 221.4 
L 759.45359 221.4 
L 759.45359 116.1 
L 717.33359 116.1 
L 717.33359 221.4 
" clip-path="url(#p7f5dff4b3d)" style="fill: #c1d59b"/>
    <path d="M 717.33359 116.1 
L 759.45359 116.1 
L 759.45359 10.8 
L 717.33359 10.8 
L 717.33359 116.1 
" clip-path="url(#p7f5dff4b3d)" style="fill: #e4dc96"/>
   </g>
   <g id="matplotlib.axis_3"/>
   <g id="matplotlib.axis_4">
    <g id="ytick_9">
     <g id="line2d_1">
      <defs>
       <path id="me9d36d2346" d="M 0 0 
L 3.5 0 
" style="stroke: #000000; stroke-width: 0.8"/>
      </defs>
      <g>
       <use xlink:href="#me9d36d2346" x="759.45359" y="800.55" style="stroke: #000000; stroke-width: 0.8"/>
      </g>
     </g>
     <g id="text_2">
      <!-- 0 -->
      <g transform="translate(766.45359 811.619603) scale(0.32 -0.32)">
       <use xlink:href="#CMR17-30" transform="scale(0.996264)"/>
      </g>
     </g>
    </g>
    <g id="ytick_10">
     <g id="line2d_2">
      <g>
       <use xlink:href="#me9d36d2346" x="759.45359" y="695.25" style="stroke: #000000; stroke-width: 0.8"/>
      </g>
     </g>
     <g id="text_3">
      <!-- 1 -->
      <g transform="translate(766.45359 706.319603) scale(0.32 -0.32)">
       <use xlink:href="#CMR17-31" transform="scale(0.996264)"/>
      </g>
     </g>
    </g>
    <g id="ytick_11">
     <g id="line2d_3">
      <g>
       <use xlink:href="#me9d36d2346" x="759.45359" y="589.95" style="stroke: #000000; stroke-width: 0.8"/>
      </g>
     </g>
     <g id="text_4">
      <!-- 2 -->
      <g transform="translate(766.45359 601.019603) scale(0.32 -0.32)">
       <defs>
        <path id="CMR17-32" d="M 2669 989 
L 2554 989 
C 2490 536 2438 459 2413 420 
C 2381 369 1920 369 1830 369 
L 602 369 
C 832 619 1280 1072 1824 1597 
C 2214 1967 2669 2402 2669 3035 
C 2669 3790 2067 4224 1395 4224 
C 691 4224 262 3604 262 3030 
C 262 2780 448 2748 525 2748 
C 589 2748 781 2787 781 3010 
C 781 3207 614 3264 525 3264 
C 486 3264 448 3258 422 3245 
C 544 3790 915 4058 1306 4058 
C 1862 4058 2227 3617 2227 3035 
C 2227 2479 1901 2000 1536 1584 
L 262 146 
L 262 0 
L 2515 0 
L 2669 989 
z
" transform="scale(0.015625)"/>
       </defs>
       <use xlink:href="#CMR17-32" transform="scale(0.996264)"/>
      </g>
     </g>
    </g>
    <g id="ytick_12">
     <g id="line2d_4">
      <g>
       <use xlink:href="#me9d36d2346" x="759.45359" y="484.65" style="stroke: #000000; stroke-width: 0.8"/>
      </g>
     </g>
     <g id="text_5">
      <!-- 3 -->
      <g transform="translate(766.45359 495.719603) scale(0.32 -0.32)">
       <defs>
        <path id="CMR17-33" d="M 1414 2157 
C 1984 2157 2234 1662 2234 1090 
C 2234 320 1824 25 1453 25 
C 1114 25 563 194 390 693 
C 422 680 454 680 486 680 
C 640 680 755 782 755 948 
C 755 1133 614 1216 486 1216 
C 378 1216 211 1165 211 926 
C 211 335 787 -128 1466 -128 
C 2176 -128 2720 430 2720 1085 
C 2720 1707 2208 2157 1600 2227 
C 2086 2328 2554 2756 2554 3329 
C 2554 3820 2048 4179 1472 4179 
C 890 4179 378 3829 378 3329 
C 378 3110 544 3072 627 3072 
C 762 3072 877 3155 877 3321 
C 877 3486 762 3569 627 3569 
C 602 3569 570 3569 544 3557 
C 730 3959 1235 4032 1459 4032 
C 1683 4032 2106 3925 2106 3320 
C 2106 3143 2080 2828 1862 2550 
C 1670 2304 1453 2304 1242 2284 
C 1210 2284 1062 2269 1037 2269 
C 992 2263 966 2257 966 2208 
C 966 2163 973 2157 1101 2157 
L 1414 2157 
z
" transform="scale(0.015625)"/>
       </defs>
       <use xlink:href="#CMR17-33" transform="scale(0.996264)"/>
      </g>
     </g>
    </g>
    <g id="ytick_13">
     <g id="line2d_5">
      <g>
       <use xlink:href="#me9d36d2346" x="759.45359" y="379.35" style="stroke: #000000; stroke-width: 0.8"/>
      </g>
     </g>
     <g id="text_6">
      <!-- 4 -->
      <g transform="translate(766.45359 390.419603) scale(0.32 -0.32)">
       <defs>
        <path id="CMR17-34" d="M 2150 4122 
C 2150 4256 2144 4256 2029 4256 
L 128 1254 
L 128 1088 
L 1779 1088 
L 1779 457 
C 1779 224 1766 160 1318 160 
L 1197 160 
L 1197 0 
C 1402 0 1747 0 1965 0 
C 2182 0 2528 0 2733 0 
L 2733 160 
L 2611 160 
C 2163 160 2150 224 2150 457 
L 2150 1088 
L 2803 1088 
L 2803 1254 
L 2150 1254 
L 2150 4122 
z
M 1798 3703 
L 1798 1254 
L 256 1254 
L 1798 3703 
z
" transform="scale(0.015625)"/>
       </defs>
       <use xlink:href="#CMR17-34" transform="scale(0.996264)"/>
      </g>
     </g>
    </g>
    <g id="ytick_14">
     <g id="line2d_6">
      <g>
       <use xlink:href="#me9d36d2346" x="759.45359" y="274.05" style="stroke: #000000; stroke-width: 0.8"/>
      </g>
     </g>
     <g id="text_7">
      <!-- 5 -->
      <g transform="translate(766.45359 285.119603) scale(0.32 -0.32)">
       <defs>
        <path id="CMR17-35" d="M 730 3692 
C 794 3666 1056 3584 1325 3584 
C 1920 3584 2246 3911 2432 4100 
C 2432 4157 2432 4192 2394 4192 
C 2387 4192 2374 4192 2323 4163 
C 2099 4058 1837 3973 1517 3973 
C 1325 3973 1037 3999 723 4139 
C 653 4171 640 4171 634 4171 
C 602 4171 595 4164 595 4037 
L 595 2203 
C 595 2089 595 2057 659 2057 
C 691 2057 704 2070 736 2114 
C 941 2401 1222 2522 1542 2522 
C 1766 2522 2246 2382 2246 1289 
C 2246 1085 2246 715 2054 421 
C 1894 159 1645 25 1370 25 
C 947 25 518 320 403 814 
C 429 807 480 795 506 795 
C 589 795 749 840 749 1038 
C 749 1210 627 1280 506 1280 
C 358 1280 262 1190 262 1011 
C 262 454 704 -128 1382 -128 
C 2042 -128 2669 440 2669 1264 
C 2669 2030 2170 2624 1549 2624 
C 1222 2624 947 2503 730 2274 
L 730 3692 
z
" transform="scale(0.015625)"/>
       </defs>
       <use xlink:href="#CMR17-35" transform="scale(0.996264)"/>
      </g>
     </g>
    </g>
    <g id="ytick_15">
     <g id="line2d_7">
      <g>
       <use xlink:href="#me9d36d2346" x="759.45359" y="168.75" style="stroke: #000000; stroke-width: 0.8"/>
      </g>
     </g>
     <g id="text_8">
      <!-- 6 -->
      <g transform="translate(766.45359 179.819603) scale(0.32 -0.32)">
       <use xlink:href="#CMR17-36" transform="scale(0.996264)"/>
      </g>
     </g>
    </g>
    <g id="ytick_16">
     <g id="line2d_8">
      <g>
       <use xlink:href="#me9d36d2346" x="759.45359" y="63.45" style="stroke: #000000; stroke-width: 0.8"/>
      </g>
     </g>
     <g id="text_9">
      <!-- 7 -->
      <g transform="translate(766.45359 74.519603) scale(0.32 -0.32)">
       <defs>
        <path id="CMR17-37" d="M 2886 3941 
L 2886 4081 
L 1382 4081 
C 634 4081 621 4165 595 4288 
L 480 4288 
L 294 3094 
L 410 3094 
C 429 3215 474 3540 550 3661 
C 589 3712 1062 3712 1171 3712 
L 2579 3712 
L 1869 2661 
C 1395 1954 1069 999 1069 165 
C 1069 89 1069 -128 1299 -128 
C 1530 -128 1530 89 1530 171 
L 1530 465 
C 1530 1508 1709 2196 2003 2636 
L 2886 3941 
z
" transform="scale(0.015625)"/>
       </defs>
       <use xlink:href="#CMR17-37" transform="scale(0.996264)"/>
      </g>
     </g>
    </g>
    <g id="ytick_17">
     <g id="line2d_9">
      <defs>
       <path id="m22565b829e" d="M 0 0 
L 2 0 
" style="stroke: #000000; stroke-width: 0.6"/>
      </defs>
      <g>
       <use xlink:href="#m22565b829e" x="759.45359" y="853.2" style="stroke: #000000; stroke-width: 0.6"/>
      </g>
     </g>
    </g>
    <g id="ytick_18">
     <g id="line2d_10">
      <g>
       <use xlink:href="#m22565b829e" x="759.45359" y="747.9" style="stroke: #000000; stroke-width: 0.6"/>
      </g>
     </g>
    </g>
    <g id="ytick_19">
     <g id="line2d_11">
      <g>
       <use xlink:href="#m22565b829e" x="759.45359" y="642.6" style="stroke: #000000; stroke-width: 0.6"/>
      </g>
     </g>
    </g>
    <g id="ytick_20">
     <g id="line2d_12">
      <g>
       <use xlink:href="#m22565b829e" x="759.45359" y="537.3" style="stroke: #000000; stroke-width: 0.6"/>
      </g>
     </g>
    </g>
    <g id="ytick_21">
     <g id="line2d_13">
      <g>
       <use xlink:href="#m22565b829e" x="759.45359" y="432" style="stroke: #000000; stroke-width: 0.6"/>
      </g>
     </g>
    </g>
    <g id="ytick_22">
     <g id="line2d_14">
      <g>
       <use xlink:href="#m22565b829e" x="759.45359" y="326.7" style="stroke: #000000; stroke-width: 0.6"/>
      </g>
     </g>
    </g>
    <g id="ytick_23">
     <g id="line2d_15">
      <g>
       <use xlink:href="#m22565b829e" x="759.45359" y="221.4" style="stroke: #000000; stroke-width: 0.6"/>
      </g>
     </g>
    </g>
    <g id="ytick_24">
     <g id="line2d_16">
      <g>
       <use xlink:href="#m22565b829e" x="759.45359" y="116.1" style="stroke: #000000; stroke-width: 0.6"/>
      </g>
     </g>
    </g>
    <g id="ytick_25">
     <g id="line2d_17">
      <g>
       <use xlink:href="#m22565b829e" x="759.45359" y="10.8" style="stroke: #000000; stroke-width: 0.6"/>
      </g>
     </g>
    </g>
    <g id="text_10">
     <!-- Node Depth -->
     <g transform="translate(828.899641 543.95779) rotate(-90) scale(0.46 -0.46)">
      <defs>
       <path id="CMR17-4e" d="M 1312 4250 
C 1267 4320 1261 4320 1139 4320 
L 326 4320 
L 326 4160 
L 448 4160 
C 704 4160 819 4129 838 4122 
L 838 610 
C 838 451 838 153 326 153 
L 326 -13 
C 474 0 742 0 902 0 
C 1062 0 1331 0 1478 -13 
L 1478 153 
C 966 153 966 451 966 610 
L 966 4033 
C 1011 3995 1011 3982 1056 3919 
L 3430 76 
C 3475 0 3494 0 3526 0 
C 3590 0 3590 19 3590 139 
L 3590 3705 
C 3590 3863 3590 4160 4102 4160 
L 4102 4326 
C 3955 4320 3686 4320 3526 4320 
C 3366 4320 3098 4320 2950 4326 
L 2950 4160 
C 3462 4160 3462 3862 3462 3703 
L 3462 763 
L 1312 4250 
z
" transform="scale(0.015625)"/>
       <path id="CMR17-6f" d="M 2758 1356 
C 2758 2176 2163 2816 1466 2816 
C 768 2816 173 2176 173 1356 
C 173 551 768 -64 1466 -64 
C 2163 -64 2758 551 2758 1356 
z
M 1466 51 
C 1165 51 909 230 762 480 
C 602 767 582 1126 582 1408 
C 582 1677 595 2010 762 2298 
C 890 2509 1139 2714 1466 2714 
C 1754 2714 1997 2554 2150 2330 
C 2349 2029 2349 1607 2349 1408 
C 2349 1158 2336 775 2163 467 
C 1984 173 1709 51 1466 51 
z
" transform="scale(0.015625)"/>
       <path id="CMR17-64" d="M 1869 4326 
L 1869 4160 
C 2246 4160 2304 4122 2304 3820 
L 2304 2345 
C 2278 2377 2016 2790 1498 2790 
C 845 2790 211 2208 211 1364 
C 211 525 806 -64 1434 -64 
C 1978 -64 2259 337 2291 380 
L 2291 -63 
L 3066 -63 
L 3066 128 
C 2688 128 2630 166 2630 473 
L 2630 4396 
L 1869 4326 
z
M 2291 755 
C 2291 563 2176 390 2029 262 
C 1811 70 1594 38 1472 38 
C 1286 38 621 134 621 1356 
C 621 2612 1363 2688 1530 2688 
C 1824 2688 2061 2522 2208 2291 
C 2291 2157 2291 2138 2291 2023 
L 2291 755 
z
" transform="scale(0.015625)"/>
       <path id="CMR17-44" d="M 333 4352 
L 333 4186 
C 774 4186 845 4186 845 3900 
L 845 452 
C 845 166 774 166 333 166 
L 333 0 
L 2368 0 
C 3398 0 4224 943 4224 2141 
C 4224 3346 3411 4352 2368 4352 
L 333 4352 
z
M 1523 166 
C 1267 166 1254 197 1254 414 
L 1254 3938 
C 1254 4155 1267 4186 1523 4186 
L 2240 4186 
C 2771 4186 3750 3874 3750 2141 
C 3750 1242 3488 879 3366 707 
C 3213 510 2848 166 2240 166 
L 1523 166 
z
" transform="scale(0.015625)"/>
       <path id="CMR17-70" d="M 1408 -1063 
C 998 -1063 973 -1037 973 -789 
L 973 402 
C 1158 134 1427 -38 1766 -38 
C 2406 -38 3053 523 3053 1388 
C 3053 2191 2496 2802 1837 2802 
C 1453 2802 1139 2592 960 2338 
L 960 2802 
L 198 2732 
L 198 2567 
C 576 2567 634 2528 634 2223 
L 634 -789 
C 634 -1031 608 -1063 198 -1063 
L 198 -1228 
C 352 -1216 634 -1216 800 -1216 
C 966 -1216 1254 -1216 1408 -1228 
L 1408 -1063 
z
M 973 2012 
C 973 2102 973 2235 1222 2471 
C 1254 2497 1472 2688 1792 2688 
C 2259 2688 2643 2108 2643 1382 
C 2643 656 2234 64 1728 64 
C 1498 64 1248 172 1056 472 
C 973 612 973 650 973 752 
L 973 2012 
z
" transform="scale(0.015625)"/>
       <path id="CMR17-74" d="M 966 2560 
L 1862 2560 
L 1862 2725 
L 966 2725 
L 966 3904 
L 851 3904 
C 838 3245 614 2668 70 2668 
L 70 2560 
L 627 2560 
L 627 771 
C 627 650 627 -64 1370 -64 
C 1747 -64 1965 306 1965 777 
L 1965 1140 
L 1850 1140 
L 1850 783 
C 1850 344 1677 51 1408 51 
C 1222 51 966 178 966 758 
L 966 2560 
z
" transform="scale(0.015625)"/>
       <path id="CMR17-68" d="M 2656 1933 
C 2656 2259 2592 2790 1837 2790 
C 1312 2790 1056 2368 979 2157 
L 973 2157 
L 973 4396 
L 211 4326 
L 211 4160 
C 589 4160 646 4122 646 3817 
L 646 426 
C 646 184 621 153 211 153 
L 211 -13 
C 365 0 646 0 813 0 
C 979 0 1267 0 1421 -13 
L 1421 153 
C 1011 153 986 178 986 428 
L 986 1658 
C 986 2247 1344 2688 1792 2688 
C 2266 2688 2317 2266 2317 1958 
L 2317 428 
C 2317 184 2291 153 1882 153 
L 1882 -13 
C 2035 0 2317 0 2483 0 
C 2650 0 2938 0 3091 -13 
L 3091 153 
C 2682 153 2656 178 2656 428 
L 2656 1933 
z
" transform="scale(0.015625)"/>
      </defs>
      <use xlink:href="#CMR17-4e" transform="scale(0.996264)"/>
      <use xlink:href="#CMR17-6f" transform="translate(69.07243 0) scale(0.996264)"/>
      <use xlink:href="#CMR17-64" transform="translate(117.365346 0) scale(0.996264)"/>
      <use xlink:href="#CMR17-65" transform="translate(168.260715 0) scale(0.996264)"/>
      <use xlink:href="#CMR17-44" transform="translate(238.822342 0) scale(0.996264)"/>
      <use xlink:href="#CMR17-65" transform="translate(309.215898 0) scale(0.996264)"/>
      <use xlink:href="#CMR17-70" transform="translate(349.701559 0) scale(0.996264)"/>
      <use xlink:href="#CMR17-74" transform="translate(400.596928 0) scale(0.996264)"/>
      <use xlink:href="#CMR17-68" transform="translate(435.877696 0) scale(0.996264)"/>
     </g>
    </g>
   </g>
   <g id="LineCollection_2"/>
   <g id="patch_8">
    <path d="M 717.33359 853.2 
L 738.39359 853.2 
L 759.45359 853.2 
L 759.45359 10.8 
L 738.39359 10.8 
L 717.33359 10.8 
L 717.33359 853.2 
z
" style="fill: none; stroke: #000000; stroke-width: 0.8; stroke-linejoin: miter; stroke-linecap: square"/>
   </g>
  </g>
 </g>
 <defs>
  <clipPath id="p4fabd8c395">
   <rect x="10.8" y="99.513605" width="664.972791" height="664.972791"/>
  </clipPath>
  <clipPath id="p7f5dff4b3d">
   <rect x="717.33359" y="10.8" width="42.12" height="842.4"/>
  </clipPath>
 </defs>
</svg>
