<?xml version="1.0" encoding="utf-8" standalone="no"?>
<!DOCTYPE svg PUBLIC "-//W3C//DTD SVG 1.1//EN"
  "http://www.w3.org/Graphics/SVG/1.1/DTD/svg11.dtd">
<svg xmlns:xlink="http://www.w3.org/1999/xlink" width="864pt" height="864pt" viewBox="0 0 864 864" xmlns="http://www.w3.org/2000/svg" version="1.1">
 <metadata>
  <rdf:RDF xmlns:dc="http://purl.org/dc/elements/1.1/" xmlns:cc="http://creativecommons.org/ns#" xmlns:rdf="http://www.w3.org/1999/02/22-rdf-syntax-ns#">
   <cc:Work>
    <dc:type rdf:resource="http://purl.org/dc/dcmitype/StillImage"/>
    <dc:date>2026-06-09T22:33:01.032941</dc:date>
    <dc:format>image/svg+xml</dc:format>
    <dc:creator>
     <cc:Agent>
      <dc:title>Matplotlib v3.9.2, https://matplotlib.org/</dc:title>
     </cc:Agent>
    </dc:creator>
   </cc:Work>
  </rdf:RDF>
 </metadata>
 <defs>
  <style type="text/css">*{stroke-linejoin: round; stroke-linecap: butt}</style>
 </defs>
 <g id="figure_1">
  <g id="patch_1">
   <path d="M 0 864 
L 864 864 
L 864 0 
L 0 0 
z
" style="fill: #ffffff"/>
  </g>
  <g id="axes_1">
   <g id="patch_2">
    <path d="M 10.8 764.486395 
L 675.772791 764.486395 
L 675.772791 99.513605 
L 10.8 99.513605 
z
" style="fill: #ffffff"/>
   </g>
   <g id="LineCollection_1">
    <path d="M 343.275884 432.010512 
L 230.423607 331.141431 
" clip-path="url(#pc41789fb65)" style="fill: none; stroke: #808080; stroke-opacity: 0.3"/>
    <path d="M 343.275884 432.010512 
L 437.64881 550.349831 
" clip-path="url(#pc41789fb65)" style="fill: none; stroke: #808080; stroke-opacity: 0.3"/>
    <path d="M 343.275884 432.010512 
L 492.519236 457.364432 
" clip-path="url(#pc41789fb65)" style="fill: none; stroke: #808080; stroke-opacity: 0.3"/>
    <path d="M 230.423607 331.141431 
L 645.546755 415.023805 
" clip-path="url(#pc41789fb65)" style="fill: none; stroke: #808080; stroke-opacity: 0.3"/>
    <path d="M 230.423607 331.141431 
L 641.741564 381.30267 
" clip-path="url(#pc41789fb65)" style="fill: none; stroke: #808080; stroke-opacity: 0.3"/>
    <path d="M 230.423607 331.141431 
L 634.194253 348.191207 
" clip-path="url(#pc41789fb65)" style="fill: none; stroke: #808080; stroke-opacity: 0.3"/>
    <path d="M 230.423607 331.141431 
L 622.96789 316.151924 
" clip-path="url(#pc41789fb65)" style="fill: none; stroke: #808080; stroke-opacity: 0.3"/>
    <path d="M 230.423607 331.141431 
L 608.251684 285.563239 
" clip-path="url(#pc41789fb65)" style="fill: none; stroke: #808080; stroke-opacity: 0.3"/>
    <path d="M 230.423607 331.141431 
L 590.171774 256.824591 
" clip-path="url(#pc41789fb65)" style="fill: none; stroke: #808080; stroke-opacity: 0.3"/>
    <path d="M 230.423607 331.141431 
L 569.022484 230.272351 
" clip-path="url(#pc41789fb65)" style="fill: none; stroke: #808080; stroke-opacity: 0.3"/>
    <path d="M 230.423607 331.141431 
L 545.014045 206.263912 
" clip-path="url(#pc41789fb65)" style="fill: none; stroke: #808080; stroke-opacity: 0.3"/>
    <path d="M 230.423607 331.141431 
L 518.461804 185.114621 
" clip-path="url(#pc41789fb65)" style="fill: none; stroke: #808080; stroke-opacity: 0.3"/>
    <path d="M 230.423607 331.141431 
L 489.723156 167.034711 
" clip-path="url(#pc41789fb65)" style="fill: none; stroke: #808080; stroke-opacity: 0.3"/>
    <path d="M 230.423607 331.141431 
L 459.134471 152.318505 
" clip-path="url(#pc41789fb65)" style="fill: none; stroke: #808080; stroke-opacity: 0.3"/>
    <path d="M 230.423607 331.141431 
L 427.095188 141.092142 
" clip-path="url(#pc41789fb65)" style="fill: none; stroke: #808080; stroke-opacity: 0.3"/>
    <path d="M 230.423607 331.141431 
L 393.983725 133.544831 
" clip-path="url(#pc41789fb65)" style="fill: none; stroke: #808080; stroke-opacity: 0.3"/>
    <path d="M 230.423607 331.141431 
L 360.26259 129.739641 
" clip-path="url(#pc41789fb65)" style="fill: none; stroke: #808080; stroke-opacity: 0.3"/>
    <path d="M 230.423607 331.141431 
L 326.310201 129.739641 
" clip-path="url(#pc41789fb65)" style="fill: none; stroke: #808080; stroke-opacity: 0.3"/>
    <path d="M 230.423607 331.141431 
L 292.568043 133.544831 
" clip-path="url(#pc41789fb65)" style="fill: none; stroke: #808080; stroke-opacity: 0.3"/>
    <path d="M 230.423607 331.141431 
L 259.477602 141.092142 
" clip-path="url(#pc41789fb65)" style="fill: none; stroke: #808080; stroke-opacity: 0.3"/>
    <path d="M 230.423607 331.141431 
L 227.438319 152.318505 
" clip-path="url(#pc41789fb65)" style="fill: none; stroke: #808080; stroke-opacity: 0.3"/>
    <path d="M 230.423607 331.141431 
L 196.849634 167.034711 
" clip-path="url(#pc41789fb65)" style="fill: none; stroke: #808080; stroke-opacity: 0.3"/>
    <path d="M 230.423607 331.141431 
L 168.089963 185.114621 
" clip-path="url(#pc41789fb65)" style="fill: none; stroke: #808080; stroke-opacity: 0.3"/>
    <path d="M 230.423607 331.141431 
L 141.558746 206.263912 
" clip-path="url(#pc41789fb65)" style="fill: none; stroke: #808080; stroke-opacity: 0.3"/>
    <path d="M 230.423607 331.141431 
L 117.550307 230.272351 
" clip-path="url(#pc41789fb65)" style="fill: none; stroke: #808080; stroke-opacity: 0.3"/>
    <path d="M 230.423607 331.141431 
L 96.379994 256.824591 
" clip-path="url(#pc41789fb65)" style="fill: none; stroke: #808080; stroke-opacity: 0.3"/>
    <path d="M 230.423607 331.141431 
L 78.321107 285.563239 
" clip-path="url(#pc41789fb65)" style="fill: none; stroke: #808080; stroke-opacity: 0.3"/>
    <path d="M 230.423607 331.141431 
L 63.583877 316.151924 
" clip-path="url(#pc41789fb65)" style="fill: none; stroke: #808080; stroke-opacity: 0.3"/>
    <path d="M 230.423607 331.141431 
L 52.378538 348.191207 
" clip-path="url(#pc41789fb65)" style="fill: none; stroke: #808080; stroke-opacity: 0.3"/>
    <path d="M 230.423607 331.141431 
L 44.831226 381.30267 
" clip-path="url(#pc41789fb65)" style="fill: none; stroke: #808080; stroke-opacity: 0.3"/>
    <path d="M 230.423607 331.141431 
L 41.026036 415.023805 
" clip-path="url(#pc41789fb65)" style="fill: none; stroke: #808080; stroke-opacity: 0.3"/>
    <path d="M 230.423607 331.141431 
L 41.026036 448.976195 
" clip-path="url(#pc41789fb65)" style="fill: none; stroke: #808080; stroke-opacity: 0.3"/>
    <path d="M 230.423607 331.141431 
L 44.831226 482.718353 
" clip-path="url(#pc41789fb65)" style="fill: none; stroke: #808080; stroke-opacity: 0.3"/>
    <path d="M 230.423607 331.141431 
L 52.378538 515.808793 
" clip-path="url(#pc41789fb65)" style="fill: none; stroke: #808080; stroke-opacity: 0.3"/>
    <path d="M 230.423607 331.141431 
L 63.583877 547.848076 
" clip-path="url(#pc41789fb65)" style="fill: none; stroke: #808080; stroke-opacity: 0.3"/>
    <path d="M 230.423607 331.141431 
L 78.321107 578.440966 
" clip-path="url(#pc41789fb65)" style="fill: none; stroke: #808080; stroke-opacity: 0.3"/>
    <path d="M 230.423607 331.141431 
L 96.379994 607.185921 
" clip-path="url(#pc41789fb65)" style="fill: none; stroke: #808080; stroke-opacity: 0.3"/>
    <path d="M 230.423607 331.141431 
L 117.550307 633.727649 
" clip-path="url(#pc41789fb65)" style="fill: none; stroke: #808080; stroke-opacity: 0.3"/>
    <path d="M 230.423607 331.141431 
L 141.558746 657.733986 
" clip-path="url(#pc41789fb65)" style="fill: none; stroke: #808080; stroke-opacity: 0.3"/>
    <path d="M 230.423607 331.141431 
L 168.089963 678.900095 
" clip-path="url(#pc41789fb65)" style="fill: none; stroke: #808080; stroke-opacity: 0.3"/>
    <path d="M 230.423607 331.141431 
L 196.849634 696.963186 
" clip-path="url(#pc41789fb65)" style="fill: none; stroke: #808080; stroke-opacity: 0.3"/>
    <path d="M 230.423607 331.141431 
L 227.438319 711.692006 
" clip-path="url(#pc41789fb65)" style="fill: none; stroke: #808080; stroke-opacity: 0.3"/>
    <path d="M 230.423607 331.141431 
L 259.477602 722.905755 
" clip-path="url(#pc41789fb65)" style="fill: none; stroke: #808080; stroke-opacity: 0.3"/>
    <path d="M 230.423607 331.141431 
L 292.568043 730.459374 
" clip-path="url(#pc41789fb65)" style="fill: none; stroke: #808080; stroke-opacity: 0.3"/>
    <path d="M 230.423607 331.141431 
L 326.310201 734.260359 
" clip-path="url(#pc41789fb65)" style="fill: none; stroke: #808080; stroke-opacity: 0.3"/>
    <path d="M 230.423607 331.141431 
L 360.26259 734.260359 
" clip-path="url(#pc41789fb65)" style="fill: none; stroke: #808080; stroke-opacity: 0.3"/>
    <path d="M 437.64881 550.349831 
L 393.983725 730.459374 
" clip-path="url(#pc41789fb65)" style="fill: none; stroke: #808080; stroke-opacity: 0.3"/>
    <path d="M 437.64881 550.349831 
L 427.095188 722.905755 
" clip-path="url(#pc41789fb65)" style="fill: none; stroke: #808080; stroke-opacity: 0.3"/>
    <path d="M 437.64881 550.349831 
L 459.134471 711.692006 
" clip-path="url(#pc41789fb65)" style="fill: none; stroke: #808080; stroke-opacity: 0.3"/>
    <path d="M 437.64881 550.349831 
L 489.723156 696.963186 
" clip-path="url(#pc41789fb65)" style="fill: none; stroke: #808080; stroke-opacity: 0.3"/>
    <path d="M 437.64881 550.349831 
L 518.461804 678.900095 
" clip-path="url(#pc41789fb65)" style="fill: none; stroke: #808080; stroke-opacity: 0.3"/>
    <path d="M 437.64881 550.349831 
L 545.014045 657.733986 
" clip-path="url(#pc41789fb65)" style="fill: none; stroke: #808080; stroke-opacity: 0.3"/>
    <path d="M 437.64881 550.349831 
L 569.022484 633.727649 
" clip-path="url(#pc41789fb65)" style="fill: none; stroke: #808080; stroke-opacity: 0.3"/>
    <path d="M 437.64881 550.349831 
L 590.171774 607.185921 
" clip-path="url(#pc41789fb65)" style="fill: none; stroke: #808080; stroke-opacity: 0.3"/>
    <path d="M 437.64881 550.349831 
L 608.251684 578.440966 
" clip-path="url(#pc41789fb65)" style="fill: none; stroke: #808080; stroke-opacity: 0.3"/>
    <path d="M 437.64881 550.349831 
L 622.96789 547.848076 
" clip-path="url(#pc41789fb65)" style="fill: none; stroke: #808080; stroke-opacity: 0.3"/>
    <path d="M 492.519236 457.364432 
L 634.194253 515.808793 
" clip-path="url(#pc41789fb65)" style="fill: none; stroke: #808080; stroke-opacity: 0.3"/>
    <path d="M 492.519236 457.364432 
L 641.741564 482.718353 
" clip-path="url(#pc41789fb65)" style="fill: none; stroke: #808080; stroke-opacity: 0.3"/>
    <path d="M 492.519236 457.364432 
L 645.546755 448.976195 
" clip-path="url(#pc41789fb65)" style="fill: none; stroke: #808080; stroke-opacity: 0.3"/>
   </g>
   <g id="matplotlib.axis_1">
    <g id="xtick_1"/>
    <g id="xtick_2"/>
    <g id="xtick_3"/>
    <g id="xtick_4"/>
    <g id="xtick_5"/>
    <g id="xtick_6"/>
   </g>
   <g id="matplotlib.axis_2">
    <g id="ytick_1"/>
    <g id="ytick_2"/>
    <g id="ytick_3"/>
    <g id="ytick_4"/>
    <g id="ytick_5"/>
    <g id="ytick_6"/>
   </g>
   <g id="PathCollection_1">
    <path d="M 343.275884 443.190851 
C 346.240945 443.190851 349.084963 442.01282 351.181578 439.916206 
C 353.278193 437.819591 354.456224 434.975572 354.456224 432.010512 
C 354.456224 429.045451 353.278193 426.201432 351.181578 424.104817 
C 349.084963 422.008203 346.240945 420.830172 343.275884 420.830172 
C 340.310823 420.830172 337.466804 422.008203 335.37019 424.104817 
C 333.273575 426.201432 332.095544 429.045451 332.095544 432.010512 
C 332.095544 434.975572 333.273575 437.819591 335.37019 439.916206 
C 337.466804 442.01282 340.310823 443.190851 343.275884 443.190851 
z
" clip-path="url(#pc41789fb65)" style="fill: #ad35ca; stroke: #ad35ca"/>
    <path d="M 230.423607 338.212499 
C 232.298876 338.212499 234.097591 337.467447 235.423607 336.141431 
C 236.749622 334.815416 237.494675 333.0167 237.494675 331.141431 
C 237.494675 329.266162 236.749622 327.467447 235.423607 326.141431 
C 234.097591 324.815416 232.298876 324.070363 230.423607 324.070363 
C 228.548338 324.070363 226.749622 324.815416 225.423607 326.141431 
C 224.097591 327.467447 223.352539 329.266162 223.352539 331.141431 
C 223.352539 333.0167 224.097591 334.815416 225.423607 336.141431 
C 226.749622 337.467447 228.548338 338.212499 230.423607 338.212499 
z
" clip-path="url(#pc41789fb65)" style="fill: #8f81b5; stroke: #8f81b5"/>
    <path d="M 645.546755 419.495941 
C 646.732779 419.495941 647.870387 419.024729 648.709032 418.186083 
C 649.547678 417.347437 650.018891 416.20983 650.018891 415.023805 
C 650.018891 413.837781 649.547678 412.700173 648.709032 411.861528 
C 647.870387 411.022882 646.732779 410.551669 645.546755 410.551669 
C 644.36073 410.551669 643.223123 411.022882 642.384477 411.861528 
C 641.545831 412.700173 641.074619 413.837781 641.074619 415.023805 
C 641.074619 416.20983 641.545831 417.347437 642.384477 418.186083 
C 643.223123 419.024729 644.36073 419.495941 645.546755 419.495941 
z
" clip-path="url(#pc41789fb65)" style="fill: #879dba; stroke: #879dba"/>
    <path d="M 641.741564 385.774806 
C 642.927589 385.774806 644.065196 385.303594 644.903842 384.464948 
C 645.742488 383.626302 646.2137 382.488695 646.2137 381.30267 
C 646.2137 380.116646 645.742488 378.979039 644.903842 378.140393 
C 644.065196 377.301747 642.927589 376.830534 641.741564 376.830534 
C 640.55554 376.830534 639.417933 377.301747 638.579287 378.140393 
C 637.740641 378.979039 637.269428 380.116646 637.269428 381.30267 
C 637.269428 382.488695 637.740641 383.626302 638.579287 384.464948 
C 639.417933 385.303594 640.55554 385.774806 641.741564 385.774806 
z
" clip-path="url(#pc41789fb65)" style="fill: #879dba; stroke: #879dba"/>
    <path d="M 634.194253 352.663343 
C 635.380277 352.663343 636.517885 352.19213 637.356531 351.353485 
C 638.195176 350.514839 638.666389 349.377231 638.666389 348.191207 
C 638.666389 347.005183 638.195176 345.867575 637.356531 345.028929 
C 636.517885 344.190283 635.380277 343.719071 634.194253 343.719071 
C 633.008229 343.719071 631.870621 344.190283 631.031975 345.028929 
C 630.193329 345.867575 629.722117 347.005183 629.722117 348.191207 
C 629.722117 349.377231 630.193329 350.514839 631.031975 351.353485 
C 631.870621 352.19213 633.008229 352.663343 634.194253 352.663343 
z
" clip-path="url(#pc41789fb65)" style="fill: #879dba; stroke: #879dba"/>
    <path d="M 622.96789 320.62406 
C 624.153914 320.62406 625.291522 320.152848 626.130168 319.314202 
C 626.968814 318.475556 627.440026 317.337948 627.440026 316.151924 
C 627.440026 314.9659 626.968814 313.828292 626.130168 312.989646 
C 625.291522 312.151001 624.153914 311.679788 622.96789 311.679788 
C 621.781866 311.679788 620.644258 312.151001 619.805612 312.989646 
C 618.966967 313.828292 618.495754 314.9659 618.495754 316.151924 
C 618.495754 317.337948 618.966967 318.475556 619.805612 319.314202 
C 620.644258 320.152848 621.781866 320.62406 622.96789 320.62406 
z
" clip-path="url(#pc41789fb65)" style="fill: #879dba; stroke: #879dba"/>
    <path d="M 608.251684 290.035375 
C 609.437708 290.035375 610.575316 289.564162 611.413962 288.725517 
C 612.252608 287.886871 612.72382 286.749263 612.72382 285.563239 
C 612.72382 284.377215 612.252608 283.239607 611.413962 282.400961 
C 610.575316 281.562315 609.437708 281.091103 608.251684 281.091103 
C 607.06566 281.091103 605.928052 281.562315 605.089406 282.400961 
C 604.250761 283.239607 603.779548 284.377215 603.779548 285.563239 
C 603.779548 286.749263 604.250761 287.886871 605.089406 288.725517 
C 605.928052 289.564162 607.06566 290.035375 608.251684 290.035375 
z
" clip-path="url(#pc41789fb65)" style="fill: #879dba; stroke: #879dba"/>
    <path d="M 590.171774 261.296727 
C 591.357798 261.296727 592.495406 260.825514 593.334052 259.986869 
C 594.172697 259.148223 594.64391 258.010615 594.64391 256.824591 
C 594.64391 255.638567 594.172697 254.500959 593.334052 253.662313 
C 592.495406 252.823667 591.357798 252.352455 590.171774 252.352455 
C 588.98575 252.352455 587.848142 252.823667 587.009496 253.662313 
C 586.17085 254.500959 585.699638 255.638567 585.699638 256.824591 
C 585.699638 258.010615 586.17085 259.148223 587.009496 259.986869 
C 587.848142 260.825514 588.98575 261.296727 590.171774 261.296727 
z
" clip-path="url(#pc41789fb65)" style="fill: #879dba; stroke: #879dba"/>
    <path d="M 569.022484 234.744487 
C 570.208508 234.744487 571.346115 234.273274 572.184761 233.434628 
C 573.023407 232.595982 573.49462 231.458375 573.49462 230.272351 
C 573.49462 229.086326 573.023407 227.948719 572.184761 227.110073 
C 571.346115 226.271427 570.208508 225.800215 569.022484 225.800215 
C 567.836459 225.800215 566.698852 226.271427 565.860206 227.110073 
C 565.02156 227.948719 564.550348 229.086326 564.550348 230.272351 
C 564.550348 231.458375 565.02156 232.595982 565.860206 233.434628 
C 566.698852 234.273274 567.836459 234.744487 569.022484 234.744487 
z
" clip-path="url(#pc41789fb65)" style="fill: #879dba; stroke: #879dba"/>
    <path d="M 545.014045 210.736048 
C 546.200069 210.736048 547.337677 210.264835 548.176322 209.426189 
C 549.014968 208.587544 549.486181 207.449936 549.486181 206.263912 
C 549.486181 205.077887 549.014968 203.94028 548.176322 203.101634 
C 547.337677 202.262988 546.200069 201.791776 545.014045 201.791776 
C 543.82802 201.791776 542.690413 202.262988 541.851767 203.101634 
C 541.013121 203.94028 540.541909 205.077887 540.541909 206.263912 
C 540.541909 207.449936 541.013121 208.587544 541.851767 209.426189 
C 542.690413 210.264835 543.82802 210.736048 545.014045 210.736048 
z
" clip-path="url(#pc41789fb65)" style="fill: #879dba; stroke: #879dba"/>
    <path d="M 518.461804 189.586757 
C 519.647829 189.586757 520.785436 189.115545 521.624082 188.276899 
C 522.462728 187.438253 522.93394 186.300646 522.93394 185.114621 
C 522.93394 183.928597 522.462728 182.79099 521.624082 181.952344 
C 520.785436 181.113698 519.647829 180.642485 518.461804 180.642485 
C 517.27578 180.642485 516.138173 181.113698 515.299527 181.952344 
C 514.460881 182.79099 513.989669 183.928597 513.989669 185.114621 
C 513.989669 186.300646 514.460881 187.438253 515.299527 188.276899 
C 516.138173 189.115545 517.27578 189.586757 518.461804 189.586757 
z
" clip-path="url(#pc41789fb65)" style="fill: #879dba; stroke: #879dba"/>
    <path d="M 489.723156 171.506847 
C 490.909181 171.506847 492.046788 171.035635 492.885434 170.196989 
C 493.72408 169.358343 494.195292 168.220736 494.195292 167.034711 
C 494.195292 165.848687 493.72408 164.711079 492.885434 163.872434 
C 492.046788 163.033788 490.909181 162.562575 489.723156 162.562575 
C 488.537132 162.562575 487.399525 163.033788 486.560879 163.872434 
C 485.722233 164.711079 485.251021 165.848687 485.251021 167.034711 
C 485.251021 168.220736 485.722233 169.358343 486.560879 170.196989 
C 487.399525 171.035635 488.537132 171.506847 489.723156 171.506847 
z
" clip-path="url(#pc41789fb65)" style="fill: #879dba; stroke: #879dba"/>
    <path d="M 459.134471 156.790641 
C 460.320496 156.790641 461.458103 156.319429 462.296749 155.480783 
C 463.135395 154.642137 463.606607 153.50453 463.606607 152.318505 
C 463.606607 151.132481 463.135395 149.994873 462.296749 149.156228 
C 461.458103 148.317582 460.320496 147.846369 459.134471 147.846369 
C 457.948447 147.846369 456.810839 148.317582 455.972194 149.156228 
C 455.133548 149.994873 454.662335 151.132481 454.662335 152.318505 
C 454.662335 153.50453 455.133548 154.642137 455.972194 155.480783 
C 456.810839 156.319429 457.948447 156.790641 459.134471 156.790641 
z
" clip-path="url(#pc41789fb65)" style="fill: #879dba; stroke: #879dba"/>
    <path d="M 427.095188 145.564278 
C 428.281213 145.564278 429.41882 145.093066 430.257466 144.25442 
C 431.096112 143.415774 431.567324 142.278167 431.567324 141.092142 
C 431.567324 139.906118 431.096112 138.768511 430.257466 137.929865 
C 429.41882 137.091219 428.281213 136.620006 427.095188 136.620006 
C 425.909164 136.620006 424.771557 137.091219 423.932911 137.929865 
C 423.094265 138.768511 422.623052 139.906118 422.623052 141.092142 
C 422.623052 142.278167 423.094265 143.415774 423.932911 144.25442 
C 424.771557 145.093066 425.909164 145.564278 427.095188 145.564278 
z
" clip-path="url(#pc41789fb65)" style="fill: #879dba; stroke: #879dba"/>
    <path d="M 393.983725 138.016967 
C 395.169749 138.016967 396.307357 137.545755 397.146003 136.707109 
C 397.984648 135.868463 398.455861 134.730855 398.455861 133.544831 
C 398.455861 132.358807 397.984648 131.221199 397.146003 130.382553 
C 396.307357 129.543908 395.169749 129.072695 393.983725 129.072695 
C 392.797701 129.072695 391.660093 129.543908 390.821447 130.382553 
C 389.982801 131.221199 389.511589 132.358807 389.511589 133.544831 
C 389.511589 134.730855 389.982801 135.868463 390.821447 136.707109 
C 391.660093 137.545755 392.797701 138.016967 393.983725 138.016967 
z
" clip-path="url(#pc41789fb65)" style="fill: #879dba; stroke: #879dba"/>
    <path d="M 360.26259 134.211777 
C 361.448614 134.211777 362.586222 133.740564 363.424868 132.901918 
C 364.263514 132.063272 364.734726 130.925665 364.734726 129.739641 
C 364.734726 128.553616 364.263514 127.416009 363.424868 126.577363 
C 362.586222 125.738717 361.448614 125.267505 360.26259 125.267505 
C 359.076566 125.267505 357.938958 125.738717 357.100312 126.577363 
C 356.261667 127.416009 355.790454 128.553616 355.790454 129.739641 
C 355.790454 130.925665 356.261667 132.063272 357.100312 132.901918 
C 357.938958 133.740564 359.076566 134.211777 360.26259 134.211777 
z
" clip-path="url(#pc41789fb65)" style="fill: #879dba; stroke: #879dba"/>
    <path d="M 326.310201 134.211777 
C 327.496225 134.211777 328.633832 133.740564 329.472478 132.901918 
C 330.311124 132.063272 330.782337 130.925665 330.782337 129.739641 
C 330.782337 128.553616 330.311124 127.416009 329.472478 126.577363 
C 328.633832 125.738717 327.496225 125.267505 326.310201 125.267505 
C 325.124176 125.267505 323.986569 125.738717 323.147923 126.577363 
C 322.309277 127.416009 321.838065 128.553616 321.838065 129.739641 
C 321.838065 130.925665 322.309277 132.063272 323.147923 132.901918 
C 323.986569 133.740564 325.124176 134.211777 326.310201 134.211777 
z
" clip-path="url(#pc41789fb65)" style="fill: #879dba; stroke: #879dba"/>
    <path d="M 292.568043 138.016967 
C 293.754067 138.016967 294.891674 137.545755 295.73032 136.707109 
C 296.568966 135.868463 297.040179 134.730855 297.040179 133.544831 
C 297.040179 132.358807 296.568966 131.221199 295.73032 130.382553 
C 294.891674 129.543908 293.754067 129.072695 292.568043 129.072695 
C 291.382018 129.072695 290.244411 129.543908 289.405765 130.382553 
C 288.567119 131.221199 288.095907 132.358807 288.095907 133.544831 
C 288.095907 134.730855 288.567119 135.868463 289.405765 136.707109 
C 290.244411 137.545755 291.382018 138.016967 292.568043 138.016967 
z
" clip-path="url(#pc41789fb65)" style="fill: #879dba; stroke: #879dba"/>
    <path d="M 259.477602 145.564278 
C 260.663627 145.564278 261.801234 145.093066 262.63988 144.25442 
C 263.478526 143.415774 263.949738 142.278167 263.949738 141.092142 
C 263.949738 139.906118 263.478526 138.768511 262.63988 137.929865 
C 261.801234 137.091219 260.663627 136.620006 259.477602 136.620006 
C 258.291578 136.620006 257.15397 137.091219 256.315325 137.929865 
C 255.476679 138.768511 255.005466 139.906118 255.005466 141.092142 
C 255.005466 142.278167 255.476679 143.415774 256.315325 144.25442 
C 257.15397 145.093066 258.291578 145.564278 259.477602 145.564278 
z
" clip-path="url(#pc41789fb65)" style="fill: #879dba; stroke: #879dba"/>
    <path d="M 227.438319 156.790641 
C 228.624344 156.790641 229.761951 156.319429 230.600597 155.480783 
C 231.439243 154.642137 231.910455 153.50453 231.910455 152.318505 
C 231.910455 151.132481 231.439243 149.994873 230.600597 149.156228 
C 229.761951 148.317582 228.624344 147.846369 227.438319 147.846369 
C 226.252295 147.846369 225.114688 148.317582 224.276042 149.156228 
C 223.437396 149.994873 222.966184 151.132481 222.966184 152.318505 
C 222.966184 153.50453 223.437396 154.642137 224.276042 155.480783 
C 225.114688 156.319429 226.252295 156.790641 227.438319 156.790641 
z
" clip-path="url(#pc41789fb65)" style="fill: #879dba; stroke: #879dba"/>
    <path d="M 196.849634 171.506847 
C 198.035659 171.506847 199.173266 171.035635 200.011912 170.196989 
C 200.850558 169.358343 201.32177 168.220736 201.32177 167.034711 
C 201.32177 165.848687 200.850558 164.711079 200.011912 163.872434 
C 199.173266 163.033788 198.035659 162.562575 196.849634 162.562575 
C 195.66361 162.562575 194.526002 163.033788 193.687357 163.872434 
C 192.848711 164.711079 192.377498 165.848687 192.377498 167.034711 
C 192.377498 168.220736 192.848711 169.358343 193.687357 170.196989 
C 194.526002 171.035635 195.66361 171.506847 196.849634 171.506847 
z
" clip-path="url(#pc41789fb65)" style="fill: #879dba; stroke: #879dba"/>
    <path d="M 168.089963 189.586757 
C 169.275987 189.586757 170.413595 189.115545 171.252241 188.276899 
C 172.090887 187.438253 172.562099 186.300646 172.562099 185.114621 
C 172.562099 183.928597 172.090887 182.79099 171.252241 181.952344 
C 170.413595 181.113698 169.275987 180.642485 168.089963 180.642485 
C 166.903939 180.642485 165.766331 181.113698 164.927685 181.952344 
C 164.08904 182.79099 163.617827 183.928597 163.617827 185.114621 
C 163.617827 186.300646 164.08904 187.438253 164.927685 188.276899 
C 165.766331 189.115545 166.903939 189.586757 168.089963 189.586757 
z
" clip-path="url(#pc41789fb65)" style="fill: #879dba; stroke: #879dba"/>
    <path d="M 141.558746 210.736048 
C 142.74477 210.736048 143.882378 210.264835 144.721024 209.426189 
C 145.559669 208.587544 146.030882 207.449936 146.030882 206.263912 
C 146.030882 205.077887 145.559669 203.94028 144.721024 203.101634 
C 143.882378 202.262988 142.74477 201.791776 141.558746 201.791776 
C 140.372722 201.791776 139.235114 202.262988 138.396468 203.101634 
C 137.557822 203.94028 137.08661 205.077887 137.08661 206.263912 
C 137.08661 207.449936 137.557822 208.587544 138.396468 209.426189 
C 139.235114 210.264835 140.372722 210.736048 141.558746 210.736048 
z
" clip-path="url(#pc41789fb65)" style="fill: #879dba; stroke: #879dba"/>
    <path d="M 117.550307 234.744487 
C 118.736331 234.744487 119.873939 234.273274 120.712585 233.434628 
C 121.551231 232.595982 122.022443 231.458375 122.022443 230.272351 
C 122.022443 229.086326 121.551231 227.948719 120.712585 227.110073 
C 119.873939 226.271427 118.736331 225.800215 117.550307 225.800215 
C 116.364283 225.800215 115.226675 226.271427 114.388029 227.110073 
C 113.549384 227.948719 113.078171 229.086326 113.078171 230.272351 
C 113.078171 231.458375 113.549384 232.595982 114.388029 233.434628 
C 115.226675 234.273274 116.364283 234.744487 117.550307 234.744487 
z
" clip-path="url(#pc41789fb65)" style="fill: #879dba; stroke: #879dba"/>
    <path d="M 96.379994 261.296727 
C 97.566018 261.296727 98.703625 260.825514 99.542271 259.986869 
C 100.380917 259.148223 100.85213 258.010615 100.85213 256.824591 
C 100.85213 255.638567 100.380917 254.500959 99.542271 253.662313 
C 98.703625 252.823667 97.566018 252.352455 96.379994 252.352455 
C 95.193969 252.352455 94.056362 252.823667 93.217716 253.662313 
C 92.37907 254.500959 91.907858 255.638567 91.907858 256.824591 
C 91.907858 258.010615 92.37907 259.148223 93.217716 259.986869 
C 94.056362 260.825514 95.193969 261.296727 96.379994 261.296727 
z
" clip-path="url(#pc41789fb65)" style="fill: #879dba; stroke: #879dba"/>
    <path d="M 78.321107 290.035375 
C 79.507131 290.035375 80.644738 289.564162 81.483384 288.725517 
C 82.32203 287.886871 82.793242 286.749263 82.793242 285.563239 
C 82.793242 284.377215 82.32203 283.239607 81.483384 282.400961 
C 80.644738 281.562315 79.507131 281.091103 78.321107 281.091103 
C 77.135082 281.091103 75.997475 281.562315 75.158829 282.400961 
C 74.320183 283.239607 73.848971 284.377215 73.848971 285.563239 
C 73.848971 286.749263 74.320183 287.886871 75.158829 288.725517 
C 75.997475 289.564162 77.135082 290.035375 78.321107 290.035375 
z
" clip-path="url(#pc41789fb65)" style="fill: #879dba; stroke: #879dba"/>
    <path d="M 63.583877 320.62406 
C 64.769902 320.62406 65.907509 320.152848 66.746155 319.314202 
C 67.584801 318.475556 68.056013 317.337948 68.056013 316.151924 
C 68.056013 314.9659 67.584801 313.828292 66.746155 312.989646 
C 65.907509 312.151001 64.769902 311.679788 63.583877 311.679788 
C 62.397853 311.679788 61.260246 312.151001 60.4216 312.989646 
C 59.582954 313.828292 59.111741 314.9659 59.111741 316.151924 
C 59.111741 317.337948 59.582954 318.475556 60.4216 319.314202 
C 61.260246 320.152848 62.397853 320.62406 63.583877 320.62406 
z
" clip-path="url(#pc41789fb65)" style="fill: #879dba; stroke: #879dba"/>
    <path d="M 52.378538 352.663343 
C 53.564562 352.663343 54.70217 352.19213 55.540815 351.353485 
C 56.379461 350.514839 56.850674 349.377231 56.850674 348.191207 
C 56.850674 347.005183 56.379461 345.867575 55.540815 345.028929 
C 54.70217 344.190283 53.564562 343.719071 52.378538 343.719071 
C 51.192513 343.719071 50.054906 344.190283 49.21626 345.028929 
C 48.377614 345.867575 47.906402 347.005183 47.906402 348.191207 
C 47.906402 349.377231 48.377614 350.514839 49.21626 351.353485 
C 50.054906 352.19213 51.192513 352.663343 52.378538 352.663343 
z
" clip-path="url(#pc41789fb65)" style="fill: #879dba; stroke: #879dba"/>
    <path d="M 44.831226 385.774806 
C 46.017251 385.774806 47.154858 385.303594 47.993504 384.464948 
C 48.83215 383.626302 49.303362 382.488695 49.303362 381.30267 
C 49.303362 380.116646 48.83215 378.979039 47.993504 378.140393 
C 47.154858 377.301747 46.017251 376.830534 44.831226 376.830534 
C 43.645202 376.830534 42.507595 377.301747 41.668949 378.140393 
C 40.830303 378.979039 40.35909 380.116646 40.35909 381.30267 
C 40.35909 382.488695 40.830303 383.626302 41.668949 384.464948 
C 42.507595 385.303594 43.645202 385.774806 44.831226 385.774806 
z
" clip-path="url(#pc41789fb65)" style="fill: #879dba; stroke: #879dba"/>
    <path d="M 41.026036 419.495941 
C 42.21206 419.495941 43.349668 419.024729 44.188314 418.186083 
C 45.026959 417.347437 45.498172 416.20983 45.498172 415.023805 
C 45.498172 413.837781 45.026959 412.700173 44.188314 411.861528 
C 43.349668 411.022882 42.21206 410.551669 41.026036 410.551669 
C 39.840012 410.551669 38.702404 411.022882 37.863758 411.861528 
C 37.025112 412.700173 36.5539 413.837781 36.5539 415.023805 
C 36.5539 416.20983 37.025112 417.347437 37.863758 418.186083 
C 38.702404 419.024729 39.840012 419.495941 41.026036 419.495941 
z
" clip-path="url(#pc41789fb65)" style="fill: #879dba; stroke: #879dba"/>
    <path d="M 41.026036 453.448331 
C 42.21206 453.448331 43.349668 452.977118 44.188314 452.138472 
C 45.026959 451.299827 45.498172 450.162219 45.498172 448.976195 
C 45.498172 447.79017 45.026959 446.652563 44.188314 445.813917 
C 43.349668 444.975271 42.21206 444.504059 41.026036 444.504059 
C 39.840012 444.504059 38.702404 444.975271 37.863758 445.813917 
C 37.025112 446.652563 36.5539 447.79017 36.5539 448.976195 
C 36.5539 450.162219 37.025112 451.299827 37.863758 452.138472 
C 38.702404 452.977118 39.840012 453.448331 41.026036 453.448331 
z
" clip-path="url(#pc41789fb65)" style="fill: #879dba; stroke: #879dba"/>
    <path d="M 44.831226 487.190489 
C 46.017251 487.190489 47.154858 486.719276 47.993504 485.88063 
C 48.83215 485.041985 49.303362 483.904377 49.303362 482.718353 
C 49.303362 481.532328 48.83215 480.394721 47.993504 479.556075 
C 47.154858 478.717429 46.017251 478.246217 44.831226 478.246217 
C 43.645202 478.246217 42.507595 478.717429 41.668949 479.556075 
C 40.830303 480.394721 40.35909 481.532328 40.35909 482.718353 
C 40.35909 483.904377 40.830303 485.041985 41.668949 485.88063 
C 42.507595 486.719276 43.645202 487.190489 44.831226 487.190489 
z
" clip-path="url(#pc41789fb65)" style="fill: #879dba; stroke: #879dba"/>
    <path d="M 52.378538 520.280929 
C 53.564562 520.280929 54.70217 519.809717 55.540815 518.971071 
C 56.379461 518.132425 56.850674 516.994817 56.850674 515.808793 
C 56.850674 514.622769 56.379461 513.485161 55.540815 512.646515 
C 54.70217 511.80787 53.564562 511.336657 52.378538 511.336657 
C 51.192513 511.336657 50.054906 511.80787 49.21626 512.646515 
C 48.377614 513.485161 47.906402 514.622769 47.906402 515.808793 
C 47.906402 516.994817 48.377614 518.132425 49.21626 518.971071 
C 50.054906 519.809717 51.192513 520.280929 52.378538 520.280929 
z
" clip-path="url(#pc41789fb65)" style="fill: #879dba; stroke: #879dba"/>
    <path d="M 63.583877 552.320212 
C 64.769902 552.320212 65.907509 551.848999 66.746155 551.010354 
C 67.584801 550.171708 68.056013 549.0341 68.056013 547.848076 
C 68.056013 546.662052 67.584801 545.524444 66.746155 544.685798 
C 65.907509 543.847152 64.769902 543.37594 63.583877 543.37594 
C 62.397853 543.37594 61.260246 543.847152 60.4216 544.685798 
C 59.582954 545.524444 59.111741 546.662052 59.111741 547.848076 
C 59.111741 549.0341 59.582954 550.171708 60.4216 551.010354 
C 61.260246 551.848999 62.397853 552.320212 63.583877 552.320212 
z
" clip-path="url(#pc41789fb65)" style="fill: #879dba; stroke: #879dba"/>
    <path d="M 78.321107 582.913102 
C 79.507131 582.913102 80.644738 582.441889 81.483384 581.603243 
C 82.32203 580.764598 82.793242 579.62699 82.793242 578.440966 
C 82.793242 577.254941 82.32203 576.117334 81.483384 575.278688 
C 80.644738 574.440042 79.507131 573.96883 78.321107 573.96883 
C 77.135082 573.96883 75.997475 574.440042 75.158829 575.278688 
C 74.320183 576.117334 73.848971 577.254941 73.848971 578.440966 
C 73.848971 579.62699 74.320183 580.764598 75.158829 581.603243 
C 75.997475 582.441889 77.135082 582.913102 78.321107 582.913102 
z
" clip-path="url(#pc41789fb65)" style="fill: #879dba; stroke: #879dba"/>
    <path d="M 96.379994 611.658057 
C 97.566018 611.658057 98.703625 611.186844 99.542271 610.348198 
C 100.380917 609.509553 100.85213 608.371945 100.85213 607.185921 
C 100.85213 605.999896 100.380917 604.862289 99.542271 604.023643 
C 98.703625 603.184997 97.566018 602.713785 96.379994 602.713785 
C 95.193969 602.713785 94.056362 603.184997 93.217716 604.023643 
C 92.37907 604.862289 91.907858 605.999896 91.907858 607.185921 
C 91.907858 608.371945 92.37907 609.509553 93.217716 610.348198 
C 94.056362 611.186844 95.193969 611.658057 96.379994 611.658057 
z
" clip-path="url(#pc41789fb65)" style="fill: #879dba; stroke: #879dba"/>
    <path d="M 117.550307 638.199785 
C 118.736331 638.199785 119.873939 637.728573 120.712585 636.889927 
C 121.551231 636.051281 122.022443 634.913674 122.022443 633.727649 
C 122.022443 632.541625 121.551231 631.404018 120.712585 630.565372 
C 119.873939 629.726726 118.736331 629.255513 117.550307 629.255513 
C 116.364283 629.255513 115.226675 629.726726 114.388029 630.565372 
C 113.549384 631.404018 113.078171 632.541625 113.078171 633.727649 
C 113.078171 634.913674 113.549384 636.051281 114.388029 636.889927 
C 115.226675 637.728573 116.364283 638.199785 117.550307 638.199785 
z
" clip-path="url(#pc41789fb65)" style="fill: #879dba; stroke: #879dba"/>
    <path d="M 141.558746 662.206122 
C 142.74477 662.206122 143.882378 661.734909 144.721024 660.896264 
C 145.559669 660.057618 146.030882 658.92001 146.030882 657.733986 
C 146.030882 656.547962 145.559669 655.410354 144.721024 654.571708 
C 143.882378 653.733062 142.74477 653.26185 141.558746 653.26185 
C 140.372722 653.26185 139.235114 653.733062 138.396468 654.571708 
C 137.557822 655.410354 137.08661 656.547962 137.08661 657.733986 
C 137.08661 658.92001 137.557822 660.057618 138.396468 660.896264 
C 139.235114 661.734909 140.372722 662.206122 141.558746 662.206122 
z
" clip-path="url(#pc41789fb65)" style="fill: #879dba; stroke: #879dba"/>
    <path d="M 168.089963 683.372231 
C 169.275987 683.372231 170.413595 682.901018 171.252241 682.062372 
C 172.090887 681.223727 172.562099 680.086119 172.562099 678.900095 
C 172.562099 677.71407 172.090887 676.576463 171.252241 675.737817 
C 170.413595 674.899171 169.275987 674.427959 168.089963 674.427959 
C 166.903939 674.427959 165.766331 674.899171 164.927685 675.737817 
C 164.08904 676.576463 163.617827 677.71407 163.617827 678.900095 
C 163.617827 680.086119 164.08904 681.223727 164.927685 682.062372 
C 165.766331 682.901018 166.903939 683.372231 168.089963 683.372231 
z
" clip-path="url(#pc41789fb65)" style="fill: #879dba; stroke: #879dba"/>
    <path d="M 196.849634 701.435322 
C 198.035659 701.435322 199.173266 700.96411 200.011912 700.125464 
C 200.850558 699.286818 201.32177 698.149211 201.32177 696.963186 
C 201.32177 695.777162 200.850558 694.639555 200.011912 693.800909 
C 199.173266 692.962263 198.035659 692.491051 196.849634 692.491051 
C 195.66361 692.491051 194.526002 692.962263 193.687357 693.800909 
C 192.848711 694.639555 192.377498 695.777162 192.377498 696.963186 
C 192.377498 698.149211 192.848711 699.286818 193.687357 700.125464 
C 194.526002 700.96411 195.66361 701.435322 196.849634 701.435322 
z
" clip-path="url(#pc41789fb65)" style="fill: #879dba; stroke: #879dba"/>
    <path d="M 227.438319 716.164142 
C 228.624344 716.164142 229.761951 715.69293 230.600597 714.854284 
C 231.439243 714.015638 231.910455 712.878031 231.910455 711.692006 
C 231.910455 710.505982 231.439243 709.368375 230.600597 708.529729 
C 229.761951 707.691083 228.624344 707.21987 227.438319 707.21987 
C 226.252295 707.21987 225.114688 707.691083 224.276042 708.529729 
C 223.437396 709.368375 222.966184 710.505982 222.966184 711.692006 
C 222.966184 712.878031 223.437396 714.015638 224.276042 714.854284 
C 225.114688 715.69293 226.252295 716.164142 227.438319 716.164142 
z
" clip-path="url(#pc41789fb65)" style="fill: #879dba; stroke: #879dba"/>
    <path d="M 259.477602 727.377891 
C 260.663627 727.377891 261.801234 726.906679 262.63988 726.068033 
C 263.478526 725.229387 263.949738 724.09178 263.949738 722.905755 
C 263.949738 721.719731 263.478526 720.582124 262.63988 719.743478 
C 261.801234 718.904832 260.663627 718.433619 259.477602 718.433619 
C 258.291578 718.433619 257.15397 718.904832 256.315325 719.743478 
C 255.476679 720.582124 255.005466 721.719731 255.005466 722.905755 
C 255.005466 724.09178 255.476679 725.229387 256.315325 726.068033 
C 257.15397 726.906679 258.291578 727.377891 259.477602 727.377891 
z
" clip-path="url(#pc41789fb65)" style="fill: #879dba; stroke: #879dba"/>
    <path d="M 292.568043 734.93151 
C 293.754067 734.93151 294.891674 734.460297 295.73032 733.621651 
C 296.568966 732.783005 297.040179 731.645398 297.040179 730.459374 
C 297.040179 729.273349 296.568966 728.135742 295.73032 727.297096 
C 294.891674 726.45845 293.754067 725.987238 292.568043 725.987238 
C 291.382018 725.987238 290.244411 726.45845 289.405765 727.297096 
C 288.567119 728.135742 288.095907 729.273349 288.095907 730.459374 
C 288.095907 731.645398 288.567119 732.783005 289.405765 733.621651 
C 290.244411 734.460297 291.382018 734.93151 292.568043 734.93151 
z
" clip-path="url(#pc41789fb65)" style="fill: #879dba; stroke: #879dba"/>
    <path d="M 326.310201 738.732495 
C 327.496225 738.732495 328.633832 738.261283 329.472478 737.422637 
C 330.311124 736.583991 330.782337 735.446384 330.782337 734.260359 
C 330.782337 733.074335 330.311124 731.936728 329.472478 731.098082 
C 328.633832 730.259436 327.496225 729.788223 326.310201 729.788223 
C 325.124176 729.788223 323.986569 730.259436 323.147923 731.098082 
C 322.309277 731.936728 321.838065 733.074335 321.838065 734.260359 
C 321.838065 735.446384 322.309277 736.583991 323.147923 737.422637 
C 323.986569 738.261283 325.124176 738.732495 326.310201 738.732495 
z
" clip-path="url(#pc41789fb65)" style="fill: #879dba; stroke: #879dba"/>
    <path d="M 360.26259 738.732495 
C 361.448614 738.732495 362.586222 738.261283 363.424868 737.422637 
C 364.263514 736.583991 364.734726 735.446384 364.734726 734.260359 
C 364.734726 733.074335 364.263514 731.936728 363.424868 731.098082 
C 362.586222 730.259436 361.448614 729.788223 360.26259 729.788223 
C 359.076566 729.788223 357.938958 730.259436 357.100312 731.098082 
C 356.261667 731.936728 355.790454 733.074335 355.790454 734.260359 
C 355.790454 735.446384 356.261667 736.583991 357.100312 737.422637 
C 357.938958 738.261283 359.076566 738.732495 360.26259 738.732495 
z
" clip-path="url(#pc41789fb65)" style="fill: #879dba; stroke: #879dba"/>
    <path d="M 437.64881 557.420899 
C 439.52408 557.420899 441.322795 556.675846 442.64881 555.349831 
C 443.974826 554.023815 444.719878 552.2251 444.719878 550.349831 
C 444.719878 548.474562 443.974826 546.675846 442.64881 545.349831 
C 441.322795 544.023815 439.52408 543.278763 437.64881 543.278763 
C 435.773541 543.278763 433.974826 544.023815 432.64881 545.349831 
C 431.322795 546.675846 430.577743 548.474562 430.577743 550.349831 
C 430.577743 552.2251 431.322795 554.023815 432.64881 555.349831 
C 433.974826 556.675846 435.773541 557.420899 437.64881 557.420899 
z
" clip-path="url(#pc41789fb65)" style="fill: #8f81b5; stroke: #8f81b5"/>
    <path d="M 393.983725 734.93151 
C 395.169749 734.93151 396.307357 734.460297 397.146003 733.621651 
C 397.984648 732.783005 398.455861 731.645398 398.455861 730.459374 
C 398.455861 729.273349 397.984648 728.135742 397.146003 727.297096 
C 396.307357 726.45845 395.169749 725.987238 393.983725 725.987238 
C 392.797701 725.987238 391.660093 726.45845 390.821447 727.297096 
C 389.982801 728.135742 389.511589 729.273349 389.511589 730.459374 
C 389.511589 731.645398 389.982801 732.783005 390.821447 733.621651 
C 391.660093 734.460297 392.797701 734.93151 393.983725 734.93151 
z
" clip-path="url(#pc41789fb65)" style="fill: #879dba; stroke: #879dba"/>
    <path d="M 427.095188 727.377891 
C 428.281213 727.377891 429.41882 726.906679 430.257466 726.068033 
C 431.096112 725.229387 431.567324 724.09178 431.567324 722.905755 
C 431.567324 721.719731 431.096112 720.582124 430.257466 719.743478 
C 429.41882 718.904832 428.281213 718.433619 427.095188 718.433619 
C 425.909164 718.433619 424.771557 718.904832 423.932911 719.743478 
C 423.094265 720.582124 422.623052 721.719731 422.623052 722.905755 
C 422.623052 724.09178 423.094265 725.229387 423.932911 726.068033 
C 424.771557 726.906679 425.909164 727.377891 427.095188 727.377891 
z
" clip-path="url(#pc41789fb65)" style="fill: #879dba; stroke: #879dba"/>
    <path d="M 459.134471 716.164142 
C 460.320496 716.164142 461.458103 715.69293 462.296749 714.854284 
C 463.135395 714.015638 463.606607 712.878031 463.606607 711.692006 
C 463.606607 710.505982 463.135395 709.368375 462.296749 708.529729 
C 461.458103 707.691083 460.320496 707.21987 459.134471 707.21987 
C 457.948447 707.21987 456.810839 707.691083 455.972194 708.529729 
C 455.133548 709.368375 454.662335 710.505982 454.662335 711.692006 
C 454.662335 712.878031 455.133548 714.015638 455.972194 714.854284 
C 456.810839 715.69293 457.948447 716.164142 459.134471 716.164142 
z
" clip-path="url(#pc41789fb65)" style="fill: #879dba; stroke: #879dba"/>
    <path d="M 489.723156 701.435322 
C 490.909181 701.435322 492.046788 700.96411 492.885434 700.125464 
C 493.72408 699.286818 494.195292 698.149211 494.195292 696.963186 
C 494.195292 695.777162 493.72408 694.639555 492.885434 693.800909 
C 492.046788 692.962263 490.909181 692.491051 489.723156 692.491051 
C 488.537132 692.491051 487.399525 692.962263 486.560879 693.800909 
C 485.722233 694.639555 485.251021 695.777162 485.251021 696.963186 
C 485.251021 698.149211 485.722233 699.286818 486.560879 700.125464 
C 487.399525 700.96411 488.537132 701.435322 489.723156 701.435322 
z
" clip-path="url(#pc41789fb65)" style="fill: #879dba; stroke: #879dba"/>
    <path d="M 518.461804 683.372231 
C 519.647829 683.372231 520.785436 682.901018 521.624082 682.062372 
C 522.462728 681.223727 522.93394 680.086119 522.93394 678.900095 
C 522.93394 677.71407 522.462728 676.576463 521.624082 675.737817 
C 520.785436 674.899171 519.647829 674.427959 518.461804 674.427959 
C 517.27578 674.427959 516.138173 674.899171 515.299527 675.737817 
C 514.460881 676.576463 513.989669 677.71407 513.989669 678.900095 
C 513.989669 680.086119 514.460881 681.223727 515.299527 682.062372 
C 516.138173 682.901018 517.27578 683.372231 518.461804 683.372231 
z
" clip-path="url(#pc41789fb65)" style="fill: #879dba; stroke: #879dba"/>
    <path d="M 545.014045 662.206122 
C 546.200069 662.206122 547.337677 661.734909 548.176322 660.896264 
C 549.014968 660.057618 549.486181 658.92001 549.486181 657.733986 
C 549.486181 656.547962 549.014968 655.410354 548.176322 654.571708 
C 547.337677 653.733062 546.200069 653.26185 545.014045 653.26185 
C 543.82802 653.26185 542.690413 653.733062 541.851767 654.571708 
C 541.013121 655.410354 540.541909 656.547962 540.541909 657.733986 
C 540.541909 658.92001 541.013121 660.057618 541.851767 660.896264 
C 542.690413 661.734909 543.82802 662.206122 545.014045 662.206122 
z
" clip-path="url(#pc41789fb65)" style="fill: #879dba; stroke: #879dba"/>
    <path d="M 569.022484 638.199785 
C 570.208508 638.199785 571.346115 637.728573 572.184761 636.889927 
C 573.023407 636.051281 573.49462 634.913674 573.49462 633.727649 
C 573.49462 632.541625 573.023407 631.404018 572.184761 630.565372 
C 571.346115 629.726726 570.208508 629.255513 569.022484 629.255513 
C 567.836459 629.255513 566.698852 629.726726 565.860206 630.565372 
C 565.02156 631.404018 564.550348 632.541625 564.550348 633.727649 
C 564.550348 634.913674 565.02156 636.051281 565.860206 636.889927 
C 566.698852 637.728573 567.836459 638.199785 569.022484 638.199785 
z
" clip-path="url(#pc41789fb65)" style="fill: #879dba; stroke: #879dba"/>
    <path d="M 590.171774 611.658057 
C 591.357798 611.658057 592.495406 611.186844 593.334052 610.348198 
C 594.172697 609.509553 594.64391 608.371945 594.64391 607.185921 
C 594.64391 605.999896 594.172697 604.862289 593.334052 604.023643 
C 592.495406 603.184997 591.357798 602.713785 590.171774 602.713785 
C 588.98575 602.713785 587.848142 603.184997 587.009496 604.023643 
C 586.17085 604.862289 585.699638 605.999896 585.699638 607.185921 
C 585.699638 608.371945 586.17085 609.509553 587.009496 610.348198 
C 587.848142 611.186844 588.98575 611.658057 590.171774 611.658057 
z
" clip-path="url(#pc41789fb65)" style="fill: #879dba; stroke: #879dba"/>
    <path d="M 608.251684 582.913102 
C 609.437708 582.913102 610.575316 582.441889 611.413962 581.603243 
C 612.252608 580.764598 612.72382 579.62699 612.72382 578.440966 
C 612.72382 577.254941 612.252608 576.117334 611.413962 575.278688 
C 610.575316 574.440042 609.437708 573.96883 608.251684 573.96883 
C 607.06566 573.96883 605.928052 574.440042 605.089406 575.278688 
C 604.250761 576.117334 603.779548 577.254941 603.779548 578.440966 
C 603.779548 579.62699 604.250761 580.764598 605.089406 581.603243 
C 605.928052 582.441889 607.06566 582.913102 608.251684 582.913102 
z
" clip-path="url(#pc41789fb65)" style="fill: #879dba; stroke: #879dba"/>
    <path d="M 622.96789 552.320212 
C 624.153914 552.320212 625.291522 551.848999 626.130168 551.010354 
C 626.968814 550.171708 627.440026 549.0341 627.440026 547.848076 
C 627.440026 546.662052 626.968814 545.524444 626.130168 544.685798 
C 625.291522 543.847152 624.153914 543.37594 622.96789 543.37594 
C 621.781866 543.37594 620.644258 543.847152 619.805612 544.685798 
C 618.966967 545.524444 618.495754 546.662052 618.495754 547.848076 
C 618.495754 549.0341 618.966967 550.171708 619.805612 551.010354 
C 620.644258 551.848999 621.781866 552.320212 622.96789 552.320212 
z
" clip-path="url(#pc41789fb65)" style="fill: #879dba; stroke: #879dba"/>
    <path d="M 492.519236 464.4355 
C 494.394505 464.4355 496.19322 463.690448 497.519236 462.364432 
C 498.845251 461.038417 499.590303 459.239701 499.590303 457.364432 
C 499.590303 455.489163 498.845251 453.690448 497.519236 452.364432 
C 496.19322 451.038417 494.394505 450.293364 492.519236 450.293364 
C 490.643967 450.293364 488.845251 451.038417 487.519236 452.364432 
C 486.19322 453.690448 485.448168 455.489163 485.448168 457.364432 
C 485.448168 459.239701 486.19322 461.038417 487.519236 462.364432 
C 488.845251 463.690448 490.643967 464.4355 492.519236 464.4355 
z
" clip-path="url(#pc41789fb65)" style="fill: #8f81b5; stroke: #8f81b5"/>
    <path d="M 634.194253 520.280929 
C 635.380277 520.280929 636.517885 519.809717 637.356531 518.971071 
C 638.195176 518.132425 638.666389 516.994817 638.666389 515.808793 
C 638.666389 514.622769 638.195176 513.485161 637.356531 512.646515 
C 636.517885 511.80787 635.380277 511.336657 634.194253 511.336657 
C 633.008229 511.336657 631.870621 511.80787 631.031975 512.646515 
C 630.193329 513.485161 629.722117 514.622769 629.722117 515.808793 
C 629.722117 516.994817 630.193329 518.132425 631.031975 518.971071 
C 631.870621 519.809717 633.008229 520.280929 634.194253 520.280929 
z
" clip-path="url(#pc41789fb65)" style="fill: #879dba; stroke: #879dba"/>
    <path d="M 641.741564 487.190489 
C 642.927589 487.190489 644.065196 486.719276 644.903842 485.88063 
C 645.742488 485.041985 646.2137 483.904377 646.2137 482.718353 
C 646.2137 481.532328 645.742488 480.394721 644.903842 479.556075 
C 644.065196 478.717429 642.927589 478.246217 641.741564 478.246217 
C 640.55554 478.246217 639.417933 478.717429 638.579287 479.556075 
C 637.740641 480.394721 637.269428 481.532328 637.269428 482.718353 
C 637.269428 483.904377 637.740641 485.041985 638.579287 485.88063 
C 639.417933 486.719276 640.55554 487.190489 641.741564 487.190489 
z
" clip-path="url(#pc41789fb65)" style="fill: #879dba; stroke: #879dba"/>
    <path d="M 645.546755 453.448331 
C 646.732779 453.448331 647.870387 452.977118 648.709032 452.138472 
C 649.547678 451.299827 650.018891 450.162219 650.018891 448.976195 
C 650.018891 447.79017 649.547678 446.652563 648.709032 445.813917 
C 647.870387 444.975271 646.732779 444.504059 645.546755 444.504059 
C 644.36073 444.504059 643.223123 444.975271 642.384477 445.813917 
C 641.545831 446.652563 641.074619 447.79017 641.074619 448.976195 
C 641.074619 450.162219 641.545831 451.299827 642.384477 452.138472 
C 643.223123 452.977118 644.36073 453.448331 645.546755 453.448331 
z
" clip-path="url(#pc41789fb65)" style="fill: #879dba; stroke: #879dba"/>
   </g>
   <g id="patch_3">
    <path d="M 10.8 764.486395 
L 10.8 99.513605 
" style="fill: none; stroke: #000000; stroke-width: 0.8; stroke-linejoin: miter; stroke-linecap: square"/>
   </g>
   <g id="patch_4">
    <path d="M 675.772791 764.486395 
L 675.772791 99.513605 
" style="fill: none; stroke: #000000; stroke-width: 0.8; stroke-linejoin: miter; stroke-linecap: square"/>
   </g>
   <g id="patch_5">
    <path d="M 10.8 764.486395 
L 675.772791 764.486395 
" style="fill: none; stroke: #000000; stroke-width: 0.8; stroke-linejoin: miter; stroke-linecap: square"/>
   </g>
   <g id="patch_6">
    <path d="M 10.8 99.513605 
L 675.772791 99.513605 
" style="fill: none; stroke: #000000; stroke-width: 0.8; stroke-linejoin: miter; stroke-linecap: square"/>
   </g>
   <g id="text_1">
    <!-- Year: 1823 -->
    <g transform="translate(17.449728 126.918828) scale(0.3 -0.3)">
     <defs>
      <path id="CMR17-59" d="M 3706 3766 
C 3955 4160 4301 4160 4416 4160 
L 4416 4332 
C 4269 4319 4102 4319 3942 4319 
C 3782 4319 3526 4319 3373 4332 
L 3373 4160 
C 3533 4160 3616 4077 3616 3957 
C 3616 3881 3584 3830 3533 3747 
L 2381 1912 
L 1120 3912 
C 1075 3988 1069 3994 1069 4039 
C 1069 4160 1293 4160 1382 4160 
L 1382 4319 
C 1178 4319 864 4319 653 4319 
C 486 4319 166 4319 13 4332 
L 13 4160 
C 378 4160 480 4141 595 3958 
L 2010 1728 
L 2010 445 
C 2010 160 1939 160 1498 160 
L 1498 0 
C 1683 0 2016 0 2214 0 
C 2413 0 2752 0 2938 0 
L 2938 160 
C 2477 160 2419 160 2419 471 
L 2419 1728 
L 3706 3766 
z
" transform="scale(0.015625)"/>
      <path id="CMR17-65" d="M 2438 1472 
C 2464 1498 2464 1511 2464 1576 
C 2464 2238 2118 2816 1389 2816 
C 710 2816 173 2169 173 1383 
C 173 551 781 -64 1459 -64 
C 2176 -64 2458 607 2458 740 
C 2458 784 2419 784 2406 784 
C 2362 784 2355 771 2330 696 
C 2189 265 1837 51 1504 51 
C 1229 51 954 203 781 480 
C 582 803 582 1176 582 1472 
L 2438 1472 
z
M 589 1568 
C 634 2505 1126 2714 1382 2714 
C 1818 2714 2112 2297 2118 1568 
L 589 1568 
z
" transform="scale(0.015625)"/>
      <path id="CMR17-61" d="M 2304 1653 
C 2304 2072 2304 2294 2035 2543 
C 1798 2752 1523 2816 1306 2816 
C 800 2816 435 2407 435 1971 
C 435 1728 627 1728 666 1728 
C 749 1728 896 1778 896 1954 
C 896 2112 774 2181 666 2181 
C 640 2181 608 2174 589 2168 
C 723 2592 1069 2714 1293 2714 
C 1613 2714 1965 2429 1965 1885 
L 1965 1600 
C 1587 1600 1133 1549 774 1357 
C 371 1133 256 813 256 570 
C 256 77 832 -64 1171 -64 
C 1523 -64 1850 139 1990 511 
C 2003 233 2182 -18 2464 -18 
C 2598 -18 2938 70 2938 567 
L 2938 920 
L 2822 920 
L 2822 562 
C 2822 178 2650 128 2566 128 
C 2304 128 2304 458 2304 738 
L 2304 1653 
z
M 1965 870 
C 1965 317 1568 38 1216 38 
C 896 38 646 275 646 570 
C 646 761 730 1100 1101 1305 
C 1408 1478 1760 1504 1965 1504 
L 1965 870 
z
" transform="scale(0.015625)"/>
      <path id="CMR17-72" d="M 960 1497 
C 960 2112 1222 2688 1702 2688 
C 1747 2688 1792 2682 1837 2662 
C 1837 2662 1696 2617 1696 2452 
C 1696 2298 1818 2234 1914 2234 
C 1990 2234 2131 2279 2131 2458 
C 2131 2663 1926 2790 1709 2790 
C 1222 2790 1011 2317 947 2093 
L 941 2093 
L 941 2790 
L 198 2720 
L 198 2554 
C 576 2554 634 2515 634 2208 
L 634 428 
C 634 184 608 153 198 153 
L 198 -13 
C 352 0 646 0 813 0 
C 998 0 1325 0 1498 -13 
L 1498 153 
C 1037 153 960 153 960 440 
L 960 1497 
z
" transform="scale(0.015625)"/>
      <path id="CMR17-3a" d="M 1062 2491 
C 1062 2650 934 2752 800 2752 
C 672 2752 538 2650 538 2491 
C 538 2332 666 2230 800 2230 
C 928 2230 1062 2332 1062 2491 
z
M 1062 261 
C 1062 420 934 522 800 522 
C 672 522 538 420 538 261 
C 538 102 666 0 800 0 
C 928 0 1062 102 1062 261 
z
" transform="scale(0.015625)"/>
      <path id="CMR17-31" d="M 1702 4058 
C 1702 4192 1696 4192 1606 4192 
C 1357 3916 979 3827 621 3827 
C 602 3827 570 3827 563 3808 
C 557 3795 557 3782 557 3648 
C 755 3648 1088 3686 1344 3839 
L 1344 461 
C 1344 236 1331 160 781 160 
L 589 160 
L 589 0 
C 896 0 1216 0 1523 0 
C 1830 0 2150 0 2458 0 
L 2458 160 
L 2266 160 
C 1715 160 1702 230 1702 458 
L 1702 4058 
z
" transform="scale(0.015625)"/>
      <path id="CMR17-38" d="M 1741 2264 
C 2144 2467 2554 2773 2554 3263 
C 2554 3841 1990 4179 1472 4179 
C 890 4179 378 3759 378 3180 
C 378 3021 416 2747 666 2505 
C 730 2442 998 2251 1171 2130 
C 883 1983 211 1634 211 934 
C 211 279 838 -128 1459 -128 
C 2144 -128 2720 362 2720 1010 
C 2720 1590 2330 1857 2074 2029 
L 1741 2264 
z
M 902 2822 
C 851 2854 595 3051 595 3351 
C 595 3739 998 4032 1459 4032 
C 1965 4032 2336 3676 2336 3262 
C 2336 2669 1670 2331 1638 2331 
C 1632 2331 1626 2331 1574 2370 
L 902 2822 
z
M 2080 1519 
C 2176 1449 2483 1240 2483 851 
C 2483 381 2010 25 1472 25 
C 890 25 448 438 448 940 
C 448 1443 838 1862 1280 2060 
L 2080 1519 
z
" transform="scale(0.015625)"/>
      <path id="CMR17-32" d="M 2669 989 
L 2554 989 
C 2490 536 2438 459 2413 420 
C 2381 369 1920 369 1830 369 
L 602 369 
C 832 619 1280 1072 1824 1597 
C 2214 1967 2669 2402 2669 3035 
C 2669 3790 2067 4224 1395 4224 
C 691 4224 262 3604 262 3030 
C 262 2780 448 2748 525 2748 
C 589 2748 781 2787 781 3010 
C 781 3207 614 3264 525 3264 
C 486 3264 448 3258 422 3245 
C 544 3790 915 4058 1306 4058 
C 1862 4058 2227 3617 2227 3035 
C 2227 2479 1901 2000 1536 1584 
L 262 146 
L 262 0 
L 2515 0 
L 2669 989 
z
" transform="scale(0.015625)"/>
      <path id="CMR17-33" d="M 1414 2157 
C 1984 2157 2234 1662 2234 1090 
C 2234 320 1824 25 1453 25 
C 1114 25 563 194 390 693 
C 422 680 454 680 486 680 
C 640 680 755 782 755 948 
C 755 1133 614 1216 486 1216 
C 378 1216 211 1165 211 926 
C 211 335 787 -128 1466 -128 
C 2176 -128 2720 430 2720 1085 
C 2720 1707 2208 2157 1600 2227 
C 2086 2328 2554 2756 2554 3329 
C 2554 3820 2048 4179 1472 4179 
C 890 4179 378 3829 378 3329 
C 378 3110 544 3072 627 3072 
C 762 3072 877 3155 877 3321 
C 877 3486 762 3569 627 3569 
C 602 3569 570 3569 544 3557 
C 730 3959 1235 4032 1459 4032 
C 1683 4032 2106 3925 2106 3320 
C 2106 3143 2080 2828 1862 2550 
C 1670 2304 1453 2304 1242 2284 
C 1210 2284 1062 2269 1037 2269 
C 992 2263 966 2257 966 2208 
C 966 2163 973 2157 1101 2157 
L 1414 2157 
z
" transform="scale(0.015625)"/>
     </defs>
     <use xlink:href="#CMR17-59" transform="scale(0.996264)"/>
     <use xlink:href="#CMR17-65" transform="translate(61.265174 0) scale(0.996264)"/>
     <use xlink:href="#CMR17-61" transform="translate(101.750835 0) scale(0.996264)"/>
     <use xlink:href="#CMR17-72" transform="translate(147.441312 0) scale(0.996264)"/>
     <use xlink:href="#CMR17-3a" transform="translate(182.72208 0) scale(0.996264)"/>
     <use xlink:href="#CMR17-31" transform="translate(248.078799 0) scale(0.996264)"/>
     <use xlink:href="#CMR17-38" transform="translate(293.769276 0) scale(0.996264)"/>
     <use xlink:href="#CMR17-32" transform="translate(339.459753 0) scale(0.996264)"/>
     <use xlink:href="#CMR17-33" transform="translate(385.15023 0) scale(0.996264)"/>
    </g>
   </g>
  </g>
  <g id="axes_2">
   <g id="patch_7">
    <path d="M 717.33359 853.2 
L 759.45359 853.2 
L 759.45359 10.8 
L 717.33359 10.8 
z
" style="fill: #ffffff"/>
   </g>
   <g id="QuadMesh_1">
    <path d="M 717.33359 853.2 
L 759.45359 853.2 
L 759.45359 747.9 
L 717.33359 747.9 
L 717.33359 853.2 
" clip-path="url(#p7a14dfa931)" style="fill: #ad35ca"/>
    <path d="M 717.33359 747.9 
L 759.45359 747.9 
L 759.45359 642.6 
L 717.33359 642.6 
L 717.33359 747.9 
" clip-path="url(#p7a14dfa931)" style="fill: #8f81b5"/>
    <path d="M 717.33359 642.6 
L 759.45359 642.6 
L 759.45359 537.3 
L 717.33359 537.3 
L 717.33359 642.6 
" clip-path="url(#p7a14dfa931)" style="fill: #879dba"/>
    <path d="M 717.33359 537.3 
L 759.45359 537.3 
L 759.45359 432 
L 717.33359 432 
L 717.33359 537.3 
" clip-path="url(#p7a14dfa931)" style="fill: #7bb4be"/>
    <path d="M 717.33359 432 
L 759.45359 432 
L 759.45359 326.7 
L 717.33359 326.7 
L 717.33359 432 
" clip-path="url(#p7a14dfa931)" style="fill: #79c6b7"/>
    <path d="M 717.33359 326.7 
L 759.45359 326.7 
L 759.45359 221.4 
L 717.33359 221.4 
L 717.33359 326.7 
" clip-path="url(#p7a14dfa931)" style="fill: #a1ccad"/>
    <path d="M 717.33359 221.4 
L 759.45359 221.4 
L 759.45359 116.1 
L 717.33359 116.1 
L 717.33359 221.4 
" clip-path="url(#p7a14dfa931)" style="fill: #c1d59b"/>
    <path d="M 717.33359 116.1 
L 759.45359 116.1 
L 759.45359 10.8 
L 717.33359 10.8 
L 717.33359 116.1 
" clip-path="url(#p7a14dfa931)" style="fill: #e4dc96"/>
   </g>
   <g id="matplotlib.axis_3"/>
   <g id="matplotlib.axis_4">
    <g id="ytick_7">
     <g id="line2d_1">
      <defs>
       <path id="m92e394ae32" d="M 0 0 
L 3.5 0 
" style="stroke: #000000; stroke-width: 0.8"/>
      </defs>
      <g>
       <use xlink:href="#m92e394ae32" x="759.45359" y="800.55" style="stroke: #000000; stroke-width: 0.8"/>
      </g>
     </g>
     <g id="text_2">
      <!-- 0 -->
      <g transform="translate(766.45359 811.619603) scale(0.32 -0.32)">
       <defs>
        <path id="CMR17-30" d="M 2688 2025 
C 2688 2416 2682 3080 2413 3591 
C 2176 4039 1798 4198 1466 4198 
C 1158 4198 768 4058 525 3597 
C 269 3118 243 2524 243 2025 
C 243 1661 250 1106 448 619 
C 723 -39 1216 -128 1466 -128 
C 1760 -128 2208 -7 2470 600 
C 2662 1042 2688 1559 2688 2025 
z
M 1466 -26 
C 1056 -26 813 325 723 812 
C 653 1188 653 1738 653 2096 
C 653 2588 653 2997 736 3387 
C 858 3929 1216 4096 1466 4096 
C 1728 4096 2067 3923 2189 3400 
C 2272 3036 2278 2607 2278 2096 
C 2278 1680 2278 1169 2202 792 
C 2067 95 1690 -26 1466 -26 
z
" transform="scale(0.015625)"/>
       </defs>
       <use xlink:href="#CMR17-30" transform="scale(0.996264)"/>
      </g>
     </g>
    </g>
    <g id="ytick_8">
     <g id="line2d_2">
      <g>
       <use xlink:href="#m92e394ae32" x="759.45359" y="695.25" style="stroke: #000000; stroke-width: 0.8"/>
      </g>
     </g>
     <g id="text_3">
      <!-- 1 -->
      <g transform="translate(766.45359 706.319603) scale(0.32 -0.32)">
       <use xlink:href="#CMR17-31" transform="scale(0.996264)"/>
      </g>
     </g>
    </g>
    <g id="ytick_9">
     <g id="line2d_3">
      <g>
       <use xlink:href="#m92e394ae32" x="759.45359" y="589.95" style="stroke: #000000; stroke-width: 0.8"/>
      </g>
     </g>
     <g id="text_4">
      <!-- 2 -->
      <g transform="translate(766.45359 601.019603) scale(0.32 -0.32)">
       <use xlink:href="#CMR17-32" transform="scale(0.996264)"/>
      </g>
     </g>
    </g>
    <g id="ytick_10">
     <g id="line2d_4">
      <g>
       <use xlink:href="#m92e394ae32" x="759.45359" y="484.65" style="stroke: #000000; stroke-width: 0.8"/>
      </g>
     </g>
     <g id="text_5">
      <!-- 3 -->
      <g transform="translate(766.45359 495.719603) scale(0.32 -0.32)">
       <use xlink:href="#CMR17-33" transform="scale(0.996264)"/>
      </g>
     </g>
    </g>
    <g id="ytick_11">
     <g id="line2d_5">
      <g>
       <use xlink:href="#m92e394ae32" x="759.45359" y="379.35" style="stroke: #000000; stroke-width: 0.8"/>
      </g>
     </g>
     <g id="text_6">
      <!-- 4 -->
      <g transform="translate(766.45359 390.419603) scale(0.32 -0.32)">
       <defs>
        <path id="CMR17-34" d="M 2150 4122 
C 2150 4256 2144 4256 2029 4256 
L 128 1254 
L 128 1088 
L 1779 1088 
L 1779 457 
C 1779 224 1766 160 1318 160 
L 1197 160 
L 1197 0 
C 1402 0 1747 0 1965 0 
C 2182 0 2528 0 2733 0 
L 2733 160 
L 2611 160 
C 2163 160 2150 224 2150 457 
L 2150 1088 
L 2803 1088 
L 2803 1254 
L 2150 1254 
L 2150 4122 
z
M 1798 3703 
L 1798 1254 
L 256 1254 
L 1798 3703 
z
" transform="scale(0.015625)"/>
       </defs>
       <use xlink:href="#CMR17-34" transform="scale(0.996264)"/>
      </g>
     </g>
    </g>
    <g id="ytick_12">
     <g id="line2d_6">
      <g>
       <use xlink:href="#m92e394ae32" x="759.45359" y="274.05" style="stroke: #000000; stroke-width: 0.8"/>
      </g>
     </g>
     <g id="text_7">
      <!-- 5 -->
      <g transform="translate(766.45359 285.119603) scale(0.32 -0.32)">
       <defs>
        <path id="CMR17-35" d="M 730 3692 
C 794 3666 1056 3584 1325 3584 
C 1920 3584 2246 3911 2432 4100 
C 2432 4157 2432 4192 2394 4192 
C 2387 4192 2374 4192 2323 4163 
C 2099 4058 1837 3973 1517 3973 
C 1325 3973 1037 3999 723 4139 
C 653 4171 640 4171 634 4171 
C 602 4171 595 4164 595 4037 
L 595 2203 
C 595 2089 595 2057 659 2057 
C 691 2057 704 2070 736 2114 
C 941 2401 1222 2522 1542 2522 
C 1766 2522 2246 2382 2246 1289 
C 2246 1085 2246 715 2054 421 
C 1894 159 1645 25 1370 25 
C 947 25 518 320 403 814 
C 429 807 480 795 506 795 
C 589 795 749 840 749 1038 
C 749 1210 627 1280 506 1280 
C 358 1280 262 1190 262 1011 
C 262 454 704 -128 1382 -128 
C 2042 -128 2669 440 2669 1264 
C 2669 2030 2170 2624 1549 2624 
C 1222 2624 947 2503 730 2274 
L 730 3692 
z
" transform="scale(0.015625)"/>
       </defs>
       <use xlink:href="#CMR17-35" transform="scale(0.996264)"/>
      </g>
     </g>
    </g>
    <g id="ytick_13">
     <g id="line2d_7">
      <g>
       <use xlink:href="#m92e394ae32" x="759.45359" y="168.75" style="stroke: #000000; stroke-width: 0.8"/>
      </g>
     </g>
     <g id="text_8">
      <!-- 6 -->
      <g transform="translate(766.45359 179.819603) scale(0.32 -0.32)">
       <defs>
        <path id="CMR17-36" d="M 678 2176 
C 678 3690 1395 4032 1811 4032 
C 1946 4032 2272 4009 2400 3776 
C 2298 3776 2106 3776 2106 3553 
C 2106 3381 2246 3323 2336 3323 
C 2394 3323 2566 3348 2566 3560 
C 2566 3954 2246 4179 1805 4179 
C 1043 4179 243 3390 243 1984 
C 243 253 966 -128 1478 -128 
C 2099 -128 2688 427 2688 1283 
C 2688 2081 2170 2662 1517 2662 
C 1126 2662 838 2407 678 1960 
L 678 2176 
z
M 1478 25 
C 691 25 691 1200 691 1436 
C 691 1896 909 2560 1504 2560 
C 1613 2560 1926 2560 2138 2120 
C 2253 1870 2253 1609 2253 1289 
C 2253 944 2253 690 2118 434 
C 1978 171 1773 25 1478 25 
z
" transform="scale(0.015625)"/>
       </defs>
       <use xlink:href="#CMR17-36" transform="scale(0.996264)"/>
      </g>
     </g>
    </g>
    <g id="ytick_14">
     <g id="line2d_8">
      <g>
       <use xlink:href="#m92e394ae32" x="759.45359" y="63.45" style="stroke: #000000; stroke-width: 0.8"/>
      </g>
     </g>
     <g id="text_9">
      <!-- 7 -->
      <g transform="translate(766.45359 74.519603) scale(0.32 -0.32)">
       <defs>
        <path id="CMR17-37" d="M 2886 3941 
L 2886 4081 
L 1382 4081 
C 634 4081 621 4165 595 4288 
L 480 4288 
L 294 3094 
L 410 3094 
C 429 3215 474 3540 550 3661 
C 589 3712 1062 3712 1171 3712 
L 2579 3712 
L 1869 2661 
C 1395 1954 1069 999 1069 165 
C 1069 89 1069 -128 1299 -128 
C 1530 -128 1530 89 1530 171 
L 1530 465 
C 1530 1508 1709 2196 2003 2636 
L 2886 3941 
z
" transform="scale(0.015625)"/>
       </defs>
       <use xlink:href="#CMR17-37" transform="scale(0.996264)"/>
      </g>
     </g>
    </g>
    <g id="ytick_15">
     <g id="line2d_9">
      <defs>
       <path id="m7daa55d4ab" d="M 0 0 
L 2 0 
" style="stroke: #000000; stroke-width: 0.6"/>
      </defs>
      <g>
       <use xlink:href="#m7daa55d4ab" x="759.45359" y="853.2" style="stroke: #000000; stroke-width: 0.6"/>
      </g>
     </g>
    </g>
    <g id="ytick_16">
     <g id="line2d_10">
      <g>
       <use xlink:href="#m7daa55d4ab" x="759.45359" y="747.9" style="stroke: #000000; stroke-width: 0.6"/>
      </g>
     </g>
    </g>
    <g id="ytick_17">
     <g id="line2d_11">
      <g>
       <use xlink:href="#m7daa55d4ab" x="759.45359" y="642.6" style="stroke: #000000; stroke-width: 0.6"/>
      </g>
     </g>
    </g>
    <g id="ytick_18">
     <g id="line2d_12">
      <g>
       <use xlink:href="#m7daa55d4ab" x="759.45359" y="537.3" style="stroke: #000000; stroke-width: 0.6"/>
      </g>
     </g>
    </g>
    <g id="ytick_19">
     <g id="line2d_13">
      <g>
       <use xlink:href="#m7daa55d4ab" x="759.45359" y="432" style="stroke: #000000; stroke-width: 0.6"/>
      </g>
     </g>
    </g>
    <g id="ytick_20">
     <g id="line2d_14">
      <g>
       <use xlink:href="#m7daa55d4ab" x="759.45359" y="326.7" style="stroke: #000000; stroke-width: 0.6"/>
      </g>
     </g>
    </g>
    <g id="ytick_21">
     <g id="line2d_15">
      <g>
       <use xlink:href="#m7daa55d4ab" x="759.45359" y="221.4" style="stroke: #000000; stroke-width: 0.6"/>
      </g>
     </g>
    </g>
    <g id="ytick_22">
     <g id="line2d_16">
      <g>
       <use xlink:href="#m7daa55d4ab" x="759.45359" y="116.1" style="stroke: #000000; stroke-width: 0.6"/>
      </g>
     </g>
    </g>
    <g id="ytick_23">
     <g id="line2d_17">
      <g>
       <use xlink:href="#m7daa55d4ab" x="759.45359" y="10.8" style="stroke: #000000; stroke-width: 0.6"/>
      </g>
     </g>
    </g>
    <g id="text_10">
     <!-- Node Depth -->
     <g transform="translate(828.899641 543.95779) rotate(-90) scale(0.46 -0.46)">
      <defs>
       <path id="CMR17-4e" d="M 1312 4250 
C 1267 4320 1261 4320 1139 4320 
L 326 4320 
L 326 4160 
L 448 4160 
C 704 4160 819 4129 838 4122 
L 838 610 
C 838 451 838 153 326 153 
L 326 -13 
C 474 0 742 0 902 0 
C 1062 0 1331 0 1478 -13 
L 1478 153 
C 966 153 966 451 966 610 
L 966 4033 
C 1011 3995 1011 3982 1056 3919 
L 3430 76 
C 3475 0 3494 0 3526 0 
C 3590 0 3590 19 3590 139 
L 3590 3705 
C 3590 3863 3590 4160 4102 4160 
L 4102 4326 
C 3955 4320 3686 4320 3526 4320 
C 3366 4320 3098 4320 2950 4326 
L 2950 4160 
C 3462 4160 3462 3862 3462 3703 
L 3462 763 
L 1312 4250 
z
" transform="scale(0.015625)"/>
       <path id="CMR17-6f" d="M 2758 1356 
C 2758 2176 2163 2816 1466 2816 
C 768 2816 173 2176 173 1356 
C 173 551 768 -64 1466 -64 
C 2163 -64 2758 551 2758 1356 
z
M 1466 51 
C 1165 51 909 230 762 480 
C 602 767 582 1126 582 1408 
C 582 1677 595 2010 762 2298 
C 890 2509 1139 2714 1466 2714 
C 1754 2714 1997 2554 2150 2330 
C 2349 2029 2349 1607 2349 1408 
C 2349 1158 2336 775 2163 467 
C 1984 173 1709 51 1466 51 
z
" transform="scale(0.015625)"/>
       <path id="CMR17-64" d="M 1869 4326 
L 1869 4160 
C 2246 4160 2304 4122 2304 3820 
L 2304 2345 
C 2278 2377 2016 2790 1498 2790 
C 845 2790 211 2208 211 1364 
C 211 525 806 -64 1434 -64 
C 1978 -64 2259 337 2291 380 
L 2291 -63 
L 3066 -63 
L 3066 128 
C 2688 128 2630 166 2630 473 
L 2630 4396 
L 1869 4326 
z
M 2291 755 
C 2291 563 2176 390 2029 262 
C 1811 70 1594 38 1472 38 
C 1286 38 621 134 621 1356 
C 621 2612 1363 2688 1530 2688 
C 1824 2688 2061 2522 2208 2291 
C 2291 2157 2291 2138 2291 2023 
L 2291 755 
z
" transform="scale(0.015625)"/>
       <path id="CMR17-44" d="M 333 4352 
L 333 4186 
C 774 4186 845 4186 845 3900 
L 845 452 
C 845 166 774 166 333 166 
L 333 0 
L 2368 0 
C 3398 0 4224 943 4224 2141 
C 4224 3346 3411 4352 2368 4352 
L 333 4352 
z
M 1523 166 
C 1267 166 1254 197 1254 414 
L 1254 3938 
C 1254 4155 1267 4186 1523 4186 
L 2240 4186 
C 2771 4186 3750 3874 3750 2141 
C 3750 1242 3488 879 3366 707 
C 3213 510 2848 166 2240 166 
L 1523 166 
z
" transform="scale(0.015625)"/>
       <path id="CMR17-70" d="M 1408 -1063 
C 998 -1063 973 -1037 973 -789 
L 973 402 
C 1158 134 1427 -38 1766 -38 
C 2406 -38 3053 523 3053 1388 
C 3053 2191 2496 2802 1837 2802 
C 1453 2802 1139 2592 960 2338 
L 960 2802 
L 198 2732 
L 198 2567 
C 576 2567 634 2528 634 2223 
L 634 -789 
C 634 -1031 608 -1063 198 -1063 
L 198 -1228 
C 352 -1216 634 -1216 800 -1216 
C 966 -1216 1254 -1216 1408 -1228 
L 1408 -1063 
z
M 973 2012 
C 973 2102 973 2235 1222 2471 
C 1254 2497 1472 2688 1792 2688 
C 2259 2688 2643 2108 2643 1382 
C 2643 656 2234 64 1728 64 
C 1498 64 1248 172 1056 472 
C 973 612 973 650 973 752 
L 973 2012 
z
" transform="scale(0.015625)"/>
       <path id="CMR17-74" d="M 966 2560 
L 1862 2560 
L 1862 2725 
L 966 2725 
L 966 3904 
L 851 3904 
C 838 3245 614 2668 70 2668 
L 70 2560 
L 627 2560 
L 627 771 
C 627 650 627 -64 1370 -64 
C 1747 -64 1965 306 1965 777 
L 1965 1140 
L 1850 1140 
L 1850 783 
C 1850 344 1677 51 1408 51 
C 1222 51 966 178 966 758 
L 966 2560 
z
" transform="scale(0.015625)"/>
       <path id="CMR17-68" d="M 2656 1933 
C 2656 2259 2592 2790 1837 2790 
C 1312 2790 1056 2368 979 2157 
L 973 2157 
L 973 4396 
L 211 4326 
L 211 4160 
C 589 4160 646 4122 646 3817 
L 646 426 
C 646 184 621 153 211 153 
L 211 -13 
C 365 0 646 0 813 0 
C 979 0 1267 0 1421 -13 
L 1421 153 
C 1011 153 986 178 986 428 
L 986 1658 
C 986 2247 1344 2688 1792 2688 
C 2266 2688 2317 2266 2317 1958 
L 2317 428 
C 2317 184 2291 153 1882 153 
L 1882 -13 
C 2035 0 2317 0 2483 0 
C 2650 0 2938 0 3091 -13 
L 3091 153 
C 2682 153 2656 178 2656 428 
L 2656 1933 
z
" transform="scale(0.015625)"/>
      </defs>
      <use xlink:href="#CMR17-4e" transform="scale(0.996264)"/>
      <use xlink:href="#CMR17-6f" transform="translate(69.07243 0) scale(0.996264)"/>
      <use xlink:href="#CMR17-64" transform="translate(117.365346 0) scale(0.996264)"/>
      <use xlink:href="#CMR17-65" transform="translate(168.260715 0) scale(0.996264)"/>
      <use xlink:href="#CMR17-44" transform="translate(238.822342 0) scale(0.996264)"/>
      <use xlink:href="#CMR17-65" transform="translate(309.215898 0) scale(0.996264)"/>
      <use xlink:href="#CMR17-70" transform="translate(349.701559 0) scale(0.996264)"/>
      <use xlink:href="#CMR17-74" transform="translate(400.596928 0) scale(0.996264)"/>
      <use xlink:href="#CMR17-68" transform="translate(435.877696 0) scale(0.996264)"/>
     </g>
    </g>
   </g>
   <g id="LineCollection_2"/>
   <g id="patch_8">
    <path d="M 717.33359 853.2 
L 738.39359 853.2 
L 759.45359 853.2 
L 759.45359 10.8 
L 738.39359 10.8 
L 717.33359 10.8 
L 717.33359 853.2 
z
" style="fill: none; stroke: #000000; stroke-width: 0.8; stroke-linejoin: miter; stroke-linecap: square"/>
   </g>
  </g>
 </g>
 <defs>
  <clipPath id="pc41789fb65">
   <rect x="10.8" y="99.513605" width="664.972791" height="664.972791"/>
  </clipPath>
  <clipPath id="p7a14dfa931">
   <rect x="717.33359" y="10.8" width="42.12" height="842.4"/>
  </clipPath>
 </defs>
</svg>
