<?xml version="1.0" encoding="utf-8" standalone="no"?>
<!DOCTYPE svg PUBLIC "-//W3C//DTD SVG 1.1//EN"
  "http://www.w3.org/Graphics/SVG/1.1/DTD/svg11.dtd">
<svg xmlns:xlink="http://www.w3.org/1999/xlink" width="864pt" height="864pt" viewBox="0 0 864 864" xmlns="http://www.w3.org/2000/svg" version="1.1">
 <metadata>
  <rdf:RDF xmlns:dc="http://purl.org/dc/elements/1.1/" xmlns:cc="http://creativecommons.org/ns#" xmlns:rdf="http://www.w3.org/1999/02/22-rdf-syntax-ns#">
   <cc:Work>
    <dc:type rdf:resource="http://purl.org/dc/dcmitype/StillImage"/>
    <dc:date>2026-06-09T22:33:01.775762</dc:date>
    <dc:format>image/svg+xml</dc:format>
    <dc:creator>
     <cc:Agent>
      <dc:title>Matplotlib v3.9.2, https://matplotlib.org/</dc:title>
     </cc:Agent>
    </dc:creator>
   </cc:Work>
  </rdf:RDF>
 </metadata>
 <defs>
  <style type="text/css">*{stroke-linejoin: round; stroke-linecap: butt}</style>
 </defs>
 <g id="figure_1">
  <g id="patch_1">
   <path d="M 0 864 
L 864 864 
L 864 0 
L 0 0 
z
" style="fill: #ffffff"/>
  </g>
  <g id="axes_1">
   <g id="patch_2">
    <path d="M 10.8 764.486395 
L 675.772791 764.486395 
L 675.772791 99.513605 
L 10.8 99.513605 
z
" style="fill: #ffffff"/>
   </g>
   <g id="LineCollection_1">
    <path d="M 343.538384 432 
L 226.489666 336.286319 
" clip-path="url(#p73be461768)" style="fill: none; stroke: #808080; stroke-opacity: 0.3"/>
    <path d="M 343.538384 432 
L 442.548916 546.255844 
" clip-path="url(#p73be461768)" style="fill: none; stroke: #808080; stroke-opacity: 0.3"/>
    <path d="M 343.538384 432 
L 492.52666 457.786836 
" clip-path="url(#p73be461768)" style="fill: none; stroke: #808080; stroke-opacity: 0.3"/>
    <path d="M 226.489666 336.286319 
L 645.42076 414.738779 
" clip-path="url(#p73be461768)" style="fill: none; stroke: #808080; stroke-opacity: 0.3"/>
    <path d="M 226.489666 336.286319 
L 641.493938 380.426327 
" clip-path="url(#p73be461768)" style="fill: none; stroke: #808080; stroke-opacity: 0.3"/>
    <path d="M 226.489666 336.286319 
L 633.68229 346.806845 
" clip-path="url(#p73be461768)" style="fill: none; stroke: #808080; stroke-opacity: 0.3"/>
    <path d="M 226.489666 336.286319 
L 622.069814 314.279313 
" clip-path="url(#p73be461768)" style="fill: none; stroke: #808080; stroke-opacity: 0.3"/>
    <path d="M 226.489666 336.286319 
L 606.845501 283.30571 
" clip-path="url(#p73be461768)" style="fill: none; stroke: #808080; stroke-opacity: 0.3"/>
    <path d="M 226.489666 336.286319 
L 588.177344 254.264021 
" clip-path="url(#p73be461768)" style="fill: none; stroke: #808080; stroke-opacity: 0.3"/>
    <path d="M 226.489666 336.286319 
L 566.31733 227.532227 
" clip-path="url(#p73be461768)" style="fill: none; stroke: #808080; stroke-opacity: 0.3"/>
    <path d="M 226.489666 336.286319 
L 541.559448 203.467313 
" clip-path="url(#p73be461768)" style="fill: none; stroke: #808080; stroke-opacity: 0.3"/>
    <path d="M 226.489666 336.286319 
L 514.218681 182.384265 
" clip-path="url(#p73be461768)" style="fill: none; stroke: #808080; stroke-opacity: 0.3"/>
    <path d="M 226.489666 336.286319 
L 484.652016 164.556069 
" clip-path="url(#p73be461768)" style="fill: none; stroke: #808080; stroke-opacity: 0.3"/>
    <path d="M 226.489666 336.286319 
L 453.237433 150.213717 
" clip-path="url(#p73be461768)" style="fill: none; stroke: #808080; stroke-opacity: 0.3"/>
    <path d="M 226.489666 336.286319 
L 420.415915 139.546198 
" clip-path="url(#p73be461768)" style="fill: none; stroke: #808080; stroke-opacity: 0.3"/>
    <path d="M 226.489666 336.286319 
L 386.565442 132.679508 
" clip-path="url(#p73be461768)" style="fill: none; stroke: #808080; stroke-opacity: 0.3"/>
    <path d="M 226.489666 336.286319 
L 352.168994 129.739641 
" clip-path="url(#p73be461768)" style="fill: none; stroke: #808080; stroke-opacity: 0.3"/>
    <path d="M 226.489666 336.286319 
L 317.667551 130.726596 
" clip-path="url(#p73be461768)" style="fill: none; stroke: #808080; stroke-opacity: 0.3"/>
    <path d="M 226.489666 336.286319 
L 283.481094 135.640374 
" clip-path="url(#p73be461768)" style="fill: none; stroke: #808080; stroke-opacity: 0.3"/>
    <path d="M 226.489666 336.286319 
L 250.092601 144.417978 
" clip-path="url(#p73be461768)" style="fill: none; stroke: #808080; stroke-opacity: 0.3"/>
    <path d="M 226.489666 336.286319 
L 217.922053 156.933413 
" clip-path="url(#p73be461768)" style="fill: none; stroke: #808080; stroke-opacity: 0.3"/>
    <path d="M 226.489666 336.286319 
L 187.389431 173.039687 
" clip-path="url(#p73be461768)" style="fill: none; stroke: #808080; stroke-opacity: 0.3"/>
    <path d="M 226.489666 336.286319 
L 158.893717 192.526807 
" clip-path="url(#p73be461768)" style="fill: none; stroke: #808080; stroke-opacity: 0.3"/>
    <path d="M 226.489666 336.286319 
L 132.791895 215.142786 
" clip-path="url(#p73be461768)" style="fill: none; stroke: #808080; stroke-opacity: 0.3"/>
    <path d="M 226.489666 336.286319 
L 109.440948 240.572639 
" clip-path="url(#p73be461768)" style="fill: none; stroke: #808080; stroke-opacity: 0.3"/>
    <path d="M 226.489666 336.286319 
L 89.155864 268.522378 
" clip-path="url(#p73be461768)" style="fill: none; stroke: #808080; stroke-opacity: 0.3"/>
    <path d="M 226.489666 336.286319 
L 72.167631 298.572021 
" clip-path="url(#p73be461768)" style="fill: none; stroke: #808080; stroke-opacity: 0.3"/>
    <path d="M 226.489666 336.286319 
L 58.728237 330.385586 
" clip-path="url(#p73be461768)" style="fill: none; stroke: #808080; stroke-opacity: 0.3"/>
    <path d="M 226.489666 336.286319 
L 49.005676 363.501091 
" clip-path="url(#p73be461768)" style="fill: none; stroke: #808080; stroke-opacity: 0.3"/>
    <path d="M 226.489666 336.286319 
L 43.125941 397.519556 
" clip-path="url(#p73be461768)" style="fill: none; stroke: #808080; stroke-opacity: 0.3"/>
    <path d="M 226.489666 336.286319 
L 41.15203 432 
" clip-path="url(#p73be461768)" style="fill: none; stroke: #808080; stroke-opacity: 0.3"/>
    <path d="M 226.489666 336.286319 
L 43.125941 466.459445 
" clip-path="url(#p73be461768)" style="fill: none; stroke: #808080; stroke-opacity: 0.3"/>
    <path d="M 226.489666 336.286319 
L 49.005676 500.47791 
" clip-path="url(#p73be461768)" style="fill: none; stroke: #808080; stroke-opacity: 0.3"/>
    <path d="M 226.489666 336.286319 
L 58.728237 533.614414 
" clip-path="url(#p73be461768)" style="fill: none; stroke: #808080; stroke-opacity: 0.3"/>
    <path d="M 226.489666 336.286319 
L 72.167631 565.417479 
" clip-path="url(#p73be461768)" style="fill: none; stroke: #808080; stroke-opacity: 0.3"/>
    <path d="M 226.489666 336.286319 
L 89.155864 595.479722 
" clip-path="url(#p73be461768)" style="fill: none; stroke: #808080; stroke-opacity: 0.3"/>
    <path d="M 226.489666 336.286319 
L 109.440948 623.412662 
" clip-path="url(#p73be461768)" style="fill: none; stroke: #808080; stroke-opacity: 0.3"/>
    <path d="M 226.489666 336.286319 
L 132.791895 648.848814 
" clip-path="url(#p73be461768)" style="fill: none; stroke: #808080; stroke-opacity: 0.3"/>
    <path d="M 226.489666 336.286319 
L 158.893717 671.458494 
" clip-path="url(#p73be461768)" style="fill: none; stroke: #808080; stroke-opacity: 0.3"/>
    <path d="M 226.489666 336.286319 
L 187.389431 690.945614 
" clip-path="url(#p73be461768)" style="fill: none; stroke: #808080; stroke-opacity: 0.3"/>
    <path d="M 226.489666 336.286319 
L 217.922053 707.058187 
" clip-path="url(#p73be461768)" style="fill: none; stroke: #808080; stroke-opacity: 0.3"/>
    <path d="M 226.489666 336.286319 
L 250.092601 719.584122 
" clip-path="url(#p73be461768)" style="fill: none; stroke: #808080; stroke-opacity: 0.3"/>
    <path d="M 226.489666 336.286319 
L 283.481094 728.361726 
" clip-path="url(#p73be461768)" style="fill: none; stroke: #808080; stroke-opacity: 0.3"/>
    <path d="M 226.489666 336.286319 
L 317.667551 733.273404 
" clip-path="url(#p73be461768)" style="fill: none; stroke: #808080; stroke-opacity: 0.3"/>
    <path d="M 226.489666 336.286319 
L 352.168994 734.260359 
" clip-path="url(#p73be461768)" style="fill: none; stroke: #808080; stroke-opacity: 0.3"/>
    <path d="M 226.489666 336.286319 
L 386.565442 731.305793 
" clip-path="url(#p73be461768)" style="fill: none; stroke: #808080; stroke-opacity: 0.3"/>
    <path d="M 442.548916 546.255844 
L 420.415915 724.449602 
" clip-path="url(#p73be461768)" style="fill: none; stroke: #808080; stroke-opacity: 0.3"/>
    <path d="M 442.548916 546.255844 
L 453.237433 713.779984 
" clip-path="url(#p73be461768)" style="fill: none; stroke: #808080; stroke-opacity: 0.3"/>
    <path d="M 442.548916 546.255844 
L 484.652016 699.437631 
" clip-path="url(#p73be461768)" style="fill: none; stroke: #808080; stroke-opacity: 0.3"/>
    <path d="M 442.548916 546.255844 
L 514.218681 681.609435 
" clip-path="url(#p73be461768)" style="fill: none; stroke: #808080; stroke-opacity: 0.3"/>
    <path d="M 442.548916 546.255844 
L 541.559448 660.526387 
" clip-path="url(#p73be461768)" style="fill: none; stroke: #808080; stroke-opacity: 0.3"/>
    <path d="M 442.548916 546.255844 
L 566.31733 636.463573 
" clip-path="url(#p73be461768)" style="fill: none; stroke: #808080; stroke-opacity: 0.3"/>
    <path d="M 442.548916 546.255844 
L 588.177344 609.735979 
" clip-path="url(#p73be461768)" style="fill: none; stroke: #808080; stroke-opacity: 0.3"/>
    <path d="M 442.548916 546.255844 
L 606.845501 580.69009 
" clip-path="url(#p73be461768)" style="fill: none; stroke: #808080; stroke-opacity: 0.3"/>
    <path d="M 442.548916 546.255844 
L 622.069814 549.699688 
" clip-path="url(#p73be461768)" style="fill: none; stroke: #808080; stroke-opacity: 0.3"/>
    <path d="M 492.52666 457.786836 
L 633.68229 517.193155 
" clip-path="url(#p73be461768)" style="fill: none; stroke: #808080; stroke-opacity: 0.3"/>
    <path d="M 492.52666 457.786836 
L 641.493938 483.552673 
" clip-path="url(#p73be461768)" style="fill: none; stroke: #808080; stroke-opacity: 0.3"/>
    <path d="M 492.52666 457.786836 
L 645.42076 449.261221 
" clip-path="url(#p73be461768)" style="fill: none; stroke: #808080; stroke-opacity: 0.3"/>
   </g>
   <g id="matplotlib.axis_1">
    <g id="xtick_1"/>
    <g id="xtick_2"/>
    <g id="xtick_3"/>
    <g id="xtick_4"/>
    <g id="xtick_5"/>
    <g id="xtick_6"/>
   </g>
   <g id="matplotlib.axis_2">
    <g id="ytick_1"/>
    <g id="ytick_2"/>
    <g id="ytick_3"/>
    <g id="ytick_4"/>
    <g id="ytick_5"/>
    <g id="ytick_6"/>
   </g>
   <g id="PathCollection_1">
    <path d="M 343.538384 443.18034 
C 346.503445 443.18034 349.347464 442.002309 351.444078 439.905694 
C 353.540693 437.80908 354.718724 434.965061 354.718724 432 
C 354.718724 429.034939 353.540693 426.19092 351.444078 424.094306 
C 349.347464 421.997691 346.503445 420.81966 343.538384 420.81966 
C 340.573323 420.81966 337.729304 421.997691 335.63269 424.094306 
C 333.536075 426.19092 332.358044 429.034939 332.358044 432 
C 332.358044 434.965061 333.536075 437.80908 335.63269 439.905694 
C 337.729304 442.002309 340.573323 443.18034 343.538384 443.18034 
z
" clip-path="url(#p73be461768)" style="fill: #ad35ca; stroke: #ad35ca"/>
    <path d="M 226.489666 343.357387 
C 228.364935 343.357387 230.163651 342.612335 231.489666 341.286319 
C 232.815682 339.960304 233.560734 338.161589 233.560734 336.286319 
C 233.560734 334.41105 232.815682 332.612335 231.489666 331.286319 
C 230.163651 329.960304 228.364935 329.215252 226.489666 329.215252 
C 224.614397 329.215252 222.815682 329.960304 221.489666 331.286319 
C 220.163651 332.612335 219.418598 334.41105 219.418598 336.286319 
C 219.418598 338.161589 220.163651 339.960304 221.489666 341.286319 
C 222.815682 342.612335 224.614397 343.357387 226.489666 343.357387 
z
" clip-path="url(#p73be461768)" style="fill: #8f81b5; stroke: #8f81b5"/>
    <path d="M 645.42076 419.210915 
C 646.606785 419.210915 647.744392 418.739702 648.583038 417.901057 
C 649.421684 417.062411 649.892896 415.924803 649.892896 414.738779 
C 649.892896 413.552755 649.421684 412.415147 648.583038 411.576501 
C 647.744392 410.737855 646.606785 410.266643 645.42076 410.266643 
C 644.234736 410.266643 643.097129 410.737855 642.258483 411.576501 
C 641.419837 412.415147 640.948624 413.552755 640.948624 414.738779 
C 640.948624 415.924803 641.419837 417.062411 642.258483 417.901057 
C 643.097129 418.739702 644.234736 419.210915 645.42076 419.210915 
z
" clip-path="url(#p73be461768)" style="fill: #879dba; stroke: #879dba"/>
    <path d="M 641.493938 384.898463 
C 642.679962 384.898463 643.817569 384.427251 644.656215 383.588605 
C 645.494861 382.749959 645.966074 381.612352 645.966074 380.426327 
C 645.966074 379.240303 645.494861 378.102696 644.656215 377.26405 
C 643.817569 376.425404 642.679962 375.954191 641.493938 375.954191 
C 640.307913 375.954191 639.170306 376.425404 638.33166 377.26405 
C 637.493014 378.102696 637.021802 379.240303 637.021802 380.426327 
C 637.021802 381.612352 637.493014 382.749959 638.33166 383.588605 
C 639.170306 384.427251 640.307913 384.898463 641.493938 384.898463 
z
" clip-path="url(#p73be461768)" style="fill: #879dba; stroke: #879dba"/>
    <path d="M 633.68229 351.278981 
C 634.868314 351.278981 636.005922 350.807768 636.844568 349.969122 
C 637.683214 349.130476 638.154426 347.992869 638.154426 346.806845 
C 638.154426 345.62082 637.683214 344.483213 636.844568 343.644567 
C 636.005922 342.805921 634.868314 342.334709 633.68229 342.334709 
C 632.496266 342.334709 631.358658 342.805921 630.520013 343.644567 
C 629.681367 344.483213 629.210154 345.62082 629.210154 346.806845 
C 629.210154 347.992869 629.681367 349.130476 630.520013 349.969122 
C 631.358658 350.807768 632.496266 351.278981 633.68229 351.278981 
z
" clip-path="url(#p73be461768)" style="fill: #879dba; stroke: #879dba"/>
    <path d="M 622.069814 318.751449 
C 623.255839 318.751449 624.393446 318.280236 625.232092 317.44159 
C 626.070738 316.602944 626.54195 315.465337 626.54195 314.279313 
C 626.54195 313.093288 626.070738 311.955681 625.232092 311.117035 
C 624.393446 310.278389 623.255839 309.807177 622.069814 309.807177 
C 620.88379 309.807177 619.746182 310.278389 618.907537 311.117035 
C 618.068891 311.955681 617.597678 313.093288 617.597678 314.279313 
C 617.597678 315.465337 618.068891 316.602944 618.907537 317.44159 
C 619.746182 318.280236 620.88379 318.751449 622.069814 318.751449 
z
" clip-path="url(#p73be461768)" style="fill: #879dba; stroke: #879dba"/>
    <path d="M 606.845501 287.777846 
C 608.031526 287.777846 609.169133 287.306634 610.007779 286.467988 
C 610.846425 285.629342 611.317637 284.491735 611.317637 283.30571 
C 611.317637 282.119686 610.846425 280.982079 610.007779 280.143433 
C 609.169133 279.304787 608.031526 278.833574 606.845501 278.833574 
C 605.659477 278.833574 604.521869 279.304787 603.683224 280.143433 
C 602.844578 280.982079 602.373365 282.119686 602.373365 283.30571 
C 602.373365 284.491735 602.844578 285.629342 603.683224 286.467988 
C 604.521869 287.306634 605.659477 287.777846 606.845501 287.777846 
z
" clip-path="url(#p73be461768)" style="fill: #879dba; stroke: #879dba"/>
    <path d="M 588.177344 258.736157 
C 589.363368 258.736157 590.500976 258.264944 591.339621 257.426299 
C 592.178267 256.587653 592.64948 255.450045 592.64948 254.264021 
C 592.64948 253.077997 592.178267 251.940389 591.339621 251.101743 
C 590.500976 250.263097 589.363368 249.791885 588.177344 249.791885 
C 586.991319 249.791885 585.853712 250.263097 585.015066 251.101743 
C 584.17642 251.940389 583.705208 253.077997 583.705208 254.264021 
C 583.705208 255.450045 584.17642 256.587653 585.015066 257.426299 
C 585.853712 258.264944 586.991319 258.736157 588.177344 258.736157 
z
" clip-path="url(#p73be461768)" style="fill: #879dba; stroke: #879dba"/>
    <path d="M 566.31733 232.004363 
C 567.503355 232.004363 568.640962 231.533151 569.479608 230.694505 
C 570.318254 229.855859 570.789466 228.718252 570.789466 227.532227 
C 570.789466 226.346203 570.318254 225.208596 569.479608 224.36995 
C 568.640962 223.531304 567.503355 223.060091 566.31733 223.060091 
C 565.131306 223.060091 563.993698 223.531304 563.155053 224.36995 
C 562.316407 225.208596 561.845194 226.346203 561.845194 227.532227 
C 561.845194 228.718252 562.316407 229.855859 563.155053 230.694505 
C 563.993698 231.533151 565.131306 232.004363 566.31733 232.004363 
z
" clip-path="url(#p73be461768)" style="fill: #879dba; stroke: #879dba"/>
    <path d="M 541.559448 207.939449 
C 542.745472 207.939449 543.883079 207.468237 544.721725 206.629591 
C 545.560371 205.790945 546.031584 204.653338 546.031584 203.467313 
C 546.031584 202.281289 545.560371 201.143682 544.721725 200.305036 
C 543.883079 199.46639 542.745472 198.995177 541.559448 198.995177 
C 540.373423 198.995177 539.235816 199.46639 538.39717 200.305036 
C 537.558524 201.143682 537.087312 202.281289 537.087312 203.467313 
C 537.087312 204.653338 537.558524 205.790945 538.39717 206.629591 
C 539.235816 207.468237 540.373423 207.939449 541.559448 207.939449 
z
" clip-path="url(#p73be461768)" style="fill: #879dba; stroke: #879dba"/>
    <path d="M 514.218681 186.856401 
C 515.404706 186.856401 516.542313 186.385188 517.380959 185.546542 
C 518.219605 184.707897 518.690817 183.570289 518.690817 182.384265 
C 518.690817 181.198241 518.219605 180.060633 517.380959 179.221987 
C 516.542313 178.383341 515.404706 177.912129 514.218681 177.912129 
C 513.032657 177.912129 511.89505 178.383341 511.056404 179.221987 
C 510.217758 180.060633 509.746545 181.198241 509.746545 182.384265 
C 509.746545 183.570289 510.217758 184.707897 511.056404 185.546542 
C 511.89505 186.385188 513.032657 186.856401 514.218681 186.856401 
z
" clip-path="url(#p73be461768)" style="fill: #879dba; stroke: #879dba"/>
    <path d="M 484.652016 169.028205 
C 485.83804 169.028205 486.975648 168.556993 487.814293 167.718347 
C 488.652939 166.879701 489.124152 165.742094 489.124152 164.556069 
C 489.124152 163.370045 488.652939 162.232438 487.814293 161.393792 
C 486.975648 160.555146 485.83804 160.083933 484.652016 160.083933 
C 483.465991 160.083933 482.328384 160.555146 481.489738 161.393792 
C 480.651092 162.232438 480.17988 163.370045 480.17988 164.556069 
C 480.17988 165.742094 480.651092 166.879701 481.489738 167.718347 
C 482.328384 168.556993 483.465991 169.028205 484.652016 169.028205 
z
" clip-path="url(#p73be461768)" style="fill: #879dba; stroke: #879dba"/>
    <path d="M 453.237433 154.685853 
C 454.423458 154.685853 455.561065 154.21464 456.399711 153.375994 
C 457.238357 152.537348 457.709569 151.399741 457.709569 150.213717 
C 457.709569 149.027692 457.238357 147.890085 456.399711 147.051439 
C 455.561065 146.212793 454.423458 145.741581 453.237433 145.741581 
C 452.051409 145.741581 450.913802 146.212793 450.075156 147.051439 
C 449.23651 147.890085 448.765297 149.027692 448.765297 150.213717 
C 448.765297 151.399741 449.23651 152.537348 450.075156 153.375994 
C 450.913802 154.21464 452.051409 154.685853 453.237433 154.685853 
z
" clip-path="url(#p73be461768)" style="fill: #879dba; stroke: #879dba"/>
    <path d="M 420.415915 144.018334 
C 421.601939 144.018334 422.739546 143.547122 423.578192 142.708476 
C 424.416838 141.86983 424.888051 140.732222 424.888051 139.546198 
C 424.888051 138.360174 424.416838 137.222566 423.578192 136.38392 
C 422.739546 135.545275 421.601939 135.074062 420.415915 135.074062 
C 419.22989 135.074062 418.092283 135.545275 417.253637 136.38392 
C 416.414991 137.222566 415.943779 138.360174 415.943779 139.546198 
C 415.943779 140.732222 416.414991 141.86983 417.253637 142.708476 
C 418.092283 143.547122 419.22989 144.018334 420.415915 144.018334 
z
" clip-path="url(#p73be461768)" style="fill: #879dba; stroke: #879dba"/>
    <path d="M 386.565442 137.151644 
C 387.751467 137.151644 388.889074 136.680431 389.72772 135.841786 
C 390.566366 135.00314 391.037578 133.865532 391.037578 132.679508 
C 391.037578 131.493484 390.566366 130.355876 389.72772 129.51723 
C 388.889074 128.678584 387.751467 128.207372 386.565442 128.207372 
C 385.379418 128.207372 384.24181 128.678584 383.403165 129.51723 
C 382.564519 130.355876 382.093306 131.493484 382.093306 132.679508 
C 382.093306 133.865532 382.564519 135.00314 383.403165 135.841786 
C 384.24181 136.680431 385.379418 137.151644 386.565442 137.151644 
z
" clip-path="url(#p73be461768)" style="fill: #879dba; stroke: #879dba"/>
    <path d="M 352.168994 134.211777 
C 353.355019 134.211777 354.492626 133.740564 355.331272 132.901918 
C 356.169918 132.063272 356.64113 130.925665 356.64113 129.739641 
C 356.64113 128.553616 356.169918 127.416009 355.331272 126.577363 
C 354.492626 125.738717 353.355019 125.267505 352.168994 125.267505 
C 350.98297 125.267505 349.845363 125.738717 349.006717 126.577363 
C 348.168071 127.416009 347.696859 128.553616 347.696859 129.739641 
C 347.696859 130.925665 348.168071 132.063272 349.006717 132.901918 
C 349.845363 133.740564 350.98297 134.211777 352.168994 134.211777 
z
" clip-path="url(#p73be461768)" style="fill: #879dba; stroke: #879dba"/>
    <path d="M 317.667551 135.198732 
C 318.853576 135.198732 319.991183 134.72752 320.829829 133.888874 
C 321.668475 133.050228 322.139687 131.91262 322.139687 130.726596 
C 322.139687 129.540572 321.668475 128.402964 320.829829 127.564318 
C 319.991183 126.725673 318.853576 126.25446 317.667551 126.25446 
C 316.481527 126.25446 315.34392 126.725673 314.505274 127.564318 
C 313.666628 128.402964 313.195416 129.540572 313.195416 130.726596 
C 313.195416 131.91262 313.666628 133.050228 314.505274 133.888874 
C 315.34392 134.72752 316.481527 135.198732 317.667551 135.198732 
z
" clip-path="url(#p73be461768)" style="fill: #879dba; stroke: #879dba"/>
    <path d="M 283.481094 140.11251 
C 284.667119 140.11251 285.804726 139.641298 286.643372 138.802652 
C 287.482018 137.964006 287.95323 136.826399 287.95323 135.640374 
C 287.95323 134.45435 287.482018 133.316742 286.643372 132.478097 
C 285.804726 131.639451 284.667119 131.168238 283.481094 131.168238 
C 282.29507 131.168238 281.157462 131.639451 280.318817 132.478097 
C 279.480171 133.316742 279.008958 134.45435 279.008958 135.640374 
C 279.008958 136.826399 279.480171 137.964006 280.318817 138.802652 
C 281.157462 139.641298 282.29507 140.11251 283.481094 140.11251 
z
" clip-path="url(#p73be461768)" style="fill: #879dba; stroke: #879dba"/>
    <path d="M 250.092601 148.890114 
C 251.278625 148.890114 252.416233 148.418902 253.254879 147.580256 
C 254.093525 146.74161 254.564737 145.604003 254.564737 144.417978 
C 254.564737 143.231954 254.093525 142.094346 253.254879 141.255701 
C 252.416233 140.417055 251.278625 139.945842 250.092601 139.945842 
C 248.906577 139.945842 247.768969 140.417055 246.930323 141.255701 
C 246.091678 142.094346 245.620465 143.231954 245.620465 144.417978 
C 245.620465 145.604003 246.091678 146.74161 246.930323 147.580256 
C 247.768969 148.418902 248.906577 148.890114 250.092601 148.890114 
z
" clip-path="url(#p73be461768)" style="fill: #879dba; stroke: #879dba"/>
    <path d="M 217.922053 161.405549 
C 219.108077 161.405549 220.245685 160.934337 221.084331 160.095691 
C 221.922976 159.257045 222.394189 158.119438 222.394189 156.933413 
C 222.394189 155.747389 221.922976 154.609782 221.084331 153.771136 
C 220.245685 152.93249 219.108077 152.461277 217.922053 152.461277 
C 216.736029 152.461277 215.598421 152.93249 214.759775 153.771136 
C 213.921129 154.609782 213.449917 155.747389 213.449917 156.933413 
C 213.449917 158.119438 213.921129 159.257045 214.759775 160.095691 
C 215.598421 160.934337 216.736029 161.405549 217.922053 161.405549 
z
" clip-path="url(#p73be461768)" style="fill: #879dba; stroke: #879dba"/>
    <path d="M 187.389431 177.511822 
C 188.575455 177.511822 189.713063 177.04061 190.551708 176.201964 
C 191.390354 175.363318 191.861567 174.225711 191.861567 173.039687 
C 191.861567 171.853662 191.390354 170.716055 190.551708 169.877409 
C 189.713063 169.038763 188.575455 168.567551 187.389431 168.567551 
C 186.203406 168.567551 185.065799 169.038763 184.227153 169.877409 
C 183.388507 170.716055 182.917295 171.853662 182.917295 173.039687 
C 182.917295 174.225711 183.388507 175.363318 184.227153 176.201964 
C 185.065799 177.04061 186.203406 177.511822 187.389431 177.511822 
z
" clip-path="url(#p73be461768)" style="fill: #879dba; stroke: #879dba"/>
    <path d="M 158.893717 196.998943 
C 160.079741 196.998943 161.217349 196.527731 162.055994 195.689085 
C 162.89464 194.850439 163.365853 193.712831 163.365853 192.526807 
C 163.365853 191.340783 162.89464 190.203175 162.055994 189.364529 
C 161.217349 188.525884 160.079741 188.054671 158.893717 188.054671 
C 157.707692 188.054671 156.570085 188.525884 155.731439 189.364529 
C 154.892793 190.203175 154.421581 191.340783 154.421581 192.526807 
C 154.421581 193.712831 154.892793 194.850439 155.731439 195.689085 
C 156.570085 196.527731 157.707692 196.998943 158.893717 196.998943 
z
" clip-path="url(#p73be461768)" style="fill: #879dba; stroke: #879dba"/>
    <path d="M 132.791895 219.614922 
C 133.977919 219.614922 135.115526 219.14371 135.954172 218.305064 
C 136.792818 217.466418 137.264031 216.328811 137.264031 215.142786 
C 137.264031 213.956762 136.792818 212.819155 135.954172 211.980509 
C 135.115526 211.141863 133.977919 210.670651 132.791895 210.670651 
C 131.60587 210.670651 130.468263 211.141863 129.629617 211.980509 
C 128.790971 212.819155 128.319759 213.956762 128.319759 215.142786 
C 128.319759 216.328811 128.790971 217.466418 129.629617 218.305064 
C 130.468263 219.14371 131.60587 219.614922 132.791895 219.614922 
z
" clip-path="url(#p73be461768)" style="fill: #879dba; stroke: #879dba"/>
    <path d="M 109.440948 245.044775 
C 110.626973 245.044775 111.76458 244.573562 112.603226 243.734917 
C 113.441872 242.896271 113.913084 241.758663 113.913084 240.572639 
C 113.913084 239.386615 113.441872 238.249007 112.603226 237.410361 
C 111.76458 236.571715 110.626973 236.100503 109.440948 236.100503 
C 108.254924 236.100503 107.117317 236.571715 106.278671 237.410361 
C 105.440025 238.249007 104.968813 239.386615 104.968813 240.572639 
C 104.968813 241.758663 105.440025 242.896271 106.278671 243.734917 
C 107.117317 244.573562 108.254924 245.044775 109.440948 245.044775 
z
" clip-path="url(#p73be461768)" style="fill: #879dba; stroke: #879dba"/>
    <path d="M 89.155864 272.994513 
C 90.341888 272.994513 91.479496 272.523301 92.318142 271.684655 
C 93.156787 270.846009 93.628 269.708402 93.628 268.522378 
C 93.628 267.336353 93.156787 266.198746 92.318142 265.3601 
C 91.479496 264.521454 90.341888 264.050242 89.155864 264.050242 
C 87.96984 264.050242 86.832232 264.521454 85.993586 265.3601 
C 85.15494 266.198746 84.683728 267.336353 84.683728 268.522378 
C 84.683728 269.708402 85.15494 270.846009 85.993586 271.684655 
C 86.832232 272.523301 87.96984 272.994513 89.155864 272.994513 
z
" clip-path="url(#p73be461768)" style="fill: #879dba; stroke: #879dba"/>
    <path d="M 72.167631 303.044157 
C 73.353655 303.044157 74.491262 302.572945 75.329908 301.734299 
C 76.168554 300.895653 76.639767 299.758046 76.639767 298.572021 
C 76.639767 297.385997 76.168554 296.24839 75.329908 295.409744 
C 74.491262 294.571098 73.353655 294.099885 72.167631 294.099885 
C 70.981606 294.099885 69.843999 294.571098 69.005353 295.409744 
C 68.166707 296.24839 67.695495 297.385997 67.695495 298.572021 
C 67.695495 299.758046 68.166707 300.895653 69.005353 301.734299 
C 69.843999 302.572945 70.981606 303.044157 72.167631 303.044157 
z
" clip-path="url(#p73be461768)" style="fill: #879dba; stroke: #879dba"/>
    <path d="M 58.728237 334.857722 
C 59.914261 334.857722 61.051869 334.386509 61.890515 333.547863 
C 62.729161 332.709218 63.200373 331.57161 63.200373 330.385586 
C 63.200373 329.199561 62.729161 328.061954 61.890515 327.223308 
C 61.051869 326.384662 59.914261 325.91345 58.728237 325.91345 
C 57.542213 325.91345 56.404605 326.384662 55.565959 327.223308 
C 54.727314 328.061954 54.256101 329.199561 54.256101 330.385586 
C 54.256101 331.57161 54.727314 332.709218 55.565959 333.547863 
C 56.404605 334.386509 57.542213 334.857722 58.728237 334.857722 
z
" clip-path="url(#p73be461768)" style="fill: #879dba; stroke: #879dba"/>
    <path d="M 49.005676 367.973227 
C 50.1917 367.973227 51.329308 367.502015 52.167953 366.663369 
C 53.006599 365.824723 53.477812 364.687116 53.477812 363.501091 
C 53.477812 362.315067 53.006599 361.177459 52.167953 360.338814 
C 51.329308 359.500168 50.1917 359.028955 49.005676 359.028955 
C 47.819652 359.028955 46.682044 359.500168 45.843398 360.338814 
C 45.004752 361.177459 44.53354 362.315067 44.53354 363.501091 
C 44.53354 364.687116 45.004752 365.824723 45.843398 366.663369 
C 46.682044 367.502015 47.819652 367.973227 49.005676 367.973227 
z
" clip-path="url(#p73be461768)" style="fill: #879dba; stroke: #879dba"/>
    <path d="M 43.125941 401.991692 
C 44.311965 401.991692 45.449573 401.52048 46.288219 400.681834 
C 47.126865 399.843188 47.598077 398.70558 47.598077 397.519556 
C 47.598077 396.333532 47.126865 395.195924 46.288219 394.357278 
C 45.449573 393.518633 44.311965 393.04742 43.125941 393.04742 
C 41.939917 393.04742 40.802309 393.518633 39.963664 394.357278 
C 39.125018 395.195924 38.653805 396.333532 38.653805 397.519556 
C 38.653805 398.70558 39.125018 399.843188 39.963664 400.681834 
C 40.802309 401.52048 41.939917 401.991692 43.125941 401.991692 
z
" clip-path="url(#p73be461768)" style="fill: #879dba; stroke: #879dba"/>
    <path d="M 41.15203 436.472136 
C 42.338055 436.472136 43.475662 436.000923 44.314308 435.162278 
C 45.152954 434.323632 45.624166 433.186024 45.624166 432 
C 45.624166 430.813976 45.152954 429.676368 44.314308 428.837722 
C 43.475662 427.999077 42.338055 427.527864 41.15203 427.527864 
C 39.966006 427.527864 38.828398 427.999077 37.989753 428.837722 
C 37.151107 429.676368 36.679894 430.813976 36.679894 432 
C 36.679894 433.186024 37.151107 434.323632 37.989753 435.162278 
C 38.828398 436.000923 39.966006 436.472136 41.15203 436.472136 
z
" clip-path="url(#p73be461768)" style="fill: #879dba; stroke: #879dba"/>
    <path d="M 43.125941 470.931581 
C 44.311965 470.931581 45.449573 470.460368 46.288219 469.621723 
C 47.126865 468.783077 47.598077 467.645469 47.598077 466.459445 
C 47.598077 465.273421 47.126865 464.135813 46.288219 463.297167 
C 45.449573 462.458521 44.311965 461.987309 43.125941 461.987309 
C 41.939917 461.987309 40.802309 462.458521 39.963664 463.297167 
C 39.125018 464.135813 38.653805 465.273421 38.653805 466.459445 
C 38.653805 467.645469 39.125018 468.783077 39.963664 469.621723 
C 40.802309 470.460368 41.939917 470.931581 43.125941 470.931581 
z
" clip-path="url(#p73be461768)" style="fill: #879dba; stroke: #879dba"/>
    <path d="M 49.005676 504.950046 
C 50.1917 504.950046 51.329308 504.478833 52.167953 503.640187 
C 53.006599 502.801542 53.477812 501.663934 53.477812 500.47791 
C 53.477812 499.291885 53.006599 498.154278 52.167953 497.315632 
C 51.329308 496.476986 50.1917 496.005774 49.005676 496.005774 
C 47.819652 496.005774 46.682044 496.476986 45.843398 497.315632 
C 45.004752 498.154278 44.53354 499.291885 44.53354 500.47791 
C 44.53354 501.663934 45.004752 502.801542 45.843398 503.640187 
C 46.682044 504.478833 47.819652 504.950046 49.005676 504.950046 
z
" clip-path="url(#p73be461768)" style="fill: #879dba; stroke: #879dba"/>
    <path d="M 58.728237 538.08655 
C 59.914261 538.08655 61.051869 537.615338 61.890515 536.776692 
C 62.729161 535.938046 63.200373 534.800439 63.200373 533.614414 
C 63.200373 532.42839 62.729161 531.290782 61.890515 530.452137 
C 61.051869 529.613491 59.914261 529.142278 58.728237 529.142278 
C 57.542213 529.142278 56.404605 529.613491 55.565959 530.452137 
C 54.727314 531.290782 54.256101 532.42839 54.256101 533.614414 
C 54.256101 534.800439 54.727314 535.938046 55.565959 536.776692 
C 56.404605 537.615338 57.542213 538.08655 58.728237 538.08655 
z
" clip-path="url(#p73be461768)" style="fill: #879dba; stroke: #879dba"/>
    <path d="M 72.167631 569.889615 
C 73.353655 569.889615 74.491262 569.418403 75.329908 568.579757 
C 76.168554 567.741111 76.639767 566.603503 76.639767 565.417479 
C 76.639767 564.231455 76.168554 563.093847 75.329908 562.255201 
C 74.491262 561.416556 73.353655 560.945343 72.167631 560.945343 
C 70.981606 560.945343 69.843999 561.416556 69.005353 562.255201 
C 68.166707 563.093847 67.695495 564.231455 67.695495 565.417479 
C 67.695495 566.603503 68.166707 567.741111 69.005353 568.579757 
C 69.843999 569.418403 70.981606 569.889615 72.167631 569.889615 
z
" clip-path="url(#p73be461768)" style="fill: #879dba; stroke: #879dba"/>
    <path d="M 89.155864 599.951858 
C 90.341888 599.951858 91.479496 599.480646 92.318142 598.642 
C 93.156787 597.803354 93.628 596.665747 93.628 595.479722 
C 93.628 594.293698 93.156787 593.156091 92.318142 592.317445 
C 91.479496 591.478799 90.341888 591.007586 89.155864 591.007586 
C 87.96984 591.007586 86.832232 591.478799 85.993586 592.317445 
C 85.15494 593.156091 84.683728 594.293698 84.683728 595.479722 
C 84.683728 596.665747 85.15494 597.803354 85.993586 598.642 
C 86.832232 599.480646 87.96984 599.951858 89.155864 599.951858 
z
" clip-path="url(#p73be461768)" style="fill: #879dba; stroke: #879dba"/>
    <path d="M 109.440948 627.884798 
C 110.626973 627.884798 111.76458 627.413585 112.603226 626.574939 
C 113.441872 625.736294 113.913084 624.598686 113.913084 623.412662 
C 113.913084 622.226637 113.441872 621.08903 112.603226 620.250384 
C 111.76458 619.411738 110.626973 618.940526 109.440948 618.940526 
C 108.254924 618.940526 107.117317 619.411738 106.278671 620.250384 
C 105.440025 621.08903 104.968813 622.226637 104.968813 623.412662 
C 104.968813 624.598686 105.440025 625.736294 106.278671 626.574939 
C 107.117317 627.413585 108.254924 627.884798 109.440948 627.884798 
z
" clip-path="url(#p73be461768)" style="fill: #879dba; stroke: #879dba"/>
    <path d="M 132.791895 653.32095 
C 133.977919 653.32095 135.115526 652.849737 135.954172 652.011092 
C 136.792818 651.172446 137.264031 650.034838 137.264031 648.848814 
C 137.264031 647.66279 136.792818 646.525182 135.954172 645.686536 
C 135.115526 644.84789 133.977919 644.376678 132.791895 644.376678 
C 131.60587 644.376678 130.468263 644.84789 129.629617 645.686536 
C 128.790971 646.525182 128.319759 647.66279 128.319759 648.848814 
C 128.319759 650.034838 128.790971 651.172446 129.629617 652.011092 
C 130.468263 652.849737 131.60587 653.32095 132.791895 653.32095 
z
" clip-path="url(#p73be461768)" style="fill: #879dba; stroke: #879dba"/>
    <path d="M 158.893717 675.93063 
C 160.079741 675.93063 161.217349 675.459417 162.055994 674.620771 
C 162.89464 673.782125 163.365853 672.644518 163.365853 671.458494 
C 163.365853 670.272469 162.89464 669.134862 162.055994 668.296216 
C 161.217349 667.45757 160.079741 666.986358 158.893717 666.986358 
C 157.707692 666.986358 156.570085 667.45757 155.731439 668.296216 
C 154.892793 669.134862 154.421581 670.272469 154.421581 671.458494 
C 154.421581 672.644518 154.892793 673.782125 155.731439 674.620771 
C 156.570085 675.459417 157.707692 675.93063 158.893717 675.93063 
z
" clip-path="url(#p73be461768)" style="fill: #879dba; stroke: #879dba"/>
    <path d="M 187.389431 695.41775 
C 188.575455 695.41775 189.713063 694.946538 190.551708 694.107892 
C 191.390354 693.269246 191.861567 692.131638 191.861567 690.945614 
C 191.861567 689.75959 191.390354 688.621982 190.551708 687.783336 
C 189.713063 686.944691 188.575455 686.473478 187.389431 686.473478 
C 186.203406 686.473478 185.065799 686.944691 184.227153 687.783336 
C 183.388507 688.621982 182.917295 689.75959 182.917295 690.945614 
C 182.917295 692.131638 183.388507 693.269246 184.227153 694.107892 
C 185.065799 694.946538 186.203406 695.41775 187.389431 695.41775 
z
" clip-path="url(#p73be461768)" style="fill: #879dba; stroke: #879dba"/>
    <path d="M 217.922053 711.530323 
C 219.108077 711.530323 220.245685 711.05911 221.084331 710.220465 
C 221.922976 709.381819 222.394189 708.244211 222.394189 707.058187 
C 222.394189 705.872163 221.922976 704.734555 221.084331 703.895909 
C 220.245685 703.057263 219.108077 702.586051 217.922053 702.586051 
C 216.736029 702.586051 215.598421 703.057263 214.759775 703.895909 
C 213.921129 704.734555 213.449917 705.872163 213.449917 707.058187 
C 213.449917 708.244211 213.921129 709.381819 214.759775 710.220465 
C 215.598421 711.05911 216.736029 711.530323 217.922053 711.530323 
z
" clip-path="url(#p73be461768)" style="fill: #879dba; stroke: #879dba"/>
    <path d="M 250.092601 724.056258 
C 251.278625 724.056258 252.416233 723.585045 253.254879 722.746399 
C 254.093525 721.907754 254.564737 720.770146 254.564737 719.584122 
C 254.564737 718.398097 254.093525 717.26049 253.254879 716.421844 
C 252.416233 715.583198 251.278625 715.111986 250.092601 715.111986 
C 248.906577 715.111986 247.768969 715.583198 246.930323 716.421844 
C 246.091678 717.26049 245.620465 718.398097 245.620465 719.584122 
C 245.620465 720.770146 246.091678 721.907754 246.930323 722.746399 
C 247.768969 723.585045 248.906577 724.056258 250.092601 724.056258 
z
" clip-path="url(#p73be461768)" style="fill: #879dba; stroke: #879dba"/>
    <path d="M 283.481094 732.833862 
C 284.667119 732.833862 285.804726 732.362649 286.643372 731.524003 
C 287.482018 730.685357 287.95323 729.54775 287.95323 728.361726 
C 287.95323 727.175701 287.482018 726.038094 286.643372 725.199448 
C 285.804726 724.360802 284.667119 723.88959 283.481094 723.88959 
C 282.29507 723.88959 281.157462 724.360802 280.318817 725.199448 
C 279.480171 726.038094 279.008958 727.175701 279.008958 728.361726 
C 279.008958 729.54775 279.480171 730.685357 280.318817 731.524003 
C 281.157462 732.362649 282.29507 732.833862 283.481094 732.833862 
z
" clip-path="url(#p73be461768)" style="fill: #879dba; stroke: #879dba"/>
    <path d="M 317.667551 737.74554 
C 318.853576 737.74554 319.991183 737.274327 320.829829 736.435682 
C 321.668475 735.597036 322.139687 734.459428 322.139687 733.273404 
C 322.139687 732.08738 321.668475 730.949772 320.829829 730.111126 
C 319.991183 729.27248 318.853576 728.801268 317.667551 728.801268 
C 316.481527 728.801268 315.34392 729.27248 314.505274 730.111126 
C 313.666628 730.949772 313.195416 732.08738 313.195416 733.273404 
C 313.195416 734.459428 313.666628 735.597036 314.505274 736.435682 
C 315.34392 737.274327 316.481527 737.74554 317.667551 737.74554 
z
" clip-path="url(#p73be461768)" style="fill: #879dba; stroke: #879dba"/>
    <path d="M 352.168994 738.732495 
C 353.355019 738.732495 354.492626 738.261283 355.331272 737.422637 
C 356.169918 736.583991 356.64113 735.446384 356.64113 734.260359 
C 356.64113 733.074335 356.169918 731.936728 355.331272 731.098082 
C 354.492626 730.259436 353.355019 729.788223 352.168994 729.788223 
C 350.98297 729.788223 349.845363 730.259436 349.006717 731.098082 
C 348.168071 731.936728 347.696859 733.074335 347.696859 734.260359 
C 347.696859 735.446384 348.168071 736.583991 349.006717 737.422637 
C 349.845363 738.261283 350.98297 738.732495 352.168994 738.732495 
z
" clip-path="url(#p73be461768)" style="fill: #879dba; stroke: #879dba"/>
    <path d="M 386.565442 735.777929 
C 387.751467 735.777929 388.889074 735.306716 389.72772 734.46807 
C 390.566366 733.629425 391.037578 732.491817 391.037578 731.305793 
C 391.037578 730.119768 390.566366 728.982161 389.72772 728.143515 
C 388.889074 727.304869 387.751467 726.833657 386.565442 726.833657 
C 385.379418 726.833657 384.24181 727.304869 383.403165 728.143515 
C 382.564519 728.982161 382.093306 730.119768 382.093306 731.305793 
C 382.093306 732.491817 382.564519 733.629425 383.403165 734.46807 
C 384.24181 735.306716 385.379418 735.777929 386.565442 735.777929 
z
" clip-path="url(#p73be461768)" style="fill: #879dba; stroke: #879dba"/>
    <path d="M 442.548916 553.326912 
C 444.424185 553.326912 446.2229 552.581859 447.548916 551.255844 
C 448.874931 549.929828 449.619984 548.131113 449.619984 546.255844 
C 449.619984 544.380575 448.874931 542.581859 447.548916 541.255844 
C 446.2229 539.929828 444.424185 539.184776 442.548916 539.184776 
C 440.673647 539.184776 438.874931 539.929828 437.548916 541.255844 
C 436.2229 542.581859 435.477848 544.380575 435.477848 546.255844 
C 435.477848 548.131113 436.2229 549.929828 437.548916 551.255844 
C 438.874931 552.581859 440.673647 553.326912 442.548916 553.326912 
z
" clip-path="url(#p73be461768)" style="fill: #8f81b5; stroke: #8f81b5"/>
    <path d="M 420.415915 728.921738 
C 421.601939 728.921738 422.739546 728.450526 423.578192 727.61188 
C 424.416838 726.773234 424.888051 725.635626 424.888051 724.449602 
C 424.888051 723.263578 424.416838 722.12597 423.578192 721.287324 
C 422.739546 720.448679 421.601939 719.977466 420.415915 719.977466 
C 419.22989 719.977466 418.092283 720.448679 417.253637 721.287324 
C 416.414991 722.12597 415.943779 723.263578 415.943779 724.449602 
C 415.943779 725.635626 416.414991 726.773234 417.253637 727.61188 
C 418.092283 728.450526 419.22989 728.921738 420.415915 728.921738 
z
" clip-path="url(#p73be461768)" style="fill: #879dba; stroke: #879dba"/>
    <path d="M 453.237433 718.25212 
C 454.423458 718.25212 455.561065 717.780907 456.399711 716.942261 
C 457.238357 716.103615 457.709569 714.966008 457.709569 713.779984 
C 457.709569 712.593959 457.238357 711.456352 456.399711 710.617706 
C 455.561065 709.77906 454.423458 709.307848 453.237433 709.307848 
C 452.051409 709.307848 450.913802 709.77906 450.075156 710.617706 
C 449.23651 711.456352 448.765297 712.593959 448.765297 713.779984 
C 448.765297 714.966008 449.23651 716.103615 450.075156 716.942261 
C 450.913802 717.780907 452.051409 718.25212 453.237433 718.25212 
z
" clip-path="url(#p73be461768)" style="fill: #879dba; stroke: #879dba"/>
    <path d="M 484.652016 703.909767 
C 485.83804 703.909767 486.975648 703.438554 487.814293 702.599909 
C 488.652939 701.761263 489.124152 700.623655 489.124152 699.437631 
C 489.124152 698.251607 488.652939 697.113999 487.814293 696.275353 
C 486.975648 695.436707 485.83804 694.965495 484.652016 694.965495 
C 483.465991 694.965495 482.328384 695.436707 481.489738 696.275353 
C 480.651092 697.113999 480.17988 698.251607 480.17988 699.437631 
C 480.17988 700.623655 480.651092 701.761263 481.489738 702.599909 
C 482.328384 703.438554 483.465991 703.909767 484.652016 703.909767 
z
" clip-path="url(#p73be461768)" style="fill: #879dba; stroke: #879dba"/>
    <path d="M 514.218681 686.081571 
C 515.404706 686.081571 516.542313 685.610359 517.380959 684.771713 
C 518.219605 683.933067 518.690817 682.79546 518.690817 681.609435 
C 518.690817 680.423411 518.219605 679.285804 517.380959 678.447158 
C 516.542313 677.608512 515.404706 677.1373 514.218681 677.1373 
C 513.032657 677.1373 511.89505 677.608512 511.056404 678.447158 
C 510.217758 679.285804 509.746545 680.423411 509.746545 681.609435 
C 509.746545 682.79546 510.217758 683.933067 511.056404 684.771713 
C 511.89505 685.610359 513.032657 686.081571 514.218681 686.081571 
z
" clip-path="url(#p73be461768)" style="fill: #879dba; stroke: #879dba"/>
    <path d="M 541.559448 664.998523 
C 542.745472 664.998523 543.883079 664.52731 544.721725 663.688665 
C 545.560371 662.850019 546.031584 661.712411 546.031584 660.526387 
C 546.031584 659.340363 545.560371 658.202755 544.721725 657.364109 
C 543.883079 656.525463 542.745472 656.054251 541.559448 656.054251 
C 540.373423 656.054251 539.235816 656.525463 538.39717 657.364109 
C 537.558524 658.202755 537.087312 659.340363 537.087312 660.526387 
C 537.087312 661.712411 537.558524 662.850019 538.39717 663.688665 
C 539.235816 664.52731 540.373423 664.998523 541.559448 664.998523 
z
" clip-path="url(#p73be461768)" style="fill: #879dba; stroke: #879dba"/>
    <path d="M 566.31733 640.935709 
C 567.503355 640.935709 568.640962 640.464496 569.479608 639.62585 
C 570.318254 638.787205 570.789466 637.649597 570.789466 636.463573 
C 570.789466 635.277549 570.318254 634.139941 569.479608 633.301295 
C 568.640962 632.462649 567.503355 631.991437 566.31733 631.991437 
C 565.131306 631.991437 563.993698 632.462649 563.155053 633.301295 
C 562.316407 634.139941 561.845194 635.277549 561.845194 636.463573 
C 561.845194 637.649597 562.316407 638.787205 563.155053 639.62585 
C 563.993698 640.464496 565.131306 640.935709 566.31733 640.935709 
z
" clip-path="url(#p73be461768)" style="fill: #879dba; stroke: #879dba"/>
    <path d="M 588.177344 614.208115 
C 589.363368 614.208115 590.500976 613.736903 591.339621 612.898257 
C 592.178267 612.059611 592.64948 610.922003 592.64948 609.735979 
C 592.64948 608.549955 592.178267 607.412347 591.339621 606.573701 
C 590.500976 605.735056 589.363368 605.263843 588.177344 605.263843 
C 586.991319 605.263843 585.853712 605.735056 585.015066 606.573701 
C 584.17642 607.412347 583.705208 608.549955 583.705208 609.735979 
C 583.705208 610.922003 584.17642 612.059611 585.015066 612.898257 
C 585.853712 613.736903 586.991319 614.208115 588.177344 614.208115 
z
" clip-path="url(#p73be461768)" style="fill: #879dba; stroke: #879dba"/>
    <path d="M 606.845501 585.162226 
C 608.031526 585.162226 609.169133 584.691013 610.007779 583.852367 
C 610.846425 583.013722 611.317637 581.876114 611.317637 580.69009 
C 611.317637 579.504065 610.846425 578.366458 610.007779 577.527812 
C 609.169133 576.689166 608.031526 576.217954 606.845501 576.217954 
C 605.659477 576.217954 604.521869 576.689166 603.683224 577.527812 
C 602.844578 578.366458 602.373365 579.504065 602.373365 580.69009 
C 602.373365 581.876114 602.844578 583.013722 603.683224 583.852367 
C 604.521869 584.691013 605.659477 585.162226 606.845501 585.162226 
z
" clip-path="url(#p73be461768)" style="fill: #879dba; stroke: #879dba"/>
    <path d="M 622.069814 554.171824 
C 623.255839 554.171824 624.393446 553.700612 625.232092 552.861966 
C 626.070738 552.02332 626.54195 550.885713 626.54195 549.699688 
C 626.54195 548.513664 626.070738 547.376057 625.232092 546.537411 
C 624.393446 545.698765 623.255839 545.227552 622.069814 545.227552 
C 620.88379 545.227552 619.746182 545.698765 618.907537 546.537411 
C 618.068891 547.376057 617.597678 548.513664 617.597678 549.699688 
C 617.597678 550.885713 618.068891 552.02332 618.907537 552.861966 
C 619.746182 553.700612 620.88379 554.171824 622.069814 554.171824 
z
" clip-path="url(#p73be461768)" style="fill: #879dba; stroke: #879dba"/>
    <path d="M 492.52666 464.857904 
C 494.401929 464.857904 496.200645 464.112852 497.52666 462.786836 
C 498.852676 461.460821 499.597728 459.662105 499.597728 457.786836 
C 499.597728 455.911567 498.852676 454.112852 497.52666 452.786836 
C 496.200645 451.460821 494.401929 450.715768 492.52666 450.715768 
C 490.651391 450.715768 488.852676 451.460821 487.52666 452.786836 
C 486.200645 454.112852 485.455593 455.911567 485.455593 457.786836 
C 485.455593 459.662105 486.200645 461.460821 487.52666 462.786836 
C 488.852676 464.112852 490.651391 464.857904 492.52666 464.857904 
z
" clip-path="url(#p73be461768)" style="fill: #8f81b5; stroke: #8f81b5"/>
    <path d="M 633.68229 521.665291 
C 634.868314 521.665291 636.005922 521.194079 636.844568 520.355433 
C 637.683214 519.516787 638.154426 518.37918 638.154426 517.193155 
C 638.154426 516.007131 637.683214 514.869524 636.844568 514.030878 
C 636.005922 513.192232 634.868314 512.721019 633.68229 512.721019 
C 632.496266 512.721019 631.358658 513.192232 630.520013 514.030878 
C 629.681367 514.869524 629.210154 516.007131 629.210154 517.193155 
C 629.210154 518.37918 629.681367 519.516787 630.520013 520.355433 
C 631.358658 521.194079 632.496266 521.665291 633.68229 521.665291 
z
" clip-path="url(#p73be461768)" style="fill: #879dba; stroke: #879dba"/>
    <path d="M 641.493938 488.024809 
C 642.679962 488.024809 643.817569 487.553597 644.656215 486.714951 
C 645.494861 485.876305 645.966074 484.738698 645.966074 483.552673 
C 645.966074 482.366649 645.494861 481.229042 644.656215 480.390396 
C 643.817569 479.55175 642.679962 479.080538 641.493938 479.080538 
C 640.307913 479.080538 639.170306 479.55175 638.33166 480.390396 
C 637.493014 481.229042 637.021802 482.366649 637.021802 483.552673 
C 637.021802 484.738698 637.493014 485.876305 638.33166 486.714951 
C 639.170306 487.553597 640.307913 488.024809 641.493938 488.024809 
z
" clip-path="url(#p73be461768)" style="fill: #879dba; stroke: #879dba"/>
    <path d="M 645.42076 453.733357 
C 646.606785 453.733357 647.744392 453.262145 648.583038 452.423499 
C 649.421684 451.584853 649.892896 450.447245 649.892896 449.261221 
C 649.892896 448.075197 649.421684 446.937589 648.583038 446.098943 
C 647.744392 445.260298 646.606785 444.789085 645.42076 444.789085 
C 644.234736 444.789085 643.097129 445.260298 642.258483 446.098943 
C 641.419837 446.937589 640.948624 448.075197 640.948624 449.261221 
C 640.948624 450.447245 641.419837 451.584853 642.258483 452.423499 
C 643.097129 453.262145 644.234736 453.733357 645.42076 453.733357 
z
" clip-path="url(#p73be461768)" style="fill: #879dba; stroke: #879dba"/>
   </g>
   <g id="patch_3">
    <path d="M 10.8 764.486395 
L 10.8 99.513605 
" style="fill: none; stroke: #000000; stroke-width: 0.8; stroke-linejoin: miter; stroke-linecap: square"/>
   </g>
   <g id="patch_4">
    <path d="M 675.772791 764.486395 
L 675.772791 99.513605 
" style="fill: none; stroke: #000000; stroke-width: 0.8; stroke-linejoin: miter; stroke-linecap: square"/>
   </g>
   <g id="patch_5">
    <path d="M 10.8 764.486395 
L 675.772791 764.486395 
" style="fill: none; stroke: #000000; stroke-width: 0.8; stroke-linejoin: miter; stroke-linecap: square"/>
   </g>
   <g id="patch_6">
    <path d="M 10.8 99.513605 
L 675.772791 99.513605 
" style="fill: none; stroke: #000000; stroke-width: 0.8; stroke-linejoin: miter; stroke-linecap: square"/>
   </g>
   <g id="text_1">
    <!-- Year: 1828 -->
    <g transform="translate(17.449728 126.918828) scale(0.3 -0.3)">
     <defs>
      <path id="CMR17-59" d="M 3706 3766 
C 3955 4160 4301 4160 4416 4160 
L 4416 4332 
C 4269 4319 4102 4319 3942 4319 
C 3782 4319 3526 4319 3373 4332 
L 3373 4160 
C 3533 4160 3616 4077 3616 3957 
C 3616 3881 3584 3830 3533 3747 
L 2381 1912 
L 1120 3912 
C 1075 3988 1069 3994 1069 4039 
C 1069 4160 1293 4160 1382 4160 
L 1382 4319 
C 1178 4319 864 4319 653 4319 
C 486 4319 166 4319 13 4332 
L 13 4160 
C 378 4160 480 4141 595 3958 
L 2010 1728 
L 2010 445 
C 2010 160 1939 160 1498 160 
L 1498 0 
C 1683 0 2016 0 2214 0 
C 2413 0 2752 0 2938 0 
L 2938 160 
C 2477 160 2419 160 2419 471 
L 2419 1728 
L 3706 3766 
z
" transform="scale(0.015625)"/>
      <path id="CMR17-65" d="M 2438 1472 
C 2464 1498 2464 1511 2464 1576 
C 2464 2238 2118 2816 1389 2816 
C 710 2816 173 2169 173 1383 
C 173 551 781 -64 1459 -64 
C 2176 -64 2458 607 2458 740 
C 2458 784 2419 784 2406 784 
C 2362 784 2355 771 2330 696 
C 2189 265 1837 51 1504 51 
C 1229 51 954 203 781 480 
C 582 803 582 1176 582 1472 
L 2438 1472 
z
M 589 1568 
C 634 2505 1126 2714 1382 2714 
C 1818 2714 2112 2297 2118 1568 
L 589 1568 
z
" transform="scale(0.015625)"/>
      <path id="CMR17-61" d="M 2304 1653 
C 2304 2072 2304 2294 2035 2543 
C 1798 2752 1523 2816 1306 2816 
C 800 2816 435 2407 435 1971 
C 435 1728 627 1728 666 1728 
C 749 1728 896 1778 896 1954 
C 896 2112 774 2181 666 2181 
C 640 2181 608 2174 589 2168 
C 723 2592 1069 2714 1293 2714 
C 1613 2714 1965 2429 1965 1885 
L 1965 1600 
C 1587 1600 1133 1549 774 1357 
C 371 1133 256 813 256 570 
C 256 77 832 -64 1171 -64 
C 1523 -64 1850 139 1990 511 
C 2003 233 2182 -18 2464 -18 
C 2598 -18 2938 70 2938 567 
L 2938 920 
L 2822 920 
L 2822 562 
C 2822 178 2650 128 2566 128 
C 2304 128 2304 458 2304 738 
L 2304 1653 
z
M 1965 870 
C 1965 317 1568 38 1216 38 
C 896 38 646 275 646 570 
C 646 761 730 1100 1101 1305 
C 1408 1478 1760 1504 1965 1504 
L 1965 870 
z
" transform="scale(0.015625)"/>
      <path id="CMR17-72" d="M 960 1497 
C 960 2112 1222 2688 1702 2688 
C 1747 2688 1792 2682 1837 2662 
C 1837 2662 1696 2617 1696 2452 
C 1696 2298 1818 2234 1914 2234 
C 1990 2234 2131 2279 2131 2458 
C 2131 2663 1926 2790 1709 2790 
C 1222 2790 1011 2317 947 2093 
L 941 2093 
L 941 2790 
L 198 2720 
L 198 2554 
C 576 2554 634 2515 634 2208 
L 634 428 
C 634 184 608 153 198 153 
L 198 -13 
C 352 0 646 0 813 0 
C 998 0 1325 0 1498 -13 
L 1498 153 
C 1037 153 960 153 960 440 
L 960 1497 
z
" transform="scale(0.015625)"/>
      <path id="CMR17-3a" d="M 1062 2491 
C 1062 2650 934 2752 800 2752 
C 672 2752 538 2650 538 2491 
C 538 2332 666 2230 800 2230 
C 928 2230 1062 2332 1062 2491 
z
M 1062 261 
C 1062 420 934 522 800 522 
C 672 522 538 420 538 261 
C 538 102 666 0 800 0 
C 928 0 1062 102 1062 261 
z
" transform="scale(0.015625)"/>
      <path id="CMR17-31" d="M 1702 4058 
C 1702 4192 1696 4192 1606 4192 
C 1357 3916 979 3827 621 3827 
C 602 3827 570 3827 563 3808 
C 557 3795 557 3782 557 3648 
C 755 3648 1088 3686 1344 3839 
L 1344 461 
C 1344 236 1331 160 781 160 
L 589 160 
L 589 0 
C 896 0 1216 0 1523 0 
C 1830 0 2150 0 2458 0 
L 2458 160 
L 2266 160 
C 1715 160 1702 230 1702 458 
L 1702 4058 
z
" transform="scale(0.015625)"/>
      <path id="CMR17-38" d="M 1741 2264 
C 2144 2467 2554 2773 2554 3263 
C 2554 3841 1990 4179 1472 4179 
C 890 4179 378 3759 378 3180 
C 378 3021 416 2747 666 2505 
C 730 2442 998 2251 1171 2130 
C 883 1983 211 1634 211 934 
C 211 279 838 -128 1459 -128 
C 2144 -128 2720 362 2720 1010 
C 2720 1590 2330 1857 2074 2029 
L 1741 2264 
z
M 902 2822 
C 851 2854 595 3051 595 3351 
C 595 3739 998 4032 1459 4032 
C 1965 4032 2336 3676 2336 3262 
C 2336 2669 1670 2331 1638 2331 
C 1632 2331 1626 2331 1574 2370 
L 902 2822 
z
M 2080 1519 
C 2176 1449 2483 1240 2483 851 
C 2483 381 2010 25 1472 25 
C 890 25 448 438 448 940 
C 448 1443 838 1862 1280 2060 
L 2080 1519 
z
" transform="scale(0.015625)"/>
      <path id="CMR17-32" d="M 2669 989 
L 2554 989 
C 2490 536 2438 459 2413 420 
C 2381 369 1920 369 1830 369 
L 602 369 
C 832 619 1280 1072 1824 1597 
C 2214 1967 2669 2402 2669 3035 
C 2669 3790 2067 4224 1395 4224 
C 691 4224 262 3604 262 3030 
C 262 2780 448 2748 525 2748 
C 589 2748 781 2787 781 3010 
C 781 3207 614 3264 525 3264 
C 486 3264 448 3258 422 3245 
C 544 3790 915 4058 1306 4058 
C 1862 4058 2227 3617 2227 3035 
C 2227 2479 1901 2000 1536 1584 
L 262 146 
L 262 0 
L 2515 0 
L 2669 989 
z
" transform="scale(0.015625)"/>
     </defs>
     <use xlink:href="#CMR17-59" transform="scale(0.996264)"/>
     <use xlink:href="#CMR17-65" transform="translate(61.265174 0) scale(0.996264)"/>
     <use xlink:href="#CMR17-61" transform="translate(101.750835 0) scale(0.996264)"/>
     <use xlink:href="#CMR17-72" transform="translate(147.441312 0) scale(0.996264)"/>
     <use xlink:href="#CMR17-3a" transform="translate(182.72208 0) scale(0.996264)"/>
     <use xlink:href="#CMR17-31" transform="translate(248.078799 0) scale(0.996264)"/>
     <use xlink:href="#CMR17-38" transform="translate(293.769276 0) scale(0.996264)"/>
     <use xlink:href="#CMR17-32" transform="translate(339.459753 0) scale(0.996264)"/>
     <use xlink:href="#CMR17-38" transform="translate(385.15023 0) scale(0.996264)"/>
    </g>
   </g>
  </g>
  <g id="axes_2">
   <g id="patch_7">
    <path d="M 717.33359 853.2 
L 759.45359 853.2 
L 759.45359 10.8 
L 717.33359 10.8 
z
" style="fill: #ffffff"/>
   </g>
   <g id="QuadMesh_1">
    <path d="M 717.33359 853.2 
L 759.45359 853.2 
L 759.45359 747.9 
L 717.33359 747.9 
L 717.33359 853.2 
" clip-path="url(#p21d235efb8)" style="fill: #ad35ca"/>
    <path d="M 717.33359 747.9 
L 759.45359 747.9 
L 759.45359 642.6 
L 717.33359 642.6 
L 717.33359 747.9 
" clip-path="url(#p21d235efb8)" style="fill: #8f81b5"/>
    <path d="M 717.33359 642.6 
L 759.45359 642.6 
L 759.45359 537.3 
L 717.33359 537.3 
L 717.33359 642.6 
" clip-path="url(#p21d235efb8)" style="fill: #879dba"/>
    <path d="M 717.33359 537.3 
L 759.45359 537.3 
L 759.45359 432 
L 717.33359 432 
L 717.33359 537.3 
" clip-path="url(#p21d235efb8)" style="fill: #7bb4be"/>
    <path d="M 717.33359 432 
L 759.45359 432 
L 759.45359 326.7 
L 717.33359 326.7 
L 717.33359 432 
" clip-path="url(#p21d235efb8)" style="fill: #79c6b7"/>
    <path d="M 717.33359 326.7 
L 759.45359 326.7 
L 759.45359 221.4 
L 717.33359 221.4 
L 717.33359 326.7 
" clip-path="url(#p21d235efb8)" style="fill: #a1ccad"/>
    <path d="M 717.33359 221.4 
L 759.45359 221.4 
L 759.45359 116.1 
L 717.33359 116.1 
L 717.33359 221.4 
" clip-path="url(#p21d235efb8)" style="fill: #c1d59b"/>
    <path d="M 717.33359 116.1 
L 759.45359 116.1 
L 759.45359 10.8 
L 717.33359 10.8 
L 717.33359 116.1 
" clip-path="url(#p21d235efb8)" style="fill: #e4dc96"/>
   </g>
   <g id="matplotlib.axis_3"/>
   <g id="matplotlib.axis_4">
    <g id="ytick_7">
     <g id="line2d_1">
      <defs>
       <path id="m4be8e3318d" d="M 0 0 
L 3.5 0 
" style="stroke: #000000; stroke-width: 0.8"/>
      </defs>
      <g>
       <use xlink:href="#m4be8e3318d" x="759.45359" y="800.55" style="stroke: #000000; stroke-width: 0.8"/>
      </g>
     </g>
     <g id="text_2">
      <!-- 0 -->
      <g transform="translate(766.45359 811.619603) scale(0.32 -0.32)">
       <defs>
        <path id="CMR17-30" d="M 2688 2025 
C 2688 2416 2682 3080 2413 3591 
C 2176 4039 1798 4198 1466 4198 
C 1158 4198 768 4058 525 3597 
C 269 3118 243 2524 243 2025 
C 243 1661 250 1106 448 619 
C 723 -39 1216 -128 1466 -128 
C 1760 -128 2208 -7 2470 600 
C 2662 1042 2688 1559 2688 2025 
z
M 1466 -26 
C 1056 -26 813 325 723 812 
C 653 1188 653 1738 653 2096 
C 653 2588 653 2997 736 3387 
C 858 3929 1216 4096 1466 4096 
C 1728 4096 2067 3923 2189 3400 
C 2272 3036 2278 2607 2278 2096 
C 2278 1680 2278 1169 2202 792 
C 2067 95 1690 -26 1466 -26 
z
" transform="scale(0.015625)"/>
       </defs>
       <use xlink:href="#CMR17-30" transform="scale(0.996264)"/>
      </g>
     </g>
    </g>
    <g id="ytick_8">
     <g id="line2d_2">
      <g>
       <use xlink:href="#m4be8e3318d" x="759.45359" y="695.25" style="stroke: #000000; stroke-width: 0.8"/>
      </g>
     </g>
     <g id="text_3">
      <!-- 1 -->
      <g transform="translate(766.45359 706.319603) scale(0.32 -0.32)">
       <use xlink:href="#CMR17-31" transform="scale(0.996264)"/>
      </g>
     </g>
    </g>
    <g id="ytick_9">
     <g id="line2d_3">
      <g>
       <use xlink:href="#m4be8e3318d" x="759.45359" y="589.95" style="stroke: #000000; stroke-width: 0.8"/>
      </g>
     </g>
     <g id="text_4">
      <!-- 2 -->
      <g transform="translate(766.45359 601.019603) scale(0.32 -0.32)">
       <use xlink:href="#CMR17-32" transform="scale(0.996264)"/>
      </g>
     </g>
    </g>
    <g id="ytick_10">
     <g id="line2d_4">
      <g>
       <use xlink:href="#m4be8e3318d" x="759.45359" y="484.65" style="stroke: #000000; stroke-width: 0.8"/>
      </g>
     </g>
     <g id="text_5">
      <!-- 3 -->
      <g transform="translate(766.45359 495.719603) scale(0.32 -0.32)">
       <defs>
        <path id="CMR17-33" d="M 1414 2157 
C 1984 2157 2234 1662 2234 1090 
C 2234 320 1824 25 1453 25 
C 1114 25 563 194 390 693 
C 422 680 454 680 486 680 
C 640 680 755 782 755 948 
C 755 1133 614 1216 486 1216 
C 378 1216 211 1165 211 926 
C 211 335 787 -128 1466 -128 
C 2176 -128 2720 430 2720 1085 
C 2720 1707 2208 2157 1600 2227 
C 2086 2328 2554 2756 2554 3329 
C 2554 3820 2048 4179 1472 4179 
C 890 4179 378 3829 378 3329 
C 378 3110 544 3072 627 3072 
C 762 3072 877 3155 877 3321 
C 877 3486 762 3569 627 3569 
C 602 3569 570 3569 544 3557 
C 730 3959 1235 4032 1459 4032 
C 1683 4032 2106 3925 2106 3320 
C 2106 3143 2080 2828 1862 2550 
C 1670 2304 1453 2304 1242 2284 
C 1210 2284 1062 2269 1037 2269 
C 992 2263 966 2257 966 2208 
C 966 2163 973 2157 1101 2157 
L 1414 2157 
z
" transform="scale(0.015625)"/>
       </defs>
       <use xlink:href="#CMR17-33" transform="scale(0.996264)"/>
      </g>
     </g>
    </g>
    <g id="ytick_11">
     <g id="line2d_5">
      <g>
       <use xlink:href="#m4be8e3318d" x="759.45359" y="379.35" style="stroke: #000000; stroke-width: 0.8"/>
      </g>
     </g>
     <g id="text_6">
      <!-- 4 -->
      <g transform="translate(766.45359 390.419603) scale(0.32 -0.32)">
       <defs>
        <path id="CMR17-34" d="M 2150 4122 
C 2150 4256 2144 4256 2029 4256 
L 128 1254 
L 128 1088 
L 1779 1088 
L 1779 457 
C 1779 224 1766 160 1318 160 
L 1197 160 
L 1197 0 
C 1402 0 1747 0 1965 0 
C 2182 0 2528 0 2733 0 
L 2733 160 
L 2611 160 
C 2163 160 2150 224 2150 457 
L 2150 1088 
L 2803 1088 
L 2803 1254 
L 2150 1254 
L 2150 4122 
z
M 1798 3703 
L 1798 1254 
L 256 1254 
L 1798 3703 
z
" transform="scale(0.015625)"/>
       </defs>
       <use xlink:href="#CMR17-34" transform="scale(0.996264)"/>
      </g>
     </g>
    </g>
    <g id="ytick_12">
     <g id="line2d_6">
      <g>
       <use xlink:href="#m4be8e3318d" x="759.45359" y="274.05" style="stroke: #000000; stroke-width: 0.8"/>
      </g>
     </g>
     <g id="text_7">
      <!-- 5 -->
      <g transform="translate(766.45359 285.119603) scale(0.32 -0.32)">
       <defs>
        <path id="CMR17-35" d="M 730 3692 
C 794 3666 1056 3584 1325 3584 
C 1920 3584 2246 3911 2432 4100 
C 2432 4157 2432 4192 2394 4192 
C 2387 4192 2374 4192 2323 4163 
C 2099 4058 1837 3973 1517 3973 
C 1325 3973 1037 3999 723 4139 
C 653 4171 640 4171 634 4171 
C 602 4171 595 4164 595 4037 
L 595 2203 
C 595 2089 595 2057 659 2057 
C 691 2057 704 2070 736 2114 
C 941 2401 1222 2522 1542 2522 
C 1766 2522 2246 2382 2246 1289 
C 2246 1085 2246 715 2054 421 
C 1894 159 1645 25 1370 25 
C 947 25 518 320 403 814 
C 429 807 480 795 506 795 
C 589 795 749 840 749 1038 
C 749 1210 627 1280 506 1280 
C 358 1280 262 1190 262 1011 
C 262 454 704 -128 1382 -128 
C 2042 -128 2669 440 2669 1264 
C 2669 2030 2170 2624 1549 2624 
C 1222 2624 947 2503 730 2274 
L 730 3692 
z
" transform="scale(0.015625)"/>
       </defs>
       <use xlink:href="#CMR17-35" transform="scale(0.996264)"/>
      </g>
     </g>
    </g>
    <g id="ytick_13">
     <g id="line2d_7">
      <g>
       <use xlink:href="#m4be8e3318d" x="759.45359" y="168.75" style="stroke: #000000; stroke-width: 0.8"/>
      </g>
     </g>
     <g id="text_8">
      <!-- 6 -->
      <g transform="translate(766.45359 179.819603) scale(0.32 -0.32)">
       <defs>
        <path id="CMR17-36" d="M 678 2176 
C 678 3690 1395 4032 1811 4032 
C 1946 4032 2272 4009 2400 3776 
C 2298 3776 2106 3776 2106 3553 
C 2106 3381 2246 3323 2336 3323 
C 2394 3323 2566 3348 2566 3560 
C 2566 3954 2246 4179 1805 4179 
C 1043 4179 243 3390 243 1984 
C 243 253 966 -128 1478 -128 
C 2099 -128 2688 427 2688 1283 
C 2688 2081 2170 2662 1517 2662 
C 1126 2662 838 2407 678 1960 
L 678 2176 
z
M 1478 25 
C 691 25 691 1200 691 1436 
C 691 1896 909 2560 1504 2560 
C 1613 2560 1926 2560 2138 2120 
C 2253 1870 2253 1609 2253 1289 
C 2253 944 2253 690 2118 434 
C 1978 171 1773 25 1478 25 
z
" transform="scale(0.015625)"/>
       </defs>
       <use xlink:href="#CMR17-36" transform="scale(0.996264)"/>
      </g>
     </g>
    </g>
    <g id="ytick_14">
     <g id="line2d_8">
      <g>
       <use xlink:href="#m4be8e3318d" x="759.45359" y="63.45" style="stroke: #000000; stroke-width: 0.8"/>
      </g>
     </g>
     <g id="text_9">
      <!-- 7 -->
      <g transform="translate(766.45359 74.519603) scale(0.32 -0.32)">
       <defs>
        <path id="CMR17-37" d="M 2886 3941 
L 2886 4081 
L 1382 4081 
C 634 4081 621 4165 595 4288 
L 480 4288 
L 294 3094 
L 410 3094 
C 429 3215 474 3540 550 3661 
C 589 3712 1062 3712 1171 3712 
L 2579 3712 
L 1869 2661 
C 1395 1954 1069 999 1069 165 
C 1069 89 1069 -128 1299 -128 
C 1530 -128 1530 89 1530 171 
L 1530 465 
C 1530 1508 1709 2196 2003 2636 
L 2886 3941 
z
" transform="scale(0.015625)"/>
       </defs>
       <use xlink:href="#CMR17-37" transform="scale(0.996264)"/>
      </g>
     </g>
    </g>
    <g id="ytick_15">
     <g id="line2d_9">
      <defs>
       <path id="mb1c0e06857" d="M 0 0 
L 2 0 
" style="stroke: #000000; stroke-width: 0.6"/>
      </defs>
      <g>
       <use xlink:href="#mb1c0e06857" x="759.45359" y="853.2" style="stroke: #000000; stroke-width: 0.6"/>
      </g>
     </g>
    </g>
    <g id="ytick_16">
     <g id="line2d_10">
      <g>
       <use xlink:href="#mb1c0e06857" x="759.45359" y="747.9" style="stroke: #000000; stroke-width: 0.6"/>
      </g>
     </g>
    </g>
    <g id="ytick_17">
     <g id="line2d_11">
      <g>
       <use xlink:href="#mb1c0e06857" x="759.45359" y="642.6" style="stroke: #000000; stroke-width: 0.6"/>
      </g>
     </g>
    </g>
    <g id="ytick_18">
     <g id="line2d_12">
      <g>
       <use xlink:href="#mb1c0e06857" x="759.45359" y="537.3" style="stroke: #000000; stroke-width: 0.6"/>
      </g>
     </g>
    </g>
    <g id="ytick_19">
     <g id="line2d_13">
      <g>
       <use xlink:href="#mb1c0e06857" x="759.45359" y="432" style="stroke: #000000; stroke-width: 0.6"/>
      </g>
     </g>
    </g>
    <g id="ytick_20">
     <g id="line2d_14">
      <g>
       <use xlink:href="#mb1c0e06857" x="759.45359" y="326.7" style="stroke: #000000; stroke-width: 0.6"/>
      </g>
     </g>
    </g>
    <g id="ytick_21">
     <g id="line2d_15">
      <g>
       <use xlink:href="#mb1c0e06857" x="759.45359" y="221.4" style="stroke: #000000; stroke-width: 0.6"/>
      </g>
     </g>
    </g>
    <g id="ytick_22">
     <g id="line2d_16">
      <g>
       <use xlink:href="#mb1c0e06857" x="759.45359" y="116.1" style="stroke: #000000; stroke-width: 0.6"/>
      </g>
     </g>
    </g>
    <g id="ytick_23">
     <g id="line2d_17">
      <g>
       <use xlink:href="#mb1c0e06857" x="759.45359" y="10.8" style="stroke: #000000; stroke-width: 0.6"/>
      </g>
     </g>
    </g>
    <g id="text_10">
     <!-- Node Depth -->
     <g transform="translate(828.899641 543.95779) rotate(-90) scale(0.46 -0.46)">
      <defs>
       <path id="CMR17-4e" d="M 1312 4250 
C 1267 4320 1261 4320 1139 4320 
L 326 4320 
L 326 4160 
L 448 4160 
C 704 4160 819 4129 838 4122 
L 838 610 
C 838 451 838 153 326 153 
L 326 -13 
C 474 0 742 0 902 0 
C 1062 0 1331 0 1478 -13 
L 1478 153 
C 966 153 966 451 966 610 
L 966 4033 
C 1011 3995 1011 3982 1056 3919 
L 3430 76 
C 3475 0 3494 0 3526 0 
C 3590 0 3590 19 3590 139 
L 3590 3705 
C 3590 3863 3590 4160 4102 4160 
L 4102 4326 
C 3955 4320 3686 4320 3526 4320 
C 3366 4320 3098 4320 2950 4326 
L 2950 4160 
C 3462 4160 3462 3862 3462 3703 
L 3462 763 
L 1312 4250 
z
" transform="scale(0.015625)"/>
       <path id="CMR17-6f" d="M 2758 1356 
C 2758 2176 2163 2816 1466 2816 
C 768 2816 173 2176 173 1356 
C 173 551 768 -64 1466 -64 
C 2163 -64 2758 551 2758 1356 
z
M 1466 51 
C 1165 51 909 230 762 480 
C 602 767 582 1126 582 1408 
C 582 1677 595 2010 762 2298 
C 890 2509 1139 2714 1466 2714 
C 1754 2714 1997 2554 2150 2330 
C 2349 2029 2349 1607 2349 1408 
C 2349 1158 2336 775 2163 467 
C 1984 173 1709 51 1466 51 
z
" transform="scale(0.015625)"/>
       <path id="CMR17-64" d="M 1869 4326 
L 1869 4160 
C 2246 4160 2304 4122 2304 3820 
L 2304 2345 
C 2278 2377 2016 2790 1498 2790 
C 845 2790 211 2208 211 1364 
C 211 525 806 -64 1434 -64 
C 1978 -64 2259 337 2291 380 
L 2291 -63 
L 3066 -63 
L 3066 128 
C 2688 128 2630 166 2630 473 
L 2630 4396 
L 1869 4326 
z
M 2291 755 
C 2291 563 2176 390 2029 262 
C 1811 70 1594 38 1472 38 
C 1286 38 621 134 621 1356 
C 621 2612 1363 2688 1530 2688 
C 1824 2688 2061 2522 2208 2291 
C 2291 2157 2291 2138 2291 2023 
L 2291 755 
z
" transform="scale(0.015625)"/>
       <path id="CMR17-44" d="M 333 4352 
L 333 4186 
C 774 4186 845 4186 845 3900 
L 845 452 
C 845 166 774 166 333 166 
L 333 0 
L 2368 0 
C 3398 0 4224 943 4224 2141 
C 4224 3346 3411 4352 2368 4352 
L 333 4352 
z
M 1523 166 
C 1267 166 1254 197 1254 414 
L 1254 3938 
C 1254 4155 1267 4186 1523 4186 
L 2240 4186 
C 2771 4186 3750 3874 3750 2141 
C 3750 1242 3488 879 3366 707 
C 3213 510 2848 166 2240 166 
L 1523 166 
z
" transform="scale(0.015625)"/>
       <path id="CMR17-70" d="M 1408 -1063 
C 998 -1063 973 -1037 973 -789 
L 973 402 
C 1158 134 1427 -38 1766 -38 
C 2406 -38 3053 523 3053 1388 
C 3053 2191 2496 2802 1837 2802 
C 1453 2802 1139 2592 960 2338 
L 960 2802 
L 198 2732 
L 198 2567 
C 576 2567 634 2528 634 2223 
L 634 -789 
C 634 -1031 608 -1063 198 -1063 
L 198 -1228 
C 352 -1216 634 -1216 800 -1216 
C 966 -1216 1254 -1216 1408 -1228 
L 1408 -1063 
z
M 973 2012 
C 973 2102 973 2235 1222 2471 
C 1254 2497 1472 2688 1792 2688 
C 2259 2688 2643 2108 2643 1382 
C 2643 656 2234 64 1728 64 
C 1498 64 1248 172 1056 472 
C 973 612 973 650 973 752 
L 973 2012 
z
" transform="scale(0.015625)"/>
       <path id="CMR17-74" d="M 966 2560 
L 1862 2560 
L 1862 2725 
L 966 2725 
L 966 3904 
L 851 3904 
C 838 3245 614 2668 70 2668 
L 70 2560 
L 627 2560 
L 627 771 
C 627 650 627 -64 1370 -64 
C 1747 -64 1965 306 1965 777 
L 1965 1140 
L 1850 1140 
L 1850 783 
C 1850 344 1677 51 1408 51 
C 1222 51 966 178 966 758 
L 966 2560 
z
" transform="scale(0.015625)"/>
       <path id="CMR17-68" d="M 2656 1933 
C 2656 2259 2592 2790 1837 2790 
C 1312 2790 1056 2368 979 2157 
L 973 2157 
L 973 4396 
L 211 4326 
L 211 4160 
C 589 4160 646 4122 646 3817 
L 646 426 
C 646 184 621 153 211 153 
L 211 -13 
C 365 0 646 0 813 0 
C 979 0 1267 0 1421 -13 
L 1421 153 
C 1011 153 986 178 986 428 
L 986 1658 
C 986 2247 1344 2688 1792 2688 
C 2266 2688 2317 2266 2317 1958 
L 2317 428 
C 2317 184 2291 153 1882 153 
L 1882 -13 
C 2035 0 2317 0 2483 0 
C 2650 0 2938 0 3091 -13 
L 3091 153 
C 2682 153 2656 178 2656 428 
L 2656 1933 
z
" transform="scale(0.015625)"/>
      </defs>
      <use xlink:href="#CMR17-4e" transform="scale(0.996264)"/>
      <use xlink:href="#CMR17-6f" transform="translate(69.07243 0) scale(0.996264)"/>
      <use xlink:href="#CMR17-64" transform="translate(117.365346 0) scale(0.996264)"/>
      <use xlink:href="#CMR17-65" transform="translate(168.260715 0) scale(0.996264)"/>
      <use xlink:href="#CMR17-44" transform="translate(238.822342 0) scale(0.996264)"/>
      <use xlink:href="#CMR17-65" transform="translate(309.215898 0) scale(0.996264)"/>
      <use xlink:href="#CMR17-70" transform="translate(349.701559 0) scale(0.996264)"/>
      <use xlink:href="#CMR17-74" transform="translate(400.596928 0) scale(0.996264)"/>
      <use xlink:href="#CMR17-68" transform="translate(435.877696 0) scale(0.996264)"/>
     </g>
    </g>
   </g>
   <g id="LineCollection_2"/>
   <g id="patch_8">
    <path d="M 717.33359 853.2 
L 738.39359 853.2 
L 759.45359 853.2 
L 759.45359 10.8 
L 738.39359 10.8 
L 717.33359 10.8 
L 717.33359 853.2 
z
" style="fill: none; stroke: #000000; stroke-width: 0.8; stroke-linejoin: miter; stroke-linecap: square"/>
   </g>
  </g>
 </g>
 <defs>
  <clipPath id="p73be461768">
   <rect x="10.8" y="99.513605" width="664.972791" height="664.972791"/>
  </clipPath>
  <clipPath id="p21d235efb8">
   <rect x="717.33359" y="10.8" width="42.12" height="842.4"/>
  </clipPath>
 </defs>
</svg>
