<?xml version="1.0" encoding="utf-8" standalone="no"?>
<!DOCTYPE svg PUBLIC "-//W3C//DTD SVG 1.1//EN"
  "http://www.w3.org/Graphics/SVG/1.1/DTD/svg11.dtd">
<svg xmlns:xlink="http://www.w3.org/1999/xlink" width="864pt" height="864pt" viewBox="0 0 864 864" xmlns="http://www.w3.org/2000/svg" version="1.1">
 <metadata>
  <rdf:RDF xmlns:dc="http://purl.org/dc/elements/1.1/" xmlns:cc="http://creativecommons.org/ns#" xmlns:rdf="http://www.w3.org/1999/02/22-rdf-syntax-ns#">
   <cc:Work>
    <dc:type rdf:resource="http://purl.org/dc/dcmitype/StillImage"/>
    <dc:date>2026-06-09T22:33:03.032804</dc:date>
    <dc:format>image/svg+xml</dc:format>
    <dc:creator>
     <cc:Agent>
      <dc:title>Matplotlib v3.9.2, https://matplotlib.org/</dc:title>
     </cc:Agent>
    </dc:creator>
   </cc:Work>
  </rdf:RDF>
 </metadata>
 <defs>
  <style type="text/css">*{stroke-linejoin: round; stroke-linecap: butt}</style>
 </defs>
 <g id="figure_1">
  <g id="patch_1">
   <path d="M 0 864 
L 864 864 
L 864 0 
L 0 0 
z
" style="fill: #ffffff"/>
  </g>
  <g id="axes_1">
   <g id="patch_2">
    <path d="M 10.8 764.486395 
L 675.772791 764.486395 
L 675.772791 99.513605 
L 10.8 99.513605 
z
" style="fill: #ffffff"/>
   </g>
   <g id="LineCollection_1">
    <path d="M 343.485872 432 
L 229.930886 332.198438 
" clip-path="url(#pfa86443ac9)" style="fill: none; stroke: #808080; stroke-opacity: 0.3"/>
    <path d="M 343.485872 432 
L 434.237472 552.925141 
" clip-path="url(#pfa86443ac9)" style="fill: none; stroke: #808080; stroke-opacity: 0.3"/>
    <path d="M 343.485872 432 
L 491.476912 462.929455 
" clip-path="url(#pfa86443ac9)" style="fill: none; stroke: #808080; stroke-opacity: 0.3"/>
    <path d="M 229.930886 332.198438 
L 645.452266 416.419786 
" clip-path="url(#pfa86443ac9)" style="fill: none; stroke: #808080; stroke-opacity: 0.3"/>
    <path d="M 229.930886 332.198438 
L 642.239634 385.469333 
" clip-path="url(#pfa86443ac9)" style="fill: none; stroke: #808080; stroke-opacity: 0.3"/>
    <path d="M 229.930886 332.198438 
L 635.877363 355.001824 
" clip-path="url(#pfa86443ac9)" style="fill: none; stroke: #808080; stroke-opacity: 0.3"/>
    <path d="M 229.930886 332.198438 
L 626.407448 325.332225 
" clip-path="url(#pfa86443ac9)" style="fill: none; stroke: #808080; stroke-opacity: 0.3"/>
    <path d="M 229.930886 332.198438 
L 613.955875 296.817493 
" clip-path="url(#pfa86443ac9)" style="fill: none; stroke: #808080; stroke-opacity: 0.3"/>
    <path d="M 229.930886 332.198438 
L 598.606634 269.709599 
" clip-path="url(#pfa86443ac9)" style="fill: none; stroke: #808080; stroke-opacity: 0.3"/>
    <path d="M 229.930886 332.198438 
L 580.569701 244.344506 
" clip-path="url(#pfa86443ac9)" style="fill: none; stroke: #808080; stroke-opacity: 0.3"/>
    <path d="M 229.930886 332.198438 
L 560.034055 220.953187 
" clip-path="url(#pfa86443ac9)" style="fill: none; stroke: #808080; stroke-opacity: 0.3"/>
    <path d="M 229.930886 332.198438 
L 537.188673 199.80861 
" clip-path="url(#pfa86443ac9)" style="fill: none; stroke: #808080; stroke-opacity: 0.3"/>
    <path d="M 229.930886 332.198438 
L 512.285527 181.120752 
" clip-path="url(#pfa86443ac9)" style="fill: none; stroke: #808080; stroke-opacity: 0.3"/>
    <path d="M 229.930886 332.198438 
L 485.597586 165.099588 
" clip-path="url(#pfa86443ac9)" style="fill: none; stroke: #808080; stroke-opacity: 0.3"/>
    <path d="M 229.930886 332.198438 
L 457.397818 151.913099 
" clip-path="url(#pfa86443ac9)" style="fill: none; stroke: #808080; stroke-opacity: 0.3"/>
    <path d="M 229.930886 332.198438 
L 428.001187 141.687271 
" clip-path="url(#pfa86443ac9)" style="fill: none; stroke: #808080; stroke-opacity: 0.3"/>
    <path d="M 229.930886 332.198438 
L 397.701659 134.527092 
" clip-path="url(#pfa86443ac9)" style="fill: none; stroke: #808080; stroke-opacity: 0.3"/>
    <path d="M 229.930886 332.198438 
L 366.814199 130.537549 
" clip-path="url(#pfa86443ac9)" style="fill: none; stroke: #808080; stroke-opacity: 0.3"/>
    <path d="M 229.930886 332.198438 
L 335.695765 129.739641 
" clip-path="url(#pfa86443ac9)" style="fill: none; stroke: #808080; stroke-opacity: 0.3"/>
    <path d="M 229.930886 332.198438 
L 304.661322 132.133366 
" clip-path="url(#pfa86443ac9)" style="fill: none; stroke: #808080; stroke-opacity: 0.3"/>
    <path d="M 229.930886 332.198438 
L 274.025833 137.718726 
" clip-path="url(#pfa86443ac9)" style="fill: none; stroke: #808080; stroke-opacity: 0.3"/>
    <path d="M 229.930886 332.198438 
L 244.146257 146.41173 
" clip-path="url(#pfa86443ac9)" style="fill: none; stroke: #808080; stroke-opacity: 0.3"/>
    <path d="M 229.930886 332.198438 
L 215.316561 158.149385 
" clip-path="url(#pfa86443ac9)" style="fill: none; stroke: #808080; stroke-opacity: 0.3"/>
    <path d="M 229.930886 332.198438 
L 187.830711 172.76371 
" clip-path="url(#pfa86443ac9)" style="fill: none; stroke: #808080; stroke-opacity: 0.3"/>
    <path d="M 229.930886 332.198438 
L 162.003671 190.149717 
" clip-path="url(#pfa86443ac9)" style="fill: none; stroke: #808080; stroke-opacity: 0.3"/>
    <path d="M 229.930886 332.198438 
L 138.087412 210.097431 
" clip-path="url(#pfa86443ac9)" style="fill: none; stroke: #808080; stroke-opacity: 0.3"/>
    <path d="M 229.930886 332.198438 
L 116.3759 232.396876 
" clip-path="url(#pfa86443ac9)" style="fill: none; stroke: #808080; stroke-opacity: 0.3"/>
    <path d="M 229.930886 332.198438 
L 97.058114 256.796079 
" clip-path="url(#pfa86443ac9)" style="fill: none; stroke: #808080; stroke-opacity: 0.3"/>
    <path d="M 229.930886 332.198438 
L 80.34403 283.064069 
" clip-path="url(#pfa86443ac9)" style="fill: none; stroke: #808080; stroke-opacity: 0.3"/>
    <path d="M 229.930886 332.198438 
L 66.422625 310.906878 
" clip-path="url(#pfa86443ac9)" style="fill: none; stroke: #808080; stroke-opacity: 0.3"/>
    <path d="M 229.930886 332.198438 
L 55.440884 340.051538 
" clip-path="url(#pfa86443ac9)" style="fill: none; stroke: #808080; stroke-opacity: 0.3"/>
    <path d="M 229.930886 332.198438 
L 47.503794 370.141089 
" clip-path="url(#pfa86443ac9)" style="fill: none; stroke: #808080; stroke-opacity: 0.3"/>
    <path d="M 229.930886 332.198438 
L 42.716342 400.902564 
" clip-path="url(#pfa86443ac9)" style="fill: none; stroke: #808080; stroke-opacity: 0.3"/>
    <path d="M 229.930886 332.198438 
L 41.120525 432 
" clip-path="url(#pfa86443ac9)" style="fill: none; stroke: #808080; stroke-opacity: 0.3"/>
    <path d="M 229.930886 332.198438 
L 42.716342 463.076438 
" clip-path="url(#pfa86443ac9)" style="fill: none; stroke: #808080; stroke-opacity: 0.3"/>
    <path d="M 229.930886 332.198438 
L 47.503794 493.837913 
" clip-path="url(#pfa86443ac9)" style="fill: none; stroke: #808080; stroke-opacity: 0.3"/>
    <path d="M 229.930886 332.198438 
L 55.440884 523.948462 
" clip-path="url(#pfa86443ac9)" style="fill: none; stroke: #808080; stroke-opacity: 0.3"/>
    <path d="M 229.930886 332.198438 
L 66.422625 553.072125 
" clip-path="url(#pfa86443ac9)" style="fill: none; stroke: #808080; stroke-opacity: 0.3"/>
    <path d="M 229.930886 332.198438 
L 80.34403 580.925432 
" clip-path="url(#pfa86443ac9)" style="fill: none; stroke: #808080; stroke-opacity: 0.3"/>
    <path d="M 229.930886 332.198438 
L 97.058114 607.191322 
" clip-path="url(#pfa86443ac9)" style="fill: none; stroke: #808080; stroke-opacity: 0.3"/>
    <path d="M 229.930886 332.198438 
L 116.3759 631.603124 
" clip-path="url(#pfa86443ac9)" style="fill: none; stroke: #808080; stroke-opacity: 0.3"/>
    <path d="M 229.930886 332.198438 
L 138.087412 653.89627 
" clip-path="url(#pfa86443ac9)" style="fill: none; stroke: #808080; stroke-opacity: 0.3"/>
    <path d="M 229.930886 332.198438 
L 162.003671 673.839784 
" clip-path="url(#pfa86443ac9)" style="fill: none; stroke: #808080; stroke-opacity: 0.3"/>
    <path d="M 229.930886 332.198438 
L 187.830711 691.217392 
" clip-path="url(#pfa86443ac9)" style="fill: none; stroke: #808080; stroke-opacity: 0.3"/>
    <path d="M 229.930886 332.198438 
L 215.316561 705.848516 
" clip-path="url(#pfa86443ac9)" style="fill: none; stroke: #808080; stroke-opacity: 0.3"/>
    <path d="M 229.930886 332.198438 
L 244.146257 717.575672 
" clip-path="url(#pfa86443ac9)" style="fill: none; stroke: #808080; stroke-opacity: 0.3"/>
    <path d="M 229.930886 332.198438 
L 274.025833 726.277074 
" clip-path="url(#pfa86443ac9)" style="fill: none; stroke: #808080; stroke-opacity: 0.3"/>
    <path d="M 229.930886 332.198438 
L 304.661322 731.858235 
" clip-path="url(#pfa86443ac9)" style="fill: none; stroke: #808080; stroke-opacity: 0.3"/>
    <path d="M 229.930886 332.198438 
L 335.695765 734.260359 
" clip-path="url(#pfa86443ac9)" style="fill: none; stroke: #808080; stroke-opacity: 0.3"/>
    <path d="M 229.930886 332.198438 
L 366.814199 733.458251 
" clip-path="url(#pfa86443ac9)" style="fill: none; stroke: #808080; stroke-opacity: 0.3"/>
    <path d="M 434.237472 552.925141 
L 397.701659 729.462409 
" clip-path="url(#pfa86443ac9)" style="fill: none; stroke: #808080; stroke-opacity: 0.3"/>
    <path d="M 434.237472 552.925141 
L 428.001187 722.310629 
" clip-path="url(#pfa86443ac9)" style="fill: none; stroke: #808080; stroke-opacity: 0.3"/>
    <path d="M 434.237472 552.925141 
L 457.397818 712.082701 
" clip-path="url(#pfa86443ac9)" style="fill: none; stroke: #808080; stroke-opacity: 0.3"/>
    <path d="M 434.237472 552.925141 
L 485.597586 698.885714 
" clip-path="url(#pfa86443ac9)" style="fill: none; stroke: #808080; stroke-opacity: 0.3"/>
    <path d="M 434.237472 552.925141 
L 512.285527 682.86035 
" clip-path="url(#pfa86443ac9)" style="fill: none; stroke: #808080; stroke-opacity: 0.3"/>
    <path d="M 434.237472 552.925141 
L 537.188673 664.176691 
" clip-path="url(#pfa86443ac9)" style="fill: none; stroke: #808080; stroke-opacity: 0.3"/>
    <path d="M 434.237472 552.925141 
L 560.034055 643.030015 
" clip-path="url(#pfa86443ac9)" style="fill: none; stroke: #808080; stroke-opacity: 0.3"/>
    <path d="M 434.237472 552.925141 
L 580.569701 619.647095 
" clip-path="url(#pfa86443ac9)" style="fill: none; stroke: #808080; stroke-opacity: 0.3"/>
    <path d="M 434.237472 552.925141 
L 598.606634 594.273603 
" clip-path="url(#pfa86443ac9)" style="fill: none; stroke: #808080; stroke-opacity: 0.3"/>
    <path d="M 434.237472 552.925141 
L 613.955875 567.180408 
" clip-path="url(#pfa86443ac9)" style="fill: none; stroke: #808080; stroke-opacity: 0.3"/>
    <path d="M 491.476912 462.929455 
L 626.407448 538.646778 
" clip-path="url(#pfa86443ac9)" style="fill: none; stroke: #808080; stroke-opacity: 0.3"/>
    <path d="M 491.476912 462.929455 
L 635.877363 508.998176 
" clip-path="url(#pfa86443ac9)" style="fill: none; stroke: #808080; stroke-opacity: 0.3"/>
    <path d="M 491.476912 462.929455 
L 642.239634 478.530667 
" clip-path="url(#pfa86443ac9)" style="fill: none; stroke: #808080; stroke-opacity: 0.3"/>
    <path d="M 491.476912 462.929455 
L 645.452266 447.559217 
" clip-path="url(#pfa86443ac9)" style="fill: none; stroke: #808080; stroke-opacity: 0.3"/>
   </g>
   <g id="matplotlib.axis_1">
    <g id="xtick_1"/>
    <g id="xtick_2"/>
    <g id="xtick_3"/>
    <g id="xtick_4"/>
    <g id="xtick_5"/>
    <g id="xtick_6"/>
   </g>
   <g id="matplotlib.axis_2">
    <g id="ytick_1"/>
    <g id="ytick_2"/>
    <g id="ytick_3"/>
    <g id="ytick_4"/>
    <g id="ytick_5"/>
    <g id="ytick_6"/>
   </g>
   <g id="PathCollection_1">
    <path d="M 343.485872 443.18034 
C 346.450933 443.18034 349.294952 442.002309 351.391567 439.905694 
C 353.488181 437.80908 354.666212 434.965061 354.666212 432 
C 354.666212 429.034939 353.488181 426.19092 351.391567 424.094306 
C 349.294952 421.997691 346.450933 420.81966 343.485872 420.81966 
C 340.520812 420.81966 337.676793 421.997691 335.580178 424.094306 
C 333.483564 426.19092 332.305533 429.034939 332.305533 432 
C 332.305533 434.965061 333.483564 437.80908 335.580178 439.905694 
C 337.676793 442.002309 340.520812 443.18034 343.485872 443.18034 
z
" clip-path="url(#pfa86443ac9)" style="fill: #ad35ca; stroke: #ad35ca"/>
    <path d="M 229.930886 339.269506 
C 231.806156 339.269506 233.604871 338.524453 234.930886 337.198438 
C 236.256902 335.872422 237.001954 334.073707 237.001954 332.198438 
C 237.001954 330.323169 236.256902 328.524453 234.930886 327.198438 
C 233.604871 325.872422 231.806156 325.12737 229.930886 325.12737 
C 228.055617 325.12737 226.256902 325.872422 224.930886 327.198438 
C 223.604871 328.524453 222.859819 330.323169 222.859819 332.198438 
C 222.859819 334.073707 223.604871 335.872422 224.930886 337.198438 
C 226.256902 338.524453 228.055617 339.269506 229.930886 339.269506 
z
" clip-path="url(#pfa86443ac9)" style="fill: #8f81b5; stroke: #8f81b5"/>
    <path d="M 645.452266 420.891922 
C 646.63829 420.891922 647.775897 420.420709 648.614543 419.582063 
C 649.453189 418.743417 649.924402 417.60581 649.924402 416.419786 
C 649.924402 415.233761 649.453189 414.096154 648.614543 413.257508 
C 647.775897 412.418862 646.63829 411.94765 645.452266 411.94765 
C 644.266241 411.94765 643.128634 412.418862 642.289988 413.257508 
C 641.451342 414.096154 640.98013 415.233761 640.98013 416.419786 
C 640.98013 417.60581 641.451342 418.743417 642.289988 419.582063 
C 643.128634 420.420709 644.266241 420.891922 645.452266 420.891922 
z
" clip-path="url(#pfa86443ac9)" style="fill: #879dba; stroke: #879dba"/>
    <path d="M 642.239634 389.941469 
C 643.425658 389.941469 644.563266 389.470256 645.401911 388.63161 
C 646.240557 387.792964 646.71177 386.655357 646.71177 385.469333 
C 646.71177 384.283308 646.240557 383.145701 645.401911 382.307055 
C 644.563266 381.468409 643.425658 380.997197 642.239634 380.997197 
C 641.053609 380.997197 639.916002 381.468409 639.077356 382.307055 
C 638.23871 383.145701 637.767498 384.283308 637.767498 385.469333 
C 637.767498 386.655357 638.23871 387.792964 639.077356 388.63161 
C 639.916002 389.470256 641.053609 389.941469 642.239634 389.941469 
z
" clip-path="url(#pfa86443ac9)" style="fill: #879dba; stroke: #879dba"/>
    <path d="M 635.877363 359.47396 
C 637.063387 359.47396 638.200995 359.002748 639.039641 358.164102 
C 639.878286 357.325456 640.349499 356.187849 640.349499 355.001824 
C 640.349499 353.8158 639.878286 352.678193 639.039641 351.839547 
C 638.200995 351.000901 637.063387 350.529688 635.877363 350.529688 
C 634.691339 350.529688 633.553731 351.000901 632.715085 351.839547 
C 631.876439 352.678193 631.405227 353.8158 631.405227 355.001824 
C 631.405227 356.187849 631.876439 357.325456 632.715085 358.164102 
C 633.553731 359.002748 634.691339 359.47396 635.877363 359.47396 
z
" clip-path="url(#pfa86443ac9)" style="fill: #879dba; stroke: #879dba"/>
    <path d="M 626.407448 329.804361 
C 627.593473 329.804361 628.73108 329.333148 629.569726 328.494502 
C 630.408372 327.655857 630.879584 326.518249 630.879584 325.332225 
C 630.879584 324.1462 630.408372 323.008593 629.569726 322.169947 
C 628.73108 321.331301 627.593473 320.860089 626.407448 320.860089 
C 625.221424 320.860089 624.083816 321.331301 623.245171 322.169947 
C 622.406525 323.008593 621.935312 324.1462 621.935312 325.332225 
C 621.935312 326.518249 622.406525 327.655857 623.245171 328.494502 
C 624.083816 329.333148 625.221424 329.804361 626.407448 329.804361 
z
" clip-path="url(#pfa86443ac9)" style="fill: #879dba; stroke: #879dba"/>
    <path d="M 613.955875 301.289629 
C 615.1419 301.289629 616.279507 300.818416 617.118153 299.97977 
C 617.956799 299.141124 618.428011 298.003517 618.428011 296.817493 
C 618.428011 295.631468 617.956799 294.493861 617.118153 293.655215 
C 616.279507 292.816569 615.1419 292.345357 613.955875 292.345357 
C 612.769851 292.345357 611.632243 292.816569 610.793598 293.655215 
C 609.954952 294.493861 609.483739 295.631468 609.483739 296.817493 
C 609.483739 298.003517 609.954952 299.141124 610.793598 299.97977 
C 611.632243 300.818416 612.769851 301.289629 613.955875 301.289629 
z
" clip-path="url(#pfa86443ac9)" style="fill: #879dba; stroke: #879dba"/>
    <path d="M 598.606634 274.181735 
C 599.792659 274.181735 600.930266 273.710523 601.768912 272.871877 
C 602.607558 272.033231 603.07877 270.895624 603.07877 269.709599 
C 603.07877 268.523575 602.607558 267.385967 601.768912 266.547322 
C 600.930266 265.708676 599.792659 265.237463 598.606634 265.237463 
C 597.42061 265.237463 596.283002 265.708676 595.444357 266.547322 
C 594.605711 267.385967 594.134498 268.523575 594.134498 269.709599 
C 594.134498 270.895624 594.605711 272.033231 595.444357 272.871877 
C 596.283002 273.710523 597.42061 274.181735 598.606634 274.181735 
z
" clip-path="url(#pfa86443ac9)" style="fill: #879dba; stroke: #879dba"/>
    <path d="M 580.569701 248.816642 
C 581.755726 248.816642 582.893333 248.34543 583.731979 247.506784 
C 584.570625 246.668138 585.041837 245.530531 585.041837 244.344506 
C 585.041837 243.158482 584.570625 242.020874 583.731979 241.182229 
C 582.893333 240.343583 581.755726 239.87237 580.569701 239.87237 
C 579.383677 239.87237 578.24607 240.343583 577.407424 241.182229 
C 576.568778 242.020874 576.097565 243.158482 576.097565 244.344506 
C 576.097565 245.530531 576.568778 246.668138 577.407424 247.506784 
C 578.24607 248.34543 579.383677 248.816642 580.569701 248.816642 
z
" clip-path="url(#pfa86443ac9)" style="fill: #879dba; stroke: #879dba"/>
    <path d="M 560.034055 225.425323 
C 561.220079 225.425323 562.357687 224.954111 563.196333 224.115465 
C 564.034978 223.276819 564.506191 222.139211 564.506191 220.953187 
C 564.506191 219.767163 564.034978 218.629555 563.196333 217.790909 
C 562.357687 216.952264 561.220079 216.481051 560.034055 216.481051 
C 558.848031 216.481051 557.710423 216.952264 556.871777 217.790909 
C 556.033131 218.629555 555.561919 219.767163 555.561919 220.953187 
C 555.561919 222.139211 556.033131 223.276819 556.871777 224.115465 
C 557.710423 224.954111 558.848031 225.425323 560.034055 225.425323 
z
" clip-path="url(#pfa86443ac9)" style="fill: #879dba; stroke: #879dba"/>
    <path d="M 537.188673 204.280746 
C 538.374697 204.280746 539.512305 203.809534 540.350951 202.970888 
C 541.189597 202.132242 541.660809 200.994635 541.660809 199.80861 
C 541.660809 198.622586 541.189597 197.484979 540.350951 196.646333 
C 539.512305 195.807687 538.374697 195.336474 537.188673 195.336474 
C 536.002649 195.336474 534.865041 195.807687 534.026395 196.646333 
C 533.18775 197.484979 532.716537 198.622586 532.716537 199.80861 
C 532.716537 200.994635 533.18775 202.132242 534.026395 202.970888 
C 534.865041 203.809534 536.002649 204.280746 537.188673 204.280746 
z
" clip-path="url(#pfa86443ac9)" style="fill: #879dba; stroke: #879dba"/>
    <path d="M 512.285527 185.592888 
C 513.471551 185.592888 514.609159 185.121676 515.447805 184.28303 
C 516.286451 183.444384 516.757663 182.306776 516.757663 181.120752 
C 516.757663 179.934728 516.286451 178.79712 515.447805 177.958474 
C 514.609159 177.119829 513.471551 176.648616 512.285527 176.648616 
C 511.099503 176.648616 509.961895 177.119829 509.12325 177.958474 
C 508.284604 178.79712 507.813391 179.934728 507.813391 181.120752 
C 507.813391 182.306776 508.284604 183.444384 509.12325 184.28303 
C 509.961895 185.121676 511.099503 185.592888 512.285527 185.592888 
z
" clip-path="url(#pfa86443ac9)" style="fill: #879dba; stroke: #879dba"/>
    <path d="M 485.597586 169.571724 
C 486.78361 169.571724 487.921218 169.100512 488.759863 168.261866 
C 489.598509 167.42322 490.069722 166.285612 490.069722 165.099588 
C 490.069722 163.913564 489.598509 162.775956 488.759863 161.937311 
C 487.921218 161.098665 486.78361 160.627452 485.597586 160.627452 
C 484.411561 160.627452 483.273954 161.098665 482.435308 161.937311 
C 481.596662 162.775956 481.12545 163.913564 481.12545 165.099588 
C 481.12545 166.285612 481.596662 167.42322 482.435308 168.261866 
C 483.273954 169.100512 484.411561 169.571724 485.597586 169.571724 
z
" clip-path="url(#pfa86443ac9)" style="fill: #879dba; stroke: #879dba"/>
    <path d="M 457.397818 156.385235 
C 458.583842 156.385235 459.721449 155.914023 460.560095 155.075377 
C 461.398741 154.236731 461.869954 153.099124 461.869954 151.913099 
C 461.869954 150.727075 461.398741 149.589468 460.560095 148.750822 
C 459.721449 147.912176 458.583842 147.440963 457.397818 147.440963 
C 456.211793 147.440963 455.074186 147.912176 454.23554 148.750822 
C 453.396894 149.589468 452.925682 150.727075 452.925682 151.913099 
C 452.925682 153.099124 453.396894 154.236731 454.23554 155.075377 
C 455.074186 155.914023 456.211793 156.385235 457.397818 156.385235 
z
" clip-path="url(#pfa86443ac9)" style="fill: #879dba; stroke: #879dba"/>
    <path d="M 428.001187 146.159407 
C 429.187211 146.159407 430.324818 145.688195 431.163464 144.849549 
C 432.00211 144.010903 432.473323 142.873296 432.473323 141.687271 
C 432.473323 140.501247 432.00211 139.36364 431.163464 138.524994 
C 430.324818 137.686348 429.187211 137.215135 428.001187 137.215135 
C 426.815162 137.215135 425.677555 137.686348 424.838909 138.524994 
C 424.000263 139.36364 423.529051 140.501247 423.529051 141.687271 
C 423.529051 142.873296 424.000263 144.010903 424.838909 144.849549 
C 425.677555 145.688195 426.815162 146.159407 428.001187 146.159407 
z
" clip-path="url(#pfa86443ac9)" style="fill: #879dba; stroke: #879dba"/>
    <path d="M 397.701659 138.999228 
C 398.887683 138.999228 400.025291 138.528015 400.863937 137.68937 
C 401.702583 136.850724 402.173795 135.713116 402.173795 134.527092 
C 402.173795 133.341068 401.702583 132.20346 400.863937 131.364814 
C 400.025291 130.526168 398.887683 130.054956 397.701659 130.054956 
C 396.515635 130.054956 395.378027 130.526168 394.539381 131.364814 
C 393.700736 132.20346 393.229523 133.341068 393.229523 134.527092 
C 393.229523 135.713116 393.700736 136.850724 394.539381 137.68937 
C 395.378027 138.528015 396.515635 138.999228 397.701659 138.999228 
z
" clip-path="url(#pfa86443ac9)" style="fill: #879dba; stroke: #879dba"/>
    <path d="M 366.814199 135.009685 
C 368.000223 135.009685 369.137831 134.538473 369.976477 133.699827 
C 370.815122 132.861181 371.286335 131.723573 371.286335 130.537549 
C 371.286335 129.351525 370.815122 128.213917 369.976477 127.375271 
C 369.137831 126.536626 368.000223 126.065413 366.814199 126.065413 
C 365.628175 126.065413 364.490567 126.536626 363.651921 127.375271 
C 362.813275 128.213917 362.342063 129.351525 362.342063 130.537549 
C 362.342063 131.723573 362.813275 132.861181 363.651921 133.699827 
C 364.490567 134.538473 365.628175 135.009685 366.814199 135.009685 
z
" clip-path="url(#pfa86443ac9)" style="fill: #879dba; stroke: #879dba"/>
    <path d="M 335.695765 134.211777 
C 336.88179 134.211777 338.019397 133.740564 338.858043 132.901918 
C 339.696689 132.063272 340.167901 130.925665 340.167901 129.739641 
C 340.167901 128.553616 339.696689 127.416009 338.858043 126.577363 
C 338.019397 125.738717 336.88179 125.267505 335.695765 125.267505 
C 334.509741 125.267505 333.372133 125.738717 332.533488 126.577363 
C 331.694842 127.416009 331.223629 128.553616 331.223629 129.739641 
C 331.223629 130.925665 331.694842 132.063272 332.533488 132.901918 
C 333.372133 133.740564 334.509741 134.211777 335.695765 134.211777 
z
" clip-path="url(#pfa86443ac9)" style="fill: #879dba; stroke: #879dba"/>
    <path d="M 304.661322 136.605502 
C 305.847346 136.605502 306.984954 136.13429 307.8236 135.295644 
C 308.662245 134.456998 309.133458 133.319391 309.133458 132.133366 
C 309.133458 130.947342 308.662245 129.809734 307.8236 128.971089 
C 306.984954 128.132443 305.847346 127.66123 304.661322 127.66123 
C 303.475298 127.66123 302.33769 128.132443 301.499044 128.971089 
C 300.660398 129.809734 300.189186 130.947342 300.189186 132.133366 
C 300.189186 133.319391 300.660398 134.456998 301.499044 135.295644 
C 302.33769 136.13429 303.475298 136.605502 304.661322 136.605502 
z
" clip-path="url(#pfa86443ac9)" style="fill: #879dba; stroke: #879dba"/>
    <path d="M 274.025833 142.190862 
C 275.211857 142.190862 276.349465 141.71965 277.188111 140.881004 
C 278.026756 140.042358 278.497969 138.90475 278.497969 137.718726 
C 278.497969 136.532702 278.026756 135.395094 277.188111 134.556448 
C 276.349465 133.717803 275.211857 133.24659 274.025833 133.24659 
C 272.839809 133.24659 271.702201 133.717803 270.863555 134.556448 
C 270.024909 135.395094 269.553697 136.532702 269.553697 137.718726 
C 269.553697 138.90475 270.024909 140.042358 270.863555 140.881004 
C 271.702201 141.71965 272.839809 142.190862 274.025833 142.190862 
z
" clip-path="url(#pfa86443ac9)" style="fill: #879dba; stroke: #879dba"/>
    <path d="M 244.146257 150.883866 
C 245.332282 150.883866 246.469889 150.412653 247.308535 149.574008 
C 248.147181 148.735362 248.618393 147.597754 248.618393 146.41173 
C 248.618393 145.225706 248.147181 144.088098 247.308535 143.249452 
C 246.469889 142.410806 245.332282 141.939594 244.146257 141.939594 
C 242.960233 141.939594 241.822625 142.410806 240.98398 143.249452 
C 240.145334 144.088098 239.674121 145.225706 239.674121 146.41173 
C 239.674121 147.597754 240.145334 148.735362 240.98398 149.574008 
C 241.822625 150.412653 242.960233 150.883866 244.146257 150.883866 
z
" clip-path="url(#pfa86443ac9)" style="fill: #879dba; stroke: #879dba"/>
    <path d="M 215.316561 162.621521 
C 216.502586 162.621521 217.640193 162.150308 218.478839 161.311662 
C 219.317485 160.473017 219.788697 159.335409 219.788697 158.149385 
C 219.788697 156.96336 219.317485 155.825753 218.478839 154.987107 
C 217.640193 154.148461 216.502586 153.677249 215.316561 153.677249 
C 214.130537 153.677249 212.99293 154.148461 212.154284 154.987107 
C 211.315638 155.825753 210.844425 156.96336 210.844425 158.149385 
C 210.844425 159.335409 211.315638 160.473017 212.154284 161.311662 
C 212.99293 162.150308 214.130537 162.621521 215.316561 162.621521 
z
" clip-path="url(#pfa86443ac9)" style="fill: #879dba; stroke: #879dba"/>
    <path d="M 187.830711 177.235846 
C 189.016736 177.235846 190.154343 176.764633 190.992989 175.925987 
C 191.831635 175.087342 192.302847 173.949734 192.302847 172.76371 
C 192.302847 171.577686 191.831635 170.440078 190.992989 169.601432 
C 190.154343 168.762786 189.016736 168.291574 187.830711 168.291574 
C 186.644687 168.291574 185.50708 168.762786 184.668434 169.601432 
C 183.829788 170.440078 183.358575 171.577686 183.358575 172.76371 
C 183.358575 173.949734 183.829788 175.087342 184.668434 175.925987 
C 185.50708 176.764633 186.644687 177.235846 187.830711 177.235846 
z
" clip-path="url(#pfa86443ac9)" style="fill: #879dba; stroke: #879dba"/>
    <path d="M 162.003671 194.621853 
C 163.189696 194.621853 164.327303 194.150641 165.165949 193.311995 
C 166.004595 192.473349 166.475807 191.335742 166.475807 190.149717 
C 166.475807 188.963693 166.004595 187.826085 165.165949 186.98744 
C 164.327303 186.148794 163.189696 185.677581 162.003671 185.677581 
C 160.817647 185.677581 159.680039 186.148794 158.841394 186.98744 
C 158.002748 187.826085 157.531535 188.963693 157.531535 190.149717 
C 157.531535 191.335742 158.002748 192.473349 158.841394 193.311995 
C 159.680039 194.150641 160.817647 194.621853 162.003671 194.621853 
z
" clip-path="url(#pfa86443ac9)" style="fill: #879dba; stroke: #879dba"/>
    <path d="M 138.087412 214.569567 
C 139.273437 214.569567 140.411044 214.098355 141.24969 213.259709 
C 142.088336 212.421063 142.559548 211.283456 142.559548 210.097431 
C 142.559548 208.911407 142.088336 207.773799 141.24969 206.935154 
C 140.411044 206.096508 139.273437 205.625295 138.087412 205.625295 
C 136.901388 205.625295 135.76378 206.096508 134.925135 206.935154 
C 134.086489 207.773799 133.615276 208.911407 133.615276 210.097431 
C 133.615276 211.283456 134.086489 212.421063 134.925135 213.259709 
C 135.76378 214.098355 136.901388 214.569567 138.087412 214.569567 
z
" clip-path="url(#pfa86443ac9)" style="fill: #879dba; stroke: #879dba"/>
    <path d="M 116.3759 236.869012 
C 117.561925 236.869012 118.699532 236.397799 119.538178 235.559153 
C 120.376824 234.720507 120.848036 233.5829 120.848036 232.396876 
C 120.848036 231.210851 120.376824 230.073244 119.538178 229.234598 
C 118.699532 228.395952 117.561925 227.92474 116.3759 227.92474 
C 115.189876 227.92474 114.052269 228.395952 113.213623 229.234598 
C 112.374977 230.073244 111.903765 231.210851 111.903765 232.396876 
C 111.903765 233.5829 112.374977 234.720507 113.213623 235.559153 
C 114.052269 236.397799 115.189876 236.869012 116.3759 236.869012 
z
" clip-path="url(#pfa86443ac9)" style="fill: #879dba; stroke: #879dba"/>
    <path d="M 97.058114 261.268215 
C 98.244139 261.268215 99.381746 260.797003 100.220392 259.958357 
C 101.059038 259.119711 101.53025 257.982104 101.53025 256.796079 
C 101.53025 255.610055 101.059038 254.472447 100.220392 253.633802 
C 99.381746 252.795156 98.244139 252.323943 97.058114 252.323943 
C 95.87209 252.323943 94.734483 252.795156 93.895837 253.633802 
C 93.057191 254.472447 92.585978 255.610055 92.585978 256.796079 
C 92.585978 257.982104 93.057191 259.119711 93.895837 259.958357 
C 94.734483 260.797003 95.87209 261.268215 97.058114 261.268215 
z
" clip-path="url(#pfa86443ac9)" style="fill: #879dba; stroke: #879dba"/>
    <path d="M 80.34403 287.536205 
C 81.530054 287.536205 82.667662 287.064992 83.506308 286.226346 
C 84.344953 285.387701 84.816166 284.250093 84.816166 283.064069 
C 84.816166 281.878045 84.344953 280.740437 83.506308 279.901791 
C 82.667662 279.063145 81.530054 278.591933 80.34403 278.591933 
C 79.158006 278.591933 78.020398 279.063145 77.181752 279.901791 
C 76.343106 280.740437 75.871894 281.878045 75.871894 283.064069 
C 75.871894 284.250093 76.343106 285.387701 77.181752 286.226346 
C 78.020398 287.064992 79.158006 287.536205 80.34403 287.536205 
z
" clip-path="url(#pfa86443ac9)" style="fill: #879dba; stroke: #879dba"/>
    <path d="M 66.422625 315.379014 
C 67.60865 315.379014 68.746257 314.907801 69.584903 314.069156 
C 70.423549 313.23051 70.894761 312.092902 70.894761 310.906878 
C 70.894761 309.720854 70.423549 308.583246 69.584903 307.7446 
C 68.746257 306.905954 67.60865 306.434742 66.422625 306.434742 
C 65.236601 306.434742 64.098994 306.905954 63.260348 307.7446 
C 62.421702 308.583246 61.950489 309.720854 61.950489 310.906878 
C 61.950489 312.092902 62.421702 313.23051 63.260348 314.069156 
C 64.098994 314.907801 65.236601 315.379014 66.422625 315.379014 
z
" clip-path="url(#pfa86443ac9)" style="fill: #879dba; stroke: #879dba"/>
    <path d="M 55.440884 344.523674 
C 56.626908 344.523674 57.764516 344.052461 58.603162 343.213815 
C 59.441807 342.37517 59.91302 341.237562 59.91302 340.051538 
C 59.91302 338.865513 59.441807 337.727906 58.603162 336.88926 
C 57.764516 336.050614 56.626908 335.579402 55.440884 335.579402 
C 54.25486 335.579402 53.117252 336.050614 52.278606 336.88926 
C 51.43996 337.727906 50.968748 338.865513 50.968748 340.051538 
C 50.968748 341.237562 51.43996 342.37517 52.278606 343.213815 
C 53.117252 344.052461 54.25486 344.523674 55.440884 344.523674 
z
" clip-path="url(#pfa86443ac9)" style="fill: #879dba; stroke: #879dba"/>
    <path d="M 47.503794 374.613225 
C 48.689818 374.613225 49.827425 374.142013 50.666071 373.303367 
C 51.504717 372.464721 51.97593 371.327114 51.97593 370.141089 
C 51.97593 368.955065 51.504717 367.817458 50.666071 366.978812 
C 49.827425 366.140166 48.689818 365.668953 47.503794 365.668953 
C 46.317769 365.668953 45.180162 366.140166 44.341516 366.978812 
C 43.50287 367.817458 43.031658 368.955065 43.031658 370.141089 
C 43.031658 371.327114 43.50287 372.464721 44.341516 373.303367 
C 45.180162 374.142013 46.317769 374.613225 47.503794 374.613225 
z
" clip-path="url(#pfa86443ac9)" style="fill: #879dba; stroke: #879dba"/>
    <path d="M 42.716342 405.3747 
C 43.902367 405.3747 45.039974 404.903487 45.87862 404.064842 
C 46.717266 403.226196 47.188478 402.088588 47.188478 400.902564 
C 47.188478 399.71654 46.717266 398.578932 45.87862 397.740286 
C 45.039974 396.90164 43.902367 396.430428 42.716342 396.430428 
C 41.530318 396.430428 40.39271 396.90164 39.554065 397.740286 
C 38.715419 398.578932 38.244206 399.71654 38.244206 400.902564 
C 38.244206 402.088588 38.715419 403.226196 39.554065 404.064842 
C 40.39271 404.903487 41.530318 405.3747 42.716342 405.3747 
z
" clip-path="url(#pfa86443ac9)" style="fill: #879dba; stroke: #879dba"/>
    <path d="M 41.120525 436.472136 
C 42.306549 436.472136 43.444157 436.000923 44.282803 435.162278 
C 45.121449 434.323632 45.592661 433.186024 45.592661 432 
C 45.592661 430.813976 45.121449 429.676368 44.282803 428.837722 
C 43.444157 427.999077 42.306549 427.527864 41.120525 427.527864 
C 39.934501 427.527864 38.796893 427.999077 37.958247 428.837722 
C 37.119602 429.676368 36.648389 430.813976 36.648389 432 
C 36.648389 433.186024 37.119602 434.323632 37.958247 435.162278 
C 38.796893 436.000923 39.934501 436.472136 41.120525 436.472136 
z
" clip-path="url(#pfa86443ac9)" style="fill: #879dba; stroke: #879dba"/>
    <path d="M 42.716342 467.548574 
C 43.902367 467.548574 45.039974 467.077362 45.87862 466.238716 
C 46.717266 465.40007 47.188478 464.262463 47.188478 463.076438 
C 47.188478 461.890414 46.717266 460.752807 45.87862 459.914161 
C 45.039974 459.075515 43.902367 458.604303 42.716342 458.604303 
C 41.530318 458.604303 40.39271 459.075515 39.554065 459.914161 
C 38.715419 460.752807 38.244206 461.890414 38.244206 463.076438 
C 38.244206 464.262463 38.715419 465.40007 39.554065 466.238716 
C 40.39271 467.077362 41.530318 467.548574 42.716342 467.548574 
z
" clip-path="url(#pfa86443ac9)" style="fill: #879dba; stroke: #879dba"/>
    <path d="M 47.503794 498.310049 
C 48.689818 498.310049 49.827425 497.838837 50.666071 497.000191 
C 51.504717 496.161545 51.97593 495.023937 51.97593 493.837913 
C 51.97593 492.651889 51.504717 491.514281 50.666071 490.675635 
C 49.827425 489.83699 48.689818 489.365777 47.503794 489.365777 
C 46.317769 489.365777 45.180162 489.83699 44.341516 490.675635 
C 43.50287 491.514281 43.031658 492.651889 43.031658 493.837913 
C 43.031658 495.023937 43.50287 496.161545 44.341516 497.000191 
C 45.180162 497.838837 46.317769 498.310049 47.503794 498.310049 
z
" clip-path="url(#pfa86443ac9)" style="fill: #879dba; stroke: #879dba"/>
    <path d="M 55.440884 528.420598 
C 56.626908 528.420598 57.764516 527.949386 58.603162 527.11074 
C 59.441807 526.272094 59.91302 525.134487 59.91302 523.948462 
C 59.91302 522.762438 59.441807 521.62483 58.603162 520.786185 
C 57.764516 519.947539 56.626908 519.476326 55.440884 519.476326 
C 54.25486 519.476326 53.117252 519.947539 52.278606 520.786185 
C 51.43996 521.62483 50.968748 522.762438 50.968748 523.948462 
C 50.968748 525.134487 51.43996 526.272094 52.278606 527.11074 
C 53.117252 527.949386 54.25486 528.420598 55.440884 528.420598 
z
" clip-path="url(#pfa86443ac9)" style="fill: #879dba; stroke: #879dba"/>
    <path d="M 66.422625 557.54426 
C 67.60865 557.54426 68.746257 557.073048 69.584903 556.234402 
C 70.423549 555.395756 70.894761 554.258149 70.894761 553.072125 
C 70.894761 551.8861 70.423549 550.748493 69.584903 549.909847 
C 68.746257 549.071201 67.60865 548.599989 66.422625 548.599989 
C 65.236601 548.599989 64.098994 549.071201 63.260348 549.909847 
C 62.421702 550.748493 61.950489 551.8861 61.950489 553.072125 
C 61.950489 554.258149 62.421702 555.395756 63.260348 556.234402 
C 64.098994 557.073048 65.236601 557.54426 66.422625 557.54426 
z
" clip-path="url(#pfa86443ac9)" style="fill: #879dba; stroke: #879dba"/>
    <path d="M 80.34403 585.397568 
C 81.530054 585.397568 82.667662 584.926356 83.506308 584.08771 
C 84.344953 583.249064 84.816166 582.111457 84.816166 580.925432 
C 84.816166 579.739408 84.344953 578.601801 83.506308 577.763155 
C 82.667662 576.924509 81.530054 576.453296 80.34403 576.453296 
C 79.158006 576.453296 78.020398 576.924509 77.181752 577.763155 
C 76.343106 578.601801 75.871894 579.739408 75.871894 580.925432 
C 75.871894 582.111457 76.343106 583.249064 77.181752 584.08771 
C 78.020398 584.926356 79.158006 585.397568 80.34403 585.397568 
z
" clip-path="url(#pfa86443ac9)" style="fill: #879dba; stroke: #879dba"/>
    <path d="M 97.058114 611.663458 
C 98.244139 611.663458 99.381746 611.192246 100.220392 610.3536 
C 101.059038 609.514954 101.53025 608.377346 101.53025 607.191322 
C 101.53025 606.005298 101.059038 604.86769 100.220392 604.029045 
C 99.381746 603.190399 98.244139 602.719186 97.058114 602.719186 
C 95.87209 602.719186 94.734483 603.190399 93.895837 604.029045 
C 93.057191 604.86769 92.585978 606.005298 92.585978 607.191322 
C 92.585978 608.377346 93.057191 609.514954 93.895837 610.3536 
C 94.734483 611.192246 95.87209 611.663458 97.058114 611.663458 
z
" clip-path="url(#pfa86443ac9)" style="fill: #879dba; stroke: #879dba"/>
    <path d="M 116.3759 636.07526 
C 117.561925 636.07526 118.699532 635.604048 119.538178 634.765402 
C 120.376824 633.926756 120.848036 632.789149 120.848036 631.603124 
C 120.848036 630.4171 120.376824 629.279493 119.538178 628.440847 
C 118.699532 627.602201 117.561925 627.130988 116.3759 627.130988 
C 115.189876 627.130988 114.052269 627.602201 113.213623 628.440847 
C 112.374977 629.279493 111.903765 630.4171 111.903765 631.603124 
C 111.903765 632.789149 112.374977 633.926756 113.213623 634.765402 
C 114.052269 635.604048 115.189876 636.07526 116.3759 636.07526 
z
" clip-path="url(#pfa86443ac9)" style="fill: #879dba; stroke: #879dba"/>
    <path d="M 138.087412 658.368405 
C 139.273437 658.368405 140.411044 657.897193 141.24969 657.058547 
C 142.088336 656.219901 142.559548 655.082294 142.559548 653.89627 
C 142.559548 652.710245 142.088336 651.572638 141.24969 650.733992 
C 140.411044 649.895346 139.273437 649.424134 138.087412 649.424134 
C 136.901388 649.424134 135.76378 649.895346 134.925135 650.733992 
C 134.086489 651.572638 133.615276 652.710245 133.615276 653.89627 
C 133.615276 655.082294 134.086489 656.219901 134.925135 657.058547 
C 135.76378 657.897193 136.901388 658.368405 138.087412 658.368405 
z
" clip-path="url(#pfa86443ac9)" style="fill: #879dba; stroke: #879dba"/>
    <path d="M 162.003671 678.31192 
C 163.189696 678.31192 164.327303 677.840707 165.165949 677.002062 
C 166.004595 676.163416 166.475807 675.025808 166.475807 673.839784 
C 166.475807 672.65376 166.004595 671.516152 165.165949 670.677506 
C 164.327303 669.83886 163.189696 669.367648 162.003671 669.367648 
C 160.817647 669.367648 159.680039 669.83886 158.841394 670.677506 
C 158.002748 671.516152 157.531535 672.65376 157.531535 673.839784 
C 157.531535 675.025808 158.002748 676.163416 158.841394 677.002062 
C 159.680039 677.840707 160.817647 678.31192 162.003671 678.31192 
z
" clip-path="url(#pfa86443ac9)" style="fill: #879dba; stroke: #879dba"/>
    <path d="M 187.830711 695.689528 
C 189.016736 695.689528 190.154343 695.218316 190.992989 694.37967 
C 191.831635 693.541024 192.302847 692.403417 192.302847 691.217392 
C 192.302847 690.031368 191.831635 688.893761 190.992989 688.055115 
C 190.154343 687.216469 189.016736 686.745256 187.830711 686.745256 
C 186.644687 686.745256 185.50708 687.216469 184.668434 688.055115 
C 183.829788 688.893761 183.358575 690.031368 183.358575 691.217392 
C 183.358575 692.403417 183.829788 693.541024 184.668434 694.37967 
C 185.50708 695.218316 186.644687 695.689528 187.830711 695.689528 
z
" clip-path="url(#pfa86443ac9)" style="fill: #879dba; stroke: #879dba"/>
    <path d="M 215.316561 710.320651 
C 216.502586 710.320651 217.640193 709.849439 218.478839 709.010793 
C 219.317485 708.172147 219.788697 707.03454 219.788697 705.848516 
C 219.788697 704.662491 219.317485 703.524884 218.478839 702.686238 
C 217.640193 701.847592 216.502586 701.37638 215.316561 701.37638 
C 214.130537 701.37638 212.99293 701.847592 212.154284 702.686238 
C 211.315638 703.524884 210.844425 704.662491 210.844425 705.848516 
C 210.844425 707.03454 211.315638 708.172147 212.154284 709.010793 
C 212.99293 709.849439 214.130537 710.320651 215.316561 710.320651 
z
" clip-path="url(#pfa86443ac9)" style="fill: #879dba; stroke: #879dba"/>
    <path d="M 244.146257 722.047808 
C 245.332282 722.047808 246.469889 721.576595 247.308535 720.737949 
C 248.147181 719.899303 248.618393 718.761696 248.618393 717.575672 
C 248.618393 716.389647 248.147181 715.25204 247.308535 714.413394 
C 246.469889 713.574748 245.332282 713.103536 244.146257 713.103536 
C 242.960233 713.103536 241.822625 713.574748 240.98398 714.413394 
C 240.145334 715.25204 239.674121 716.389647 239.674121 717.575672 
C 239.674121 718.761696 240.145334 719.899303 240.98398 720.737949 
C 241.822625 721.576595 242.960233 722.047808 244.146257 722.047808 
z
" clip-path="url(#pfa86443ac9)" style="fill: #879dba; stroke: #879dba"/>
    <path d="M 274.025833 730.74921 
C 275.211857 730.74921 276.349465 730.277998 277.188111 729.439352 
C 278.026756 728.600706 278.497969 727.463099 278.497969 726.277074 
C 278.497969 725.09105 278.026756 723.953443 277.188111 723.114797 
C 276.349465 722.276151 275.211857 721.804938 274.025833 721.804938 
C 272.839809 721.804938 271.702201 722.276151 270.863555 723.114797 
C 270.024909 723.953443 269.553697 725.09105 269.553697 726.277074 
C 269.553697 727.463099 270.024909 728.600706 270.863555 729.439352 
C 271.702201 730.277998 272.839809 730.74921 274.025833 730.74921 
z
" clip-path="url(#pfa86443ac9)" style="fill: #879dba; stroke: #879dba"/>
    <path d="M 304.661322 736.330371 
C 305.847346 736.330371 306.984954 735.859158 307.8236 735.020512 
C 308.662245 734.181867 309.133458 733.044259 309.133458 731.858235 
C 309.133458 730.67221 308.662245 729.534603 307.8236 728.695957 
C 306.984954 727.857311 305.847346 727.386099 304.661322 727.386099 
C 303.475298 727.386099 302.33769 727.857311 301.499044 728.695957 
C 300.660398 729.534603 300.189186 730.67221 300.189186 731.858235 
C 300.189186 733.044259 300.660398 734.181867 301.499044 735.020512 
C 302.33769 735.859158 303.475298 736.330371 304.661322 736.330371 
z
" clip-path="url(#pfa86443ac9)" style="fill: #879dba; stroke: #879dba"/>
    <path d="M 335.695765 738.732495 
C 336.88179 738.732495 338.019397 738.261283 338.858043 737.422637 
C 339.696689 736.583991 340.167901 735.446384 340.167901 734.260359 
C 340.167901 733.074335 339.696689 731.936728 338.858043 731.098082 
C 338.019397 730.259436 336.88179 729.788223 335.695765 729.788223 
C 334.509741 729.788223 333.372133 730.259436 332.533488 731.098082 
C 331.694842 731.936728 331.223629 733.074335 331.223629 734.260359 
C 331.223629 735.446384 331.694842 736.583991 332.533488 737.422637 
C 333.372133 738.261283 334.509741 738.732495 335.695765 738.732495 
z
" clip-path="url(#pfa86443ac9)" style="fill: #879dba; stroke: #879dba"/>
    <path d="M 366.814199 737.930387 
C 368.000223 737.930387 369.137831 737.459175 369.976477 736.620529 
C 370.815122 735.781883 371.286335 734.644276 371.286335 733.458251 
C 371.286335 732.272227 370.815122 731.13462 369.976477 730.295974 
C 369.137831 729.457328 368.000223 728.986115 366.814199 728.986115 
C 365.628175 728.986115 364.490567 729.457328 363.651921 730.295974 
C 362.813275 731.13462 362.342063 732.272227 362.342063 733.458251 
C 362.342063 734.644276 362.813275 735.781883 363.651921 736.620529 
C 364.490567 737.459175 365.628175 737.930387 366.814199 737.930387 
z
" clip-path="url(#pfa86443ac9)" style="fill: #879dba; stroke: #879dba"/>
    <path d="M 434.237472 559.996209 
C 436.112741 559.996209 437.911456 559.251157 439.237472 557.925141 
C 440.563487 556.599126 441.30854 554.80041 441.30854 552.925141 
C 441.30854 551.049872 440.563487 549.251157 439.237472 547.925141 
C 437.911456 546.599126 436.112741 545.854074 434.237472 545.854074 
C 432.362203 545.854074 430.563487 546.599126 429.237472 547.925141 
C 427.911456 549.251157 427.166404 551.049872 427.166404 552.925141 
C 427.166404 554.80041 427.911456 556.599126 429.237472 557.925141 
C 430.563487 559.251157 432.362203 559.996209 434.237472 559.996209 
z
" clip-path="url(#pfa86443ac9)" style="fill: #8f81b5; stroke: #8f81b5"/>
    <path d="M 397.701659 733.934545 
C 398.887683 733.934545 400.025291 733.463333 400.863937 732.624687 
C 401.702583 731.786041 402.173795 730.648434 402.173795 729.462409 
C 402.173795 728.276385 401.702583 727.138777 400.863937 726.300132 
C 400.025291 725.461486 398.887683 724.990273 397.701659 724.990273 
C 396.515635 724.990273 395.378027 725.461486 394.539381 726.300132 
C 393.700736 727.138777 393.229523 728.276385 393.229523 729.462409 
C 393.229523 730.648434 393.700736 731.786041 394.539381 732.624687 
C 395.378027 733.463333 396.515635 733.934545 397.701659 733.934545 
z
" clip-path="url(#pfa86443ac9)" style="fill: #879dba; stroke: #879dba"/>
    <path d="M 428.001187 726.782765 
C 429.187211 726.782765 430.324818 726.311552 431.163464 725.472907 
C 432.00211 724.634261 432.473323 723.496653 432.473323 722.310629 
C 432.473323 721.124605 432.00211 719.986997 431.163464 719.148351 
C 430.324818 718.309705 429.187211 717.838493 428.001187 717.838493 
C 426.815162 717.838493 425.677555 718.309705 424.838909 719.148351 
C 424.000263 719.986997 423.529051 721.124605 423.529051 722.310629 
C 423.529051 723.496653 424.000263 724.634261 424.838909 725.472907 
C 425.677555 726.311552 426.815162 726.782765 428.001187 726.782765 
z
" clip-path="url(#pfa86443ac9)" style="fill: #879dba; stroke: #879dba"/>
    <path d="M 457.397818 716.554837 
C 458.583842 716.554837 459.721449 716.083625 460.560095 715.244979 
C 461.398741 714.406333 461.869954 713.268725 461.869954 712.082701 
C 461.869954 710.896677 461.398741 709.759069 460.560095 708.920423 
C 459.721449 708.081778 458.583842 707.610565 457.397818 707.610565 
C 456.211793 707.610565 455.074186 708.081778 454.23554 708.920423 
C 453.396894 709.759069 452.925682 710.896677 452.925682 712.082701 
C 452.925682 713.268725 453.396894 714.406333 454.23554 715.244979 
C 455.074186 716.083625 456.211793 716.554837 457.397818 716.554837 
z
" clip-path="url(#pfa86443ac9)" style="fill: #879dba; stroke: #879dba"/>
    <path d="M 485.597586 703.357849 
C 486.78361 703.357849 487.921218 702.886637 488.759863 702.047991 
C 489.598509 701.209345 490.069722 700.071738 490.069722 698.885714 
C 490.069722 697.699689 489.598509 696.562082 488.759863 695.723436 
C 487.921218 694.88479 486.78361 694.413578 485.597586 694.413578 
C 484.411561 694.413578 483.273954 694.88479 482.435308 695.723436 
C 481.596662 696.562082 481.12545 697.699689 481.12545 698.885714 
C 481.12545 700.071738 481.596662 701.209345 482.435308 702.047991 
C 483.273954 702.886637 484.411561 703.357849 485.597586 703.357849 
z
" clip-path="url(#pfa86443ac9)" style="fill: #879dba; stroke: #879dba"/>
    <path d="M 512.285527 687.332486 
C 513.471551 687.332486 514.609159 686.861274 515.447805 686.022628 
C 516.286451 685.183982 516.757663 684.046374 516.757663 682.86035 
C 516.757663 681.674326 516.286451 680.536718 515.447805 679.698072 
C 514.609159 678.859427 513.471551 678.388214 512.285527 678.388214 
C 511.099503 678.388214 509.961895 678.859427 509.12325 679.698072 
C 508.284604 680.536718 507.813391 681.674326 507.813391 682.86035 
C 507.813391 684.046374 508.284604 685.183982 509.12325 686.022628 
C 509.961895 686.861274 511.099503 687.332486 512.285527 687.332486 
z
" clip-path="url(#pfa86443ac9)" style="fill: #879dba; stroke: #879dba"/>
    <path d="M 537.188673 668.648827 
C 538.374697 668.648827 539.512305 668.177615 540.350951 667.338969 
C 541.189597 666.500323 541.660809 665.362716 541.660809 664.176691 
C 541.660809 662.990667 541.189597 661.85306 540.350951 661.014414 
C 539.512305 660.175768 538.374697 659.704555 537.188673 659.704555 
C 536.002649 659.704555 534.865041 660.175768 534.026395 661.014414 
C 533.18775 661.85306 532.716537 662.990667 532.716537 664.176691 
C 532.716537 665.362716 533.18775 666.500323 534.026395 667.338969 
C 534.865041 668.177615 536.002649 668.648827 537.188673 668.648827 
z
" clip-path="url(#pfa86443ac9)" style="fill: #879dba; stroke: #879dba"/>
    <path d="M 560.034055 647.502151 
C 561.220079 647.502151 562.357687 647.030938 563.196333 646.192293 
C 564.034978 645.353647 564.506191 644.216039 564.506191 643.030015 
C 564.506191 641.843991 564.034978 640.706383 563.196333 639.867737 
C 562.357687 639.029091 561.220079 638.557879 560.034055 638.557879 
C 558.848031 638.557879 557.710423 639.029091 556.871777 639.867737 
C 556.033131 640.706383 555.561919 641.843991 555.561919 643.030015 
C 555.561919 644.216039 556.033131 645.353647 556.871777 646.192293 
C 557.710423 647.030938 558.848031 647.502151 560.034055 647.502151 
z
" clip-path="url(#pfa86443ac9)" style="fill: #879dba; stroke: #879dba"/>
    <path d="M 580.569701 624.119231 
C 581.755726 624.119231 582.893333 623.648018 583.731979 622.809372 
C 584.570625 621.970726 585.041837 620.833119 585.041837 619.647095 
C 585.041837 618.46107 584.570625 617.323463 583.731979 616.484817 
C 582.893333 615.646171 581.755726 615.174959 580.569701 615.174959 
C 579.383677 615.174959 578.24607 615.646171 577.407424 616.484817 
C 576.568778 617.323463 576.097565 618.46107 576.097565 619.647095 
C 576.097565 620.833119 576.568778 621.970726 577.407424 622.809372 
C 578.24607 623.648018 579.383677 624.119231 580.569701 624.119231 
z
" clip-path="url(#pfa86443ac9)" style="fill: #879dba; stroke: #879dba"/>
    <path d="M 598.606634 598.745739 
C 599.792659 598.745739 600.930266 598.274526 601.768912 597.43588 
C 602.607558 596.597234 603.07877 595.459627 603.07877 594.273603 
C 603.07877 593.087578 602.607558 591.949971 601.768912 591.111325 
C 600.930266 590.272679 599.792659 589.801467 598.606634 589.801467 
C 597.42061 589.801467 596.283002 590.272679 595.444357 591.111325 
C 594.605711 591.949971 594.134498 593.087578 594.134498 594.273603 
C 594.134498 595.459627 594.605711 596.597234 595.444357 597.43588 
C 596.283002 598.274526 597.42061 598.745739 598.606634 598.745739 
z
" clip-path="url(#pfa86443ac9)" style="fill: #879dba; stroke: #879dba"/>
    <path d="M 613.955875 571.652544 
C 615.1419 571.652544 616.279507 571.181331 617.118153 570.342685 
C 617.956799 569.504039 618.428011 568.366432 618.428011 567.180408 
C 618.428011 565.994383 617.956799 564.856776 617.118153 564.01813 
C 616.279507 563.179484 615.1419 562.708272 613.955875 562.708272 
C 612.769851 562.708272 611.632243 563.179484 610.793598 564.01813 
C 609.954952 564.856776 609.483739 565.994383 609.483739 567.180408 
C 609.483739 568.366432 609.954952 569.504039 610.793598 570.342685 
C 611.632243 571.181331 612.769851 571.652544 613.955875 571.652544 
z
" clip-path="url(#pfa86443ac9)" style="fill: #879dba; stroke: #879dba"/>
    <path d="M 491.476912 470.000523 
C 493.352181 470.000523 495.150896 469.255471 496.476912 467.929455 
C 497.802927 466.60344 498.54798 464.804724 498.54798 462.929455 
C 498.54798 461.054186 497.802927 459.255471 496.476912 457.929455 
C 495.150896 456.60344 493.352181 455.858388 491.476912 455.858388 
C 489.601643 455.858388 487.802927 456.60344 486.476912 457.929455 
C 485.150896 459.255471 484.405844 461.054186 484.405844 462.929455 
C 484.405844 464.804724 485.150896 466.60344 486.476912 467.929455 
C 487.802927 469.255471 489.601643 470.000523 491.476912 470.000523 
z
" clip-path="url(#pfa86443ac9)" style="fill: #8f81b5; stroke: #8f81b5"/>
    <path d="M 626.407448 543.118914 
C 627.593473 543.118914 628.73108 542.647701 629.569726 541.809055 
C 630.408372 540.97041 630.879584 539.832802 630.879584 538.646778 
C 630.879584 537.460753 630.408372 536.323146 629.569726 535.4845 
C 628.73108 534.645854 627.593473 534.174642 626.407448 534.174642 
C 625.221424 534.174642 624.083816 534.645854 623.245171 535.4845 
C 622.406525 536.323146 621.935312 537.460753 621.935312 538.646778 
C 621.935312 539.832802 622.406525 540.97041 623.245171 541.809055 
C 624.083816 542.647701 625.221424 543.118914 626.407448 543.118914 
z
" clip-path="url(#pfa86443ac9)" style="fill: #879dba; stroke: #879dba"/>
    <path d="M 635.877363 513.470312 
C 637.063387 513.470312 638.200995 512.999099 639.039641 512.160453 
C 639.878286 511.321807 640.349499 510.1842 640.349499 508.998176 
C 640.349499 507.812151 639.878286 506.674544 639.039641 505.835898 
C 638.200995 504.997252 637.063387 504.52604 635.877363 504.52604 
C 634.691339 504.52604 633.553731 504.997252 632.715085 505.835898 
C 631.876439 506.674544 631.405227 507.812151 631.405227 508.998176 
C 631.405227 510.1842 631.876439 511.321807 632.715085 512.160453 
C 633.553731 512.999099 634.691339 513.470312 635.877363 513.470312 
z
" clip-path="url(#pfa86443ac9)" style="fill: #879dba; stroke: #879dba"/>
    <path d="M 642.239634 483.002803 
C 643.425658 483.002803 644.563266 482.531591 645.401911 481.692945 
C 646.240557 480.854299 646.71177 479.716692 646.71177 478.530667 
C 646.71177 477.344643 646.240557 476.207036 645.401911 475.36839 
C 644.563266 474.529744 643.425658 474.058531 642.239634 474.058531 
C 641.053609 474.058531 639.916002 474.529744 639.077356 475.36839 
C 638.23871 476.207036 637.767498 477.344643 637.767498 478.530667 
C 637.767498 479.716692 638.23871 480.854299 639.077356 481.692945 
C 639.916002 482.531591 641.053609 483.002803 642.239634 483.002803 
z
" clip-path="url(#pfa86443ac9)" style="fill: #879dba; stroke: #879dba"/>
    <path d="M 645.452266 452.031353 
C 646.63829 452.031353 647.775897 451.56014 648.614543 450.721494 
C 649.453189 449.882849 649.924402 448.745241 649.924402 447.559217 
C 649.924402 446.373193 649.453189 445.235585 648.614543 444.396939 
C 647.775897 443.558293 646.63829 443.087081 645.452266 443.087081 
C 644.266241 443.087081 643.128634 443.558293 642.289988 444.396939 
C 641.451342 445.235585 640.98013 446.373193 640.98013 447.559217 
C 640.98013 448.745241 641.451342 449.882849 642.289988 450.721494 
C 643.128634 451.56014 644.266241 452.031353 645.452266 452.031353 
z
" clip-path="url(#pfa86443ac9)" style="fill: #879dba; stroke: #879dba"/>
   </g>
   <g id="patch_3">
    <path d="M 10.8 764.486395 
L 10.8 99.513605 
" style="fill: none; stroke: #000000; stroke-width: 0.8; stroke-linejoin: miter; stroke-linecap: square"/>
   </g>
   <g id="patch_4">
    <path d="M 675.772791 764.486395 
L 675.772791 99.513605 
" style="fill: none; stroke: #000000; stroke-width: 0.8; stroke-linejoin: miter; stroke-linecap: square"/>
   </g>
   <g id="patch_5">
    <path d="M 10.8 764.486395 
L 675.772791 764.486395 
" style="fill: none; stroke: #000000; stroke-width: 0.8; stroke-linejoin: miter; stroke-linecap: square"/>
   </g>
   <g id="patch_6">
    <path d="M 10.8 99.513605 
L 675.772791 99.513605 
" style="fill: none; stroke: #000000; stroke-width: 0.8; stroke-linejoin: miter; stroke-linecap: square"/>
   </g>
   <g id="text_1">
    <!-- Year: 1835 -->
    <g transform="translate(17.449728 126.918828) scale(0.3 -0.3)">
     <defs>
      <path id="CMR17-59" d="M 3706 3766 
C 3955 4160 4301 4160 4416 4160 
L 4416 4332 
C 4269 4319 4102 4319 3942 4319 
C 3782 4319 3526 4319 3373 4332 
L 3373 4160 
C 3533 4160 3616 4077 3616 3957 
C 3616 3881 3584 3830 3533 3747 
L 2381 1912 
L 1120 3912 
C 1075 3988 1069 3994 1069 4039 
C 1069 4160 1293 4160 1382 4160 
L 1382 4319 
C 1178 4319 864 4319 653 4319 
C 486 4319 166 4319 13 4332 
L 13 4160 
C 378 4160 480 4141 595 3958 
L 2010 1728 
L 2010 445 
C 2010 160 1939 160 1498 160 
L 1498 0 
C 1683 0 2016 0 2214 0 
C 2413 0 2752 0 2938 0 
L 2938 160 
C 2477 160 2419 160 2419 471 
L 2419 1728 
L 3706 3766 
z
" transform="scale(0.015625)"/>
      <path id="CMR17-65" d="M 2438 1472 
C 2464 1498 2464 1511 2464 1576 
C 2464 2238 2118 2816 1389 2816 
C 710 2816 173 2169 173 1383 
C 173 551 781 -64 1459 -64 
C 2176 -64 2458 607 2458 740 
C 2458 784 2419 784 2406 784 
C 2362 784 2355 771 2330 696 
C 2189 265 1837 51 1504 51 
C 1229 51 954 203 781 480 
C 582 803 582 1176 582 1472 
L 2438 1472 
z
M 589 1568 
C 634 2505 1126 2714 1382 2714 
C 1818 2714 2112 2297 2118 1568 
L 589 1568 
z
" transform="scale(0.015625)"/>
      <path id="CMR17-61" d="M 2304 1653 
C 2304 2072 2304 2294 2035 2543 
C 1798 2752 1523 2816 1306 2816 
C 800 2816 435 2407 435 1971 
C 435 1728 627 1728 666 1728 
C 749 1728 896 1778 896 1954 
C 896 2112 774 2181 666 2181 
C 640 2181 608 2174 589 2168 
C 723 2592 1069 2714 1293 2714 
C 1613 2714 1965 2429 1965 1885 
L 1965 1600 
C 1587 1600 1133 1549 774 1357 
C 371 1133 256 813 256 570 
C 256 77 832 -64 1171 -64 
C 1523 -64 1850 139 1990 511 
C 2003 233 2182 -18 2464 -18 
C 2598 -18 2938 70 2938 567 
L 2938 920 
L 2822 920 
L 2822 562 
C 2822 178 2650 128 2566 128 
C 2304 128 2304 458 2304 738 
L 2304 1653 
z
M 1965 870 
C 1965 317 1568 38 1216 38 
C 896 38 646 275 646 570 
C 646 761 730 1100 1101 1305 
C 1408 1478 1760 1504 1965 1504 
L 1965 870 
z
" transform="scale(0.015625)"/>
      <path id="CMR17-72" d="M 960 1497 
C 960 2112 1222 2688 1702 2688 
C 1747 2688 1792 2682 1837 2662 
C 1837 2662 1696 2617 1696 2452 
C 1696 2298 1818 2234 1914 2234 
C 1990 2234 2131 2279 2131 2458 
C 2131 2663 1926 2790 1709 2790 
C 1222 2790 1011 2317 947 2093 
L 941 2093 
L 941 2790 
L 198 2720 
L 198 2554 
C 576 2554 634 2515 634 2208 
L 634 428 
C 634 184 608 153 198 153 
L 198 -13 
C 352 0 646 0 813 0 
C 998 0 1325 0 1498 -13 
L 1498 153 
C 1037 153 960 153 960 440 
L 960 1497 
z
" transform="scale(0.015625)"/>
      <path id="CMR17-3a" d="M 1062 2491 
C 1062 2650 934 2752 800 2752 
C 672 2752 538 2650 538 2491 
C 538 2332 666 2230 800 2230 
C 928 2230 1062 2332 1062 2491 
z
M 1062 261 
C 1062 420 934 522 800 522 
C 672 522 538 420 538 261 
C 538 102 666 0 800 0 
C 928 0 1062 102 1062 261 
z
" transform="scale(0.015625)"/>
      <path id="CMR17-31" d="M 1702 4058 
C 1702 4192 1696 4192 1606 4192 
C 1357 3916 979 3827 621 3827 
C 602 3827 570 3827 563 3808 
C 557 3795 557 3782 557 3648 
C 755 3648 1088 3686 1344 3839 
L 1344 461 
C 1344 236 1331 160 781 160 
L 589 160 
L 589 0 
C 896 0 1216 0 1523 0 
C 1830 0 2150 0 2458 0 
L 2458 160 
L 2266 160 
C 1715 160 1702 230 1702 458 
L 1702 4058 
z
" transform="scale(0.015625)"/>
      <path id="CMR17-38" d="M 1741 2264 
C 2144 2467 2554 2773 2554 3263 
C 2554 3841 1990 4179 1472 4179 
C 890 4179 378 3759 378 3180 
C 378 3021 416 2747 666 2505 
C 730 2442 998 2251 1171 2130 
C 883 1983 211 1634 211 934 
C 211 279 838 -128 1459 -128 
C 2144 -128 2720 362 2720 1010 
C 2720 1590 2330 1857 2074 2029 
L 1741 2264 
z
M 902 2822 
C 851 2854 595 3051 595 3351 
C 595 3739 998 4032 1459 4032 
C 1965 4032 2336 3676 2336 3262 
C 2336 2669 1670 2331 1638 2331 
C 1632 2331 1626 2331 1574 2370 
L 902 2822 
z
M 2080 1519 
C 2176 1449 2483 1240 2483 851 
C 2483 381 2010 25 1472 25 
C 890 25 448 438 448 940 
C 448 1443 838 1862 1280 2060 
L 2080 1519 
z
" transform="scale(0.015625)"/>
      <path id="CMR17-33" d="M 1414 2157 
C 1984 2157 2234 1662 2234 1090 
C 2234 320 1824 25 1453 25 
C 1114 25 563 194 390 693 
C 422 680 454 680 486 680 
C 640 680 755 782 755 948 
C 755 1133 614 1216 486 1216 
C 378 1216 211 1165 211 926 
C 211 335 787 -128 1466 -128 
C 2176 -128 2720 430 2720 1085 
C 2720 1707 2208 2157 1600 2227 
C 2086 2328 2554 2756 2554 3329 
C 2554 3820 2048 4179 1472 4179 
C 890 4179 378 3829 378 3329 
C 378 3110 544 3072 627 3072 
C 762 3072 877 3155 877 3321 
C 877 3486 762 3569 627 3569 
C 602 3569 570 3569 544 3557 
C 730 3959 1235 4032 1459 4032 
C 1683 4032 2106 3925 2106 3320 
C 2106 3143 2080 2828 1862 2550 
C 1670 2304 1453 2304 1242 2284 
C 1210 2284 1062 2269 1037 2269 
C 992 2263 966 2257 966 2208 
C 966 2163 973 2157 1101 2157 
L 1414 2157 
z
" transform="scale(0.015625)"/>
      <path id="CMR17-35" d="M 730 3692 
C 794 3666 1056 3584 1325 3584 
C 1920 3584 2246 3911 2432 4100 
C 2432 4157 2432 4192 2394 4192 
C 2387 4192 2374 4192 2323 4163 
C 2099 4058 1837 3973 1517 3973 
C 1325 3973 1037 3999 723 4139 
C 653 4171 640 4171 634 4171 
C 602 4171 595 4164 595 4037 
L 595 2203 
C 595 2089 595 2057 659 2057 
C 691 2057 704 2070 736 2114 
C 941 2401 1222 2522 1542 2522 
C 1766 2522 2246 2382 2246 1289 
C 2246 1085 2246 715 2054 421 
C 1894 159 1645 25 1370 25 
C 947 25 518 320 403 814 
C 429 807 480 795 506 795 
C 589 795 749 840 749 1038 
C 749 1210 627 1280 506 1280 
C 358 1280 262 1190 262 1011 
C 262 454 704 -128 1382 -128 
C 2042 -128 2669 440 2669 1264 
C 2669 2030 2170 2624 1549 2624 
C 1222 2624 947 2503 730 2274 
L 730 3692 
z
" transform="scale(0.015625)"/>
     </defs>
     <use xlink:href="#CMR17-59" transform="scale(0.996264)"/>
     <use xlink:href="#CMR17-65" transform="translate(61.265174 0) scale(0.996264)"/>
     <use xlink:href="#CMR17-61" transform="translate(101.750835 0) scale(0.996264)"/>
     <use xlink:href="#CMR17-72" transform="translate(147.441312 0) scale(0.996264)"/>
     <use xlink:href="#CMR17-3a" transform="translate(182.72208 0) scale(0.996264)"/>
     <use xlink:href="#CMR17-31" transform="translate(248.078799 0) scale(0.996264)"/>
     <use xlink:href="#CMR17-38" transform="translate(293.769276 0) scale(0.996264)"/>
     <use xlink:href="#CMR17-33" transform="translate(339.459753 0) scale(0.996264)"/>
     <use xlink:href="#CMR17-35" transform="translate(385.15023 0) scale(0.996264)"/>
    </g>
   </g>
  </g>
  <g id="axes_2">
   <g id="patch_7">
    <path d="M 717.33359 853.2 
L 759.45359 853.2 
L 759.45359 10.8 
L 717.33359 10.8 
z
" style="fill: #ffffff"/>
   </g>
   <g id="QuadMesh_1">
    <path d="M 717.33359 853.2 
L 759.45359 853.2 
L 759.45359 747.9 
L 717.33359 747.9 
L 717.33359 853.2 
" clip-path="url(#pa405c45f97)" style="fill: #ad35ca"/>
    <path d="M 717.33359 747.9 
L 759.45359 747.9 
L 759.45359 642.6 
L 717.33359 642.6 
L 717.33359 747.9 
" clip-path="url(#pa405c45f97)" style="fill: #8f81b5"/>
    <path d="M 717.33359 642.6 
L 759.45359 642.6 
L 759.45359 537.3 
L 717.33359 537.3 
L 717.33359 642.6 
" clip-path="url(#pa405c45f97)" style="fill: #879dba"/>
    <path d="M 717.33359 537.3 
L 759.45359 537.3 
L 759.45359 432 
L 717.33359 432 
L 717.33359 537.3 
" clip-path="url(#pa405c45f97)" style="fill: #7bb4be"/>
    <path d="M 717.33359 432 
L 759.45359 432 
L 759.45359 326.7 
L 717.33359 326.7 
L 717.33359 432 
" clip-path="url(#pa405c45f97)" style="fill: #79c6b7"/>
    <path d="M 717.33359 326.7 
L 759.45359 326.7 
L 759.45359 221.4 
L 717.33359 221.4 
L 717.33359 326.7 
" clip-path="url(#pa405c45f97)" style="fill: #a1ccad"/>
    <path d="M 717.33359 221.4 
L 759.45359 221.4 
L 759.45359 116.1 
L 717.33359 116.1 
L 717.33359 221.4 
" clip-path="url(#pa405c45f97)" style="fill: #c1d59b"/>
    <path d="M 717.33359 116.1 
L 759.45359 116.1 
L 759.45359 10.8 
L 717.33359 10.8 
L 717.33359 116.1 
" clip-path="url(#pa405c45f97)" style="fill: #e4dc96"/>
   </g>
   <g id="matplotlib.axis_3"/>
   <g id="matplotlib.axis_4">
    <g id="ytick_7">
     <g id="line2d_1">
      <defs>
       <path id="maff104b80c" d="M 0 0 
L 3.5 0 
" style="stroke: #000000; stroke-width: 0.8"/>
      </defs>
      <g>
       <use xlink:href="#maff104b80c" x="759.45359" y="800.55" style="stroke: #000000; stroke-width: 0.8"/>
      </g>
     </g>
     <g id="text_2">
      <!-- 0 -->
      <g transform="translate(766.45359 811.619603) scale(0.32 -0.32)">
       <defs>
        <path id="CMR17-30" d="M 2688 2025 
C 2688 2416 2682 3080 2413 3591 
C 2176 4039 1798 4198 1466 4198 
C 1158 4198 768 4058 525 3597 
C 269 3118 243 2524 243 2025 
C 243 1661 250 1106 448 619 
C 723 -39 1216 -128 1466 -128 
C 1760 -128 2208 -7 2470 600 
C 2662 1042 2688 1559 2688 2025 
z
M 1466 -26 
C 1056 -26 813 325 723 812 
C 653 1188 653 1738 653 2096 
C 653 2588 653 2997 736 3387 
C 858 3929 1216 4096 1466 4096 
C 1728 4096 2067 3923 2189 3400 
C 2272 3036 2278 2607 2278 2096 
C 2278 1680 2278 1169 2202 792 
C 2067 95 1690 -26 1466 -26 
z
" transform="scale(0.015625)"/>
       </defs>
       <use xlink:href="#CMR17-30" transform="scale(0.996264)"/>
      </g>
     </g>
    </g>
    <g id="ytick_8">
     <g id="line2d_2">
      <g>
       <use xlink:href="#maff104b80c" x="759.45359" y="695.25" style="stroke: #000000; stroke-width: 0.8"/>
      </g>
     </g>
     <g id="text_3">
      <!-- 1 -->
      <g transform="translate(766.45359 706.319603) scale(0.32 -0.32)">
       <use xlink:href="#CMR17-31" transform="scale(0.996264)"/>
      </g>
     </g>
    </g>
    <g id="ytick_9">
     <g id="line2d_3">
      <g>
       <use xlink:href="#maff104b80c" x="759.45359" y="589.95" style="stroke: #000000; stroke-width: 0.8"/>
      </g>
     </g>
     <g id="text_4">
      <!-- 2 -->
      <g transform="translate(766.45359 601.019603) scale(0.32 -0.32)">
       <defs>
        <path id="CMR17-32" d="M 2669 989 
L 2554 989 
C 2490 536 2438 459 2413 420 
C 2381 369 1920 369 1830 369 
L 602 369 
C 832 619 1280 1072 1824 1597 
C 2214 1967 2669 2402 2669 3035 
C 2669 3790 2067 4224 1395 4224 
C 691 4224 262 3604 262 3030 
C 262 2780 448 2748 525 2748 
C 589 2748 781 2787 781 3010 
C 781 3207 614 3264 525 3264 
C 486 3264 448 3258 422 3245 
C 544 3790 915 4058 1306 4058 
C 1862 4058 2227 3617 2227 3035 
C 2227 2479 1901 2000 1536 1584 
L 262 146 
L 262 0 
L 2515 0 
L 2669 989 
z
" transform="scale(0.015625)"/>
       </defs>
       <use xlink:href="#CMR17-32" transform="scale(0.996264)"/>
      </g>
     </g>
    </g>
    <g id="ytick_10">
     <g id="line2d_4">
      <g>
       <use xlink:href="#maff104b80c" x="759.45359" y="484.65" style="stroke: #000000; stroke-width: 0.8"/>
      </g>
     </g>
     <g id="text_5">
      <!-- 3 -->
      <g transform="translate(766.45359 495.719603) scale(0.32 -0.32)">
       <use xlink:href="#CMR17-33" transform="scale(0.996264)"/>
      </g>
     </g>
    </g>
    <g id="ytick_11">
     <g id="line2d_5">
      <g>
       <use xlink:href="#maff104b80c" x="759.45359" y="379.35" style="stroke: #000000; stroke-width: 0.8"/>
      </g>
     </g>
     <g id="text_6">
      <!-- 4 -->
      <g transform="translate(766.45359 390.419603) scale(0.32 -0.32)">
       <defs>
        <path id="CMR17-34" d="M 2150 4122 
C 2150 4256 2144 4256 2029 4256 
L 128 1254 
L 128 1088 
L 1779 1088 
L 1779 457 
C 1779 224 1766 160 1318 160 
L 1197 160 
L 1197 0 
C 1402 0 1747 0 1965 0 
C 2182 0 2528 0 2733 0 
L 2733 160 
L 2611 160 
C 2163 160 2150 224 2150 457 
L 2150 1088 
L 2803 1088 
L 2803 1254 
L 2150 1254 
L 2150 4122 
z
M 1798 3703 
L 1798 1254 
L 256 1254 
L 1798 3703 
z
" transform="scale(0.015625)"/>
       </defs>
       <use xlink:href="#CMR17-34" transform="scale(0.996264)"/>
      </g>
     </g>
    </g>
    <g id="ytick_12">
     <g id="line2d_6">
      <g>
       <use xlink:href="#maff104b80c" x="759.45359" y="274.05" style="stroke: #000000; stroke-width: 0.8"/>
      </g>
     </g>
     <g id="text_7">
      <!-- 5 -->
      <g transform="translate(766.45359 285.119603) scale(0.32 -0.32)">
       <use xlink:href="#CMR17-35" transform="scale(0.996264)"/>
      </g>
     </g>
    </g>
    <g id="ytick_13">
     <g id="line2d_7">
      <g>
       <use xlink:href="#maff104b80c" x="759.45359" y="168.75" style="stroke: #000000; stroke-width: 0.8"/>
      </g>
     </g>
     <g id="text_8">
      <!-- 6 -->
      <g transform="translate(766.45359 179.819603) scale(0.32 -0.32)">
       <defs>
        <path id="CMR17-36" d="M 678 2176 
C 678 3690 1395 4032 1811 4032 
C 1946 4032 2272 4009 2400 3776 
C 2298 3776 2106 3776 2106 3553 
C 2106 3381 2246 3323 2336 3323 
C 2394 3323 2566 3348 2566 3560 
C 2566 3954 2246 4179 1805 4179 
C 1043 4179 243 3390 243 1984 
C 243 253 966 -128 1478 -128 
C 2099 -128 2688 427 2688 1283 
C 2688 2081 2170 2662 1517 2662 
C 1126 2662 838 2407 678 1960 
L 678 2176 
z
M 1478 25 
C 691 25 691 1200 691 1436 
C 691 1896 909 2560 1504 2560 
C 1613 2560 1926 2560 2138 2120 
C 2253 1870 2253 1609 2253 1289 
C 2253 944 2253 690 2118 434 
C 1978 171 1773 25 1478 25 
z
" transform="scale(0.015625)"/>
       </defs>
       <use xlink:href="#CMR17-36" transform="scale(0.996264)"/>
      </g>
     </g>
    </g>
    <g id="ytick_14">
     <g id="line2d_8">
      <g>
       <use xlink:href="#maff104b80c" x="759.45359" y="63.45" style="stroke: #000000; stroke-width: 0.8"/>
      </g>
     </g>
     <g id="text_9">
      <!-- 7 -->
      <g transform="translate(766.45359 74.519603) scale(0.32 -0.32)">
       <defs>
        <path id="CMR17-37" d="M 2886 3941 
L 2886 4081 
L 1382 4081 
C 634 4081 621 4165 595 4288 
L 480 4288 
L 294 3094 
L 410 3094 
C 429 3215 474 3540 550 3661 
C 589 3712 1062 3712 1171 3712 
L 2579 3712 
L 1869 2661 
C 1395 1954 1069 999 1069 165 
C 1069 89 1069 -128 1299 -128 
C 1530 -128 1530 89 1530 171 
L 1530 465 
C 1530 1508 1709 2196 2003 2636 
L 2886 3941 
z
" transform="scale(0.015625)"/>
       </defs>
       <use xlink:href="#CMR17-37" transform="scale(0.996264)"/>
      </g>
     </g>
    </g>
    <g id="ytick_15">
     <g id="line2d_9">
      <defs>
       <path id="mff041e9683" d="M 0 0 
L 2 0 
" style="stroke: #000000; stroke-width: 0.6"/>
      </defs>
      <g>
       <use xlink:href="#mff041e9683" x="759.45359" y="853.2" style="stroke: #000000; stroke-width: 0.6"/>
      </g>
     </g>
    </g>
    <g id="ytick_16">
     <g id="line2d_10">
      <g>
       <use xlink:href="#mff041e9683" x="759.45359" y="747.9" style="stroke: #000000; stroke-width: 0.6"/>
      </g>
     </g>
    </g>
    <g id="ytick_17">
     <g id="line2d_11">
      <g>
       <use xlink:href="#mff041e9683" x="759.45359" y="642.6" style="stroke: #000000; stroke-width: 0.6"/>
      </g>
     </g>
    </g>
    <g id="ytick_18">
     <g id="line2d_12">
      <g>
       <use xlink:href="#mff041e9683" x="759.45359" y="537.3" style="stroke: #000000; stroke-width: 0.6"/>
      </g>
     </g>
    </g>
    <g id="ytick_19">
     <g id="line2d_13">
      <g>
       <use xlink:href="#mff041e9683" x="759.45359" y="432" style="stroke: #000000; stroke-width: 0.6"/>
      </g>
     </g>
    </g>
    <g id="ytick_20">
     <g id="line2d_14">
      <g>
       <use xlink:href="#mff041e9683" x="759.45359" y="326.7" style="stroke: #000000; stroke-width: 0.6"/>
      </g>
     </g>
    </g>
    <g id="ytick_21">
     <g id="line2d_15">
      <g>
       <use xlink:href="#mff041e9683" x="759.45359" y="221.4" style="stroke: #000000; stroke-width: 0.6"/>
      </g>
     </g>
    </g>
    <g id="ytick_22">
     <g id="line2d_16">
      <g>
       <use xlink:href="#mff041e9683" x="759.45359" y="116.1" style="stroke: #000000; stroke-width: 0.6"/>
      </g>
     </g>
    </g>
    <g id="ytick_23">
     <g id="line2d_17">
      <g>
       <use xlink:href="#mff041e9683" x="759.45359" y="10.8" style="stroke: #000000; stroke-width: 0.6"/>
      </g>
     </g>
    </g>
    <g id="text_10">
     <!-- Node Depth -->
     <g transform="translate(828.899641 543.95779) rotate(-90) scale(0.46 -0.46)">
      <defs>
       <path id="CMR17-4e" d="M 1312 4250 
C 1267 4320 1261 4320 1139 4320 
L 326 4320 
L 326 4160 
L 448 4160 
C 704 4160 819 4129 838 4122 
L 838 610 
C 838 451 838 153 326 153 
L 326 -13 
C 474 0 742 0 902 0 
C 1062 0 1331 0 1478 -13 
L 1478 153 
C 966 153 966 451 966 610 
L 966 4033 
C 1011 3995 1011 3982 1056 3919 
L 3430 76 
C 3475 0 3494 0 3526 0 
C 3590 0 3590 19 3590 139 
L 3590 3705 
C 3590 3863 3590 4160 4102 4160 
L 4102 4326 
C 3955 4320 3686 4320 3526 4320 
C 3366 4320 3098 4320 2950 4326 
L 2950 4160 
C 3462 4160 3462 3862 3462 3703 
L 3462 763 
L 1312 4250 
z
" transform="scale(0.015625)"/>
       <path id="CMR17-6f" d="M 2758 1356 
C 2758 2176 2163 2816 1466 2816 
C 768 2816 173 2176 173 1356 
C 173 551 768 -64 1466 -64 
C 2163 -64 2758 551 2758 1356 
z
M 1466 51 
C 1165 51 909 230 762 480 
C 602 767 582 1126 582 1408 
C 582 1677 595 2010 762 2298 
C 890 2509 1139 2714 1466 2714 
C 1754 2714 1997 2554 2150 2330 
C 2349 2029 2349 1607 2349 1408 
C 2349 1158 2336 775 2163 467 
C 1984 173 1709 51 1466 51 
z
" transform="scale(0.015625)"/>
       <path id="CMR17-64" d="M 1869 4326 
L 1869 4160 
C 2246 4160 2304 4122 2304 3820 
L 2304 2345 
C 2278 2377 2016 2790 1498 2790 
C 845 2790 211 2208 211 1364 
C 211 525 806 -64 1434 -64 
C 1978 -64 2259 337 2291 380 
L 2291 -63 
L 3066 -63 
L 3066 128 
C 2688 128 2630 166 2630 473 
L 2630 4396 
L 1869 4326 
z
M 2291 755 
C 2291 563 2176 390 2029 262 
C 1811 70 1594 38 1472 38 
C 1286 38 621 134 621 1356 
C 621 2612 1363 2688 1530 2688 
C 1824 2688 2061 2522 2208 2291 
C 2291 2157 2291 2138 2291 2023 
L 2291 755 
z
" transform="scale(0.015625)"/>
       <path id="CMR17-44" d="M 333 4352 
L 333 4186 
C 774 4186 845 4186 845 3900 
L 845 452 
C 845 166 774 166 333 166 
L 333 0 
L 2368 0 
C 3398 0 4224 943 4224 2141 
C 4224 3346 3411 4352 2368 4352 
L 333 4352 
z
M 1523 166 
C 1267 166 1254 197 1254 414 
L 1254 3938 
C 1254 4155 1267 4186 1523 4186 
L 2240 4186 
C 2771 4186 3750 3874 3750 2141 
C 3750 1242 3488 879 3366 707 
C 3213 510 2848 166 2240 166 
L 1523 166 
z
" transform="scale(0.015625)"/>
       <path id="CMR17-70" d="M 1408 -1063 
C 998 -1063 973 -1037 973 -789 
L 973 402 
C 1158 134 1427 -38 1766 -38 
C 2406 -38 3053 523 3053 1388 
C 3053 2191 2496 2802 1837 2802 
C 1453 2802 1139 2592 960 2338 
L 960 2802 
L 198 2732 
L 198 2567 
C 576 2567 634 2528 634 2223 
L 634 -789 
C 634 -1031 608 -1063 198 -1063 
L 198 -1228 
C 352 -1216 634 -1216 800 -1216 
C 966 -1216 1254 -1216 1408 -1228 
L 1408 -1063 
z
M 973 2012 
C 973 2102 973 2235 1222 2471 
C 1254 2497 1472 2688 1792 2688 
C 2259 2688 2643 2108 2643 1382 
C 2643 656 2234 64 1728 64 
C 1498 64 1248 172 1056 472 
C 973 612 973 650 973 752 
L 973 2012 
z
" transform="scale(0.015625)"/>
       <path id="CMR17-74" d="M 966 2560 
L 1862 2560 
L 1862 2725 
L 966 2725 
L 966 3904 
L 851 3904 
C 838 3245 614 2668 70 2668 
L 70 2560 
L 627 2560 
L 627 771 
C 627 650 627 -64 1370 -64 
C 1747 -64 1965 306 1965 777 
L 1965 1140 
L 1850 1140 
L 1850 783 
C 1850 344 1677 51 1408 51 
C 1222 51 966 178 966 758 
L 966 2560 
z
" transform="scale(0.015625)"/>
       <path id="CMR17-68" d="M 2656 1933 
C 2656 2259 2592 2790 1837 2790 
C 1312 2790 1056 2368 979 2157 
L 973 2157 
L 973 4396 
L 211 4326 
L 211 4160 
C 589 4160 646 4122 646 3817 
L 646 426 
C 646 184 621 153 211 153 
L 211 -13 
C 365 0 646 0 813 0 
C 979 0 1267 0 1421 -13 
L 1421 153 
C 1011 153 986 178 986 428 
L 986 1658 
C 986 2247 1344 2688 1792 2688 
C 2266 2688 2317 2266 2317 1958 
L 2317 428 
C 2317 184 2291 153 1882 153 
L 1882 -13 
C 2035 0 2317 0 2483 0 
C 2650 0 2938 0 3091 -13 
L 3091 153 
C 2682 153 2656 178 2656 428 
L 2656 1933 
z
" transform="scale(0.015625)"/>
      </defs>
      <use xlink:href="#CMR17-4e" transform="scale(0.996264)"/>
      <use xlink:href="#CMR17-6f" transform="translate(69.07243 0) scale(0.996264)"/>
      <use xlink:href="#CMR17-64" transform="translate(117.365346 0) scale(0.996264)"/>
      <use xlink:href="#CMR17-65" transform="translate(168.260715 0) scale(0.996264)"/>
      <use xlink:href="#CMR17-44" transform="translate(238.822342 0) scale(0.996264)"/>
      <use xlink:href="#CMR17-65" transform="translate(309.215898 0) scale(0.996264)"/>
      <use xlink:href="#CMR17-70" transform="translate(349.701559 0) scale(0.996264)"/>
      <use xlink:href="#CMR17-74" transform="translate(400.596928 0) scale(0.996264)"/>
      <use xlink:href="#CMR17-68" transform="translate(435.877696 0) scale(0.996264)"/>
     </g>
    </g>
   </g>
   <g id="LineCollection_2"/>
   <g id="patch_8">
    <path d="M 717.33359 853.2 
L 738.39359 853.2 
L 759.45359 853.2 
L 759.45359 10.8 
L 738.39359 10.8 
L 717.33359 10.8 
L 717.33359 853.2 
z
" style="fill: none; stroke: #000000; stroke-width: 0.8; stroke-linejoin: miter; stroke-linecap: square"/>
   </g>
  </g>
 </g>
 <defs>
  <clipPath id="pfa86443ac9">
   <rect x="10.8" y="99.513605" width="664.972791" height="664.972791"/>
  </clipPath>
  <clipPath id="pa405c45f97">
   <rect x="717.33359" y="10.8" width="42.12" height="842.4"/>
  </clipPath>
 </defs>
</svg>
