<?xml version="1.0" encoding="utf-8" standalone="no"?>
<!DOCTYPE svg PUBLIC "-//W3C//DTD SVG 1.1//EN"
  "http://www.w3.org/Graphics/SVG/1.1/DTD/svg11.dtd">
<svg xmlns:xlink="http://www.w3.org/1999/xlink" width="864pt" height="864pt" viewBox="0 0 864 864" xmlns="http://www.w3.org/2000/svg" version="1.1">
 <metadata>
  <rdf:RDF xmlns:dc="http://purl.org/dc/elements/1.1/" xmlns:cc="http://creativecommons.org/ns#" xmlns:rdf="http://www.w3.org/1999/02/22-rdf-syntax-ns#">
   <cc:Work>
    <dc:type rdf:resource="http://purl.org/dc/dcmitype/StillImage"/>
    <dc:date>2026-06-09T22:33:01.820140</dc:date>
    <dc:format>image/svg+xml</dc:format>
    <dc:creator>
     <cc:Agent>
      <dc:title>Matplotlib v3.9.2, https://matplotlib.org/</dc:title>
     </cc:Agent>
    </dc:creator>
   </cc:Work>
  </rdf:RDF>
 </metadata>
 <defs>
  <style type="text/css">*{stroke-linejoin: round; stroke-linecap: butt}</style>
 </defs>
 <g id="figure_1">
  <g id="patch_1">
   <path d="M 0 864 
L 864 864 
L 864 0 
L 0 0 
z
" style="fill: #ffffff"/>
  </g>
  <g id="axes_1">
   <g id="patch_2">
    <path d="M 10.8 764.486395 
L 675.772791 764.486395 
L 675.772791 99.513605 
L 10.8 99.513605 
z
" style="fill: #ffffff"/>
   </g>
   <g id="LineCollection_1">
    <path d="M 343.517377 431.989501 
L 214.713664 352.825823 
" clip-path="url(#pae4d42e002)" style="fill: none; stroke: #808080; stroke-opacity: 0.3"/>
    <path d="M 343.517377 431.989501 
L 472.32109 511.174177 
" clip-path="url(#pae4d42e002)" style="fill: none; stroke: #808080; stroke-opacity: 0.3"/>
    <path d="M 214.713664 352.825823 
L 645.431264 415.337831 
" clip-path="url(#pae4d42e002)" style="fill: none; stroke: #808080; stroke-opacity: 0.3"/>
    <path d="M 214.713664 352.825823 
L 641.777556 382.223475 
" clip-path="url(#pae4d42e002)" style="fill: none; stroke: #808080; stroke-opacity: 0.3"/>
    <path d="M 214.713664 352.825823 
L 634.491138 349.718072 
" clip-path="url(#pae4d42e002)" style="fill: none; stroke: #808080; stroke-opacity: 0.3"/>
    <path d="M 214.713664 352.825823 
L 623.656003 318.220587 
" clip-path="url(#pae4d42e002)" style="fill: none; stroke: #808080; stroke-opacity: 0.3"/>
    <path d="M 214.713664 352.825823 
L 609.440138 288.087994 
" clip-path="url(#pae4d42e002)" style="fill: none; stroke: #808080; stroke-opacity: 0.3"/>
    <path d="M 214.713664 352.825823 
L 592.01153 259.698261 
" clip-path="url(#pae4d42e002)" style="fill: none; stroke: #808080; stroke-opacity: 0.3"/>
    <path d="M 214.713664 352.825823 
L 571.538166 233.408361 
" clip-path="url(#pae4d42e002)" style="fill: none; stroke: #808080; stroke-opacity: 0.3"/>
    <path d="M 214.713664 352.825823 
L 548.31402 209.533268 
" clip-path="url(#pae4d42e002)" style="fill: none; stroke: #808080; stroke-opacity: 0.3"/>
    <path d="M 214.713664 352.825823 
L 522.591075 188.34596 
" clip-path="url(#pae4d42e002)" style="fill: none; stroke: #808080; stroke-opacity: 0.3"/>
    <path d="M 214.713664 352.825823 
L 494.705302 170.140414 
" clip-path="url(#pae4d42e002)" style="fill: none; stroke: #808080; stroke-opacity: 0.3"/>
    <path d="M 214.713664 352.825823 
L 464.971677 155.084616 
" clip-path="url(#pae4d42e002)" style="fill: none; stroke: #808080; stroke-opacity: 0.3"/>
    <path d="M 214.713664 352.825823 
L 433.789167 143.409549 
" clip-path="url(#pae4d42e002)" style="fill: none; stroke: #808080; stroke-opacity: 0.3"/>
    <path d="M 214.713664 352.825823 
L 401.493746 135.241201 
" clip-path="url(#pae4d42e002)" style="fill: none; stroke: #808080; stroke-opacity: 0.3"/>
    <path d="M 214.713664 352.825823 
L 368.484383 130.663567 
" clip-path="url(#pae4d42e002)" style="fill: none; stroke: #808080; stroke-opacity: 0.3"/>
    <path d="M 214.713664 352.825823 
L 335.181043 129.739641 
" clip-path="url(#pae4d42e002)" style="fill: none; stroke: #808080; stroke-opacity: 0.3"/>
    <path d="M 214.713664 352.825823 
L 301.982694 132.490421 
" clip-path="url(#pae4d42e002)" style="fill: none; stroke: #808080; stroke-opacity: 0.3"/>
    <path d="M 214.713664 352.825823 
L 269.288305 138.873911 
" clip-path="url(#pae4d42e002)" style="fill: none; stroke: #808080; stroke-opacity: 0.3"/>
    <path d="M 214.713664 352.825823 
L 237.496844 148.827116 
" clip-path="url(#pae4d42e002)" style="fill: none; stroke: #808080; stroke-opacity: 0.3"/>
    <path d="M 214.713664 352.825823 
L 206.986281 162.203048 
" clip-path="url(#pae4d42e002)" style="fill: none; stroke: #808080; stroke-opacity: 0.3"/>
    <path d="M 214.713664 352.825823 
L 178.134586 178.854718 
" clip-path="url(#pae4d42e002)" style="fill: none; stroke: #808080; stroke-opacity: 0.3"/>
    <path d="M 214.713664 352.825823 
L 151.298729 198.593141 
" clip-path="url(#pae4d42e002)" style="fill: none; stroke: #808080; stroke-opacity: 0.3"/>
    <path d="M 214.713664 352.825823 
L 126.772688 221.14534 
" clip-path="url(#pae4d42e002)" style="fill: none; stroke: #808080; stroke-opacity: 0.3"/>
    <path d="M 214.713664 352.825823 
L 104.892435 246.280333 
" clip-path="url(#pae4d42e002)" style="fill: none; stroke: #808080; stroke-opacity: 0.3"/>
    <path d="M 214.713664 352.825823 
L 85.909951 273.662146 
" clip-path="url(#pae4d42e002)" style="fill: none; stroke: #808080; stroke-opacity: 0.3"/>
    <path d="M 214.713664 352.825823 
L 70.056217 302.954806 
" clip-path="url(#pae4d42e002)" style="fill: none; stroke: #808080; stroke-opacity: 0.3"/>
    <path d="M 214.713664 352.825823 
L 57.520219 333.822341 
" clip-path="url(#pae4d42e002)" style="fill: none; stroke: #808080; stroke-opacity: 0.3"/>
    <path d="M 214.713664 352.825823 
L 48.469941 365.865782 
" clip-path="url(#pae4d42e002)" style="fill: none; stroke: #808080; stroke-opacity: 0.3"/>
    <path d="M 214.713664 352.825823 
L 42.968381 398.728157 
" clip-path="url(#pae4d42e002)" style="fill: none; stroke: #808080; stroke-opacity: 0.3"/>
    <path d="M 214.713664 352.825823 
L 41.141527 431.989501 
" clip-path="url(#pae4d42e002)" style="fill: none; stroke: #808080; stroke-opacity: 0.3"/>
    <path d="M 214.713664 352.825823 
L 42.968381 465.271843 
" clip-path="url(#pae4d42e002)" style="fill: none; stroke: #808080; stroke-opacity: 0.3"/>
    <path d="M 214.713664 352.825823 
L 48.469941 498.11322 
" clip-path="url(#pae4d42e002)" style="fill: none; stroke: #808080; stroke-opacity: 0.3"/>
    <path d="M 214.713664 352.825823 
L 57.520219 530.177659 
" clip-path="url(#pae4d42e002)" style="fill: none; stroke: #808080; stroke-opacity: 0.3"/>
    <path d="M 214.713664 352.825823 
L 70.056217 561.045194 
" clip-path="url(#pae4d42e002)" style="fill: none; stroke: #808080; stroke-opacity: 0.3"/>
    <path d="M 214.713664 352.825823 
L 85.909951 590.346253 
" clip-path="url(#pae4d42e002)" style="fill: none; stroke: #808080; stroke-opacity: 0.3"/>
    <path d="M 214.713664 352.825823 
L 104.892435 617.721767 
" clip-path="url(#pae4d42e002)" style="fill: none; stroke: #808080; stroke-opacity: 0.3"/>
    <path d="M 214.713664 352.825823 
L 126.772688 642.844161 
" clip-path="url(#pae4d42e002)" style="fill: none; stroke: #808080; stroke-opacity: 0.3"/>
    <path d="M 214.713664 352.825823 
L 151.298729 665.408958 
" clip-path="url(#pae4d42e002)" style="fill: none; stroke: #808080; stroke-opacity: 0.3"/>
    <path d="M 214.713664 352.825823 
L 178.134586 685.138983 
" clip-path="url(#pae4d42e002)" style="fill: none; stroke: #808080; stroke-opacity: 0.3"/>
    <path d="M 214.713664 352.825823 
L 206.986281 701.794852 
" clip-path="url(#pae4d42e002)" style="fill: none; stroke: #808080; stroke-opacity: 0.3"/>
    <path d="M 214.713664 352.825823 
L 237.496844 715.177084 
" clip-path="url(#pae4d42e002)" style="fill: none; stroke: #808080; stroke-opacity: 0.3"/>
    <path d="M 214.713664 352.825823 
L 269.288305 725.121889 
" clip-path="url(#pae4d42e002)" style="fill: none; stroke: #808080; stroke-opacity: 0.3"/>
    <path d="M 214.713664 352.825823 
L 301.982694 731.509579 
" clip-path="url(#pae4d42e002)" style="fill: none; stroke: #808080; stroke-opacity: 0.3"/>
    <path d="M 214.713664 352.825823 
L 335.181043 734.260359 
" clip-path="url(#pae4d42e002)" style="fill: none; stroke: #808080; stroke-opacity: 0.3"/>
    <path d="M 214.713664 352.825823 
L 368.484383 733.342733 
" clip-path="url(#pae4d42e002)" style="fill: none; stroke: #808080; stroke-opacity: 0.3"/>
    <path d="M 214.713664 352.825823 
L 401.493746 728.767198 
" clip-path="url(#pae4d42e002)" style="fill: none; stroke: #808080; stroke-opacity: 0.3"/>
    <path d="M 214.713664 352.825823 
L 433.789167 720.588351 
" clip-path="url(#pae4d42e002)" style="fill: none; stroke: #808080; stroke-opacity: 0.3"/>
    <path d="M 214.713664 352.825823 
L 464.971677 708.906984 
" clip-path="url(#pae4d42e002)" style="fill: none; stroke: #808080; stroke-opacity: 0.3"/>
    <path d="M 472.32109 511.174177 
L 494.705302 693.863786 
" clip-path="url(#pae4d42e002)" style="fill: none; stroke: #808080; stroke-opacity: 0.3"/>
    <path d="M 472.32109 511.174177 
L 522.591075 675.643541 
" clip-path="url(#pae4d42e002)" style="fill: none; stroke: #808080; stroke-opacity: 0.3"/>
    <path d="M 472.32109 511.174177 
L 548.31402 654.464632 
" clip-path="url(#pae4d42e002)" style="fill: none; stroke: #808080; stroke-opacity: 0.3"/>
    <path d="M 472.32109 511.174177 
L 571.538166 630.58534 
" clip-path="url(#pae4d42e002)" style="fill: none; stroke: #808080; stroke-opacity: 0.3"/>
    <path d="M 472.32109 511.174177 
L 592.01153 604.295439 
" clip-path="url(#pae4d42e002)" style="fill: none; stroke: #808080; stroke-opacity: 0.3"/>
    <path d="M 472.32109 511.174177 
L 609.440138 575.914106 
" clip-path="url(#pae4d42e002)" style="fill: none; stroke: #808080; stroke-opacity: 0.3"/>
    <path d="M 472.32109 511.174177 
L 623.656003 545.779413 
" clip-path="url(#pae4d42e002)" style="fill: none; stroke: #808080; stroke-opacity: 0.3"/>
    <path d="M 472.32109 511.174177 
L 634.491138 514.281928 
" clip-path="url(#pae4d42e002)" style="fill: none; stroke: #808080; stroke-opacity: 0.3"/>
    <path d="M 472.32109 511.174177 
L 641.777556 481.776525 
" clip-path="url(#pae4d42e002)" style="fill: none; stroke: #808080; stroke-opacity: 0.3"/>
    <path d="M 472.32109 511.174177 
L 645.431264 448.662169 
" clip-path="url(#pae4d42e002)" style="fill: none; stroke: #808080; stroke-opacity: 0.3"/>
   </g>
   <g id="matplotlib.axis_1">
    <g id="xtick_1"/>
    <g id="xtick_2"/>
    <g id="xtick_3"/>
    <g id="xtick_4"/>
    <g id="xtick_5"/>
    <g id="xtick_6"/>
   </g>
   <g id="matplotlib.axis_2">
    <g id="ytick_1"/>
    <g id="ytick_2"/>
    <g id="ytick_3"/>
    <g id="ytick_4"/>
    <g id="ytick_5"/>
    <g id="ytick_6"/>
   </g>
   <g id="PathCollection_1">
    <path d="M 343.517377 443.169841 
C 346.482438 443.169841 349.326456 441.99181 351.423071 439.895195 
C 353.519686 437.79858 354.697717 434.954562 354.697717 431.989501 
C 354.697717 429.02444 353.519686 426.180421 351.423071 424.083807 
C 349.326456 421.987192 346.482438 420.809161 343.517377 420.809161 
C 340.552316 420.809161 337.708297 421.987192 335.611683 424.083807 
C 333.515068 426.180421 332.337037 429.02444 332.337037 431.989501 
C 332.337037 434.954562 333.515068 437.79858 335.611683 439.895195 
C 337.708297 441.99181 340.552316 443.169841 343.517377 443.169841 
z
" clip-path="url(#pae4d42e002)" style="fill: #ad35ca; stroke: #ad35ca"/>
    <path d="M 214.713664 359.896891 
C 216.588933 359.896891 218.387649 359.151839 219.713664 357.825823 
C 221.03968 356.499808 221.784732 354.701093 221.784732 352.825823 
C 221.784732 350.950554 221.03968 349.151839 219.713664 347.825823 
C 218.387649 346.499808 216.588933 345.754756 214.713664 345.754756 
C 212.838395 345.754756 211.03968 346.499808 209.713664 347.825823 
C 208.387649 349.151839 207.642596 350.950554 207.642596 352.825823 
C 207.642596 354.701093 208.387649 356.499808 209.713664 357.825823 
C 211.03968 359.151839 212.838395 359.896891 214.713664 359.896891 
z
" clip-path="url(#pae4d42e002)" style="fill: #8f81b5; stroke: #8f81b5"/>
    <path d="M 645.431264 419.809967 
C 646.617288 419.809967 647.754896 419.338754 648.593542 418.500108 
C 649.432187 417.661463 649.9034 416.523855 649.9034 415.337831 
C 649.9034 414.151806 649.432187 413.014199 648.593542 412.175553 
C 647.754896 411.336907 646.617288 410.865695 645.431264 410.865695 
C 644.24524 410.865695 643.107632 411.336907 642.268986 412.175553 
C 641.43034 413.014199 640.959128 414.151806 640.959128 415.337831 
C 640.959128 416.523855 641.43034 417.661463 642.268986 418.500108 
C 643.107632 419.338754 644.24524 419.809967 645.431264 419.809967 
z
" clip-path="url(#pae4d42e002)" style="fill: #879dba; stroke: #879dba"/>
    <path d="M 641.777556 386.695611 
C 642.96358 386.695611 644.101188 386.224399 644.939833 385.385753 
C 645.778479 384.547107 646.249692 383.4095 646.249692 382.223475 
C 646.249692 381.037451 645.778479 379.899844 644.939833 379.061198 
C 644.101188 378.222552 642.96358 377.75134 641.777556 377.75134 
C 640.591531 377.75134 639.453924 378.222552 638.615278 379.061198 
C 637.776632 379.899844 637.30542 381.037451 637.30542 382.223475 
C 637.30542 383.4095 637.776632 384.547107 638.615278 385.385753 
C 639.453924 386.224399 640.591531 386.695611 641.777556 386.695611 
z
" clip-path="url(#pae4d42e002)" style="fill: #879dba; stroke: #879dba"/>
    <path d="M 634.491138 354.190208 
C 635.677162 354.190208 636.81477 353.718995 637.653415 352.880349 
C 638.492061 352.041703 638.963274 350.904096 638.963274 349.718072 
C 638.963274 348.532047 638.492061 347.39444 637.653415 346.555794 
C 636.81477 345.717148 635.677162 345.245936 634.491138 345.245936 
C 633.305113 345.245936 632.167506 345.717148 631.32886 346.555794 
C 630.490214 347.39444 630.019002 348.532047 630.019002 349.718072 
C 630.019002 350.904096 630.490214 352.041703 631.32886 352.880349 
C 632.167506 353.718995 633.305113 354.190208 634.491138 354.190208 
z
" clip-path="url(#pae4d42e002)" style="fill: #879dba; stroke: #879dba"/>
    <path d="M 623.656003 322.692723 
C 624.842027 322.692723 625.979635 322.221511 626.818281 321.382865 
C 627.656927 320.544219 628.128139 319.406612 628.128139 318.220587 
C 628.128139 317.034563 627.656927 315.896955 626.818281 315.05831 
C 625.979635 314.219664 624.842027 313.748451 623.656003 313.748451 
C 622.469979 313.748451 621.332371 314.219664 620.493725 315.05831 
C 619.65508 315.896955 619.183867 317.034563 619.183867 318.220587 
C 619.183867 319.406612 619.65508 320.544219 620.493725 321.382865 
C 621.332371 322.221511 622.469979 322.692723 623.656003 322.692723 
z
" clip-path="url(#pae4d42e002)" style="fill: #879dba; stroke: #879dba"/>
    <path d="M 609.440138 292.56013 
C 610.626163 292.56013 611.76377 292.088917 612.602416 291.250271 
C 613.441062 290.411626 613.912274 289.274018 613.912274 288.087994 
C 613.912274 286.901969 613.441062 285.764362 612.602416 284.925716 
C 611.76377 284.08707 610.626163 283.615858 609.440138 283.615858 
C 608.254114 283.615858 607.116507 284.08707 606.277861 284.925716 
C 605.439215 285.764362 604.968003 286.901969 604.968003 288.087994 
C 604.968003 289.274018 605.439215 290.411626 606.277861 291.250271 
C 607.116507 292.088917 608.254114 292.56013 609.440138 292.56013 
z
" clip-path="url(#pae4d42e002)" style="fill: #879dba; stroke: #879dba"/>
    <path d="M 592.01153 264.170397 
C 593.197555 264.170397 594.335162 263.699185 595.173808 262.860539 
C 596.012454 262.021893 596.483666 260.884286 596.483666 259.698261 
C 596.483666 258.512237 596.012454 257.374629 595.173808 256.535984 
C 594.335162 255.697338 593.197555 255.226125 592.01153 255.226125 
C 590.825506 255.226125 589.687899 255.697338 588.849253 256.535984 
C 588.010607 257.374629 587.539394 258.512237 587.539394 259.698261 
C 587.539394 260.884286 588.010607 262.021893 588.849253 262.860539 
C 589.687899 263.699185 590.825506 264.170397 592.01153 264.170397 
z
" clip-path="url(#pae4d42e002)" style="fill: #879dba; stroke: #879dba"/>
    <path d="M 571.538166 237.880497 
C 572.72419 237.880497 573.861797 237.409284 574.700443 236.570639 
C 575.539089 235.731993 576.010302 234.594385 576.010302 233.408361 
C 576.010302 232.222337 575.539089 231.084729 574.700443 230.246083 
C 573.861797 229.407437 572.72419 228.936225 571.538166 228.936225 
C 570.352141 228.936225 569.214534 229.407437 568.375888 230.246083 
C 567.537242 231.084729 567.06603 232.222337 567.06603 233.408361 
C 567.06603 234.594385 567.537242 235.731993 568.375888 236.570639 
C 569.214534 237.409284 570.352141 237.880497 571.538166 237.880497 
z
" clip-path="url(#pae4d42e002)" style="fill: #879dba; stroke: #879dba"/>
    <path d="M 548.31402 214.005404 
C 549.500045 214.005404 550.637652 213.534191 551.476298 212.695545 
C 552.314944 211.8569 552.786156 210.719292 552.786156 209.533268 
C 552.786156 208.347243 552.314944 207.209636 551.476298 206.37099 
C 550.637652 205.532344 549.500045 205.061132 548.31402 205.061132 
C 547.127996 205.061132 545.990389 205.532344 545.151743 206.37099 
C 544.313097 207.209636 543.841884 208.347243 543.841884 209.533268 
C 543.841884 210.719292 544.313097 211.8569 545.151743 212.695545 
C 545.990389 213.534191 547.127996 214.005404 548.31402 214.005404 
z
" clip-path="url(#pae4d42e002)" style="fill: #879dba; stroke: #879dba"/>
    <path d="M 522.591075 192.818096 
C 523.777099 192.818096 524.914707 192.346883 525.753352 191.508238 
C 526.591998 190.669592 527.063211 189.531984 527.063211 188.34596 
C 527.063211 187.159936 526.591998 186.022328 525.753352 185.183682 
C 524.914707 184.345036 523.777099 183.873824 522.591075 183.873824 
C 521.405051 183.873824 520.267443 184.345036 519.428797 185.183682 
C 518.590151 186.022328 518.118939 187.159936 518.118939 188.34596 
C 518.118939 189.531984 518.590151 190.669592 519.428797 191.508238 
C 520.267443 192.346883 521.405051 192.818096 522.591075 192.818096 
z
" clip-path="url(#pae4d42e002)" style="fill: #879dba; stroke: #879dba"/>
    <path d="M 494.705302 174.61255 
C 495.891326 174.61255 497.028934 174.141337 497.86758 173.302692 
C 498.706225 172.464046 499.177438 171.326438 499.177438 170.140414 
C 499.177438 168.95439 498.706225 167.816782 497.86758 166.978136 
C 497.028934 166.13949 495.891326 165.668278 494.705302 165.668278 
C 493.519278 165.668278 492.38167 166.13949 491.543024 166.978136 
C 490.704378 167.816782 490.233166 168.95439 490.233166 170.140414 
C 490.233166 171.326438 490.704378 172.464046 491.543024 173.302692 
C 492.38167 174.141337 493.519278 174.61255 494.705302 174.61255 
z
" clip-path="url(#pae4d42e002)" style="fill: #879dba; stroke: #879dba"/>
    <path d="M 464.971677 159.556752 
C 466.157701 159.556752 467.295309 159.08554 468.133954 158.246894 
C 468.9726 157.408248 469.443813 156.270641 469.443813 155.084616 
C 469.443813 153.898592 468.9726 152.760985 468.133954 151.922339 
C 467.295309 151.083693 466.157701 150.61248 464.971677 150.61248 
C 463.785652 150.61248 462.648045 151.083693 461.809399 151.922339 
C 460.970753 152.760985 460.499541 153.898592 460.499541 155.084616 
C 460.499541 156.270641 460.970753 157.408248 461.809399 158.246894 
C 462.648045 159.08554 463.785652 159.556752 464.971677 159.556752 
z
" clip-path="url(#pae4d42e002)" style="fill: #879dba; stroke: #879dba"/>
    <path d="M 433.789167 147.881685 
C 434.975191 147.881685 436.112799 147.410472 436.951445 146.571826 
C 437.790091 145.733181 438.261303 144.595573 438.261303 143.409549 
C 438.261303 142.223525 437.790091 141.085917 436.951445 140.247271 
C 436.112799 139.408625 434.975191 138.937413 433.789167 138.937413 
C 432.603143 138.937413 431.465535 139.408625 430.62689 140.247271 
C 429.788244 141.085917 429.317031 142.223525 429.317031 143.409549 
C 429.317031 144.595573 429.788244 145.733181 430.62689 146.571826 
C 431.465535 147.410472 432.603143 147.881685 433.789167 147.881685 
z
" clip-path="url(#pae4d42e002)" style="fill: #879dba; stroke: #879dba"/>
    <path d="M 401.493746 139.713337 
C 402.679771 139.713337 403.817378 139.242125 404.656024 138.403479 
C 405.49467 137.564833 405.965882 136.427226 405.965882 135.241201 
C 405.965882 134.055177 405.49467 132.917569 404.656024 132.078924 
C 403.817378 131.240278 402.679771 130.769065 401.493746 130.769065 
C 400.307722 130.769065 399.170115 131.240278 398.331469 132.078924 
C 397.492823 132.917569 397.021611 134.055177 397.021611 135.241201 
C 397.021611 136.427226 397.492823 137.564833 398.331469 138.403479 
C 399.170115 139.242125 400.307722 139.713337 401.493746 139.713337 
z
" clip-path="url(#pae4d42e002)" style="fill: #879dba; stroke: #879dba"/>
    <path d="M 368.484383 135.135703 
C 369.670407 135.135703 370.808015 134.66449 371.646661 133.825844 
C 372.485306 132.987199 372.956519 131.849591 372.956519 130.663567 
C 372.956519 129.477542 372.485306 128.339935 371.646661 127.501289 
C 370.808015 126.662643 369.670407 126.191431 368.484383 126.191431 
C 367.298359 126.191431 366.160751 126.662643 365.322105 127.501289 
C 364.483459 128.339935 364.012247 129.477542 364.012247 130.663567 
C 364.012247 131.849591 364.483459 132.987199 365.322105 133.825844 
C 366.160751 134.66449 367.298359 135.135703 368.484383 135.135703 
z
" clip-path="url(#pae4d42e002)" style="fill: #879dba; stroke: #879dba"/>
    <path d="M 335.181043 134.211777 
C 336.367067 134.211777 337.504675 133.740564 338.34332 132.901918 
C 339.181966 132.063272 339.653179 130.925665 339.653179 129.739641 
C 339.653179 128.553616 339.181966 127.416009 338.34332 126.577363 
C 337.504675 125.738717 336.367067 125.267505 335.181043 125.267505 
C 333.995018 125.267505 332.857411 125.738717 332.018765 126.577363 
C 331.180119 127.416009 330.708907 128.553616 330.708907 129.739641 
C 330.708907 130.925665 331.180119 132.063272 332.018765 132.901918 
C 332.857411 133.740564 333.995018 134.211777 335.181043 134.211777 
z
" clip-path="url(#pae4d42e002)" style="fill: #879dba; stroke: #879dba"/>
    <path d="M 301.982694 136.962557 
C 303.168718 136.962557 304.306326 136.491344 305.144972 135.652699 
C 305.983618 134.814053 306.45483 133.676445 306.45483 132.490421 
C 306.45483 131.304397 305.983618 130.166789 305.144972 129.328143 
C 304.306326 128.489497 303.168718 128.018285 301.982694 128.018285 
C 300.79667 128.018285 299.659062 128.489497 298.820416 129.328143 
C 297.981771 130.166789 297.510558 131.304397 297.510558 132.490421 
C 297.510558 133.676445 297.981771 134.814053 298.820416 135.652699 
C 299.659062 136.491344 300.79667 136.962557 301.982694 136.962557 
z
" clip-path="url(#pae4d42e002)" style="fill: #879dba; stroke: #879dba"/>
    <path d="M 269.288305 143.346047 
C 270.47433 143.346047 271.611937 142.874835 272.450583 142.036189 
C 273.289229 141.197543 273.760441 140.059935 273.760441 138.873911 
C 273.760441 137.687887 273.289229 136.550279 272.450583 135.711633 
C 271.611937 134.872988 270.47433 134.401775 269.288305 134.401775 
C 268.102281 134.401775 266.964674 134.872988 266.126028 135.711633 
C 265.287382 136.550279 264.816169 137.687887 264.816169 138.873911 
C 264.816169 140.059935 265.287382 141.197543 266.126028 142.036189 
C 266.964674 142.874835 268.102281 143.346047 269.288305 143.346047 
z
" clip-path="url(#pae4d42e002)" style="fill: #879dba; stroke: #879dba"/>
    <path d="M 237.496844 153.299252 
C 238.682869 153.299252 239.820476 152.82804 240.659122 151.989394 
C 241.497768 151.150748 241.96898 150.01314 241.96898 148.827116 
C 241.96898 147.641092 241.497768 146.503484 240.659122 145.664838 
C 239.820476 144.826193 238.682869 144.35498 237.496844 144.35498 
C 236.31082 144.35498 235.173213 144.826193 234.334567 145.664838 
C 233.495921 146.503484 233.024708 147.641092 233.024708 148.827116 
C 233.024708 150.01314 233.495921 151.150748 234.334567 151.989394 
C 235.173213 152.82804 236.31082 153.299252 237.496844 153.299252 
z
" clip-path="url(#pae4d42e002)" style="fill: #879dba; stroke: #879dba"/>
    <path d="M 206.986281 166.675184 
C 208.172306 166.675184 209.309913 166.203971 210.148559 165.365326 
C 210.987205 164.52668 211.458417 163.389072 211.458417 162.203048 
C 211.458417 161.017024 210.987205 159.879416 210.148559 159.04077 
C 209.309913 158.202124 208.172306 157.730912 206.986281 157.730912 
C 205.800257 157.730912 204.662649 158.202124 203.824004 159.04077 
C 202.985358 159.879416 202.514145 161.017024 202.514145 162.203048 
C 202.514145 163.389072 202.985358 164.52668 203.824004 165.365326 
C 204.662649 166.203971 205.800257 166.675184 206.986281 166.675184 
z
" clip-path="url(#pae4d42e002)" style="fill: #879dba; stroke: #879dba"/>
    <path d="M 178.134586 183.326854 
C 179.32061 183.326854 180.458217 182.855641 181.296863 182.016996 
C 182.135509 181.17835 182.606721 180.040742 182.606721 178.854718 
C 182.606721 177.668694 182.135509 176.531086 181.296863 175.69244 
C 180.458217 174.853794 179.32061 174.382582 178.134586 174.382582 
C 176.948561 174.382582 175.810954 174.853794 174.972308 175.69244 
C 174.133662 176.531086 173.66245 177.668694 173.66245 178.854718 
C 173.66245 180.040742 174.133662 181.17835 174.972308 182.016996 
C 175.810954 182.855641 176.948561 183.326854 178.134586 183.326854 
z
" clip-path="url(#pae4d42e002)" style="fill: #879dba; stroke: #879dba"/>
    <path d="M 151.298729 203.065277 
C 152.484753 203.065277 153.622361 202.594065 154.461006 201.755419 
C 155.299652 200.916773 155.770865 199.779166 155.770865 198.593141 
C 155.770865 197.407117 155.299652 196.26951 154.461006 195.430864 
C 153.622361 194.592218 152.484753 194.121006 151.298729 194.121006 
C 150.112704 194.121006 148.975097 194.592218 148.136451 195.430864 
C 147.297805 196.26951 146.826593 197.407117 146.826593 198.593141 
C 146.826593 199.779166 147.297805 200.916773 148.136451 201.755419 
C 148.975097 202.594065 150.112704 203.065277 151.298729 203.065277 
z
" clip-path="url(#pae4d42e002)" style="fill: #879dba; stroke: #879dba"/>
    <path d="M 126.772688 225.617476 
C 127.958712 225.617476 129.096319 225.146264 129.934965 224.307618 
C 130.773611 223.468972 131.244824 222.331365 131.244824 221.14534 
C 131.244824 219.959316 130.773611 218.821708 129.934965 217.983063 
C 129.096319 217.144417 127.958712 216.673204 126.772688 216.673204 
C 125.586663 216.673204 124.449056 217.144417 123.61041 217.983063 
C 122.771764 218.821708 122.300552 219.959316 122.300552 221.14534 
C 122.300552 222.331365 122.771764 223.468972 123.61041 224.307618 
C 124.449056 225.146264 125.586663 225.617476 126.772688 225.617476 
z
" clip-path="url(#pae4d42e002)" style="fill: #879dba; stroke: #879dba"/>
    <path d="M 104.892435 250.752469 
C 106.078459 250.752469 107.216067 250.281256 108.054713 249.442611 
C 108.893359 248.603965 109.364571 247.466357 109.364571 246.280333 
C 109.364571 245.094309 108.893359 243.956701 108.054713 243.118055 
C 107.216067 242.279409 106.078459 241.808197 104.892435 241.808197 
C 103.706411 241.808197 102.568803 242.279409 101.730157 243.118055 
C 100.891512 243.956701 100.420299 245.094309 100.420299 246.280333 
C 100.420299 247.466357 100.891512 248.603965 101.730157 249.442611 
C 102.568803 250.281256 103.706411 250.752469 104.892435 250.752469 
z
" clip-path="url(#pae4d42e002)" style="fill: #879dba; stroke: #879dba"/>
    <path d="M 85.909951 278.134282 
C 87.095976 278.134282 88.233583 277.663069 89.072229 276.824424 
C 89.910875 275.985778 90.382087 274.84817 90.382087 273.662146 
C 90.382087 272.476122 89.910875 271.338514 89.072229 270.499868 
C 88.233583 269.661222 87.095976 269.19001 85.909951 269.19001 
C 84.723927 269.19001 83.586319 269.661222 82.747674 270.499868 
C 81.909028 271.338514 81.437815 272.476122 81.437815 273.662146 
C 81.437815 274.84817 81.909028 275.985778 82.747674 276.824424 
C 83.586319 277.663069 84.723927 278.134282 85.909951 278.134282 
z
" clip-path="url(#pae4d42e002)" style="fill: #879dba; stroke: #879dba"/>
    <path d="M 70.056217 307.426942 
C 71.242242 307.426942 72.379849 306.95573 73.218495 306.117084 
C 74.057141 305.278438 74.528353 304.140831 74.528353 302.954806 
C 74.528353 301.768782 74.057141 300.631175 73.218495 299.792529 
C 72.379849 298.953883 71.242242 298.48267 70.056217 298.48267 
C 68.870193 298.48267 67.732586 298.953883 66.89394 299.792529 
C 66.055294 300.631175 65.584081 301.768782 65.584081 302.954806 
C 65.584081 304.140831 66.055294 305.278438 66.89394 306.117084 
C 67.732586 306.95573 68.870193 307.426942 70.056217 307.426942 
z
" clip-path="url(#pae4d42e002)" style="fill: #879dba; stroke: #879dba"/>
    <path d="M 57.520219 338.294477 
C 58.706243 338.294477 59.84385 337.823265 60.682496 336.984619 
C 61.521142 336.145973 61.992355 335.008365 61.992355 333.822341 
C 61.992355 332.636317 61.521142 331.498709 60.682496 330.660063 
C 59.84385 329.821418 58.706243 329.350205 57.520219 329.350205 
C 56.334194 329.350205 55.196587 329.821418 54.357941 330.660063 
C 53.519295 331.498709 53.048083 332.636317 53.048083 333.822341 
C 53.048083 335.008365 53.519295 336.145973 54.357941 336.984619 
C 55.196587 337.823265 56.334194 338.294477 57.520219 338.294477 
z
" clip-path="url(#pae4d42e002)" style="fill: #879dba; stroke: #879dba"/>
    <path d="M 48.469941 370.337918 
C 49.655966 370.337918 50.793573 369.866705 51.632219 369.02806 
C 52.470865 368.189414 52.942077 367.051806 52.942077 365.865782 
C 52.942077 364.679758 52.470865 363.54215 51.632219 362.703504 
C 50.793573 361.864858 49.655966 361.393646 48.469941 361.393646 
C 47.283917 361.393646 46.14631 361.864858 45.307664 362.703504 
C 44.469018 363.54215 43.997805 364.679758 43.997805 365.865782 
C 43.997805 367.051806 44.469018 368.189414 45.307664 369.02806 
C 46.14631 369.866705 47.283917 370.337918 48.469941 370.337918 
z
" clip-path="url(#pae4d42e002)" style="fill: #879dba; stroke: #879dba"/>
    <path d="M 42.968381 403.200293 
C 44.154405 403.200293 45.292013 402.729081 46.130658 401.890435 
C 46.969304 401.051789 47.440517 399.914182 47.440517 398.728157 
C 47.440517 397.542133 46.969304 396.404525 46.130658 395.56588 
C 45.292013 394.727234 44.154405 394.256021 42.968381 394.256021 
C 41.782356 394.256021 40.644749 394.727234 39.806103 395.56588 
C 38.967457 396.404525 38.496245 397.542133 38.496245 398.728157 
C 38.496245 399.914182 38.967457 401.051789 39.806103 401.890435 
C 40.644749 402.729081 41.782356 403.200293 42.968381 403.200293 
z
" clip-path="url(#pae4d42e002)" style="fill: #879dba; stroke: #879dba"/>
    <path d="M 41.141527 436.461637 
C 42.327551 436.461637 43.465159 435.990424 44.303804 435.151778 
C 45.14245 434.313133 45.613663 433.175525 45.613663 431.989501 
C 45.613663 430.803477 45.14245 429.665869 44.303804 428.827223 
C 43.465159 427.988577 42.327551 427.517365 41.141527 427.517365 
C 39.955502 427.517365 38.817895 427.988577 37.979249 428.827223 
C 37.140603 429.665869 36.669391 430.803477 36.669391 431.989501 
C 36.669391 433.175525 37.140603 434.313133 37.979249 435.151778 
C 38.817895 435.990424 39.955502 436.461637 41.141527 436.461637 
z
" clip-path="url(#pae4d42e002)" style="fill: #879dba; stroke: #879dba"/>
    <path d="M 42.968381 469.743979 
C 44.154405 469.743979 45.292013 469.272766 46.130658 468.43412 
C 46.969304 467.595475 47.440517 466.457867 47.440517 465.271843 
C 47.440517 464.085818 46.969304 462.948211 46.130658 462.109565 
C 45.292013 461.270919 44.154405 460.799707 42.968381 460.799707 
C 41.782356 460.799707 40.644749 461.270919 39.806103 462.109565 
C 38.967457 462.948211 38.496245 464.085818 38.496245 465.271843 
C 38.496245 466.457867 38.967457 467.595475 39.806103 468.43412 
C 40.644749 469.272766 41.782356 469.743979 42.968381 469.743979 
z
" clip-path="url(#pae4d42e002)" style="fill: #879dba; stroke: #879dba"/>
    <path d="M 48.469941 502.585356 
C 49.655966 502.585356 50.793573 502.114143 51.632219 501.275497 
C 52.470865 500.436852 52.942077 499.299244 52.942077 498.11322 
C 52.942077 496.927195 52.470865 495.789588 51.632219 494.950942 
C 50.793573 494.112296 49.655966 493.641084 48.469941 493.641084 
C 47.283917 493.641084 46.14631 494.112296 45.307664 494.950942 
C 44.469018 495.789588 43.997805 496.927195 43.997805 498.11322 
C 43.997805 499.299244 44.469018 500.436852 45.307664 501.275497 
C 46.14631 502.114143 47.283917 502.585356 48.469941 502.585356 
z
" clip-path="url(#pae4d42e002)" style="fill: #879dba; stroke: #879dba"/>
    <path d="M 57.520219 534.649795 
C 58.706243 534.649795 59.84385 534.178582 60.682496 533.339937 
C 61.521142 532.501291 61.992355 531.363683 61.992355 530.177659 
C 61.992355 528.991635 61.521142 527.854027 60.682496 527.015381 
C 59.84385 526.176735 58.706243 525.705523 57.520219 525.705523 
C 56.334194 525.705523 55.196587 526.176735 54.357941 527.015381 
C 53.519295 527.854027 53.048083 528.991635 53.048083 530.177659 
C 53.048083 531.363683 53.519295 532.501291 54.357941 533.339937 
C 55.196587 534.178582 56.334194 534.649795 57.520219 534.649795 
z
" clip-path="url(#pae4d42e002)" style="fill: #879dba; stroke: #879dba"/>
    <path d="M 70.056217 565.51733 
C 71.242242 565.51733 72.379849 565.046117 73.218495 564.207471 
C 74.057141 563.368825 74.528353 562.231218 74.528353 561.045194 
C 74.528353 559.859169 74.057141 558.721562 73.218495 557.882916 
C 72.379849 557.04427 71.242242 556.573058 70.056217 556.573058 
C 68.870193 556.573058 67.732586 557.04427 66.89394 557.882916 
C 66.055294 558.721562 65.584081 559.859169 65.584081 561.045194 
C 65.584081 562.231218 66.055294 563.368825 66.89394 564.207471 
C 67.732586 565.046117 68.870193 565.51733 70.056217 565.51733 
z
" clip-path="url(#pae4d42e002)" style="fill: #879dba; stroke: #879dba"/>
    <path d="M 85.909951 594.818389 
C 87.095976 594.818389 88.233583 594.347177 89.072229 593.508531 
C 89.910875 592.669885 90.382087 591.532278 90.382087 590.346253 
C 90.382087 589.160229 89.910875 588.022622 89.072229 587.183976 
C 88.233583 586.34533 87.095976 585.874117 85.909951 585.874117 
C 84.723927 585.874117 83.586319 586.34533 82.747674 587.183976 
C 81.909028 588.022622 81.437815 589.160229 81.437815 590.346253 
C 81.437815 591.532278 81.909028 592.669885 82.747674 593.508531 
C 83.586319 594.347177 84.723927 594.818389 85.909951 594.818389 
z
" clip-path="url(#pae4d42e002)" style="fill: #879dba; stroke: #879dba"/>
    <path d="M 104.892435 622.193903 
C 106.078459 622.193903 107.216067 621.72269 108.054713 620.884045 
C 108.893359 620.045399 109.364571 618.907791 109.364571 617.721767 
C 109.364571 616.535743 108.893359 615.398135 108.054713 614.559489 
C 107.216067 613.720843 106.078459 613.249631 104.892435 613.249631 
C 103.706411 613.249631 102.568803 613.720843 101.730157 614.559489 
C 100.891512 615.398135 100.420299 616.535743 100.420299 617.721767 
C 100.420299 618.907791 100.891512 620.045399 101.730157 620.884045 
C 102.568803 621.72269 103.706411 622.193903 104.892435 622.193903 
z
" clip-path="url(#pae4d42e002)" style="fill: #879dba; stroke: #879dba"/>
    <path d="M 126.772688 647.316296 
C 127.958712 647.316296 129.096319 646.845084 129.934965 646.006438 
C 130.773611 645.167792 131.244824 644.030185 131.244824 642.844161 
C 131.244824 641.658136 130.773611 640.520529 129.934965 639.681883 
C 129.096319 638.843237 127.958712 638.372025 126.772688 638.372025 
C 125.586663 638.372025 124.449056 638.843237 123.61041 639.681883 
C 122.771764 640.520529 122.300552 641.658136 122.300552 642.844161 
C 122.300552 644.030185 122.771764 645.167792 123.61041 646.006438 
C 124.449056 646.845084 125.586663 647.316296 126.772688 647.316296 
z
" clip-path="url(#pae4d42e002)" style="fill: #879dba; stroke: #879dba"/>
    <path d="M 151.298729 669.881094 
C 152.484753 669.881094 153.622361 669.409882 154.461006 668.571236 
C 155.299652 667.73259 155.770865 666.594983 155.770865 665.408958 
C 155.770865 664.222934 155.299652 663.085327 154.461006 662.246681 
C 153.622361 661.408035 152.484753 660.936822 151.298729 660.936822 
C 150.112704 660.936822 148.975097 661.408035 148.136451 662.246681 
C 147.297805 663.085327 146.826593 664.222934 146.826593 665.408958 
C 146.826593 666.594983 147.297805 667.73259 148.136451 668.571236 
C 148.975097 669.409882 150.112704 669.881094 151.298729 669.881094 
z
" clip-path="url(#pae4d42e002)" style="fill: #879dba; stroke: #879dba"/>
    <path d="M 178.134586 689.611119 
C 179.32061 689.611119 180.458217 689.139906 181.296863 688.30126 
C 182.135509 687.462614 182.606721 686.325007 182.606721 685.138983 
C 182.606721 683.952958 182.135509 682.815351 181.296863 681.976705 
C 180.458217 681.138059 179.32061 680.666847 178.134586 680.666847 
C 176.948561 680.666847 175.810954 681.138059 174.972308 681.976705 
C 174.133662 682.815351 173.66245 683.952958 173.66245 685.138983 
C 173.66245 686.325007 174.133662 687.462614 174.972308 688.30126 
C 175.810954 689.139906 176.948561 689.611119 178.134586 689.611119 
z
" clip-path="url(#pae4d42e002)" style="fill: #879dba; stroke: #879dba"/>
    <path d="M 206.986281 706.266988 
C 208.172306 706.266988 209.309913 705.795776 210.148559 704.95713 
C 210.987205 704.118484 211.458417 702.980877 211.458417 701.794852 
C 211.458417 700.608828 210.987205 699.47122 210.148559 698.632575 
C 209.309913 697.793929 208.172306 697.322716 206.986281 697.322716 
C 205.800257 697.322716 204.662649 697.793929 203.824004 698.632575 
C 202.985358 699.47122 202.514145 700.608828 202.514145 701.794852 
C 202.514145 702.980877 202.985358 704.118484 203.824004 704.95713 
C 204.662649 705.795776 205.800257 706.266988 206.986281 706.266988 
z
" clip-path="url(#pae4d42e002)" style="fill: #879dba; stroke: #879dba"/>
    <path d="M 237.496844 719.649219 
C 238.682869 719.649219 239.820476 719.178007 240.659122 718.339361 
C 241.497768 717.500715 241.96898 716.363108 241.96898 715.177084 
C 241.96898 713.991059 241.497768 712.853452 240.659122 712.014806 
C 239.820476 711.17616 238.682869 710.704948 237.496844 710.704948 
C 236.31082 710.704948 235.173213 711.17616 234.334567 712.014806 
C 233.495921 712.853452 233.024708 713.991059 233.024708 715.177084 
C 233.024708 716.363108 233.495921 717.500715 234.334567 718.339361 
C 235.173213 719.178007 236.31082 719.649219 237.496844 719.649219 
z
" clip-path="url(#pae4d42e002)" style="fill: #879dba; stroke: #879dba"/>
    <path d="M 269.288305 729.594025 
C 270.47433 729.594025 271.611937 729.122813 272.450583 728.284167 
C 273.289229 727.445521 273.760441 726.307914 273.760441 725.121889 
C 273.760441 723.935865 273.289229 722.798257 272.450583 721.959612 
C 271.611937 721.120966 270.47433 720.649753 269.288305 720.649753 
C 268.102281 720.649753 266.964674 721.120966 266.126028 721.959612 
C 265.287382 722.798257 264.816169 723.935865 264.816169 725.121889 
C 264.816169 726.307914 265.287382 727.445521 266.126028 728.284167 
C 266.964674 729.122813 268.102281 729.594025 269.288305 729.594025 
z
" clip-path="url(#pae4d42e002)" style="fill: #879dba; stroke: #879dba"/>
    <path d="M 301.982694 735.981715 
C 303.168718 735.981715 304.306326 735.510503 305.144972 734.671857 
C 305.983618 733.833211 306.45483 732.695603 306.45483 731.509579 
C 306.45483 730.323555 305.983618 729.185947 305.144972 728.347301 
C 304.306326 727.508656 303.168718 727.037443 301.982694 727.037443 
C 300.79667 727.037443 299.659062 727.508656 298.820416 728.347301 
C 297.981771 729.185947 297.510558 730.323555 297.510558 731.509579 
C 297.510558 732.695603 297.981771 733.833211 298.820416 734.671857 
C 299.659062 735.510503 300.79667 735.981715 301.982694 735.981715 
z
" clip-path="url(#pae4d42e002)" style="fill: #879dba; stroke: #879dba"/>
    <path d="M 335.181043 738.732495 
C 336.367067 738.732495 337.504675 738.261283 338.34332 737.422637 
C 339.181966 736.583991 339.653179 735.446384 339.653179 734.260359 
C 339.653179 733.074335 339.181966 731.936728 338.34332 731.098082 
C 337.504675 730.259436 336.367067 729.788223 335.181043 729.788223 
C 333.995018 729.788223 332.857411 730.259436 332.018765 731.098082 
C 331.180119 731.936728 330.708907 733.074335 330.708907 734.260359 
C 330.708907 735.446384 331.180119 736.583991 332.018765 737.422637 
C 332.857411 738.261283 333.995018 738.732495 335.181043 738.732495 
z
" clip-path="url(#pae4d42e002)" style="fill: #879dba; stroke: #879dba"/>
    <path d="M 368.484383 737.814869 
C 369.670407 737.814869 370.808015 737.343656 371.646661 736.50501 
C 372.485306 735.666365 372.956519 734.528757 372.956519 733.342733 
C 372.956519 732.156708 372.485306 731.019101 371.646661 730.180455 
C 370.808015 729.341809 369.670407 728.870597 368.484383 728.870597 
C 367.298359 728.870597 366.160751 729.341809 365.322105 730.180455 
C 364.483459 731.019101 364.012247 732.156708 364.012247 733.342733 
C 364.012247 734.528757 364.483459 735.666365 365.322105 736.50501 
C 366.160751 737.343656 367.298359 737.814869 368.484383 737.814869 
z
" clip-path="url(#pae4d42e002)" style="fill: #879dba; stroke: #879dba"/>
    <path d="M 401.493746 733.239334 
C 402.679771 733.239334 403.817378 732.768122 404.656024 731.929476 
C 405.49467 731.09083 405.965882 729.953222 405.965882 728.767198 
C 405.965882 727.581174 405.49467 726.443566 404.656024 725.60492 
C 403.817378 724.766275 402.679771 724.295062 401.493746 724.295062 
C 400.307722 724.295062 399.170115 724.766275 398.331469 725.60492 
C 397.492823 726.443566 397.021611 727.581174 397.021611 728.767198 
C 397.021611 729.953222 397.492823 731.09083 398.331469 731.929476 
C 399.170115 732.768122 400.307722 733.239334 401.493746 733.239334 
z
" clip-path="url(#pae4d42e002)" style="fill: #879dba; stroke: #879dba"/>
    <path d="M 433.789167 725.060487 
C 434.975191 725.060487 436.112799 724.589275 436.951445 723.750629 
C 437.790091 722.911983 438.261303 721.774376 438.261303 720.588351 
C 438.261303 719.402327 437.790091 718.26472 436.951445 717.426074 
C 436.112799 716.587428 434.975191 716.116215 433.789167 716.116215 
C 432.603143 716.116215 431.465535 716.587428 430.62689 717.426074 
C 429.788244 718.26472 429.317031 719.402327 429.317031 720.588351 
C 429.317031 721.774376 429.788244 722.911983 430.62689 723.750629 
C 431.465535 724.589275 432.603143 725.060487 433.789167 725.060487 
z
" clip-path="url(#pae4d42e002)" style="fill: #879dba; stroke: #879dba"/>
    <path d="M 464.971677 713.37912 
C 466.157701 713.37912 467.295309 712.907908 468.133954 712.069262 
C 468.9726 711.230616 469.443813 710.093009 469.443813 708.906984 
C 469.443813 707.72096 468.9726 706.583352 468.133954 705.744707 
C 467.295309 704.906061 466.157701 704.434848 464.971677 704.434848 
C 463.785652 704.434848 462.648045 704.906061 461.809399 705.744707 
C 460.970753 706.583352 460.499541 707.72096 460.499541 708.906984 
C 460.499541 710.093009 460.970753 711.230616 461.809399 712.069262 
C 462.648045 712.907908 463.785652 713.37912 464.971677 713.37912 
z
" clip-path="url(#pae4d42e002)" style="fill: #879dba; stroke: #879dba"/>
    <path d="M 472.32109 518.245244 
C 474.196359 518.245244 475.995074 517.500192 477.32109 516.174177 
C 478.647105 514.848161 479.392158 513.049446 479.392158 511.174177 
C 479.392158 509.298907 478.647105 507.500192 477.32109 506.174177 
C 475.995074 504.848161 474.196359 504.103109 472.32109 504.103109 
C 470.445821 504.103109 468.647105 504.848161 467.32109 506.174177 
C 465.995074 507.500192 465.250022 509.298907 465.250022 511.174177 
C 465.250022 513.049446 465.995074 514.848161 467.32109 516.174177 
C 468.647105 517.500192 470.445821 518.245244 472.32109 518.245244 
z
" clip-path="url(#pae4d42e002)" style="fill: #8f81b5; stroke: #8f81b5"/>
    <path d="M 494.705302 698.335922 
C 495.891326 698.335922 497.028934 697.864709 497.86758 697.026063 
C 498.706225 696.187418 499.177438 695.04981 499.177438 693.863786 
C 499.177438 692.677761 498.706225 691.540154 497.86758 690.701508 
C 497.028934 689.862862 495.891326 689.39165 494.705302 689.39165 
C 493.519278 689.39165 492.38167 689.862862 491.543024 690.701508 
C 490.704378 691.540154 490.233166 692.677761 490.233166 693.863786 
C 490.233166 695.04981 490.704378 696.187418 491.543024 697.026063 
C 492.38167 697.864709 493.519278 698.335922 494.705302 698.335922 
z
" clip-path="url(#pae4d42e002)" style="fill: #879dba; stroke: #879dba"/>
    <path d="M 522.591075 680.115677 
C 523.777099 680.115677 524.914707 679.644464 525.753352 678.805819 
C 526.591998 677.967173 527.063211 676.829565 527.063211 675.643541 
C 527.063211 674.457517 526.591998 673.319909 525.753352 672.481263 
C 524.914707 671.642617 523.777099 671.171405 522.591075 671.171405 
C 521.405051 671.171405 520.267443 671.642617 519.428797 672.481263 
C 518.590151 673.319909 518.118939 674.457517 518.118939 675.643541 
C 518.118939 676.829565 518.590151 677.967173 519.428797 678.805819 
C 520.267443 679.644464 521.405051 680.115677 522.591075 680.115677 
z
" clip-path="url(#pae4d42e002)" style="fill: #879dba; stroke: #879dba"/>
    <path d="M 548.31402 658.936768 
C 549.500045 658.936768 550.637652 658.465556 551.476298 657.62691 
C 552.314944 656.788264 552.786156 655.650657 552.786156 654.464632 
C 552.786156 653.278608 552.314944 652.141001 551.476298 651.302355 
C 550.637652 650.463709 549.500045 649.992496 548.31402 649.992496 
C 547.127996 649.992496 545.990389 650.463709 545.151743 651.302355 
C 544.313097 652.141001 543.841884 653.278608 543.841884 654.464632 
C 543.841884 655.650657 544.313097 656.788264 545.151743 657.62691 
C 545.990389 658.465556 547.127996 658.936768 548.31402 658.936768 
z
" clip-path="url(#pae4d42e002)" style="fill: #879dba; stroke: #879dba"/>
    <path d="M 571.538166 635.057476 
C 572.72419 635.057476 573.861797 634.586263 574.700443 633.747617 
C 575.539089 632.908971 576.010302 631.771364 576.010302 630.58534 
C 576.010302 629.399315 575.539089 628.261708 574.700443 627.423062 
C 573.861797 626.584416 572.72419 626.113204 571.538166 626.113204 
C 570.352141 626.113204 569.214534 626.584416 568.375888 627.423062 
C 567.537242 628.261708 567.06603 629.399315 567.06603 630.58534 
C 567.06603 631.771364 567.537242 632.908971 568.375888 633.747617 
C 569.214534 634.586263 570.352141 635.057476 571.538166 635.057476 
z
" clip-path="url(#pae4d42e002)" style="fill: #879dba; stroke: #879dba"/>
    <path d="M 592.01153 608.767575 
C 593.197555 608.767575 594.335162 608.296363 595.173808 607.457717 
C 596.012454 606.619071 596.483666 605.481464 596.483666 604.295439 
C 596.483666 603.109415 596.012454 601.971807 595.173808 601.133162 
C 594.335162 600.294516 593.197555 599.823303 592.01153 599.823303 
C 590.825506 599.823303 589.687899 600.294516 588.849253 601.133162 
C 588.010607 601.971807 587.539394 603.109415 587.539394 604.295439 
C 587.539394 605.481464 588.010607 606.619071 588.849253 607.457717 
C 589.687899 608.296363 590.825506 608.767575 592.01153 608.767575 
z
" clip-path="url(#pae4d42e002)" style="fill: #879dba; stroke: #879dba"/>
    <path d="M 609.440138 580.386242 
C 610.626163 580.386242 611.76377 579.91503 612.602416 579.076384 
C 613.441062 578.237738 613.912274 577.10013 613.912274 575.914106 
C 613.912274 574.728082 613.441062 573.590474 612.602416 572.751828 
C 611.76377 571.913183 610.626163 571.44197 609.440138 571.44197 
C 608.254114 571.44197 607.116507 571.913183 606.277861 572.751828 
C 605.439215 573.590474 604.968003 574.728082 604.968003 575.914106 
C 604.968003 577.10013 605.439215 578.237738 606.277861 579.076384 
C 607.116507 579.91503 608.254114 580.386242 609.440138 580.386242 
z
" clip-path="url(#pae4d42e002)" style="fill: #879dba; stroke: #879dba"/>
    <path d="M 623.656003 550.251549 
C 624.842027 550.251549 625.979635 549.780336 626.818281 548.94169 
C 627.656927 548.103045 628.128139 546.965437 628.128139 545.779413 
C 628.128139 544.593388 627.656927 543.455781 626.818281 542.617135 
C 625.979635 541.778489 624.842027 541.307277 623.656003 541.307277 
C 622.469979 541.307277 621.332371 541.778489 620.493725 542.617135 
C 619.65508 543.455781 619.183867 544.593388 619.183867 545.779413 
C 619.183867 546.965437 619.65508 548.103045 620.493725 548.94169 
C 621.332371 549.780336 622.469979 550.251549 623.656003 550.251549 
z
" clip-path="url(#pae4d42e002)" style="fill: #879dba; stroke: #879dba"/>
    <path d="M 634.491138 518.754064 
C 635.677162 518.754064 636.81477 518.282852 637.653415 517.444206 
C 638.492061 516.60556 638.963274 515.467953 638.963274 514.281928 
C 638.963274 513.095904 638.492061 511.958297 637.653415 511.119651 
C 636.81477 510.281005 635.677162 509.809792 634.491138 509.809792 
C 633.305113 509.809792 632.167506 510.281005 631.32886 511.119651 
C 630.490214 511.958297 630.019002 513.095904 630.019002 514.281928 
C 630.019002 515.467953 630.490214 516.60556 631.32886 517.444206 
C 632.167506 518.282852 633.305113 518.754064 634.491138 518.754064 
z
" clip-path="url(#pae4d42e002)" style="fill: #879dba; stroke: #879dba"/>
    <path d="M 641.777556 486.24866 
C 642.96358 486.24866 644.101188 485.777448 644.939833 484.938802 
C 645.778479 484.100156 646.249692 482.962549 646.249692 481.776525 
C 646.249692 480.5905 645.778479 479.452893 644.939833 478.614247 
C 644.101188 477.775601 642.96358 477.304389 641.777556 477.304389 
C 640.591531 477.304389 639.453924 477.775601 638.615278 478.614247 
C 637.776632 479.452893 637.30542 480.5905 637.30542 481.776525 
C 637.30542 482.962549 637.776632 484.100156 638.615278 484.938802 
C 639.453924 485.777448 640.591531 486.24866 641.777556 486.24866 
z
" clip-path="url(#pae4d42e002)" style="fill: #879dba; stroke: #879dba"/>
    <path d="M 645.431264 453.134305 
C 646.617288 453.134305 647.754896 452.663093 648.593542 451.824447 
C 649.432187 450.985801 649.9034 449.848194 649.9034 448.662169 
C 649.9034 447.476145 649.432187 446.338537 648.593542 445.499892 
C 647.754896 444.661246 646.617288 444.190033 645.431264 444.190033 
C 644.24524 444.190033 643.107632 444.661246 642.268986 445.499892 
C 641.43034 446.338537 640.959128 447.476145 640.959128 448.662169 
C 640.959128 449.848194 641.43034 450.985801 642.268986 451.824447 
C 643.107632 452.663093 644.24524 453.134305 645.431264 453.134305 
z
" clip-path="url(#pae4d42e002)" style="fill: #879dba; stroke: #879dba"/>
   </g>
   <g id="patch_3">
    <path d="M 10.8 764.486395 
L 10.8 99.513605 
" style="fill: none; stroke: #000000; stroke-width: 0.8; stroke-linejoin: miter; stroke-linecap: square"/>
   </g>
   <g id="patch_4">
    <path d="M 675.772791 764.486395 
L 675.772791 99.513605 
" style="fill: none; stroke: #000000; stroke-width: 0.8; stroke-linejoin: miter; stroke-linecap: square"/>
   </g>
   <g id="patch_5">
    <path d="M 10.8 764.486395 
L 675.772791 764.486395 
" style="fill: none; stroke: #000000; stroke-width: 0.8; stroke-linejoin: miter; stroke-linecap: square"/>
   </g>
   <g id="patch_6">
    <path d="M 10.8 99.513605 
L 675.772791 99.513605 
" style="fill: none; stroke: #000000; stroke-width: 0.8; stroke-linejoin: miter; stroke-linecap: square"/>
   </g>
   <g id="text_1">
    <!-- Year: 1857 -->
    <g transform="translate(17.449728 126.918828) scale(0.3 -0.3)">
     <defs>
      <path id="CMR17-59" d="M 3706 3766 
C 3955 4160 4301 4160 4416 4160 
L 4416 4332 
C 4269 4319 4102 4319 3942 4319 
C 3782 4319 3526 4319 3373 4332 
L 3373 4160 
C 3533 4160 3616 4077 3616 3957 
C 3616 3881 3584 3830 3533 3747 
L 2381 1912 
L 1120 3912 
C 1075 3988 1069 3994 1069 4039 
C 1069 4160 1293 4160 1382 4160 
L 1382 4319 
C 1178 4319 864 4319 653 4319 
C 486 4319 166 4319 13 4332 
L 13 4160 
C 378 4160 480 4141 595 3958 
L 2010 1728 
L 2010 445 
C 2010 160 1939 160 1498 160 
L 1498 0 
C 1683 0 2016 0 2214 0 
C 2413 0 2752 0 2938 0 
L 2938 160 
C 2477 160 2419 160 2419 471 
L 2419 1728 
L 3706 3766 
z
" transform="scale(0.015625)"/>
      <path id="CMR17-65" d="M 2438 1472 
C 2464 1498 2464 1511 2464 1576 
C 2464 2238 2118 2816 1389 2816 
C 710 2816 173 2169 173 1383 
C 173 551 781 -64 1459 -64 
C 2176 -64 2458 607 2458 740 
C 2458 784 2419 784 2406 784 
C 2362 784 2355 771 2330 696 
C 2189 265 1837 51 1504 51 
C 1229 51 954 203 781 480 
C 582 803 582 1176 582 1472 
L 2438 1472 
z
M 589 1568 
C 634 2505 1126 2714 1382 2714 
C 1818 2714 2112 2297 2118 1568 
L 589 1568 
z
" transform="scale(0.015625)"/>
      <path id="CMR17-61" d="M 2304 1653 
C 2304 2072 2304 2294 2035 2543 
C 1798 2752 1523 2816 1306 2816 
C 800 2816 435 2407 435 1971 
C 435 1728 627 1728 666 1728 
C 749 1728 896 1778 896 1954 
C 896 2112 774 2181 666 2181 
C 640 2181 608 2174 589 2168 
C 723 2592 1069 2714 1293 2714 
C 1613 2714 1965 2429 1965 1885 
L 1965 1600 
C 1587 1600 1133 1549 774 1357 
C 371 1133 256 813 256 570 
C 256 77 832 -64 1171 -64 
C 1523 -64 1850 139 1990 511 
C 2003 233 2182 -18 2464 -18 
C 2598 -18 2938 70 2938 567 
L 2938 920 
L 2822 920 
L 2822 562 
C 2822 178 2650 128 2566 128 
C 2304 128 2304 458 2304 738 
L 2304 1653 
z
M 1965 870 
C 1965 317 1568 38 1216 38 
C 896 38 646 275 646 570 
C 646 761 730 1100 1101 1305 
C 1408 1478 1760 1504 1965 1504 
L 1965 870 
z
" transform="scale(0.015625)"/>
      <path id="CMR17-72" d="M 960 1497 
C 960 2112 1222 2688 1702 2688 
C 1747 2688 1792 2682 1837 2662 
C 1837 2662 1696 2617 1696 2452 
C 1696 2298 1818 2234 1914 2234 
C 1990 2234 2131 2279 2131 2458 
C 2131 2663 1926 2790 1709 2790 
C 1222 2790 1011 2317 947 2093 
L 941 2093 
L 941 2790 
L 198 2720 
L 198 2554 
C 576 2554 634 2515 634 2208 
L 634 428 
C 634 184 608 153 198 153 
L 198 -13 
C 352 0 646 0 813 0 
C 998 0 1325 0 1498 -13 
L 1498 153 
C 1037 153 960 153 960 440 
L 960 1497 
z
" transform="scale(0.015625)"/>
      <path id="CMR17-3a" d="M 1062 2491 
C 1062 2650 934 2752 800 2752 
C 672 2752 538 2650 538 2491 
C 538 2332 666 2230 800 2230 
C 928 2230 1062 2332 1062 2491 
z
M 1062 261 
C 1062 420 934 522 800 522 
C 672 522 538 420 538 261 
C 538 102 666 0 800 0 
C 928 0 1062 102 1062 261 
z
" transform="scale(0.015625)"/>
      <path id="CMR17-31" d="M 1702 4058 
C 1702 4192 1696 4192 1606 4192 
C 1357 3916 979 3827 621 3827 
C 602 3827 570 3827 563 3808 
C 557 3795 557 3782 557 3648 
C 755 3648 1088 3686 1344 3839 
L 1344 461 
C 1344 236 1331 160 781 160 
L 589 160 
L 589 0 
C 896 0 1216 0 1523 0 
C 1830 0 2150 0 2458 0 
L 2458 160 
L 2266 160 
C 1715 160 1702 230 1702 458 
L 1702 4058 
z
" transform="scale(0.015625)"/>
      <path id="CMR17-38" d="M 1741 2264 
C 2144 2467 2554 2773 2554 3263 
C 2554 3841 1990 4179 1472 4179 
C 890 4179 378 3759 378 3180 
C 378 3021 416 2747 666 2505 
C 730 2442 998 2251 1171 2130 
C 883 1983 211 1634 211 934 
C 211 279 838 -128 1459 -128 
C 2144 -128 2720 362 2720 1010 
C 2720 1590 2330 1857 2074 2029 
L 1741 2264 
z
M 902 2822 
C 851 2854 595 3051 595 3351 
C 595 3739 998 4032 1459 4032 
C 1965 4032 2336 3676 2336 3262 
C 2336 2669 1670 2331 1638 2331 
C 1632 2331 1626 2331 1574 2370 
L 902 2822 
z
M 2080 1519 
C 2176 1449 2483 1240 2483 851 
C 2483 381 2010 25 1472 25 
C 890 25 448 438 448 940 
C 448 1443 838 1862 1280 2060 
L 2080 1519 
z
" transform="scale(0.015625)"/>
      <path id="CMR17-35" d="M 730 3692 
C 794 3666 1056 3584 1325 3584 
C 1920 3584 2246 3911 2432 4100 
C 2432 4157 2432 4192 2394 4192 
C 2387 4192 2374 4192 2323 4163 
C 2099 4058 1837 3973 1517 3973 
C 1325 3973 1037 3999 723 4139 
C 653 4171 640 4171 634 4171 
C 602 4171 595 4164 595 4037 
L 595 2203 
C 595 2089 595 2057 659 2057 
C 691 2057 704 2070 736 2114 
C 941 2401 1222 2522 1542 2522 
C 1766 2522 2246 2382 2246 1289 
C 2246 1085 2246 715 2054 421 
C 1894 159 1645 25 1370 25 
C 947 25 518 320 403 814 
C 429 807 480 795 506 795 
C 589 795 749 840 749 1038 
C 749 1210 627 1280 506 1280 
C 358 1280 262 1190 262 1011 
C 262 454 704 -128 1382 -128 
C 2042 -128 2669 440 2669 1264 
C 2669 2030 2170 2624 1549 2624 
C 1222 2624 947 2503 730 2274 
L 730 3692 
z
" transform="scale(0.015625)"/>
      <path id="CMR17-37" d="M 2886 3941 
L 2886 4081 
L 1382 4081 
C 634 4081 621 4165 595 4288 
L 480 4288 
L 294 3094 
L 410 3094 
C 429 3215 474 3540 550 3661 
C 589 3712 1062 3712 1171 3712 
L 2579 3712 
L 1869 2661 
C 1395 1954 1069 999 1069 165 
C 1069 89 1069 -128 1299 -128 
C 1530 -128 1530 89 1530 171 
L 1530 465 
C 1530 1508 1709 2196 2003 2636 
L 2886 3941 
z
" transform="scale(0.015625)"/>
     </defs>
     <use xlink:href="#CMR17-59" transform="scale(0.996264)"/>
     <use xlink:href="#CMR17-65" transform="translate(61.265174 0) scale(0.996264)"/>
     <use xlink:href="#CMR17-61" transform="translate(101.750835 0) scale(0.996264)"/>
     <use xlink:href="#CMR17-72" transform="translate(147.441312 0) scale(0.996264)"/>
     <use xlink:href="#CMR17-3a" transform="translate(182.72208 0) scale(0.996264)"/>
     <use xlink:href="#CMR17-31" transform="translate(248.078799 0) scale(0.996264)"/>
     <use xlink:href="#CMR17-38" transform="translate(293.769276 0) scale(0.996264)"/>
     <use xlink:href="#CMR17-35" transform="translate(339.459753 0) scale(0.996264)"/>
     <use xlink:href="#CMR17-37" transform="translate(385.15023 0) scale(0.996264)"/>
    </g>
   </g>
  </g>
  <g id="axes_2">
   <g id="patch_7">
    <path d="M 717.33359 853.2 
L 759.45359 853.2 
L 759.45359 10.8 
L 717.33359 10.8 
z
" style="fill: #ffffff"/>
   </g>
   <g id="QuadMesh_1">
    <path d="M 717.33359 853.2 
L 759.45359 853.2 
L 759.45359 747.9 
L 717.33359 747.9 
L 717.33359 853.2 
" clip-path="url(#p4975fe2c80)" style="fill: #ad35ca"/>
    <path d="M 717.33359 747.9 
L 759.45359 747.9 
L 759.45359 642.6 
L 717.33359 642.6 
L 717.33359 747.9 
" clip-path="url(#p4975fe2c80)" style="fill: #8f81b5"/>
    <path d="M 717.33359 642.6 
L 759.45359 642.6 
L 759.45359 537.3 
L 717.33359 537.3 
L 717.33359 642.6 
" clip-path="url(#p4975fe2c80)" style="fill: #879dba"/>
    <path d="M 717.33359 537.3 
L 759.45359 537.3 
L 759.45359 432 
L 717.33359 432 
L 717.33359 537.3 
" clip-path="url(#p4975fe2c80)" style="fill: #7bb4be"/>
    <path d="M 717.33359 432 
L 759.45359 432 
L 759.45359 326.7 
L 717.33359 326.7 
L 717.33359 432 
" clip-path="url(#p4975fe2c80)" style="fill: #79c6b7"/>
    <path d="M 717.33359 326.7 
L 759.45359 326.7 
L 759.45359 221.4 
L 717.33359 221.4 
L 717.33359 326.7 
" clip-path="url(#p4975fe2c80)" style="fill: #a1ccad"/>
    <path d="M 717.33359 221.4 
L 759.45359 221.4 
L 759.45359 116.1 
L 717.33359 116.1 
L 717.33359 221.4 
" clip-path="url(#p4975fe2c80)" style="fill: #c1d59b"/>
    <path d="M 717.33359 116.1 
L 759.45359 116.1 
L 759.45359 10.8 
L 717.33359 10.8 
L 717.33359 116.1 
" clip-path="url(#p4975fe2c80)" style="fill: #e4dc96"/>
   </g>
   <g id="matplotlib.axis_3"/>
   <g id="matplotlib.axis_4">
    <g id="ytick_7">
     <g id="line2d_1">
      <defs>
       <path id="m8e4b70d084" d="M 0 0 
L 3.5 0 
" style="stroke: #000000; stroke-width: 0.8"/>
      </defs>
      <g>
       <use xlink:href="#m8e4b70d084" x="759.45359" y="800.55" style="stroke: #000000; stroke-width: 0.8"/>
      </g>
     </g>
     <g id="text_2">
      <!-- 0 -->
      <g transform="translate(766.45359 811.619603) scale(0.32 -0.32)">
       <defs>
        <path id="CMR17-30" d="M 2688 2025 
C 2688 2416 2682 3080 2413 3591 
C 2176 4039 1798 4198 1466 4198 
C 1158 4198 768 4058 525 3597 
C 269 3118 243 2524 243 2025 
C 243 1661 250 1106 448 619 
C 723 -39 1216 -128 1466 -128 
C 1760 -128 2208 -7 2470 600 
C 2662 1042 2688 1559 2688 2025 
z
M 1466 -26 
C 1056 -26 813 325 723 812 
C 653 1188 653 1738 653 2096 
C 653 2588 653 2997 736 3387 
C 858 3929 1216 4096 1466 4096 
C 1728 4096 2067 3923 2189 3400 
C 2272 3036 2278 2607 2278 2096 
C 2278 1680 2278 1169 2202 792 
C 2067 95 1690 -26 1466 -26 
z
" transform="scale(0.015625)"/>
       </defs>
       <use xlink:href="#CMR17-30" transform="scale(0.996264)"/>
      </g>
     </g>
    </g>
    <g id="ytick_8">
     <g id="line2d_2">
      <g>
       <use xlink:href="#m8e4b70d084" x="759.45359" y="695.25" style="stroke: #000000; stroke-width: 0.8"/>
      </g>
     </g>
     <g id="text_3">
      <!-- 1 -->
      <g transform="translate(766.45359 706.319603) scale(0.32 -0.32)">
       <use xlink:href="#CMR17-31" transform="scale(0.996264)"/>
      </g>
     </g>
    </g>
    <g id="ytick_9">
     <g id="line2d_3">
      <g>
       <use xlink:href="#m8e4b70d084" x="759.45359" y="589.95" style="stroke: #000000; stroke-width: 0.8"/>
      </g>
     </g>
     <g id="text_4">
      <!-- 2 -->
      <g transform="translate(766.45359 601.019603) scale(0.32 -0.32)">
       <defs>
        <path id="CMR17-32" d="M 2669 989 
L 2554 989 
C 2490 536 2438 459 2413 420 
C 2381 369 1920 369 1830 369 
L 602 369 
C 832 619 1280 1072 1824 1597 
C 2214 1967 2669 2402 2669 3035 
C 2669 3790 2067 4224 1395 4224 
C 691 4224 262 3604 262 3030 
C 262 2780 448 2748 525 2748 
C 589 2748 781 2787 781 3010 
C 781 3207 614 3264 525 3264 
C 486 3264 448 3258 422 3245 
C 544 3790 915 4058 1306 4058 
C 1862 4058 2227 3617 2227 3035 
C 2227 2479 1901 2000 1536 1584 
L 262 146 
L 262 0 
L 2515 0 
L 2669 989 
z
" transform="scale(0.015625)"/>
       </defs>
       <use xlink:href="#CMR17-32" transform="scale(0.996264)"/>
      </g>
     </g>
    </g>
    <g id="ytick_10">
     <g id="line2d_4">
      <g>
       <use xlink:href="#m8e4b70d084" x="759.45359" y="484.65" style="stroke: #000000; stroke-width: 0.8"/>
      </g>
     </g>
     <g id="text_5">
      <!-- 3 -->
      <g transform="translate(766.45359 495.719603) scale(0.32 -0.32)">
       <defs>
        <path id="CMR17-33" d="M 1414 2157 
C 1984 2157 2234 1662 2234 1090 
C 2234 320 1824 25 1453 25 
C 1114 25 563 194 390 693 
C 422 680 454 680 486 680 
C 640 680 755 782 755 948 
C 755 1133 614 1216 486 1216 
C 378 1216 211 1165 211 926 
C 211 335 787 -128 1466 -128 
C 2176 -128 2720 430 2720 1085 
C 2720 1707 2208 2157 1600 2227 
C 2086 2328 2554 2756 2554 3329 
C 2554 3820 2048 4179 1472 4179 
C 890 4179 378 3829 378 3329 
C 378 3110 544 3072 627 3072 
C 762 3072 877 3155 877 3321 
C 877 3486 762 3569 627 3569 
C 602 3569 570 3569 544 3557 
C 730 3959 1235 4032 1459 4032 
C 1683 4032 2106 3925 2106 3320 
C 2106 3143 2080 2828 1862 2550 
C 1670 2304 1453 2304 1242 2284 
C 1210 2284 1062 2269 1037 2269 
C 992 2263 966 2257 966 2208 
C 966 2163 973 2157 1101 2157 
L 1414 2157 
z
" transform="scale(0.015625)"/>
       </defs>
       <use xlink:href="#CMR17-33" transform="scale(0.996264)"/>
      </g>
     </g>
    </g>
    <g id="ytick_11">
     <g id="line2d_5">
      <g>
       <use xlink:href="#m8e4b70d084" x="759.45359" y="379.35" style="stroke: #000000; stroke-width: 0.8"/>
      </g>
     </g>
     <g id="text_6">
      <!-- 4 -->
      <g transform="translate(766.45359 390.419603) scale(0.32 -0.32)">
       <defs>
        <path id="CMR17-34" d="M 2150 4122 
C 2150 4256 2144 4256 2029 4256 
L 128 1254 
L 128 1088 
L 1779 1088 
L 1779 457 
C 1779 224 1766 160 1318 160 
L 1197 160 
L 1197 0 
C 1402 0 1747 0 1965 0 
C 2182 0 2528 0 2733 0 
L 2733 160 
L 2611 160 
C 2163 160 2150 224 2150 457 
L 2150 1088 
L 2803 1088 
L 2803 1254 
L 2150 1254 
L 2150 4122 
z
M 1798 3703 
L 1798 1254 
L 256 1254 
L 1798 3703 
z
" transform="scale(0.015625)"/>
       </defs>
       <use xlink:href="#CMR17-34" transform="scale(0.996264)"/>
      </g>
     </g>
    </g>
    <g id="ytick_12">
     <g id="line2d_6">
      <g>
       <use xlink:href="#m8e4b70d084" x="759.45359" y="274.05" style="stroke: #000000; stroke-width: 0.8"/>
      </g>
     </g>
     <g id="text_7">
      <!-- 5 -->
      <g transform="translate(766.45359 285.119603) scale(0.32 -0.32)">
       <use xlink:href="#CMR17-35" transform="scale(0.996264)"/>
      </g>
     </g>
    </g>
    <g id="ytick_13">
     <g id="line2d_7">
      <g>
       <use xlink:href="#m8e4b70d084" x="759.45359" y="168.75" style="stroke: #000000; stroke-width: 0.8"/>
      </g>
     </g>
     <g id="text_8">
      <!-- 6 -->
      <g transform="translate(766.45359 179.819603) scale(0.32 -0.32)">
       <defs>
        <path id="CMR17-36" d="M 678 2176 
C 678 3690 1395 4032 1811 4032 
C 1946 4032 2272 4009 2400 3776 
C 2298 3776 2106 3776 2106 3553 
C 2106 3381 2246 3323 2336 3323 
C 2394 3323 2566 3348 2566 3560 
C 2566 3954 2246 4179 1805 4179 
C 1043 4179 243 3390 243 1984 
C 243 253 966 -128 1478 -128 
C 2099 -128 2688 427 2688 1283 
C 2688 2081 2170 2662 1517 2662 
C 1126 2662 838 2407 678 1960 
L 678 2176 
z
M 1478 25 
C 691 25 691 1200 691 1436 
C 691 1896 909 2560 1504 2560 
C 1613 2560 1926 2560 2138 2120 
C 2253 1870 2253 1609 2253 1289 
C 2253 944 2253 690 2118 434 
C 1978 171 1773 25 1478 25 
z
" transform="scale(0.015625)"/>
       </defs>
       <use xlink:href="#CMR17-36" transform="scale(0.996264)"/>
      </g>
     </g>
    </g>
    <g id="ytick_14">
     <g id="line2d_8">
      <g>
       <use xlink:href="#m8e4b70d084" x="759.45359" y="63.45" style="stroke: #000000; stroke-width: 0.8"/>
      </g>
     </g>
     <g id="text_9">
      <!-- 7 -->
      <g transform="translate(766.45359 74.519603) scale(0.32 -0.32)">
       <use xlink:href="#CMR17-37" transform="scale(0.996264)"/>
      </g>
     </g>
    </g>
    <g id="ytick_15">
     <g id="line2d_9">
      <defs>
       <path id="mc66d5ef3a6" d="M 0 0 
L 2 0 
" style="stroke: #000000; stroke-width: 0.6"/>
      </defs>
      <g>
       <use xlink:href="#mc66d5ef3a6" x="759.45359" y="853.2" style="stroke: #000000; stroke-width: 0.6"/>
      </g>
     </g>
    </g>
    <g id="ytick_16">
     <g id="line2d_10">
      <g>
       <use xlink:href="#mc66d5ef3a6" x="759.45359" y="747.9" style="stroke: #000000; stroke-width: 0.6"/>
      </g>
     </g>
    </g>
    <g id="ytick_17">
     <g id="line2d_11">
      <g>
       <use xlink:href="#mc66d5ef3a6" x="759.45359" y="642.6" style="stroke: #000000; stroke-width: 0.6"/>
      </g>
     </g>
    </g>
    <g id="ytick_18">
     <g id="line2d_12">
      <g>
       <use xlink:href="#mc66d5ef3a6" x="759.45359" y="537.3" style="stroke: #000000; stroke-width: 0.6"/>
      </g>
     </g>
    </g>
    <g id="ytick_19">
     <g id="line2d_13">
      <g>
       <use xlink:href="#mc66d5ef3a6" x="759.45359" y="432" style="stroke: #000000; stroke-width: 0.6"/>
      </g>
     </g>
    </g>
    <g id="ytick_20">
     <g id="line2d_14">
      <g>
       <use xlink:href="#mc66d5ef3a6" x="759.45359" y="326.7" style="stroke: #000000; stroke-width: 0.6"/>
      </g>
     </g>
    </g>
    <g id="ytick_21">
     <g id="line2d_15">
      <g>
       <use xlink:href="#mc66d5ef3a6" x="759.45359" y="221.4" style="stroke: #000000; stroke-width: 0.6"/>
      </g>
     </g>
    </g>
    <g id="ytick_22">
     <g id="line2d_16">
      <g>
       <use xlink:href="#mc66d5ef3a6" x="759.45359" y="116.1" style="stroke: #000000; stroke-width: 0.6"/>
      </g>
     </g>
    </g>
    <g id="ytick_23">
     <g id="line2d_17">
      <g>
       <use xlink:href="#mc66d5ef3a6" x="759.45359" y="10.8" style="stroke: #000000; stroke-width: 0.6"/>
      </g>
     </g>
    </g>
    <g id="text_10">
     <!-- Node Depth -->
     <g transform="translate(828.899641 543.95779) rotate(-90) scale(0.46 -0.46)">
      <defs>
       <path id="CMR17-4e" d="M 1312 4250 
C 1267 4320 1261 4320 1139 4320 
L 326 4320 
L 326 4160 
L 448 4160 
C 704 4160 819 4129 838 4122 
L 838 610 
C 838 451 838 153 326 153 
L 326 -13 
C 474 0 742 0 902 0 
C 1062 0 1331 0 1478 -13 
L 1478 153 
C 966 153 966 451 966 610 
L 966 4033 
C 1011 3995 1011 3982 1056 3919 
L 3430 76 
C 3475 0 3494 0 3526 0 
C 3590 0 3590 19 3590 139 
L 3590 3705 
C 3590 3863 3590 4160 4102 4160 
L 4102 4326 
C 3955 4320 3686 4320 3526 4320 
C 3366 4320 3098 4320 2950 4326 
L 2950 4160 
C 3462 4160 3462 3862 3462 3703 
L 3462 763 
L 1312 4250 
z
" transform="scale(0.015625)"/>
       <path id="CMR17-6f" d="M 2758 1356 
C 2758 2176 2163 2816 1466 2816 
C 768 2816 173 2176 173 1356 
C 173 551 768 -64 1466 -64 
C 2163 -64 2758 551 2758 1356 
z
M 1466 51 
C 1165 51 909 230 762 480 
C 602 767 582 1126 582 1408 
C 582 1677 595 2010 762 2298 
C 890 2509 1139 2714 1466 2714 
C 1754 2714 1997 2554 2150 2330 
C 2349 2029 2349 1607 2349 1408 
C 2349 1158 2336 775 2163 467 
C 1984 173 1709 51 1466 51 
z
" transform="scale(0.015625)"/>
       <path id="CMR17-64" d="M 1869 4326 
L 1869 4160 
C 2246 4160 2304 4122 2304 3820 
L 2304 2345 
C 2278 2377 2016 2790 1498 2790 
C 845 2790 211 2208 211 1364 
C 211 525 806 -64 1434 -64 
C 1978 -64 2259 337 2291 380 
L 2291 -63 
L 3066 -63 
L 3066 128 
C 2688 128 2630 166 2630 473 
L 2630 4396 
L 1869 4326 
z
M 2291 755 
C 2291 563 2176 390 2029 262 
C 1811 70 1594 38 1472 38 
C 1286 38 621 134 621 1356 
C 621 2612 1363 2688 1530 2688 
C 1824 2688 2061 2522 2208 2291 
C 2291 2157 2291 2138 2291 2023 
L 2291 755 
z
" transform="scale(0.015625)"/>
       <path id="CMR17-44" d="M 333 4352 
L 333 4186 
C 774 4186 845 4186 845 3900 
L 845 452 
C 845 166 774 166 333 166 
L 333 0 
L 2368 0 
C 3398 0 4224 943 4224 2141 
C 4224 3346 3411 4352 2368 4352 
L 333 4352 
z
M 1523 166 
C 1267 166 1254 197 1254 414 
L 1254 3938 
C 1254 4155 1267 4186 1523 4186 
L 2240 4186 
C 2771 4186 3750 3874 3750 2141 
C 3750 1242 3488 879 3366 707 
C 3213 510 2848 166 2240 166 
L 1523 166 
z
" transform="scale(0.015625)"/>
       <path id="CMR17-70" d="M 1408 -1063 
C 998 -1063 973 -1037 973 -789 
L 973 402 
C 1158 134 1427 -38 1766 -38 
C 2406 -38 3053 523 3053 1388 
C 3053 2191 2496 2802 1837 2802 
C 1453 2802 1139 2592 960 2338 
L 960 2802 
L 198 2732 
L 198 2567 
C 576 2567 634 2528 634 2223 
L 634 -789 
C 634 -1031 608 -1063 198 -1063 
L 198 -1228 
C 352 -1216 634 -1216 800 -1216 
C 966 -1216 1254 -1216 1408 -1228 
L 1408 -1063 
z
M 973 2012 
C 973 2102 973 2235 1222 2471 
C 1254 2497 1472 2688 1792 2688 
C 2259 2688 2643 2108 2643 1382 
C 2643 656 2234 64 1728 64 
C 1498 64 1248 172 1056 472 
C 973 612 973 650 973 752 
L 973 2012 
z
" transform="scale(0.015625)"/>
       <path id="CMR17-74" d="M 966 2560 
L 1862 2560 
L 1862 2725 
L 966 2725 
L 966 3904 
L 851 3904 
C 838 3245 614 2668 70 2668 
L 70 2560 
L 627 2560 
L 627 771 
C 627 650 627 -64 1370 -64 
C 1747 -64 1965 306 1965 777 
L 1965 1140 
L 1850 1140 
L 1850 783 
C 1850 344 1677 51 1408 51 
C 1222 51 966 178 966 758 
L 966 2560 
z
" transform="scale(0.015625)"/>
       <path id="CMR17-68" d="M 2656 1933 
C 2656 2259 2592 2790 1837 2790 
C 1312 2790 1056 2368 979 2157 
L 973 2157 
L 973 4396 
L 211 4326 
L 211 4160 
C 589 4160 646 4122 646 3817 
L 646 426 
C 646 184 621 153 211 153 
L 211 -13 
C 365 0 646 0 813 0 
C 979 0 1267 0 1421 -13 
L 1421 153 
C 1011 153 986 178 986 428 
L 986 1658 
C 986 2247 1344 2688 1792 2688 
C 2266 2688 2317 2266 2317 1958 
L 2317 428 
C 2317 184 2291 153 1882 153 
L 1882 -13 
C 2035 0 2317 0 2483 0 
C 2650 0 2938 0 3091 -13 
L 3091 153 
C 2682 153 2656 178 2656 428 
L 2656 1933 
z
" transform="scale(0.015625)"/>
      </defs>
      <use xlink:href="#CMR17-4e" transform="scale(0.996264)"/>
      <use xlink:href="#CMR17-6f" transform="translate(69.07243 0) scale(0.996264)"/>
      <use xlink:href="#CMR17-64" transform="translate(117.365346 0) scale(0.996264)"/>
      <use xlink:href="#CMR17-65" transform="translate(168.260715 0) scale(0.996264)"/>
      <use xlink:href="#CMR17-44" transform="translate(238.822342 0) scale(0.996264)"/>
      <use xlink:href="#CMR17-65" transform="translate(309.215898 0) scale(0.996264)"/>
      <use xlink:href="#CMR17-70" transform="translate(349.701559 0) scale(0.996264)"/>
      <use xlink:href="#CMR17-74" transform="translate(400.596928 0) scale(0.996264)"/>
      <use xlink:href="#CMR17-68" transform="translate(435.877696 0) scale(0.996264)"/>
     </g>
    </g>
   </g>
   <g id="LineCollection_2"/>
   <g id="patch_8">
    <path d="M 717.33359 853.2 
L 738.39359 853.2 
L 759.45359 853.2 
L 759.45359 10.8 
L 738.39359 10.8 
L 717.33359 10.8 
L 717.33359 853.2 
z
" style="fill: none; stroke: #000000; stroke-width: 0.8; stroke-linejoin: miter; stroke-linecap: square"/>
   </g>
  </g>
 </g>
 <defs>
  <clipPath id="pae4d42e002">
   <rect x="10.8" y="99.513605" width="664.972791" height="664.972791"/>
  </clipPath>
  <clipPath id="p4975fe2c80">
   <rect x="717.33359" y="10.8" width="42.12" height="842.4"/>
  </clipPath>
 </defs>
</svg>
