<?xml version="1.0" encoding="utf-8" standalone="no"?>
<!DOCTYPE svg PUBLIC "-//W3C//DTD SVG 1.1//EN"
  "http://www.w3.org/Graphics/SVG/1.1/DTD/svg11.dtd">
<svg xmlns:xlink="http://www.w3.org/1999/xlink" width="864pt" height="864pt" viewBox="0 0 864 864" xmlns="http://www.w3.org/2000/svg" version="1.1">
 <metadata>
  <rdf:RDF xmlns:dc="http://purl.org/dc/elements/1.1/" xmlns:cc="http://creativecommons.org/ns#" xmlns:rdf="http://www.w3.org/1999/02/22-rdf-syntax-ns#">
   <cc:Work>
    <dc:type rdf:resource="http://purl.org/dc/dcmitype/StillImage"/>
    <dc:date>2026-06-09T22:33:02.482084</dc:date>
    <dc:format>image/svg+xml</dc:format>
    <dc:creator>
     <cc:Agent>
      <dc:title>Matplotlib v3.9.2, https://matplotlib.org/</dc:title>
     </cc:Agent>
    </dc:creator>
   </cc:Work>
  </rdf:RDF>
 </metadata>
 <defs>
  <style type="text/css">*{stroke-linejoin: round; stroke-linecap: butt}</style>
 </defs>
 <g id="figure_1">
  <g id="patch_1">
   <path d="M 0 864 
L 864 864 
L 864 0 
L 0 0 
z
" style="fill: #ffffff"/>
  </g>
  <g id="axes_1">
   <g id="patch_2">
    <path d="M 10.8 764.486395 
L 675.772791 764.486395 
L 675.772791 99.513605 
L 10.8 99.513605 
z
" style="fill: #ffffff"/>
   </g>
   <g id="LineCollection_1">
    <path d="M 343.454364 432 
L 219.51418 345.453932 
" clip-path="url(#p0fa3d26987)" style="fill: none; stroke: #808080; stroke-opacity: 0.3"/>
    <path d="M 343.454364 432 
L 414.904212 565.216277 
" clip-path="url(#p0fa3d26987)" style="fill: none; stroke: #808080; stroke-opacity: 0.3"/>
    <path d="M 343.454364 432 
L 478.312539 500.321423 
" clip-path="url(#p0fa3d26987)" style="fill: none; stroke: #808080; stroke-opacity: 0.3"/>
    <path d="M 219.51418 345.453932 
L 645.46277 417.827609 
" clip-path="url(#p0fa3d26987)" style="fill: none; stroke: #808080; stroke-opacity: 0.3"/>
    <path d="M 219.51418 345.453932 
L 642.817257 389.608803 
" clip-path="url(#p0fa3d26987)" style="fill: none; stroke: #808080; stroke-opacity: 0.3"/>
    <path d="M 219.51418 345.453932 
L 637.526231 361.767928 
" clip-path="url(#p0fa3d26987)" style="fill: none; stroke: #808080; stroke-opacity: 0.3"/>
    <path d="M 219.51418 345.453932 
L 629.652681 334.535941 
" clip-path="url(#p0fa3d26987)" style="fill: none; stroke: #808080; stroke-opacity: 0.3"/>
    <path d="M 219.51418 345.453932 
L 619.28059 308.164796 
" clip-path="url(#p0fa3d26987)" style="fill: none; stroke: #808080; stroke-opacity: 0.3"/>
    <path d="M 219.51418 345.453932 
L 606.472948 282.885449 
" clip-path="url(#p0fa3d26987)" style="fill: none; stroke: #808080; stroke-opacity: 0.3"/>
    <path d="M 219.51418 345.453932 
L 591.35573 258.907863 
" clip-path="url(#p0fa3d26987)" style="fill: none; stroke: #808080; stroke-opacity: 0.3"/>
    <path d="M 219.51418 345.453932 
L 574.054915 236.441999 
" clip-path="url(#p0fa3d26987)" style="fill: none; stroke: #808080; stroke-opacity: 0.3"/>
    <path d="M 219.51418 345.453932 
L 554.717475 215.718813 
" clip-path="url(#p0fa3d26987)" style="fill: none; stroke: #808080; stroke-opacity: 0.3"/>
    <path d="M 219.51418 345.453932 
L 533.532375 196.88528 
" clip-path="url(#p0fa3d26987)" style="fill: none; stroke: #808080; stroke-opacity: 0.3"/>
    <path d="M 219.51418 345.453932 
L 510.68858 180.109368 
" clip-path="url(#p0fa3d26987)" style="fill: none; stroke: #808080; stroke-opacity: 0.3"/>
    <path d="M 219.51418 345.453932 
L 486.375055 165.559047 
" clip-path="url(#p0fa3d26987)" style="fill: none; stroke: #808080; stroke-opacity: 0.3"/>
    <path d="M 219.51418 345.453932 
L 460.780767 153.360292 
" clip-path="url(#p0fa3d26987)" style="fill: none; stroke: #808080; stroke-opacity: 0.3"/>
    <path d="M 219.51418 345.453932 
L 434.178664 143.59709 
" clip-path="url(#p0fa3d26987)" style="fill: none; stroke: #808080; stroke-opacity: 0.3"/>
    <path d="M 219.51418 345.453932 
L 406.778708 136.353423 
" clip-path="url(#p0fa3d26987)" style="fill: none; stroke: #808080; stroke-opacity: 0.3"/>
    <path d="M 219.51418 345.453932 
L 378.811856 131.734273 
" clip-path="url(#p0fa3d26987)" style="fill: none; stroke: #808080; stroke-opacity: 0.3"/>
    <path d="M 219.51418 345.453932 
L 350.551058 129.739641 
" clip-path="url(#p0fa3d26987)" style="fill: none; stroke: #808080; stroke-opacity: 0.3"/>
    <path d="M 219.51418 345.453932 
L 322.206276 130.411517 
" clip-path="url(#p0fa3d26987)" style="fill: none; stroke: #808080; stroke-opacity: 0.3"/>
    <path d="M 219.51418 345.453932 
L 294.050459 133.70791 
" clip-path="url(#p0fa3d26987)" style="fill: none; stroke: #808080; stroke-opacity: 0.3"/>
    <path d="M 219.51418 345.453932 
L 266.335561 139.649816 
" clip-path="url(#p0fa3d26987)" style="fill: none; stroke: #808080; stroke-opacity: 0.3"/>
    <path d="M 219.51418 345.453932 
L 239.313535 148.153251 
" clip-path="url(#p0fa3d26987)" style="fill: none; stroke: #808080; stroke-opacity: 0.3"/>
    <path d="M 219.51418 345.453932 
L 213.194343 159.155226 
" clip-path="url(#p0fa3d26987)" style="fill: none; stroke: #808080; stroke-opacity: 0.3"/>
    <path d="M 219.51418 345.453932 
L 188.208942 172.55076 
" clip-path="url(#p0fa3d26987)" style="fill: none; stroke: #808080; stroke-opacity: 0.3"/>
    <path d="M 219.51418 345.453932 
L 164.58829 188.234873 
" clip-path="url(#p0fa3d26987)" style="fill: none; stroke: #808080; stroke-opacity: 0.3"/>
    <path d="M 219.51418 345.453932 
L 142.563345 206.060591 
" clip-path="url(#p0fa3d26987)" style="fill: none; stroke: #808080; stroke-opacity: 0.3"/>
    <path d="M 219.51418 345.453932 
L 122.281078 225.859947 
" clip-path="url(#p0fa3d26987)" style="fill: none; stroke: #808080; stroke-opacity: 0.3"/>
    <path d="M 219.51418 345.453932 
L 103.951453 247.46497 
" clip-path="url(#p0fa3d26987)" style="fill: none; stroke: #808080; stroke-opacity: 0.3"/>
    <path d="M 219.51418 345.453932 
L 87.72144 270.707691 
" clip-path="url(#p0fa3d26987)" style="fill: none; stroke: #808080; stroke-opacity: 0.3"/>
    <path d="M 219.51418 345.453932 
L 73.738014 295.37815 
" clip-path="url(#p0fa3d26987)" style="fill: none; stroke: #808080; stroke-opacity: 0.3"/>
    <path d="M 219.51418 345.453932 
L 62.127152 321.224392 
" clip-path="url(#p0fa3d26987)" style="fill: none; stroke: #808080; stroke-opacity: 0.3"/>
    <path d="M 219.51418 345.453932 
L 52.993833 348.057452 
" clip-path="url(#p0fa3d26987)" style="fill: none; stroke: #808080; stroke-opacity: 0.3"/>
    <path d="M 219.51418 345.453932 
L 46.422043 375.625378 
" clip-path="url(#p0fa3d26987)" style="fill: none; stroke: #808080; stroke-opacity: 0.3"/>
    <path d="M 219.51418 345.453932 
L 42.432777 403.69721 
" clip-path="url(#p0fa3d26987)" style="fill: none; stroke: #808080; stroke-opacity: 0.3"/>
    <path d="M 219.51418 345.453932 
L 41.11002 432 
" clip-path="url(#p0fa3d26987)" style="fill: none; stroke: #808080; stroke-opacity: 0.3"/>
    <path d="M 219.51418 345.453932 
L 42.432777 460.30279 
" clip-path="url(#p0fa3d26987)" style="fill: none; stroke: #808080; stroke-opacity: 0.3"/>
    <path d="M 219.51418 345.453932 
L 46.422043 488.374622 
" clip-path="url(#p0fa3d26987)" style="fill: none; stroke: #808080; stroke-opacity: 0.3"/>
    <path d="M 219.51418 345.453932 
L 52.993833 515.942548 
" clip-path="url(#p0fa3d26987)" style="fill: none; stroke: #808080; stroke-opacity: 0.3"/>
    <path d="M 219.51418 345.453932 
L 62.127152 542.775608 
" clip-path="url(#p0fa3d26987)" style="fill: none; stroke: #808080; stroke-opacity: 0.3"/>
    <path d="M 219.51418 345.453932 
L 73.738014 568.628149 
" clip-path="url(#p0fa3d26987)" style="fill: none; stroke: #808080; stroke-opacity: 0.3"/>
    <path d="M 219.51418 345.453932 
L 87.72144 593.283911 
" clip-path="url(#p0fa3d26987)" style="fill: none; stroke: #808080; stroke-opacity: 0.3"/>
    <path d="M 219.51418 345.453932 
L 103.951453 616.522433 
" clip-path="url(#p0fa3d26987)" style="fill: none; stroke: #808080; stroke-opacity: 0.3"/>
    <path d="M 219.51418 345.453932 
L 122.281078 638.140053 
" clip-path="url(#p0fa3d26987)" style="fill: none; stroke: #808080; stroke-opacity: 0.3"/>
    <path d="M 219.51418 345.453932 
L 142.563345 657.945708 
" clip-path="url(#p0fa3d26987)" style="fill: none; stroke: #808080; stroke-opacity: 0.3"/>
    <path d="M 219.51418 345.453932 
L 164.58829 675.765127 
" clip-path="url(#p0fa3d26987)" style="fill: none; stroke: #808080; stroke-opacity: 0.3"/>
    <path d="M 219.51418 345.453932 
L 188.208942 691.442941 
" clip-path="url(#p0fa3d26987)" style="fill: none; stroke: #808080; stroke-opacity: 0.3"/>
    <path d="M 219.51418 345.453932 
L 213.194343 704.840575 
" clip-path="url(#p0fa3d26987)" style="fill: none; stroke: #808080; stroke-opacity: 0.3"/>
    <path d="M 219.51418 345.453932 
L 239.313535 715.84045 
" clip-path="url(#p0fa3d26987)" style="fill: none; stroke: #808080; stroke-opacity: 0.3"/>
    <path d="M 219.51418 345.453932 
L 266.335561 724.343885 
" clip-path="url(#p0fa3d26987)" style="fill: none; stroke: #808080; stroke-opacity: 0.3"/>
    <path d="M 219.51418 345.453932 
L 294.050459 730.281592 
" clip-path="url(#p0fa3d26987)" style="fill: none; stroke: #808080; stroke-opacity: 0.3"/>
    <path d="M 219.51418 345.453932 
L 322.206276 733.596882 
" clip-path="url(#p0fa3d26987)" style="fill: none; stroke: #808080; stroke-opacity: 0.3"/>
    <path d="M 219.51418 345.453932 
L 350.551058 734.260359 
" clip-path="url(#p0fa3d26987)" style="fill: none; stroke: #808080; stroke-opacity: 0.3"/>
    <path d="M 219.51418 345.453932 
L 378.811856 732.267826 
" clip-path="url(#p0fa3d26987)" style="fill: none; stroke: #808080; stroke-opacity: 0.3"/>
    <path d="M 219.51418 345.453932 
L 406.778708 727.638178 
" clip-path="url(#p0fa3d26987)" style="fill: none; stroke: #808080; stroke-opacity: 0.3"/>
    <path d="M 219.51418 345.453932 
L 434.178664 720.409209 
" clip-path="url(#p0fa3d26987)" style="fill: none; stroke: #808080; stroke-opacity: 0.3"/>
    <path d="M 414.904212 565.216277 
L 460.780767 710.646006 
" clip-path="url(#p0fa3d26987)" style="fill: none; stroke: #808080; stroke-opacity: 0.3"/>
    <path d="M 414.904212 565.216277 
L 486.375055 698.434654 
" clip-path="url(#p0fa3d26987)" style="fill: none; stroke: #808080; stroke-opacity: 0.3"/>
    <path d="M 414.904212 565.216277 
L 510.68858 683.880133 
" clip-path="url(#p0fa3d26987)" style="fill: none; stroke: #808080; stroke-opacity: 0.3"/>
    <path d="M 478.312539 500.321423 
L 533.532375 667.11262 
" clip-path="url(#p0fa3d26987)" style="fill: none; stroke: #808080; stroke-opacity: 0.3"/>
    <path d="M 478.312539 500.321423 
L 554.717475 648.281187 
" clip-path="url(#p0fa3d26987)" style="fill: none; stroke: #808080; stroke-opacity: 0.3"/>
    <path d="M 478.312539 500.321423 
L 574.054915 627.545404 
" clip-path="url(#p0fa3d26987)" style="fill: none; stroke: #808080; stroke-opacity: 0.3"/>
    <path d="M 478.312539 500.321423 
L 591.35573 605.094237 
" clip-path="url(#p0fa3d26987)" style="fill: none; stroke: #808080; stroke-opacity: 0.3"/>
    <path d="M 478.312539 500.321423 
L 606.472948 581.12085 
" clip-path="url(#p0fa3d26987)" style="fill: none; stroke: #808080; stroke-opacity: 0.3"/>
    <path d="M 478.312539 500.321423 
L 619.28059 555.835204 
" clip-path="url(#p0fa3d26987)" style="fill: none; stroke: #808080; stroke-opacity: 0.3"/>
    <path d="M 478.312539 500.321423 
L 629.652681 529.464059 
" clip-path="url(#p0fa3d26987)" style="fill: none; stroke: #808080; stroke-opacity: 0.3"/>
    <path d="M 478.312539 500.321423 
L 637.526231 502.232072 
" clip-path="url(#p0fa3d26987)" style="fill: none; stroke: #808080; stroke-opacity: 0.3"/>
    <path d="M 478.312539 500.321423 
L 642.817257 474.391197 
" clip-path="url(#p0fa3d26987)" style="fill: none; stroke: #808080; stroke-opacity: 0.3"/>
    <path d="M 478.312539 500.321423 
L 645.46277 446.172391 
" clip-path="url(#p0fa3d26987)" style="fill: none; stroke: #808080; stroke-opacity: 0.3"/>
   </g>
   <g id="matplotlib.axis_1">
    <g id="xtick_1"/>
    <g id="xtick_2"/>
    <g id="xtick_3"/>
    <g id="xtick_4"/>
    <g id="xtick_5"/>
    <g id="xtick_6"/>
   </g>
   <g id="matplotlib.axis_2">
    <g id="ytick_1"/>
    <g id="ytick_2"/>
    <g id="ytick_3"/>
    <g id="ytick_4"/>
    <g id="ytick_5"/>
    <g id="ytick_6"/>
   </g>
   <g id="PathCollection_1">
    <path d="M 343.454364 443.18034 
C 346.419425 443.18034 349.263444 442.002309 351.360059 439.905694 
C 353.456673 437.80908 354.634704 434.965061 354.634704 432 
C 354.634704 429.034939 353.456673 426.19092 351.360059 424.094306 
C 349.263444 421.997691 346.419425 420.81966 343.454364 420.81966 
C 340.489304 420.81966 337.645285 421.997691 335.54867 424.094306 
C 333.452056 426.19092 332.274025 429.034939 332.274025 432 
C 332.274025 434.965061 333.452056 437.80908 335.54867 439.905694 
C 337.645285 442.002309 340.489304 443.18034 343.454364 443.18034 
z
" clip-path="url(#p0fa3d26987)" style="fill: #ad35ca; stroke: #ad35ca"/>
    <path d="M 219.51418 352.524999 
C 221.389449 352.524999 223.188164 351.779947 224.51418 350.453932 
C 225.840195 349.127916 226.585247 347.329201 226.585247 345.453932 
C 226.585247 343.578662 225.840195 341.779947 224.51418 340.453932 
C 223.188164 339.127916 221.389449 338.382864 219.51418 338.382864 
C 217.63891 338.382864 215.840195 339.127916 214.51418 340.453932 
C 213.188164 341.779947 212.443112 343.578662 212.443112 345.453932 
C 212.443112 347.329201 213.188164 349.127916 214.51418 350.453932 
C 215.840195 351.779947 217.63891 352.524999 219.51418 352.524999 
z
" clip-path="url(#p0fa3d26987)" style="fill: #8f81b5; stroke: #8f81b5"/>
    <path d="M 645.46277 422.299745 
C 646.648795 422.299745 647.786402 421.828532 648.625048 420.989887 
C 649.463694 420.151241 649.934906 419.013633 649.934906 417.827609 
C 649.934906 416.641585 649.463694 415.503977 648.625048 414.665331 
C 647.786402 413.826685 646.648795 413.355473 645.46277 413.355473 
C 644.276746 413.355473 643.139138 413.826685 642.300493 414.665331 
C 641.461847 415.503977 640.990634 416.641585 640.990634 417.827609 
C 640.990634 419.013633 641.461847 420.151241 642.300493 420.989887 
C 643.139138 421.828532 644.276746 422.299745 645.46277 422.299745 
z
" clip-path="url(#p0fa3d26987)" style="fill: #879dba; stroke: #879dba"/>
    <path d="M 642.817257 394.080939 
C 644.003282 394.080939 645.140889 393.609727 645.979535 392.771081 
C 646.818181 391.932435 647.289393 390.794828 647.289393 389.608803 
C 647.289393 388.422779 646.818181 387.285172 645.979535 386.446526 
C 645.140889 385.60788 644.003282 385.136667 642.817257 385.136667 
C 641.631233 385.136667 640.493625 385.60788 639.65498 386.446526 
C 638.816334 387.285172 638.345121 388.422779 638.345121 389.608803 
C 638.345121 390.794828 638.816334 391.932435 639.65498 392.771081 
C 640.493625 393.609727 641.631233 394.080939 642.817257 394.080939 
z
" clip-path="url(#p0fa3d26987)" style="fill: #879dba; stroke: #879dba"/>
    <path d="M 637.526231 366.240064 
C 638.712255 366.240064 639.849863 365.768852 640.688509 364.930206 
C 641.527155 364.09156 641.998367 362.953953 641.998367 361.767928 
C 641.998367 360.581904 641.527155 359.444297 640.688509 358.605651 
C 639.849863 357.767005 638.712255 357.295792 637.526231 357.295792 
C 636.340207 357.295792 635.202599 357.767005 634.363954 358.605651 
C 633.525308 359.444297 633.054095 360.581904 633.054095 361.767928 
C 633.054095 362.953953 633.525308 364.09156 634.363954 364.930206 
C 635.202599 365.768852 636.340207 366.240064 637.526231 366.240064 
z
" clip-path="url(#p0fa3d26987)" style="fill: #879dba; stroke: #879dba"/>
    <path d="M 629.652681 339.008077 
C 630.838705 339.008077 631.976312 338.536865 632.814958 337.698219 
C 633.653604 336.859573 634.124817 335.721966 634.124817 334.535941 
C 634.124817 333.349917 633.653604 332.21231 632.814958 331.373664 
C 631.976312 330.535018 630.838705 330.063805 629.652681 330.063805 
C 628.466656 330.063805 627.329049 330.535018 626.490403 331.373664 
C 625.651757 332.21231 625.180545 333.349917 625.180545 334.535941 
C 625.180545 335.721966 625.651757 336.859573 626.490403 337.698219 
C 627.329049 338.536865 628.466656 339.008077 629.652681 339.008077 
z
" clip-path="url(#p0fa3d26987)" style="fill: #879dba; stroke: #879dba"/>
    <path d="M 619.28059 312.636932 
C 620.466614 312.636932 621.604222 312.165719 622.442868 311.327073 
C 623.281513 310.488428 623.752726 309.35082 623.752726 308.164796 
C 623.752726 306.978771 623.281513 305.841164 622.442868 305.002518 
C 621.604222 304.163872 620.466614 303.69266 619.28059 303.69266 
C 618.094566 303.69266 616.956958 304.163872 616.118312 305.002518 
C 615.279666 305.841164 614.808454 306.978771 614.808454 308.164796 
C 614.808454 309.35082 615.279666 310.488428 616.118312 311.327073 
C 616.956958 312.165719 618.094566 312.636932 619.28059 312.636932 
z
" clip-path="url(#p0fa3d26987)" style="fill: #879dba; stroke: #879dba"/>
    <path d="M 606.472948 287.357585 
C 607.658972 287.357585 608.796579 286.886373 609.635225 286.047727 
C 610.473871 285.209081 610.945083 284.071474 610.945083 282.885449 
C 610.945083 281.699425 610.473871 280.561817 609.635225 279.723172 
C 608.796579 278.884526 607.658972 278.413313 606.472948 278.413313 
C 605.286923 278.413313 604.149316 278.884526 603.31067 279.723172 
C 602.472024 280.561817 602.000812 281.699425 602.000812 282.885449 
C 602.000812 284.071474 602.472024 285.209081 603.31067 286.047727 
C 604.149316 286.886373 605.286923 287.357585 606.472948 287.357585 
z
" clip-path="url(#p0fa3d26987)" style="fill: #879dba; stroke: #879dba"/>
    <path d="M 591.35573 263.379999 
C 592.541755 263.379999 593.679362 262.908787 594.518008 262.070141 
C 595.356654 261.231495 595.827866 260.093887 595.827866 258.907863 
C 595.827866 257.721839 595.356654 256.584231 594.518008 255.745585 
C 593.679362 254.90694 592.541755 254.435727 591.35573 254.435727 
C 590.169706 254.435727 589.032098 254.90694 588.193453 255.745585 
C 587.354807 256.584231 586.883594 257.721839 586.883594 258.907863 
C 586.883594 260.093887 587.354807 261.231495 588.193453 262.070141 
C 589.032098 262.908787 590.169706 263.379999 591.35573 263.379999 
z
" clip-path="url(#p0fa3d26987)" style="fill: #879dba; stroke: #879dba"/>
    <path d="M 574.054915 240.914135 
C 575.240939 240.914135 576.378547 240.442922 577.217193 239.604276 
C 578.055839 238.76563 578.527051 237.628023 578.527051 236.441999 
C 578.527051 235.255974 578.055839 234.118367 577.217193 233.279721 
C 576.378547 232.441075 575.240939 231.969863 574.054915 231.969863 
C 572.868891 231.969863 571.731283 232.441075 570.892637 233.279721 
C 570.053992 234.118367 569.582779 235.255974 569.582779 236.441999 
C 569.582779 237.628023 570.053992 238.76563 570.892637 239.604276 
C 571.731283 240.442922 572.868891 240.914135 574.054915 240.914135 
z
" clip-path="url(#p0fa3d26987)" style="fill: #879dba; stroke: #879dba"/>
    <path d="M 554.717475 220.190949 
C 555.903499 220.190949 557.041107 219.719737 557.879752 218.881091 
C 558.718398 218.042445 559.189611 216.904838 559.189611 215.718813 
C 559.189611 214.532789 558.718398 213.395182 557.879752 212.556536 
C 557.041107 211.71789 555.903499 211.246677 554.717475 211.246677 
C 553.53145 211.246677 552.393843 211.71789 551.555197 212.556536 
C 550.716551 213.395182 550.245339 214.532789 550.245339 215.718813 
C 550.245339 216.904838 550.716551 218.042445 551.555197 218.881091 
C 552.393843 219.719737 553.53145 220.190949 554.717475 220.190949 
z
" clip-path="url(#p0fa3d26987)" style="fill: #879dba; stroke: #879dba"/>
    <path d="M 533.532375 201.357416 
C 534.718399 201.357416 535.856006 200.886204 536.694652 200.047558 
C 537.533298 199.208912 538.00451 198.071305 538.00451 196.88528 
C 538.00451 195.699256 537.533298 194.561648 536.694652 193.723003 
C 535.856006 192.884357 534.718399 192.413144 533.532375 192.413144 
C 532.34635 192.413144 531.208743 192.884357 530.370097 193.723003 
C 529.531451 194.561648 529.060239 195.699256 529.060239 196.88528 
C 529.060239 198.071305 529.531451 199.208912 530.370097 200.047558 
C 531.208743 200.886204 532.34635 201.357416 533.532375 201.357416 
z
" clip-path="url(#p0fa3d26987)" style="fill: #879dba; stroke: #879dba"/>
    <path d="M 510.68858 184.581504 
C 511.874604 184.581504 513.012211 184.110292 513.850857 183.271646 
C 514.689503 182.433 515.160716 181.295393 515.160716 180.109368 
C 515.160716 178.923344 514.689503 177.785737 513.850857 176.947091 
C 513.012211 176.108445 511.874604 175.637233 510.68858 175.637233 
C 509.502555 175.637233 508.364948 176.108445 507.526302 176.947091 
C 506.687656 177.785737 506.216444 178.923344 506.216444 180.109368 
C 506.216444 181.295393 506.687656 182.433 507.526302 183.271646 
C 508.364948 184.110292 509.502555 184.581504 510.68858 184.581504 
z
" clip-path="url(#p0fa3d26987)" style="fill: #879dba; stroke: #879dba"/>
    <path d="M 486.375055 170.031183 
C 487.56108 170.031183 488.698687 169.55997 489.537333 168.721325 
C 490.375979 167.882679 490.847191 166.745071 490.847191 165.559047 
C 490.847191 164.373023 490.375979 163.235415 489.537333 162.396769 
C 488.698687 161.558123 487.56108 161.086911 486.375055 161.086911 
C 485.189031 161.086911 484.051424 161.558123 483.212778 162.396769 
C 482.374132 163.235415 481.902919 164.373023 481.902919 165.559047 
C 481.902919 166.745071 482.374132 167.882679 483.212778 168.721325 
C 484.051424 169.55997 485.189031 170.031183 486.375055 170.031183 
z
" clip-path="url(#p0fa3d26987)" style="fill: #879dba; stroke: #879dba"/>
    <path d="M 460.780767 157.832428 
C 461.966791 157.832428 463.104399 157.361216 463.943044 156.52257 
C 464.78169 155.683924 465.252903 154.546317 465.252903 153.360292 
C 465.252903 152.174268 464.78169 151.036661 463.943044 150.198015 
C 463.104399 149.359369 461.966791 148.888157 460.780767 148.888157 
C 459.594742 148.888157 458.457135 149.359369 457.618489 150.198015 
C 456.779843 151.036661 456.308631 152.174268 456.308631 153.360292 
C 456.308631 154.546317 456.779843 155.683924 457.618489 156.52257 
C 458.457135 157.361216 459.594742 157.832428 460.780767 157.832428 
z
" clip-path="url(#p0fa3d26987)" style="fill: #879dba; stroke: #879dba"/>
    <path d="M 434.178664 148.069226 
C 435.364688 148.069226 436.502296 147.598013 437.340941 146.759367 
C 438.179587 145.920722 438.6508 144.783114 438.6508 143.59709 
C 438.6508 142.411065 438.179587 141.273458 437.340941 140.434812 
C 436.502296 139.596166 435.364688 139.124954 434.178664 139.124954 
C 432.992639 139.124954 431.855032 139.596166 431.016386 140.434812 
C 430.17774 141.273458 429.706528 142.411065 429.706528 143.59709 
C 429.706528 144.783114 430.17774 145.920722 431.016386 146.759367 
C 431.855032 147.598013 432.992639 148.069226 434.178664 148.069226 
z
" clip-path="url(#p0fa3d26987)" style="fill: #879dba; stroke: #879dba"/>
    <path d="M 406.778708 140.825559 
C 407.964732 140.825559 409.102339 140.354347 409.940985 139.515701 
C 410.779631 138.677055 411.250844 137.539447 411.250844 136.353423 
C 411.250844 135.167399 410.779631 134.029791 409.940985 133.191145 
C 409.102339 132.3525 407.964732 131.881287 406.778708 131.881287 
C 405.592683 131.881287 404.455076 132.3525 403.61643 133.191145 
C 402.777784 134.029791 402.306572 135.167399 402.306572 136.353423 
C 402.306572 137.539447 402.777784 138.677055 403.61643 139.515701 
C 404.455076 140.354347 405.592683 140.825559 406.778708 140.825559 
z
" clip-path="url(#p0fa3d26987)" style="fill: #879dba; stroke: #879dba"/>
    <path d="M 378.811856 136.206409 
C 379.99788 136.206409 381.135488 135.735197 381.974133 134.896551 
C 382.812779 134.057905 383.283992 132.920298 383.283992 131.734273 
C 383.283992 130.548249 382.812779 129.410642 381.974133 128.571996 
C 381.135488 127.73335 379.99788 127.262137 378.811856 127.262137 
C 377.625831 127.262137 376.488224 127.73335 375.649578 128.571996 
C 374.810932 129.410642 374.33972 130.548249 374.33972 131.734273 
C 374.33972 132.920298 374.810932 134.057905 375.649578 134.896551 
C 376.488224 135.735197 377.625831 136.206409 378.811856 136.206409 
z
" clip-path="url(#p0fa3d26987)" style="fill: #879dba; stroke: #879dba"/>
    <path d="M 350.551058 134.211777 
C 351.737082 134.211777 352.87469 133.740564 353.713336 132.901918 
C 354.551982 132.063272 355.023194 130.925665 355.023194 129.739641 
C 355.023194 128.553616 354.551982 127.416009 353.713336 126.577363 
C 352.87469 125.738717 351.737082 125.267505 350.551058 125.267505 
C 349.365034 125.267505 348.227426 125.738717 347.38878 126.577363 
C 346.550135 127.416009 346.078922 128.553616 346.078922 129.739641 
C 346.078922 130.925665 346.550135 132.063272 347.38878 132.901918 
C 348.227426 133.740564 349.365034 134.211777 350.551058 134.211777 
z
" clip-path="url(#p0fa3d26987)" style="fill: #879dba; stroke: #879dba"/>
    <path d="M 322.206276 134.883653 
C 323.3923 134.883653 324.529908 134.41244 325.368553 133.573795 
C 326.207199 132.735149 326.678412 131.597541 326.678412 130.411517 
C 326.678412 129.225493 326.207199 128.087885 325.368553 127.249239 
C 324.529908 126.410593 323.3923 125.939381 322.206276 125.939381 
C 321.020251 125.939381 319.882644 126.410593 319.043998 127.249239 
C 318.205352 128.087885 317.73414 129.225493 317.73414 130.411517 
C 317.73414 131.597541 318.205352 132.735149 319.043998 133.573795 
C 319.882644 134.41244 321.020251 134.883653 322.206276 134.883653 
z
" clip-path="url(#p0fa3d26987)" style="fill: #879dba; stroke: #879dba"/>
    <path d="M 294.050459 138.180046 
C 295.236483 138.180046 296.374091 137.708834 297.212736 136.870188 
C 298.051382 136.031542 298.522595 134.893934 298.522595 133.70791 
C 298.522595 132.521886 298.051382 131.384278 297.212736 130.545632 
C 296.374091 129.706987 295.236483 129.235774 294.050459 129.235774 
C 292.864434 129.235774 291.726827 129.706987 290.888181 130.545632 
C 290.049535 131.384278 289.578323 132.521886 289.578323 133.70791 
C 289.578323 134.893934 290.049535 136.031542 290.888181 136.870188 
C 291.726827 137.708834 292.864434 138.180046 294.050459 138.180046 
z
" clip-path="url(#p0fa3d26987)" style="fill: #879dba; stroke: #879dba"/>
    <path d="M 266.335561 144.121952 
C 267.521585 144.121952 268.659192 143.65074 269.497838 142.812094 
C 270.336484 141.973448 270.807697 140.835841 270.807697 139.649816 
C 270.807697 138.463792 270.336484 137.326184 269.497838 136.487539 
C 268.659192 135.648893 267.521585 135.17768 266.335561 135.17768 
C 265.149536 135.17768 264.011929 135.648893 263.173283 136.487539 
C 262.334637 137.326184 261.863425 138.463792 261.863425 139.649816 
C 261.863425 140.835841 262.334637 141.973448 263.173283 142.812094 
C 264.011929 143.65074 265.149536 144.121952 266.335561 144.121952 
z
" clip-path="url(#p0fa3d26987)" style="fill: #879dba; stroke: #879dba"/>
    <path d="M 239.313535 152.625387 
C 240.499559 152.625387 241.637167 152.154174 242.475813 151.315529 
C 243.314458 150.476883 243.785671 149.339275 243.785671 148.153251 
C 243.785671 146.967227 243.314458 145.829619 242.475813 144.990973 
C 241.637167 144.152327 240.499559 143.681115 239.313535 143.681115 
C 238.127511 143.681115 236.989903 144.152327 236.151257 144.990973 
C 235.312611 145.829619 234.841399 146.967227 234.841399 148.153251 
C 234.841399 149.339275 235.312611 150.476883 236.151257 151.315529 
C 236.989903 152.154174 238.127511 152.625387 239.313535 152.625387 
z
" clip-path="url(#p0fa3d26987)" style="fill: #879dba; stroke: #879dba"/>
    <path d="M 213.194343 163.627362 
C 214.380367 163.627362 215.517975 163.156149 216.356621 162.317503 
C 217.195266 161.478858 217.666479 160.34125 217.666479 159.155226 
C 217.666479 157.969201 217.195266 156.831594 216.356621 155.992948 
C 215.517975 155.154302 214.380367 154.68309 213.194343 154.68309 
C 212.008319 154.68309 210.870711 155.154302 210.032065 155.992948 
C 209.193419 156.831594 208.722207 157.969201 208.722207 159.155226 
C 208.722207 160.34125 209.193419 161.478858 210.032065 162.317503 
C 210.870711 163.156149 212.008319 163.627362 213.194343 163.627362 
z
" clip-path="url(#p0fa3d26987)" style="fill: #879dba; stroke: #879dba"/>
    <path d="M 188.208942 177.022896 
C 189.394967 177.022896 190.532574 176.551683 191.37122 175.713038 
C 192.209866 174.874392 192.681078 173.736784 192.681078 172.55076 
C 192.681078 171.364736 192.209866 170.227128 191.37122 169.388482 
C 190.532574 168.549836 189.394967 168.078624 188.208942 168.078624 
C 187.022918 168.078624 185.88531 168.549836 185.046665 169.388482 
C 184.208019 170.227128 183.736806 171.364736 183.736806 172.55076 
C 183.736806 173.736784 184.208019 174.874392 185.046665 175.713038 
C 185.88531 176.551683 187.022918 177.022896 188.208942 177.022896 
z
" clip-path="url(#p0fa3d26987)" style="fill: #879dba; stroke: #879dba"/>
    <path d="M 164.58829 192.707009 
C 165.774315 192.707009 166.911922 192.235796 167.750568 191.39715 
C 168.589214 190.558505 169.060426 189.420897 169.060426 188.234873 
C 169.060426 187.048848 168.589214 185.911241 167.750568 185.072595 
C 166.911922 184.233949 165.774315 183.762737 164.58829 183.762737 
C 163.402266 183.762737 162.264659 184.233949 161.426013 185.072595 
C 160.587367 185.911241 160.116154 187.048848 160.116154 188.234873 
C 160.116154 189.420897 160.587367 190.558505 161.426013 191.39715 
C 162.264659 192.235796 163.402266 192.707009 164.58829 192.707009 
z
" clip-path="url(#p0fa3d26987)" style="fill: #879dba; stroke: #879dba"/>
    <path d="M 142.563345 210.532727 
C 143.749369 210.532727 144.886977 210.061515 145.725622 209.222869 
C 146.564268 208.384223 147.035481 207.246616 147.035481 206.060591 
C 147.035481 204.874567 146.564268 203.736959 145.725622 202.898314 
C 144.886977 202.059668 143.749369 201.588455 142.563345 201.588455 
C 141.37732 201.588455 140.239713 202.059668 139.401067 202.898314 
C 138.562421 203.736959 138.091209 204.874567 138.091209 206.060591 
C 138.091209 207.246616 138.562421 208.384223 139.401067 209.222869 
C 140.239713 210.061515 141.37732 210.532727 142.563345 210.532727 
z
" clip-path="url(#p0fa3d26987)" style="fill: #879dba; stroke: #879dba"/>
    <path d="M 122.281078 230.332083 
C 123.467103 230.332083 124.60471 229.86087 125.443356 229.022224 
C 126.282002 228.183578 126.753214 227.045971 126.753214 225.859947 
C 126.753214 224.673922 126.282002 223.536315 125.443356 222.697669 
C 124.60471 221.859023 123.467103 221.387811 122.281078 221.387811 
C 121.095054 221.387811 119.957447 221.859023 119.118801 222.697669 
C 118.280155 223.536315 117.808942 224.673922 117.808942 225.859947 
C 117.808942 227.045971 118.280155 228.183578 119.118801 229.022224 
C 119.957447 229.86087 121.095054 230.332083 122.281078 230.332083 
z
" clip-path="url(#p0fa3d26987)" style="fill: #879dba; stroke: #879dba"/>
    <path d="M 103.951453 251.937105 
C 105.137477 251.937105 106.275084 251.465893 107.11373 250.627247 
C 107.952376 249.788601 108.423588 248.650994 108.423588 247.46497 
C 108.423588 246.278945 107.952376 245.141338 107.11373 244.302692 
C 106.275084 243.464046 105.137477 242.992834 103.951453 242.992834 
C 102.765428 242.992834 101.627821 243.464046 100.789175 244.302692 
C 99.950529 245.141338 99.479317 246.278945 99.479317 247.46497 
C 99.479317 248.650994 99.950529 249.788601 100.789175 250.627247 
C 101.627821 251.465893 102.765428 251.937105 103.951453 251.937105 
z
" clip-path="url(#p0fa3d26987)" style="fill: #879dba; stroke: #879dba"/>
    <path d="M 87.72144 275.179827 
C 88.907464 275.179827 90.045072 274.708614 90.883718 273.869969 
C 91.722364 273.031323 92.193576 271.893715 92.193576 270.707691 
C 92.193576 269.521667 91.722364 268.384059 90.883718 267.545413 
C 90.045072 266.706767 88.907464 266.235555 87.72144 266.235555 
C 86.535416 266.235555 85.397808 266.706767 84.559163 267.545413 
C 83.720517 268.384059 83.249304 269.521667 83.249304 270.707691 
C 83.249304 271.893715 83.720517 273.031323 84.559163 273.869969 
C 85.397808 274.708614 86.535416 275.179827 87.72144 275.179827 
z
" clip-path="url(#p0fa3d26987)" style="fill: #879dba; stroke: #879dba"/>
    <path d="M 73.738014 299.850286 
C 74.924039 299.850286 76.061646 299.379073 76.900292 298.540427 
C 77.738938 297.701781 78.21015 296.564174 78.21015 295.37815 
C 78.21015 294.192125 77.738938 293.054518 76.900292 292.215872 
C 76.061646 291.377226 74.924039 290.906014 73.738014 290.906014 
C 72.55199 290.906014 71.414382 291.377226 70.575737 292.215872 
C 69.737091 293.054518 69.265878 294.192125 69.265878 295.37815 
C 69.265878 296.564174 69.737091 297.701781 70.575737 298.540427 
C 71.414382 299.379073 72.55199 299.850286 73.738014 299.850286 
z
" clip-path="url(#p0fa3d26987)" style="fill: #879dba; stroke: #879dba"/>
    <path d="M 62.127152 325.696528 
C 63.313176 325.696528 64.450783 325.225315 65.289429 324.386669 
C 66.128075 323.548024 66.599288 322.410416 66.599288 321.224392 
C 66.599288 320.038367 66.128075 318.90076 65.289429 318.062114 
C 64.450783 317.223468 63.313176 316.752256 62.127152 316.752256 
C 60.941127 316.752256 59.80352 317.223468 58.964874 318.062114 
C 58.126228 318.90076 57.655016 320.038367 57.655016 321.224392 
C 57.655016 322.410416 58.126228 323.548024 58.964874 324.386669 
C 59.80352 325.225315 60.941127 325.696528 62.127152 325.696528 
z
" clip-path="url(#p0fa3d26987)" style="fill: #879dba; stroke: #879dba"/>
    <path d="M 52.993833 352.529588 
C 54.179857 352.529588 55.317465 352.058376 56.156111 351.21973 
C 56.994756 350.381084 57.465969 349.243477 57.465969 348.057452 
C 57.465969 346.871428 56.994756 345.73382 56.156111 344.895175 
C 55.317465 344.056529 54.179857 343.585316 52.993833 343.585316 
C 51.807809 343.585316 50.670201 344.056529 49.831555 344.895175 
C 48.992909 345.73382 48.521697 346.871428 48.521697 348.057452 
C 48.521697 349.243477 48.992909 350.381084 49.831555 351.21973 
C 50.670201 352.058376 51.807809 352.529588 52.993833 352.529588 
z
" clip-path="url(#p0fa3d26987)" style="fill: #879dba; stroke: #879dba"/>
    <path d="M 46.422043 380.097513 
C 47.608067 380.097513 48.745674 379.626301 49.58432 378.787655 
C 50.422966 377.949009 50.894179 376.811402 50.894179 375.625378 
C 50.894179 374.439353 50.422966 373.301746 49.58432 372.4631 
C 48.745674 371.624454 47.608067 371.153242 46.422043 371.153242 
C 45.236018 371.153242 44.098411 371.624454 43.259765 372.4631 
C 42.421119 373.301746 41.949907 374.439353 41.949907 375.625378 
C 41.949907 376.811402 42.421119 377.949009 43.259765 378.787655 
C 44.098411 379.626301 45.236018 380.097513 46.422043 380.097513 
z
" clip-path="url(#p0fa3d26987)" style="fill: #879dba; stroke: #879dba"/>
    <path d="M 42.432777 408.169346 
C 43.618801 408.169346 44.756409 407.698134 45.595055 406.859488 
C 46.4337 406.020842 46.904913 404.883234 46.904913 403.69721 
C 46.904913 402.511186 46.4337 401.373578 45.595055 400.534932 
C 44.756409 399.696287 43.618801 399.225074 42.432777 399.225074 
C 41.246753 399.225074 40.109145 399.696287 39.270499 400.534932 
C 38.431853 401.373578 37.960641 402.511186 37.960641 403.69721 
C 37.960641 404.883234 38.431853 406.020842 39.270499 406.859488 
C 40.109145 407.698134 41.246753 408.169346 42.432777 408.169346 
z
" clip-path="url(#p0fa3d26987)" style="fill: #879dba; stroke: #879dba"/>
    <path d="M 41.11002 436.472136 
C 42.296045 436.472136 43.433652 436.000923 44.272298 435.162278 
C 45.110944 434.323632 45.582156 433.186024 45.582156 432 
C 45.582156 430.813976 45.110944 429.676368 44.272298 428.837722 
C 43.433652 427.999077 42.296045 427.527864 41.11002 427.527864 
C 39.923996 427.527864 38.786389 427.999077 37.947743 428.837722 
C 37.109097 429.676368 36.637885 430.813976 36.637885 432 
C 36.637885 433.186024 37.109097 434.323632 37.947743 435.162278 
C 38.786389 436.000923 39.923996 436.472136 41.11002 436.472136 
z
" clip-path="url(#p0fa3d26987)" style="fill: #879dba; stroke: #879dba"/>
    <path d="M 42.432777 464.774926 
C 43.618801 464.774926 44.756409 464.303713 45.595055 463.465068 
C 46.4337 462.626422 46.904913 461.488814 46.904913 460.30279 
C 46.904913 459.116766 46.4337 457.979158 45.595055 457.140512 
C 44.756409 456.301866 43.618801 455.830654 42.432777 455.830654 
C 41.246753 455.830654 40.109145 456.301866 39.270499 457.140512 
C 38.431853 457.979158 37.960641 459.116766 37.960641 460.30279 
C 37.960641 461.488814 38.431853 462.626422 39.270499 463.465068 
C 40.109145 464.303713 41.246753 464.774926 42.432777 464.774926 
z
" clip-path="url(#p0fa3d26987)" style="fill: #879dba; stroke: #879dba"/>
    <path d="M 46.422043 492.846758 
C 47.608067 492.846758 48.745674 492.375546 49.58432 491.5369 
C 50.422966 490.698254 50.894179 489.560647 50.894179 488.374622 
C 50.894179 487.188598 50.422966 486.050991 49.58432 485.212345 
C 48.745674 484.373699 47.608067 483.902487 46.422043 483.902487 
C 45.236018 483.902487 44.098411 484.373699 43.259765 485.212345 
C 42.421119 486.050991 41.949907 487.188598 41.949907 488.374622 
C 41.949907 489.560647 42.421119 490.698254 43.259765 491.5369 
C 44.098411 492.375546 45.236018 492.846758 46.422043 492.846758 
z
" clip-path="url(#p0fa3d26987)" style="fill: #879dba; stroke: #879dba"/>
    <path d="M 52.993833 520.414684 
C 54.179857 520.414684 55.317465 519.943471 56.156111 519.104825 
C 56.994756 518.26618 57.465969 517.128572 57.465969 515.942548 
C 57.465969 514.756523 56.994756 513.618916 56.156111 512.78027 
C 55.317465 511.941624 54.179857 511.470412 52.993833 511.470412 
C 51.807809 511.470412 50.670201 511.941624 49.831555 512.78027 
C 48.992909 513.618916 48.521697 514.756523 48.521697 515.942548 
C 48.521697 517.128572 48.992909 518.26618 49.831555 519.104825 
C 50.670201 519.943471 51.807809 520.414684 52.993833 520.414684 
z
" clip-path="url(#p0fa3d26987)" style="fill: #879dba; stroke: #879dba"/>
    <path d="M 62.127152 547.247744 
C 63.313176 547.247744 64.450783 546.776532 65.289429 545.937886 
C 66.128075 545.09924 66.599288 543.961633 66.599288 542.775608 
C 66.599288 541.589584 66.128075 540.451976 65.289429 539.613331 
C 64.450783 538.774685 63.313176 538.303472 62.127152 538.303472 
C 60.941127 538.303472 59.80352 538.774685 58.964874 539.613331 
C 58.126228 540.451976 57.655016 541.589584 57.655016 542.775608 
C 57.655016 543.961633 58.126228 545.09924 58.964874 545.937886 
C 59.80352 546.776532 60.941127 547.247744 62.127152 547.247744 
z
" clip-path="url(#p0fa3d26987)" style="fill: #879dba; stroke: #879dba"/>
    <path d="M 73.738014 573.100285 
C 74.924039 573.100285 76.061646 572.629073 76.900292 571.790427 
C 77.738938 570.951781 78.21015 569.814174 78.21015 568.628149 
C 78.21015 567.442125 77.738938 566.304517 76.900292 565.465872 
C 76.061646 564.627226 74.924039 564.156013 73.738014 564.156013 
C 72.55199 564.156013 71.414382 564.627226 70.575737 565.465872 
C 69.737091 566.304517 69.265878 567.442125 69.265878 568.628149 
C 69.265878 569.814174 69.737091 570.951781 70.575737 571.790427 
C 71.414382 572.629073 72.55199 573.100285 73.738014 573.100285 
z
" clip-path="url(#p0fa3d26987)" style="fill: #879dba; stroke: #879dba"/>
    <path d="M 87.72144 597.756047 
C 88.907464 597.756047 90.045072 597.284834 90.883718 596.446188 
C 91.722364 595.607542 92.193576 594.469935 92.193576 593.283911 
C 92.193576 592.097886 91.722364 590.960279 90.883718 590.121633 
C 90.045072 589.282987 88.907464 588.811775 87.72144 588.811775 
C 86.535416 588.811775 85.397808 589.282987 84.559163 590.121633 
C 83.720517 590.960279 83.249304 592.097886 83.249304 593.283911 
C 83.249304 594.469935 83.720517 595.607542 84.559163 596.446188 
C 85.397808 597.284834 86.535416 597.756047 87.72144 597.756047 
z
" clip-path="url(#p0fa3d26987)" style="fill: #879dba; stroke: #879dba"/>
    <path d="M 103.951453 620.994569 
C 105.137477 620.994569 106.275084 620.523356 107.11373 619.68471 
C 107.952376 618.846065 108.423588 617.708457 108.423588 616.522433 
C 108.423588 615.336408 107.952376 614.198801 107.11373 613.360155 
C 106.275084 612.521509 105.137477 612.050297 103.951453 612.050297 
C 102.765428 612.050297 101.627821 612.521509 100.789175 613.360155 
C 99.950529 614.198801 99.479317 615.336408 99.479317 616.522433 
C 99.479317 617.708457 99.950529 618.846065 100.789175 619.68471 
C 101.627821 620.523356 102.765428 620.994569 103.951453 620.994569 
z
" clip-path="url(#p0fa3d26987)" style="fill: #879dba; stroke: #879dba"/>
    <path d="M 122.281078 642.612189 
C 123.467103 642.612189 124.60471 642.140977 125.443356 641.302331 
C 126.282002 640.463685 126.753214 639.326078 126.753214 638.140053 
C 126.753214 636.954029 126.282002 635.816422 125.443356 634.977776 
C 124.60471 634.13913 123.467103 633.667917 122.281078 633.667917 
C 121.095054 633.667917 119.957447 634.13913 119.118801 634.977776 
C 118.280155 635.816422 117.808942 636.954029 117.808942 638.140053 
C 117.808942 639.326078 118.280155 640.463685 119.118801 641.302331 
C 119.957447 642.140977 121.095054 642.612189 122.281078 642.612189 
z
" clip-path="url(#p0fa3d26987)" style="fill: #879dba; stroke: #879dba"/>
    <path d="M 142.563345 662.417843 
C 143.749369 662.417843 144.886977 661.946631 145.725622 661.107985 
C 146.564268 660.269339 147.035481 659.131732 147.035481 657.945708 
C 147.035481 656.759683 146.564268 655.622076 145.725622 654.78343 
C 144.886977 653.944784 143.749369 653.473572 142.563345 653.473572 
C 141.37732 653.473572 140.239713 653.944784 139.401067 654.78343 
C 138.562421 655.622076 138.091209 656.759683 138.091209 657.945708 
C 138.091209 659.131732 138.562421 660.269339 139.401067 661.107985 
C 140.239713 661.946631 141.37732 662.417843 142.563345 662.417843 
z
" clip-path="url(#p0fa3d26987)" style="fill: #879dba; stroke: #879dba"/>
    <path d="M 164.58829 680.237263 
C 165.774315 680.237263 166.911922 679.766051 167.750568 678.927405 
C 168.589214 678.088759 169.060426 676.951152 169.060426 675.765127 
C 169.060426 674.579103 168.589214 673.441495 167.750568 672.60285 
C 166.911922 671.764204 165.774315 671.292991 164.58829 671.292991 
C 163.402266 671.292991 162.264659 671.764204 161.426013 672.60285 
C 160.587367 673.441495 160.116154 674.579103 160.116154 675.765127 
C 160.116154 676.951152 160.587367 678.088759 161.426013 678.927405 
C 162.264659 679.766051 163.402266 680.237263 164.58829 680.237263 
z
" clip-path="url(#p0fa3d26987)" style="fill: #879dba; stroke: #879dba"/>
    <path d="M 188.208942 695.915077 
C 189.394967 695.915077 190.532574 695.443865 191.37122 694.605219 
C 192.209866 693.766573 192.681078 692.628966 192.681078 691.442941 
C 192.681078 690.256917 192.209866 689.119309 191.37122 688.280664 
C 190.532574 687.442018 189.394967 686.970805 188.208942 686.970805 
C 187.022918 686.970805 185.88531 687.442018 185.046665 688.280664 
C 184.208019 689.119309 183.736806 690.256917 183.736806 691.442941 
C 183.736806 692.628966 184.208019 693.766573 185.046665 694.605219 
C 185.88531 695.443865 187.022918 695.915077 188.208942 695.915077 
z
" clip-path="url(#p0fa3d26987)" style="fill: #879dba; stroke: #879dba"/>
    <path d="M 213.194343 709.312711 
C 214.380367 709.312711 215.517975 708.841499 216.356621 708.002853 
C 217.195266 707.164207 217.666479 706.026599 217.666479 704.840575 
C 217.666479 703.654551 217.195266 702.516943 216.356621 701.678297 
C 215.517975 700.839652 214.380367 700.368439 213.194343 700.368439 
C 212.008319 700.368439 210.870711 700.839652 210.032065 701.678297 
C 209.193419 702.516943 208.722207 703.654551 208.722207 704.840575 
C 208.722207 706.026599 209.193419 707.164207 210.032065 708.002853 
C 210.870711 708.841499 212.008319 709.312711 213.194343 709.312711 
z
" clip-path="url(#p0fa3d26987)" style="fill: #879dba; stroke: #879dba"/>
    <path d="M 239.313535 720.312586 
C 240.499559 720.312586 241.637167 719.841374 242.475813 719.002728 
C 243.314458 718.164082 243.785671 717.026474 243.785671 715.84045 
C 243.785671 714.654426 243.314458 713.516818 242.475813 712.678173 
C 241.637167 711.839527 240.499559 711.368314 239.313535 711.368314 
C 238.127511 711.368314 236.989903 711.839527 236.151257 712.678173 
C 235.312611 713.516818 234.841399 714.654426 234.841399 715.84045 
C 234.841399 717.026474 235.312611 718.164082 236.151257 719.002728 
C 236.989903 719.841374 238.127511 720.312586 239.313535 720.312586 
z
" clip-path="url(#p0fa3d26987)" style="fill: #879dba; stroke: #879dba"/>
    <path d="M 266.335561 728.816021 
C 267.521585 728.816021 268.659192 728.344808 269.497838 727.506163 
C 270.336484 726.667517 270.807697 725.529909 270.807697 724.343885 
C 270.807697 723.157861 270.336484 722.020253 269.497838 721.181607 
C 268.659192 720.342961 267.521585 719.871749 266.335561 719.871749 
C 265.149536 719.871749 264.011929 720.342961 263.173283 721.181607 
C 262.334637 722.020253 261.863425 723.157861 261.863425 724.343885 
C 261.863425 725.529909 262.334637 726.667517 263.173283 727.506163 
C 264.011929 728.344808 265.149536 728.816021 266.335561 728.816021 
z
" clip-path="url(#p0fa3d26987)" style="fill: #879dba; stroke: #879dba"/>
    <path d="M 294.050459 734.753728 
C 295.236483 734.753728 296.374091 734.282515 297.212736 733.443869 
C 298.051382 732.605224 298.522595 731.467616 298.522595 730.281592 
C 298.522595 729.095567 298.051382 727.95796 297.212736 727.119314 
C 296.374091 726.280668 295.236483 725.809456 294.050459 725.809456 
C 292.864434 725.809456 291.726827 726.280668 290.888181 727.119314 
C 290.049535 727.95796 289.578323 729.095567 289.578323 730.281592 
C 289.578323 731.467616 290.049535 732.605224 290.888181 733.443869 
C 291.726827 734.282515 292.864434 734.753728 294.050459 734.753728 
z
" clip-path="url(#p0fa3d26987)" style="fill: #879dba; stroke: #879dba"/>
    <path d="M 322.206276 738.069017 
C 323.3923 738.069017 324.529908 737.597805 325.368553 736.759159 
C 326.207199 735.920513 326.678412 734.782906 326.678412 733.596882 
C 326.678412 732.410857 326.207199 731.27325 325.368553 730.434604 
C 324.529908 729.595958 323.3923 729.124746 322.206276 729.124746 
C 321.020251 729.124746 319.882644 729.595958 319.043998 730.434604 
C 318.205352 731.27325 317.73414 732.410857 317.73414 733.596882 
C 317.73414 734.782906 318.205352 735.920513 319.043998 736.759159 
C 319.882644 737.597805 321.020251 738.069017 322.206276 738.069017 
z
" clip-path="url(#p0fa3d26987)" style="fill: #879dba; stroke: #879dba"/>
    <path d="M 350.551058 738.732495 
C 351.737082 738.732495 352.87469 738.261283 353.713336 737.422637 
C 354.551982 736.583991 355.023194 735.446384 355.023194 734.260359 
C 355.023194 733.074335 354.551982 731.936728 353.713336 731.098082 
C 352.87469 730.259436 351.737082 729.788223 350.551058 729.788223 
C 349.365034 729.788223 348.227426 730.259436 347.38878 731.098082 
C 346.550135 731.936728 346.078922 733.074335 346.078922 734.260359 
C 346.078922 735.446384 346.550135 736.583991 347.38878 737.422637 
C 348.227426 738.261283 349.365034 738.732495 350.551058 738.732495 
z
" clip-path="url(#p0fa3d26987)" style="fill: #879dba; stroke: #879dba"/>
    <path d="M 378.811856 736.739962 
C 379.99788 736.739962 381.135488 736.26875 381.974133 735.430104 
C 382.812779 734.591458 383.283992 733.453851 383.283992 732.267826 
C 383.283992 731.081802 382.812779 729.944194 381.974133 729.105549 
C 381.135488 728.266903 379.99788 727.79569 378.811856 727.79569 
C 377.625831 727.79569 376.488224 728.266903 375.649578 729.105549 
C 374.810932 729.944194 374.33972 731.081802 374.33972 732.267826 
C 374.33972 733.453851 374.810932 734.591458 375.649578 735.430104 
C 376.488224 736.26875 377.625831 736.739962 378.811856 736.739962 
z
" clip-path="url(#p0fa3d26987)" style="fill: #879dba; stroke: #879dba"/>
    <path d="M 406.778708 732.110314 
C 407.964732 732.110314 409.102339 731.639102 409.940985 730.800456 
C 410.779631 729.96181 411.250844 728.824203 411.250844 727.638178 
C 411.250844 726.452154 410.779631 725.314547 409.940985 724.475901 
C 409.102339 723.637255 407.964732 723.166042 406.778708 723.166042 
C 405.592683 723.166042 404.455076 723.637255 403.61643 724.475901 
C 402.777784 725.314547 402.306572 726.452154 402.306572 727.638178 
C 402.306572 728.824203 402.777784 729.96181 403.61643 730.800456 
C 404.455076 731.639102 405.592683 732.110314 406.778708 732.110314 
z
" clip-path="url(#p0fa3d26987)" style="fill: #879dba; stroke: #879dba"/>
    <path d="M 434.178664 724.881345 
C 435.364688 724.881345 436.502296 724.410133 437.340941 723.571487 
C 438.179587 722.732841 438.6508 721.595233 438.6508 720.409209 
C 438.6508 719.223185 438.179587 718.085577 437.340941 717.246931 
C 436.502296 716.408286 435.364688 715.937073 434.178664 715.937073 
C 432.992639 715.937073 431.855032 716.408286 431.016386 717.246931 
C 430.17774 718.085577 429.706528 719.223185 429.706528 720.409209 
C 429.706528 721.595233 430.17774 722.732841 431.016386 723.571487 
C 431.855032 724.410133 432.992639 724.881345 434.178664 724.881345 
z
" clip-path="url(#p0fa3d26987)" style="fill: #879dba; stroke: #879dba"/>
    <path d="M 414.904212 572.287345 
C 416.779481 572.287345 418.578196 571.542293 419.904212 570.216277 
C 421.230227 568.890262 421.97528 567.091546 421.97528 565.216277 
C 421.97528 563.341008 421.230227 561.542293 419.904212 560.216277 
C 418.578196 558.890262 416.779481 558.14521 414.904212 558.14521 
C 413.028943 558.14521 411.230227 558.890262 409.904212 560.216277 
C 408.578196 561.542293 407.833144 563.341008 407.833144 565.216277 
C 407.833144 567.091546 408.578196 568.890262 409.904212 570.216277 
C 411.230227 571.542293 413.028943 572.287345 414.904212 572.287345 
z
" clip-path="url(#p0fa3d26987)" style="fill: #8f81b5; stroke: #8f81b5"/>
    <path d="M 460.780767 715.118142 
C 461.966791 715.118142 463.104399 714.64693 463.943044 713.808284 
C 464.78169 712.969638 465.252903 711.832031 465.252903 710.646006 
C 465.252903 709.459982 464.78169 708.322375 463.943044 707.483729 
C 463.104399 706.645083 461.966791 706.17387 460.780767 706.17387 
C 459.594742 706.17387 458.457135 706.645083 457.618489 707.483729 
C 456.779843 708.322375 456.308631 709.459982 456.308631 710.646006 
C 456.308631 711.832031 456.779843 712.969638 457.618489 713.808284 
C 458.457135 714.64693 459.594742 715.118142 460.780767 715.118142 
z
" clip-path="url(#p0fa3d26987)" style="fill: #879dba; stroke: #879dba"/>
    <path d="M 486.375055 702.90679 
C 487.56108 702.90679 488.698687 702.435578 489.537333 701.596932 
C 490.375979 700.758286 490.847191 699.620679 490.847191 698.434654 
C 490.847191 697.24863 490.375979 696.111022 489.537333 695.272377 
C 488.698687 694.433731 487.56108 693.962518 486.375055 693.962518 
C 485.189031 693.962518 484.051424 694.433731 483.212778 695.272377 
C 482.374132 696.111022 481.902919 697.24863 481.902919 698.434654 
C 481.902919 699.620679 482.374132 700.758286 483.212778 701.596932 
C 484.051424 702.435578 485.189031 702.90679 486.375055 702.90679 
z
" clip-path="url(#p0fa3d26987)" style="fill: #879dba; stroke: #879dba"/>
    <path d="M 510.68858 688.352269 
C 511.874604 688.352269 513.012211 687.881057 513.850857 687.042411 
C 514.689503 686.203765 515.160716 685.066158 515.160716 683.880133 
C 515.160716 682.694109 514.689503 681.556502 513.850857 680.717856 
C 513.012211 679.87921 511.874604 679.407998 510.68858 679.407998 
C 509.502555 679.407998 508.364948 679.87921 507.526302 680.717856 
C 506.687656 681.556502 506.216444 682.694109 506.216444 683.880133 
C 506.216444 685.066158 506.687656 686.203765 507.526302 687.042411 
C 508.364948 687.881057 509.502555 688.352269 510.68858 688.352269 
z
" clip-path="url(#p0fa3d26987)" style="fill: #879dba; stroke: #879dba"/>
    <path d="M 478.312539 507.392491 
C 480.187809 507.392491 481.986524 506.647439 483.312539 505.321423 
C 484.638555 503.995408 485.383607 502.196692 485.383607 500.321423 
C 485.383607 498.446154 484.638555 496.647439 483.312539 495.321423 
C 481.986524 493.995408 480.187809 493.250355 478.312539 493.250355 
C 476.43727 493.250355 474.638555 493.995408 473.312539 495.321423 
C 471.986524 496.647439 471.241472 498.446154 471.241472 500.321423 
C 471.241472 502.196692 471.986524 503.995408 473.312539 505.321423 
C 474.638555 506.647439 476.43727 507.392491 478.312539 507.392491 
z
" clip-path="url(#p0fa3d26987)" style="fill: #8f81b5; stroke: #8f81b5"/>
    <path d="M 533.532375 671.584756 
C 534.718399 671.584756 535.856006 671.113544 536.694652 670.274898 
C 537.533298 669.436252 538.00451 668.298644 538.00451 667.11262 
C 538.00451 665.926596 537.533298 664.788988 536.694652 663.950342 
C 535.856006 663.111697 534.718399 662.640484 533.532375 662.640484 
C 532.34635 662.640484 531.208743 663.111697 530.370097 663.950342 
C 529.531451 664.788988 529.060239 665.926596 529.060239 667.11262 
C 529.060239 668.298644 529.531451 669.436252 530.370097 670.274898 
C 531.208743 671.113544 532.34635 671.584756 533.532375 671.584756 
z
" clip-path="url(#p0fa3d26987)" style="fill: #879dba; stroke: #879dba"/>
    <path d="M 554.717475 652.753323 
C 555.903499 652.753323 557.041107 652.28211 557.879752 651.443464 
C 558.718398 650.604818 559.189611 649.467211 559.189611 648.281187 
C 559.189611 647.095162 558.718398 645.957555 557.879752 645.118909 
C 557.041107 644.280263 555.903499 643.809051 554.717475 643.809051 
C 553.53145 643.809051 552.393843 644.280263 551.555197 645.118909 
C 550.716551 645.957555 550.245339 647.095162 550.245339 648.281187 
C 550.245339 649.467211 550.716551 650.604818 551.555197 651.443464 
C 552.393843 652.28211 553.53145 652.753323 554.717475 652.753323 
z
" clip-path="url(#p0fa3d26987)" style="fill: #879dba; stroke: #879dba"/>
    <path d="M 574.054915 632.01754 
C 575.240939 632.01754 576.378547 631.546327 577.217193 630.707681 
C 578.055839 629.869035 578.527051 628.731428 578.527051 627.545404 
C 578.527051 626.359379 578.055839 625.221772 577.217193 624.383126 
C 576.378547 623.54448 575.240939 623.073268 574.054915 623.073268 
C 572.868891 623.073268 571.731283 623.54448 570.892637 624.383126 
C 570.053992 625.221772 569.582779 626.359379 569.582779 627.545404 
C 569.582779 628.731428 570.053992 629.869035 570.892637 630.707681 
C 571.731283 631.546327 572.868891 632.01754 574.054915 632.01754 
z
" clip-path="url(#p0fa3d26987)" style="fill: #879dba; stroke: #879dba"/>
    <path d="M 591.35573 609.566372 
C 592.541755 609.566372 593.679362 609.09516 594.518008 608.256514 
C 595.356654 607.417868 595.827866 606.280261 595.827866 605.094237 
C 595.827866 603.908212 595.356654 602.770605 594.518008 601.931959 
C 593.679362 601.093313 592.541755 600.622101 591.35573 600.622101 
C 590.169706 600.622101 589.032098 601.093313 588.193453 601.931959 
C 587.354807 602.770605 586.883594 603.908212 586.883594 605.094237 
C 586.883594 606.280261 587.354807 607.417868 588.193453 608.256514 
C 589.032098 609.09516 590.169706 609.566372 591.35573 609.566372 
z
" clip-path="url(#p0fa3d26987)" style="fill: #879dba; stroke: #879dba"/>
    <path d="M 606.472948 585.592986 
C 607.658972 585.592986 608.796579 585.121773 609.635225 584.283127 
C 610.473871 583.444481 610.945083 582.306874 610.945083 581.12085 
C 610.945083 579.934825 610.473871 578.797218 609.635225 577.958572 
C 608.796579 577.119926 607.658972 576.648714 606.472948 576.648714 
C 605.286923 576.648714 604.149316 577.119926 603.31067 577.958572 
C 602.472024 578.797218 602.000812 579.934825 602.000812 581.12085 
C 602.000812 582.306874 602.472024 583.444481 603.31067 584.283127 
C 604.149316 585.121773 605.286923 585.592986 606.472948 585.592986 
z
" clip-path="url(#p0fa3d26987)" style="fill: #879dba; stroke: #879dba"/>
    <path d="M 619.28059 560.30734 
C 620.466614 560.30734 621.604222 559.836128 622.442868 558.997482 
C 623.281513 558.158836 623.752726 557.021229 623.752726 555.835204 
C 623.752726 554.64918 623.281513 553.511572 622.442868 552.672927 
C 621.604222 551.834281 620.466614 551.363068 619.28059 551.363068 
C 618.094566 551.363068 616.956958 551.834281 616.118312 552.672927 
C 615.279666 553.511572 614.808454 554.64918 614.808454 555.835204 
C 614.808454 557.021229 615.279666 558.158836 616.118312 558.997482 
C 616.956958 559.836128 618.094566 560.30734 619.28059 560.30734 
z
" clip-path="url(#p0fa3d26987)" style="fill: #879dba; stroke: #879dba"/>
    <path d="M 629.652681 533.936195 
C 630.838705 533.936195 631.976312 533.464982 632.814958 532.626336 
C 633.653604 531.78769 634.124817 530.650083 634.124817 529.464059 
C 634.124817 528.278034 633.653604 527.140427 632.814958 526.301781 
C 631.976312 525.463135 630.838705 524.991923 629.652681 524.991923 
C 628.466656 524.991923 627.329049 525.463135 626.490403 526.301781 
C 625.651757 527.140427 625.180545 528.278034 625.180545 529.464059 
C 625.180545 530.650083 625.651757 531.78769 626.490403 532.626336 
C 627.329049 533.464982 628.466656 533.936195 629.652681 533.936195 
z
" clip-path="url(#p0fa3d26987)" style="fill: #879dba; stroke: #879dba"/>
    <path d="M 637.526231 506.704208 
C 638.712255 506.704208 639.849863 506.232995 640.688509 505.394349 
C 641.527155 504.555703 641.998367 503.418096 641.998367 502.232072 
C 641.998367 501.046047 641.527155 499.90844 640.688509 499.069794 
C 639.849863 498.231148 638.712255 497.759936 637.526231 497.759936 
C 636.340207 497.759936 635.202599 498.231148 634.363954 499.069794 
C 633.525308 499.90844 633.054095 501.046047 633.054095 502.232072 
C 633.054095 503.418096 633.525308 504.555703 634.363954 505.394349 
C 635.202599 506.232995 636.340207 506.704208 637.526231 506.704208 
z
" clip-path="url(#p0fa3d26987)" style="fill: #879dba; stroke: #879dba"/>
    <path d="M 642.817257 478.863333 
C 644.003282 478.863333 645.140889 478.39212 645.979535 477.553474 
C 646.818181 476.714828 647.289393 475.577221 647.289393 474.391197 
C 647.289393 473.205172 646.818181 472.067565 645.979535 471.228919 
C 645.140889 470.390273 644.003282 469.919061 642.817257 469.919061 
C 641.631233 469.919061 640.493625 470.390273 639.65498 471.228919 
C 638.816334 472.067565 638.345121 473.205172 638.345121 474.391197 
C 638.345121 475.577221 638.816334 476.714828 639.65498 477.553474 
C 640.493625 478.39212 641.631233 478.863333 642.817257 478.863333 
z
" clip-path="url(#p0fa3d26987)" style="fill: #879dba; stroke: #879dba"/>
    <path d="M 645.46277 450.644527 
C 646.648795 450.644527 647.786402 450.173315 648.625048 449.334669 
C 649.463694 448.496023 649.934906 447.358415 649.934906 446.172391 
C 649.934906 444.986367 649.463694 443.848759 648.625048 443.010113 
C 647.786402 442.171468 646.648795 441.700255 645.46277 441.700255 
C 644.276746 441.700255 643.139138 442.171468 642.300493 443.010113 
C 641.461847 443.848759 640.990634 444.986367 640.990634 446.172391 
C 640.990634 447.358415 641.461847 448.496023 642.300493 449.334669 
C 643.139138 450.173315 644.276746 450.644527 645.46277 450.644527 
z
" clip-path="url(#p0fa3d26987)" style="fill: #879dba; stroke: #879dba"/>
   </g>
   <g id="patch_3">
    <path d="M 10.8 764.486395 
L 10.8 99.513605 
" style="fill: none; stroke: #000000; stroke-width: 0.8; stroke-linejoin: miter; stroke-linecap: square"/>
   </g>
   <g id="patch_4">
    <path d="M 675.772791 764.486395 
L 675.772791 99.513605 
" style="fill: none; stroke: #000000; stroke-width: 0.8; stroke-linejoin: miter; stroke-linecap: square"/>
   </g>
   <g id="patch_5">
    <path d="M 10.8 764.486395 
L 675.772791 764.486395 
" style="fill: none; stroke: #000000; stroke-width: 0.8; stroke-linejoin: miter; stroke-linecap: square"/>
   </g>
   <g id="patch_6">
    <path d="M 10.8 99.513605 
L 675.772791 99.513605 
" style="fill: none; stroke: #000000; stroke-width: 0.8; stroke-linejoin: miter; stroke-linecap: square"/>
   </g>
   <g id="text_1">
    <!-- Year: 1884 -->
    <g transform="translate(17.449728 126.918828) scale(0.3 -0.3)">
     <defs>
      <path id="CMR17-59" d="M 3706 3766 
C 3955 4160 4301 4160 4416 4160 
L 4416 4332 
C 4269 4319 4102 4319 3942 4319 
C 3782 4319 3526 4319 3373 4332 
L 3373 4160 
C 3533 4160 3616 4077 3616 3957 
C 3616 3881 3584 3830 3533 3747 
L 2381 1912 
L 1120 3912 
C 1075 3988 1069 3994 1069 4039 
C 1069 4160 1293 4160 1382 4160 
L 1382 4319 
C 1178 4319 864 4319 653 4319 
C 486 4319 166 4319 13 4332 
L 13 4160 
C 378 4160 480 4141 595 3958 
L 2010 1728 
L 2010 445 
C 2010 160 1939 160 1498 160 
L 1498 0 
C 1683 0 2016 0 2214 0 
C 2413 0 2752 0 2938 0 
L 2938 160 
C 2477 160 2419 160 2419 471 
L 2419 1728 
L 3706 3766 
z
" transform="scale(0.015625)"/>
      <path id="CMR17-65" d="M 2438 1472 
C 2464 1498 2464 1511 2464 1576 
C 2464 2238 2118 2816 1389 2816 
C 710 2816 173 2169 173 1383 
C 173 551 781 -64 1459 -64 
C 2176 -64 2458 607 2458 740 
C 2458 784 2419 784 2406 784 
C 2362 784 2355 771 2330 696 
C 2189 265 1837 51 1504 51 
C 1229 51 954 203 781 480 
C 582 803 582 1176 582 1472 
L 2438 1472 
z
M 589 1568 
C 634 2505 1126 2714 1382 2714 
C 1818 2714 2112 2297 2118 1568 
L 589 1568 
z
" transform="scale(0.015625)"/>
      <path id="CMR17-61" d="M 2304 1653 
C 2304 2072 2304 2294 2035 2543 
C 1798 2752 1523 2816 1306 2816 
C 800 2816 435 2407 435 1971 
C 435 1728 627 1728 666 1728 
C 749 1728 896 1778 896 1954 
C 896 2112 774 2181 666 2181 
C 640 2181 608 2174 589 2168 
C 723 2592 1069 2714 1293 2714 
C 1613 2714 1965 2429 1965 1885 
L 1965 1600 
C 1587 1600 1133 1549 774 1357 
C 371 1133 256 813 256 570 
C 256 77 832 -64 1171 -64 
C 1523 -64 1850 139 1990 511 
C 2003 233 2182 -18 2464 -18 
C 2598 -18 2938 70 2938 567 
L 2938 920 
L 2822 920 
L 2822 562 
C 2822 178 2650 128 2566 128 
C 2304 128 2304 458 2304 738 
L 2304 1653 
z
M 1965 870 
C 1965 317 1568 38 1216 38 
C 896 38 646 275 646 570 
C 646 761 730 1100 1101 1305 
C 1408 1478 1760 1504 1965 1504 
L 1965 870 
z
" transform="scale(0.015625)"/>
      <path id="CMR17-72" d="M 960 1497 
C 960 2112 1222 2688 1702 2688 
C 1747 2688 1792 2682 1837 2662 
C 1837 2662 1696 2617 1696 2452 
C 1696 2298 1818 2234 1914 2234 
C 1990 2234 2131 2279 2131 2458 
C 2131 2663 1926 2790 1709 2790 
C 1222 2790 1011 2317 947 2093 
L 941 2093 
L 941 2790 
L 198 2720 
L 198 2554 
C 576 2554 634 2515 634 2208 
L 634 428 
C 634 184 608 153 198 153 
L 198 -13 
C 352 0 646 0 813 0 
C 998 0 1325 0 1498 -13 
L 1498 153 
C 1037 153 960 153 960 440 
L 960 1497 
z
" transform="scale(0.015625)"/>
      <path id="CMR17-3a" d="M 1062 2491 
C 1062 2650 934 2752 800 2752 
C 672 2752 538 2650 538 2491 
C 538 2332 666 2230 800 2230 
C 928 2230 1062 2332 1062 2491 
z
M 1062 261 
C 1062 420 934 522 800 522 
C 672 522 538 420 538 261 
C 538 102 666 0 800 0 
C 928 0 1062 102 1062 261 
z
" transform="scale(0.015625)"/>
      <path id="CMR17-31" d="M 1702 4058 
C 1702 4192 1696 4192 1606 4192 
C 1357 3916 979 3827 621 3827 
C 602 3827 570 3827 563 3808 
C 557 3795 557 3782 557 3648 
C 755 3648 1088 3686 1344 3839 
L 1344 461 
C 1344 236 1331 160 781 160 
L 589 160 
L 589 0 
C 896 0 1216 0 1523 0 
C 1830 0 2150 0 2458 0 
L 2458 160 
L 2266 160 
C 1715 160 1702 230 1702 458 
L 1702 4058 
z
" transform="scale(0.015625)"/>
      <path id="CMR17-38" d="M 1741 2264 
C 2144 2467 2554 2773 2554 3263 
C 2554 3841 1990 4179 1472 4179 
C 890 4179 378 3759 378 3180 
C 378 3021 416 2747 666 2505 
C 730 2442 998 2251 1171 2130 
C 883 1983 211 1634 211 934 
C 211 279 838 -128 1459 -128 
C 2144 -128 2720 362 2720 1010 
C 2720 1590 2330 1857 2074 2029 
L 1741 2264 
z
M 902 2822 
C 851 2854 595 3051 595 3351 
C 595 3739 998 4032 1459 4032 
C 1965 4032 2336 3676 2336 3262 
C 2336 2669 1670 2331 1638 2331 
C 1632 2331 1626 2331 1574 2370 
L 902 2822 
z
M 2080 1519 
C 2176 1449 2483 1240 2483 851 
C 2483 381 2010 25 1472 25 
C 890 25 448 438 448 940 
C 448 1443 838 1862 1280 2060 
L 2080 1519 
z
" transform="scale(0.015625)"/>
      <path id="CMR17-34" d="M 2150 4122 
C 2150 4256 2144 4256 2029 4256 
L 128 1254 
L 128 1088 
L 1779 1088 
L 1779 457 
C 1779 224 1766 160 1318 160 
L 1197 160 
L 1197 0 
C 1402 0 1747 0 1965 0 
C 2182 0 2528 0 2733 0 
L 2733 160 
L 2611 160 
C 2163 160 2150 224 2150 457 
L 2150 1088 
L 2803 1088 
L 2803 1254 
L 2150 1254 
L 2150 4122 
z
M 1798 3703 
L 1798 1254 
L 256 1254 
L 1798 3703 
z
" transform="scale(0.015625)"/>
     </defs>
     <use xlink:href="#CMR17-59" transform="scale(0.996264)"/>
     <use xlink:href="#CMR17-65" transform="translate(61.265174 0) scale(0.996264)"/>
     <use xlink:href="#CMR17-61" transform="translate(101.750835 0) scale(0.996264)"/>
     <use xlink:href="#CMR17-72" transform="translate(147.441312 0) scale(0.996264)"/>
     <use xlink:href="#CMR17-3a" transform="translate(182.72208 0) scale(0.996264)"/>
     <use xlink:href="#CMR17-31" transform="translate(248.078799 0) scale(0.996264)"/>
     <use xlink:href="#CMR17-38" transform="translate(293.769276 0) scale(0.996264)"/>
     <use xlink:href="#CMR17-38" transform="translate(339.459753 0) scale(0.996264)"/>
     <use xlink:href="#CMR17-34" transform="translate(385.15023 0) scale(0.996264)"/>
    </g>
   </g>
  </g>
  <g id="axes_2">
   <g id="patch_7">
    <path d="M 717.33359 853.2 
L 759.45359 853.2 
L 759.45359 10.8 
L 717.33359 10.8 
z
" style="fill: #ffffff"/>
   </g>
   <g id="QuadMesh_1">
    <path d="M 717.33359 853.2 
L 759.45359 853.2 
L 759.45359 747.9 
L 717.33359 747.9 
L 717.33359 853.2 
" clip-path="url(#pb17d8c0e58)" style="fill: #ad35ca"/>
    <path d="M 717.33359 747.9 
L 759.45359 747.9 
L 759.45359 642.6 
L 717.33359 642.6 
L 717.33359 747.9 
" clip-path="url(#pb17d8c0e58)" style="fill: #8f81b5"/>
    <path d="M 717.33359 642.6 
L 759.45359 642.6 
L 759.45359 537.3 
L 717.33359 537.3 
L 717.33359 642.6 
" clip-path="url(#pb17d8c0e58)" style="fill: #879dba"/>
    <path d="M 717.33359 537.3 
L 759.45359 537.3 
L 759.45359 432 
L 717.33359 432 
L 717.33359 537.3 
" clip-path="url(#pb17d8c0e58)" style="fill: #7bb4be"/>
    <path d="M 717.33359 432 
L 759.45359 432 
L 759.45359 326.7 
L 717.33359 326.7 
L 717.33359 432 
" clip-path="url(#pb17d8c0e58)" style="fill: #79c6b7"/>
    <path d="M 717.33359 326.7 
L 759.45359 326.7 
L 759.45359 221.4 
L 717.33359 221.4 
L 717.33359 326.7 
" clip-path="url(#pb17d8c0e58)" style="fill: #a1ccad"/>
    <path d="M 717.33359 221.4 
L 759.45359 221.4 
L 759.45359 116.1 
L 717.33359 116.1 
L 717.33359 221.4 
" clip-path="url(#pb17d8c0e58)" style="fill: #c1d59b"/>
    <path d="M 717.33359 116.1 
L 759.45359 116.1 
L 759.45359 10.8 
L 717.33359 10.8 
L 717.33359 116.1 
" clip-path="url(#pb17d8c0e58)" style="fill: #e4dc96"/>
   </g>
   <g id="matplotlib.axis_3"/>
   <g id="matplotlib.axis_4">
    <g id="ytick_7">
     <g id="line2d_1">
      <defs>
       <path id="m68b0225828" d="M 0 0 
L 3.5 0 
" style="stroke: #000000; stroke-width: 0.8"/>
      </defs>
      <g>
       <use xlink:href="#m68b0225828" x="759.45359" y="800.55" style="stroke: #000000; stroke-width: 0.8"/>
      </g>
     </g>
     <g id="text_2">
      <!-- 0 -->
      <g transform="translate(766.45359 811.619603) scale(0.32 -0.32)">
       <defs>
        <path id="CMR17-30" d="M 2688 2025 
C 2688 2416 2682 3080 2413 3591 
C 2176 4039 1798 4198 1466 4198 
C 1158 4198 768 4058 525 3597 
C 269 3118 243 2524 243 2025 
C 243 1661 250 1106 448 619 
C 723 -39 1216 -128 1466 -128 
C 1760 -128 2208 -7 2470 600 
C 2662 1042 2688 1559 2688 2025 
z
M 1466 -26 
C 1056 -26 813 325 723 812 
C 653 1188 653 1738 653 2096 
C 653 2588 653 2997 736 3387 
C 858 3929 1216 4096 1466 4096 
C 1728 4096 2067 3923 2189 3400 
C 2272 3036 2278 2607 2278 2096 
C 2278 1680 2278 1169 2202 792 
C 2067 95 1690 -26 1466 -26 
z
" transform="scale(0.015625)"/>
       </defs>
       <use xlink:href="#CMR17-30" transform="scale(0.996264)"/>
      </g>
     </g>
    </g>
    <g id="ytick_8">
     <g id="line2d_2">
      <g>
       <use xlink:href="#m68b0225828" x="759.45359" y="695.25" style="stroke: #000000; stroke-width: 0.8"/>
      </g>
     </g>
     <g id="text_3">
      <!-- 1 -->
      <g transform="translate(766.45359 706.319603) scale(0.32 -0.32)">
       <use xlink:href="#CMR17-31" transform="scale(0.996264)"/>
      </g>
     </g>
    </g>
    <g id="ytick_9">
     <g id="line2d_3">
      <g>
       <use xlink:href="#m68b0225828" x="759.45359" y="589.95" style="stroke: #000000; stroke-width: 0.8"/>
      </g>
     </g>
     <g id="text_4">
      <!-- 2 -->
      <g transform="translate(766.45359 601.019603) scale(0.32 -0.32)">
       <defs>
        <path id="CMR17-32" d="M 2669 989 
L 2554 989 
C 2490 536 2438 459 2413 420 
C 2381 369 1920 369 1830 369 
L 602 369 
C 832 619 1280 1072 1824 1597 
C 2214 1967 2669 2402 2669 3035 
C 2669 3790 2067 4224 1395 4224 
C 691 4224 262 3604 262 3030 
C 262 2780 448 2748 525 2748 
C 589 2748 781 2787 781 3010 
C 781 3207 614 3264 525 3264 
C 486 3264 448 3258 422 3245 
C 544 3790 915 4058 1306 4058 
C 1862 4058 2227 3617 2227 3035 
C 2227 2479 1901 2000 1536 1584 
L 262 146 
L 262 0 
L 2515 0 
L 2669 989 
z
" transform="scale(0.015625)"/>
       </defs>
       <use xlink:href="#CMR17-32" transform="scale(0.996264)"/>
      </g>
     </g>
    </g>
    <g id="ytick_10">
     <g id="line2d_4">
      <g>
       <use xlink:href="#m68b0225828" x="759.45359" y="484.65" style="stroke: #000000; stroke-width: 0.8"/>
      </g>
     </g>
     <g id="text_5">
      <!-- 3 -->
      <g transform="translate(766.45359 495.719603) scale(0.32 -0.32)">
       <defs>
        <path id="CMR17-33" d="M 1414 2157 
C 1984 2157 2234 1662 2234 1090 
C 2234 320 1824 25 1453 25 
C 1114 25 563 194 390 693 
C 422 680 454 680 486 680 
C 640 680 755 782 755 948 
C 755 1133 614 1216 486 1216 
C 378 1216 211 1165 211 926 
C 211 335 787 -128 1466 -128 
C 2176 -128 2720 430 2720 1085 
C 2720 1707 2208 2157 1600 2227 
C 2086 2328 2554 2756 2554 3329 
C 2554 3820 2048 4179 1472 4179 
C 890 4179 378 3829 378 3329 
C 378 3110 544 3072 627 3072 
C 762 3072 877 3155 877 3321 
C 877 3486 762 3569 627 3569 
C 602 3569 570 3569 544 3557 
C 730 3959 1235 4032 1459 4032 
C 1683 4032 2106 3925 2106 3320 
C 2106 3143 2080 2828 1862 2550 
C 1670 2304 1453 2304 1242 2284 
C 1210 2284 1062 2269 1037 2269 
C 992 2263 966 2257 966 2208 
C 966 2163 973 2157 1101 2157 
L 1414 2157 
z
" transform="scale(0.015625)"/>
       </defs>
       <use xlink:href="#CMR17-33" transform="scale(0.996264)"/>
      </g>
     </g>
    </g>
    <g id="ytick_11">
     <g id="line2d_5">
      <g>
       <use xlink:href="#m68b0225828" x="759.45359" y="379.35" style="stroke: #000000; stroke-width: 0.8"/>
      </g>
     </g>
     <g id="text_6">
      <!-- 4 -->
      <g transform="translate(766.45359 390.419603) scale(0.32 -0.32)">
       <use xlink:href="#CMR17-34" transform="scale(0.996264)"/>
      </g>
     </g>
    </g>
    <g id="ytick_12">
     <g id="line2d_6">
      <g>
       <use xlink:href="#m68b0225828" x="759.45359" y="274.05" style="stroke: #000000; stroke-width: 0.8"/>
      </g>
     </g>
     <g id="text_7">
      <!-- 5 -->
      <g transform="translate(766.45359 285.119603) scale(0.32 -0.32)">
       <defs>
        <path id="CMR17-35" d="M 730 3692 
C 794 3666 1056 3584 1325 3584 
C 1920 3584 2246 3911 2432 4100 
C 2432 4157 2432 4192 2394 4192 
C 2387 4192 2374 4192 2323 4163 
C 2099 4058 1837 3973 1517 3973 
C 1325 3973 1037 3999 723 4139 
C 653 4171 640 4171 634 4171 
C 602 4171 595 4164 595 4037 
L 595 2203 
C 595 2089 595 2057 659 2057 
C 691 2057 704 2070 736 2114 
C 941 2401 1222 2522 1542 2522 
C 1766 2522 2246 2382 2246 1289 
C 2246 1085 2246 715 2054 421 
C 1894 159 1645 25 1370 25 
C 947 25 518 320 403 814 
C 429 807 480 795 506 795 
C 589 795 749 840 749 1038 
C 749 1210 627 1280 506 1280 
C 358 1280 262 1190 262 1011 
C 262 454 704 -128 1382 -128 
C 2042 -128 2669 440 2669 1264 
C 2669 2030 2170 2624 1549 2624 
C 1222 2624 947 2503 730 2274 
L 730 3692 
z
" transform="scale(0.015625)"/>
       </defs>
       <use xlink:href="#CMR17-35" transform="scale(0.996264)"/>
      </g>
     </g>
    </g>
    <g id="ytick_13">
     <g id="line2d_7">
      <g>
       <use xlink:href="#m68b0225828" x="759.45359" y="168.75" style="stroke: #000000; stroke-width: 0.8"/>
      </g>
     </g>
     <g id="text_8">
      <!-- 6 -->
      <g transform="translate(766.45359 179.819603) scale(0.32 -0.32)">
       <defs>
        <path id="CMR17-36" d="M 678 2176 
C 678 3690 1395 4032 1811 4032 
C 1946 4032 2272 4009 2400 3776 
C 2298 3776 2106 3776 2106 3553 
C 2106 3381 2246 3323 2336 3323 
C 2394 3323 2566 3348 2566 3560 
C 2566 3954 2246 4179 1805 4179 
C 1043 4179 243 3390 243 1984 
C 243 253 966 -128 1478 -128 
C 2099 -128 2688 427 2688 1283 
C 2688 2081 2170 2662 1517 2662 
C 1126 2662 838 2407 678 1960 
L 678 2176 
z
M 1478 25 
C 691 25 691 1200 691 1436 
C 691 1896 909 2560 1504 2560 
C 1613 2560 1926 2560 2138 2120 
C 2253 1870 2253 1609 2253 1289 
C 2253 944 2253 690 2118 434 
C 1978 171 1773 25 1478 25 
z
" transform="scale(0.015625)"/>
       </defs>
       <use xlink:href="#CMR17-36" transform="scale(0.996264)"/>
      </g>
     </g>
    </g>
    <g id="ytick_14">
     <g id="line2d_8">
      <g>
       <use xlink:href="#m68b0225828" x="759.45359" y="63.45" style="stroke: #000000; stroke-width: 0.8"/>
      </g>
     </g>
     <g id="text_9">
      <!-- 7 -->
      <g transform="translate(766.45359 74.519603) scale(0.32 -0.32)">
       <defs>
        <path id="CMR17-37" d="M 2886 3941 
L 2886 4081 
L 1382 4081 
C 634 4081 621 4165 595 4288 
L 480 4288 
L 294 3094 
L 410 3094 
C 429 3215 474 3540 550 3661 
C 589 3712 1062 3712 1171 3712 
L 2579 3712 
L 1869 2661 
C 1395 1954 1069 999 1069 165 
C 1069 89 1069 -128 1299 -128 
C 1530 -128 1530 89 1530 171 
L 1530 465 
C 1530 1508 1709 2196 2003 2636 
L 2886 3941 
z
" transform="scale(0.015625)"/>
       </defs>
       <use xlink:href="#CMR17-37" transform="scale(0.996264)"/>
      </g>
     </g>
    </g>
    <g id="ytick_15">
     <g id="line2d_9">
      <defs>
       <path id="m35e7780044" d="M 0 0 
L 2 0 
" style="stroke: #000000; stroke-width: 0.6"/>
      </defs>
      <g>
       <use xlink:href="#m35e7780044" x="759.45359" y="853.2" style="stroke: #000000; stroke-width: 0.6"/>
      </g>
     </g>
    </g>
    <g id="ytick_16">
     <g id="line2d_10">
      <g>
       <use xlink:href="#m35e7780044" x="759.45359" y="747.9" style="stroke: #000000; stroke-width: 0.6"/>
      </g>
     </g>
    </g>
    <g id="ytick_17">
     <g id="line2d_11">
      <g>
       <use xlink:href="#m35e7780044" x="759.45359" y="642.6" style="stroke: #000000; stroke-width: 0.6"/>
      </g>
     </g>
    </g>
    <g id="ytick_18">
     <g id="line2d_12">
      <g>
       <use xlink:href="#m35e7780044" x="759.45359" y="537.3" style="stroke: #000000; stroke-width: 0.6"/>
      </g>
     </g>
    </g>
    <g id="ytick_19">
     <g id="line2d_13">
      <g>
       <use xlink:href="#m35e7780044" x="759.45359" y="432" style="stroke: #000000; stroke-width: 0.6"/>
      </g>
     </g>
    </g>
    <g id="ytick_20">
     <g id="line2d_14">
      <g>
       <use xlink:href="#m35e7780044" x="759.45359" y="326.7" style="stroke: #000000; stroke-width: 0.6"/>
      </g>
     </g>
    </g>
    <g id="ytick_21">
     <g id="line2d_15">
      <g>
       <use xlink:href="#m35e7780044" x="759.45359" y="221.4" style="stroke: #000000; stroke-width: 0.6"/>
      </g>
     </g>
    </g>
    <g id="ytick_22">
     <g id="line2d_16">
      <g>
       <use xlink:href="#m35e7780044" x="759.45359" y="116.1" style="stroke: #000000; stroke-width: 0.6"/>
      </g>
     </g>
    </g>
    <g id="ytick_23">
     <g id="line2d_17">
      <g>
       <use xlink:href="#m35e7780044" x="759.45359" y="10.8" style="stroke: #000000; stroke-width: 0.6"/>
      </g>
     </g>
    </g>
    <g id="text_10">
     <!-- Node Depth -->
     <g transform="translate(828.899641 543.95779) rotate(-90) scale(0.46 -0.46)">
      <defs>
       <path id="CMR17-4e" d="M 1312 4250 
C 1267 4320 1261 4320 1139 4320 
L 326 4320 
L 326 4160 
L 448 4160 
C 704 4160 819 4129 838 4122 
L 838 610 
C 838 451 838 153 326 153 
L 326 -13 
C 474 0 742 0 902 0 
C 1062 0 1331 0 1478 -13 
L 1478 153 
C 966 153 966 451 966 610 
L 966 4033 
C 1011 3995 1011 3982 1056 3919 
L 3430 76 
C 3475 0 3494 0 3526 0 
C 3590 0 3590 19 3590 139 
L 3590 3705 
C 3590 3863 3590 4160 4102 4160 
L 4102 4326 
C 3955 4320 3686 4320 3526 4320 
C 3366 4320 3098 4320 2950 4326 
L 2950 4160 
C 3462 4160 3462 3862 3462 3703 
L 3462 763 
L 1312 4250 
z
" transform="scale(0.015625)"/>
       <path id="CMR17-6f" d="M 2758 1356 
C 2758 2176 2163 2816 1466 2816 
C 768 2816 173 2176 173 1356 
C 173 551 768 -64 1466 -64 
C 2163 -64 2758 551 2758 1356 
z
M 1466 51 
C 1165 51 909 230 762 480 
C 602 767 582 1126 582 1408 
C 582 1677 595 2010 762 2298 
C 890 2509 1139 2714 1466 2714 
C 1754 2714 1997 2554 2150 2330 
C 2349 2029 2349 1607 2349 1408 
C 2349 1158 2336 775 2163 467 
C 1984 173 1709 51 1466 51 
z
" transform="scale(0.015625)"/>
       <path id="CMR17-64" d="M 1869 4326 
L 1869 4160 
C 2246 4160 2304 4122 2304 3820 
L 2304 2345 
C 2278 2377 2016 2790 1498 2790 
C 845 2790 211 2208 211 1364 
C 211 525 806 -64 1434 -64 
C 1978 -64 2259 337 2291 380 
L 2291 -63 
L 3066 -63 
L 3066 128 
C 2688 128 2630 166 2630 473 
L 2630 4396 
L 1869 4326 
z
M 2291 755 
C 2291 563 2176 390 2029 262 
C 1811 70 1594 38 1472 38 
C 1286 38 621 134 621 1356 
C 621 2612 1363 2688 1530 2688 
C 1824 2688 2061 2522 2208 2291 
C 2291 2157 2291 2138 2291 2023 
L 2291 755 
z
" transform="scale(0.015625)"/>
       <path id="CMR17-44" d="M 333 4352 
L 333 4186 
C 774 4186 845 4186 845 3900 
L 845 452 
C 845 166 774 166 333 166 
L 333 0 
L 2368 0 
C 3398 0 4224 943 4224 2141 
C 4224 3346 3411 4352 2368 4352 
L 333 4352 
z
M 1523 166 
C 1267 166 1254 197 1254 414 
L 1254 3938 
C 1254 4155 1267 4186 1523 4186 
L 2240 4186 
C 2771 4186 3750 3874 3750 2141 
C 3750 1242 3488 879 3366 707 
C 3213 510 2848 166 2240 166 
L 1523 166 
z
" transform="scale(0.015625)"/>
       <path id="CMR17-70" d="M 1408 -1063 
C 998 -1063 973 -1037 973 -789 
L 973 402 
C 1158 134 1427 -38 1766 -38 
C 2406 -38 3053 523 3053 1388 
C 3053 2191 2496 2802 1837 2802 
C 1453 2802 1139 2592 960 2338 
L 960 2802 
L 198 2732 
L 198 2567 
C 576 2567 634 2528 634 2223 
L 634 -789 
C 634 -1031 608 -1063 198 -1063 
L 198 -1228 
C 352 -1216 634 -1216 800 -1216 
C 966 -1216 1254 -1216 1408 -1228 
L 1408 -1063 
z
M 973 2012 
C 973 2102 973 2235 1222 2471 
C 1254 2497 1472 2688 1792 2688 
C 2259 2688 2643 2108 2643 1382 
C 2643 656 2234 64 1728 64 
C 1498 64 1248 172 1056 472 
C 973 612 973 650 973 752 
L 973 2012 
z
" transform="scale(0.015625)"/>
       <path id="CMR17-74" d="M 966 2560 
L 1862 2560 
L 1862 2725 
L 966 2725 
L 966 3904 
L 851 3904 
C 838 3245 614 2668 70 2668 
L 70 2560 
L 627 2560 
L 627 771 
C 627 650 627 -64 1370 -64 
C 1747 -64 1965 306 1965 777 
L 1965 1140 
L 1850 1140 
L 1850 783 
C 1850 344 1677 51 1408 51 
C 1222 51 966 178 966 758 
L 966 2560 
z
" transform="scale(0.015625)"/>
       <path id="CMR17-68" d="M 2656 1933 
C 2656 2259 2592 2790 1837 2790 
C 1312 2790 1056 2368 979 2157 
L 973 2157 
L 973 4396 
L 211 4326 
L 211 4160 
C 589 4160 646 4122 646 3817 
L 646 426 
C 646 184 621 153 211 153 
L 211 -13 
C 365 0 646 0 813 0 
C 979 0 1267 0 1421 -13 
L 1421 153 
C 1011 153 986 178 986 428 
L 986 1658 
C 986 2247 1344 2688 1792 2688 
C 2266 2688 2317 2266 2317 1958 
L 2317 428 
C 2317 184 2291 153 1882 153 
L 1882 -13 
C 2035 0 2317 0 2483 0 
C 2650 0 2938 0 3091 -13 
L 3091 153 
C 2682 153 2656 178 2656 428 
L 2656 1933 
z
" transform="scale(0.015625)"/>
      </defs>
      <use xlink:href="#CMR17-4e" transform="scale(0.996264)"/>
      <use xlink:href="#CMR17-6f" transform="translate(69.07243 0) scale(0.996264)"/>
      <use xlink:href="#CMR17-64" transform="translate(117.365346 0) scale(0.996264)"/>
      <use xlink:href="#CMR17-65" transform="translate(168.260715 0) scale(0.996264)"/>
      <use xlink:href="#CMR17-44" transform="translate(238.822342 0) scale(0.996264)"/>
      <use xlink:href="#CMR17-65" transform="translate(309.215898 0) scale(0.996264)"/>
      <use xlink:href="#CMR17-70" transform="translate(349.701559 0) scale(0.996264)"/>
      <use xlink:href="#CMR17-74" transform="translate(400.596928 0) scale(0.996264)"/>
      <use xlink:href="#CMR17-68" transform="translate(435.877696 0) scale(0.996264)"/>
     </g>
    </g>
   </g>
   <g id="LineCollection_2"/>
   <g id="patch_8">
    <path d="M 717.33359 853.2 
L 738.39359 853.2 
L 759.45359 853.2 
L 759.45359 10.8 
L 738.39359 10.8 
L 717.33359 10.8 
L 717.33359 853.2 
z
" style="fill: none; stroke: #000000; stroke-width: 0.8; stroke-linejoin: miter; stroke-linecap: square"/>
   </g>
  </g>
 </g>
 <defs>
  <clipPath id="p0fa3d26987">
   <rect x="10.8" y="99.513605" width="664.972791" height="664.972791"/>
  </clipPath>
  <clipPath id="pb17d8c0e58">
   <rect x="717.33359" y="10.8" width="42.12" height="842.4"/>
  </clipPath>
 </defs>
</svg>
