<?xml version="1.0" encoding="utf-8" standalone="no"?>
<!DOCTYPE svg PUBLIC "-//W3C//DTD SVG 1.1//EN"
  "http://www.w3.org/Graphics/SVG/1.1/DTD/svg11.dtd">
<svg xmlns:xlink="http://www.w3.org/1999/xlink" width="864pt" height="864pt" viewBox="0 0 864 864" xmlns="http://www.w3.org/2000/svg" version="1.1">
 <metadata>
  <rdf:RDF xmlns:dc="http://purl.org/dc/elements/1.1/" xmlns:cc="http://creativecommons.org/ns#" xmlns:rdf="http://www.w3.org/1999/02/22-rdf-syntax-ns#">
   <cc:Work>
    <dc:type rdf:resource="http://purl.org/dc/dcmitype/StillImage"/>
    <dc:date>2026-06-09T22:33:02.473416</dc:date>
    <dc:format>image/svg+xml</dc:format>
    <dc:creator>
     <cc:Agent>
      <dc:title>Matplotlib v3.9.2, https://matplotlib.org/</dc:title>
     </cc:Agent>
    </dc:creator>
   </cc:Work>
  </rdf:RDF>
 </metadata>
 <defs>
  <style type="text/css">*{stroke-linejoin: round; stroke-linecap: butt}</style>
 </defs>
 <g id="figure_1">
  <g id="patch_1">
   <path d="M 0 864 
L 864 864 
L 864 0 
L 0 0 
z
" style="fill: #ffffff"/>
  </g>
  <g id="axes_1">
   <g id="patch_2">
    <path d="M 10.8 764.486395 
L 675.772791 764.486395 
L 675.772791 99.513605 
L 10.8 99.513605 
z
" style="fill: #ffffff"/>
   </g>
   <g id="LineCollection_1">
    <path d="M 343.296902 431.989494 
L 218.480152 346.487919 
" clip-path="url(#p5edfb76dfa)" style="fill: none; stroke: #808080; stroke-opacity: 0.3"/>
    <path d="M 343.296902 431.989494 
L 416.905163 564.169171 
" clip-path="url(#p5edfb76dfa)" style="fill: none; stroke: #808080; stroke-opacity: 0.3"/>
    <path d="M 343.296902 431.989494 
L 478.725176 499.440969 
" clip-path="url(#p5edfb76dfa)" style="fill: none; stroke: #808080; stroke-opacity: 0.3"/>
    <path d="M 218.480152 346.487919 
L 645.546755 418.015901 
" clip-path="url(#p5edfb76dfa)" style="fill: none; stroke: #808080; stroke-opacity: 0.3"/>
    <path d="M 218.480152 346.487919 
L 642.983178 390.194794 
" clip-path="url(#p5edfb76dfa)" style="fill: none; stroke: #808080; stroke-opacity: 0.3"/>
    <path d="M 218.480152 346.487919 
L 637.835013 362.709894 
" clip-path="url(#p5edfb76dfa)" style="fill: none; stroke: #808080; stroke-opacity: 0.3"/>
    <path d="M 218.480152 346.487919 
L 630.18631 335.834368 
" clip-path="url(#p5edfb76dfa)" style="fill: none; stroke: #808080; stroke-opacity: 0.3"/>
    <path d="M 218.480152 346.487919 
L 620.100108 309.778346 
" clip-path="url(#p5edfb76dfa)" style="fill: none; stroke: #808080; stroke-opacity: 0.3"/>
    <path d="M 218.480152 346.487919 
L 607.639446 284.751957 
" clip-path="url(#p5edfb76dfa)" style="fill: none; stroke: #808080; stroke-opacity: 0.3"/>
    <path d="M 218.480152 346.487919 
L 592.930401 260.986344 
" clip-path="url(#p5edfb76dfa)" style="fill: none; stroke: #808080; stroke-opacity: 0.3"/>
    <path d="M 218.480152 346.487919 
L 576.078039 238.691635 
" clip-path="url(#p5edfb76dfa)" style="fill: none; stroke: #808080; stroke-opacity: 0.3"/>
    <path d="M 218.480152 346.487919 
L 557.250461 218.035934 
" clip-path="url(#p5edfb76dfa)" style="fill: none; stroke: #808080; stroke-opacity: 0.3"/>
    <path d="M 218.480152 346.487919 
L 536.59476 199.208357 
" clip-path="url(#p5edfb76dfa)" style="fill: none; stroke: #808080; stroke-opacity: 0.3"/>
    <path d="M 218.480152 346.487919 
L 514.300051 182.355994 
" clip-path="url(#p5edfb76dfa)" style="fill: none; stroke: #808080; stroke-opacity: 0.3"/>
    <path d="M 218.480152 346.487919 
L 490.534438 167.64695 
" clip-path="url(#p5edfb76dfa)" style="fill: none; stroke: #808080; stroke-opacity: 0.3"/>
    <path d="M 218.480152 346.487919 
L 465.508049 155.186288 
" clip-path="url(#p5edfb76dfa)" style="fill: none; stroke: #808080; stroke-opacity: 0.3"/>
    <path d="M 218.480152 346.487919 
L 439.452027 145.100086 
" clip-path="url(#p5edfb76dfa)" style="fill: none; stroke: #808080; stroke-opacity: 0.3"/>
    <path d="M 218.480152 346.487919 
L 412.555489 137.451383 
" clip-path="url(#p5edfb76dfa)" style="fill: none; stroke: #808080; stroke-opacity: 0.3"/>
    <path d="M 218.480152 346.487919 
L 385.091601 132.303217 
" clip-path="url(#p5edfb76dfa)" style="fill: none; stroke: #808080; stroke-opacity: 0.3"/>
    <path d="M 218.480152 346.487919 
L 357.270494 129.739641 
" clip-path="url(#p5edfb76dfa)" style="fill: none; stroke: #808080; stroke-opacity: 0.3"/>
    <path d="M 218.480152 346.487919 
L 329.323309 129.739641 
" clip-path="url(#p5edfb76dfa)" style="fill: none; stroke: #808080; stroke-opacity: 0.3"/>
    <path d="M 218.480152 346.487919 
L 301.481189 132.303217 
" clip-path="url(#p5edfb76dfa)" style="fill: none; stroke: #808080; stroke-opacity: 0.3"/>
    <path d="M 218.480152 346.487919 
L 274.017302 137.451383 
" clip-path="url(#p5edfb76dfa)" style="fill: none; stroke: #808080; stroke-opacity: 0.3"/>
    <path d="M 218.480152 346.487919 
L 247.120763 145.100086 
" clip-path="url(#p5edfb76dfa)" style="fill: none; stroke: #808080; stroke-opacity: 0.3"/>
    <path d="M 218.480152 346.487919 
L 221.064741 155.186288 
" clip-path="url(#p5edfb76dfa)" style="fill: none; stroke: #808080; stroke-opacity: 0.3"/>
    <path d="M 218.480152 346.487919 
L 196.059366 167.64695 
" clip-path="url(#p5edfb76dfa)" style="fill: none; stroke: #808080; stroke-opacity: 0.3"/>
    <path d="M 218.480152 346.487919 
L 172.293752 182.355994 
" clip-path="url(#p5edfb76dfa)" style="fill: none; stroke: #808080; stroke-opacity: 0.3"/>
    <path d="M 218.480152 346.487919 
L 149.97803 199.208357 
" clip-path="url(#p5edfb76dfa)" style="fill: none; stroke: #808080; stroke-opacity: 0.3"/>
    <path d="M 218.480152 346.487919 
L 129.322329 218.035934 
" clip-path="url(#p5edfb76dfa)" style="fill: none; stroke: #808080; stroke-opacity: 0.3"/>
    <path d="M 218.480152 346.487919 
L 110.494752 238.691635 
" clip-path="url(#p5edfb76dfa)" style="fill: none; stroke: #808080; stroke-opacity: 0.3"/>
    <path d="M 218.480152 346.487919 
L 93.663403 260.986344 
" clip-path="url(#p5edfb76dfa)" style="fill: none; stroke: #808080; stroke-opacity: 0.3"/>
    <path d="M 218.480152 346.487919 
L 78.933345 284.751957 
" clip-path="url(#p5edfb76dfa)" style="fill: none; stroke: #808080; stroke-opacity: 0.3"/>
    <path d="M 218.480152 346.487919 
L 66.493696 309.778346 
" clip-path="url(#p5edfb76dfa)" style="fill: none; stroke: #808080; stroke-opacity: 0.3"/>
    <path d="M 218.480152 346.487919 
L 56.386481 335.834368 
" clip-path="url(#p5edfb76dfa)" style="fill: none; stroke: #808080; stroke-opacity: 0.3"/>
    <path d="M 218.480152 346.487919 
L 48.737778 362.709894 
" clip-path="url(#p5edfb76dfa)" style="fill: none; stroke: #808080; stroke-opacity: 0.3"/>
    <path d="M 218.480152 346.487919 
L 43.610625 390.194794 
" clip-path="url(#p5edfb76dfa)" style="fill: none; stroke: #808080; stroke-opacity: 0.3"/>
    <path d="M 218.480152 346.487919 
L 41.026036 418.015901 
" clip-path="url(#p5edfb76dfa)" style="fill: none; stroke: #808080; stroke-opacity: 0.3"/>
    <path d="M 218.480152 346.487919 
L 41.026036 445.963086 
" clip-path="url(#p5edfb76dfa)" style="fill: none; stroke: #808080; stroke-opacity: 0.3"/>
    <path d="M 218.480152 346.487919 
L 43.610625 473.805206 
" clip-path="url(#p5edfb76dfa)" style="fill: none; stroke: #808080; stroke-opacity: 0.3"/>
    <path d="M 218.480152 346.487919 
L 48.737778 501.269093 
" clip-path="url(#p5edfb76dfa)" style="fill: none; stroke: #808080; stroke-opacity: 0.3"/>
    <path d="M 218.480152 346.487919 
L 56.386481 528.165632 
" clip-path="url(#p5edfb76dfa)" style="fill: none; stroke: #808080; stroke-opacity: 0.3"/>
    <path d="M 218.480152 346.487919 
L 66.493696 554.221654 
" clip-path="url(#p5edfb76dfa)" style="fill: none; stroke: #808080; stroke-opacity: 0.3"/>
    <path d="M 218.480152 346.487919 
L 78.933345 579.237536 
" clip-path="url(#p5edfb76dfa)" style="fill: none; stroke: #808080; stroke-opacity: 0.3"/>
    <path d="M 218.480152 346.487919 
L 93.663403 602.998947 
" clip-path="url(#p5edfb76dfa)" style="fill: none; stroke: #808080; stroke-opacity: 0.3"/>
    <path d="M 218.480152 346.487919 
L 110.494752 625.304162 
" clip-path="url(#p5edfb76dfa)" style="fill: none; stroke: #808080; stroke-opacity: 0.3"/>
    <path d="M 218.480152 346.487919 
L 129.322329 645.957762 
" clip-path="url(#p5edfb76dfa)" style="fill: none; stroke: #808080; stroke-opacity: 0.3"/>
    <path d="M 218.480152 346.487919 
L 149.97803 664.787441 
" clip-path="url(#p5edfb76dfa)" style="fill: none; stroke: #808080; stroke-opacity: 0.3"/>
    <path d="M 218.480152 346.487919 
L 172.293752 681.629297 
" clip-path="url(#p5edfb76dfa)" style="fill: none; stroke: #808080; stroke-opacity: 0.3"/>
    <path d="M 218.480152 346.487919 
L 196.059366 696.342544 
" clip-path="url(#p5edfb76dfa)" style="fill: none; stroke: #808080; stroke-opacity: 0.3"/>
    <path d="M 218.480152 346.487919 
L 221.064741 708.801105 
" clip-path="url(#p5edfb76dfa)" style="fill: none; stroke: #808080; stroke-opacity: 0.3"/>
    <path d="M 218.480152 346.487919 
L 247.120763 718.897813 
" clip-path="url(#p5edfb76dfa)" style="fill: none; stroke: #808080; stroke-opacity: 0.3"/>
    <path d="M 218.480152 346.487919 
L 274.017302 726.546516 
" clip-path="url(#p5edfb76dfa)" style="fill: none; stroke: #808080; stroke-opacity: 0.3"/>
    <path d="M 218.480152 346.487919 
L 301.481189 731.682074 
" clip-path="url(#p5edfb76dfa)" style="fill: none; stroke: #808080; stroke-opacity: 0.3"/>
    <path d="M 218.480152 346.487919 
L 329.323309 734.260359 
" clip-path="url(#p5edfb76dfa)" style="fill: none; stroke: #808080; stroke-opacity: 0.3"/>
    <path d="M 218.480152 346.487919 
L 357.270494 734.260359 
" clip-path="url(#p5edfb76dfa)" style="fill: none; stroke: #808080; stroke-opacity: 0.3"/>
    <path d="M 218.480152 346.487919 
L 385.091601 731.682074 
" clip-path="url(#p5edfb76dfa)" style="fill: none; stroke: #808080; stroke-opacity: 0.3"/>
    <path d="M 218.480152 346.487919 
L 412.555489 726.546516 
" clip-path="url(#p5edfb76dfa)" style="fill: none; stroke: #808080; stroke-opacity: 0.3"/>
    <path d="M 218.480152 346.487919 
L 439.452027 718.897813 
" clip-path="url(#p5edfb76dfa)" style="fill: none; stroke: #808080; stroke-opacity: 0.3"/>
    <path d="M 416.905163 564.169171 
L 465.508049 708.801105 
" clip-path="url(#p5edfb76dfa)" style="fill: none; stroke: #808080; stroke-opacity: 0.3"/>
    <path d="M 416.905163 564.169171 
L 490.534438 696.342544 
" clip-path="url(#p5edfb76dfa)" style="fill: none; stroke: #808080; stroke-opacity: 0.3"/>
    <path d="M 416.905163 564.169171 
L 514.300051 681.629297 
" clip-path="url(#p5edfb76dfa)" style="fill: none; stroke: #808080; stroke-opacity: 0.3"/>
    <path d="M 478.725176 499.440969 
L 536.59476 664.787441 
" clip-path="url(#p5edfb76dfa)" style="fill: none; stroke: #808080; stroke-opacity: 0.3"/>
    <path d="M 478.725176 499.440969 
L 557.250461 645.957762 
" clip-path="url(#p5edfb76dfa)" style="fill: none; stroke: #808080; stroke-opacity: 0.3"/>
    <path d="M 478.725176 499.440969 
L 576.078039 625.304162 
" clip-path="url(#p5edfb76dfa)" style="fill: none; stroke: #808080; stroke-opacity: 0.3"/>
    <path d="M 478.725176 499.440969 
L 592.930401 602.998947 
" clip-path="url(#p5edfb76dfa)" style="fill: none; stroke: #808080; stroke-opacity: 0.3"/>
    <path d="M 478.725176 499.440969 
L 607.639446 579.237536 
" clip-path="url(#p5edfb76dfa)" style="fill: none; stroke: #808080; stroke-opacity: 0.3"/>
    <path d="M 478.725176 499.440969 
L 620.100108 554.221654 
" clip-path="url(#p5edfb76dfa)" style="fill: none; stroke: #808080; stroke-opacity: 0.3"/>
    <path d="M 478.725176 499.440969 
L 630.18631 528.165632 
" clip-path="url(#p5edfb76dfa)" style="fill: none; stroke: #808080; stroke-opacity: 0.3"/>
    <path d="M 478.725176 499.440969 
L 637.835013 501.269093 
" clip-path="url(#p5edfb76dfa)" style="fill: none; stroke: #808080; stroke-opacity: 0.3"/>
    <path d="M 478.725176 499.440969 
L 642.983178 473.805206 
" clip-path="url(#p5edfb76dfa)" style="fill: none; stroke: #808080; stroke-opacity: 0.3"/>
    <path d="M 478.725176 499.440969 
L 645.546755 445.963086 
" clip-path="url(#p5edfb76dfa)" style="fill: none; stroke: #808080; stroke-opacity: 0.3"/>
   </g>
   <g id="matplotlib.axis_1">
    <g id="xtick_1"/>
    <g id="xtick_2"/>
    <g id="xtick_3"/>
    <g id="xtick_4"/>
    <g id="xtick_5"/>
    <g id="xtick_6"/>
   </g>
   <g id="matplotlib.axis_2">
    <g id="ytick_1"/>
    <g id="ytick_2"/>
    <g id="ytick_3"/>
    <g id="ytick_4"/>
    <g id="ytick_5"/>
    <g id="ytick_6"/>
   </g>
   <g id="PathCollection_1">
    <path d="M 343.296902 443.169833 
C 346.261963 443.169833 349.105981 441.991802 351.202596 439.895188 
C 353.299211 437.798573 354.477242 434.954554 354.477242 431.989494 
C 354.477242 429.024433 353.299211 426.180414 351.202596 424.083799 
C 349.105981 421.987185 346.261963 420.809154 343.296902 420.809154 
C 340.331841 420.809154 337.487822 421.987185 335.391208 424.083799 
C 333.294593 426.180414 332.116562 429.024433 332.116562 431.989494 
C 332.116562 434.954554 333.294593 437.798573 335.391208 439.895188 
C 337.487822 441.991802 340.331841 443.169833 343.296902 443.169833 
z
" clip-path="url(#p5edfb76dfa)" style="fill: #ad35ca; stroke: #ad35ca"/>
    <path d="M 218.480152 353.558987 
C 220.355421 353.558987 222.154137 352.813934 223.480152 351.487919 
C 224.806168 350.161903 225.55122 348.363188 225.55122 346.487919 
C 225.55122 344.61265 224.806168 342.813934 223.480152 341.487919 
C 222.154137 340.161903 220.355421 339.416851 218.480152 339.416851 
C 216.604883 339.416851 214.806168 340.161903 213.480152 341.487919 
C 212.154137 342.813934 211.409084 344.61265 211.409084 346.487919 
C 211.409084 348.363188 212.154137 350.161903 213.480152 351.487919 
C 214.806168 352.813934 216.604883 353.558987 218.480152 353.558987 
z
" clip-path="url(#p5edfb76dfa)" style="fill: #8f81b5; stroke: #8f81b5"/>
    <path d="M 645.546755 422.488037 
C 646.732779 422.488037 647.870387 422.016825 648.709032 421.178179 
C 649.547678 420.339533 650.018891 419.201926 650.018891 418.015901 
C 650.018891 416.829877 649.547678 415.692269 648.709032 414.853624 
C 647.870387 414.014978 646.732779 413.543765 645.546755 413.543765 
C 644.36073 413.543765 643.223123 414.014978 642.384477 414.853624 
C 641.545831 415.692269 641.074619 416.829877 641.074619 418.015901 
C 641.074619 419.201926 641.545831 420.339533 642.384477 421.178179 
C 643.223123 422.016825 644.36073 422.488037 645.546755 422.488037 
z
" clip-path="url(#p5edfb76dfa)" style="fill: #879dba; stroke: #879dba"/>
    <path d="M 642.983178 394.66693 
C 644.169203 394.66693 645.30681 394.195718 646.145456 393.357072 
C 646.984102 392.518426 647.455314 391.380818 647.455314 390.194794 
C 647.455314 389.00877 646.984102 387.871162 646.145456 387.032516 
C 645.30681 386.193871 644.169203 385.722658 642.983178 385.722658 
C 641.797154 385.722658 640.659547 386.193871 639.820901 387.032516 
C 638.982255 387.871162 638.511042 389.00877 638.511042 390.194794 
C 638.511042 391.380818 638.982255 392.518426 639.820901 393.357072 
C 640.659547 394.195718 641.797154 394.66693 642.983178 394.66693 
z
" clip-path="url(#p5edfb76dfa)" style="fill: #879dba; stroke: #879dba"/>
    <path d="M 637.835013 367.18203 
C 639.021037 367.18203 640.158645 366.710817 640.99729 365.872171 
C 641.835936 365.033525 642.307149 363.895918 642.307149 362.709894 
C 642.307149 361.523869 641.835936 360.386262 640.99729 359.547616 
C 640.158645 358.70897 639.021037 358.237758 637.835013 358.237758 
C 636.648988 358.237758 635.511381 358.70897 634.672735 359.547616 
C 633.834089 360.386262 633.362877 361.523869 633.362877 362.709894 
C 633.362877 363.895918 633.834089 365.033525 634.672735 365.872171 
C 635.511381 366.710817 636.648988 367.18203 637.835013 367.18203 
z
" clip-path="url(#p5edfb76dfa)" style="fill: #879dba; stroke: #879dba"/>
    <path d="M 630.18631 340.306504 
C 631.372334 340.306504 632.509941 339.835291 633.348587 338.996646 
C 634.187233 338.158 634.658446 337.020392 634.658446 335.834368 
C 634.658446 334.648344 634.187233 333.510736 633.348587 332.67209 
C 632.509941 331.833444 631.372334 331.362232 630.18631 331.362232 
C 629.000285 331.362232 627.862678 331.833444 627.024032 332.67209 
C 626.185386 333.510736 625.714174 334.648344 625.714174 335.834368 
C 625.714174 337.020392 626.185386 338.158 627.024032 338.996646 
C 627.862678 339.835291 629.000285 340.306504 630.18631 340.306504 
z
" clip-path="url(#p5edfb76dfa)" style="fill: #879dba; stroke: #879dba"/>
    <path d="M 620.100108 314.250482 
C 621.286132 314.250482 622.423739 313.77927 623.262385 312.940624 
C 624.101031 312.101978 624.572244 310.96437 624.572244 309.778346 
C 624.572244 308.592322 624.101031 307.454714 623.262385 306.616068 
C 622.423739 305.777423 621.286132 305.30621 620.100108 305.30621 
C 618.914083 305.30621 617.776476 305.777423 616.93783 306.616068 
C 616.099184 307.454714 615.627972 308.592322 615.627972 309.778346 
C 615.627972 310.96437 616.099184 312.101978 616.93783 312.940624 
C 617.776476 313.77927 618.914083 314.250482 620.100108 314.250482 
z
" clip-path="url(#p5edfb76dfa)" style="fill: #879dba; stroke: #879dba"/>
    <path d="M 607.639446 289.224093 
C 608.82547 289.224093 609.963077 288.752881 610.801723 287.914235 
C 611.640369 287.075589 612.111582 285.937982 612.111582 284.751957 
C 612.111582 283.565933 611.640369 282.428326 610.801723 281.58968 
C 609.963077 280.751034 608.82547 280.279821 607.639446 280.279821 
C 606.453421 280.279821 605.315814 280.751034 604.477168 281.58968 
C 603.638522 282.428326 603.16731 283.565933 603.16731 284.751957 
C 603.16731 285.937982 603.638522 287.075589 604.477168 287.914235 
C 605.315814 288.752881 606.453421 289.224093 607.639446 289.224093 
z
" clip-path="url(#p5edfb76dfa)" style="fill: #879dba; stroke: #879dba"/>
    <path d="M 592.930401 265.45848 
C 594.116425 265.45848 595.254033 264.987267 596.092679 264.148622 
C 596.931325 263.309976 597.402537 262.172368 597.402537 260.986344 
C 597.402537 259.80032 596.931325 258.662712 596.092679 257.824066 
C 595.254033 256.98542 594.116425 256.514208 592.930401 256.514208 
C 591.744377 256.514208 590.606769 256.98542 589.768123 257.824066 
C 588.929478 258.662712 588.458265 259.80032 588.458265 260.986344 
C 588.458265 262.172368 588.929478 263.309976 589.768123 264.148622 
C 590.606769 264.987267 591.744377 265.45848 592.930401 265.45848 
z
" clip-path="url(#p5edfb76dfa)" style="fill: #879dba; stroke: #879dba"/>
    <path d="M 576.078039 243.163771 
C 577.264063 243.163771 578.40167 242.692559 579.240316 241.853913 
C 580.078962 241.015267 580.550174 239.877659 580.550174 238.691635 
C 580.550174 237.505611 580.078962 236.368003 579.240316 235.529357 
C 578.40167 234.690712 577.264063 234.219499 576.078039 234.219499 
C 574.892014 234.219499 573.754407 234.690712 572.915761 235.529357 
C 572.077115 236.368003 571.605903 237.505611 571.605903 238.691635 
C 571.605903 239.877659 572.077115 241.015267 572.915761 241.853913 
C 573.754407 242.692559 574.892014 243.163771 576.078039 243.163771 
z
" clip-path="url(#p5edfb76dfa)" style="fill: #879dba; stroke: #879dba"/>
    <path d="M 557.250461 222.50807 
C 558.436486 222.50807 559.574093 222.036857 560.412739 221.198212 
C 561.251385 220.359566 561.722597 219.221958 561.722597 218.035934 
C 561.722597 216.84991 561.251385 215.712302 560.412739 214.873656 
C 559.574093 214.03501 558.436486 213.563798 557.250461 213.563798 
C 556.064437 213.563798 554.92683 214.03501 554.088184 214.873656 
C 553.249538 215.712302 552.778326 216.84991 552.778326 218.035934 
C 552.778326 219.221958 553.249538 220.359566 554.088184 221.198212 
C 554.92683 222.036857 556.064437 222.50807 557.250461 222.50807 
z
" clip-path="url(#p5edfb76dfa)" style="fill: #879dba; stroke: #879dba"/>
    <path d="M 536.59476 203.680493 
C 537.780785 203.680493 538.918392 203.20928 539.757038 202.370634 
C 540.595684 201.531989 541.066896 200.394381 541.066896 199.208357 
C 541.066896 198.022332 540.595684 196.884725 539.757038 196.046079 
C 538.918392 195.207433 537.780785 194.736221 536.59476 194.736221 
C 535.408736 194.736221 534.271129 195.207433 533.432483 196.046079 
C 532.593837 196.884725 532.122624 198.022332 532.122624 199.208357 
C 532.122624 200.394381 532.593837 201.531989 533.432483 202.370634 
C 534.271129 203.20928 535.408736 203.680493 536.59476 203.680493 
z
" clip-path="url(#p5edfb76dfa)" style="fill: #879dba; stroke: #879dba"/>
    <path d="M 514.300051 186.82813 
C 515.486076 186.82813 516.623683 186.356918 517.462329 185.518272 
C 518.300975 184.679626 518.772187 183.542019 518.772187 182.355994 
C 518.772187 181.16997 518.300975 180.032362 517.462329 179.193717 
C 516.623683 178.355071 515.486076 177.883858 514.300051 177.883858 
C 513.114027 177.883858 511.97642 178.355071 511.137774 179.193717 
C 510.299128 180.032362 509.827915 181.16997 509.827915 182.355994 
C 509.827915 183.542019 510.299128 184.679626 511.137774 185.518272 
C 511.97642 186.356918 513.114027 186.82813 514.300051 186.82813 
z
" clip-path="url(#p5edfb76dfa)" style="fill: #879dba; stroke: #879dba"/>
    <path d="M 490.534438 172.119086 
C 491.720462 172.119086 492.85807 171.647873 493.696716 170.809227 
C 494.535361 169.970582 495.006574 168.832974 495.006574 167.64695 
C 495.006574 166.460925 494.535361 165.323318 493.696716 164.484672 
C 492.85807 163.646026 491.720462 163.174814 490.534438 163.174814 
C 489.348414 163.174814 488.210806 163.646026 487.37216 164.484672 
C 486.533514 165.323318 486.062302 166.460925 486.062302 167.64695 
C 486.062302 168.832974 486.533514 169.970582 487.37216 170.809227 
C 488.210806 171.647873 489.348414 172.119086 490.534438 172.119086 
z
" clip-path="url(#p5edfb76dfa)" style="fill: #879dba; stroke: #879dba"/>
    <path d="M 465.508049 159.658424 
C 466.694074 159.658424 467.831681 159.187211 468.670327 158.348565 
C 469.508973 157.50992 469.980185 156.372312 469.980185 155.186288 
C 469.980185 154.000263 469.508973 152.862656 468.670327 152.02401 
C 467.831681 151.185364 466.694074 150.714152 465.508049 150.714152 
C 464.322025 150.714152 463.184417 151.185364 462.345772 152.02401 
C 461.507126 152.862656 461.035913 154.000263 461.035913 155.186288 
C 461.035913 156.372312 461.507126 157.50992 462.345772 158.348565 
C 463.184417 159.187211 464.322025 159.658424 465.508049 159.658424 
z
" clip-path="url(#p5edfb76dfa)" style="fill: #879dba; stroke: #879dba"/>
    <path d="M 439.452027 149.572222 
C 440.638052 149.572222 441.775659 149.101009 442.614305 148.262363 
C 443.452951 147.423718 443.924163 146.28611 443.924163 145.100086 
C 443.924163 143.914061 443.452951 142.776454 442.614305 141.937808 
C 441.775659 141.099162 440.638052 140.62795 439.452027 140.62795 
C 438.266003 140.62795 437.128396 141.099162 436.28975 141.937808 
C 435.451104 142.776454 434.979891 143.914061 434.979891 145.100086 
C 434.979891 146.28611 435.451104 147.423718 436.28975 148.262363 
C 437.128396 149.101009 438.266003 149.572222 439.452027 149.572222 
z
" clip-path="url(#p5edfb76dfa)" style="fill: #879dba; stroke: #879dba"/>
    <path d="M 412.555489 141.923518 
C 413.741513 141.923518 414.879121 141.452306 415.717766 140.61366 
C 416.556412 139.775014 417.027625 138.637407 417.027625 137.451383 
C 417.027625 136.265358 416.556412 135.127751 415.717766 134.289105 
C 414.879121 133.450459 413.741513 132.979247 412.555489 132.979247 
C 411.369464 132.979247 410.231857 133.450459 409.393211 134.289105 
C 408.554565 135.127751 408.083353 136.265358 408.083353 137.451383 
C 408.083353 138.637407 408.554565 139.775014 409.393211 140.61366 
C 410.231857 141.452306 411.369464 141.923518 412.555489 141.923518 
z
" clip-path="url(#p5edfb76dfa)" style="fill: #879dba; stroke: #879dba"/>
    <path d="M 385.091601 136.775353 
C 386.277626 136.775353 387.415233 136.30414 388.253879 135.465495 
C 389.092525 134.626849 389.563737 133.489241 389.563737 132.303217 
C 389.563737 131.117193 389.092525 129.979585 388.253879 129.140939 
C 387.415233 128.302293 386.277626 127.831081 385.091601 127.831081 
C 383.905577 127.831081 382.767969 128.302293 381.929324 129.140939 
C 381.090678 129.979585 380.619465 131.117193 380.619465 132.303217 
C 380.619465 133.489241 381.090678 134.626849 381.929324 135.465495 
C 382.767969 136.30414 383.905577 136.775353 385.091601 136.775353 
z
" clip-path="url(#p5edfb76dfa)" style="fill: #879dba; stroke: #879dba"/>
    <path d="M 357.270494 134.211777 
C 358.456518 134.211777 359.594126 133.740564 360.432772 132.901918 
C 361.271418 132.063272 361.74263 130.925665 361.74263 129.739641 
C 361.74263 128.553616 361.271418 127.416009 360.432772 126.577363 
C 359.594126 125.738717 358.456518 125.267505 357.270494 125.267505 
C 356.08447 125.267505 354.946862 125.738717 354.108216 126.577363 
C 353.269571 127.416009 352.798358 128.553616 352.798358 129.739641 
C 352.798358 130.925665 353.269571 132.063272 354.108216 132.901918 
C 354.946862 133.740564 356.08447 134.211777 357.270494 134.211777 
z
" clip-path="url(#p5edfb76dfa)" style="fill: #879dba; stroke: #879dba"/>
    <path d="M 329.323309 134.211777 
C 330.509334 134.211777 331.646941 133.740564 332.485587 132.901918 
C 333.324233 132.063272 333.795445 130.925665 333.795445 129.739641 
C 333.795445 128.553616 333.324233 127.416009 332.485587 126.577363 
C 331.646941 125.738717 330.509334 125.267505 329.323309 125.267505 
C 328.137285 125.267505 326.999678 125.738717 326.161032 126.577363 
C 325.322386 127.416009 324.851174 128.553616 324.851174 129.739641 
C 324.851174 130.925665 325.322386 132.063272 326.161032 132.901918 
C 326.999678 133.740564 328.137285 134.211777 329.323309 134.211777 
z
" clip-path="url(#p5edfb76dfa)" style="fill: #879dba; stroke: #879dba"/>
    <path d="M 301.481189 136.775353 
C 302.667214 136.775353 303.804821 136.30414 304.643467 135.465495 
C 305.482113 134.626849 305.953325 133.489241 305.953325 132.303217 
C 305.953325 131.117193 305.482113 129.979585 304.643467 129.140939 
C 303.804821 128.302293 302.667214 127.831081 301.481189 127.831081 
C 300.295165 127.831081 299.157558 128.302293 298.318912 129.140939 
C 297.480266 129.979585 297.009053 131.117193 297.009053 132.303217 
C 297.009053 133.489241 297.480266 134.626849 298.318912 135.465495 
C 299.157558 136.30414 300.295165 136.775353 301.481189 136.775353 
z
" clip-path="url(#p5edfb76dfa)" style="fill: #879dba; stroke: #879dba"/>
    <path d="M 274.017302 141.923518 
C 275.203326 141.923518 276.340934 141.452306 277.17958 140.61366 
C 278.018225 139.775014 278.489438 138.637407 278.489438 137.451383 
C 278.489438 136.265358 278.018225 135.127751 277.17958 134.289105 
C 276.340934 133.450459 275.203326 132.979247 274.017302 132.979247 
C 272.831278 132.979247 271.69367 133.450459 270.855024 134.289105 
C 270.016378 135.127751 269.545166 136.265358 269.545166 137.451383 
C 269.545166 138.637407 270.016378 139.775014 270.855024 140.61366 
C 271.69367 141.452306 272.831278 141.923518 274.017302 141.923518 
z
" clip-path="url(#p5edfb76dfa)" style="fill: #879dba; stroke: #879dba"/>
    <path d="M 247.120763 149.572222 
C 248.306788 149.572222 249.444395 149.101009 250.283041 148.262363 
C 251.121687 147.423718 251.592899 146.28611 251.592899 145.100086 
C 251.592899 143.914061 251.121687 142.776454 250.283041 141.937808 
C 249.444395 141.099162 248.306788 140.62795 247.120763 140.62795 
C 245.934739 140.62795 244.797131 141.099162 243.958486 141.937808 
C 243.11984 142.776454 242.648627 143.914061 242.648627 145.100086 
C 242.648627 146.28611 243.11984 147.423718 243.958486 148.262363 
C 244.797131 149.101009 245.934739 149.572222 247.120763 149.572222 
z
" clip-path="url(#p5edfb76dfa)" style="fill: #879dba; stroke: #879dba"/>
    <path d="M 221.064741 159.658424 
C 222.250766 159.658424 223.388373 159.187211 224.227019 158.348565 
C 225.065665 157.50992 225.536877 156.372312 225.536877 155.186288 
C 225.536877 154.000263 225.065665 152.862656 224.227019 152.02401 
C 223.388373 151.185364 222.250766 150.714152 221.064741 150.714152 
C 219.878717 150.714152 218.74111 151.185364 217.902464 152.02401 
C 217.063818 152.862656 216.592605 154.000263 216.592605 155.186288 
C 216.592605 156.372312 217.063818 157.50992 217.902464 158.348565 
C 218.74111 159.187211 219.878717 159.658424 221.064741 159.658424 
z
" clip-path="url(#p5edfb76dfa)" style="fill: #879dba; stroke: #879dba"/>
    <path d="M 196.059366 172.119086 
C 197.24539 172.119086 198.382998 171.647873 199.221643 170.809227 
C 200.060289 169.970582 200.531502 168.832974 200.531502 167.64695 
C 200.531502 166.460925 200.060289 165.323318 199.221643 164.484672 
C 198.382998 163.646026 197.24539 163.174814 196.059366 163.174814 
C 194.873341 163.174814 193.735734 163.646026 192.897088 164.484672 
C 192.058442 165.323318 191.58723 166.460925 191.58723 167.64695 
C 191.58723 168.832974 192.058442 169.970582 192.897088 170.809227 
C 193.735734 171.647873 194.873341 172.119086 196.059366 172.119086 
z
" clip-path="url(#p5edfb76dfa)" style="fill: #879dba; stroke: #879dba"/>
    <path d="M 172.293752 186.82813 
C 173.479777 186.82813 174.617384 186.356918 175.45603 185.518272 
C 176.294676 184.679626 176.765888 183.542019 176.765888 182.355994 
C 176.765888 181.16997 176.294676 180.032362 175.45603 179.193717 
C 174.617384 178.355071 173.479777 177.883858 172.293752 177.883858 
C 171.107728 177.883858 169.97012 178.355071 169.131475 179.193717 
C 168.292829 180.032362 167.821616 181.16997 167.821616 182.355994 
C 167.821616 183.542019 168.292829 184.679626 169.131475 185.518272 
C 169.97012 186.356918 171.107728 186.82813 172.293752 186.82813 
z
" clip-path="url(#p5edfb76dfa)" style="fill: #879dba; stroke: #879dba"/>
    <path d="M 149.97803 203.680493 
C 151.164055 203.680493 152.301662 203.20928 153.140308 202.370634 
C 153.978954 201.531989 154.450166 200.394381 154.450166 199.208357 
C 154.450166 198.022332 153.978954 196.884725 153.140308 196.046079 
C 152.301662 195.207433 151.164055 194.736221 149.97803 194.736221 
C 148.792006 194.736221 147.654399 195.207433 146.815753 196.046079 
C 145.977107 196.884725 145.505894 198.022332 145.505894 199.208357 
C 145.505894 200.394381 145.977107 201.531989 146.815753 202.370634 
C 147.654399 203.20928 148.792006 203.680493 149.97803 203.680493 
z
" clip-path="url(#p5edfb76dfa)" style="fill: #879dba; stroke: #879dba"/>
    <path d="M 129.322329 222.50807 
C 130.508354 222.50807 131.645961 222.036857 132.484607 221.198212 
C 133.323253 220.359566 133.794465 219.221958 133.794465 218.035934 
C 133.794465 216.84991 133.323253 215.712302 132.484607 214.873656 
C 131.645961 214.03501 130.508354 213.563798 129.322329 213.563798 
C 128.136305 213.563798 126.998697 214.03501 126.160052 214.873656 
C 125.321406 215.712302 124.850193 216.84991 124.850193 218.035934 
C 124.850193 219.221958 125.321406 220.359566 126.160052 221.198212 
C 126.998697 222.036857 128.136305 222.50807 129.322329 222.50807 
z
" clip-path="url(#p5edfb76dfa)" style="fill: #879dba; stroke: #879dba"/>
    <path d="M 110.494752 243.163771 
C 111.680776 243.163771 112.818384 242.692559 113.65703 241.853913 
C 114.495676 241.015267 114.966888 239.877659 114.966888 238.691635 
C 114.966888 237.505611 114.495676 236.368003 113.65703 235.529357 
C 112.818384 234.690712 111.680776 234.219499 110.494752 234.219499 
C 109.308728 234.219499 108.17112 234.690712 107.332474 235.529357 
C 106.493829 236.368003 106.022616 237.505611 106.022616 238.691635 
C 106.022616 239.877659 106.493829 241.015267 107.332474 241.853913 
C 108.17112 242.692559 109.308728 243.163771 110.494752 243.163771 
z
" clip-path="url(#p5edfb76dfa)" style="fill: #879dba; stroke: #879dba"/>
    <path d="M 93.663403 265.45848 
C 94.849427 265.45848 95.987034 264.987267 96.82568 264.148622 
C 97.664326 263.309976 98.135539 262.172368 98.135539 260.986344 
C 98.135539 259.80032 97.664326 258.662712 96.82568 257.824066 
C 95.987034 256.98542 94.849427 256.514208 93.663403 256.514208 
C 92.477378 256.514208 91.339771 256.98542 90.501125 257.824066 
C 89.662479 258.662712 89.191267 259.80032 89.191267 260.986344 
C 89.191267 262.172368 89.662479 263.309976 90.501125 264.148622 
C 91.339771 264.987267 92.477378 265.45848 93.663403 265.45848 
z
" clip-path="url(#p5edfb76dfa)" style="fill: #879dba; stroke: #879dba"/>
    <path d="M 78.933345 289.224093 
C 80.119369 289.224093 81.256977 288.752881 82.095623 287.914235 
C 82.934269 287.075589 83.405481 285.937982 83.405481 284.751957 
C 83.405481 283.565933 82.934269 282.428326 82.095623 281.58968 
C 81.256977 280.751034 80.119369 280.279821 78.933345 280.279821 
C 77.747321 280.279821 76.609713 280.751034 75.771067 281.58968 
C 74.932422 282.428326 74.461209 283.565933 74.461209 284.751957 
C 74.461209 285.937982 74.932422 287.075589 75.771067 287.914235 
C 76.609713 288.752881 77.747321 289.224093 78.933345 289.224093 
z
" clip-path="url(#p5edfb76dfa)" style="fill: #879dba; stroke: #879dba"/>
    <path d="M 66.493696 314.250482 
C 67.67972 314.250482 68.817328 313.77927 69.655974 312.940624 
C 70.494619 312.101978 70.965832 310.96437 70.965832 309.778346 
C 70.965832 308.592322 70.494619 307.454714 69.655974 306.616068 
C 68.817328 305.777423 67.67972 305.30621 66.493696 305.30621 
C 65.307672 305.30621 64.170064 305.777423 63.331418 306.616068 
C 62.492772 307.454714 62.02156 308.592322 62.02156 309.778346 
C 62.02156 310.96437 62.492772 312.101978 63.331418 312.940624 
C 64.170064 313.77927 65.307672 314.250482 66.493696 314.250482 
z
" clip-path="url(#p5edfb76dfa)" style="fill: #879dba; stroke: #879dba"/>
    <path d="M 56.386481 340.306504 
C 57.572505 340.306504 58.710113 339.835291 59.548759 338.996646 
C 60.387405 338.158 60.858617 337.020392 60.858617 335.834368 
C 60.858617 334.648344 60.387405 333.510736 59.548759 332.67209 
C 58.710113 331.833444 57.572505 331.362232 56.386481 331.362232 
C 55.200457 331.362232 54.062849 331.833444 53.224203 332.67209 
C 52.385558 333.510736 51.914345 334.648344 51.914345 335.834368 
C 51.914345 337.020392 52.385558 338.158 53.224203 338.996646 
C 54.062849 339.835291 55.200457 340.306504 56.386481 340.306504 
z
" clip-path="url(#p5edfb76dfa)" style="fill: #879dba; stroke: #879dba"/>
    <path d="M 48.737778 367.18203 
C 49.923802 367.18203 51.06141 366.710817 51.900056 365.872171 
C 52.738701 365.033525 53.209914 363.895918 53.209914 362.709894 
C 53.209914 361.523869 52.738701 360.386262 51.900056 359.547616 
C 51.06141 358.70897 49.923802 358.237758 48.737778 358.237758 
C 47.551754 358.237758 46.414146 358.70897 45.5755 359.547616 
C 44.736854 360.386262 44.265642 361.523869 44.265642 362.709894 
C 44.265642 363.895918 44.736854 365.033525 45.5755 365.872171 
C 46.414146 366.710817 47.551754 367.18203 48.737778 367.18203 
z
" clip-path="url(#p5edfb76dfa)" style="fill: #879dba; stroke: #879dba"/>
    <path d="M 43.610625 394.66693 
C 44.79665 394.66693 45.934257 394.195718 46.772903 393.357072 
C 47.611549 392.518426 48.082761 391.380818 48.082761 390.194794 
C 48.082761 389.00877 47.611549 387.871162 46.772903 387.032516 
C 45.934257 386.193871 44.79665 385.722658 43.610625 385.722658 
C 42.424601 385.722658 41.286993 386.193871 40.448348 387.032516 
C 39.609702 387.871162 39.138489 389.00877 39.138489 390.194794 
C 39.138489 391.380818 39.609702 392.518426 40.448348 393.357072 
C 41.286993 394.195718 42.424601 394.66693 43.610625 394.66693 
z
" clip-path="url(#p5edfb76dfa)" style="fill: #879dba; stroke: #879dba"/>
    <path d="M 41.026036 422.488037 
C 42.21206 422.488037 43.349668 422.016825 44.188314 421.178179 
C 45.026959 420.339533 45.498172 419.201926 45.498172 418.015901 
C 45.498172 416.829877 45.026959 415.692269 44.188314 414.853624 
C 43.349668 414.014978 42.21206 413.543765 41.026036 413.543765 
C 39.840012 413.543765 38.702404 414.014978 37.863758 414.853624 
C 37.025112 415.692269 36.5539 416.829877 36.5539 418.015901 
C 36.5539 419.201926 37.025112 420.339533 37.863758 421.178179 
C 38.702404 422.016825 39.840012 422.488037 41.026036 422.488037 
z
" clip-path="url(#p5edfb76dfa)" style="fill: #879dba; stroke: #879dba"/>
    <path d="M 41.026036 450.435222 
C 42.21206 450.435222 43.349668 449.964009 44.188314 449.125364 
C 45.026959 448.286718 45.498172 447.14911 45.498172 445.963086 
C 45.498172 444.777062 45.026959 443.639454 44.188314 442.800808 
C 43.349668 441.962162 42.21206 441.49095 41.026036 441.49095 
C 39.840012 441.49095 38.702404 441.962162 37.863758 442.800808 
C 37.025112 443.639454 36.5539 444.777062 36.5539 445.963086 
C 36.5539 447.14911 37.025112 448.286718 37.863758 449.125364 
C 38.702404 449.964009 39.840012 450.435222 41.026036 450.435222 
z
" clip-path="url(#p5edfb76dfa)" style="fill: #879dba; stroke: #879dba"/>
    <path d="M 43.610625 478.277342 
C 44.79665 478.277342 45.934257 477.806129 46.772903 476.967484 
C 47.611549 476.128838 48.082761 474.99123 48.082761 473.805206 
C 48.082761 472.619182 47.611549 471.481574 46.772903 470.642928 
C 45.934257 469.804282 44.79665 469.33307 43.610625 469.33307 
C 42.424601 469.33307 41.286993 469.804282 40.448348 470.642928 
C 39.609702 471.481574 39.138489 472.619182 39.138489 473.805206 
C 39.138489 474.99123 39.609702 476.128838 40.448348 476.967484 
C 41.286993 477.806129 42.424601 478.277342 43.610625 478.277342 
z
" clip-path="url(#p5edfb76dfa)" style="fill: #879dba; stroke: #879dba"/>
    <path d="M 48.737778 505.741229 
C 49.923802 505.741229 51.06141 505.270017 51.900056 504.431371 
C 52.738701 503.592725 53.209914 502.455118 53.209914 501.269093 
C 53.209914 500.083069 52.738701 498.945462 51.900056 498.106816 
C 51.06141 497.26817 49.923802 496.796957 48.737778 496.796957 
C 47.551754 496.796957 46.414146 497.26817 45.5755 498.106816 
C 44.736854 498.945462 44.265642 500.083069 44.265642 501.269093 
C 44.265642 502.455118 44.736854 503.592725 45.5755 504.431371 
C 46.414146 505.270017 47.551754 505.741229 48.737778 505.741229 
z
" clip-path="url(#p5edfb76dfa)" style="fill: #879dba; stroke: #879dba"/>
    <path d="M 56.386481 532.637768 
C 57.572505 532.637768 58.710113 532.166556 59.548759 531.32791 
C 60.387405 530.489264 60.858617 529.351656 60.858617 528.165632 
C 60.858617 526.979608 60.387405 525.842 59.548759 525.003354 
C 58.710113 524.164709 57.572505 523.693496 56.386481 523.693496 
C 55.200457 523.693496 54.062849 524.164709 53.224203 525.003354 
C 52.385558 525.842 51.914345 526.979608 51.914345 528.165632 
C 51.914345 529.351656 52.385558 530.489264 53.224203 531.32791 
C 54.062849 532.166556 55.200457 532.637768 56.386481 532.637768 
z
" clip-path="url(#p5edfb76dfa)" style="fill: #879dba; stroke: #879dba"/>
    <path d="M 66.493696 558.69379 
C 67.67972 558.69379 68.817328 558.222577 69.655974 557.383932 
C 70.494619 556.545286 70.965832 555.407678 70.965832 554.221654 
C 70.965832 553.03563 70.494619 551.898022 69.655974 551.059376 
C 68.817328 550.22073 67.67972 549.749518 66.493696 549.749518 
C 65.307672 549.749518 64.170064 550.22073 63.331418 551.059376 
C 62.492772 551.898022 62.02156 553.03563 62.02156 554.221654 
C 62.02156 555.407678 62.492772 556.545286 63.331418 557.383932 
C 64.170064 558.222577 65.307672 558.69379 66.493696 558.69379 
z
" clip-path="url(#p5edfb76dfa)" style="fill: #879dba; stroke: #879dba"/>
    <path d="M 78.933345 583.709672 
C 80.119369 583.709672 81.256977 583.23846 82.095623 582.399814 
C 82.934269 581.561168 83.405481 580.42356 83.405481 579.237536 
C 83.405481 578.051512 82.934269 576.913904 82.095623 576.075258 
C 81.256977 575.236613 80.119369 574.7654 78.933345 574.7654 
C 77.747321 574.7654 76.609713 575.236613 75.771067 576.075258 
C 74.932422 576.913904 74.461209 578.051512 74.461209 579.237536 
C 74.461209 580.42356 74.932422 581.561168 75.771067 582.399814 
C 76.609713 583.23846 77.747321 583.709672 78.933345 583.709672 
z
" clip-path="url(#p5edfb76dfa)" style="fill: #879dba; stroke: #879dba"/>
    <path d="M 93.663403 607.471083 
C 94.849427 607.471083 95.987034 606.99987 96.82568 606.161225 
C 97.664326 605.322579 98.135539 604.184971 98.135539 602.998947 
C 98.135539 601.812923 97.664326 600.675315 96.82568 599.836669 
C 95.987034 598.998023 94.849427 598.526811 93.663403 598.526811 
C 92.477378 598.526811 91.339771 598.998023 90.501125 599.836669 
C 89.662479 600.675315 89.191267 601.812923 89.191267 602.998947 
C 89.191267 604.184971 89.662479 605.322579 90.501125 606.161225 
C 91.339771 606.99987 92.477378 607.471083 93.663403 607.471083 
z
" clip-path="url(#p5edfb76dfa)" style="fill: #879dba; stroke: #879dba"/>
    <path d="M 110.494752 629.776298 
C 111.680776 629.776298 112.818384 629.305086 113.65703 628.46644 
C 114.495676 627.627794 114.966888 626.490187 114.966888 625.304162 
C 114.966888 624.118138 114.495676 622.980531 113.65703 622.141885 
C 112.818384 621.303239 111.680776 620.832026 110.494752 620.832026 
C 109.308728 620.832026 108.17112 621.303239 107.332474 622.141885 
C 106.493829 622.980531 106.022616 624.118138 106.022616 625.304162 
C 106.022616 626.490187 106.493829 627.627794 107.332474 628.46644 
C 108.17112 629.305086 109.308728 629.776298 110.494752 629.776298 
z
" clip-path="url(#p5edfb76dfa)" style="fill: #879dba; stroke: #879dba"/>
    <path d="M 129.322329 650.429898 
C 130.508354 650.429898 131.645961 649.958686 132.484607 649.12004 
C 133.323253 648.281394 133.794465 647.143787 133.794465 645.957762 
C 133.794465 644.771738 133.323253 643.63413 132.484607 642.795485 
C 131.645961 641.956839 130.508354 641.485626 129.322329 641.485626 
C 128.136305 641.485626 126.998697 641.956839 126.160052 642.795485 
C 125.321406 643.63413 124.850193 644.771738 124.850193 645.957762 
C 124.850193 647.143787 125.321406 648.281394 126.160052 649.12004 
C 126.998697 649.958686 128.136305 650.429898 129.322329 650.429898 
z
" clip-path="url(#p5edfb76dfa)" style="fill: #879dba; stroke: #879dba"/>
    <path d="M 149.97803 669.259577 
C 151.164055 669.259577 152.301662 668.788364 153.140308 667.949718 
C 153.978954 667.111072 154.450166 665.973465 154.450166 664.787441 
C 154.450166 663.601416 153.978954 662.463809 153.140308 661.625163 
C 152.301662 660.786517 151.164055 660.315305 149.97803 660.315305 
C 148.792006 660.315305 147.654399 660.786517 146.815753 661.625163 
C 145.977107 662.463809 145.505894 663.601416 145.505894 664.787441 
C 145.505894 665.973465 145.977107 667.111072 146.815753 667.949718 
C 147.654399 668.788364 148.792006 669.259577 149.97803 669.259577 
z
" clip-path="url(#p5edfb76dfa)" style="fill: #879dba; stroke: #879dba"/>
    <path d="M 172.293752 686.101433 
C 173.479777 686.101433 174.617384 685.63022 175.45603 684.791574 
C 176.294676 683.952928 176.765888 682.815321 176.765888 681.629297 
C 176.765888 680.443272 176.294676 679.305665 175.45603 678.467019 
C 174.617384 677.628373 173.479777 677.157161 172.293752 677.157161 
C 171.107728 677.157161 169.97012 677.628373 169.131475 678.467019 
C 168.292829 679.305665 167.821616 680.443272 167.821616 681.629297 
C 167.821616 682.815321 168.292829 683.952928 169.131475 684.791574 
C 169.97012 685.63022 171.107728 686.101433 172.293752 686.101433 
z
" clip-path="url(#p5edfb76dfa)" style="fill: #879dba; stroke: #879dba"/>
    <path d="M 196.059366 700.81468 
C 197.24539 700.81468 198.382998 700.343467 199.221643 699.504821 
C 200.060289 698.666176 200.531502 697.528568 200.531502 696.342544 
C 200.531502 695.156519 200.060289 694.018912 199.221643 693.180266 
C 198.382998 692.34162 197.24539 691.870408 196.059366 691.870408 
C 194.873341 691.870408 193.735734 692.34162 192.897088 693.180266 
C 192.058442 694.018912 191.58723 695.156519 191.58723 696.342544 
C 191.58723 697.528568 192.058442 698.666176 192.897088 699.504821 
C 193.735734 700.343467 194.873341 700.81468 196.059366 700.81468 
z
" clip-path="url(#p5edfb76dfa)" style="fill: #879dba; stroke: #879dba"/>
    <path d="M 221.064741 713.273241 
C 222.250766 713.273241 223.388373 712.802028 224.227019 711.963382 
C 225.065665 711.124736 225.536877 709.987129 225.536877 708.801105 
C 225.536877 707.61508 225.065665 706.477473 224.227019 705.638827 
C 223.388373 704.800181 222.250766 704.328969 221.064741 704.328969 
C 219.878717 704.328969 218.74111 704.800181 217.902464 705.638827 
C 217.063818 706.477473 216.592605 707.61508 216.592605 708.801105 
C 216.592605 709.987129 217.063818 711.124736 217.902464 711.963382 
C 218.74111 712.802028 219.878717 713.273241 221.064741 713.273241 
z
" clip-path="url(#p5edfb76dfa)" style="fill: #879dba; stroke: #879dba"/>
    <path d="M 247.120763 723.369949 
C 248.306788 723.369949 249.444395 722.898736 250.283041 722.060091 
C 251.121687 721.221445 251.592899 720.083837 251.592899 718.897813 
C 251.592899 717.711789 251.121687 716.574181 250.283041 715.735535 
C 249.444395 714.896889 248.306788 714.425677 247.120763 714.425677 
C 245.934739 714.425677 244.797131 714.896889 243.958486 715.735535 
C 243.11984 716.574181 242.648627 717.711789 242.648627 718.897813 
C 242.648627 720.083837 243.11984 721.221445 243.958486 722.060091 
C 244.797131 722.898736 245.934739 723.369949 247.120763 723.369949 
z
" clip-path="url(#p5edfb76dfa)" style="fill: #879dba; stroke: #879dba"/>
    <path d="M 274.017302 731.018652 
C 275.203326 731.018652 276.340934 730.54744 277.17958 729.708794 
C 278.018225 728.870148 278.489438 727.73254 278.489438 726.546516 
C 278.489438 725.360492 278.018225 724.222884 277.17958 723.384239 
C 276.340934 722.545593 275.203326 722.07438 274.017302 722.07438 
C 272.831278 722.07438 271.69367 722.545593 270.855024 723.384239 
C 270.016378 724.222884 269.545166 725.360492 269.545166 726.546516 
C 269.545166 727.73254 270.016378 728.870148 270.855024 729.708794 
C 271.69367 730.54744 272.831278 731.018652 274.017302 731.018652 
z
" clip-path="url(#p5edfb76dfa)" style="fill: #879dba; stroke: #879dba"/>
    <path d="M 301.481189 736.15421 
C 302.667214 736.15421 303.804821 735.682998 304.643467 734.844352 
C 305.482113 734.005706 305.953325 732.868098 305.953325 731.682074 
C 305.953325 730.49605 305.482113 729.358442 304.643467 728.519796 
C 303.804821 727.681151 302.667214 727.209938 301.481189 727.209938 
C 300.295165 727.209938 299.157558 727.681151 298.318912 728.519796 
C 297.480266 729.358442 297.009053 730.49605 297.009053 731.682074 
C 297.009053 732.868098 297.480266 734.005706 298.318912 734.844352 
C 299.157558 735.682998 300.295165 736.15421 301.481189 736.15421 
z
" clip-path="url(#p5edfb76dfa)" style="fill: #879dba; stroke: #879dba"/>
    <path d="M 329.323309 738.732495 
C 330.509334 738.732495 331.646941 738.261283 332.485587 737.422637 
C 333.324233 736.583991 333.795445 735.446384 333.795445 734.260359 
C 333.795445 733.074335 333.324233 731.936728 332.485587 731.098082 
C 331.646941 730.259436 330.509334 729.788223 329.323309 729.788223 
C 328.137285 729.788223 326.999678 730.259436 326.161032 731.098082 
C 325.322386 731.936728 324.851174 733.074335 324.851174 734.260359 
C 324.851174 735.446384 325.322386 736.583991 326.161032 737.422637 
C 326.999678 738.261283 328.137285 738.732495 329.323309 738.732495 
z
" clip-path="url(#p5edfb76dfa)" style="fill: #879dba; stroke: #879dba"/>
    <path d="M 357.270494 738.732495 
C 358.456518 738.732495 359.594126 738.261283 360.432772 737.422637 
C 361.271418 736.583991 361.74263 735.446384 361.74263 734.260359 
C 361.74263 733.074335 361.271418 731.936728 360.432772 731.098082 
C 359.594126 730.259436 358.456518 729.788223 357.270494 729.788223 
C 356.08447 729.788223 354.946862 730.259436 354.108216 731.098082 
C 353.269571 731.936728 352.798358 733.074335 352.798358 734.260359 
C 352.798358 735.446384 353.269571 736.583991 354.108216 737.422637 
C 354.946862 738.261283 356.08447 738.732495 357.270494 738.732495 
z
" clip-path="url(#p5edfb76dfa)" style="fill: #879dba; stroke: #879dba"/>
    <path d="M 385.091601 736.15421 
C 386.277626 736.15421 387.415233 735.682998 388.253879 734.844352 
C 389.092525 734.005706 389.563737 732.868098 389.563737 731.682074 
C 389.563737 730.49605 389.092525 729.358442 388.253879 728.519796 
C 387.415233 727.681151 386.277626 727.209938 385.091601 727.209938 
C 383.905577 727.209938 382.767969 727.681151 381.929324 728.519796 
C 381.090678 729.358442 380.619465 730.49605 380.619465 731.682074 
C 380.619465 732.868098 381.090678 734.005706 381.929324 734.844352 
C 382.767969 735.682998 383.905577 736.15421 385.091601 736.15421 
z
" clip-path="url(#p5edfb76dfa)" style="fill: #879dba; stroke: #879dba"/>
    <path d="M 412.555489 731.018652 
C 413.741513 731.018652 414.879121 730.54744 415.717766 729.708794 
C 416.556412 728.870148 417.027625 727.73254 417.027625 726.546516 
C 417.027625 725.360492 416.556412 724.222884 415.717766 723.384239 
C 414.879121 722.545593 413.741513 722.07438 412.555489 722.07438 
C 411.369464 722.07438 410.231857 722.545593 409.393211 723.384239 
C 408.554565 724.222884 408.083353 725.360492 408.083353 726.546516 
C 408.083353 727.73254 408.554565 728.870148 409.393211 729.708794 
C 410.231857 730.54744 411.369464 731.018652 412.555489 731.018652 
z
" clip-path="url(#p5edfb76dfa)" style="fill: #879dba; stroke: #879dba"/>
    <path d="M 439.452027 723.369949 
C 440.638052 723.369949 441.775659 722.898736 442.614305 722.060091 
C 443.452951 721.221445 443.924163 720.083837 443.924163 718.897813 
C 443.924163 717.711789 443.452951 716.574181 442.614305 715.735535 
C 441.775659 714.896889 440.638052 714.425677 439.452027 714.425677 
C 438.266003 714.425677 437.128396 714.896889 436.28975 715.735535 
C 435.451104 716.574181 434.979891 717.711789 434.979891 718.897813 
C 434.979891 720.083837 435.451104 721.221445 436.28975 722.060091 
C 437.128396 722.898736 438.266003 723.369949 439.452027 723.369949 
z
" clip-path="url(#p5edfb76dfa)" style="fill: #879dba; stroke: #879dba"/>
    <path d="M 416.905163 571.240238 
C 418.780433 571.240238 420.579148 570.495186 421.905163 569.169171 
C 423.231179 567.843155 423.976231 566.04444 423.976231 564.169171 
C 423.976231 562.293902 423.231179 560.495186 421.905163 559.169171 
C 420.579148 557.843155 418.780433 557.098103 416.905163 557.098103 
C 415.029894 557.098103 413.231179 557.843155 411.905163 559.169171 
C 410.579148 560.495186 409.834096 562.293902 409.834096 564.169171 
C 409.834096 566.04444 410.579148 567.843155 411.905163 569.169171 
C 413.231179 570.495186 415.029894 571.240238 416.905163 571.240238 
z
" clip-path="url(#p5edfb76dfa)" style="fill: #8f81b5; stroke: #8f81b5"/>
    <path d="M 465.508049 713.273241 
C 466.694074 713.273241 467.831681 712.802028 468.670327 711.963382 
C 469.508973 711.124736 469.980185 709.987129 469.980185 708.801105 
C 469.980185 707.61508 469.508973 706.477473 468.670327 705.638827 
C 467.831681 704.800181 466.694074 704.328969 465.508049 704.328969 
C 464.322025 704.328969 463.184417 704.800181 462.345772 705.638827 
C 461.507126 706.477473 461.035913 707.61508 461.035913 708.801105 
C 461.035913 709.987129 461.507126 711.124736 462.345772 711.963382 
C 463.184417 712.802028 464.322025 713.273241 465.508049 713.273241 
z
" clip-path="url(#p5edfb76dfa)" style="fill: #879dba; stroke: #879dba"/>
    <path d="M 490.534438 700.81468 
C 491.720462 700.81468 492.85807 700.343467 493.696716 699.504821 
C 494.535361 698.666176 495.006574 697.528568 495.006574 696.342544 
C 495.006574 695.156519 494.535361 694.018912 493.696716 693.180266 
C 492.85807 692.34162 491.720462 691.870408 490.534438 691.870408 
C 489.348414 691.870408 488.210806 692.34162 487.37216 693.180266 
C 486.533514 694.018912 486.062302 695.156519 486.062302 696.342544 
C 486.062302 697.528568 486.533514 698.666176 487.37216 699.504821 
C 488.210806 700.343467 489.348414 700.81468 490.534438 700.81468 
z
" clip-path="url(#p5edfb76dfa)" style="fill: #879dba; stroke: #879dba"/>
    <path d="M 514.300051 686.101433 
C 515.486076 686.101433 516.623683 685.63022 517.462329 684.791574 
C 518.300975 683.952928 518.772187 682.815321 518.772187 681.629297 
C 518.772187 680.443272 518.300975 679.305665 517.462329 678.467019 
C 516.623683 677.628373 515.486076 677.157161 514.300051 677.157161 
C 513.114027 677.157161 511.97642 677.628373 511.137774 678.467019 
C 510.299128 679.305665 509.827915 680.443272 509.827915 681.629297 
C 509.827915 682.815321 510.299128 683.952928 511.137774 684.791574 
C 511.97642 685.63022 513.114027 686.101433 514.300051 686.101433 
z
" clip-path="url(#p5edfb76dfa)" style="fill: #879dba; stroke: #879dba"/>
    <path d="M 478.725176 506.512037 
C 480.600446 506.512037 482.399161 505.766985 483.725176 504.440969 
C 485.051192 503.114954 485.796244 501.316238 485.796244 499.440969 
C 485.796244 497.5657 485.051192 495.766985 483.725176 494.440969 
C 482.399161 493.114954 480.600446 492.369902 478.725176 492.369902 
C 476.849907 492.369902 475.051192 493.114954 473.725176 494.440969 
C 472.399161 495.766985 471.654109 497.5657 471.654109 499.440969 
C 471.654109 501.316238 472.399161 503.114954 473.725176 504.440969 
C 475.051192 505.766985 476.849907 506.512037 478.725176 506.512037 
z
" clip-path="url(#p5edfb76dfa)" style="fill: #8f81b5; stroke: #8f81b5"/>
    <path d="M 536.59476 669.259577 
C 537.780785 669.259577 538.918392 668.788364 539.757038 667.949718 
C 540.595684 667.111072 541.066896 665.973465 541.066896 664.787441 
C 541.066896 663.601416 540.595684 662.463809 539.757038 661.625163 
C 538.918392 660.786517 537.780785 660.315305 536.59476 660.315305 
C 535.408736 660.315305 534.271129 660.786517 533.432483 661.625163 
C 532.593837 662.463809 532.122624 663.601416 532.122624 664.787441 
C 532.122624 665.973465 532.593837 667.111072 533.432483 667.949718 
C 534.271129 668.788364 535.408736 669.259577 536.59476 669.259577 
z
" clip-path="url(#p5edfb76dfa)" style="fill: #879dba; stroke: #879dba"/>
    <path d="M 557.250461 650.429898 
C 558.436486 650.429898 559.574093 649.958686 560.412739 649.12004 
C 561.251385 648.281394 561.722597 647.143787 561.722597 645.957762 
C 561.722597 644.771738 561.251385 643.63413 560.412739 642.795485 
C 559.574093 641.956839 558.436486 641.485626 557.250461 641.485626 
C 556.064437 641.485626 554.92683 641.956839 554.088184 642.795485 
C 553.249538 643.63413 552.778326 644.771738 552.778326 645.957762 
C 552.778326 647.143787 553.249538 648.281394 554.088184 649.12004 
C 554.92683 649.958686 556.064437 650.429898 557.250461 650.429898 
z
" clip-path="url(#p5edfb76dfa)" style="fill: #879dba; stroke: #879dba"/>
    <path d="M 576.078039 629.776298 
C 577.264063 629.776298 578.40167 629.305086 579.240316 628.46644 
C 580.078962 627.627794 580.550174 626.490187 580.550174 625.304162 
C 580.550174 624.118138 580.078962 622.980531 579.240316 622.141885 
C 578.40167 621.303239 577.264063 620.832026 576.078039 620.832026 
C 574.892014 620.832026 573.754407 621.303239 572.915761 622.141885 
C 572.077115 622.980531 571.605903 624.118138 571.605903 625.304162 
C 571.605903 626.490187 572.077115 627.627794 572.915761 628.46644 
C 573.754407 629.305086 574.892014 629.776298 576.078039 629.776298 
z
" clip-path="url(#p5edfb76dfa)" style="fill: #879dba; stroke: #879dba"/>
    <path d="M 592.930401 607.471083 
C 594.116425 607.471083 595.254033 606.99987 596.092679 606.161225 
C 596.931325 605.322579 597.402537 604.184971 597.402537 602.998947 
C 597.402537 601.812923 596.931325 600.675315 596.092679 599.836669 
C 595.254033 598.998023 594.116425 598.526811 592.930401 598.526811 
C 591.744377 598.526811 590.606769 598.998023 589.768123 599.836669 
C 588.929478 600.675315 588.458265 601.812923 588.458265 602.998947 
C 588.458265 604.184971 588.929478 605.322579 589.768123 606.161225 
C 590.606769 606.99987 591.744377 607.471083 592.930401 607.471083 
z
" clip-path="url(#p5edfb76dfa)" style="fill: #879dba; stroke: #879dba"/>
    <path d="M 607.639446 583.709672 
C 608.82547 583.709672 609.963077 583.23846 610.801723 582.399814 
C 611.640369 581.561168 612.111582 580.42356 612.111582 579.237536 
C 612.111582 578.051512 611.640369 576.913904 610.801723 576.075258 
C 609.963077 575.236613 608.82547 574.7654 607.639446 574.7654 
C 606.453421 574.7654 605.315814 575.236613 604.477168 576.075258 
C 603.638522 576.913904 603.16731 578.051512 603.16731 579.237536 
C 603.16731 580.42356 603.638522 581.561168 604.477168 582.399814 
C 605.315814 583.23846 606.453421 583.709672 607.639446 583.709672 
z
" clip-path="url(#p5edfb76dfa)" style="fill: #879dba; stroke: #879dba"/>
    <path d="M 620.100108 558.69379 
C 621.286132 558.69379 622.423739 558.222577 623.262385 557.383932 
C 624.101031 556.545286 624.572244 555.407678 624.572244 554.221654 
C 624.572244 553.03563 624.101031 551.898022 623.262385 551.059376 
C 622.423739 550.22073 621.286132 549.749518 620.100108 549.749518 
C 618.914083 549.749518 617.776476 550.22073 616.93783 551.059376 
C 616.099184 551.898022 615.627972 553.03563 615.627972 554.221654 
C 615.627972 555.407678 616.099184 556.545286 616.93783 557.383932 
C 617.776476 558.222577 618.914083 558.69379 620.100108 558.69379 
z
" clip-path="url(#p5edfb76dfa)" style="fill: #879dba; stroke: #879dba"/>
    <path d="M 630.18631 532.637768 
C 631.372334 532.637768 632.509941 532.166556 633.348587 531.32791 
C 634.187233 530.489264 634.658446 529.351656 634.658446 528.165632 
C 634.658446 526.979608 634.187233 525.842 633.348587 525.003354 
C 632.509941 524.164709 631.372334 523.693496 630.18631 523.693496 
C 629.000285 523.693496 627.862678 524.164709 627.024032 525.003354 
C 626.185386 525.842 625.714174 526.979608 625.714174 528.165632 
C 625.714174 529.351656 626.185386 530.489264 627.024032 531.32791 
C 627.862678 532.166556 629.000285 532.637768 630.18631 532.637768 
z
" clip-path="url(#p5edfb76dfa)" style="fill: #879dba; stroke: #879dba"/>
    <path d="M 637.835013 505.741229 
C 639.021037 505.741229 640.158645 505.270017 640.99729 504.431371 
C 641.835936 503.592725 642.307149 502.455118 642.307149 501.269093 
C 642.307149 500.083069 641.835936 498.945462 640.99729 498.106816 
C 640.158645 497.26817 639.021037 496.796957 637.835013 496.796957 
C 636.648988 496.796957 635.511381 497.26817 634.672735 498.106816 
C 633.834089 498.945462 633.362877 500.083069 633.362877 501.269093 
C 633.362877 502.455118 633.834089 503.592725 634.672735 504.431371 
C 635.511381 505.270017 636.648988 505.741229 637.835013 505.741229 
z
" clip-path="url(#p5edfb76dfa)" style="fill: #879dba; stroke: #879dba"/>
    <path d="M 642.983178 478.277342 
C 644.169203 478.277342 645.30681 477.806129 646.145456 476.967484 
C 646.984102 476.128838 647.455314 474.99123 647.455314 473.805206 
C 647.455314 472.619182 646.984102 471.481574 646.145456 470.642928 
C 645.30681 469.804282 644.169203 469.33307 642.983178 469.33307 
C 641.797154 469.33307 640.659547 469.804282 639.820901 470.642928 
C 638.982255 471.481574 638.511042 472.619182 638.511042 473.805206 
C 638.511042 474.99123 638.982255 476.128838 639.820901 476.967484 
C 640.659547 477.806129 641.797154 478.277342 642.983178 478.277342 
z
" clip-path="url(#p5edfb76dfa)" style="fill: #879dba; stroke: #879dba"/>
    <path d="M 645.546755 450.435222 
C 646.732779 450.435222 647.870387 449.964009 648.709032 449.125364 
C 649.547678 448.286718 650.018891 447.14911 650.018891 445.963086 
C 650.018891 444.777062 649.547678 443.639454 648.709032 442.800808 
C 647.870387 441.962162 646.732779 441.49095 645.546755 441.49095 
C 644.36073 441.49095 643.223123 441.962162 642.384477 442.800808 
C 641.545831 443.639454 641.074619 444.777062 641.074619 445.963086 
C 641.074619 447.14911 641.545831 448.286718 642.384477 449.125364 
C 643.223123 449.964009 644.36073 450.435222 645.546755 450.435222 
z
" clip-path="url(#p5edfb76dfa)" style="fill: #879dba; stroke: #879dba"/>
   </g>
   <g id="patch_3">
    <path d="M 10.8 764.486395 
L 10.8 99.513605 
" style="fill: none; stroke: #000000; stroke-width: 0.8; stroke-linejoin: miter; stroke-linecap: square"/>
   </g>
   <g id="patch_4">
    <path d="M 675.772791 764.486395 
L 675.772791 99.513605 
" style="fill: none; stroke: #000000; stroke-width: 0.8; stroke-linejoin: miter; stroke-linecap: square"/>
   </g>
   <g id="patch_5">
    <path d="M 10.8 764.486395 
L 675.772791 764.486395 
" style="fill: none; stroke: #000000; stroke-width: 0.8; stroke-linejoin: miter; stroke-linecap: square"/>
   </g>
   <g id="patch_6">
    <path d="M 10.8 99.513605 
L 675.772791 99.513605 
" style="fill: none; stroke: #000000; stroke-width: 0.8; stroke-linejoin: miter; stroke-linecap: square"/>
   </g>
   <g id="text_1">
    <!-- Year: 1896 -->
    <g transform="translate(17.449728 126.918828) scale(0.3 -0.3)">
     <defs>
      <path id="CMR17-59" d="M 3706 3766 
C 3955 4160 4301 4160 4416 4160 
L 4416 4332 
C 4269 4319 4102 4319 3942 4319 
C 3782 4319 3526 4319 3373 4332 
L 3373 4160 
C 3533 4160 3616 4077 3616 3957 
C 3616 3881 3584 3830 3533 3747 
L 2381 1912 
L 1120 3912 
C 1075 3988 1069 3994 1069 4039 
C 1069 4160 1293 4160 1382 4160 
L 1382 4319 
C 1178 4319 864 4319 653 4319 
C 486 4319 166 4319 13 4332 
L 13 4160 
C 378 4160 480 4141 595 3958 
L 2010 1728 
L 2010 445 
C 2010 160 1939 160 1498 160 
L 1498 0 
C 1683 0 2016 0 2214 0 
C 2413 0 2752 0 2938 0 
L 2938 160 
C 2477 160 2419 160 2419 471 
L 2419 1728 
L 3706 3766 
z
" transform="scale(0.015625)"/>
      <path id="CMR17-65" d="M 2438 1472 
C 2464 1498 2464 1511 2464 1576 
C 2464 2238 2118 2816 1389 2816 
C 710 2816 173 2169 173 1383 
C 173 551 781 -64 1459 -64 
C 2176 -64 2458 607 2458 740 
C 2458 784 2419 784 2406 784 
C 2362 784 2355 771 2330 696 
C 2189 265 1837 51 1504 51 
C 1229 51 954 203 781 480 
C 582 803 582 1176 582 1472 
L 2438 1472 
z
M 589 1568 
C 634 2505 1126 2714 1382 2714 
C 1818 2714 2112 2297 2118 1568 
L 589 1568 
z
" transform="scale(0.015625)"/>
      <path id="CMR17-61" d="M 2304 1653 
C 2304 2072 2304 2294 2035 2543 
C 1798 2752 1523 2816 1306 2816 
C 800 2816 435 2407 435 1971 
C 435 1728 627 1728 666 1728 
C 749 1728 896 1778 896 1954 
C 896 2112 774 2181 666 2181 
C 640 2181 608 2174 589 2168 
C 723 2592 1069 2714 1293 2714 
C 1613 2714 1965 2429 1965 1885 
L 1965 1600 
C 1587 1600 1133 1549 774 1357 
C 371 1133 256 813 256 570 
C 256 77 832 -64 1171 -64 
C 1523 -64 1850 139 1990 511 
C 2003 233 2182 -18 2464 -18 
C 2598 -18 2938 70 2938 567 
L 2938 920 
L 2822 920 
L 2822 562 
C 2822 178 2650 128 2566 128 
C 2304 128 2304 458 2304 738 
L 2304 1653 
z
M 1965 870 
C 1965 317 1568 38 1216 38 
C 896 38 646 275 646 570 
C 646 761 730 1100 1101 1305 
C 1408 1478 1760 1504 1965 1504 
L 1965 870 
z
" transform="scale(0.015625)"/>
      <path id="CMR17-72" d="M 960 1497 
C 960 2112 1222 2688 1702 2688 
C 1747 2688 1792 2682 1837 2662 
C 1837 2662 1696 2617 1696 2452 
C 1696 2298 1818 2234 1914 2234 
C 1990 2234 2131 2279 2131 2458 
C 2131 2663 1926 2790 1709 2790 
C 1222 2790 1011 2317 947 2093 
L 941 2093 
L 941 2790 
L 198 2720 
L 198 2554 
C 576 2554 634 2515 634 2208 
L 634 428 
C 634 184 608 153 198 153 
L 198 -13 
C 352 0 646 0 813 0 
C 998 0 1325 0 1498 -13 
L 1498 153 
C 1037 153 960 153 960 440 
L 960 1497 
z
" transform="scale(0.015625)"/>
      <path id="CMR17-3a" d="M 1062 2491 
C 1062 2650 934 2752 800 2752 
C 672 2752 538 2650 538 2491 
C 538 2332 666 2230 800 2230 
C 928 2230 1062 2332 1062 2491 
z
M 1062 261 
C 1062 420 934 522 800 522 
C 672 522 538 420 538 261 
C 538 102 666 0 800 0 
C 928 0 1062 102 1062 261 
z
" transform="scale(0.015625)"/>
      <path id="CMR17-31" d="M 1702 4058 
C 1702 4192 1696 4192 1606 4192 
C 1357 3916 979 3827 621 3827 
C 602 3827 570 3827 563 3808 
C 557 3795 557 3782 557 3648 
C 755 3648 1088 3686 1344 3839 
L 1344 461 
C 1344 236 1331 160 781 160 
L 589 160 
L 589 0 
C 896 0 1216 0 1523 0 
C 1830 0 2150 0 2458 0 
L 2458 160 
L 2266 160 
C 1715 160 1702 230 1702 458 
L 1702 4058 
z
" transform="scale(0.015625)"/>
      <path id="CMR17-38" d="M 1741 2264 
C 2144 2467 2554 2773 2554 3263 
C 2554 3841 1990 4179 1472 4179 
C 890 4179 378 3759 378 3180 
C 378 3021 416 2747 666 2505 
C 730 2442 998 2251 1171 2130 
C 883 1983 211 1634 211 934 
C 211 279 838 -128 1459 -128 
C 2144 -128 2720 362 2720 1010 
C 2720 1590 2330 1857 2074 2029 
L 1741 2264 
z
M 902 2822 
C 851 2854 595 3051 595 3351 
C 595 3739 998 4032 1459 4032 
C 1965 4032 2336 3676 2336 3262 
C 2336 2669 1670 2331 1638 2331 
C 1632 2331 1626 2331 1574 2370 
L 902 2822 
z
M 2080 1519 
C 2176 1449 2483 1240 2483 851 
C 2483 381 2010 25 1472 25 
C 890 25 448 438 448 940 
C 448 1443 838 1862 1280 2060 
L 2080 1519 
z
" transform="scale(0.015625)"/>
      <path id="CMR17-39" d="M 2253 1864 
C 2253 464 1670 31 1190 31 
C 1043 31 685 31 538 294 
C 704 268 826 357 826 518 
C 826 692 685 749 595 749 
C 538 749 365 723 365 506 
C 365 71 742 -128 1203 -128 
C 1939 -128 2688 674 2688 2073 
C 2688 3817 1971 4179 1485 4179 
C 851 4179 243 3628 243 2778 
C 243 1991 762 1408 1414 1408 
C 1952 1408 2189 1903 2253 2112 
L 2253 1864 
z
M 1427 1510 
C 1254 1510 1011 1542 813 1922 
C 678 2169 678 2461 678 2771 
C 678 3146 678 3405 858 3684 
C 947 3817 1114 4032 1485 4032 
C 2240 4032 2240 2885 2240 2632 
C 2240 2182 2035 1510 1427 1510 
z
" transform="scale(0.015625)"/>
      <path id="CMR17-36" d="M 678 2176 
C 678 3690 1395 4032 1811 4032 
C 1946 4032 2272 4009 2400 3776 
C 2298 3776 2106 3776 2106 3553 
C 2106 3381 2246 3323 2336 3323 
C 2394 3323 2566 3348 2566 3560 
C 2566 3954 2246 4179 1805 4179 
C 1043 4179 243 3390 243 1984 
C 243 253 966 -128 1478 -128 
C 2099 -128 2688 427 2688 1283 
C 2688 2081 2170 2662 1517 2662 
C 1126 2662 838 2407 678 1960 
L 678 2176 
z
M 1478 25 
C 691 25 691 1200 691 1436 
C 691 1896 909 2560 1504 2560 
C 1613 2560 1926 2560 2138 2120 
C 2253 1870 2253 1609 2253 1289 
C 2253 944 2253 690 2118 434 
C 1978 171 1773 25 1478 25 
z
" transform="scale(0.015625)"/>
     </defs>
     <use xlink:href="#CMR17-59" transform="scale(0.996264)"/>
     <use xlink:href="#CMR17-65" transform="translate(61.265174 0) scale(0.996264)"/>
     <use xlink:href="#CMR17-61" transform="translate(101.750835 0) scale(0.996264)"/>
     <use xlink:href="#CMR17-72" transform="translate(147.441312 0) scale(0.996264)"/>
     <use xlink:href="#CMR17-3a" transform="translate(182.72208 0) scale(0.996264)"/>
     <use xlink:href="#CMR17-31" transform="translate(248.078799 0) scale(0.996264)"/>
     <use xlink:href="#CMR17-38" transform="translate(293.769276 0) scale(0.996264)"/>
     <use xlink:href="#CMR17-39" transform="translate(339.459753 0) scale(0.996264)"/>
     <use xlink:href="#CMR17-36" transform="translate(385.15023 0) scale(0.996264)"/>
    </g>
   </g>
  </g>
  <g id="axes_2">
   <g id="patch_7">
    <path d="M 717.33359 853.2 
L 759.45359 853.2 
L 759.45359 10.8 
L 717.33359 10.8 
z
" style="fill: #ffffff"/>
   </g>
   <g id="QuadMesh_1">
    <path d="M 717.33359 853.2 
L 759.45359 853.2 
L 759.45359 747.9 
L 717.33359 747.9 
L 717.33359 853.2 
" clip-path="url(#p1adc4d9cea)" style="fill: #ad35ca"/>
    <path d="M 717.33359 747.9 
L 759.45359 747.9 
L 759.45359 642.6 
L 717.33359 642.6 
L 717.33359 747.9 
" clip-path="url(#p1adc4d9cea)" style="fill: #8f81b5"/>
    <path d="M 717.33359 642.6 
L 759.45359 642.6 
L 759.45359 537.3 
L 717.33359 537.3 
L 717.33359 642.6 
" clip-path="url(#p1adc4d9cea)" style="fill: #879dba"/>
    <path d="M 717.33359 537.3 
L 759.45359 537.3 
L 759.45359 432 
L 717.33359 432 
L 717.33359 537.3 
" clip-path="url(#p1adc4d9cea)" style="fill: #7bb4be"/>
    <path d="M 717.33359 432 
L 759.45359 432 
L 759.45359 326.7 
L 717.33359 326.7 
L 717.33359 432 
" clip-path="url(#p1adc4d9cea)" style="fill: #79c6b7"/>
    <path d="M 717.33359 326.7 
L 759.45359 326.7 
L 759.45359 221.4 
L 717.33359 221.4 
L 717.33359 326.7 
" clip-path="url(#p1adc4d9cea)" style="fill: #a1ccad"/>
    <path d="M 717.33359 221.4 
L 759.45359 221.4 
L 759.45359 116.1 
L 717.33359 116.1 
L 717.33359 221.4 
" clip-path="url(#p1adc4d9cea)" style="fill: #c1d59b"/>
    <path d="M 717.33359 116.1 
L 759.45359 116.1 
L 759.45359 10.8 
L 717.33359 10.8 
L 717.33359 116.1 
" clip-path="url(#p1adc4d9cea)" style="fill: #e4dc96"/>
   </g>
   <g id="matplotlib.axis_3"/>
   <g id="matplotlib.axis_4">
    <g id="ytick_7">
     <g id="line2d_1">
      <defs>
       <path id="mce24104657" d="M 0 0 
L 3.5 0 
" style="stroke: #000000; stroke-width: 0.8"/>
      </defs>
      <g>
       <use xlink:href="#mce24104657" x="759.45359" y="800.55" style="stroke: #000000; stroke-width: 0.8"/>
      </g>
     </g>
     <g id="text_2">
      <!-- 0 -->
      <g transform="translate(766.45359 811.619603) scale(0.32 -0.32)">
       <defs>
        <path id="CMR17-30" d="M 2688 2025 
C 2688 2416 2682 3080 2413 3591 
C 2176 4039 1798 4198 1466 4198 
C 1158 4198 768 4058 525 3597 
C 269 3118 243 2524 243 2025 
C 243 1661 250 1106 448 619 
C 723 -39 1216 -128 1466 -128 
C 1760 -128 2208 -7 2470 600 
C 2662 1042 2688 1559 2688 2025 
z
M 1466 -26 
C 1056 -26 813 325 723 812 
C 653 1188 653 1738 653 2096 
C 653 2588 653 2997 736 3387 
C 858 3929 1216 4096 1466 4096 
C 1728 4096 2067 3923 2189 3400 
C 2272 3036 2278 2607 2278 2096 
C 2278 1680 2278 1169 2202 792 
C 2067 95 1690 -26 1466 -26 
z
" transform="scale(0.015625)"/>
       </defs>
       <use xlink:href="#CMR17-30" transform="scale(0.996264)"/>
      </g>
     </g>
    </g>
    <g id="ytick_8">
     <g id="line2d_2">
      <g>
       <use xlink:href="#mce24104657" x="759.45359" y="695.25" style="stroke: #000000; stroke-width: 0.8"/>
      </g>
     </g>
     <g id="text_3">
      <!-- 1 -->
      <g transform="translate(766.45359 706.319603) scale(0.32 -0.32)">
       <use xlink:href="#CMR17-31" transform="scale(0.996264)"/>
      </g>
     </g>
    </g>
    <g id="ytick_9">
     <g id="line2d_3">
      <g>
       <use xlink:href="#mce24104657" x="759.45359" y="589.95" style="stroke: #000000; stroke-width: 0.8"/>
      </g>
     </g>
     <g id="text_4">
      <!-- 2 -->
      <g transform="translate(766.45359 601.019603) scale(0.32 -0.32)">
       <defs>
        <path id="CMR17-32" d="M 2669 989 
L 2554 989 
C 2490 536 2438 459 2413 420 
C 2381 369 1920 369 1830 369 
L 602 369 
C 832 619 1280 1072 1824 1597 
C 2214 1967 2669 2402 2669 3035 
C 2669 3790 2067 4224 1395 4224 
C 691 4224 262 3604 262 3030 
C 262 2780 448 2748 525 2748 
C 589 2748 781 2787 781 3010 
C 781 3207 614 3264 525 3264 
C 486 3264 448 3258 422 3245 
C 544 3790 915 4058 1306 4058 
C 1862 4058 2227 3617 2227 3035 
C 2227 2479 1901 2000 1536 1584 
L 262 146 
L 262 0 
L 2515 0 
L 2669 989 
z
" transform="scale(0.015625)"/>
       </defs>
       <use xlink:href="#CMR17-32" transform="scale(0.996264)"/>
      </g>
     </g>
    </g>
    <g id="ytick_10">
     <g id="line2d_4">
      <g>
       <use xlink:href="#mce24104657" x="759.45359" y="484.65" style="stroke: #000000; stroke-width: 0.8"/>
      </g>
     </g>
     <g id="text_5">
      <!-- 3 -->
      <g transform="translate(766.45359 495.719603) scale(0.32 -0.32)">
       <defs>
        <path id="CMR17-33" d="M 1414 2157 
C 1984 2157 2234 1662 2234 1090 
C 2234 320 1824 25 1453 25 
C 1114 25 563 194 390 693 
C 422 680 454 680 486 680 
C 640 680 755 782 755 948 
C 755 1133 614 1216 486 1216 
C 378 1216 211 1165 211 926 
C 211 335 787 -128 1466 -128 
C 2176 -128 2720 430 2720 1085 
C 2720 1707 2208 2157 1600 2227 
C 2086 2328 2554 2756 2554 3329 
C 2554 3820 2048 4179 1472 4179 
C 890 4179 378 3829 378 3329 
C 378 3110 544 3072 627 3072 
C 762 3072 877 3155 877 3321 
C 877 3486 762 3569 627 3569 
C 602 3569 570 3569 544 3557 
C 730 3959 1235 4032 1459 4032 
C 1683 4032 2106 3925 2106 3320 
C 2106 3143 2080 2828 1862 2550 
C 1670 2304 1453 2304 1242 2284 
C 1210 2284 1062 2269 1037 2269 
C 992 2263 966 2257 966 2208 
C 966 2163 973 2157 1101 2157 
L 1414 2157 
z
" transform="scale(0.015625)"/>
       </defs>
       <use xlink:href="#CMR17-33" transform="scale(0.996264)"/>
      </g>
     </g>
    </g>
    <g id="ytick_11">
     <g id="line2d_5">
      <g>
       <use xlink:href="#mce24104657" x="759.45359" y="379.35" style="stroke: #000000; stroke-width: 0.8"/>
      </g>
     </g>
     <g id="text_6">
      <!-- 4 -->
      <g transform="translate(766.45359 390.419603) scale(0.32 -0.32)">
       <defs>
        <path id="CMR17-34" d="M 2150 4122 
C 2150 4256 2144 4256 2029 4256 
L 128 1254 
L 128 1088 
L 1779 1088 
L 1779 457 
C 1779 224 1766 160 1318 160 
L 1197 160 
L 1197 0 
C 1402 0 1747 0 1965 0 
C 2182 0 2528 0 2733 0 
L 2733 160 
L 2611 160 
C 2163 160 2150 224 2150 457 
L 2150 1088 
L 2803 1088 
L 2803 1254 
L 2150 1254 
L 2150 4122 
z
M 1798 3703 
L 1798 1254 
L 256 1254 
L 1798 3703 
z
" transform="scale(0.015625)"/>
       </defs>
       <use xlink:href="#CMR17-34" transform="scale(0.996264)"/>
      </g>
     </g>
    </g>
    <g id="ytick_12">
     <g id="line2d_6">
      <g>
       <use xlink:href="#mce24104657" x="759.45359" y="274.05" style="stroke: #000000; stroke-width: 0.8"/>
      </g>
     </g>
     <g id="text_7">
      <!-- 5 -->
      <g transform="translate(766.45359 285.119603) scale(0.32 -0.32)">
       <defs>
        <path id="CMR17-35" d="M 730 3692 
C 794 3666 1056 3584 1325 3584 
C 1920 3584 2246 3911 2432 4100 
C 2432 4157 2432 4192 2394 4192 
C 2387 4192 2374 4192 2323 4163 
C 2099 4058 1837 3973 1517 3973 
C 1325 3973 1037 3999 723 4139 
C 653 4171 640 4171 634 4171 
C 602 4171 595 4164 595 4037 
L 595 2203 
C 595 2089 595 2057 659 2057 
C 691 2057 704 2070 736 2114 
C 941 2401 1222 2522 1542 2522 
C 1766 2522 2246 2382 2246 1289 
C 2246 1085 2246 715 2054 421 
C 1894 159 1645 25 1370 25 
C 947 25 518 320 403 814 
C 429 807 480 795 506 795 
C 589 795 749 840 749 1038 
C 749 1210 627 1280 506 1280 
C 358 1280 262 1190 262 1011 
C 262 454 704 -128 1382 -128 
C 2042 -128 2669 440 2669 1264 
C 2669 2030 2170 2624 1549 2624 
C 1222 2624 947 2503 730 2274 
L 730 3692 
z
" transform="scale(0.015625)"/>
       </defs>
       <use xlink:href="#CMR17-35" transform="scale(0.996264)"/>
      </g>
     </g>
    </g>
    <g id="ytick_13">
     <g id="line2d_7">
      <g>
       <use xlink:href="#mce24104657" x="759.45359" y="168.75" style="stroke: #000000; stroke-width: 0.8"/>
      </g>
     </g>
     <g id="text_8">
      <!-- 6 -->
      <g transform="translate(766.45359 179.819603) scale(0.32 -0.32)">
       <use xlink:href="#CMR17-36" transform="scale(0.996264)"/>
      </g>
     </g>
    </g>
    <g id="ytick_14">
     <g id="line2d_8">
      <g>
       <use xlink:href="#mce24104657" x="759.45359" y="63.45" style="stroke: #000000; stroke-width: 0.8"/>
      </g>
     </g>
     <g id="text_9">
      <!-- 7 -->
      <g transform="translate(766.45359 74.519603) scale(0.32 -0.32)">
       <defs>
        <path id="CMR17-37" d="M 2886 3941 
L 2886 4081 
L 1382 4081 
C 634 4081 621 4165 595 4288 
L 480 4288 
L 294 3094 
L 410 3094 
C 429 3215 474 3540 550 3661 
C 589 3712 1062 3712 1171 3712 
L 2579 3712 
L 1869 2661 
C 1395 1954 1069 999 1069 165 
C 1069 89 1069 -128 1299 -128 
C 1530 -128 1530 89 1530 171 
L 1530 465 
C 1530 1508 1709 2196 2003 2636 
L 2886 3941 
z
" transform="scale(0.015625)"/>
       </defs>
       <use xlink:href="#CMR17-37" transform="scale(0.996264)"/>
      </g>
     </g>
    </g>
    <g id="ytick_15">
     <g id="line2d_9">
      <defs>
       <path id="ma4deade14e" d="M 0 0 
L 2 0 
" style="stroke: #000000; stroke-width: 0.6"/>
      </defs>
      <g>
       <use xlink:href="#ma4deade14e" x="759.45359" y="853.2" style="stroke: #000000; stroke-width: 0.6"/>
      </g>
     </g>
    </g>
    <g id="ytick_16">
     <g id="line2d_10">
      <g>
       <use xlink:href="#ma4deade14e" x="759.45359" y="747.9" style="stroke: #000000; stroke-width: 0.6"/>
      </g>
     </g>
    </g>
    <g id="ytick_17">
     <g id="line2d_11">
      <g>
       <use xlink:href="#ma4deade14e" x="759.45359" y="642.6" style="stroke: #000000; stroke-width: 0.6"/>
      </g>
     </g>
    </g>
    <g id="ytick_18">
     <g id="line2d_12">
      <g>
       <use xlink:href="#ma4deade14e" x="759.45359" y="537.3" style="stroke: #000000; stroke-width: 0.6"/>
      </g>
     </g>
    </g>
    <g id="ytick_19">
     <g id="line2d_13">
      <g>
       <use xlink:href="#ma4deade14e" x="759.45359" y="432" style="stroke: #000000; stroke-width: 0.6"/>
      </g>
     </g>
    </g>
    <g id="ytick_20">
     <g id="line2d_14">
      <g>
       <use xlink:href="#ma4deade14e" x="759.45359" y="326.7" style="stroke: #000000; stroke-width: 0.6"/>
      </g>
     </g>
    </g>
    <g id="ytick_21">
     <g id="line2d_15">
      <g>
       <use xlink:href="#ma4deade14e" x="759.45359" y="221.4" style="stroke: #000000; stroke-width: 0.6"/>
      </g>
     </g>
    </g>
    <g id="ytick_22">
     <g id="line2d_16">
      <g>
       <use xlink:href="#ma4deade14e" x="759.45359" y="116.1" style="stroke: #000000; stroke-width: 0.6"/>
      </g>
     </g>
    </g>
    <g id="ytick_23">
     <g id="line2d_17">
      <g>
       <use xlink:href="#ma4deade14e" x="759.45359" y="10.8" style="stroke: #000000; stroke-width: 0.6"/>
      </g>
     </g>
    </g>
    <g id="text_10">
     <!-- Node Depth -->
     <g transform="translate(828.899641 543.95779) rotate(-90) scale(0.46 -0.46)">
      <defs>
       <path id="CMR17-4e" d="M 1312 4250 
C 1267 4320 1261 4320 1139 4320 
L 326 4320 
L 326 4160 
L 448 4160 
C 704 4160 819 4129 838 4122 
L 838 610 
C 838 451 838 153 326 153 
L 326 -13 
C 474 0 742 0 902 0 
C 1062 0 1331 0 1478 -13 
L 1478 153 
C 966 153 966 451 966 610 
L 966 4033 
C 1011 3995 1011 3982 1056 3919 
L 3430 76 
C 3475 0 3494 0 3526 0 
C 3590 0 3590 19 3590 139 
L 3590 3705 
C 3590 3863 3590 4160 4102 4160 
L 4102 4326 
C 3955 4320 3686 4320 3526 4320 
C 3366 4320 3098 4320 2950 4326 
L 2950 4160 
C 3462 4160 3462 3862 3462 3703 
L 3462 763 
L 1312 4250 
z
" transform="scale(0.015625)"/>
       <path id="CMR17-6f" d="M 2758 1356 
C 2758 2176 2163 2816 1466 2816 
C 768 2816 173 2176 173 1356 
C 173 551 768 -64 1466 -64 
C 2163 -64 2758 551 2758 1356 
z
M 1466 51 
C 1165 51 909 230 762 480 
C 602 767 582 1126 582 1408 
C 582 1677 595 2010 762 2298 
C 890 2509 1139 2714 1466 2714 
C 1754 2714 1997 2554 2150 2330 
C 2349 2029 2349 1607 2349 1408 
C 2349 1158 2336 775 2163 467 
C 1984 173 1709 51 1466 51 
z
" transform="scale(0.015625)"/>
       <path id="CMR17-64" d="M 1869 4326 
L 1869 4160 
C 2246 4160 2304 4122 2304 3820 
L 2304 2345 
C 2278 2377 2016 2790 1498 2790 
C 845 2790 211 2208 211 1364 
C 211 525 806 -64 1434 -64 
C 1978 -64 2259 337 2291 380 
L 2291 -63 
L 3066 -63 
L 3066 128 
C 2688 128 2630 166 2630 473 
L 2630 4396 
L 1869 4326 
z
M 2291 755 
C 2291 563 2176 390 2029 262 
C 1811 70 1594 38 1472 38 
C 1286 38 621 134 621 1356 
C 621 2612 1363 2688 1530 2688 
C 1824 2688 2061 2522 2208 2291 
C 2291 2157 2291 2138 2291 2023 
L 2291 755 
z
" transform="scale(0.015625)"/>
       <path id="CMR17-44" d="M 333 4352 
L 333 4186 
C 774 4186 845 4186 845 3900 
L 845 452 
C 845 166 774 166 333 166 
L 333 0 
L 2368 0 
C 3398 0 4224 943 4224 2141 
C 4224 3346 3411 4352 2368 4352 
L 333 4352 
z
M 1523 166 
C 1267 166 1254 197 1254 414 
L 1254 3938 
C 1254 4155 1267 4186 1523 4186 
L 2240 4186 
C 2771 4186 3750 3874 3750 2141 
C 3750 1242 3488 879 3366 707 
C 3213 510 2848 166 2240 166 
L 1523 166 
z
" transform="scale(0.015625)"/>
       <path id="CMR17-70" d="M 1408 -1063 
C 998 -1063 973 -1037 973 -789 
L 973 402 
C 1158 134 1427 -38 1766 -38 
C 2406 -38 3053 523 3053 1388 
C 3053 2191 2496 2802 1837 2802 
C 1453 2802 1139 2592 960 2338 
L 960 2802 
L 198 2732 
L 198 2567 
C 576 2567 634 2528 634 2223 
L 634 -789 
C 634 -1031 608 -1063 198 -1063 
L 198 -1228 
C 352 -1216 634 -1216 800 -1216 
C 966 -1216 1254 -1216 1408 -1228 
L 1408 -1063 
z
M 973 2012 
C 973 2102 973 2235 1222 2471 
C 1254 2497 1472 2688 1792 2688 
C 2259 2688 2643 2108 2643 1382 
C 2643 656 2234 64 1728 64 
C 1498 64 1248 172 1056 472 
C 973 612 973 650 973 752 
L 973 2012 
z
" transform="scale(0.015625)"/>
       <path id="CMR17-74" d="M 966 2560 
L 1862 2560 
L 1862 2725 
L 966 2725 
L 966 3904 
L 851 3904 
C 838 3245 614 2668 70 2668 
L 70 2560 
L 627 2560 
L 627 771 
C 627 650 627 -64 1370 -64 
C 1747 -64 1965 306 1965 777 
L 1965 1140 
L 1850 1140 
L 1850 783 
C 1850 344 1677 51 1408 51 
C 1222 51 966 178 966 758 
L 966 2560 
z
" transform="scale(0.015625)"/>
       <path id="CMR17-68" d="M 2656 1933 
C 2656 2259 2592 2790 1837 2790 
C 1312 2790 1056 2368 979 2157 
L 973 2157 
L 973 4396 
L 211 4326 
L 211 4160 
C 589 4160 646 4122 646 3817 
L 646 426 
C 646 184 621 153 211 153 
L 211 -13 
C 365 0 646 0 813 0 
C 979 0 1267 0 1421 -13 
L 1421 153 
C 1011 153 986 178 986 428 
L 986 1658 
C 986 2247 1344 2688 1792 2688 
C 2266 2688 2317 2266 2317 1958 
L 2317 428 
C 2317 184 2291 153 1882 153 
L 1882 -13 
C 2035 0 2317 0 2483 0 
C 2650 0 2938 0 3091 -13 
L 3091 153 
C 2682 153 2656 178 2656 428 
L 2656 1933 
z
" transform="scale(0.015625)"/>
      </defs>
      <use xlink:href="#CMR17-4e" transform="scale(0.996264)"/>
      <use xlink:href="#CMR17-6f" transform="translate(69.07243 0) scale(0.996264)"/>
      <use xlink:href="#CMR17-64" transform="translate(117.365346 0) scale(0.996264)"/>
      <use xlink:href="#CMR17-65" transform="translate(168.260715 0) scale(0.996264)"/>
      <use xlink:href="#CMR17-44" transform="translate(238.822342 0) scale(0.996264)"/>
      <use xlink:href="#CMR17-65" transform="translate(309.215898 0) scale(0.996264)"/>
      <use xlink:href="#CMR17-70" transform="translate(349.701559 0) scale(0.996264)"/>
      <use xlink:href="#CMR17-74" transform="translate(400.596928 0) scale(0.996264)"/>
      <use xlink:href="#CMR17-68" transform="translate(435.877696 0) scale(0.996264)"/>
     </g>
    </g>
   </g>
   <g id="LineCollection_2"/>
   <g id="patch_8">
    <path d="M 717.33359 853.2 
L 738.39359 853.2 
L 759.45359 853.2 
L 759.45359 10.8 
L 738.39359 10.8 
L 717.33359 10.8 
L 717.33359 853.2 
z
" style="fill: none; stroke: #000000; stroke-width: 0.8; stroke-linejoin: miter; stroke-linecap: square"/>
   </g>
  </g>
 </g>
 <defs>
  <clipPath id="p5edfb76dfa">
   <rect x="10.8" y="99.513605" width="664.972791" height="664.972791"/>
  </clipPath>
  <clipPath id="p1adc4d9cea">
   <rect x="717.33359" y="10.8" width="42.12" height="842.4"/>
  </clipPath>
 </defs>
</svg>
