<?xml version="1.0" encoding="utf-8" standalone="no"?>
<!DOCTYPE svg PUBLIC "-//W3C//DTD SVG 1.1//EN"
  "http://www.w3.org/Graphics/SVG/1.1/DTD/svg11.dtd">
<svg xmlns:xlink="http://www.w3.org/1999/xlink" width="864pt" height="864pt" viewBox="0 0 864 864" xmlns="http://www.w3.org/2000/svg" version="1.1">
 <metadata>
  <rdf:RDF xmlns:dc="http://purl.org/dc/elements/1.1/" xmlns:cc="http://creativecommons.org/ns#" xmlns:rdf="http://www.w3.org/1999/02/22-rdf-syntax-ns#">
   <cc:Work>
    <dc:type rdf:resource="http://purl.org/dc/dcmitype/StillImage"/>
    <dc:date>2026-06-09T22:33:03.061822</dc:date>
    <dc:format>image/svg+xml</dc:format>
    <dc:creator>
     <cc:Agent>
      <dc:title>Matplotlib v3.9.2, https://matplotlib.org/</dc:title>
     </cc:Agent>
    </dc:creator>
   </cc:Work>
  </rdf:RDF>
 </metadata>
 <defs>
  <style type="text/css">*{stroke-linejoin: round; stroke-linecap: butt}</style>
 </defs>
 <g id="figure_1">
  <g id="patch_1">
   <path d="M 0 864 
L 864 864 
L 864 0 
L 0 0 
z
" style="fill: #ffffff"/>
  </g>
  <g id="axes_1">
   <g id="patch_2">
    <path d="M 10.8 764.486395 
L 675.772791 764.486395 
L 675.772791 99.513605 
L 10.8 99.513605 
z
" style="fill: #ffffff"/>
   </g>
   <g id="LineCollection_1">
    <path d="M 343.412363 432 
L 249.16726 313.820965 
" clip-path="url(#pd807c608c6)" style="fill: none; stroke: #808080; stroke-opacity: 0.3"/>
    <path d="M 343.412363 432 
L 328.023265 582.376471 
" clip-path="url(#pd807c608c6)" style="fill: none; stroke: #808080; stroke-opacity: 0.3"/>
    <path d="M 343.412363 432 
L 400.538879 571.948415 
" clip-path="url(#pd807c608c6)" style="fill: none; stroke: #808080; stroke-opacity: 0.3"/>
    <path d="M 343.412363 432 
L 482.166181 491.981791 
" clip-path="url(#pd807c608c6)" style="fill: none; stroke: #808080; stroke-opacity: 0.3"/>
    <path d="M 249.16726 313.820965 
L 645.483771 419.676125 
" clip-path="url(#pd807c608c6)" style="fill: none; stroke: #808080; stroke-opacity: 0.3"/>
    <path d="M 249.16726 313.820965 
L 643.468282 395.091358 
" clip-path="url(#pd807c608c6)" style="fill: none; stroke: #808080; stroke-opacity: 0.3"/>
    <path d="M 249.16726 313.820965 
L 639.458299 370.758528 
" clip-path="url(#pd807c608c6)" style="fill: none; stroke: #808080; stroke-opacity: 0.3"/>
    <path d="M 249.16726 313.820965 
L 633.49581 346.824597 
" clip-path="url(#pd807c608c6)" style="fill: none; stroke: #808080; stroke-opacity: 0.3"/>
    <path d="M 249.16726 313.820965 
L 625.580817 323.457522 
" clip-path="url(#pd807c608c6)" style="fill: none; stroke: #808080; stroke-opacity: 0.3"/>
    <path d="M 249.16726 313.820965 
L 615.797298 300.82526 
" clip-path="url(#pd807c608c6)" style="fill: none; stroke: #808080; stroke-opacity: 0.3"/>
    <path d="M 249.16726 313.820965 
L 604.187242 279.053781 
" clip-path="url(#pd807c608c6)" style="fill: none; stroke: #808080; stroke-opacity: 0.3"/>
    <path d="M 249.16726 313.820965 
L 590.855622 258.31104 
" clip-path="url(#pd807c608c6)" style="fill: none; stroke: #808080; stroke-opacity: 0.3"/>
    <path d="M 249.16726 313.820965 
L 575.886418 238.723007 
" clip-path="url(#pd807c608c6)" style="fill: none; stroke: #808080; stroke-opacity: 0.3"/>
    <path d="M 249.16726 313.820965 
L 559.363607 220.415649 
" clip-path="url(#pd807c608c6)" style="fill: none; stroke: #808080; stroke-opacity: 0.3"/>
    <path d="M 249.16726 313.820965 
L 541.392164 203.514934 
" clip-path="url(#pd807c608c6)" style="fill: none; stroke: #808080; stroke-opacity: 0.3"/>
    <path d="M 249.16726 313.820965 
L 522.119051 188.146831 
" clip-path="url(#pd807c608c6)" style="fill: none; stroke: #808080; stroke-opacity: 0.3"/>
    <path d="M 249.16726 313.820965 
L 501.628246 174.395318 
" clip-path="url(#pd807c608c6)" style="fill: none; stroke: #808080; stroke-opacity: 0.3"/>
    <path d="M 249.16726 313.820965 
L 480.108703 162.344373 
" clip-path="url(#pd807c608c6)" style="fill: none; stroke: #808080; stroke-opacity: 0.3"/>
    <path d="M 249.16726 313.820965 
L 457.686388 152.098971 
" clip-path="url(#pd807c608c6)" style="fill: none; stroke: #808080; stroke-opacity: 0.3"/>
    <path d="M 249.16726 313.820965 
L 434.487271 143.722095 
" clip-path="url(#pd807c608c6)" style="fill: none; stroke: #808080; stroke-opacity: 0.3"/>
    <path d="M 249.16726 313.820965 
L 410.679307 137.255735 
" clip-path="url(#pd807c608c6)" style="fill: none; stroke: #808080; stroke-opacity: 0.3"/>
    <path d="M 249.16726 313.820965 
L 386.430456 132.762874 
" clip-path="url(#pd807c608c6)" style="fill: none; stroke: #808080; stroke-opacity: 0.3"/>
    <path d="M 249.16726 313.820965 
L 361.908674 130.243513 
" clip-path="url(#pd807c608c6)" style="fill: none; stroke: #808080; stroke-opacity: 0.3"/>
    <path d="M 249.16726 313.820965 
L 337.239928 129.739641 
" clip-path="url(#pd807c608c6)" style="fill: none; stroke: #808080; stroke-opacity: 0.3"/>
    <path d="M 249.16726 313.820965 
L 312.634167 131.251257 
" clip-path="url(#pd807c608c6)" style="fill: none; stroke: #808080; stroke-opacity: 0.3"/>
    <path d="M 249.16726 313.820965 
L 288.217359 134.757368 
" clip-path="url(#pd807c608c6)" style="fill: none; stroke: #808080; stroke-opacity: 0.3"/>
    <path d="M 249.16726 313.820965 
L 264.178454 140.236979 
" clip-path="url(#pd807c608c6)" style="fill: none; stroke: #808080; stroke-opacity: 0.3"/>
    <path d="M 249.16726 313.820965 
L 240.664416 147.669094 
" clip-path="url(#pd807c608c6)" style="fill: none; stroke: #808080; stroke-opacity: 0.3"/>
    <path d="M 249.16726 313.820965 
L 217.822208 156.990731 
" clip-path="url(#pd807c608c6)" style="fill: none; stroke: #808080; stroke-opacity: 0.3"/>
    <path d="M 249.16726 313.820965 
L 195.819787 168.138904 
" clip-path="url(#pd807c608c6)" style="fill: none; stroke: #808080; stroke-opacity: 0.3"/>
    <path d="M 249.16726 313.820965 
L 174.804115 181.05063 
" clip-path="url(#pd807c608c6)" style="fill: none; stroke: #808080; stroke-opacity: 0.3"/>
    <path d="M 249.16726 313.820965 
L 154.922157 195.641931 
" clip-path="url(#pd807c608c6)" style="fill: none; stroke: #808080; stroke-opacity: 0.3"/>
    <path d="M 249.16726 313.820965 
L 136.278884 211.786837 
" clip-path="url(#pd807c608c6)" style="fill: none; stroke: #808080; stroke-opacity: 0.3"/>
    <path d="M 249.16726 313.820965 
L 119.02126 229.401371 
" clip-path="url(#pd807c608c6)" style="fill: none; stroke: #808080; stroke-opacity: 0.3"/>
    <path d="M 249.16726 313.820965 
L 103.254257 248.359564 
" clip-path="url(#pd807c608c6)" style="fill: none; stroke: #808080; stroke-opacity: 0.3"/>
    <path d="M 249.16726 313.820965 
L 89.082851 268.556442 
" clip-path="url(#pd807c608c6)" style="fill: none; stroke: #808080; stroke-opacity: 0.3"/>
    <path d="M 249.16726 313.820965 
L 76.612013 289.82405 
" clip-path="url(#pd807c608c6)" style="fill: none; stroke: #808080; stroke-opacity: 0.3"/>
    <path d="M 249.16726 313.820965 
L 65.904728 312.036418 
" clip-path="url(#pd807c608c6)" style="fill: none; stroke: #808080; stroke-opacity: 0.3"/>
    <path d="M 249.16726 313.820965 
L 57.044974 335.067578 
" clip-path="url(#pd807c608c6)" style="fill: none; stroke: #808080; stroke-opacity: 0.3"/>
    <path d="M 249.16726 313.820965 
L 50.095736 358.728579 
" clip-path="url(#pd807c608c6)" style="fill: none; stroke: #808080; stroke-opacity: 0.3"/>
    <path d="M 249.16726 313.820965 
L 45.099003 382.872457 
" clip-path="url(#pd807c608c6)" style="fill: none; stroke: #808080; stroke-opacity: 0.3"/>
    <path d="M 249.16726 313.820965 
L 42.096764 407.35225 
" clip-path="url(#pd807c608c6)" style="fill: none; stroke: #808080; stroke-opacity: 0.3"/>
    <path d="M 249.16726 313.820965 
L 41.08902 432 
" clip-path="url(#pd807c608c6)" style="fill: none; stroke: #808080; stroke-opacity: 0.3"/>
    <path d="M 249.16726 313.820965 
L 42.096764 456.64775 
" clip-path="url(#pd807c608c6)" style="fill: none; stroke: #808080; stroke-opacity: 0.3"/>
    <path d="M 249.16726 313.820965 
L 45.099003 481.127543 
" clip-path="url(#pd807c608c6)" style="fill: none; stroke: #808080; stroke-opacity: 0.3"/>
    <path d="M 249.16726 313.820965 
L 50.095736 505.271421 
" clip-path="url(#pd807c608c6)" style="fill: none; stroke: #808080; stroke-opacity: 0.3"/>
    <path d="M 249.16726 313.820965 
L 57.044974 528.932422 
" clip-path="url(#pd807c608c6)" style="fill: none; stroke: #808080; stroke-opacity: 0.3"/>
    <path d="M 249.16726 313.820965 
L 65.904728 551.963582 
" clip-path="url(#pd807c608c6)" style="fill: none; stroke: #808080; stroke-opacity: 0.3"/>
    <path d="M 249.16726 313.820965 
L 76.612013 574.173851 
" clip-path="url(#pd807c608c6)" style="fill: none; stroke: #808080; stroke-opacity: 0.3"/>
    <path d="M 249.16726 313.820965 
L 89.082851 595.447756 
" clip-path="url(#pd807c608c6)" style="fill: none; stroke: #808080; stroke-opacity: 0.3"/>
    <path d="M 249.16726 313.820965 
L 103.254257 615.634138 
" clip-path="url(#pd807c608c6)" style="fill: none; stroke: #808080; stroke-opacity: 0.3"/>
    <path d="M 249.16726 313.820965 
L 119.02126 634.598629 
" clip-path="url(#pd807c608c6)" style="fill: none; stroke: #808080; stroke-opacity: 0.3"/>
    <path d="M 249.16726 313.820965 
L 136.278884 652.215263 
" clip-path="url(#pd807c608c6)" style="fill: none; stroke: #808080; stroke-opacity: 0.3"/>
    <path d="M 249.16726 313.820965 
L 154.922157 668.366467 
" clip-path="url(#pd807c608c6)" style="fill: none; stroke: #808080; stroke-opacity: 0.3"/>
    <path d="M 249.16726 313.820965 
L 174.804115 682.943071 
" clip-path="url(#pd807c608c6)" style="fill: none; stroke: #808080; stroke-opacity: 0.3"/>
    <path d="M 249.16726 313.820965 
L 195.819787 695.850599 
" clip-path="url(#pd807c608c6)" style="fill: none; stroke: #808080; stroke-opacity: 0.3"/>
    <path d="M 249.16726 313.820965 
L 217.822208 707.002971 
" clip-path="url(#pd807c608c6)" style="fill: none; stroke: #808080; stroke-opacity: 0.3"/>
    <path d="M 249.16726 313.820965 
L 240.664416 716.324607 
" clip-path="url(#pd807c608c6)" style="fill: none; stroke: #808080; stroke-opacity: 0.3"/>
    <path d="M 249.16726 313.820965 
L 264.178454 723.754623 
" clip-path="url(#pd807c608c6)" style="fill: none; stroke: #808080; stroke-opacity: 0.3"/>
    <path d="M 328.023265 582.376471 
L 288.217359 729.242632 
" clip-path="url(#pd807c608c6)" style="fill: none; stroke: #808080; stroke-opacity: 0.3"/>
    <path d="M 328.023265 582.376471 
L 312.634167 732.752942 
" clip-path="url(#pd807c608c6)" style="fill: none; stroke: #808080; stroke-opacity: 0.3"/>
    <path d="M 328.023265 582.376471 
L 337.239928 734.260359 
" clip-path="url(#pd807c608c6)" style="fill: none; stroke: #808080; stroke-opacity: 0.3"/>
    <path d="M 400.538879 571.948415 
L 361.908674 733.756487 
" clip-path="url(#pd807c608c6)" style="fill: none; stroke: #808080; stroke-opacity: 0.3"/>
    <path d="M 400.538879 571.948415 
L 386.430456 731.245524 
" clip-path="url(#pd807c608c6)" style="fill: none; stroke: #808080; stroke-opacity: 0.3"/>
    <path d="M 400.538879 571.948415 
L 410.679307 726.744265 
" clip-path="url(#pd807c608c6)" style="fill: none; stroke: #808080; stroke-opacity: 0.3"/>
    <path d="M 400.538879 571.948415 
L 434.487271 720.280004 
" clip-path="url(#pd807c608c6)" style="fill: none; stroke: #808080; stroke-opacity: 0.3"/>
    <path d="M 400.538879 571.948415 
L 457.686388 711.89683 
" clip-path="url(#pd807c608c6)" style="fill: none; stroke: #808080; stroke-opacity: 0.3"/>
    <path d="M 400.538879 571.948415 
L 480.108703 701.651428 
" clip-path="url(#pd807c608c6)" style="fill: none; stroke: #808080; stroke-opacity: 0.3"/>
    <path d="M 400.538879 571.948415 
L 501.628246 689.610981 
" clip-path="url(#pd807c608c6)" style="fill: none; stroke: #808080; stroke-opacity: 0.3"/>
    <path d="M 400.538879 571.948415 
L 522.119051 675.857368 
" clip-path="url(#pd807c608c6)" style="fill: none; stroke: #808080; stroke-opacity: 0.3"/>
    <path d="M 400.538879 571.948415 
L 541.392164 660.480867 
" clip-path="url(#pd807c608c6)" style="fill: none; stroke: #808080; stroke-opacity: 0.3"/>
    <path d="M 482.166181 491.981791 
L 559.363607 643.582252 
" clip-path="url(#pd807c608c6)" style="fill: none; stroke: #808080; stroke-opacity: 0.3"/>
    <path d="M 482.166181 491.981791 
L 575.886418 625.276993 
" clip-path="url(#pd807c608c6)" style="fill: none; stroke: #808080; stroke-opacity: 0.3"/>
    <path d="M 482.166181 491.981791 
L 590.855622 605.68686 
" clip-path="url(#pd807c608c6)" style="fill: none; stroke: #808080; stroke-opacity: 0.3"/>
    <path d="M 482.166181 491.981791 
L 604.187242 584.937821 
" clip-path="url(#pd807c608c6)" style="fill: none; stroke: #808080; stroke-opacity: 0.3"/>
    <path d="M 482.166181 491.981791 
L 615.797298 563.17264 
" clip-path="url(#pd807c608c6)" style="fill: none; stroke: #808080; stroke-opacity: 0.3"/>
    <path d="M 482.166181 491.981791 
L 625.580817 540.542478 
" clip-path="url(#pd807c608c6)" style="fill: none; stroke: #808080; stroke-opacity: 0.3"/>
    <path d="M 482.166181 491.981791 
L 633.49581 517.175403 
" clip-path="url(#pd807c608c6)" style="fill: none; stroke: #808080; stroke-opacity: 0.3"/>
    <path d="M 482.166181 491.981791 
L 639.458299 493.241472 
" clip-path="url(#pd807c608c6)" style="fill: none; stroke: #808080; stroke-opacity: 0.3"/>
    <path d="M 482.166181 491.981791 
L 643.468282 468.908642 
" clip-path="url(#pd807c608c6)" style="fill: none; stroke: #808080; stroke-opacity: 0.3"/>
    <path d="M 482.166181 491.981791 
L 645.483771 444.323875 
" clip-path="url(#pd807c608c6)" style="fill: none; stroke: #808080; stroke-opacity: 0.3"/>
   </g>
   <g id="matplotlib.axis_1">
    <g id="xtick_1"/>
    <g id="xtick_2"/>
    <g id="xtick_3"/>
    <g id="xtick_4"/>
    <g id="xtick_5"/>
    <g id="xtick_6"/>
   </g>
   <g id="matplotlib.axis_2">
    <g id="ytick_1"/>
    <g id="ytick_2"/>
    <g id="ytick_3"/>
    <g id="ytick_4"/>
    <g id="ytick_5"/>
    <g id="ytick_6"/>
   </g>
   <g id="PathCollection_1">
    <path d="M 343.412363 443.18034 
C 346.377424 443.18034 349.221443 442.002309 351.318058 439.905694 
C 353.414672 437.80908 354.592703 434.965061 354.592703 432 
C 354.592703 429.034939 353.414672 426.19092 351.318058 424.094306 
C 349.221443 421.997691 346.377424 420.81966 343.412363 420.81966 
C 340.447303 420.81966 337.603284 421.997691 335.506669 424.094306 
C 333.410055 426.19092 332.232024 429.034939 332.232024 432 
C 332.232024 434.965061 333.410055 437.80908 335.506669 439.905694 
C 337.603284 442.002309 340.447303 443.18034 343.412363 443.18034 
z
" clip-path="url(#pd807c608c6)" style="fill: #ad35ca; stroke: #ad35ca"/>
    <path d="M 249.16726 320.892033 
C 251.042529 320.892033 252.841245 320.146981 254.16726 318.820965 
C 255.493276 317.49495 256.238328 315.696234 256.238328 313.820965 
C 256.238328 311.945696 255.493276 310.146981 254.16726 308.820965 
C 252.841245 307.49495 251.042529 306.749897 249.16726 306.749897 
C 247.291991 306.749897 245.493276 307.49495 244.16726 308.820965 
C 242.841245 310.146981 242.096192 311.945696 242.096192 313.820965 
C 242.096192 315.696234 242.841245 317.49495 244.16726 318.820965 
C 245.493276 320.146981 247.291991 320.892033 249.16726 320.892033 
z
" clip-path="url(#pd807c608c6)" style="fill: #8f81b5; stroke: #8f81b5"/>
    <path d="M 645.483771 424.148261 
C 646.669795 424.148261 647.807403 423.677048 648.646048 422.838402 
C 649.484694 421.999757 649.955907 420.862149 649.955907 419.676125 
C 649.955907 418.490101 649.484694 417.352493 648.646048 416.513847 
C 647.807403 415.675201 646.669795 415.203989 645.483771 415.203989 
C 644.297746 415.203989 643.160139 415.675201 642.321493 416.513847 
C 641.482847 417.352493 641.011635 418.490101 641.011635 419.676125 
C 641.011635 420.862149 641.482847 421.999757 642.321493 422.838402 
C 643.160139 423.677048 644.297746 424.148261 645.483771 424.148261 
z
" clip-path="url(#pd807c608c6)" style="fill: #879dba; stroke: #879dba"/>
    <path d="M 643.468282 399.563494 
C 644.654306 399.563494 645.791914 399.092282 646.630559 398.253636 
C 647.469205 397.41499 647.940418 396.277383 647.940418 395.091358 
C 647.940418 393.905334 647.469205 392.767727 646.630559 391.929081 
C 645.791914 391.090435 644.654306 390.619223 643.468282 390.619223 
C 642.282257 390.619223 641.14465 391.090435 640.306004 391.929081 
C 639.467358 392.767727 638.996146 393.905334 638.996146 395.091358 
C 638.996146 396.277383 639.467358 397.41499 640.306004 398.253636 
C 641.14465 399.092282 642.282257 399.563494 643.468282 399.563494 
z
" clip-path="url(#pd807c608c6)" style="fill: #879dba; stroke: #879dba"/>
    <path d="M 639.458299 375.230664 
C 640.644323 375.230664 641.78193 374.759452 642.620576 373.920806 
C 643.459222 373.08216 643.930434 371.944553 643.930434 370.758528 
C 643.930434 369.572504 643.459222 368.434896 642.620576 367.596251 
C 641.78193 366.757605 640.644323 366.286392 639.458299 366.286392 
C 638.272274 366.286392 637.134667 366.757605 636.296021 367.596251 
C 635.457375 368.434896 634.986163 369.572504 634.986163 370.758528 
C 634.986163 371.944553 635.457375 373.08216 636.296021 373.920806 
C 637.134667 374.759452 638.272274 375.230664 639.458299 375.230664 
z
" clip-path="url(#pd807c608c6)" style="fill: #879dba; stroke: #879dba"/>
    <path d="M 633.49581 351.296733 
C 634.681835 351.296733 635.819442 350.82552 636.658088 349.986875 
C 637.496734 349.148229 637.967946 348.010621 637.967946 346.824597 
C 637.967946 345.638573 637.496734 344.500965 636.658088 343.662319 
C 635.819442 342.823673 634.681835 342.352461 633.49581 342.352461 
C 632.309786 342.352461 631.172179 342.823673 630.333533 343.662319 
C 629.494887 344.500965 629.023674 345.638573 629.023674 346.824597 
C 629.023674 348.010621 629.494887 349.148229 630.333533 349.986875 
C 631.172179 350.82552 632.309786 351.296733 633.49581 351.296733 
z
" clip-path="url(#pd807c608c6)" style="fill: #879dba; stroke: #879dba"/>
    <path d="M 625.580817 327.929658 
C 626.766842 327.929658 627.904449 327.458445 628.743095 326.619799 
C 629.581741 325.781154 630.052953 324.643546 630.052953 323.457522 
C 630.052953 322.271498 629.581741 321.13389 628.743095 320.295244 
C 627.904449 319.456598 626.766842 318.985386 625.580817 318.985386 
C 624.394793 318.985386 623.257185 319.456598 622.41854 320.295244 
C 621.579894 321.13389 621.108681 322.271498 621.108681 323.457522 
C 621.108681 324.643546 621.579894 325.781154 622.41854 326.619799 
C 623.257185 327.458445 624.394793 327.929658 625.580817 327.929658 
z
" clip-path="url(#pd807c608c6)" style="fill: #879dba; stroke: #879dba"/>
    <path d="M 615.797298 305.297396 
C 616.983322 305.297396 618.12093 304.826184 618.959576 303.987538 
C 619.798221 303.148892 620.269434 302.011285 620.269434 300.82526 
C 620.269434 299.639236 619.798221 298.501629 618.959576 297.662983 
C 618.12093 296.824337 616.983322 296.353124 615.797298 296.353124 
C 614.611274 296.353124 613.473666 296.824337 612.63502 297.662983 
C 611.796374 298.501629 611.325162 299.639236 611.325162 300.82526 
C 611.325162 302.011285 611.796374 303.148892 612.63502 303.987538 
C 613.473666 304.826184 614.611274 305.297396 615.797298 305.297396 
z
" clip-path="url(#pd807c608c6)" style="fill: #879dba; stroke: #879dba"/>
    <path d="M 604.187242 283.525917 
C 605.373266 283.525917 606.510874 283.054704 607.349519 282.216058 
C 608.188165 281.377413 608.659378 280.239805 608.659378 279.053781 
C 608.659378 277.867756 608.188165 276.730149 607.349519 275.891503 
C 606.510874 275.052857 605.373266 274.581645 604.187242 274.581645 
C 603.001217 274.581645 601.86361 275.052857 601.024964 275.891503 
C 600.186318 276.730149 599.715106 277.867756 599.715106 279.053781 
C 599.715106 280.239805 600.186318 281.377413 601.024964 282.216058 
C 601.86361 283.054704 603.001217 283.525917 604.187242 283.525917 
z
" clip-path="url(#pd807c608c6)" style="fill: #879dba; stroke: #879dba"/>
    <path d="M 590.855622 262.783176 
C 592.041646 262.783176 593.179254 262.311964 594.0179 261.473318 
C 594.856546 260.634672 595.327758 259.497065 595.327758 258.31104 
C 595.327758 257.125016 594.856546 255.987408 594.0179 255.148763 
C 593.179254 254.310117 592.041646 253.838904 590.855622 253.838904 
C 589.669598 253.838904 588.53199 254.310117 587.693344 255.148763 
C 586.854699 255.987408 586.383486 257.125016 586.383486 258.31104 
C 586.383486 259.497065 586.854699 260.634672 587.693344 261.473318 
C 588.53199 262.311964 589.669598 262.783176 590.855622 262.783176 
z
" clip-path="url(#pd807c608c6)" style="fill: #879dba; stroke: #879dba"/>
    <path d="M 575.886418 243.195143 
C 577.072442 243.195143 578.21005 242.72393 579.048695 241.885285 
C 579.887341 241.046639 580.358554 239.909031 580.358554 238.723007 
C 580.358554 237.536983 579.887341 236.399375 579.048695 235.560729 
C 578.21005 234.722083 577.072442 234.250871 575.886418 234.250871 
C 574.700393 234.250871 573.562786 234.722083 572.72414 235.560729 
C 571.885494 236.399375 571.414282 237.536983 571.414282 238.723007 
C 571.414282 239.909031 571.885494 241.046639 572.72414 241.885285 
C 573.562786 242.72393 574.700393 243.195143 575.886418 243.195143 
z
" clip-path="url(#pd807c608c6)" style="fill: #879dba; stroke: #879dba"/>
    <path d="M 559.363607 224.887785 
C 560.549632 224.887785 561.687239 224.416572 562.525885 223.577927 
C 563.364531 222.739281 563.835743 221.601673 563.835743 220.415649 
C 563.835743 219.229625 563.364531 218.092017 562.525885 217.253371 
C 561.687239 216.414725 560.549632 215.943513 559.363607 215.943513 
C 558.177583 215.943513 557.039975 216.414725 556.20133 217.253371 
C 555.362684 218.092017 554.891471 219.229625 554.891471 220.415649 
C 554.891471 221.601673 555.362684 222.739281 556.20133 223.577927 
C 557.039975 224.416572 558.177583 224.887785 559.363607 224.887785 
z
" clip-path="url(#pd807c608c6)" style="fill: #879dba; stroke: #879dba"/>
    <path d="M 541.392164 207.98707 
C 542.578188 207.98707 543.715796 207.515858 544.554442 206.677212 
C 545.393087 205.838566 545.8643 204.700959 545.8643 203.514934 
C 545.8643 202.32891 545.393087 201.191302 544.554442 200.352657 
C 543.715796 199.514011 542.578188 199.042798 541.392164 199.042798 
C 540.20614 199.042798 539.068532 199.514011 538.229886 200.352657 
C 537.39124 201.191302 536.920028 202.32891 536.920028 203.514934 
C 536.920028 204.700959 537.39124 205.838566 538.229886 206.677212 
C 539.068532 207.515858 540.20614 207.98707 541.392164 207.98707 
z
" clip-path="url(#pd807c608c6)" style="fill: #879dba; stroke: #879dba"/>
    <path d="M 522.119051 192.618967 
C 523.305075 192.618967 524.442683 192.147754 525.281329 191.309109 
C 526.119974 190.470463 526.591187 189.332855 526.591187 188.146831 
C 526.591187 186.960807 526.119974 185.823199 525.281329 184.984553 
C 524.442683 184.145907 523.305075 183.674695 522.119051 183.674695 
C 520.933027 183.674695 519.795419 184.145907 518.956773 184.984553 
C 518.118127 185.823199 517.646915 186.960807 517.646915 188.146831 
C 517.646915 189.332855 518.118127 190.470463 518.956773 191.309109 
C 519.795419 192.147754 520.933027 192.618967 522.119051 192.618967 
z
" clip-path="url(#pd807c608c6)" style="fill: #879dba; stroke: #879dba"/>
    <path d="M 501.628246 178.867454 
C 502.814271 178.867454 503.951878 178.396241 504.790524 177.557595 
C 505.62917 176.71895 506.100382 175.581342 506.100382 174.395318 
C 506.100382 173.209293 505.62917 172.071686 504.790524 171.23304 
C 503.951878 170.394394 502.814271 169.923182 501.628246 169.923182 
C 500.442222 169.923182 499.304615 170.394394 498.465969 171.23304 
C 497.627323 172.071686 497.156111 173.209293 497.156111 174.395318 
C 497.156111 175.581342 497.627323 176.71895 498.465969 177.557595 
C 499.304615 178.396241 500.442222 178.867454 501.628246 178.867454 
z
" clip-path="url(#pd807c608c6)" style="fill: #879dba; stroke: #879dba"/>
    <path d="M 480.108703 166.816509 
C 481.294727 166.816509 482.432335 166.345297 483.270981 165.506651 
C 484.109626 164.668005 484.580839 163.530398 484.580839 162.344373 
C 484.580839 161.158349 484.109626 160.020742 483.270981 159.182096 
C 482.432335 158.34345 481.294727 157.872237 480.108703 157.872237 
C 478.922679 157.872237 477.785071 158.34345 476.946425 159.182096 
C 476.107779 160.020742 475.636567 161.158349 475.636567 162.344373 
C 475.636567 163.530398 476.107779 164.668005 476.946425 165.506651 
C 477.785071 166.345297 478.922679 166.816509 480.108703 166.816509 
z
" clip-path="url(#pd807c608c6)" style="fill: #879dba; stroke: #879dba"/>
    <path d="M 457.686388 156.571107 
C 458.872413 156.571107 460.01002 156.099895 460.848666 155.261249 
C 461.687312 154.422603 462.158524 153.284996 462.158524 152.098971 
C 462.158524 150.912947 461.687312 149.775339 460.848666 148.936694 
C 460.01002 148.098048 458.872413 147.626835 457.686388 147.626835 
C 456.500364 147.626835 455.362756 148.098048 454.524111 148.936694 
C 453.685465 149.775339 453.214252 150.912947 453.214252 152.098971 
C 453.214252 153.284996 453.685465 154.422603 454.524111 155.261249 
C 455.362756 156.099895 456.500364 156.571107 457.686388 156.571107 
z
" clip-path="url(#pd807c608c6)" style="fill: #879dba; stroke: #879dba"/>
    <path d="M 434.487271 148.194231 
C 435.673295 148.194231 436.810902 147.723019 437.649548 146.884373 
C 438.488194 146.045727 438.959407 144.90812 438.959407 143.722095 
C 438.959407 142.536071 438.488194 141.398463 437.649548 140.559818 
C 436.810902 139.721172 435.673295 139.249959 434.487271 139.249959 
C 433.301246 139.249959 432.163639 139.721172 431.324993 140.559818 
C 430.486347 141.398463 430.015135 142.536071 430.015135 143.722095 
C 430.015135 144.90812 430.486347 146.045727 431.324993 146.884373 
C 432.163639 147.723019 433.301246 148.194231 434.487271 148.194231 
z
" clip-path="url(#pd807c608c6)" style="fill: #879dba; stroke: #879dba"/>
    <path d="M 410.679307 141.727871 
C 411.865332 141.727871 413.002939 141.256658 413.841585 140.418012 
C 414.680231 139.579367 415.151443 138.441759 415.151443 137.255735 
C 415.151443 136.069711 414.680231 134.932103 413.841585 134.093457 
C 413.002939 133.254811 411.865332 132.783599 410.679307 132.783599 
C 409.493283 132.783599 408.355675 133.254811 407.51703 134.093457 
C 406.678384 134.932103 406.207171 136.069711 406.207171 137.255735 
C 406.207171 138.441759 406.678384 139.579367 407.51703 140.418012 
C 408.355675 141.256658 409.493283 141.727871 410.679307 141.727871 
z
" clip-path="url(#pd807c608c6)" style="fill: #879dba; stroke: #879dba"/>
    <path d="M 386.430456 137.23501 
C 387.61648 137.23501 388.754088 136.763798 389.592733 135.925152 
C 390.431379 135.086506 390.902592 133.948898 390.902592 132.762874 
C 390.902592 131.57685 390.431379 130.439242 389.592733 129.600596 
C 388.754088 128.761951 387.61648 128.290738 386.430456 128.290738 
C 385.244431 128.290738 384.106824 128.761951 383.268178 129.600596 
C 382.429532 130.439242 381.95832 131.57685 381.95832 132.762874 
C 381.95832 133.948898 382.429532 135.086506 383.268178 135.925152 
C 384.106824 136.763798 385.244431 137.23501 386.430456 137.23501 
z
" clip-path="url(#pd807c608c6)" style="fill: #879dba; stroke: #879dba"/>
    <path d="M 361.908674 134.715649 
C 363.094698 134.715649 364.232305 134.244436 365.070951 133.40579 
C 365.909597 132.567145 366.380809 131.429537 366.380809 130.243513 
C 366.380809 129.057489 365.909597 127.919881 365.070951 127.081235 
C 364.232305 126.242589 363.094698 125.771377 361.908674 125.771377 
C 360.722649 125.771377 359.585042 126.242589 358.746396 127.081235 
C 357.90775 127.919881 357.436538 129.057489 357.436538 130.243513 
C 357.436538 131.429537 357.90775 132.567145 358.746396 133.40579 
C 359.585042 134.244436 360.722649 134.715649 361.908674 134.715649 
z
" clip-path="url(#pd807c608c6)" style="fill: #879dba; stroke: #879dba"/>
    <path d="M 337.239928 134.211777 
C 338.425953 134.211777 339.56356 133.740564 340.402206 132.901918 
C 341.240852 132.063272 341.712064 130.925665 341.712064 129.739641 
C 341.712064 128.553616 341.240852 127.416009 340.402206 126.577363 
C 339.56356 125.738717 338.425953 125.267505 337.239928 125.267505 
C 336.053904 125.267505 334.916297 125.738717 334.077651 126.577363 
C 333.239005 127.416009 332.767793 128.553616 332.767793 129.739641 
C 332.767793 130.925665 333.239005 132.063272 334.077651 132.901918 
C 334.916297 133.740564 336.053904 134.211777 337.239928 134.211777 
z
" clip-path="url(#pd807c608c6)" style="fill: #879dba; stroke: #879dba"/>
    <path d="M 312.634167 135.723393 
C 313.820192 135.723393 314.957799 135.252181 315.796445 134.413535 
C 316.635091 133.574889 317.106303 132.437282 317.106303 131.251257 
C 317.106303 130.065233 316.635091 128.927625 315.796445 128.08898 
C 314.957799 127.250334 313.820192 126.779121 312.634167 126.779121 
C 311.448143 126.779121 310.310536 127.250334 309.47189 128.08898 
C 308.633244 128.927625 308.162032 130.065233 308.162032 131.251257 
C 308.162032 132.437282 308.633244 133.574889 309.47189 134.413535 
C 310.310536 135.252181 311.448143 135.723393 312.634167 135.723393 
z
" clip-path="url(#pd807c608c6)" style="fill: #879dba; stroke: #879dba"/>
    <path d="M 288.217359 139.229504 
C 289.403383 139.229504 290.54099 138.758292 291.379636 137.919646 
C 292.218282 137.081 292.689495 135.943393 292.689495 134.757368 
C 292.689495 133.571344 292.218282 132.433736 291.379636 131.595091 
C 290.54099 130.756445 289.403383 130.285232 288.217359 130.285232 
C 287.031334 130.285232 285.893727 130.756445 285.055081 131.595091 
C 284.216435 132.433736 283.745223 133.571344 283.745223 134.757368 
C 283.745223 135.943393 284.216435 137.081 285.055081 137.919646 
C 285.893727 138.758292 287.031334 139.229504 288.217359 139.229504 
z
" clip-path="url(#pd807c608c6)" style="fill: #879dba; stroke: #879dba"/>
    <path d="M 264.178454 144.709115 
C 265.364478 144.709115 266.502086 144.237902 267.340731 143.399257 
C 268.179377 142.560611 268.65059 141.423003 268.65059 140.236979 
C 268.65059 139.050955 268.179377 137.913347 267.340731 137.074701 
C 266.502086 136.236055 265.364478 135.764843 264.178454 135.764843 
C 262.992429 135.764843 261.854822 136.236055 261.016176 137.074701 
C 260.17753 137.913347 259.706318 139.050955 259.706318 140.236979 
C 259.706318 141.423003 260.17753 142.560611 261.016176 143.399257 
C 261.854822 144.237902 262.992429 144.709115 264.178454 144.709115 
z
" clip-path="url(#pd807c608c6)" style="fill: #879dba; stroke: #879dba"/>
    <path d="M 240.664416 152.14123 
C 241.85044 152.14123 242.988048 151.670018 243.826694 150.831372 
C 244.665339 149.992726 245.136552 148.855119 245.136552 147.669094 
C 245.136552 146.48307 244.665339 145.345463 243.826694 144.506817 
C 242.988048 143.668171 241.85044 143.196958 240.664416 143.196958 
C 239.478392 143.196958 238.340784 143.668171 237.502138 144.506817 
C 236.663492 145.345463 236.19228 146.48307 236.19228 147.669094 
C 236.19228 148.855119 236.663492 149.992726 237.502138 150.831372 
C 238.340784 151.670018 239.478392 152.14123 240.664416 152.14123 
z
" clip-path="url(#pd807c608c6)" style="fill: #879dba; stroke: #879dba"/>
    <path d="M 217.822208 161.462867 
C 219.008232 161.462867 220.14584 160.991654 220.984485 160.153009 
C 221.823131 159.314363 222.294344 158.176755 222.294344 156.990731 
C 222.294344 155.804707 221.823131 154.667099 220.984485 153.828453 
C 220.14584 152.989807 219.008232 152.518595 217.822208 152.518595 
C 216.636183 152.518595 215.498576 152.989807 214.65993 153.828453 
C 213.821284 154.667099 213.350072 155.804707 213.350072 156.990731 
C 213.350072 158.176755 213.821284 159.314363 214.65993 160.153009 
C 215.498576 160.991654 216.636183 161.462867 217.822208 161.462867 
z
" clip-path="url(#pd807c608c6)" style="fill: #879dba; stroke: #879dba"/>
    <path d="M 195.819787 172.61104 
C 197.005811 172.61104 198.143419 172.139828 198.982064 171.301182 
C 199.82071 170.462536 200.291923 169.324928 200.291923 168.138904 
C 200.291923 166.95288 199.82071 165.815272 198.982064 164.976626 
C 198.143419 164.137981 197.005811 163.666768 195.819787 163.666768 
C 194.633762 163.666768 193.496155 164.137981 192.657509 164.976626 
C 191.818863 165.815272 191.347651 166.95288 191.347651 168.138904 
C 191.347651 169.324928 191.818863 170.462536 192.657509 171.301182 
C 193.496155 172.139828 194.633762 172.61104 195.819787 172.61104 
z
" clip-path="url(#pd807c608c6)" style="fill: #879dba; stroke: #879dba"/>
    <path d="M 174.804115 185.522766 
C 175.99014 185.522766 177.127747 185.051554 177.966393 184.212908 
C 178.805039 183.374262 179.276251 182.236655 179.276251 181.05063 
C 179.276251 179.864606 178.805039 178.726998 177.966393 177.888353 
C 177.127747 177.049707 175.99014 176.578494 174.804115 176.578494 
C 173.618091 176.578494 172.480484 177.049707 171.641838 177.888353 
C 170.803192 178.726998 170.331979 179.864606 170.331979 181.05063 
C 170.331979 182.236655 170.803192 183.374262 171.641838 184.212908 
C 172.480484 185.051554 173.618091 185.522766 174.804115 185.522766 
z
" clip-path="url(#pd807c608c6)" style="fill: #879dba; stroke: #879dba"/>
    <path d="M 154.922157 200.114066 
C 156.108181 200.114066 157.245788 199.642854 158.084434 198.804208 
C 158.92308 197.965562 159.394293 196.827955 159.394293 195.641931 
C 159.394293 194.455906 158.92308 193.318299 158.084434 192.479653 
C 157.245788 191.641007 156.108181 191.169795 154.922157 191.169795 
C 153.736132 191.169795 152.598525 191.641007 151.759879 192.479653 
C 150.921233 193.318299 150.450021 194.455906 150.450021 195.641931 
C 150.450021 196.827955 150.921233 197.965562 151.759879 198.804208 
C 152.598525 199.642854 153.736132 200.114066 154.922157 200.114066 
z
" clip-path="url(#pd807c608c6)" style="fill: #879dba; stroke: #879dba"/>
    <path d="M 136.278884 216.258973 
C 137.464908 216.258973 138.602516 215.78776 139.441161 214.949115 
C 140.279807 214.110469 140.75102 212.972861 140.75102 211.786837 
C 140.75102 210.600813 140.279807 209.463205 139.441161 208.624559 
C 138.602516 207.785913 137.464908 207.314701 136.278884 207.314701 
C 135.092859 207.314701 133.955252 207.785913 133.116606 208.624559 
C 132.27796 209.463205 131.806748 210.600813 131.806748 211.786837 
C 131.806748 212.972861 132.27796 214.110469 133.116606 214.949115 
C 133.955252 215.78776 135.092859 216.258973 136.278884 216.258973 
z
" clip-path="url(#pd807c608c6)" style="fill: #879dba; stroke: #879dba"/>
    <path d="M 119.02126 233.873507 
C 120.207284 233.873507 121.344891 233.402294 122.183537 232.563648 
C 123.022183 231.725002 123.493396 230.587395 123.493396 229.401371 
C 123.493396 228.215346 123.022183 227.077739 122.183537 226.239093 
C 121.344891 225.400447 120.207284 224.929235 119.02126 224.929235 
C 117.835235 224.929235 116.697628 225.400447 115.858982 226.239093 
C 115.020336 227.077739 114.549124 228.215346 114.549124 229.401371 
C 114.549124 230.587395 115.020336 231.725002 115.858982 232.563648 
C 116.697628 233.402294 117.835235 233.873507 119.02126 233.873507 
z
" clip-path="url(#pd807c608c6)" style="fill: #879dba; stroke: #879dba"/>
    <path d="M 103.254257 252.831699 
C 104.440282 252.831699 105.577889 252.360487 106.416535 251.521841 
C 107.255181 250.683195 107.726393 249.545588 107.726393 248.359564 
C 107.726393 247.173539 107.255181 246.035932 106.416535 245.197286 
C 105.577889 244.35864 104.440282 243.887428 103.254257 243.887428 
C 102.068233 243.887428 100.930626 244.35864 100.09198 245.197286 
C 99.253334 246.035932 98.782122 247.173539 98.782122 248.359564 
C 98.782122 249.545588 99.253334 250.683195 100.09198 251.521841 
C 100.930626 252.360487 102.068233 252.831699 103.254257 252.831699 
z
" clip-path="url(#pd807c608c6)" style="fill: #879dba; stroke: #879dba"/>
    <path d="M 89.082851 273.028578 
C 90.268875 273.028578 91.406483 272.557366 92.245128 271.71872 
C 93.083774 270.880074 93.554987 269.742467 93.554987 268.556442 
C 93.554987 267.370418 93.083774 266.232811 92.245128 265.394165 
C 91.406483 264.555519 90.268875 264.084307 89.082851 264.084307 
C 87.896826 264.084307 86.759219 264.555519 85.920573 265.394165 
C 85.081927 266.232811 84.610715 267.370418 84.610715 268.556442 
C 84.610715 269.742467 85.081927 270.880074 85.920573 271.71872 
C 86.759219 272.557366 87.896826 273.028578 89.082851 273.028578 
z
" clip-path="url(#pd807c608c6)" style="fill: #879dba; stroke: #879dba"/>
    <path d="M 76.612013 294.296186 
C 77.798037 294.296186 78.935645 293.824973 79.77429 292.986328 
C 80.612936 292.147682 81.084149 291.010074 81.084149 289.82405 
C 81.084149 288.638026 80.612936 287.500418 79.77429 286.661772 
C 78.935645 285.823126 77.798037 285.351914 76.612013 285.351914 
C 75.425989 285.351914 74.288381 285.823126 73.449735 286.661772 
C 72.611089 287.500418 72.139877 288.638026 72.139877 289.82405 
C 72.139877 291.010074 72.611089 292.147682 73.449735 292.986328 
C 74.288381 293.824973 75.425989 294.296186 76.612013 294.296186 
z
" clip-path="url(#pd807c608c6)" style="fill: #879dba; stroke: #879dba"/>
    <path d="M 65.904728 316.508554 
C 67.090752 316.508554 68.22836 316.037341 69.067005 315.198695 
C 69.905651 314.36005 70.376864 313.222442 70.376864 312.036418 
C 70.376864 310.850393 69.905651 309.712786 69.067005 308.87414 
C 68.22836 308.035494 67.090752 307.564282 65.904728 307.564282 
C 64.718703 307.564282 63.581096 308.035494 62.74245 308.87414 
C 61.903804 309.712786 61.432592 310.850393 61.432592 312.036418 
C 61.432592 313.222442 61.903804 314.36005 62.74245 315.198695 
C 63.581096 316.037341 64.718703 316.508554 65.904728 316.508554 
z
" clip-path="url(#pd807c608c6)" style="fill: #879dba; stroke: #879dba"/>
    <path d="M 57.044974 339.539714 
C 58.230999 339.539714 59.368606 339.068502 60.207252 338.229856 
C 61.045898 337.39121 61.51711 336.253602 61.51711 335.067578 
C 61.51711 333.881554 61.045898 332.743946 60.207252 331.9053 
C 59.368606 331.066655 58.230999 330.595442 57.044974 330.595442 
C 55.85895 330.595442 54.721342 331.066655 53.882697 331.9053 
C 53.044051 332.743946 52.572838 333.881554 52.572838 335.067578 
C 52.572838 336.253602 53.044051 337.39121 53.882697 338.229856 
C 54.721342 339.068502 55.85895 339.539714 57.044974 339.539714 
z
" clip-path="url(#pd807c608c6)" style="fill: #879dba; stroke: #879dba"/>
    <path d="M 50.095736 363.200715 
C 51.281761 363.200715 52.419368 362.729502 53.258014 361.890856 
C 54.09666 361.05221 54.567872 359.914603 54.567872 358.728579 
C 54.567872 357.542554 54.09666 356.404947 53.258014 355.566301 
C 52.419368 354.727655 51.281761 354.256443 50.095736 354.256443 
C 48.909712 354.256443 47.772104 354.727655 46.933459 355.566301 
C 46.094813 356.404947 45.6236 357.542554 45.6236 358.728579 
C 45.6236 359.914603 46.094813 361.05221 46.933459 361.890856 
C 47.772104 362.729502 48.909712 363.200715 50.095736 363.200715 
z
" clip-path="url(#pd807c608c6)" style="fill: #879dba; stroke: #879dba"/>
    <path d="M 45.099003 387.344593 
C 46.285028 387.344593 47.422635 386.87338 48.261281 386.034734 
C 49.099927 385.196089 49.571139 384.058481 49.571139 382.872457 
C 49.571139 381.686432 49.099927 380.548825 48.261281 379.710179 
C 47.422635 378.871533 46.285028 378.400321 45.099003 378.400321 
C 43.912979 378.400321 42.775371 378.871533 41.936726 379.710179 
C 41.09808 380.548825 40.626867 381.686432 40.626867 382.872457 
C 40.626867 384.058481 41.09808 385.196089 41.936726 386.034734 
C 42.775371 386.87338 43.912979 387.344593 45.099003 387.344593 
z
" clip-path="url(#pd807c608c6)" style="fill: #879dba; stroke: #879dba"/>
    <path d="M 42.096764 411.824386 
C 43.282789 411.824386 44.420396 411.353173 45.259042 410.514527 
C 46.097688 409.675881 46.5689 408.538274 46.5689 407.35225 
C 46.5689 406.166225 46.097688 405.028618 45.259042 404.189972 
C 44.420396 403.351326 43.282789 402.880114 42.096764 402.880114 
C 40.91074 402.880114 39.773133 403.351326 38.934487 404.189972 
C 38.095841 405.028618 37.624628 406.166225 37.624628 407.35225 
C 37.624628 408.538274 38.095841 409.675881 38.934487 410.514527 
C 39.773133 411.353173 40.91074 411.824386 42.096764 411.824386 
z
" clip-path="url(#pd807c608c6)" style="fill: #879dba; stroke: #879dba"/>
    <path d="M 41.08902 436.472136 
C 42.275044 436.472136 43.412652 436.000923 44.251298 435.162278 
C 45.089943 434.323632 45.561156 433.186024 45.561156 432 
C 45.561156 430.813976 45.089943 429.676368 44.251298 428.837722 
C 43.412652 427.999077 42.275044 427.527864 41.08902 427.527864 
C 39.902996 427.527864 38.765388 427.999077 37.926742 428.837722 
C 37.088096 429.676368 36.616884 430.813976 36.616884 432 
C 36.616884 433.186024 37.088096 434.323632 37.926742 435.162278 
C 38.765388 436.000923 39.902996 436.472136 41.08902 436.472136 
z
" clip-path="url(#pd807c608c6)" style="fill: #879dba; stroke: #879dba"/>
    <path d="M 42.096764 461.119886 
C 43.282789 461.119886 44.420396 460.648674 45.259042 459.810028 
C 46.097688 458.971382 46.5689 457.833775 46.5689 456.64775 
C 46.5689 455.461726 46.097688 454.324119 45.259042 453.485473 
C 44.420396 452.646827 43.282789 452.175614 42.096764 452.175614 
C 40.91074 452.175614 39.773133 452.646827 38.934487 453.485473 
C 38.095841 454.324119 37.624628 455.461726 37.624628 456.64775 
C 37.624628 457.833775 38.095841 458.971382 38.934487 459.810028 
C 39.773133 460.648674 40.91074 461.119886 42.096764 461.119886 
z
" clip-path="url(#pd807c608c6)" style="fill: #879dba; stroke: #879dba"/>
    <path d="M 45.099003 485.599679 
C 46.285028 485.599679 47.422635 485.128467 48.261281 484.289821 
C 49.099927 483.451175 49.571139 482.313568 49.571139 481.127543 
C 49.571139 479.941519 49.099927 478.803911 48.261281 477.965266 
C 47.422635 477.12662 46.285028 476.655407 45.099003 476.655407 
C 43.912979 476.655407 42.775371 477.12662 41.936726 477.965266 
C 41.09808 478.803911 40.626867 479.941519 40.626867 481.127543 
C 40.626867 482.313568 41.09808 483.451175 41.936726 484.289821 
C 42.775371 485.128467 43.912979 485.599679 45.099003 485.599679 
z
" clip-path="url(#pd807c608c6)" style="fill: #879dba; stroke: #879dba"/>
    <path d="M 50.095736 509.743557 
C 51.281761 509.743557 52.419368 509.272345 53.258014 508.433699 
C 54.09666 507.595053 54.567872 506.457446 54.567872 505.271421 
C 54.567872 504.085397 54.09666 502.94779 53.258014 502.109144 
C 52.419368 501.270498 51.281761 500.799285 50.095736 500.799285 
C 48.909712 500.799285 47.772104 501.270498 46.933459 502.109144 
C 46.094813 502.94779 45.6236 504.085397 45.6236 505.271421 
C 45.6236 506.457446 46.094813 507.595053 46.933459 508.433699 
C 47.772104 509.272345 48.909712 509.743557 50.095736 509.743557 
z
" clip-path="url(#pd807c608c6)" style="fill: #879dba; stroke: #879dba"/>
    <path d="M 57.044974 533.404558 
C 58.230999 533.404558 59.368606 532.933345 60.207252 532.0947 
C 61.045898 531.256054 61.51711 530.118446 61.51711 528.932422 
C 61.51711 527.746398 61.045898 526.60879 60.207252 525.770144 
C 59.368606 524.931498 58.230999 524.460286 57.044974 524.460286 
C 55.85895 524.460286 54.721342 524.931498 53.882697 525.770144 
C 53.044051 526.60879 52.572838 527.746398 52.572838 528.932422 
C 52.572838 530.118446 53.044051 531.256054 53.882697 532.0947 
C 54.721342 532.933345 55.85895 533.404558 57.044974 533.404558 
z
" clip-path="url(#pd807c608c6)" style="fill: #879dba; stroke: #879dba"/>
    <path d="M 65.904728 556.435718 
C 67.090752 556.435718 68.22836 555.964506 69.067005 555.12586 
C 69.905651 554.287214 70.376864 553.149607 70.376864 551.963582 
C 70.376864 550.777558 69.905651 549.63995 69.067005 548.801305 
C 68.22836 547.962659 67.090752 547.491446 65.904728 547.491446 
C 64.718703 547.491446 63.581096 547.962659 62.74245 548.801305 
C 61.903804 549.63995 61.432592 550.777558 61.432592 551.963582 
C 61.432592 553.149607 61.903804 554.287214 62.74245 555.12586 
C 63.581096 555.964506 64.718703 556.435718 65.904728 556.435718 
z
" clip-path="url(#pd807c608c6)" style="fill: #879dba; stroke: #879dba"/>
    <path d="M 76.612013 578.645987 
C 77.798037 578.645987 78.935645 578.174774 79.77429 577.336128 
C 80.612936 576.497482 81.084149 575.359875 81.084149 574.173851 
C 81.084149 572.987826 80.612936 571.850219 79.77429 571.011573 
C 78.935645 570.172927 77.798037 569.701715 76.612013 569.701715 
C 75.425989 569.701715 74.288381 570.172927 73.449735 571.011573 
C 72.611089 571.850219 72.139877 572.987826 72.139877 574.173851 
C 72.139877 575.359875 72.611089 576.497482 73.449735 577.336128 
C 74.288381 578.174774 75.425989 578.645987 76.612013 578.645987 
z
" clip-path="url(#pd807c608c6)" style="fill: #879dba; stroke: #879dba"/>
    <path d="M 89.082851 599.919892 
C 90.268875 599.919892 91.406483 599.44868 92.245128 598.610034 
C 93.083774 597.771388 93.554987 596.633781 93.554987 595.447756 
C 93.554987 594.261732 93.083774 593.124125 92.245128 592.285479 
C 91.406483 591.446833 90.268875 590.975621 89.082851 590.975621 
C 87.896826 590.975621 86.759219 591.446833 85.920573 592.285479 
C 85.081927 593.124125 84.610715 594.261732 84.610715 595.447756 
C 84.610715 596.633781 85.081927 597.771388 85.920573 598.610034 
C 86.759219 599.44868 87.896826 599.919892 89.082851 599.919892 
z
" clip-path="url(#pd807c608c6)" style="fill: #879dba; stroke: #879dba"/>
    <path d="M 103.254257 620.106274 
C 104.440282 620.106274 105.577889 619.635062 106.416535 618.796416 
C 107.255181 617.95777 107.726393 616.820162 107.726393 615.634138 
C 107.726393 614.448114 107.255181 613.310506 106.416535 612.47186 
C 105.577889 611.633215 104.440282 611.162002 103.254257 611.162002 
C 102.068233 611.162002 100.930626 611.633215 100.09198 612.47186 
C 99.253334 613.310506 98.782122 614.448114 98.782122 615.634138 
C 98.782122 616.820162 99.253334 617.95777 100.09198 618.796416 
C 100.930626 619.635062 102.068233 620.106274 103.254257 620.106274 
z
" clip-path="url(#pd807c608c6)" style="fill: #879dba; stroke: #879dba"/>
    <path d="M 119.02126 639.070765 
C 120.207284 639.070765 121.344891 638.599553 122.183537 637.760907 
C 123.022183 636.922261 123.493396 635.784654 123.493396 634.598629 
C 123.493396 633.412605 123.022183 632.274998 122.183537 631.436352 
C 121.344891 630.597706 120.207284 630.126493 119.02126 630.126493 
C 117.835235 630.126493 116.697628 630.597706 115.858982 631.436352 
C 115.020336 632.274998 114.549124 633.412605 114.549124 634.598629 
C 114.549124 635.784654 115.020336 636.922261 115.858982 637.760907 
C 116.697628 638.599553 117.835235 639.070765 119.02126 639.070765 
z
" clip-path="url(#pd807c608c6)" style="fill: #879dba; stroke: #879dba"/>
    <path d="M 136.278884 656.687399 
C 137.464908 656.687399 138.602516 656.216186 139.441161 655.37754 
C 140.279807 654.538894 140.75102 653.401287 140.75102 652.215263 
C 140.75102 651.029238 140.279807 649.891631 139.441161 649.052985 
C 138.602516 648.214339 137.464908 647.743127 136.278884 647.743127 
C 135.092859 647.743127 133.955252 648.214339 133.116606 649.052985 
C 132.27796 649.891631 131.806748 651.029238 131.806748 652.215263 
C 131.806748 653.401287 132.27796 654.538894 133.116606 655.37754 
C 133.955252 656.216186 135.092859 656.687399 136.278884 656.687399 
z
" clip-path="url(#pd807c608c6)" style="fill: #879dba; stroke: #879dba"/>
    <path d="M 154.922157 672.838603 
C 156.108181 672.838603 157.245788 672.367391 158.084434 671.528745 
C 158.92308 670.690099 159.394293 669.552492 159.394293 668.366467 
C 159.394293 667.180443 158.92308 666.042836 158.084434 665.20419 
C 157.245788 664.365544 156.108181 663.894331 154.922157 663.894331 
C 153.736132 663.894331 152.598525 664.365544 151.759879 665.20419 
C 150.921233 666.042836 150.450021 667.180443 150.450021 668.366467 
C 150.450021 669.552492 150.921233 670.690099 151.759879 671.528745 
C 152.598525 672.367391 153.736132 672.838603 154.922157 672.838603 
z
" clip-path="url(#pd807c608c6)" style="fill: #879dba; stroke: #879dba"/>
    <path d="M 174.804115 687.415207 
C 175.99014 687.415207 177.127747 686.943995 177.966393 686.105349 
C 178.805039 685.266703 179.276251 684.129096 179.276251 682.943071 
C 179.276251 681.757047 178.805039 680.619439 177.966393 679.780794 
C 177.127747 678.942148 175.99014 678.470935 174.804115 678.470935 
C 173.618091 678.470935 172.480484 678.942148 171.641838 679.780794 
C 170.803192 680.619439 170.331979 681.757047 170.331979 682.943071 
C 170.331979 684.129096 170.803192 685.266703 171.641838 686.105349 
C 172.480484 686.943995 173.618091 687.415207 174.804115 687.415207 
z
" clip-path="url(#pd807c608c6)" style="fill: #879dba; stroke: #879dba"/>
    <path d="M 195.819787 700.322734 
C 197.005811 700.322734 198.143419 699.851522 198.982064 699.012876 
C 199.82071 698.17423 200.291923 697.036623 200.291923 695.850599 
C 200.291923 694.664574 199.82071 693.526967 198.982064 692.688321 
C 198.143419 691.849675 197.005811 691.378463 195.819787 691.378463 
C 194.633762 691.378463 193.496155 691.849675 192.657509 692.688321 
C 191.818863 693.526967 191.347651 694.664574 191.347651 695.850599 
C 191.347651 697.036623 191.818863 698.17423 192.657509 699.012876 
C 193.496155 699.851522 194.633762 700.322734 195.819787 700.322734 
z
" clip-path="url(#pd807c608c6)" style="fill: #879dba; stroke: #879dba"/>
    <path d="M 217.822208 711.475107 
C 219.008232 711.475107 220.14584 711.003894 220.984485 710.165248 
C 221.823131 709.326603 222.294344 708.188995 222.294344 707.002971 
C 222.294344 705.816946 221.823131 704.679339 220.984485 703.840693 
C 220.14584 703.002047 219.008232 702.530835 217.822208 702.530835 
C 216.636183 702.530835 215.498576 703.002047 214.65993 703.840693 
C 213.821284 704.679339 213.350072 705.816946 213.350072 707.002971 
C 213.350072 708.188995 213.821284 709.326603 214.65993 710.165248 
C 215.498576 711.003894 216.636183 711.475107 217.822208 711.475107 
z
" clip-path="url(#pd807c608c6)" style="fill: #879dba; stroke: #879dba"/>
    <path d="M 240.664416 720.796743 
C 241.85044 720.796743 242.988048 720.325531 243.826694 719.486885 
C 244.665339 718.648239 245.136552 717.510631 245.136552 716.324607 
C 245.136552 715.138583 244.665339 714.000975 243.826694 713.162329 
C 242.988048 712.323684 241.85044 711.852471 240.664416 711.852471 
C 239.478392 711.852471 238.340784 712.323684 237.502138 713.162329 
C 236.663492 714.000975 236.19228 715.138583 236.19228 716.324607 
C 236.19228 717.510631 236.663492 718.648239 237.502138 719.486885 
C 238.340784 720.325531 239.478392 720.796743 240.664416 720.796743 
z
" clip-path="url(#pd807c608c6)" style="fill: #879dba; stroke: #879dba"/>
    <path d="M 264.178454 728.226759 
C 265.364478 728.226759 266.502086 727.755547 267.340731 726.916901 
C 268.179377 726.078255 268.65059 724.940648 268.65059 723.754623 
C 268.65059 722.568599 268.179377 721.430991 267.340731 720.592346 
C 266.502086 719.7537 265.364478 719.282487 264.178454 719.282487 
C 262.992429 719.282487 261.854822 719.7537 261.016176 720.592346 
C 260.17753 721.430991 259.706318 722.568599 259.706318 723.754623 
C 259.706318 724.940648 260.17753 726.078255 261.016176 726.916901 
C 261.854822 727.755547 262.992429 728.226759 264.178454 728.226759 
z
" clip-path="url(#pd807c608c6)" style="fill: #879dba; stroke: #879dba"/>
    <path d="M 328.023265 589.447539 
C 329.898535 589.447539 331.69725 588.702486 333.023265 587.376471 
C 334.349281 586.050455 335.094333 584.25174 335.094333 582.376471 
C 335.094333 580.501202 334.349281 578.702486 333.023265 577.376471 
C 331.69725 576.050455 329.898535 575.305403 328.023265 575.305403 
C 326.147996 575.305403 324.349281 576.050455 323.023265 577.376471 
C 321.69725 578.702486 320.952198 580.501202 320.952198 582.376471 
C 320.952198 584.25174 321.69725 586.050455 323.023265 587.376471 
C 324.349281 588.702486 326.147996 589.447539 328.023265 589.447539 
z
" clip-path="url(#pd807c608c6)" style="fill: #8f81b5; stroke: #8f81b5"/>
    <path d="M 288.217359 733.714768 
C 289.403383 733.714768 290.54099 733.243555 291.379636 732.404909 
C 292.218282 731.566264 292.689495 730.428656 292.689495 729.242632 
C 292.689495 728.056607 292.218282 726.919 291.379636 726.080354 
C 290.54099 725.241708 289.403383 724.770496 288.217359 724.770496 
C 287.031334 724.770496 285.893727 725.241708 285.055081 726.080354 
C 284.216435 726.919 283.745223 728.056607 283.745223 729.242632 
C 283.745223 730.428656 284.216435 731.566264 285.055081 732.404909 
C 285.893727 733.243555 287.031334 733.714768 288.217359 733.714768 
z
" clip-path="url(#pd807c608c6)" style="fill: #879dba; stroke: #879dba"/>
    <path d="M 312.634167 737.225078 
C 313.820192 737.225078 314.957799 736.753865 315.796445 735.915219 
C 316.635091 735.076573 317.106303 733.938966 317.106303 732.752942 
C 317.106303 731.566917 316.635091 730.42931 315.796445 729.590664 
C 314.957799 728.752018 313.820192 728.280806 312.634167 728.280806 
C 311.448143 728.280806 310.310536 728.752018 309.47189 729.590664 
C 308.633244 730.42931 308.162032 731.566917 308.162032 732.752942 
C 308.162032 733.938966 308.633244 735.076573 309.47189 735.915219 
C 310.310536 736.753865 311.448143 737.225078 312.634167 737.225078 
z
" clip-path="url(#pd807c608c6)" style="fill: #879dba; stroke: #879dba"/>
    <path d="M 337.239928 738.732495 
C 338.425953 738.732495 339.56356 738.261283 340.402206 737.422637 
C 341.240852 736.583991 341.712064 735.446384 341.712064 734.260359 
C 341.712064 733.074335 341.240852 731.936728 340.402206 731.098082 
C 339.56356 730.259436 338.425953 729.788223 337.239928 729.788223 
C 336.053904 729.788223 334.916297 730.259436 334.077651 731.098082 
C 333.239005 731.936728 332.767793 733.074335 332.767793 734.260359 
C 332.767793 735.446384 333.239005 736.583991 334.077651 737.422637 
C 334.916297 738.261283 336.053904 738.732495 337.239928 738.732495 
z
" clip-path="url(#pd807c608c6)" style="fill: #879dba; stroke: #879dba"/>
    <path d="M 400.538879 579.019483 
C 402.414148 579.019483 404.212863 578.27443 405.538879 576.948415 
C 406.864894 575.622399 407.609946 573.823684 407.609946 571.948415 
C 407.609946 570.073146 406.864894 568.27443 405.538879 566.948415 
C 404.212863 565.622399 402.414148 564.877347 400.538879 564.877347 
C 398.663609 564.877347 396.864894 565.622399 395.538879 566.948415 
C 394.212863 568.27443 393.467811 570.073146 393.467811 571.948415 
C 393.467811 573.823684 394.212863 575.622399 395.538879 576.948415 
C 396.864894 578.27443 398.663609 579.019483 400.538879 579.019483 
z
" clip-path="url(#pd807c608c6)" style="fill: #8f81b5; stroke: #8f81b5"/>
    <path d="M 361.908674 738.228623 
C 363.094698 738.228623 364.232305 737.757411 365.070951 736.918765 
C 365.909597 736.080119 366.380809 734.942511 366.380809 733.756487 
C 366.380809 732.570463 365.909597 731.432855 365.070951 730.59421 
C 364.232305 729.755564 363.094698 729.284351 361.908674 729.284351 
C 360.722649 729.284351 359.585042 729.755564 358.746396 730.59421 
C 357.90775 731.432855 357.436538 732.570463 357.436538 733.756487 
C 357.436538 734.942511 357.90775 736.080119 358.746396 736.918765 
C 359.585042 737.757411 360.722649 738.228623 361.908674 738.228623 
z
" clip-path="url(#pd807c608c6)" style="fill: #879dba; stroke: #879dba"/>
    <path d="M 386.430456 735.71766 
C 387.61648 735.71766 388.754088 735.246447 389.592733 734.407801 
C 390.431379 733.569156 390.902592 732.431548 390.902592 731.245524 
C 390.902592 730.0595 390.431379 728.921892 389.592733 728.083246 
C 388.754088 727.2446 387.61648 726.773388 386.430456 726.773388 
C 385.244431 726.773388 384.106824 727.2446 383.268178 728.083246 
C 382.429532 728.921892 381.95832 730.0595 381.95832 731.245524 
C 381.95832 732.431548 382.429532 733.569156 383.268178 734.407801 
C 384.106824 735.246447 385.244431 735.71766 386.430456 735.71766 
z
" clip-path="url(#pd807c608c6)" style="fill: #879dba; stroke: #879dba"/>
    <path d="M 410.679307 731.216401 
C 411.865332 731.216401 413.002939 730.745189 413.841585 729.906543 
C 414.680231 729.067897 415.151443 727.930289 415.151443 726.744265 
C 415.151443 725.558241 414.680231 724.420633 413.841585 723.581988 
C 413.002939 722.743342 411.865332 722.272129 410.679307 722.272129 
C 409.493283 722.272129 408.355675 722.743342 407.51703 723.581988 
C 406.678384 724.420633 406.207171 725.558241 406.207171 726.744265 
C 406.207171 727.930289 406.678384 729.067897 407.51703 729.906543 
C 408.355675 730.745189 409.493283 731.216401 410.679307 731.216401 
z
" clip-path="url(#pd807c608c6)" style="fill: #879dba; stroke: #879dba"/>
    <path d="M 434.487271 724.75214 
C 435.673295 724.75214 436.810902 724.280928 437.649548 723.442282 
C 438.488194 722.603636 438.959407 721.466029 438.959407 720.280004 
C 438.959407 719.09398 438.488194 717.956372 437.649548 717.117727 
C 436.810902 716.279081 435.673295 715.807868 434.487271 715.807868 
C 433.301246 715.807868 432.163639 716.279081 431.324993 717.117727 
C 430.486347 717.956372 430.015135 719.09398 430.015135 720.280004 
C 430.015135 721.466029 430.486347 722.603636 431.324993 723.442282 
C 432.163639 724.280928 433.301246 724.75214 434.487271 724.75214 
z
" clip-path="url(#pd807c608c6)" style="fill: #879dba; stroke: #879dba"/>
    <path d="M 457.686388 716.368966 
C 458.872413 716.368966 460.01002 715.897753 460.848666 715.059108 
C 461.687312 714.220462 462.158524 713.082854 462.158524 711.89683 
C 462.158524 710.710806 461.687312 709.573198 460.848666 708.734552 
C 460.01002 707.895906 458.872413 707.424694 457.686388 707.424694 
C 456.500364 707.424694 455.362756 707.895906 454.524111 708.734552 
C 453.685465 709.573198 453.214252 710.710806 453.214252 711.89683 
C 453.214252 713.082854 453.685465 714.220462 454.524111 715.059108 
C 455.362756 715.897753 456.500364 716.368966 457.686388 716.368966 
z
" clip-path="url(#pd807c608c6)" style="fill: #879dba; stroke: #879dba"/>
    <path d="M 480.108703 706.123564 
C 481.294727 706.123564 482.432335 705.652351 483.270981 704.813705 
C 484.109626 703.975059 484.580839 702.837452 484.580839 701.651428 
C 484.580839 700.465403 484.109626 699.327796 483.270981 698.48915 
C 482.432335 697.650504 481.294727 697.179292 480.108703 697.179292 
C 478.922679 697.179292 477.785071 697.650504 476.946425 698.48915 
C 476.107779 699.327796 475.636567 700.465403 475.636567 701.651428 
C 475.636567 702.837452 476.107779 703.975059 476.946425 704.813705 
C 477.785071 705.652351 478.922679 706.123564 480.108703 706.123564 
z
" clip-path="url(#pd807c608c6)" style="fill: #879dba; stroke: #879dba"/>
    <path d="M 501.628246 694.083117 
C 502.814271 694.083117 503.951878 693.611904 504.790524 692.773258 
C 505.62917 691.934612 506.100382 690.797005 506.100382 689.610981 
C 506.100382 688.424956 505.62917 687.287349 504.790524 686.448703 
C 503.951878 685.610057 502.814271 685.138845 501.628246 685.138845 
C 500.442222 685.138845 499.304615 685.610057 498.465969 686.448703 
C 497.627323 687.287349 497.156111 688.424956 497.156111 689.610981 
C 497.156111 690.797005 497.627323 691.934612 498.465969 692.773258 
C 499.304615 693.611904 500.442222 694.083117 501.628246 694.083117 
z
" clip-path="url(#pd807c608c6)" style="fill: #879dba; stroke: #879dba"/>
    <path d="M 522.119051 680.329504 
C 523.305075 680.329504 524.442683 679.858291 525.281329 679.019646 
C 526.119974 678.181 526.591187 677.043392 526.591187 675.857368 
C 526.591187 674.671344 526.119974 673.533736 525.281329 672.69509 
C 524.442683 671.856444 523.305075 671.385232 522.119051 671.385232 
C 520.933027 671.385232 519.795419 671.856444 518.956773 672.69509 
C 518.118127 673.533736 517.646915 674.671344 517.646915 675.857368 
C 517.646915 677.043392 518.118127 678.181 518.956773 679.019646 
C 519.795419 679.858291 520.933027 680.329504 522.119051 680.329504 
z
" clip-path="url(#pd807c608c6)" style="fill: #879dba; stroke: #879dba"/>
    <path d="M 541.392164 664.953003 
C 542.578188 664.953003 543.715796 664.48179 544.554442 663.643144 
C 545.393087 662.804499 545.8643 661.666891 545.8643 660.480867 
C 545.8643 659.294842 545.393087 658.157235 544.554442 657.318589 
C 543.715796 656.479943 542.578188 656.008731 541.392164 656.008731 
C 540.20614 656.008731 539.068532 656.479943 538.229886 657.318589 
C 537.39124 658.157235 536.920028 659.294842 536.920028 660.480867 
C 536.920028 661.666891 537.39124 662.804499 538.229886 663.643144 
C 539.068532 664.48179 540.20614 664.953003 541.392164 664.953003 
z
" clip-path="url(#pd807c608c6)" style="fill: #879dba; stroke: #879dba"/>
    <path d="M 482.166181 499.052859 
C 484.04145 499.052859 485.840166 498.307807 487.166181 496.981791 
C 488.492197 495.655776 489.237249 493.85706 489.237249 491.981791 
C 489.237249 490.106522 488.492197 488.307807 487.166181 486.981791 
C 485.840166 485.655776 484.04145 484.910723 482.166181 484.910723 
C 480.290912 484.910723 478.492197 485.655776 477.166181 486.981791 
C 475.840166 488.307807 475.095113 490.106522 475.095113 491.981791 
C 475.095113 493.85706 475.840166 495.655776 477.166181 496.981791 
C 478.492197 498.307807 480.290912 499.052859 482.166181 499.052859 
z
" clip-path="url(#pd807c608c6)" style="fill: #8f81b5; stroke: #8f81b5"/>
    <path d="M 559.363607 648.054388 
C 560.549632 648.054388 561.687239 647.583175 562.525885 646.744529 
C 563.364531 645.905883 563.835743 644.768276 563.835743 643.582252 
C 563.835743 642.396227 563.364531 641.25862 562.525885 640.419974 
C 561.687239 639.581328 560.549632 639.110116 559.363607 639.110116 
C 558.177583 639.110116 557.039975 639.581328 556.20133 640.419974 
C 555.362684 641.25862 554.891471 642.396227 554.891471 643.582252 
C 554.891471 644.768276 555.362684 645.905883 556.20133 646.744529 
C 557.039975 647.583175 558.177583 648.054388 559.363607 648.054388 
z
" clip-path="url(#pd807c608c6)" style="fill: #879dba; stroke: #879dba"/>
    <path d="M 575.886418 629.749129 
C 577.072442 629.749129 578.21005 629.277917 579.048695 628.439271 
C 579.887341 627.600625 580.358554 626.463017 580.358554 625.276993 
C 580.358554 624.090969 579.887341 622.953361 579.048695 622.114715 
C 578.21005 621.27607 577.072442 620.804857 575.886418 620.804857 
C 574.700393 620.804857 573.562786 621.27607 572.72414 622.114715 
C 571.885494 622.953361 571.414282 624.090969 571.414282 625.276993 
C 571.414282 626.463017 571.885494 627.600625 572.72414 628.439271 
C 573.562786 629.277917 574.700393 629.749129 575.886418 629.749129 
z
" clip-path="url(#pd807c608c6)" style="fill: #879dba; stroke: #879dba"/>
    <path d="M 590.855622 610.158996 
C 592.041646 610.158996 593.179254 609.687784 594.0179 608.849138 
C 594.856546 608.010492 595.327758 606.872885 595.327758 605.68686 
C 595.327758 604.500836 594.856546 603.363228 594.0179 602.524583 
C 593.179254 601.685937 592.041646 601.214724 590.855622 601.214724 
C 589.669598 601.214724 588.53199 601.685937 587.693344 602.524583 
C 586.854699 603.363228 586.383486 604.500836 586.383486 605.68686 
C 586.383486 606.872885 586.854699 608.010492 587.693344 608.849138 
C 588.53199 609.687784 589.669598 610.158996 590.855622 610.158996 
z
" clip-path="url(#pd807c608c6)" style="fill: #879dba; stroke: #879dba"/>
    <path d="M 604.187242 589.409957 
C 605.373266 589.409957 606.510874 588.938745 607.349519 588.100099 
C 608.188165 587.261453 608.659378 586.123846 608.659378 584.937821 
C 608.659378 583.751797 608.188165 582.61419 607.349519 581.775544 
C 606.510874 580.936898 605.373266 580.465685 604.187242 580.465685 
C 603.001217 580.465685 601.86361 580.936898 601.024964 581.775544 
C 600.186318 582.61419 599.715106 583.751797 599.715106 584.937821 
C 599.715106 586.123846 600.186318 587.261453 601.024964 588.100099 
C 601.86361 588.938745 603.001217 589.409957 604.187242 589.409957 
z
" clip-path="url(#pd807c608c6)" style="fill: #879dba; stroke: #879dba"/>
    <path d="M 615.797298 567.644776 
C 616.983322 567.644776 618.12093 567.173564 618.959576 566.334918 
C 619.798221 565.496272 620.269434 564.358664 620.269434 563.17264 
C 620.269434 561.986616 619.798221 560.849008 618.959576 560.010362 
C 618.12093 559.171717 616.983322 558.700504 615.797298 558.700504 
C 614.611274 558.700504 613.473666 559.171717 612.63502 560.010362 
C 611.796374 560.849008 611.325162 561.986616 611.325162 563.17264 
C 611.325162 564.358664 611.796374 565.496272 612.63502 566.334918 
C 613.473666 567.173564 614.611274 567.644776 615.797298 567.644776 
z
" clip-path="url(#pd807c608c6)" style="fill: #879dba; stroke: #879dba"/>
    <path d="M 625.580817 545.014614 
C 626.766842 545.014614 627.904449 544.543402 628.743095 543.704756 
C 629.581741 542.86611 630.052953 541.728502 630.052953 540.542478 
C 630.052953 539.356454 629.581741 538.218846 628.743095 537.380201 
C 627.904449 536.541555 626.766842 536.070342 625.580817 536.070342 
C 624.394793 536.070342 623.257185 536.541555 622.41854 537.380201 
C 621.579894 538.218846 621.108681 539.356454 621.108681 540.542478 
C 621.108681 541.728502 621.579894 542.86611 622.41854 543.704756 
C 623.257185 544.543402 624.394793 545.014614 625.580817 545.014614 
z
" clip-path="url(#pd807c608c6)" style="fill: #879dba; stroke: #879dba"/>
    <path d="M 633.49581 521.647539 
C 634.681835 521.647539 635.819442 521.176327 636.658088 520.337681 
C 637.496734 519.499035 637.967946 518.361427 637.967946 517.175403 
C 637.967946 515.989379 637.496734 514.851771 636.658088 514.013125 
C 635.819442 513.17448 634.681835 512.703267 633.49581 512.703267 
C 632.309786 512.703267 631.172179 513.17448 630.333533 514.013125 
C 629.494887 514.851771 629.023674 515.989379 629.023674 517.175403 
C 629.023674 518.361427 629.494887 519.499035 630.333533 520.337681 
C 631.172179 521.176327 632.309786 521.647539 633.49581 521.647539 
z
" clip-path="url(#pd807c608c6)" style="fill: #879dba; stroke: #879dba"/>
    <path d="M 639.458299 497.713608 
C 640.644323 497.713608 641.78193 497.242395 642.620576 496.403749 
C 643.459222 495.565104 643.930434 494.427496 643.930434 493.241472 
C 643.930434 492.055447 643.459222 490.91784 642.620576 490.079194 
C 641.78193 489.240548 640.644323 488.769336 639.458299 488.769336 
C 638.272274 488.769336 637.134667 489.240548 636.296021 490.079194 
C 635.457375 490.91784 634.986163 492.055447 634.986163 493.241472 
C 634.986163 494.427496 635.457375 495.565104 636.296021 496.403749 
C 637.134667 497.242395 638.272274 497.713608 639.458299 497.713608 
z
" clip-path="url(#pd807c608c6)" style="fill: #879dba; stroke: #879dba"/>
    <path d="M 643.468282 473.380777 
C 644.654306 473.380777 645.791914 472.909565 646.630559 472.070919 
C 647.469205 471.232273 647.940418 470.094666 647.940418 468.908642 
C 647.940418 467.722617 647.469205 466.58501 646.630559 465.746364 
C 645.791914 464.907718 644.654306 464.436506 643.468282 464.436506 
C 642.282257 464.436506 641.14465 464.907718 640.306004 465.746364 
C 639.467358 466.58501 638.996146 467.722617 638.996146 468.908642 
C 638.996146 470.094666 639.467358 471.232273 640.306004 472.070919 
C 641.14465 472.909565 642.282257 473.380777 643.468282 473.380777 
z
" clip-path="url(#pd807c608c6)" style="fill: #879dba; stroke: #879dba"/>
    <path d="M 645.483771 448.796011 
C 646.669795 448.796011 647.807403 448.324799 648.646048 447.486153 
C 649.484694 446.647507 649.955907 445.509899 649.955907 444.323875 
C 649.955907 443.137851 649.484694 442.000243 648.646048 441.161598 
C 647.807403 440.322952 646.669795 439.851739 645.483771 439.851739 
C 644.297746 439.851739 643.160139 440.322952 642.321493 441.161598 
C 641.482847 442.000243 641.011635 443.137851 641.011635 444.323875 
C 641.011635 445.509899 641.482847 446.647507 642.321493 447.486153 
C 643.160139 448.324799 644.297746 448.796011 645.483771 448.796011 
z
" clip-path="url(#pd807c608c6)" style="fill: #879dba; stroke: #879dba"/>
   </g>
   <g id="patch_3">
    <path d="M 10.8 764.486395 
L 10.8 99.513605 
" style="fill: none; stroke: #000000; stroke-width: 0.8; stroke-linejoin: miter; stroke-linecap: square"/>
   </g>
   <g id="patch_4">
    <path d="M 675.772791 764.486395 
L 675.772791 99.513605 
" style="fill: none; stroke: #000000; stroke-width: 0.8; stroke-linejoin: miter; stroke-linecap: square"/>
   </g>
   <g id="patch_5">
    <path d="M 10.8 764.486395 
L 675.772791 764.486395 
" style="fill: none; stroke: #000000; stroke-width: 0.8; stroke-linejoin: miter; stroke-linecap: square"/>
   </g>
   <g id="patch_6">
    <path d="M 10.8 99.513605 
L 675.772791 99.513605 
" style="fill: none; stroke: #000000; stroke-width: 0.8; stroke-linejoin: miter; stroke-linecap: square"/>
   </g>
   <g id="text_1">
    <!-- Year: 1900 -->
    <g transform="translate(17.449728 126.918828) scale(0.3 -0.3)">
     <defs>
      <path id="CMR17-59" d="M 3706 3766 
C 3955 4160 4301 4160 4416 4160 
L 4416 4332 
C 4269 4319 4102 4319 3942 4319 
C 3782 4319 3526 4319 3373 4332 
L 3373 4160 
C 3533 4160 3616 4077 3616 3957 
C 3616 3881 3584 3830 3533 3747 
L 2381 1912 
L 1120 3912 
C 1075 3988 1069 3994 1069 4039 
C 1069 4160 1293 4160 1382 4160 
L 1382 4319 
C 1178 4319 864 4319 653 4319 
C 486 4319 166 4319 13 4332 
L 13 4160 
C 378 4160 480 4141 595 3958 
L 2010 1728 
L 2010 445 
C 2010 160 1939 160 1498 160 
L 1498 0 
C 1683 0 2016 0 2214 0 
C 2413 0 2752 0 2938 0 
L 2938 160 
C 2477 160 2419 160 2419 471 
L 2419 1728 
L 3706 3766 
z
" transform="scale(0.015625)"/>
      <path id="CMR17-65" d="M 2438 1472 
C 2464 1498 2464 1511 2464 1576 
C 2464 2238 2118 2816 1389 2816 
C 710 2816 173 2169 173 1383 
C 173 551 781 -64 1459 -64 
C 2176 -64 2458 607 2458 740 
C 2458 784 2419 784 2406 784 
C 2362 784 2355 771 2330 696 
C 2189 265 1837 51 1504 51 
C 1229 51 954 203 781 480 
C 582 803 582 1176 582 1472 
L 2438 1472 
z
M 589 1568 
C 634 2505 1126 2714 1382 2714 
C 1818 2714 2112 2297 2118 1568 
L 589 1568 
z
" transform="scale(0.015625)"/>
      <path id="CMR17-61" d="M 2304 1653 
C 2304 2072 2304 2294 2035 2543 
C 1798 2752 1523 2816 1306 2816 
C 800 2816 435 2407 435 1971 
C 435 1728 627 1728 666 1728 
C 749 1728 896 1778 896 1954 
C 896 2112 774 2181 666 2181 
C 640 2181 608 2174 589 2168 
C 723 2592 1069 2714 1293 2714 
C 1613 2714 1965 2429 1965 1885 
L 1965 1600 
C 1587 1600 1133 1549 774 1357 
C 371 1133 256 813 256 570 
C 256 77 832 -64 1171 -64 
C 1523 -64 1850 139 1990 511 
C 2003 233 2182 -18 2464 -18 
C 2598 -18 2938 70 2938 567 
L 2938 920 
L 2822 920 
L 2822 562 
C 2822 178 2650 128 2566 128 
C 2304 128 2304 458 2304 738 
L 2304 1653 
z
M 1965 870 
C 1965 317 1568 38 1216 38 
C 896 38 646 275 646 570 
C 646 761 730 1100 1101 1305 
C 1408 1478 1760 1504 1965 1504 
L 1965 870 
z
" transform="scale(0.015625)"/>
      <path id="CMR17-72" d="M 960 1497 
C 960 2112 1222 2688 1702 2688 
C 1747 2688 1792 2682 1837 2662 
C 1837 2662 1696 2617 1696 2452 
C 1696 2298 1818 2234 1914 2234 
C 1990 2234 2131 2279 2131 2458 
C 2131 2663 1926 2790 1709 2790 
C 1222 2790 1011 2317 947 2093 
L 941 2093 
L 941 2790 
L 198 2720 
L 198 2554 
C 576 2554 634 2515 634 2208 
L 634 428 
C 634 184 608 153 198 153 
L 198 -13 
C 352 0 646 0 813 0 
C 998 0 1325 0 1498 -13 
L 1498 153 
C 1037 153 960 153 960 440 
L 960 1497 
z
" transform="scale(0.015625)"/>
      <path id="CMR17-3a" d="M 1062 2491 
C 1062 2650 934 2752 800 2752 
C 672 2752 538 2650 538 2491 
C 538 2332 666 2230 800 2230 
C 928 2230 1062 2332 1062 2491 
z
M 1062 261 
C 1062 420 934 522 800 522 
C 672 522 538 420 538 261 
C 538 102 666 0 800 0 
C 928 0 1062 102 1062 261 
z
" transform="scale(0.015625)"/>
      <path id="CMR17-31" d="M 1702 4058 
C 1702 4192 1696 4192 1606 4192 
C 1357 3916 979 3827 621 3827 
C 602 3827 570 3827 563 3808 
C 557 3795 557 3782 557 3648 
C 755 3648 1088 3686 1344 3839 
L 1344 461 
C 1344 236 1331 160 781 160 
L 589 160 
L 589 0 
C 896 0 1216 0 1523 0 
C 1830 0 2150 0 2458 0 
L 2458 160 
L 2266 160 
C 1715 160 1702 230 1702 458 
L 1702 4058 
z
" transform="scale(0.015625)"/>
      <path id="CMR17-39" d="M 2253 1864 
C 2253 464 1670 31 1190 31 
C 1043 31 685 31 538 294 
C 704 268 826 357 826 518 
C 826 692 685 749 595 749 
C 538 749 365 723 365 506 
C 365 71 742 -128 1203 -128 
C 1939 -128 2688 674 2688 2073 
C 2688 3817 1971 4179 1485 4179 
C 851 4179 243 3628 243 2778 
C 243 1991 762 1408 1414 1408 
C 1952 1408 2189 1903 2253 2112 
L 2253 1864 
z
M 1427 1510 
C 1254 1510 1011 1542 813 1922 
C 678 2169 678 2461 678 2771 
C 678 3146 678 3405 858 3684 
C 947 3817 1114 4032 1485 4032 
C 2240 4032 2240 2885 2240 2632 
C 2240 2182 2035 1510 1427 1510 
z
" transform="scale(0.015625)"/>
      <path id="CMR17-30" d="M 2688 2025 
C 2688 2416 2682 3080 2413 3591 
C 2176 4039 1798 4198 1466 4198 
C 1158 4198 768 4058 525 3597 
C 269 3118 243 2524 243 2025 
C 243 1661 250 1106 448 619 
C 723 -39 1216 -128 1466 -128 
C 1760 -128 2208 -7 2470 600 
C 2662 1042 2688 1559 2688 2025 
z
M 1466 -26 
C 1056 -26 813 325 723 812 
C 653 1188 653 1738 653 2096 
C 653 2588 653 2997 736 3387 
C 858 3929 1216 4096 1466 4096 
C 1728 4096 2067 3923 2189 3400 
C 2272 3036 2278 2607 2278 2096 
C 2278 1680 2278 1169 2202 792 
C 2067 95 1690 -26 1466 -26 
z
" transform="scale(0.015625)"/>
     </defs>
     <use xlink:href="#CMR17-59" transform="scale(0.996264)"/>
     <use xlink:href="#CMR17-65" transform="translate(61.265174 0) scale(0.996264)"/>
     <use xlink:href="#CMR17-61" transform="translate(101.750835 0) scale(0.996264)"/>
     <use xlink:href="#CMR17-72" transform="translate(147.441312 0) scale(0.996264)"/>
     <use xlink:href="#CMR17-3a" transform="translate(182.72208 0) scale(0.996264)"/>
     <use xlink:href="#CMR17-31" transform="translate(248.078799 0) scale(0.996264)"/>
     <use xlink:href="#CMR17-39" transform="translate(293.769276 0) scale(0.996264)"/>
     <use xlink:href="#CMR17-30" transform="translate(339.459753 0) scale(0.996264)"/>
     <use xlink:href="#CMR17-30" transform="translate(385.15023 0) scale(0.996264)"/>
    </g>
   </g>
  </g>
  <g id="axes_2">
   <g id="patch_7">
    <path d="M 717.33359 853.2 
L 759.45359 853.2 
L 759.45359 10.8 
L 717.33359 10.8 
z
" style="fill: #ffffff"/>
   </g>
   <g id="QuadMesh_1">
    <path d="M 717.33359 853.2 
L 759.45359 853.2 
L 759.45359 747.9 
L 717.33359 747.9 
L 717.33359 853.2 
" clip-path="url(#p6666a5345e)" style="fill: #ad35ca"/>
    <path d="M 717.33359 747.9 
L 759.45359 747.9 
L 759.45359 642.6 
L 717.33359 642.6 
L 717.33359 747.9 
" clip-path="url(#p6666a5345e)" style="fill: #8f81b5"/>
    <path d="M 717.33359 642.6 
L 759.45359 642.6 
L 759.45359 537.3 
L 717.33359 537.3 
L 717.33359 642.6 
" clip-path="url(#p6666a5345e)" style="fill: #879dba"/>
    <path d="M 717.33359 537.3 
L 759.45359 537.3 
L 759.45359 432 
L 717.33359 432 
L 717.33359 537.3 
" clip-path="url(#p6666a5345e)" style="fill: #7bb4be"/>
    <path d="M 717.33359 432 
L 759.45359 432 
L 759.45359 326.7 
L 717.33359 326.7 
L 717.33359 432 
" clip-path="url(#p6666a5345e)" style="fill: #79c6b7"/>
    <path d="M 717.33359 326.7 
L 759.45359 326.7 
L 759.45359 221.4 
L 717.33359 221.4 
L 717.33359 326.7 
" clip-path="url(#p6666a5345e)" style="fill: #a1ccad"/>
    <path d="M 717.33359 221.4 
L 759.45359 221.4 
L 759.45359 116.1 
L 717.33359 116.1 
L 717.33359 221.4 
" clip-path="url(#p6666a5345e)" style="fill: #c1d59b"/>
    <path d="M 717.33359 116.1 
L 759.45359 116.1 
L 759.45359 10.8 
L 717.33359 10.8 
L 717.33359 116.1 
" clip-path="url(#p6666a5345e)" style="fill: #e4dc96"/>
   </g>
   <g id="matplotlib.axis_3"/>
   <g id="matplotlib.axis_4">
    <g id="ytick_7">
     <g id="line2d_1">
      <defs>
       <path id="m16901c9b1d" d="M 0 0 
L 3.5 0 
" style="stroke: #000000; stroke-width: 0.8"/>
      </defs>
      <g>
       <use xlink:href="#m16901c9b1d" x="759.45359" y="800.55" style="stroke: #000000; stroke-width: 0.8"/>
      </g>
     </g>
     <g id="text_2">
      <!-- 0 -->
      <g transform="translate(766.45359 811.619603) scale(0.32 -0.32)">
       <use xlink:href="#CMR17-30" transform="scale(0.996264)"/>
      </g>
     </g>
    </g>
    <g id="ytick_8">
     <g id="line2d_2">
      <g>
       <use xlink:href="#m16901c9b1d" x="759.45359" y="695.25" style="stroke: #000000; stroke-width: 0.8"/>
      </g>
     </g>
     <g id="text_3">
      <!-- 1 -->
      <g transform="translate(766.45359 706.319603) scale(0.32 -0.32)">
       <use xlink:href="#CMR17-31" transform="scale(0.996264)"/>
      </g>
     </g>
    </g>
    <g id="ytick_9">
     <g id="line2d_3">
      <g>
       <use xlink:href="#m16901c9b1d" x="759.45359" y="589.95" style="stroke: #000000; stroke-width: 0.8"/>
      </g>
     </g>
     <g id="text_4">
      <!-- 2 -->
      <g transform="translate(766.45359 601.019603) scale(0.32 -0.32)">
       <defs>
        <path id="CMR17-32" d="M 2669 989 
L 2554 989 
C 2490 536 2438 459 2413 420 
C 2381 369 1920 369 1830 369 
L 602 369 
C 832 619 1280 1072 1824 1597 
C 2214 1967 2669 2402 2669 3035 
C 2669 3790 2067 4224 1395 4224 
C 691 4224 262 3604 262 3030 
C 262 2780 448 2748 525 2748 
C 589 2748 781 2787 781 3010 
C 781 3207 614 3264 525 3264 
C 486 3264 448 3258 422 3245 
C 544 3790 915 4058 1306 4058 
C 1862 4058 2227 3617 2227 3035 
C 2227 2479 1901 2000 1536 1584 
L 262 146 
L 262 0 
L 2515 0 
L 2669 989 
z
" transform="scale(0.015625)"/>
       </defs>
       <use xlink:href="#CMR17-32" transform="scale(0.996264)"/>
      </g>
     </g>
    </g>
    <g id="ytick_10">
     <g id="line2d_4">
      <g>
       <use xlink:href="#m16901c9b1d" x="759.45359" y="484.65" style="stroke: #000000; stroke-width: 0.8"/>
      </g>
     </g>
     <g id="text_5">
      <!-- 3 -->
      <g transform="translate(766.45359 495.719603) scale(0.32 -0.32)">
       <defs>
        <path id="CMR17-33" d="M 1414 2157 
C 1984 2157 2234 1662 2234 1090 
C 2234 320 1824 25 1453 25 
C 1114 25 563 194 390 693 
C 422 680 454 680 486 680 
C 640 680 755 782 755 948 
C 755 1133 614 1216 486 1216 
C 378 1216 211 1165 211 926 
C 211 335 787 -128 1466 -128 
C 2176 -128 2720 430 2720 1085 
C 2720 1707 2208 2157 1600 2227 
C 2086 2328 2554 2756 2554 3329 
C 2554 3820 2048 4179 1472 4179 
C 890 4179 378 3829 378 3329 
C 378 3110 544 3072 627 3072 
C 762 3072 877 3155 877 3321 
C 877 3486 762 3569 627 3569 
C 602 3569 570 3569 544 3557 
C 730 3959 1235 4032 1459 4032 
C 1683 4032 2106 3925 2106 3320 
C 2106 3143 2080 2828 1862 2550 
C 1670 2304 1453 2304 1242 2284 
C 1210 2284 1062 2269 1037 2269 
C 992 2263 966 2257 966 2208 
C 966 2163 973 2157 1101 2157 
L 1414 2157 
z
" transform="scale(0.015625)"/>
       </defs>
       <use xlink:href="#CMR17-33" transform="scale(0.996264)"/>
      </g>
     </g>
    </g>
    <g id="ytick_11">
     <g id="line2d_5">
      <g>
       <use xlink:href="#m16901c9b1d" x="759.45359" y="379.35" style="stroke: #000000; stroke-width: 0.8"/>
      </g>
     </g>
     <g id="text_6">
      <!-- 4 -->
      <g transform="translate(766.45359 390.419603) scale(0.32 -0.32)">
       <defs>
        <path id="CMR17-34" d="M 2150 4122 
C 2150 4256 2144 4256 2029 4256 
L 128 1254 
L 128 1088 
L 1779 1088 
L 1779 457 
C 1779 224 1766 160 1318 160 
L 1197 160 
L 1197 0 
C 1402 0 1747 0 1965 0 
C 2182 0 2528 0 2733 0 
L 2733 160 
L 2611 160 
C 2163 160 2150 224 2150 457 
L 2150 1088 
L 2803 1088 
L 2803 1254 
L 2150 1254 
L 2150 4122 
z
M 1798 3703 
L 1798 1254 
L 256 1254 
L 1798 3703 
z
" transform="scale(0.015625)"/>
       </defs>
       <use xlink:href="#CMR17-34" transform="scale(0.996264)"/>
      </g>
     </g>
    </g>
    <g id="ytick_12">
     <g id="line2d_6">
      <g>
       <use xlink:href="#m16901c9b1d" x="759.45359" y="274.05" style="stroke: #000000; stroke-width: 0.8"/>
      </g>
     </g>
     <g id="text_7">
      <!-- 5 -->
      <g transform="translate(766.45359 285.119603) scale(0.32 -0.32)">
       <defs>
        <path id="CMR17-35" d="M 730 3692 
C 794 3666 1056 3584 1325 3584 
C 1920 3584 2246 3911 2432 4100 
C 2432 4157 2432 4192 2394 4192 
C 2387 4192 2374 4192 2323 4163 
C 2099 4058 1837 3973 1517 3973 
C 1325 3973 1037 3999 723 4139 
C 653 4171 640 4171 634 4171 
C 602 4171 595 4164 595 4037 
L 595 2203 
C 595 2089 595 2057 659 2057 
C 691 2057 704 2070 736 2114 
C 941 2401 1222 2522 1542 2522 
C 1766 2522 2246 2382 2246 1289 
C 2246 1085 2246 715 2054 421 
C 1894 159 1645 25 1370 25 
C 947 25 518 320 403 814 
C 429 807 480 795 506 795 
C 589 795 749 840 749 1038 
C 749 1210 627 1280 506 1280 
C 358 1280 262 1190 262 1011 
C 262 454 704 -128 1382 -128 
C 2042 -128 2669 440 2669 1264 
C 2669 2030 2170 2624 1549 2624 
C 1222 2624 947 2503 730 2274 
L 730 3692 
z
" transform="scale(0.015625)"/>
       </defs>
       <use xlink:href="#CMR17-35" transform="scale(0.996264)"/>
      </g>
     </g>
    </g>
    <g id="ytick_13">
     <g id="line2d_7">
      <g>
       <use xlink:href="#m16901c9b1d" x="759.45359" y="168.75" style="stroke: #000000; stroke-width: 0.8"/>
      </g>
     </g>
     <g id="text_8">
      <!-- 6 -->
      <g transform="translate(766.45359 179.819603) scale(0.32 -0.32)">
       <defs>
        <path id="CMR17-36" d="M 678 2176 
C 678 3690 1395 4032 1811 4032 
C 1946 4032 2272 4009 2400 3776 
C 2298 3776 2106 3776 2106 3553 
C 2106 3381 2246 3323 2336 3323 
C 2394 3323 2566 3348 2566 3560 
C 2566 3954 2246 4179 1805 4179 
C 1043 4179 243 3390 243 1984 
C 243 253 966 -128 1478 -128 
C 2099 -128 2688 427 2688 1283 
C 2688 2081 2170 2662 1517 2662 
C 1126 2662 838 2407 678 1960 
L 678 2176 
z
M 1478 25 
C 691 25 691 1200 691 1436 
C 691 1896 909 2560 1504 2560 
C 1613 2560 1926 2560 2138 2120 
C 2253 1870 2253 1609 2253 1289 
C 2253 944 2253 690 2118 434 
C 1978 171 1773 25 1478 25 
z
" transform="scale(0.015625)"/>
       </defs>
       <use xlink:href="#CMR17-36" transform="scale(0.996264)"/>
      </g>
     </g>
    </g>
    <g id="ytick_14">
     <g id="line2d_8">
      <g>
       <use xlink:href="#m16901c9b1d" x="759.45359" y="63.45" style="stroke: #000000; stroke-width: 0.8"/>
      </g>
     </g>
     <g id="text_9">
      <!-- 7 -->
      <g transform="translate(766.45359 74.519603) scale(0.32 -0.32)">
       <defs>
        <path id="CMR17-37" d="M 2886 3941 
L 2886 4081 
L 1382 4081 
C 634 4081 621 4165 595 4288 
L 480 4288 
L 294 3094 
L 410 3094 
C 429 3215 474 3540 550 3661 
C 589 3712 1062 3712 1171 3712 
L 2579 3712 
L 1869 2661 
C 1395 1954 1069 999 1069 165 
C 1069 89 1069 -128 1299 -128 
C 1530 -128 1530 89 1530 171 
L 1530 465 
C 1530 1508 1709 2196 2003 2636 
L 2886 3941 
z
" transform="scale(0.015625)"/>
       </defs>
       <use xlink:href="#CMR17-37" transform="scale(0.996264)"/>
      </g>
     </g>
    </g>
    <g id="ytick_15">
     <g id="line2d_9">
      <defs>
       <path id="ma8cffbdd23" d="M 0 0 
L 2 0 
" style="stroke: #000000; stroke-width: 0.6"/>
      </defs>
      <g>
       <use xlink:href="#ma8cffbdd23" x="759.45359" y="853.2" style="stroke: #000000; stroke-width: 0.6"/>
      </g>
     </g>
    </g>
    <g id="ytick_16">
     <g id="line2d_10">
      <g>
       <use xlink:href="#ma8cffbdd23" x="759.45359" y="747.9" style="stroke: #000000; stroke-width: 0.6"/>
      </g>
     </g>
    </g>
    <g id="ytick_17">
     <g id="line2d_11">
      <g>
       <use xlink:href="#ma8cffbdd23" x="759.45359" y="642.6" style="stroke: #000000; stroke-width: 0.6"/>
      </g>
     </g>
    </g>
    <g id="ytick_18">
     <g id="line2d_12">
      <g>
       <use xlink:href="#ma8cffbdd23" x="759.45359" y="537.3" style="stroke: #000000; stroke-width: 0.6"/>
      </g>
     </g>
    </g>
    <g id="ytick_19">
     <g id="line2d_13">
      <g>
       <use xlink:href="#ma8cffbdd23" x="759.45359" y="432" style="stroke: #000000; stroke-width: 0.6"/>
      </g>
     </g>
    </g>
    <g id="ytick_20">
     <g id="line2d_14">
      <g>
       <use xlink:href="#ma8cffbdd23" x="759.45359" y="326.7" style="stroke: #000000; stroke-width: 0.6"/>
      </g>
     </g>
    </g>
    <g id="ytick_21">
     <g id="line2d_15">
      <g>
       <use xlink:href="#ma8cffbdd23" x="759.45359" y="221.4" style="stroke: #000000; stroke-width: 0.6"/>
      </g>
     </g>
    </g>
    <g id="ytick_22">
     <g id="line2d_16">
      <g>
       <use xlink:href="#ma8cffbdd23" x="759.45359" y="116.1" style="stroke: #000000; stroke-width: 0.6"/>
      </g>
     </g>
    </g>
    <g id="ytick_23">
     <g id="line2d_17">
      <g>
       <use xlink:href="#ma8cffbdd23" x="759.45359" y="10.8" style="stroke: #000000; stroke-width: 0.6"/>
      </g>
     </g>
    </g>
    <g id="text_10">
     <!-- Node Depth -->
     <g transform="translate(828.899641 543.95779) rotate(-90) scale(0.46 -0.46)">
      <defs>
       <path id="CMR17-4e" d="M 1312 4250 
C 1267 4320 1261 4320 1139 4320 
L 326 4320 
L 326 4160 
L 448 4160 
C 704 4160 819 4129 838 4122 
L 838 610 
C 838 451 838 153 326 153 
L 326 -13 
C 474 0 742 0 902 0 
C 1062 0 1331 0 1478 -13 
L 1478 153 
C 966 153 966 451 966 610 
L 966 4033 
C 1011 3995 1011 3982 1056 3919 
L 3430 76 
C 3475 0 3494 0 3526 0 
C 3590 0 3590 19 3590 139 
L 3590 3705 
C 3590 3863 3590 4160 4102 4160 
L 4102 4326 
C 3955 4320 3686 4320 3526 4320 
C 3366 4320 3098 4320 2950 4326 
L 2950 4160 
C 3462 4160 3462 3862 3462 3703 
L 3462 763 
L 1312 4250 
z
" transform="scale(0.015625)"/>
       <path id="CMR17-6f" d="M 2758 1356 
C 2758 2176 2163 2816 1466 2816 
C 768 2816 173 2176 173 1356 
C 173 551 768 -64 1466 -64 
C 2163 -64 2758 551 2758 1356 
z
M 1466 51 
C 1165 51 909 230 762 480 
C 602 767 582 1126 582 1408 
C 582 1677 595 2010 762 2298 
C 890 2509 1139 2714 1466 2714 
C 1754 2714 1997 2554 2150 2330 
C 2349 2029 2349 1607 2349 1408 
C 2349 1158 2336 775 2163 467 
C 1984 173 1709 51 1466 51 
z
" transform="scale(0.015625)"/>
       <path id="CMR17-64" d="M 1869 4326 
L 1869 4160 
C 2246 4160 2304 4122 2304 3820 
L 2304 2345 
C 2278 2377 2016 2790 1498 2790 
C 845 2790 211 2208 211 1364 
C 211 525 806 -64 1434 -64 
C 1978 -64 2259 337 2291 380 
L 2291 -63 
L 3066 -63 
L 3066 128 
C 2688 128 2630 166 2630 473 
L 2630 4396 
L 1869 4326 
z
M 2291 755 
C 2291 563 2176 390 2029 262 
C 1811 70 1594 38 1472 38 
C 1286 38 621 134 621 1356 
C 621 2612 1363 2688 1530 2688 
C 1824 2688 2061 2522 2208 2291 
C 2291 2157 2291 2138 2291 2023 
L 2291 755 
z
" transform="scale(0.015625)"/>
       <path id="CMR17-44" d="M 333 4352 
L 333 4186 
C 774 4186 845 4186 845 3900 
L 845 452 
C 845 166 774 166 333 166 
L 333 0 
L 2368 0 
C 3398 0 4224 943 4224 2141 
C 4224 3346 3411 4352 2368 4352 
L 333 4352 
z
M 1523 166 
C 1267 166 1254 197 1254 414 
L 1254 3938 
C 1254 4155 1267 4186 1523 4186 
L 2240 4186 
C 2771 4186 3750 3874 3750 2141 
C 3750 1242 3488 879 3366 707 
C 3213 510 2848 166 2240 166 
L 1523 166 
z
" transform="scale(0.015625)"/>
       <path id="CMR17-70" d="M 1408 -1063 
C 998 -1063 973 -1037 973 -789 
L 973 402 
C 1158 134 1427 -38 1766 -38 
C 2406 -38 3053 523 3053 1388 
C 3053 2191 2496 2802 1837 2802 
C 1453 2802 1139 2592 960 2338 
L 960 2802 
L 198 2732 
L 198 2567 
C 576 2567 634 2528 634 2223 
L 634 -789 
C 634 -1031 608 -1063 198 -1063 
L 198 -1228 
C 352 -1216 634 -1216 800 -1216 
C 966 -1216 1254 -1216 1408 -1228 
L 1408 -1063 
z
M 973 2012 
C 973 2102 973 2235 1222 2471 
C 1254 2497 1472 2688 1792 2688 
C 2259 2688 2643 2108 2643 1382 
C 2643 656 2234 64 1728 64 
C 1498 64 1248 172 1056 472 
C 973 612 973 650 973 752 
L 973 2012 
z
" transform="scale(0.015625)"/>
       <path id="CMR17-74" d="M 966 2560 
L 1862 2560 
L 1862 2725 
L 966 2725 
L 966 3904 
L 851 3904 
C 838 3245 614 2668 70 2668 
L 70 2560 
L 627 2560 
L 627 771 
C 627 650 627 -64 1370 -64 
C 1747 -64 1965 306 1965 777 
L 1965 1140 
L 1850 1140 
L 1850 783 
C 1850 344 1677 51 1408 51 
C 1222 51 966 178 966 758 
L 966 2560 
z
" transform="scale(0.015625)"/>
       <path id="CMR17-68" d="M 2656 1933 
C 2656 2259 2592 2790 1837 2790 
C 1312 2790 1056 2368 979 2157 
L 973 2157 
L 973 4396 
L 211 4326 
L 211 4160 
C 589 4160 646 4122 646 3817 
L 646 426 
C 646 184 621 153 211 153 
L 211 -13 
C 365 0 646 0 813 0 
C 979 0 1267 0 1421 -13 
L 1421 153 
C 1011 153 986 178 986 428 
L 986 1658 
C 986 2247 1344 2688 1792 2688 
C 2266 2688 2317 2266 2317 1958 
L 2317 428 
C 2317 184 2291 153 1882 153 
L 1882 -13 
C 2035 0 2317 0 2483 0 
C 2650 0 2938 0 3091 -13 
L 3091 153 
C 2682 153 2656 178 2656 428 
L 2656 1933 
z
" transform="scale(0.015625)"/>
      </defs>
      <use xlink:href="#CMR17-4e" transform="scale(0.996264)"/>
      <use xlink:href="#CMR17-6f" transform="translate(69.07243 0) scale(0.996264)"/>
      <use xlink:href="#CMR17-64" transform="translate(117.365346 0) scale(0.996264)"/>
      <use xlink:href="#CMR17-65" transform="translate(168.260715 0) scale(0.996264)"/>
      <use xlink:href="#CMR17-44" transform="translate(238.822342 0) scale(0.996264)"/>
      <use xlink:href="#CMR17-65" transform="translate(309.215898 0) scale(0.996264)"/>
      <use xlink:href="#CMR17-70" transform="translate(349.701559 0) scale(0.996264)"/>
      <use xlink:href="#CMR17-74" transform="translate(400.596928 0) scale(0.996264)"/>
      <use xlink:href="#CMR17-68" transform="translate(435.877696 0) scale(0.996264)"/>
     </g>
    </g>
   </g>
   <g id="LineCollection_2"/>
   <g id="patch_8">
    <path d="M 717.33359 853.2 
L 738.39359 853.2 
L 759.45359 853.2 
L 759.45359 10.8 
L 738.39359 10.8 
L 717.33359 10.8 
L 717.33359 853.2 
z
" style="fill: none; stroke: #000000; stroke-width: 0.8; stroke-linejoin: miter; stroke-linecap: square"/>
   </g>
  </g>
 </g>
 <defs>
  <clipPath id="pd807c608c6">
   <rect x="10.8" y="99.513605" width="664.972791" height="664.972791"/>
  </clipPath>
  <clipPath id="p6666a5345e">
   <rect x="717.33359" y="10.8" width="42.12" height="842.4"/>
  </clipPath>
 </defs>
</svg>
