<?xml version="1.0" encoding="utf-8" standalone="no"?>
<!DOCTYPE svg PUBLIC "-//W3C//DTD SVG 1.1//EN"
  "http://www.w3.org/Graphics/SVG/1.1/DTD/svg11.dtd">
<svg xmlns:xlink="http://www.w3.org/1999/xlink" width="864pt" height="864pt" viewBox="0 0 864 864" xmlns="http://www.w3.org/2000/svg" version="1.1">
 <metadata>
  <rdf:RDF xmlns:dc="http://purl.org/dc/elements/1.1/" xmlns:cc="http://creativecommons.org/ns#" xmlns:rdf="http://www.w3.org/1999/02/22-rdf-syntax-ns#">
   <cc:Work>
    <dc:type rdf:resource="http://purl.org/dc/dcmitype/StillImage"/>
    <dc:date>2026-06-09T22:33:55.156432</dc:date>
    <dc:format>image/svg+xml</dc:format>
    <dc:creator>
     <cc:Agent>
      <dc:title>Matplotlib v3.9.2, https://matplotlib.org/</dc:title>
     </cc:Agent>
    </dc:creator>
   </cc:Work>
  </rdf:RDF>
 </metadata>
 <defs>
  <style type="text/css">*{stroke-linejoin: round; stroke-linecap: butt}</style>
 </defs>
 <g id="figure_1">
  <g id="patch_1">
   <path d="M 0 864 
L 864 864 
L 864 0 
L 0 0 
z
" style="fill: #ffffff"/>
  </g>
  <g id="axes_1">
   <g id="patch_2">
    <path d="M 10.8 764.486395 
L 675.772791 764.486395 
L 675.772791 99.513605 
L 10.8 99.513605 
z
" style="fill: #ffffff"/>
   </g>
   <g id="LineCollection_1">
    <path d="M 644.266346 459.887716 
L 343.307386 432 
" clip-path="url(#p1883d4f084)" style="fill: none; stroke: #808080; stroke-opacity: 0.3"/>
    <path d="M 343.307386 432 
L 644.266346 404.112284 
" clip-path="url(#p1883d4f084)" style="fill: none; stroke: #808080; stroke-opacity: 0.3"/>
    <path d="M 343.307386 432 
L 634.023079 349.298207 
" clip-path="url(#p1883d4f084)" style="fill: none; stroke: #808080; stroke-opacity: 0.3"/>
    <path d="M 343.307386 432 
L 613.872388 297.284237 
" clip-path="url(#p1883d4f084)" style="fill: none; stroke: #808080; stroke-opacity: 0.3"/>
    <path d="M 343.307386 432 
L 584.485964 249.846153 
" clip-path="url(#p1883d4f084)" style="fill: none; stroke: #808080; stroke-opacity: 0.3"/>
    <path d="M 343.307386 432 
L 546.913322 208.621198 
" clip-path="url(#p1883d4f084)" style="fill: none; stroke: #808080; stroke-opacity: 0.3"/>
    <path d="M 343.307386 432 
L 502.41388 174.994733 
" clip-path="url(#p1883d4f084)" style="fill: none; stroke: #808080; stroke-opacity: 0.3"/>
    <path d="M 343.307386 432 
L 452.49894 150.142215 
" clip-path="url(#p1883d4f084)" style="fill: none; stroke: #808080; stroke-opacity: 0.3"/>
    <path d="M 343.307386 432 
L 398.847727 134.903255 
" clip-path="url(#p1883d4f084)" style="fill: none; stroke: #808080; stroke-opacity: 0.3"/>
    <path d="M 343.307386 432 
L 343.307386 129.739641 
" clip-path="url(#p1883d4f084)" style="fill: none; stroke: #808080; stroke-opacity: 0.3"/>
    <path d="M 343.307386 432 
L 287.767045 134.903255 
" clip-path="url(#p1883d4f084)" style="fill: none; stroke: #808080; stroke-opacity: 0.3"/>
    <path d="M 343.307386 432 
L 234.115831 150.142215 
" clip-path="url(#p1883d4f084)" style="fill: none; stroke: #808080; stroke-opacity: 0.3"/>
    <path d="M 343.307386 432 
L 184.15891 174.994733 
" clip-path="url(#p1883d4f084)" style="fill: none; stroke: #808080; stroke-opacity: 0.3"/>
    <path d="M 343.307386 432 
L 139.659468 208.621198 
" clip-path="url(#p1883d4f084)" style="fill: none; stroke: #808080; stroke-opacity: 0.3"/>
    <path d="M 343.307386 432 
L 102.086827 249.846153 
" clip-path="url(#p1883d4f084)" style="fill: none; stroke: #808080; stroke-opacity: 0.3"/>
    <path d="M 343.307386 432 
L 72.742383 297.284237 
" clip-path="url(#p1883d4f084)" style="fill: none; stroke: #808080; stroke-opacity: 0.3"/>
    <path d="M 343.307386 432 
L 52.591693 349.298207 
" clip-path="url(#p1883d4f084)" style="fill: none; stroke: #808080; stroke-opacity: 0.3"/>
    <path d="M 343.307386 432 
L 42.306444 404.112284 
" clip-path="url(#p1883d4f084)" style="fill: none; stroke: #808080; stroke-opacity: 0.3"/>
    <path d="M 343.307386 432 
L 42.306444 459.887716 
" clip-path="url(#p1883d4f084)" style="fill: none; stroke: #808080; stroke-opacity: 0.3"/>
    <path d="M 343.307386 432 
L 52.591693 514.718585 
" clip-path="url(#p1883d4f084)" style="fill: none; stroke: #808080; stroke-opacity: 0.3"/>
    <path d="M 343.307386 432 
L 72.742383 566.728357 
" clip-path="url(#p1883d4f084)" style="fill: none; stroke: #808080; stroke-opacity: 0.3"/>
    <path d="M 343.307386 432 
L 102.086827 614.153847 
" clip-path="url(#p1883d4f084)" style="fill: none; stroke: #808080; stroke-opacity: 0.3"/>
    <path d="M 343.307386 432 
L 139.659468 655.374604 
" clip-path="url(#p1883d4f084)" style="fill: none; stroke: #808080; stroke-opacity: 0.3"/>
    <path d="M 343.307386 432 
L 184.15891 688.988474 
" clip-path="url(#p1883d4f084)" style="fill: none; stroke: #808080; stroke-opacity: 0.3"/>
    <path d="M 343.307386 432 
L 234.115831 713.849389 
" clip-path="url(#p1883d4f084)" style="fill: none; stroke: #808080; stroke-opacity: 0.3"/>
    <path d="M 343.307386 432 
L 287.767045 729.113537 
" clip-path="url(#p1883d4f084)" style="fill: none; stroke: #808080; stroke-opacity: 0.3"/>
    <path d="M 343.307386 432 
L 343.307386 734.260359 
" clip-path="url(#p1883d4f084)" style="fill: none; stroke: #808080; stroke-opacity: 0.3"/>
    <path d="M 343.307386 432 
L 398.847727 729.113537 
" clip-path="url(#p1883d4f084)" style="fill: none; stroke: #808080; stroke-opacity: 0.3"/>
    <path d="M 343.307386 432 
L 452.49894 713.849389 
" clip-path="url(#p1883d4f084)" style="fill: none; stroke: #808080; stroke-opacity: 0.3"/>
    <path d="M 343.307386 432 
L 502.41388 688.988474 
" clip-path="url(#p1883d4f084)" style="fill: none; stroke: #808080; stroke-opacity: 0.3"/>
    <path d="M 343.307386 432 
L 546.913322 655.374604 
" clip-path="url(#p1883d4f084)" style="fill: none; stroke: #808080; stroke-opacity: 0.3"/>
    <path d="M 343.307386 432 
L 584.485964 614.153847 
" clip-path="url(#p1883d4f084)" style="fill: none; stroke: #808080; stroke-opacity: 0.3"/>
    <path d="M 343.307386 432 
L 613.872388 566.728357 
" clip-path="url(#p1883d4f084)" style="fill: none; stroke: #808080; stroke-opacity: 0.3"/>
    <path d="M 343.307386 432 
L 634.023079 514.718585 
" clip-path="url(#p1883d4f084)" style="fill: none; stroke: #808080; stroke-opacity: 0.3"/>
   </g>
   <g id="matplotlib.axis_1">
    <g id="xtick_1"/>
    <g id="xtick_2"/>
    <g id="xtick_3"/>
    <g id="xtick_4"/>
    <g id="xtick_5"/>
    <g id="xtick_6"/>
    <g id="xtick_7"/>
   </g>
   <g id="matplotlib.axis_2">
    <g id="ytick_1"/>
    <g id="ytick_2"/>
    <g id="ytick_3"/>
    <g id="ytick_4"/>
    <g id="ytick_5"/>
    <g id="ytick_6"/>
    <g id="ytick_7"/>
    <g id="ytick_8"/>
   </g>
   <g id="PathCollection_1">
    <path d="M 644.266346 471.068056 
C 647.231407 471.068056 650.075426 469.890025 652.17204 467.79341 
C 654.268655 465.696796 655.446686 462.852777 655.446686 459.887716 
C 655.446686 456.922655 654.268655 454.078637 652.17204 451.982022 
C 650.075426 449.885407 647.231407 448.707376 644.266346 448.707376 
C 641.301285 448.707376 638.457267 449.885407 636.360652 451.982022 
C 634.264038 454.078637 633.086006 456.922655 633.086006 459.887716 
C 633.086006 462.852777 634.264038 465.696796 636.360652 467.79341 
C 638.457267 469.890025 641.301285 471.068056 644.266346 471.068056 
z
" clip-path="url(#p1883d4f084)" style="fill: #ad35ca; stroke: #ad35ca"/>
    <path d="M 343.307386 439.071068 
C 345.182655 439.071068 346.98137 438.326015 348.307386 437 
C 349.633401 435.673985 350.378453 433.875269 350.378453 432 
C 350.378453 430.124731 349.633401 428.326015 348.307386 427 
C 346.98137 425.673985 345.182655 424.928932 343.307386 424.928932 
C 341.432117 424.928932 339.633401 425.673985 338.307386 427 
C 336.98137 428.326015 336.236318 430.124731 336.236318 432 
C 336.236318 433.875269 336.98137 435.673985 338.307386 437 
C 339.633401 438.326015 341.432117 439.071068 343.307386 439.071068 
z
" clip-path="url(#p1883d4f084)" style="fill: #8f81b5; stroke: #8f81b5"/>
    <path d="M 644.266346 408.58442 
C 645.452371 408.58442 646.589978 408.113207 647.428624 407.274561 
C 648.26727 406.435916 648.738482 405.298308 648.738482 404.112284 
C 648.738482 402.926259 648.26727 401.788652 647.428624 400.950006 
C 646.589978 400.11136 645.452371 399.640148 644.266346 399.640148 
C 643.080322 399.640148 641.942714 400.11136 641.104069 400.950006 
C 640.265423 401.788652 639.79421 402.926259 639.79421 404.112284 
C 639.79421 405.298308 640.265423 406.435916 641.104069 407.274561 
C 641.942714 408.113207 643.080322 408.58442 644.266346 408.58442 
z
" clip-path="url(#p1883d4f084)" style="fill: #879dba; stroke: #879dba"/>
    <path d="M 634.023079 353.770343 
C 635.209103 353.770343 636.34671 353.299131 637.185356 352.460485 
C 638.024002 351.621839 638.495214 350.484232 638.495214 349.298207 
C 638.495214 348.112183 638.024002 346.974575 637.185356 346.13593 
C 636.34671 345.297284 635.209103 344.826071 634.023079 344.826071 
C 632.837054 344.826071 631.699447 345.297284 630.860801 346.13593 
C 630.022155 346.974575 629.550943 348.112183 629.550943 349.298207 
C 629.550943 350.484232 630.022155 351.621839 630.860801 352.460485 
C 631.699447 353.299131 632.837054 353.770343 634.023079 353.770343 
z
" clip-path="url(#p1883d4f084)" style="fill: #879dba; stroke: #879dba"/>
    <path d="M 613.872388 301.756373 
C 615.058412 301.756373 616.19602 301.285161 617.034666 300.446515 
C 617.873311 299.607869 618.344524 298.470261 618.344524 297.284237 
C 618.344524 296.098213 617.873311 294.960605 617.034666 294.121959 
C 616.19602 293.283314 615.058412 292.812101 613.872388 292.812101 
C 612.686364 292.812101 611.548756 293.283314 610.71011 294.121959 
C 609.871464 294.960605 609.400252 296.098213 609.400252 297.284237 
C 609.400252 298.470261 609.871464 299.607869 610.71011 300.446515 
C 611.548756 301.285161 612.686364 301.756373 613.872388 301.756373 
z
" clip-path="url(#p1883d4f084)" style="fill: #879dba; stroke: #879dba"/>
    <path d="M 584.485964 254.318289 
C 585.671988 254.318289 586.809596 253.847076 587.648242 253.008431 
C 588.486888 252.169785 588.9581 251.032177 588.9581 249.846153 
C 588.9581 248.660129 588.486888 247.522521 587.648242 246.683875 
C 586.809596 245.845229 585.671988 245.374017 584.485964 245.374017 
C 583.29994 245.374017 582.162332 245.845229 581.323686 246.683875 
C 580.485041 247.522521 580.013828 248.660129 580.013828 249.846153 
C 580.013828 251.032177 580.485041 252.169785 581.323686 253.008431 
C 582.162332 253.847076 583.29994 254.318289 584.485964 254.318289 
z
" clip-path="url(#p1883d4f084)" style="fill: #879dba; stroke: #879dba"/>
    <path d="M 546.913322 213.093334 
C 548.099347 213.093334 549.236954 212.622122 550.0756 211.783476 
C 550.914246 210.94483 551.385458 209.807223 551.385458 208.621198 
C 551.385458 207.435174 550.914246 206.297566 550.0756 205.458921 
C 549.236954 204.620275 548.099347 204.149062 546.913322 204.149062 
C 545.727298 204.149062 544.58969 204.620275 543.751045 205.458921 
C 542.912399 206.297566 542.441186 207.435174 542.441186 208.621198 
C 542.441186 209.807223 542.912399 210.94483 543.751045 211.783476 
C 544.58969 212.622122 545.727298 213.093334 546.913322 213.093334 
z
" clip-path="url(#p1883d4f084)" style="fill: #879dba; stroke: #879dba"/>
    <path d="M 502.41388 179.466869 
C 503.599905 179.466869 504.737512 178.995657 505.576158 178.157011 
C 506.414804 177.318365 506.886016 176.180758 506.886016 174.994733 
C 506.886016 173.808709 506.414804 172.671101 505.576158 171.832456 
C 504.737512 170.99381 503.599905 170.522597 502.41388 170.522597 
C 501.227856 170.522597 500.090249 170.99381 499.251603 171.832456 
C 498.412957 172.671101 497.941744 173.808709 497.941744 174.994733 
C 497.941744 176.180758 498.412957 177.318365 499.251603 178.157011 
C 500.090249 178.995657 501.227856 179.466869 502.41388 179.466869 
z
" clip-path="url(#p1883d4f084)" style="fill: #879dba; stroke: #879dba"/>
    <path d="M 452.49894 154.614351 
C 453.684965 154.614351 454.822572 154.143138 455.661218 153.304493 
C 456.499864 152.465847 456.971076 151.328239 456.971076 150.142215 
C 456.971076 148.956191 456.499864 147.818583 455.661218 146.979937 
C 454.822572 146.141291 453.684965 145.670079 452.49894 145.670079 
C 451.312916 145.670079 450.175309 146.141291 449.336663 146.979937 
C 448.498017 147.818583 448.026805 148.956191 448.026805 150.142215 
C 448.026805 151.328239 448.498017 152.465847 449.336663 153.304493 
C 450.175309 154.143138 451.312916 154.614351 452.49894 154.614351 
z
" clip-path="url(#p1883d4f084)" style="fill: #879dba; stroke: #879dba"/>
    <path d="M 398.847727 139.375391 
C 400.033751 139.375391 401.171359 138.904179 402.010004 138.065533 
C 402.84865 137.226887 403.319863 136.089279 403.319863 134.903255 
C 403.319863 133.717231 402.84865 132.579623 402.010004 131.740977 
C 401.171359 130.902332 400.033751 130.431119 398.847727 130.431119 
C 397.661702 130.431119 396.524095 130.902332 395.685449 131.740977 
C 394.846803 132.579623 394.375591 133.717231 394.375591 134.903255 
C 394.375591 136.089279 394.846803 137.226887 395.685449 138.065533 
C 396.524095 138.904179 397.661702 139.375391 398.847727 139.375391 
z
" clip-path="url(#p1883d4f084)" style="fill: #879dba; stroke: #879dba"/>
    <path d="M 343.307386 134.211777 
C 344.49341 134.211777 345.631017 133.740564 346.469663 132.901918 
C 347.308309 132.063272 347.779522 130.925665 347.779522 129.739641 
C 347.779522 128.553616 347.308309 127.416009 346.469663 126.577363 
C 345.631017 125.738717 344.49341 125.267505 343.307386 125.267505 
C 342.121361 125.267505 340.983754 125.738717 340.145108 126.577363 
C 339.306462 127.416009 338.83525 128.553616 338.83525 129.739641 
C 338.83525 130.925665 339.306462 132.063272 340.145108 132.901918 
C 340.983754 133.740564 342.121361 134.211777 343.307386 134.211777 
z
" clip-path="url(#p1883d4f084)" style="fill: #879dba; stroke: #879dba"/>
    <path d="M 287.767045 139.375391 
C 288.953069 139.375391 290.090676 138.904179 290.929322 138.065533 
C 291.767968 137.226887 292.239181 136.089279 292.239181 134.903255 
C 292.239181 133.717231 291.767968 132.579623 290.929322 131.740977 
C 290.090676 130.902332 288.953069 130.431119 287.767045 130.431119 
C 286.58102 130.431119 285.443413 130.902332 284.604767 131.740977 
C 283.766121 132.579623 283.294909 133.717231 283.294909 134.903255 
C 283.294909 136.089279 283.766121 137.226887 284.604767 138.065533 
C 285.443413 138.904179 286.58102 139.375391 287.767045 139.375391 
z
" clip-path="url(#p1883d4f084)" style="fill: #879dba; stroke: #879dba"/>
    <path d="M 234.115831 154.614351 
C 235.301855 154.614351 236.439463 154.143138 237.278108 153.304493 
C 238.116754 152.465847 238.587967 151.328239 238.587967 150.142215 
C 238.587967 148.956191 238.116754 147.818583 237.278108 146.979937 
C 236.439463 146.141291 235.301855 145.670079 234.115831 145.670079 
C 232.929806 145.670079 231.792199 146.141291 230.953553 146.979937 
C 230.114907 147.818583 229.643695 148.956191 229.643695 150.142215 
C 229.643695 151.328239 230.114907 152.465847 230.953553 153.304493 
C 231.792199 154.143138 232.929806 154.614351 234.115831 154.614351 
z
" clip-path="url(#p1883d4f084)" style="fill: #879dba; stroke: #879dba"/>
    <path d="M 184.15891 179.466869 
C 185.344935 179.466869 186.482542 178.995657 187.321188 178.157011 
C 188.159834 177.318365 188.631046 176.180758 188.631046 174.994733 
C 188.631046 173.808709 188.159834 172.671101 187.321188 171.832456 
C 186.482542 170.99381 185.344935 170.522597 184.15891 170.522597 
C 182.972886 170.522597 181.835278 170.99381 180.996633 171.832456 
C 180.157987 172.671101 179.686774 173.808709 179.686774 174.994733 
C 179.686774 176.180758 180.157987 177.318365 180.996633 178.157011 
C 181.835278 178.995657 182.972886 179.466869 184.15891 179.466869 
z
" clip-path="url(#p1883d4f084)" style="fill: #879dba; stroke: #879dba"/>
    <path d="M 139.659468 213.093334 
C 140.845493 213.093334 141.9831 212.622122 142.821746 211.783476 
C 143.660392 210.94483 144.131604 209.807223 144.131604 208.621198 
C 144.131604 207.435174 143.660392 206.297566 142.821746 205.458921 
C 141.9831 204.620275 140.845493 204.149062 139.659468 204.149062 
C 138.473444 204.149062 137.335837 204.620275 136.497191 205.458921 
C 135.658545 206.297566 135.187333 207.435174 135.187333 208.621198 
C 135.187333 209.807223 135.658545 210.94483 136.497191 211.783476 
C 137.335837 212.622122 138.473444 213.093334 139.659468 213.093334 
z
" clip-path="url(#p1883d4f084)" style="fill: #879dba; stroke: #879dba"/>
    <path d="M 102.086827 254.318289 
C 103.272851 254.318289 104.410458 253.847076 105.249104 253.008431 
C 106.08775 252.169785 106.558963 251.032177 106.558963 249.846153 
C 106.558963 248.660129 106.08775 247.522521 105.249104 246.683875 
C 104.410458 245.845229 103.272851 245.374017 102.086827 245.374017 
C 100.900802 245.374017 99.763195 245.845229 98.924549 246.683875 
C 98.085903 247.522521 97.614691 248.660129 97.614691 249.846153 
C 97.614691 251.032177 98.085903 252.169785 98.924549 253.008431 
C 99.763195 253.847076 100.900802 254.318289 102.086827 254.318289 
z
" clip-path="url(#p1883d4f084)" style="fill: #879dba; stroke: #879dba"/>
    <path d="M 72.742383 301.756373 
C 73.928408 301.756373 75.066015 301.285161 75.904661 300.446515 
C 76.743307 299.607869 77.214519 298.470261 77.214519 297.284237 
C 77.214519 296.098213 76.743307 294.960605 75.904661 294.121959 
C 75.066015 293.283314 73.928408 292.812101 72.742383 292.812101 
C 71.556359 292.812101 70.418752 293.283314 69.580106 294.121959 
C 68.74146 294.960605 68.270247 296.098213 68.270247 297.284237 
C 68.270247 298.470261 68.74146 299.607869 69.580106 300.446515 
C 70.418752 301.285161 71.556359 301.756373 72.742383 301.756373 
z
" clip-path="url(#p1883d4f084)" style="fill: #879dba; stroke: #879dba"/>
    <path d="M 52.591693 353.770343 
C 53.777717 353.770343 54.915325 353.299131 55.75397 352.460485 
C 56.592616 351.621839 57.063829 350.484232 57.063829 349.298207 
C 57.063829 348.112183 56.592616 346.974575 55.75397 346.13593 
C 54.915325 345.297284 53.777717 344.826071 52.591693 344.826071 
C 51.405668 344.826071 50.268061 345.297284 49.429415 346.13593 
C 48.590769 346.974575 48.119557 348.112183 48.119557 349.298207 
C 48.119557 350.484232 48.590769 351.621839 49.429415 352.460485 
C 50.268061 353.299131 51.405668 353.770343 52.591693 353.770343 
z
" clip-path="url(#p1883d4f084)" style="fill: #879dba; stroke: #879dba"/>
    <path d="M 42.306444 408.58442 
C 43.492469 408.58442 44.630076 408.113207 45.468722 407.274561 
C 46.307368 406.435916 46.77858 405.298308 46.77858 404.112284 
C 46.77858 402.926259 46.307368 401.788652 45.468722 400.950006 
C 44.630076 400.11136 43.492469 399.640148 42.306444 399.640148 
C 41.12042 399.640148 39.982813 400.11136 39.144167 400.950006 
C 38.305521 401.788652 37.834308 402.926259 37.834308 404.112284 
C 37.834308 405.298308 38.305521 406.435916 39.144167 407.274561 
C 39.982813 408.113207 41.12042 408.58442 42.306444 408.58442 
z
" clip-path="url(#p1883d4f084)" style="fill: #879dba; stroke: #879dba"/>
    <path d="M 42.306444 464.359852 
C 43.492469 464.359852 44.630076 463.88864 45.468722 463.049994 
C 46.307368 462.211348 46.77858 461.073741 46.77858 459.887716 
C 46.77858 458.701692 46.307368 457.564084 45.468722 456.725439 
C 44.630076 455.886793 43.492469 455.41558 42.306444 455.41558 
C 41.12042 455.41558 39.982813 455.886793 39.144167 456.725439 
C 38.305521 457.564084 37.834308 458.701692 37.834308 459.887716 
C 37.834308 461.073741 38.305521 462.211348 39.144167 463.049994 
C 39.982813 463.88864 41.12042 464.359852 42.306444 464.359852 
z
" clip-path="url(#p1883d4f084)" style="fill: #879dba; stroke: #879dba"/>
    <path d="M 52.591693 519.190721 
C 53.777717 519.190721 54.915325 518.719509 55.75397 517.880863 
C 56.592616 517.042217 57.063829 515.904609 57.063829 514.718585 
C 57.063829 513.532561 56.592616 512.394953 55.75397 511.556307 
C 54.915325 510.717662 53.777717 510.246449 52.591693 510.246449 
C 51.405668 510.246449 50.268061 510.717662 49.429415 511.556307 
C 48.590769 512.394953 48.119557 513.532561 48.119557 514.718585 
C 48.119557 515.904609 48.590769 517.042217 49.429415 517.880863 
C 50.268061 518.719509 51.405668 519.190721 52.591693 519.190721 
z
" clip-path="url(#p1883d4f084)" style="fill: #879dba; stroke: #879dba"/>
    <path d="M 72.742383 571.200493 
C 73.928408 571.200493 75.066015 570.729281 75.904661 569.890635 
C 76.743307 569.051989 77.214519 567.914381 77.214519 566.728357 
C 77.214519 565.542333 76.743307 564.404725 75.904661 563.566079 
C 75.066015 562.727434 73.928408 562.256221 72.742383 562.256221 
C 71.556359 562.256221 70.418752 562.727434 69.580106 563.566079 
C 68.74146 564.404725 68.270247 565.542333 68.270247 566.728357 
C 68.270247 567.914381 68.74146 569.051989 69.580106 569.890635 
C 70.418752 570.729281 71.556359 571.200493 72.742383 571.200493 
z
" clip-path="url(#p1883d4f084)" style="fill: #879dba; stroke: #879dba"/>
    <path d="M 102.086827 618.625983 
C 103.272851 618.625983 104.410458 618.154771 105.249104 617.316125 
C 106.08775 616.477479 106.558963 615.339871 106.558963 614.153847 
C 106.558963 612.967823 106.08775 611.830215 105.249104 610.991569 
C 104.410458 610.152924 103.272851 609.681711 102.086827 609.681711 
C 100.900802 609.681711 99.763195 610.152924 98.924549 610.991569 
C 98.085903 611.830215 97.614691 612.967823 97.614691 614.153847 
C 97.614691 615.339871 98.085903 616.477479 98.924549 617.316125 
C 99.763195 618.154771 100.900802 618.625983 102.086827 618.625983 
z
" clip-path="url(#p1883d4f084)" style="fill: #879dba; stroke: #879dba"/>
    <path d="M 139.659468 659.84674 
C 140.845493 659.84674 141.9831 659.375527 142.821746 658.536881 
C 143.660392 657.698235 144.131604 656.560628 144.131604 655.374604 
C 144.131604 654.188579 143.660392 653.050972 142.821746 652.212326 
C 141.9831 651.37368 140.845493 650.902468 139.659468 650.902468 
C 138.473444 650.902468 137.335837 651.37368 136.497191 652.212326 
C 135.658545 653.050972 135.187333 654.188579 135.187333 655.374604 
C 135.187333 656.560628 135.658545 657.698235 136.497191 658.536881 
C 137.335837 659.375527 138.473444 659.84674 139.659468 659.84674 
z
" clip-path="url(#p1883d4f084)" style="fill: #879dba; stroke: #879dba"/>
    <path d="M 184.15891 693.46061 
C 185.344935 693.46061 186.482542 692.989398 187.321188 692.150752 
C 188.159834 691.312106 188.631046 690.174499 188.631046 688.988474 
C 188.631046 687.80245 188.159834 686.664843 187.321188 685.826197 
C 186.482542 684.987551 185.344935 684.516339 184.15891 684.516339 
C 182.972886 684.516339 181.835278 684.987551 180.996633 685.826197 
C 180.157987 686.664843 179.686774 687.80245 179.686774 688.988474 
C 179.686774 690.174499 180.157987 691.312106 180.996633 692.150752 
C 181.835278 692.989398 182.972886 693.46061 184.15891 693.46061 
z
" clip-path="url(#p1883d4f084)" style="fill: #879dba; stroke: #879dba"/>
    <path d="M 234.115831 718.321525 
C 235.301855 718.321525 236.439463 717.850313 237.278108 717.011667 
C 238.116754 716.173021 238.587967 715.035413 238.587967 713.849389 
C 238.587967 712.663365 238.116754 711.525757 237.278108 710.687111 
C 236.439463 709.848466 235.301855 709.377253 234.115831 709.377253 
C 232.929806 709.377253 231.792199 709.848466 230.953553 710.687111 
C 230.114907 711.525757 229.643695 712.663365 229.643695 713.849389 
C 229.643695 715.035413 230.114907 716.173021 230.953553 717.011667 
C 231.792199 717.850313 232.929806 718.321525 234.115831 718.321525 
z
" clip-path="url(#p1883d4f084)" style="fill: #879dba; stroke: #879dba"/>
    <path d="M 287.767045 733.585673 
C 288.953069 733.585673 290.090676 733.114461 290.929322 732.275815 
C 291.767968 731.437169 292.239181 730.299561 292.239181 729.113537 
C 292.239181 727.927513 291.767968 726.789905 290.929322 725.95126 
C 290.090676 725.112614 288.953069 724.641401 287.767045 724.641401 
C 286.58102 724.641401 285.443413 725.112614 284.604767 725.95126 
C 283.766121 726.789905 283.294909 727.927513 283.294909 729.113537 
C 283.294909 730.299561 283.766121 731.437169 284.604767 732.275815 
C 285.443413 733.114461 286.58102 733.585673 287.767045 733.585673 
z
" clip-path="url(#p1883d4f084)" style="fill: #879dba; stroke: #879dba"/>
    <path d="M 343.307386 738.732495 
C 344.49341 738.732495 345.631017 738.261283 346.469663 737.422637 
C 347.308309 736.583991 347.779522 735.446384 347.779522 734.260359 
C 347.779522 733.074335 347.308309 731.936728 346.469663 731.098082 
C 345.631017 730.259436 344.49341 729.788223 343.307386 729.788223 
C 342.121361 729.788223 340.983754 730.259436 340.145108 731.098082 
C 339.306462 731.936728 338.83525 733.074335 338.83525 734.260359 
C 338.83525 735.446384 339.306462 736.583991 340.145108 737.422637 
C 340.983754 738.261283 342.121361 738.732495 343.307386 738.732495 
z
" clip-path="url(#p1883d4f084)" style="fill: #879dba; stroke: #879dba"/>
    <path d="M 398.847727 733.585673 
C 400.033751 733.585673 401.171359 733.114461 402.010004 732.275815 
C 402.84865 731.437169 403.319863 730.299561 403.319863 729.113537 
C 403.319863 727.927513 402.84865 726.789905 402.010004 725.95126 
C 401.171359 725.112614 400.033751 724.641401 398.847727 724.641401 
C 397.661702 724.641401 396.524095 725.112614 395.685449 725.95126 
C 394.846803 726.789905 394.375591 727.927513 394.375591 729.113537 
C 394.375591 730.299561 394.846803 731.437169 395.685449 732.275815 
C 396.524095 733.114461 397.661702 733.585673 398.847727 733.585673 
z
" clip-path="url(#p1883d4f084)" style="fill: #879dba; stroke: #879dba"/>
    <path d="M 452.49894 718.321525 
C 453.684965 718.321525 454.822572 717.850313 455.661218 717.011667 
C 456.499864 716.173021 456.971076 715.035413 456.971076 713.849389 
C 456.971076 712.663365 456.499864 711.525757 455.661218 710.687111 
C 454.822572 709.848466 453.684965 709.377253 452.49894 709.377253 
C 451.312916 709.377253 450.175309 709.848466 449.336663 710.687111 
C 448.498017 711.525757 448.026805 712.663365 448.026805 713.849389 
C 448.026805 715.035413 448.498017 716.173021 449.336663 717.011667 
C 450.175309 717.850313 451.312916 718.321525 452.49894 718.321525 
z
" clip-path="url(#p1883d4f084)" style="fill: #879dba; stroke: #879dba"/>
    <path d="M 502.41388 693.46061 
C 503.599905 693.46061 504.737512 692.989398 505.576158 692.150752 
C 506.414804 691.312106 506.886016 690.174499 506.886016 688.988474 
C 506.886016 687.80245 506.414804 686.664843 505.576158 685.826197 
C 504.737512 684.987551 503.599905 684.516339 502.41388 684.516339 
C 501.227856 684.516339 500.090249 684.987551 499.251603 685.826197 
C 498.412957 686.664843 497.941744 687.80245 497.941744 688.988474 
C 497.941744 690.174499 498.412957 691.312106 499.251603 692.150752 
C 500.090249 692.989398 501.227856 693.46061 502.41388 693.46061 
z
" clip-path="url(#p1883d4f084)" style="fill: #879dba; stroke: #879dba"/>
    <path d="M 546.913322 659.84674 
C 548.099347 659.84674 549.236954 659.375527 550.0756 658.536881 
C 550.914246 657.698235 551.385458 656.560628 551.385458 655.374604 
C 551.385458 654.188579 550.914246 653.050972 550.0756 652.212326 
C 549.236954 651.37368 548.099347 650.902468 546.913322 650.902468 
C 545.727298 650.902468 544.58969 651.37368 543.751045 652.212326 
C 542.912399 653.050972 542.441186 654.188579 542.441186 655.374604 
C 542.441186 656.560628 542.912399 657.698235 543.751045 658.536881 
C 544.58969 659.375527 545.727298 659.84674 546.913322 659.84674 
z
" clip-path="url(#p1883d4f084)" style="fill: #879dba; stroke: #879dba"/>
    <path d="M 584.485964 618.625983 
C 585.671988 618.625983 586.809596 618.154771 587.648242 617.316125 
C 588.486888 616.477479 588.9581 615.339871 588.9581 614.153847 
C 588.9581 612.967823 588.486888 611.830215 587.648242 610.991569 
C 586.809596 610.152924 585.671988 609.681711 584.485964 609.681711 
C 583.29994 609.681711 582.162332 610.152924 581.323686 610.991569 
C 580.485041 611.830215 580.013828 612.967823 580.013828 614.153847 
C 580.013828 615.339871 580.485041 616.477479 581.323686 617.316125 
C 582.162332 618.154771 583.29994 618.625983 584.485964 618.625983 
z
" clip-path="url(#p1883d4f084)" style="fill: #879dba; stroke: #879dba"/>
    <path d="M 613.872388 571.200493 
C 615.058412 571.200493 616.19602 570.729281 617.034666 569.890635 
C 617.873311 569.051989 618.344524 567.914381 618.344524 566.728357 
C 618.344524 565.542333 617.873311 564.404725 617.034666 563.566079 
C 616.19602 562.727434 615.058412 562.256221 613.872388 562.256221 
C 612.686364 562.256221 611.548756 562.727434 610.71011 563.566079 
C 609.871464 564.404725 609.400252 565.542333 609.400252 566.728357 
C 609.400252 567.914381 609.871464 569.051989 610.71011 569.890635 
C 611.548756 570.729281 612.686364 571.200493 613.872388 571.200493 
z
" clip-path="url(#p1883d4f084)" style="fill: #879dba; stroke: #879dba"/>
    <path d="M 634.023079 519.190721 
C 635.209103 519.190721 636.34671 518.719509 637.185356 517.880863 
C 638.024002 517.042217 638.495214 515.904609 638.495214 514.718585 
C 638.495214 513.532561 638.024002 512.394953 637.185356 511.556307 
C 636.34671 510.717662 635.209103 510.246449 634.023079 510.246449 
C 632.837054 510.246449 631.699447 510.717662 630.860801 511.556307 
C 630.022155 512.394953 629.550943 513.532561 629.550943 514.718585 
C 629.550943 515.904609 630.022155 517.042217 630.860801 517.880863 
C 631.699447 518.719509 632.837054 519.190721 634.023079 519.190721 
z
" clip-path="url(#p1883d4f084)" style="fill: #879dba; stroke: #879dba"/>
   </g>
   <g id="patch_3">
    <path d="M 10.8 764.486395 
L 10.8 99.513605 
" style="fill: none; stroke: #000000; stroke-width: 0.8; stroke-linejoin: miter; stroke-linecap: square"/>
   </g>
   <g id="patch_4">
    <path d="M 675.772791 764.486395 
L 675.772791 99.513605 
" style="fill: none; stroke: #000000; stroke-width: 0.8; stroke-linejoin: miter; stroke-linecap: square"/>
   </g>
   <g id="patch_5">
    <path d="M 10.8 764.486395 
L 675.772791 764.486395 
" style="fill: none; stroke: #000000; stroke-width: 0.8; stroke-linejoin: miter; stroke-linecap: square"/>
   </g>
   <g id="patch_6">
    <path d="M 10.8 99.513605 
L 675.772791 99.513605 
" style="fill: none; stroke: #000000; stroke-width: 0.8; stroke-linejoin: miter; stroke-linecap: square"/>
   </g>
   <g id="text_1">
    <!-- Year: 1752 -->
    <g transform="translate(17.449728 126.918828) scale(0.3 -0.3)">
     <defs>
      <path id="CMR17-59" d="M 3706 3766 
C 3955 4160 4301 4160 4416 4160 
L 4416 4332 
C 4269 4319 4102 4319 3942 4319 
C 3782 4319 3526 4319 3373 4332 
L 3373 4160 
C 3533 4160 3616 4077 3616 3957 
C 3616 3881 3584 3830 3533 3747 
L 2381 1912 
L 1120 3912 
C 1075 3988 1069 3994 1069 4039 
C 1069 4160 1293 4160 1382 4160 
L 1382 4319 
C 1178 4319 864 4319 653 4319 
C 486 4319 166 4319 13 4332 
L 13 4160 
C 378 4160 480 4141 595 3958 
L 2010 1728 
L 2010 445 
C 2010 160 1939 160 1498 160 
L 1498 0 
C 1683 0 2016 0 2214 0 
C 2413 0 2752 0 2938 0 
L 2938 160 
C 2477 160 2419 160 2419 471 
L 2419 1728 
L 3706 3766 
z
" transform="scale(0.015625)"/>
      <path id="CMR17-65" d="M 2438 1472 
C 2464 1498 2464 1511 2464 1576 
C 2464 2238 2118 2816 1389 2816 
C 710 2816 173 2169 173 1383 
C 173 551 781 -64 1459 -64 
C 2176 -64 2458 607 2458 740 
C 2458 784 2419 784 2406 784 
C 2362 784 2355 771 2330 696 
C 2189 265 1837 51 1504 51 
C 1229 51 954 203 781 480 
C 582 803 582 1176 582 1472 
L 2438 1472 
z
M 589 1568 
C 634 2505 1126 2714 1382 2714 
C 1818 2714 2112 2297 2118 1568 
L 589 1568 
z
" transform="scale(0.015625)"/>
      <path id="CMR17-61" d="M 2304 1653 
C 2304 2072 2304 2294 2035 2543 
C 1798 2752 1523 2816 1306 2816 
C 800 2816 435 2407 435 1971 
C 435 1728 627 1728 666 1728 
C 749 1728 896 1778 896 1954 
C 896 2112 774 2181 666 2181 
C 640 2181 608 2174 589 2168 
C 723 2592 1069 2714 1293 2714 
C 1613 2714 1965 2429 1965 1885 
L 1965 1600 
C 1587 1600 1133 1549 774 1357 
C 371 1133 256 813 256 570 
C 256 77 832 -64 1171 -64 
C 1523 -64 1850 139 1990 511 
C 2003 233 2182 -18 2464 -18 
C 2598 -18 2938 70 2938 567 
L 2938 920 
L 2822 920 
L 2822 562 
C 2822 178 2650 128 2566 128 
C 2304 128 2304 458 2304 738 
L 2304 1653 
z
M 1965 870 
C 1965 317 1568 38 1216 38 
C 896 38 646 275 646 570 
C 646 761 730 1100 1101 1305 
C 1408 1478 1760 1504 1965 1504 
L 1965 870 
z
" transform="scale(0.015625)"/>
      <path id="CMR17-72" d="M 960 1497 
C 960 2112 1222 2688 1702 2688 
C 1747 2688 1792 2682 1837 2662 
C 1837 2662 1696 2617 1696 2452 
C 1696 2298 1818 2234 1914 2234 
C 1990 2234 2131 2279 2131 2458 
C 2131 2663 1926 2790 1709 2790 
C 1222 2790 1011 2317 947 2093 
L 941 2093 
L 941 2790 
L 198 2720 
L 198 2554 
C 576 2554 634 2515 634 2208 
L 634 428 
C 634 184 608 153 198 153 
L 198 -13 
C 352 0 646 0 813 0 
C 998 0 1325 0 1498 -13 
L 1498 153 
C 1037 153 960 153 960 440 
L 960 1497 
z
" transform="scale(0.015625)"/>
      <path id="CMR17-3a" d="M 1062 2491 
C 1062 2650 934 2752 800 2752 
C 672 2752 538 2650 538 2491 
C 538 2332 666 2230 800 2230 
C 928 2230 1062 2332 1062 2491 
z
M 1062 261 
C 1062 420 934 522 800 522 
C 672 522 538 420 538 261 
C 538 102 666 0 800 0 
C 928 0 1062 102 1062 261 
z
" transform="scale(0.015625)"/>
      <path id="CMR17-31" d="M 1702 4058 
C 1702 4192 1696 4192 1606 4192 
C 1357 3916 979 3827 621 3827 
C 602 3827 570 3827 563 3808 
C 557 3795 557 3782 557 3648 
C 755 3648 1088 3686 1344 3839 
L 1344 461 
C 1344 236 1331 160 781 160 
L 589 160 
L 589 0 
C 896 0 1216 0 1523 0 
C 1830 0 2150 0 2458 0 
L 2458 160 
L 2266 160 
C 1715 160 1702 230 1702 458 
L 1702 4058 
z
" transform="scale(0.015625)"/>
      <path id="CMR17-37" d="M 2886 3941 
L 2886 4081 
L 1382 4081 
C 634 4081 621 4165 595 4288 
L 480 4288 
L 294 3094 
L 410 3094 
C 429 3215 474 3540 550 3661 
C 589 3712 1062 3712 1171 3712 
L 2579 3712 
L 1869 2661 
C 1395 1954 1069 999 1069 165 
C 1069 89 1069 -128 1299 -128 
C 1530 -128 1530 89 1530 171 
L 1530 465 
C 1530 1508 1709 2196 2003 2636 
L 2886 3941 
z
" transform="scale(0.015625)"/>
      <path id="CMR17-35" d="M 730 3692 
C 794 3666 1056 3584 1325 3584 
C 1920 3584 2246 3911 2432 4100 
C 2432 4157 2432 4192 2394 4192 
C 2387 4192 2374 4192 2323 4163 
C 2099 4058 1837 3973 1517 3973 
C 1325 3973 1037 3999 723 4139 
C 653 4171 640 4171 634 4171 
C 602 4171 595 4164 595 4037 
L 595 2203 
C 595 2089 595 2057 659 2057 
C 691 2057 704 2070 736 2114 
C 941 2401 1222 2522 1542 2522 
C 1766 2522 2246 2382 2246 1289 
C 2246 1085 2246 715 2054 421 
C 1894 159 1645 25 1370 25 
C 947 25 518 320 403 814 
C 429 807 480 795 506 795 
C 589 795 749 840 749 1038 
C 749 1210 627 1280 506 1280 
C 358 1280 262 1190 262 1011 
C 262 454 704 -128 1382 -128 
C 2042 -128 2669 440 2669 1264 
C 2669 2030 2170 2624 1549 2624 
C 1222 2624 947 2503 730 2274 
L 730 3692 
z
" transform="scale(0.015625)"/>
      <path id="CMR17-32" d="M 2669 989 
L 2554 989 
C 2490 536 2438 459 2413 420 
C 2381 369 1920 369 1830 369 
L 602 369 
C 832 619 1280 1072 1824 1597 
C 2214 1967 2669 2402 2669 3035 
C 2669 3790 2067 4224 1395 4224 
C 691 4224 262 3604 262 3030 
C 262 2780 448 2748 525 2748 
C 589 2748 781 2787 781 3010 
C 781 3207 614 3264 525 3264 
C 486 3264 448 3258 422 3245 
C 544 3790 915 4058 1306 4058 
C 1862 4058 2227 3617 2227 3035 
C 2227 2479 1901 2000 1536 1584 
L 262 146 
L 262 0 
L 2515 0 
L 2669 989 
z
" transform="scale(0.015625)"/>
     </defs>
     <use xlink:href="#CMR17-59" transform="scale(0.996264)"/>
     <use xlink:href="#CMR17-65" transform="translate(61.265174 0) scale(0.996264)"/>
     <use xlink:href="#CMR17-61" transform="translate(101.750835 0) scale(0.996264)"/>
     <use xlink:href="#CMR17-72" transform="translate(147.441312 0) scale(0.996264)"/>
     <use xlink:href="#CMR17-3a" transform="translate(182.72208 0) scale(0.996264)"/>
     <use xlink:href="#CMR17-31" transform="translate(248.078799 0) scale(0.996264)"/>
     <use xlink:href="#CMR17-37" transform="translate(293.769276 0) scale(0.996264)"/>
     <use xlink:href="#CMR17-35" transform="translate(339.459753 0) scale(0.996264)"/>
     <use xlink:href="#CMR17-32" transform="translate(385.15023 0) scale(0.996264)"/>
    </g>
   </g>
  </g>
  <g id="axes_2">
   <g id="patch_7">
    <path d="M 717.33359 853.2 
L 759.45359 853.2 
L 759.45359 10.8 
L 717.33359 10.8 
z
" style="fill: #ffffff"/>
   </g>
   <g id="QuadMesh_1">
    <path d="M 717.33359 853.2 
L 759.45359 853.2 
L 759.45359 747.9 
L 717.33359 747.9 
L 717.33359 853.2 
" clip-path="url(#p0fcff6eff4)" style="fill: #ad35ca"/>
    <path d="M 717.33359 747.9 
L 759.45359 747.9 
L 759.45359 642.6 
L 717.33359 642.6 
L 717.33359 747.9 
" clip-path="url(#p0fcff6eff4)" style="fill: #8f81b5"/>
    <path d="M 717.33359 642.6 
L 759.45359 642.6 
L 759.45359 537.3 
L 717.33359 537.3 
L 717.33359 642.6 
" clip-path="url(#p0fcff6eff4)" style="fill: #879dba"/>
    <path d="M 717.33359 537.3 
L 759.45359 537.3 
L 759.45359 432 
L 717.33359 432 
L 717.33359 537.3 
" clip-path="url(#p0fcff6eff4)" style="fill: #7bb4be"/>
    <path d="M 717.33359 432 
L 759.45359 432 
L 759.45359 326.7 
L 717.33359 326.7 
L 717.33359 432 
" clip-path="url(#p0fcff6eff4)" style="fill: #79c6b7"/>
    <path d="M 717.33359 326.7 
L 759.45359 326.7 
L 759.45359 221.4 
L 717.33359 221.4 
L 717.33359 326.7 
" clip-path="url(#p0fcff6eff4)" style="fill: #a1ccad"/>
    <path d="M 717.33359 221.4 
L 759.45359 221.4 
L 759.45359 116.1 
L 717.33359 116.1 
L 717.33359 221.4 
" clip-path="url(#p0fcff6eff4)" style="fill: #c1d59b"/>
    <path d="M 717.33359 116.1 
L 759.45359 116.1 
L 759.45359 10.8 
L 717.33359 10.8 
L 717.33359 116.1 
" clip-path="url(#p0fcff6eff4)" style="fill: #e4dc96"/>
   </g>
   <g id="matplotlib.axis_3"/>
   <g id="matplotlib.axis_4">
    <g id="ytick_9">
     <g id="line2d_1">
      <defs>
       <path id="mcb8f3c691c" d="M 0 0 
L 3.5 0 
" style="stroke: #000000; stroke-width: 0.8"/>
      </defs>
      <g>
       <use xlink:href="#mcb8f3c691c" x="759.45359" y="800.55" style="stroke: #000000; stroke-width: 0.8"/>
      </g>
     </g>
     <g id="text_2">
      <!-- 0 -->
      <g transform="translate(766.45359 811.619603) scale(0.32 -0.32)">
       <defs>
        <path id="CMR17-30" d="M 2688 2025 
C 2688 2416 2682 3080 2413 3591 
C 2176 4039 1798 4198 1466 4198 
C 1158 4198 768 4058 525 3597 
C 269 3118 243 2524 243 2025 
C 243 1661 250 1106 448 619 
C 723 -39 1216 -128 1466 -128 
C 1760 -128 2208 -7 2470 600 
C 2662 1042 2688 1559 2688 2025 
z
M 1466 -26 
C 1056 -26 813 325 723 812 
C 653 1188 653 1738 653 2096 
C 653 2588 653 2997 736 3387 
C 858 3929 1216 4096 1466 4096 
C 1728 4096 2067 3923 2189 3400 
C 2272 3036 2278 2607 2278 2096 
C 2278 1680 2278 1169 2202 792 
C 2067 95 1690 -26 1466 -26 
z
" transform="scale(0.015625)"/>
       </defs>
       <use xlink:href="#CMR17-30" transform="scale(0.996264)"/>
      </g>
     </g>
    </g>
    <g id="ytick_10">
     <g id="line2d_2">
      <g>
       <use xlink:href="#mcb8f3c691c" x="759.45359" y="695.25" style="stroke: #000000; stroke-width: 0.8"/>
      </g>
     </g>
     <g id="text_3">
      <!-- 1 -->
      <g transform="translate(766.45359 706.319603) scale(0.32 -0.32)">
       <use xlink:href="#CMR17-31" transform="scale(0.996264)"/>
      </g>
     </g>
    </g>
    <g id="ytick_11">
     <g id="line2d_3">
      <g>
       <use xlink:href="#mcb8f3c691c" x="759.45359" y="589.95" style="stroke: #000000; stroke-width: 0.8"/>
      </g>
     </g>
     <g id="text_4">
      <!-- 2 -->
      <g transform="translate(766.45359 601.019603) scale(0.32 -0.32)">
       <use xlink:href="#CMR17-32" transform="scale(0.996264)"/>
      </g>
     </g>
    </g>
    <g id="ytick_12">
     <g id="line2d_4">
      <g>
       <use xlink:href="#mcb8f3c691c" x="759.45359" y="484.65" style="stroke: #000000; stroke-width: 0.8"/>
      </g>
     </g>
     <g id="text_5">
      <!-- 3 -->
      <g transform="translate(766.45359 495.719603) scale(0.32 -0.32)">
       <defs>
        <path id="CMR17-33" d="M 1414 2157 
C 1984 2157 2234 1662 2234 1090 
C 2234 320 1824 25 1453 25 
C 1114 25 563 194 390 693 
C 422 680 454 680 486 680 
C 640 680 755 782 755 948 
C 755 1133 614 1216 486 1216 
C 378 1216 211 1165 211 926 
C 211 335 787 -128 1466 -128 
C 2176 -128 2720 430 2720 1085 
C 2720 1707 2208 2157 1600 2227 
C 2086 2328 2554 2756 2554 3329 
C 2554 3820 2048 4179 1472 4179 
C 890 4179 378 3829 378 3329 
C 378 3110 544 3072 627 3072 
C 762 3072 877 3155 877 3321 
C 877 3486 762 3569 627 3569 
C 602 3569 570 3569 544 3557 
C 730 3959 1235 4032 1459 4032 
C 1683 4032 2106 3925 2106 3320 
C 2106 3143 2080 2828 1862 2550 
C 1670 2304 1453 2304 1242 2284 
C 1210 2284 1062 2269 1037 2269 
C 992 2263 966 2257 966 2208 
C 966 2163 973 2157 1101 2157 
L 1414 2157 
z
" transform="scale(0.015625)"/>
       </defs>
       <use xlink:href="#CMR17-33" transform="scale(0.996264)"/>
      </g>
     </g>
    </g>
    <g id="ytick_13">
     <g id="line2d_5">
      <g>
       <use xlink:href="#mcb8f3c691c" x="759.45359" y="379.35" style="stroke: #000000; stroke-width: 0.8"/>
      </g>
     </g>
     <g id="text_6">
      <!-- 4 -->
      <g transform="translate(766.45359 390.419603) scale(0.32 -0.32)">
       <defs>
        <path id="CMR17-34" d="M 2150 4122 
C 2150 4256 2144 4256 2029 4256 
L 128 1254 
L 128 1088 
L 1779 1088 
L 1779 457 
C 1779 224 1766 160 1318 160 
L 1197 160 
L 1197 0 
C 1402 0 1747 0 1965 0 
C 2182 0 2528 0 2733 0 
L 2733 160 
L 2611 160 
C 2163 160 2150 224 2150 457 
L 2150 1088 
L 2803 1088 
L 2803 1254 
L 2150 1254 
L 2150 4122 
z
M 1798 3703 
L 1798 1254 
L 256 1254 
L 1798 3703 
z
" transform="scale(0.015625)"/>
       </defs>
       <use xlink:href="#CMR17-34" transform="scale(0.996264)"/>
      </g>
     </g>
    </g>
    <g id="ytick_14">
     <g id="line2d_6">
      <g>
       <use xlink:href="#mcb8f3c691c" x="759.45359" y="274.05" style="stroke: #000000; stroke-width: 0.8"/>
      </g>
     </g>
     <g id="text_7">
      <!-- 5 -->
      <g transform="translate(766.45359 285.119603) scale(0.32 -0.32)">
       <use xlink:href="#CMR17-35" transform="scale(0.996264)"/>
      </g>
     </g>
    </g>
    <g id="ytick_15">
     <g id="line2d_7">
      <g>
       <use xlink:href="#mcb8f3c691c" x="759.45359" y="168.75" style="stroke: #000000; stroke-width: 0.8"/>
      </g>
     </g>
     <g id="text_8">
      <!-- 6 -->
      <g transform="translate(766.45359 179.819603) scale(0.32 -0.32)">
       <defs>
        <path id="CMR17-36" d="M 678 2176 
C 678 3690 1395 4032 1811 4032 
C 1946 4032 2272 4009 2400 3776 
C 2298 3776 2106 3776 2106 3553 
C 2106 3381 2246 3323 2336 3323 
C 2394 3323 2566 3348 2566 3560 
C 2566 3954 2246 4179 1805 4179 
C 1043 4179 243 3390 243 1984 
C 243 253 966 -128 1478 -128 
C 2099 -128 2688 427 2688 1283 
C 2688 2081 2170 2662 1517 2662 
C 1126 2662 838 2407 678 1960 
L 678 2176 
z
M 1478 25 
C 691 25 691 1200 691 1436 
C 691 1896 909 2560 1504 2560 
C 1613 2560 1926 2560 2138 2120 
C 2253 1870 2253 1609 2253 1289 
C 2253 944 2253 690 2118 434 
C 1978 171 1773 25 1478 25 
z
" transform="scale(0.015625)"/>
       </defs>
       <use xlink:href="#CMR17-36" transform="scale(0.996264)"/>
      </g>
     </g>
    </g>
    <g id="ytick_16">
     <g id="line2d_8">
      <g>
       <use xlink:href="#mcb8f3c691c" x="759.45359" y="63.45" style="stroke: #000000; stroke-width: 0.8"/>
      </g>
     </g>
     <g id="text_9">
      <!-- 7 -->
      <g transform="translate(766.45359 74.519603) scale(0.32 -0.32)">
       <use xlink:href="#CMR17-37" transform="scale(0.996264)"/>
      </g>
     </g>
    </g>
    <g id="ytick_17">
     <g id="line2d_9">
      <defs>
       <path id="m5057764eff" d="M 0 0 
L 2 0 
" style="stroke: #000000; stroke-width: 0.6"/>
      </defs>
      <g>
       <use xlink:href="#m5057764eff" x="759.45359" y="853.2" style="stroke: #000000; stroke-width: 0.6"/>
      </g>
     </g>
    </g>
    <g id="ytick_18">
     <g id="line2d_10">
      <g>
       <use xlink:href="#m5057764eff" x="759.45359" y="747.9" style="stroke: #000000; stroke-width: 0.6"/>
      </g>
     </g>
    </g>
    <g id="ytick_19">
     <g id="line2d_11">
      <g>
       <use xlink:href="#m5057764eff" x="759.45359" y="642.6" style="stroke: #000000; stroke-width: 0.6"/>
      </g>
     </g>
    </g>
    <g id="ytick_20">
     <g id="line2d_12">
      <g>
       <use xlink:href="#m5057764eff" x="759.45359" y="537.3" style="stroke: #000000; stroke-width: 0.6"/>
      </g>
     </g>
    </g>
    <g id="ytick_21">
     <g id="line2d_13">
      <g>
       <use xlink:href="#m5057764eff" x="759.45359" y="432" style="stroke: #000000; stroke-width: 0.6"/>
      </g>
     </g>
    </g>
    <g id="ytick_22">
     <g id="line2d_14">
      <g>
       <use xlink:href="#m5057764eff" x="759.45359" y="326.7" style="stroke: #000000; stroke-width: 0.6"/>
      </g>
     </g>
    </g>
    <g id="ytick_23">
     <g id="line2d_15">
      <g>
       <use xlink:href="#m5057764eff" x="759.45359" y="221.4" style="stroke: #000000; stroke-width: 0.6"/>
      </g>
     </g>
    </g>
    <g id="ytick_24">
     <g id="line2d_16">
      <g>
       <use xlink:href="#m5057764eff" x="759.45359" y="116.1" style="stroke: #000000; stroke-width: 0.6"/>
      </g>
     </g>
    </g>
    <g id="ytick_25">
     <g id="line2d_17">
      <g>
       <use xlink:href="#m5057764eff" x="759.45359" y="10.8" style="stroke: #000000; stroke-width: 0.6"/>
      </g>
     </g>
    </g>
    <g id="text_10">
     <!-- Node Depth -->
     <g transform="translate(828.899641 543.95779) rotate(-90) scale(0.46 -0.46)">
      <defs>
       <path id="CMR17-4e" d="M 1312 4250 
C 1267 4320 1261 4320 1139 4320 
L 326 4320 
L 326 4160 
L 448 4160 
C 704 4160 819 4129 838 4122 
L 838 610 
C 838 451 838 153 326 153 
L 326 -13 
C 474 0 742 0 902 0 
C 1062 0 1331 0 1478 -13 
L 1478 153 
C 966 153 966 451 966 610 
L 966 4033 
C 1011 3995 1011 3982 1056 3919 
L 3430 76 
C 3475 0 3494 0 3526 0 
C 3590 0 3590 19 3590 139 
L 3590 3705 
C 3590 3863 3590 4160 4102 4160 
L 4102 4326 
C 3955 4320 3686 4320 3526 4320 
C 3366 4320 3098 4320 2950 4326 
L 2950 4160 
C 3462 4160 3462 3862 3462 3703 
L 3462 763 
L 1312 4250 
z
" transform="scale(0.015625)"/>
       <path id="CMR17-6f" d="M 2758 1356 
C 2758 2176 2163 2816 1466 2816 
C 768 2816 173 2176 173 1356 
C 173 551 768 -64 1466 -64 
C 2163 -64 2758 551 2758 1356 
z
M 1466 51 
C 1165 51 909 230 762 480 
C 602 767 582 1126 582 1408 
C 582 1677 595 2010 762 2298 
C 890 2509 1139 2714 1466 2714 
C 1754 2714 1997 2554 2150 2330 
C 2349 2029 2349 1607 2349 1408 
C 2349 1158 2336 775 2163 467 
C 1984 173 1709 51 1466 51 
z
" transform="scale(0.015625)"/>
       <path id="CMR17-64" d="M 1869 4326 
L 1869 4160 
C 2246 4160 2304 4122 2304 3820 
L 2304 2345 
C 2278 2377 2016 2790 1498 2790 
C 845 2790 211 2208 211 1364 
C 211 525 806 -64 1434 -64 
C 1978 -64 2259 337 2291 380 
L 2291 -63 
L 3066 -63 
L 3066 128 
C 2688 128 2630 166 2630 473 
L 2630 4396 
L 1869 4326 
z
M 2291 755 
C 2291 563 2176 390 2029 262 
C 1811 70 1594 38 1472 38 
C 1286 38 621 134 621 1356 
C 621 2612 1363 2688 1530 2688 
C 1824 2688 2061 2522 2208 2291 
C 2291 2157 2291 2138 2291 2023 
L 2291 755 
z
" transform="scale(0.015625)"/>
       <path id="CMR17-44" d="M 333 4352 
L 333 4186 
C 774 4186 845 4186 845 3900 
L 845 452 
C 845 166 774 166 333 166 
L 333 0 
L 2368 0 
C 3398 0 4224 943 4224 2141 
C 4224 3346 3411 4352 2368 4352 
L 333 4352 
z
M 1523 166 
C 1267 166 1254 197 1254 414 
L 1254 3938 
C 1254 4155 1267 4186 1523 4186 
L 2240 4186 
C 2771 4186 3750 3874 3750 2141 
C 3750 1242 3488 879 3366 707 
C 3213 510 2848 166 2240 166 
L 1523 166 
z
" transform="scale(0.015625)"/>
       <path id="CMR17-70" d="M 1408 -1063 
C 998 -1063 973 -1037 973 -789 
L 973 402 
C 1158 134 1427 -38 1766 -38 
C 2406 -38 3053 523 3053 1388 
C 3053 2191 2496 2802 1837 2802 
C 1453 2802 1139 2592 960 2338 
L 960 2802 
L 198 2732 
L 198 2567 
C 576 2567 634 2528 634 2223 
L 634 -789 
C 634 -1031 608 -1063 198 -1063 
L 198 -1228 
C 352 -1216 634 -1216 800 -1216 
C 966 -1216 1254 -1216 1408 -1228 
L 1408 -1063 
z
M 973 2012 
C 973 2102 973 2235 1222 2471 
C 1254 2497 1472 2688 1792 2688 
C 2259 2688 2643 2108 2643 1382 
C 2643 656 2234 64 1728 64 
C 1498 64 1248 172 1056 472 
C 973 612 973 650 973 752 
L 973 2012 
z
" transform="scale(0.015625)"/>
       <path id="CMR17-74" d="M 966 2560 
L 1862 2560 
L 1862 2725 
L 966 2725 
L 966 3904 
L 851 3904 
C 838 3245 614 2668 70 2668 
L 70 2560 
L 627 2560 
L 627 771 
C 627 650 627 -64 1370 -64 
C 1747 -64 1965 306 1965 777 
L 1965 1140 
L 1850 1140 
L 1850 783 
C 1850 344 1677 51 1408 51 
C 1222 51 966 178 966 758 
L 966 2560 
z
" transform="scale(0.015625)"/>
       <path id="CMR17-68" d="M 2656 1933 
C 2656 2259 2592 2790 1837 2790 
C 1312 2790 1056 2368 979 2157 
L 973 2157 
L 973 4396 
L 211 4326 
L 211 4160 
C 589 4160 646 4122 646 3817 
L 646 426 
C 646 184 621 153 211 153 
L 211 -13 
C 365 0 646 0 813 0 
C 979 0 1267 0 1421 -13 
L 1421 153 
C 1011 153 986 178 986 428 
L 986 1658 
C 986 2247 1344 2688 1792 2688 
C 2266 2688 2317 2266 2317 1958 
L 2317 428 
C 2317 184 2291 153 1882 153 
L 1882 -13 
C 2035 0 2317 0 2483 0 
C 2650 0 2938 0 3091 -13 
L 3091 153 
C 2682 153 2656 178 2656 428 
L 2656 1933 
z
" transform="scale(0.015625)"/>
      </defs>
      <use xlink:href="#CMR17-4e" transform="scale(0.996264)"/>
      <use xlink:href="#CMR17-6f" transform="translate(69.07243 0) scale(0.996264)"/>
      <use xlink:href="#CMR17-64" transform="translate(117.365346 0) scale(0.996264)"/>
      <use xlink:href="#CMR17-65" transform="translate(168.260715 0) scale(0.996264)"/>
      <use xlink:href="#CMR17-44" transform="translate(238.822342 0) scale(0.996264)"/>
      <use xlink:href="#CMR17-65" transform="translate(309.215898 0) scale(0.996264)"/>
      <use xlink:href="#CMR17-70" transform="translate(349.701559 0) scale(0.996264)"/>
      <use xlink:href="#CMR17-74" transform="translate(400.596928 0) scale(0.996264)"/>
      <use xlink:href="#CMR17-68" transform="translate(435.877696 0) scale(0.996264)"/>
     </g>
    </g>
   </g>
   <g id="LineCollection_2"/>
   <g id="patch_8">
    <path d="M 717.33359 853.2 
L 738.39359 853.2 
L 759.45359 853.2 
L 759.45359 10.8 
L 738.39359 10.8 
L 717.33359 10.8 
L 717.33359 853.2 
z
" style="fill: none; stroke: #000000; stroke-width: 0.8; stroke-linejoin: miter; stroke-linecap: square"/>
   </g>
  </g>
 </g>
 <defs>
  <clipPath id="p1883d4f084">
   <rect x="10.8" y="99.513605" width="664.972791" height="664.972791"/>
  </clipPath>
  <clipPath id="p0fcff6eff4">
   <rect x="717.33359" y="10.8" width="42.12" height="842.4"/>
  </clipPath>
 </defs>
</svg>
