<?xml version="1.0" encoding="utf-8" standalone="no"?>
<!DOCTYPE svg PUBLIC "-//W3C//DTD SVG 1.1//EN"
  "http://www.w3.org/Graphics/SVG/1.1/DTD/svg11.dtd">
<svg xmlns:xlink="http://www.w3.org/1999/xlink" width="864pt" height="864pt" viewBox="0 0 864 864" xmlns="http://www.w3.org/2000/svg" version="1.1">
 <metadata>
  <rdf:RDF xmlns:dc="http://purl.org/dc/elements/1.1/" xmlns:cc="http://creativecommons.org/ns#" xmlns:rdf="http://www.w3.org/1999/02/22-rdf-syntax-ns#">
   <cc:Work>
    <dc:type rdf:resource="http://purl.org/dc/dcmitype/StillImage"/>
    <dc:date>2026-06-09T22:33:56.095229</dc:date>
    <dc:format>image/svg+xml</dc:format>
    <dc:creator>
     <cc:Agent>
      <dc:title>Matplotlib v3.9.2, https://matplotlib.org/</dc:title>
     </cc:Agent>
    </dc:creator>
   </cc:Work>
  </rdf:RDF>
 </metadata>
 <defs>
  <style type="text/css">*{stroke-linejoin: round; stroke-linecap: butt}</style>
 </defs>
 <g id="figure_1">
  <g id="patch_1">
   <path d="M 0 864 
L 864 864 
L 864 0 
L 0 0 
z
" style="fill: #ffffff"/>
  </g>
  <g id="axes_1">
   <g id="patch_2">
    <path d="M 10.8 764.486395 
L 675.772791 764.486395 
L 675.772791 99.513605 
L 10.8 99.513605 
z
" style="fill: #ffffff"/>
   </g>
   <g id="LineCollection_1">
    <path d="M 645.231594 459.133257 
L 343.895707 432.008404 
" clip-path="url(#p33d97cc4dc)" style="fill: none; stroke: #808080; stroke-opacity: 0.3"/>
    <path d="M 343.895707 432.008404 
L 645.231594 404.887754 
" clip-path="url(#p33d97cc4dc)" style="fill: none; stroke: #808080; stroke-opacity: 0.3"/>
    <path d="M 343.895707 432.008404 
L 635.566658 351.528905 
" clip-path="url(#p33d97cc4dc)" style="fill: none; stroke: #808080; stroke-opacity: 0.3"/>
    <path d="M 343.895707 432.008404 
L 616.488915 300.72496 
" clip-path="url(#p33d97cc4dc)" style="fill: none; stroke: #808080; stroke-opacity: 0.3"/>
    <path d="M 343.895707 432.008404 
L 588.670709 254.165183 
" clip-path="url(#p33d97cc4dc)" style="fill: none; stroke: #808080; stroke-opacity: 0.3"/>
    <path d="M 343.895707 432.008404 
L 552.99449 213.320324 
" clip-path="url(#p33d97cc4dc)" style="fill: none; stroke: #808080; stroke-opacity: 0.3"/>
    <path d="M 343.895707 432.008404 
L 510.594837 179.493049 
" clip-path="url(#p33d97cc4dc)" style="fill: none; stroke: #808080; stroke-opacity: 0.3"/>
    <path d="M 343.895707 432.008404 
L 462.816437 153.817937 
" clip-path="url(#p33d97cc4dc)" style="fill: none; stroke: #808080; stroke-opacity: 0.3"/>
    <path d="M 343.895707 432.008404 
L 411.256106 137.051375 
" clip-path="url(#p33d97cc4dc)" style="fill: none; stroke: #808080; stroke-opacity: 0.3"/>
    <path d="M 343.895707 432.008404 
L 357.468638 129.739641 
" clip-path="url(#p33d97cc4dc)" style="fill: none; stroke: #808080; stroke-opacity: 0.3"/>
    <path d="M 343.895707 432.008404 
L 303.302976 132.176885 
" clip-path="url(#p33d97cc4dc)" style="fill: none; stroke: #808080; stroke-opacity: 0.3"/>
    <path d="M 343.895707 432.008404 
L 250.43998 144.279066 
" clip-path="url(#p33d97cc4dc)" style="fill: none; stroke: #808080; stroke-opacity: 0.3"/>
    <path d="M 343.895707 432.008404 
L 200.560508 165.583946 
" clip-path="url(#p33d97cc4dc)" style="fill: none; stroke: #808080; stroke-opacity: 0.3"/>
    <path d="M 343.895707 432.008404 
L 155.261374 195.461204 
" clip-path="url(#p33d97cc4dc)" style="fill: none; stroke: #808080; stroke-opacity: 0.3"/>
    <path d="M 343.895707 432.008404 
L 116.055352 232.944346 
" clip-path="url(#p33d97cc4dc)" style="fill: none; stroke: #808080; stroke-opacity: 0.3"/>
    <path d="M 343.895707 432.008404 
L 84.203086 276.814749 
" clip-path="url(#p33d97cc4dc)" style="fill: none; stroke: #808080; stroke-opacity: 0.3"/>
    <path d="M 343.895707 432.008404 
L 60.671068 325.685707 
" clip-path="url(#p33d97cc4dc)" style="fill: none; stroke: #808080; stroke-opacity: 0.3"/>
    <path d="M 343.895707 432.008404 
L 46.215686 378.002424 
" clip-path="url(#p33d97cc4dc)" style="fill: none; stroke: #808080; stroke-opacity: 0.3"/>
    <path d="M 343.895707 432.008404 
L 41.341197 432.008404 
" clip-path="url(#p33d97cc4dc)" style="fill: none; stroke: #808080; stroke-opacity: 0.3"/>
    <path d="M 343.895707 432.008404 
L 46.215686 486.035395 
" clip-path="url(#p33d97cc4dc)" style="fill: none; stroke: #808080; stroke-opacity: 0.3"/>
    <path d="M 343.895707 432.008404 
L 60.671068 538.318495 
" clip-path="url(#p33d97cc4dc)" style="fill: none; stroke: #808080; stroke-opacity: 0.3"/>
    <path d="M 343.895707 432.008404 
L 84.203086 587.189453 
" clip-path="url(#p33d97cc4dc)" style="fill: none; stroke: #808080; stroke-opacity: 0.3"/>
    <path d="M 343.895707 432.008404 
L 116.055352 631.072463 
" clip-path="url(#p33d97cc4dc)" style="fill: none; stroke: #808080; stroke-opacity: 0.3"/>
    <path d="M 343.895707 432.008404 
L 155.261374 668.555605 
" clip-path="url(#p33d97cc4dc)" style="fill: none; stroke: #808080; stroke-opacity: 0.3"/>
    <path d="M 343.895707 432.008404 
L 200.560508 698.437065 
" clip-path="url(#p33d97cc4dc)" style="fill: none; stroke: #808080; stroke-opacity: 0.3"/>
    <path d="M 343.895707 432.008404 
L 250.43998 719.758754 
" clip-path="url(#p33d97cc4dc)" style="fill: none; stroke: #808080; stroke-opacity: 0.3"/>
    <path d="M 343.895707 432.008404 
L 303.302976 731.827317 
" clip-path="url(#p33d97cc4dc)" style="fill: none; stroke: #808080; stroke-opacity: 0.3"/>
    <path d="M 343.895707 432.008404 
L 357.468638 734.260359 
" clip-path="url(#p33d97cc4dc)" style="fill: none; stroke: #808080; stroke-opacity: 0.3"/>
    <path d="M 343.895707 432.008404 
L 411.256106 726.97804 
" clip-path="url(#p33d97cc4dc)" style="fill: none; stroke: #808080; stroke-opacity: 0.3"/>
    <path d="M 343.895707 432.008404 
L 462.816437 710.21568 
" clip-path="url(#p33d97cc4dc)" style="fill: none; stroke: #808080; stroke-opacity: 0.3"/>
    <path d="M 343.895707 432.008404 
L 510.594837 684.515355 
" clip-path="url(#p33d97cc4dc)" style="fill: none; stroke: #808080; stroke-opacity: 0.3"/>
    <path d="M 343.895707 432.008404 
L 552.99449 650.696485 
" clip-path="url(#p33d97cc4dc)" style="fill: none; stroke: #808080; stroke-opacity: 0.3"/>
    <path d="M 343.895707 432.008404 
L 588.670709 609.847424 
" clip-path="url(#p33d97cc4dc)" style="fill: none; stroke: #808080; stroke-opacity: 0.3"/>
    <path d="M 343.895707 432.008404 
L 616.488915 563.283444 
" clip-path="url(#p33d97cc4dc)" style="fill: none; stroke: #808080; stroke-opacity: 0.3"/>
    <path d="M 343.895707 432.008404 
L 635.566658 512.50051 
" clip-path="url(#p33d97cc4dc)" style="fill: none; stroke: #808080; stroke-opacity: 0.3"/>
   </g>
   <g id="matplotlib.axis_1">
    <g id="xtick_1"/>
    <g id="xtick_2"/>
    <g id="xtick_3"/>
    <g id="xtick_4"/>
    <g id="xtick_5"/>
    <g id="xtick_6"/>
    <g id="xtick_7"/>
   </g>
   <g id="matplotlib.axis_2">
    <g id="ytick_1"/>
    <g id="ytick_2"/>
    <g id="ytick_3"/>
    <g id="ytick_4"/>
    <g id="ytick_5"/>
    <g id="ytick_6"/>
    <g id="ytick_7"/>
    <g id="ytick_8"/>
   </g>
   <g id="PathCollection_1">
    <path d="M 645.231594 470.313596 
C 648.196655 470.313596 651.040673 469.135565 653.137288 467.038951 
C 655.233903 464.942336 656.411934 462.098317 656.411934 459.133257 
C 656.411934 456.168196 655.233903 453.324177 653.137288 451.227562 
C 651.040673 449.130948 648.196655 447.952917 645.231594 447.952917 
C 642.266533 447.952917 639.422514 449.130948 637.3259 451.227562 
C 635.229285 453.324177 634.051254 456.168196 634.051254 459.133257 
C 634.051254 462.098317 635.229285 464.942336 637.3259 467.038951 
C 639.422514 469.135565 642.266533 470.313596 645.231594 470.313596 
z
" clip-path="url(#p33d97cc4dc)" style="fill: #ad35ca; stroke: #ad35ca"/>
    <path d="M 343.895707 439.079472 
C 345.770976 439.079472 347.569691 438.33442 348.895707 437.008404 
C 350.221722 435.682389 350.966774 433.883673 350.966774 432.008404 
C 350.966774 430.133135 350.221722 428.33442 348.895707 427.008404 
C 347.569691 425.682389 345.770976 424.937336 343.895707 424.937336 
C 342.020437 424.937336 340.221722 425.682389 338.895707 427.008404 
C 337.569691 428.33442 336.824639 430.133135 336.824639 432.008404 
C 336.824639 433.883673 337.569691 435.682389 338.895707 437.008404 
C 340.221722 438.33442 342.020437 439.079472 343.895707 439.079472 
z
" clip-path="url(#p33d97cc4dc)" style="fill: #8f81b5; stroke: #8f81b5"/>
    <path d="M 645.231594 409.35989 
C 646.417618 409.35989 647.555226 408.888678 648.393871 408.050032 
C 649.232517 407.211386 649.70373 406.073779 649.70373 404.887754 
C 649.70373 403.70173 649.232517 402.564122 648.393871 401.725477 
C 647.555226 400.886831 646.417618 400.415618 645.231594 400.415618 
C 644.045569 400.415618 642.907962 400.886831 642.069316 401.725477 
C 641.23067 402.564122 640.759458 403.70173 640.759458 404.887754 
C 640.759458 406.073779 641.23067 407.211386 642.069316 408.050032 
C 642.907962 408.888678 644.045569 409.35989 645.231594 409.35989 
z
" clip-path="url(#p33d97cc4dc)" style="fill: #879dba; stroke: #879dba"/>
    <path d="M 635.566658 356.001041 
C 636.752682 356.001041 637.89029 355.529828 638.728936 354.691182 
C 639.567582 353.852537 640.038794 352.714929 640.038794 351.528905 
C 640.038794 350.34288 639.567582 349.205273 638.728936 348.366627 
C 637.89029 347.527981 636.752682 347.056769 635.566658 347.056769 
C 634.380634 347.056769 633.243026 347.527981 632.40438 348.366627 
C 631.565735 349.205273 631.094522 350.34288 631.094522 351.528905 
C 631.094522 352.714929 631.565735 353.852537 632.40438 354.691182 
C 633.243026 355.529828 634.380634 356.001041 635.566658 356.001041 
z
" clip-path="url(#p33d97cc4dc)" style="fill: #879dba; stroke: #879dba"/>
    <path d="M 616.488915 305.197096 
C 617.67494 305.197096 618.812547 304.725883 619.651193 303.887238 
C 620.489839 303.048592 620.961051 301.910984 620.961051 300.72496 
C 620.961051 299.538936 620.489839 298.401328 619.651193 297.562682 
C 618.812547 296.724036 617.67494 296.252824 616.488915 296.252824 
C 615.302891 296.252824 614.165284 296.724036 613.326638 297.562682 
C 612.487992 298.401328 612.016779 299.538936 612.016779 300.72496 
C 612.016779 301.910984 612.487992 303.048592 613.326638 303.887238 
C 614.165284 304.725883 615.302891 305.197096 616.488915 305.197096 
z
" clip-path="url(#p33d97cc4dc)" style="fill: #879dba; stroke: #879dba"/>
    <path d="M 588.670709 258.637319 
C 589.856733 258.637319 590.994341 258.166106 591.832987 257.32746 
C 592.671633 256.488815 593.142845 255.351207 593.142845 254.165183 
C 593.142845 252.979158 592.671633 251.841551 591.832987 251.002905 
C 590.994341 250.164259 589.856733 249.693047 588.670709 249.693047 
C 587.484685 249.693047 586.347077 250.164259 585.508431 251.002905 
C 584.669786 251.841551 584.198573 252.979158 584.198573 254.165183 
C 584.198573 255.351207 584.669786 256.488815 585.508431 257.32746 
C 586.347077 258.166106 587.484685 258.637319 588.670709 258.637319 
z
" clip-path="url(#p33d97cc4dc)" style="fill: #879dba; stroke: #879dba"/>
    <path d="M 552.99449 217.79246 
C 554.180514 217.79246 555.318122 217.321247 556.156767 216.482602 
C 556.995413 215.643956 557.466626 214.506348 557.466626 213.320324 
C 557.466626 212.1343 556.995413 210.996692 556.156767 210.158046 
C 555.318122 209.3194 554.180514 208.848188 552.99449 208.848188 
C 551.808465 208.848188 550.670858 209.3194 549.832212 210.158046 
C 548.993566 210.996692 548.522354 212.1343 548.522354 213.320324 
C 548.522354 214.506348 548.993566 215.643956 549.832212 216.482602 
C 550.670858 217.321247 551.808465 217.79246 552.99449 217.79246 
z
" clip-path="url(#p33d97cc4dc)" style="fill: #879dba; stroke: #879dba"/>
    <path d="M 510.594837 183.965185 
C 511.780861 183.965185 512.918469 183.493972 513.757115 182.655327 
C 514.595761 181.816681 515.066973 180.679073 515.066973 179.493049 
C 515.066973 178.307025 514.595761 177.169417 513.757115 176.330771 
C 512.918469 175.492125 511.780861 175.020913 510.594837 175.020913 
C 509.408813 175.020913 508.271205 175.492125 507.432559 176.330771 
C 506.593914 177.169417 506.122701 178.307025 506.122701 179.493049 
C 506.122701 180.679073 506.593914 181.816681 507.432559 182.655327 
C 508.271205 183.493972 509.408813 183.965185 510.594837 183.965185 
z
" clip-path="url(#p33d97cc4dc)" style="fill: #879dba; stroke: #879dba"/>
    <path d="M 462.816437 158.290073 
C 464.002462 158.290073 465.140069 157.81886 465.978715 156.980215 
C 466.817361 156.141569 467.288573 155.003961 467.288573 153.817937 
C 467.288573 152.631913 466.817361 151.494305 465.978715 150.655659 
C 465.140069 149.817013 464.002462 149.345801 462.816437 149.345801 
C 461.630413 149.345801 460.492806 149.817013 459.65416 150.655659 
C 458.815514 151.494305 458.344301 152.631913 458.344301 153.817937 
C 458.344301 155.003961 458.815514 156.141569 459.65416 156.980215 
C 460.492806 157.81886 461.630413 158.290073 462.816437 158.290073 
z
" clip-path="url(#p33d97cc4dc)" style="fill: #879dba; stroke: #879dba"/>
    <path d="M 411.256106 141.523511 
C 412.442131 141.523511 413.579738 141.052298 414.418384 140.213652 
C 415.25703 139.375006 415.728242 138.237399 415.728242 137.051375 
C 415.728242 135.86535 415.25703 134.727743 414.418384 133.889097 
C 413.579738 133.050451 412.442131 132.579239 411.256106 132.579239 
C 410.070082 132.579239 408.932475 133.050451 408.093829 133.889097 
C 407.255183 134.727743 406.78397 135.86535 406.78397 137.051375 
C 406.78397 138.237399 407.255183 139.375006 408.093829 140.213652 
C 408.932475 141.052298 410.070082 141.523511 411.256106 141.523511 
z
" clip-path="url(#p33d97cc4dc)" style="fill: #879dba; stroke: #879dba"/>
    <path d="M 357.468638 134.211777 
C 358.654662 134.211777 359.79227 133.740564 360.630916 132.901918 
C 361.469561 132.063272 361.940774 130.925665 361.940774 129.739641 
C 361.940774 128.553616 361.469561 127.416009 360.630916 126.577363 
C 359.79227 125.738717 358.654662 125.267505 357.468638 125.267505 
C 356.282614 125.267505 355.145006 125.738717 354.30636 126.577363 
C 353.467714 127.416009 352.996502 128.553616 352.996502 129.739641 
C 352.996502 130.925665 353.467714 132.063272 354.30636 132.901918 
C 355.145006 133.740564 356.282614 134.211777 357.468638 134.211777 
z
" clip-path="url(#p33d97cc4dc)" style="fill: #879dba; stroke: #879dba"/>
    <path d="M 303.302976 136.649021 
C 304.489001 136.649021 305.626608 136.177809 306.465254 135.339163 
C 307.3039 134.500517 307.775112 133.36291 307.775112 132.176885 
C 307.775112 130.990861 307.3039 129.853253 306.465254 129.014608 
C 305.626608 128.175962 304.489001 127.704749 303.302976 127.704749 
C 302.116952 127.704749 300.979345 128.175962 300.140699 129.014608 
C 299.302053 129.853253 298.830841 130.990861 298.830841 132.176885 
C 298.830841 133.36291 299.302053 134.500517 300.140699 135.339163 
C 300.979345 136.177809 302.116952 136.649021 303.302976 136.649021 
z
" clip-path="url(#p33d97cc4dc)" style="fill: #879dba; stroke: #879dba"/>
    <path d="M 250.43998 148.751202 
C 251.626005 148.751202 252.763612 148.279989 253.602258 147.441343 
C 254.440904 146.602697 254.912116 145.46509 254.912116 144.279066 
C 254.912116 143.093041 254.440904 141.955434 253.602258 141.116788 
C 252.763612 140.278142 251.626005 139.80693 250.43998 139.80693 
C 249.253956 139.80693 248.116348 140.278142 247.277703 141.116788 
C 246.439057 141.955434 245.967844 143.093041 245.967844 144.279066 
C 245.967844 145.46509 246.439057 146.602697 247.277703 147.441343 
C 248.116348 148.279989 249.253956 148.751202 250.43998 148.751202 
z
" clip-path="url(#p33d97cc4dc)" style="fill: #879dba; stroke: #879dba"/>
    <path d="M 200.560508 170.056082 
C 201.746532 170.056082 202.884139 169.584869 203.722785 168.746223 
C 204.561431 167.907578 205.032644 166.76997 205.032644 165.583946 
C 205.032644 164.397921 204.561431 163.260314 203.722785 162.421668 
C 202.884139 161.583022 201.746532 161.11181 200.560508 161.11181 
C 199.374483 161.11181 198.236876 161.583022 197.39823 162.421668 
C 196.559584 163.260314 196.088372 164.397921 196.088372 165.583946 
C 196.088372 166.76997 196.559584 167.907578 197.39823 168.746223 
C 198.236876 169.584869 199.374483 170.056082 200.560508 170.056082 
z
" clip-path="url(#p33d97cc4dc)" style="fill: #879dba; stroke: #879dba"/>
    <path d="M 155.261374 199.933339 
C 156.447398 199.933339 157.585006 199.462127 158.423652 198.623481 
C 159.262298 197.784835 159.73351 196.647228 159.73351 195.461204 
C 159.73351 194.275179 159.262298 193.137572 158.423652 192.298926 
C 157.585006 191.46028 156.447398 190.989068 155.261374 190.989068 
C 154.07535 190.989068 152.937742 191.46028 152.099096 192.298926 
C 151.260451 193.137572 150.789238 194.275179 150.789238 195.461204 
C 150.789238 196.647228 151.260451 197.784835 152.099096 198.623481 
C 152.937742 199.462127 154.07535 199.933339 155.261374 199.933339 
z
" clip-path="url(#p33d97cc4dc)" style="fill: #879dba; stroke: #879dba"/>
    <path d="M 116.055352 237.416482 
C 117.241376 237.416482 118.378984 236.945269 119.21763 236.106623 
C 120.056276 235.267977 120.527488 234.13037 120.527488 232.944346 
C 120.527488 231.758321 120.056276 230.620714 119.21763 229.782068 
C 118.378984 228.943422 117.241376 228.47221 116.055352 228.47221 
C 114.869328 228.47221 113.73172 228.943422 112.893075 229.782068 
C 112.054429 230.620714 111.583216 231.758321 111.583216 232.944346 
C 111.583216 234.13037 112.054429 235.267977 112.893075 236.106623 
C 113.73172 236.945269 114.869328 237.416482 116.055352 237.416482 
z
" clip-path="url(#p33d97cc4dc)" style="fill: #879dba; stroke: #879dba"/>
    <path d="M 84.203086 281.286885 
C 85.38911 281.286885 86.526718 280.815673 87.365363 279.977027 
C 88.204009 279.138381 88.675222 278.000774 88.675222 276.814749 
C 88.675222 275.628725 88.204009 274.491118 87.365363 273.652472 
C 86.526718 272.813826 85.38911 272.342613 84.203086 272.342613 
C 83.017061 272.342613 81.879454 272.813826 81.040808 273.652472 
C 80.202162 274.491118 79.73095 275.628725 79.73095 276.814749 
C 79.73095 278.000774 80.202162 279.138381 81.040808 279.977027 
C 81.879454 280.815673 83.017061 281.286885 84.203086 281.286885 
z
" clip-path="url(#p33d97cc4dc)" style="fill: #879dba; stroke: #879dba"/>
    <path d="M 60.671068 330.157843 
C 61.857093 330.157843 62.9947 329.686631 63.833346 328.847985 
C 64.671992 328.009339 65.143204 326.871731 65.143204 325.685707 
C 65.143204 324.499683 64.671992 323.362075 63.833346 322.523429 
C 62.9947 321.684784 61.857093 321.213571 60.671068 321.213571 
C 59.485044 321.213571 58.347437 321.684784 57.508791 322.523429 
C 56.670145 323.362075 56.198932 324.499683 56.198932 325.685707 
C 56.198932 326.871731 56.670145 328.009339 57.508791 328.847985 
C 58.347437 329.686631 59.485044 330.157843 60.671068 330.157843 
z
" clip-path="url(#p33d97cc4dc)" style="fill: #879dba; stroke: #879dba"/>
    <path d="M 46.215686 382.47456 
C 47.401711 382.47456 48.539318 382.003348 49.377964 381.164702 
C 50.21661 380.326056 50.687822 379.188449 50.687822 378.002424 
C 50.687822 376.8164 50.21661 375.678793 49.377964 374.840147 
C 48.539318 374.001501 47.401711 373.530288 46.215686 373.530288 
C 45.029662 373.530288 43.892054 374.001501 43.053409 374.840147 
C 42.214763 375.678793 41.74355 376.8164 41.74355 378.002424 
C 41.74355 379.188449 42.214763 380.326056 43.053409 381.164702 
C 43.892054 382.003348 45.029662 382.47456 46.215686 382.47456 
z
" clip-path="url(#p33d97cc4dc)" style="fill: #879dba; stroke: #879dba"/>
    <path d="M 41.341197 436.48054 
C 42.527221 436.48054 43.664829 436.009328 44.503475 435.170682 
C 45.34212 434.332036 45.813333 433.194429 45.813333 432.008404 
C 45.813333 430.82238 45.34212 429.684772 44.503475 428.846127 
C 43.664829 428.007481 42.527221 427.536268 41.341197 427.536268 
C 40.155173 427.536268 39.017565 428.007481 38.178919 428.846127 
C 37.340273 429.684772 36.869061 430.82238 36.869061 432.008404 
C 36.869061 433.194429 37.340273 434.332036 38.178919 435.170682 
C 39.017565 436.009328 40.155173 436.48054 41.341197 436.48054 
z
" clip-path="url(#p33d97cc4dc)" style="fill: #879dba; stroke: #879dba"/>
    <path d="M 46.215686 490.507531 
C 47.401711 490.507531 48.539318 490.036318 49.377964 489.197673 
C 50.21661 488.359027 50.687822 487.221419 50.687822 486.035395 
C 50.687822 484.849371 50.21661 483.711763 49.377964 482.873117 
C 48.539318 482.034471 47.401711 481.563259 46.215686 481.563259 
C 45.029662 481.563259 43.892054 482.034471 43.053409 482.873117 
C 42.214763 483.711763 41.74355 484.849371 41.74355 486.035395 
C 41.74355 487.221419 42.214763 488.359027 43.053409 489.197673 
C 43.892054 490.036318 45.029662 490.507531 46.215686 490.507531 
z
" clip-path="url(#p33d97cc4dc)" style="fill: #879dba; stroke: #879dba"/>
    <path d="M 60.671068 542.790631 
C 61.857093 542.790631 62.9947 542.319419 63.833346 541.480773 
C 64.671992 540.642127 65.143204 539.504519 65.143204 538.318495 
C 65.143204 537.132471 64.671992 535.994863 63.833346 535.156217 
C 62.9947 534.317572 61.857093 533.846359 60.671068 533.846359 
C 59.485044 533.846359 58.347437 534.317572 57.508791 535.156217 
C 56.670145 535.994863 56.198932 537.132471 56.198932 538.318495 
C 56.198932 539.504519 56.670145 540.642127 57.508791 541.480773 
C 58.347437 542.319419 59.485044 542.790631 60.671068 542.790631 
z
" clip-path="url(#p33d97cc4dc)" style="fill: #879dba; stroke: #879dba"/>
    <path d="M 84.203086 591.661589 
C 85.38911 591.661589 86.526718 591.190376 87.365363 590.35173 
C 88.204009 589.513085 88.675222 588.375477 88.675222 587.189453 
C 88.675222 586.003428 88.204009 584.865821 87.365363 584.027175 
C 86.526718 583.188529 85.38911 582.717317 84.203086 582.717317 
C 83.017061 582.717317 81.879454 583.188529 81.040808 584.027175 
C 80.202162 584.865821 79.73095 586.003428 79.73095 587.189453 
C 79.73095 588.375477 80.202162 589.513085 81.040808 590.35173 
C 81.879454 591.190376 83.017061 591.661589 84.203086 591.661589 
z
" clip-path="url(#p33d97cc4dc)" style="fill: #879dba; stroke: #879dba"/>
    <path d="M 116.055352 635.544599 
C 117.241376 635.544599 118.378984 635.073387 119.21763 634.234741 
C 120.056276 633.396095 120.527488 632.258487 120.527488 631.072463 
C 120.527488 629.886439 120.056276 628.748831 119.21763 627.910185 
C 118.378984 627.07154 117.241376 626.600327 116.055352 626.600327 
C 114.869328 626.600327 113.73172 627.07154 112.893075 627.910185 
C 112.054429 628.748831 111.583216 629.886439 111.583216 631.072463 
C 111.583216 632.258487 112.054429 633.396095 112.893075 634.234741 
C 113.73172 635.073387 114.869328 635.544599 116.055352 635.544599 
z
" clip-path="url(#p33d97cc4dc)" style="fill: #879dba; stroke: #879dba"/>
    <path d="M 155.261374 673.027741 
C 156.447398 673.027741 157.585006 672.556529 158.423652 671.717883 
C 159.262298 670.879237 159.73351 669.741629 159.73351 668.555605 
C 159.73351 667.369581 159.262298 666.231973 158.423652 665.393327 
C 157.585006 664.554682 156.447398 664.083469 155.261374 664.083469 
C 154.07535 664.083469 152.937742 664.554682 152.099096 665.393327 
C 151.260451 666.231973 150.789238 667.369581 150.789238 668.555605 
C 150.789238 669.741629 151.260451 670.879237 152.099096 671.717883 
C 152.937742 672.556529 154.07535 673.027741 155.261374 673.027741 
z
" clip-path="url(#p33d97cc4dc)" style="fill: #879dba; stroke: #879dba"/>
    <path d="M 200.560508 702.909201 
C 201.746532 702.909201 202.884139 702.437989 203.722785 701.599343 
C 204.561431 700.760697 205.032644 699.623089 205.032644 698.437065 
C 205.032644 697.251041 204.561431 696.113433 203.722785 695.274787 
C 202.884139 694.436142 201.746532 693.964929 200.560508 693.964929 
C 199.374483 693.964929 198.236876 694.436142 197.39823 695.274787 
C 196.559584 696.113433 196.088372 697.251041 196.088372 698.437065 
C 196.088372 699.623089 196.559584 700.760697 197.39823 701.599343 
C 198.236876 702.437989 199.374483 702.909201 200.560508 702.909201 
z
" clip-path="url(#p33d97cc4dc)" style="fill: #879dba; stroke: #879dba"/>
    <path d="M 250.43998 724.23089 
C 251.626005 724.23089 252.763612 723.759677 253.602258 722.921031 
C 254.440904 722.082385 254.912116 720.944778 254.912116 719.758754 
C 254.912116 718.572729 254.440904 717.435122 253.602258 716.596476 
C 252.763612 715.75783 251.626005 715.286618 250.43998 715.286618 
C 249.253956 715.286618 248.116348 715.75783 247.277703 716.596476 
C 246.439057 717.435122 245.967844 718.572729 245.967844 719.758754 
C 245.967844 720.944778 246.439057 722.082385 247.277703 722.921031 
C 248.116348 723.759677 249.253956 724.23089 250.43998 724.23089 
z
" clip-path="url(#p33d97cc4dc)" style="fill: #879dba; stroke: #879dba"/>
    <path d="M 303.302976 736.299453 
C 304.489001 736.299453 305.626608 735.82824 306.465254 734.989595 
C 307.3039 734.150949 307.775112 733.013341 307.775112 731.827317 
C 307.775112 730.641293 307.3039 729.503685 306.465254 728.665039 
C 305.626608 727.826393 304.489001 727.355181 303.302976 727.355181 
C 302.116952 727.355181 300.979345 727.826393 300.140699 728.665039 
C 299.302053 729.503685 298.830841 730.641293 298.830841 731.827317 
C 298.830841 733.013341 299.302053 734.150949 300.140699 734.989595 
C 300.979345 735.82824 302.116952 736.299453 303.302976 736.299453 
z
" clip-path="url(#p33d97cc4dc)" style="fill: #879dba; stroke: #879dba"/>
    <path d="M 357.468638 738.732495 
C 358.654662 738.732495 359.79227 738.261283 360.630916 737.422637 
C 361.469561 736.583991 361.940774 735.446384 361.940774 734.260359 
C 361.940774 733.074335 361.469561 731.936728 360.630916 731.098082 
C 359.79227 730.259436 358.654662 729.788223 357.468638 729.788223 
C 356.282614 729.788223 355.145006 730.259436 354.30636 731.098082 
C 353.467714 731.936728 352.996502 733.074335 352.996502 734.260359 
C 352.996502 735.446384 353.467714 736.583991 354.30636 737.422637 
C 355.145006 738.261283 356.282614 738.732495 357.468638 738.732495 
z
" clip-path="url(#p33d97cc4dc)" style="fill: #879dba; stroke: #879dba"/>
    <path d="M 411.256106 731.450176 
C 412.442131 731.450176 413.579738 730.978964 414.418384 730.140318 
C 415.25703 729.301672 415.728242 728.164065 415.728242 726.97804 
C 415.728242 725.792016 415.25703 724.654409 414.418384 723.815763 
C 413.579738 722.977117 412.442131 722.505904 411.256106 722.505904 
C 410.070082 722.505904 408.932475 722.977117 408.093829 723.815763 
C 407.255183 724.654409 406.78397 725.792016 406.78397 726.97804 
C 406.78397 728.164065 407.255183 729.301672 408.093829 730.140318 
C 408.932475 730.978964 410.070082 731.450176 411.256106 731.450176 
z
" clip-path="url(#p33d97cc4dc)" style="fill: #879dba; stroke: #879dba"/>
    <path d="M 462.816437 714.687816 
C 464.002462 714.687816 465.140069 714.216604 465.978715 713.377958 
C 466.817361 712.539312 467.288573 711.401704 467.288573 710.21568 
C 467.288573 709.029656 466.817361 707.892048 465.978715 707.053403 
C 465.140069 706.214757 464.002462 705.743544 462.816437 705.743544 
C 461.630413 705.743544 460.492806 706.214757 459.65416 707.053403 
C 458.815514 707.892048 458.344301 709.029656 458.344301 710.21568 
C 458.344301 711.401704 458.815514 712.539312 459.65416 713.377958 
C 460.492806 714.216604 461.630413 714.687816 462.816437 714.687816 
z
" clip-path="url(#p33d97cc4dc)" style="fill: #879dba; stroke: #879dba"/>
    <path d="M 510.594837 688.987491 
C 511.780861 688.987491 512.918469 688.516279 513.757115 687.677633 
C 514.595761 686.838987 515.066973 685.70138 515.066973 684.515355 
C 515.066973 683.329331 514.595761 682.191724 513.757115 681.353078 
C 512.918469 680.514432 511.780861 680.043219 510.594837 680.043219 
C 509.408813 680.043219 508.271205 680.514432 507.432559 681.353078 
C 506.593914 682.191724 506.122701 683.329331 506.122701 684.515355 
C 506.122701 685.70138 506.593914 686.838987 507.432559 687.677633 
C 508.271205 688.516279 509.408813 688.987491 510.594837 688.987491 
z
" clip-path="url(#p33d97cc4dc)" style="fill: #879dba; stroke: #879dba"/>
    <path d="M 552.99449 655.168621 
C 554.180514 655.168621 555.318122 654.697408 556.156767 653.858762 
C 556.995413 653.020117 557.466626 651.882509 557.466626 650.696485 
C 557.466626 649.51046 556.995413 648.372853 556.156767 647.534207 
C 555.318122 646.695561 554.180514 646.224349 552.99449 646.224349 
C 551.808465 646.224349 550.670858 646.695561 549.832212 647.534207 
C 548.993566 648.372853 548.522354 649.51046 548.522354 650.696485 
C 548.522354 651.882509 548.993566 653.020117 549.832212 653.858762 
C 550.670858 654.697408 551.808465 655.168621 552.99449 655.168621 
z
" clip-path="url(#p33d97cc4dc)" style="fill: #879dba; stroke: #879dba"/>
    <path d="M 588.670709 614.31956 
C 589.856733 614.31956 590.994341 613.848347 591.832987 613.009701 
C 592.671633 612.171056 593.142845 611.033448 593.142845 609.847424 
C 593.142845 608.661399 592.671633 607.523792 591.832987 606.685146 
C 590.994341 605.8465 589.856733 605.375288 588.670709 605.375288 
C 587.484685 605.375288 586.347077 605.8465 585.508431 606.685146 
C 584.669786 607.523792 584.198573 608.661399 584.198573 609.847424 
C 584.198573 611.033448 584.669786 612.171056 585.508431 613.009701 
C 586.347077 613.848347 587.484685 614.31956 588.670709 614.31956 
z
" clip-path="url(#p33d97cc4dc)" style="fill: #879dba; stroke: #879dba"/>
    <path d="M 616.488915 567.75558 
C 617.67494 567.75558 618.812547 567.284368 619.651193 566.445722 
C 620.489839 565.607076 620.961051 564.469469 620.961051 563.283444 
C 620.961051 562.09742 620.489839 560.959812 619.651193 560.121167 
C 618.812547 559.282521 617.67494 558.811308 616.488915 558.811308 
C 615.302891 558.811308 614.165284 559.282521 613.326638 560.121167 
C 612.487992 560.959812 612.016779 562.09742 612.016779 563.283444 
C 612.016779 564.469469 612.487992 565.607076 613.326638 566.445722 
C 614.165284 567.284368 615.302891 567.75558 616.488915 567.75558 
z
" clip-path="url(#p33d97cc4dc)" style="fill: #879dba; stroke: #879dba"/>
    <path d="M 635.566658 516.972646 
C 636.752682 516.972646 637.89029 516.501434 638.728936 515.662788 
C 639.567582 514.824142 640.038794 513.686535 640.038794 512.50051 
C 640.038794 511.314486 639.567582 510.176878 638.728936 509.338233 
C 637.89029 508.499587 636.752682 508.028374 635.566658 508.028374 
C 634.380634 508.028374 633.243026 508.499587 632.40438 509.338233 
C 631.565735 510.176878 631.094522 511.314486 631.094522 512.50051 
C 631.094522 513.686535 631.565735 514.824142 632.40438 515.662788 
C 633.243026 516.501434 634.380634 516.972646 635.566658 516.972646 
z
" clip-path="url(#p33d97cc4dc)" style="fill: #879dba; stroke: #879dba"/>
   </g>
   <g id="patch_3">
    <path d="M 10.8 764.486395 
L 10.8 99.513605 
" style="fill: none; stroke: #000000; stroke-width: 0.8; stroke-linejoin: miter; stroke-linecap: square"/>
   </g>
   <g id="patch_4">
    <path d="M 675.772791 764.486395 
L 675.772791 99.513605 
" style="fill: none; stroke: #000000; stroke-width: 0.8; stroke-linejoin: miter; stroke-linecap: square"/>
   </g>
   <g id="patch_5">
    <path d="M 10.8 764.486395 
L 675.772791 764.486395 
" style="fill: none; stroke: #000000; stroke-width: 0.8; stroke-linejoin: miter; stroke-linecap: square"/>
   </g>
   <g id="patch_6">
    <path d="M 10.8 99.513605 
L 675.772791 99.513605 
" style="fill: none; stroke: #000000; stroke-width: 0.8; stroke-linejoin: miter; stroke-linecap: square"/>
   </g>
   <g id="text_1">
    <!-- Year: 1786 -->
    <g transform="translate(17.449728 126.918828) scale(0.3 -0.3)">
     <defs>
      <path id="CMR17-59" d="M 3706 3766 
C 3955 4160 4301 4160 4416 4160 
L 4416 4332 
C 4269 4319 4102 4319 3942 4319 
C 3782 4319 3526 4319 3373 4332 
L 3373 4160 
C 3533 4160 3616 4077 3616 3957 
C 3616 3881 3584 3830 3533 3747 
L 2381 1912 
L 1120 3912 
C 1075 3988 1069 3994 1069 4039 
C 1069 4160 1293 4160 1382 4160 
L 1382 4319 
C 1178 4319 864 4319 653 4319 
C 486 4319 166 4319 13 4332 
L 13 4160 
C 378 4160 480 4141 595 3958 
L 2010 1728 
L 2010 445 
C 2010 160 1939 160 1498 160 
L 1498 0 
C 1683 0 2016 0 2214 0 
C 2413 0 2752 0 2938 0 
L 2938 160 
C 2477 160 2419 160 2419 471 
L 2419 1728 
L 3706 3766 
z
" transform="scale(0.015625)"/>
      <path id="CMR17-65" d="M 2438 1472 
C 2464 1498 2464 1511 2464 1576 
C 2464 2238 2118 2816 1389 2816 
C 710 2816 173 2169 173 1383 
C 173 551 781 -64 1459 -64 
C 2176 -64 2458 607 2458 740 
C 2458 784 2419 784 2406 784 
C 2362 784 2355 771 2330 696 
C 2189 265 1837 51 1504 51 
C 1229 51 954 203 781 480 
C 582 803 582 1176 582 1472 
L 2438 1472 
z
M 589 1568 
C 634 2505 1126 2714 1382 2714 
C 1818 2714 2112 2297 2118 1568 
L 589 1568 
z
" transform="scale(0.015625)"/>
      <path id="CMR17-61" d="M 2304 1653 
C 2304 2072 2304 2294 2035 2543 
C 1798 2752 1523 2816 1306 2816 
C 800 2816 435 2407 435 1971 
C 435 1728 627 1728 666 1728 
C 749 1728 896 1778 896 1954 
C 896 2112 774 2181 666 2181 
C 640 2181 608 2174 589 2168 
C 723 2592 1069 2714 1293 2714 
C 1613 2714 1965 2429 1965 1885 
L 1965 1600 
C 1587 1600 1133 1549 774 1357 
C 371 1133 256 813 256 570 
C 256 77 832 -64 1171 -64 
C 1523 -64 1850 139 1990 511 
C 2003 233 2182 -18 2464 -18 
C 2598 -18 2938 70 2938 567 
L 2938 920 
L 2822 920 
L 2822 562 
C 2822 178 2650 128 2566 128 
C 2304 128 2304 458 2304 738 
L 2304 1653 
z
M 1965 870 
C 1965 317 1568 38 1216 38 
C 896 38 646 275 646 570 
C 646 761 730 1100 1101 1305 
C 1408 1478 1760 1504 1965 1504 
L 1965 870 
z
" transform="scale(0.015625)"/>
      <path id="CMR17-72" d="M 960 1497 
C 960 2112 1222 2688 1702 2688 
C 1747 2688 1792 2682 1837 2662 
C 1837 2662 1696 2617 1696 2452 
C 1696 2298 1818 2234 1914 2234 
C 1990 2234 2131 2279 2131 2458 
C 2131 2663 1926 2790 1709 2790 
C 1222 2790 1011 2317 947 2093 
L 941 2093 
L 941 2790 
L 198 2720 
L 198 2554 
C 576 2554 634 2515 634 2208 
L 634 428 
C 634 184 608 153 198 153 
L 198 -13 
C 352 0 646 0 813 0 
C 998 0 1325 0 1498 -13 
L 1498 153 
C 1037 153 960 153 960 440 
L 960 1497 
z
" transform="scale(0.015625)"/>
      <path id="CMR17-3a" d="M 1062 2491 
C 1062 2650 934 2752 800 2752 
C 672 2752 538 2650 538 2491 
C 538 2332 666 2230 800 2230 
C 928 2230 1062 2332 1062 2491 
z
M 1062 261 
C 1062 420 934 522 800 522 
C 672 522 538 420 538 261 
C 538 102 666 0 800 0 
C 928 0 1062 102 1062 261 
z
" transform="scale(0.015625)"/>
      <path id="CMR17-31" d="M 1702 4058 
C 1702 4192 1696 4192 1606 4192 
C 1357 3916 979 3827 621 3827 
C 602 3827 570 3827 563 3808 
C 557 3795 557 3782 557 3648 
C 755 3648 1088 3686 1344 3839 
L 1344 461 
C 1344 236 1331 160 781 160 
L 589 160 
L 589 0 
C 896 0 1216 0 1523 0 
C 1830 0 2150 0 2458 0 
L 2458 160 
L 2266 160 
C 1715 160 1702 230 1702 458 
L 1702 4058 
z
" transform="scale(0.015625)"/>
      <path id="CMR17-37" d="M 2886 3941 
L 2886 4081 
L 1382 4081 
C 634 4081 621 4165 595 4288 
L 480 4288 
L 294 3094 
L 410 3094 
C 429 3215 474 3540 550 3661 
C 589 3712 1062 3712 1171 3712 
L 2579 3712 
L 1869 2661 
C 1395 1954 1069 999 1069 165 
C 1069 89 1069 -128 1299 -128 
C 1530 -128 1530 89 1530 171 
L 1530 465 
C 1530 1508 1709 2196 2003 2636 
L 2886 3941 
z
" transform="scale(0.015625)"/>
      <path id="CMR17-38" d="M 1741 2264 
C 2144 2467 2554 2773 2554 3263 
C 2554 3841 1990 4179 1472 4179 
C 890 4179 378 3759 378 3180 
C 378 3021 416 2747 666 2505 
C 730 2442 998 2251 1171 2130 
C 883 1983 211 1634 211 934 
C 211 279 838 -128 1459 -128 
C 2144 -128 2720 362 2720 1010 
C 2720 1590 2330 1857 2074 2029 
L 1741 2264 
z
M 902 2822 
C 851 2854 595 3051 595 3351 
C 595 3739 998 4032 1459 4032 
C 1965 4032 2336 3676 2336 3262 
C 2336 2669 1670 2331 1638 2331 
C 1632 2331 1626 2331 1574 2370 
L 902 2822 
z
M 2080 1519 
C 2176 1449 2483 1240 2483 851 
C 2483 381 2010 25 1472 25 
C 890 25 448 438 448 940 
C 448 1443 838 1862 1280 2060 
L 2080 1519 
z
" transform="scale(0.015625)"/>
      <path id="CMR17-36" d="M 678 2176 
C 678 3690 1395 4032 1811 4032 
C 1946 4032 2272 4009 2400 3776 
C 2298 3776 2106 3776 2106 3553 
C 2106 3381 2246 3323 2336 3323 
C 2394 3323 2566 3348 2566 3560 
C 2566 3954 2246 4179 1805 4179 
C 1043 4179 243 3390 243 1984 
C 243 253 966 -128 1478 -128 
C 2099 -128 2688 427 2688 1283 
C 2688 2081 2170 2662 1517 2662 
C 1126 2662 838 2407 678 1960 
L 678 2176 
z
M 1478 25 
C 691 25 691 1200 691 1436 
C 691 1896 909 2560 1504 2560 
C 1613 2560 1926 2560 2138 2120 
C 2253 1870 2253 1609 2253 1289 
C 2253 944 2253 690 2118 434 
C 1978 171 1773 25 1478 25 
z
" transform="scale(0.015625)"/>
     </defs>
     <use xlink:href="#CMR17-59" transform="scale(0.996264)"/>
     <use xlink:href="#CMR17-65" transform="translate(61.265174 0) scale(0.996264)"/>
     <use xlink:href="#CMR17-61" transform="translate(101.750835 0) scale(0.996264)"/>
     <use xlink:href="#CMR17-72" transform="translate(147.441312 0) scale(0.996264)"/>
     <use xlink:href="#CMR17-3a" transform="translate(182.72208 0) scale(0.996264)"/>
     <use xlink:href="#CMR17-31" transform="translate(248.078799 0) scale(0.996264)"/>
     <use xlink:href="#CMR17-37" transform="translate(293.769276 0) scale(0.996264)"/>
     <use xlink:href="#CMR17-38" transform="translate(339.459753 0) scale(0.996264)"/>
     <use xlink:href="#CMR17-36" transform="translate(385.15023 0) scale(0.996264)"/>
    </g>
   </g>
  </g>
  <g id="axes_2">
   <g id="patch_7">
    <path d="M 717.33359 853.2 
L 759.45359 853.2 
L 759.45359 10.8 
L 717.33359 10.8 
z
" style="fill: #ffffff"/>
   </g>
   <g id="QuadMesh_1">
    <path d="M 717.33359 853.2 
L 759.45359 853.2 
L 759.45359 747.9 
L 717.33359 747.9 
L 717.33359 853.2 
" clip-path="url(#p2c9d60c2e2)" style="fill: #ad35ca"/>
    <path d="M 717.33359 747.9 
L 759.45359 747.9 
L 759.45359 642.6 
L 717.33359 642.6 
L 717.33359 747.9 
" clip-path="url(#p2c9d60c2e2)" style="fill: #8f81b5"/>
    <path d="M 717.33359 642.6 
L 759.45359 642.6 
L 759.45359 537.3 
L 717.33359 537.3 
L 717.33359 642.6 
" clip-path="url(#p2c9d60c2e2)" style="fill: #879dba"/>
    <path d="M 717.33359 537.3 
L 759.45359 537.3 
L 759.45359 432 
L 717.33359 432 
L 717.33359 537.3 
" clip-path="url(#p2c9d60c2e2)" style="fill: #7bb4be"/>
    <path d="M 717.33359 432 
L 759.45359 432 
L 759.45359 326.7 
L 717.33359 326.7 
L 717.33359 432 
" clip-path="url(#p2c9d60c2e2)" style="fill: #79c6b7"/>
    <path d="M 717.33359 326.7 
L 759.45359 326.7 
L 759.45359 221.4 
L 717.33359 221.4 
L 717.33359 326.7 
" clip-path="url(#p2c9d60c2e2)" style="fill: #a1ccad"/>
    <path d="M 717.33359 221.4 
L 759.45359 221.4 
L 759.45359 116.1 
L 717.33359 116.1 
L 717.33359 221.4 
" clip-path="url(#p2c9d60c2e2)" style="fill: #c1d59b"/>
    <path d="M 717.33359 116.1 
L 759.45359 116.1 
L 759.45359 10.8 
L 717.33359 10.8 
L 717.33359 116.1 
" clip-path="url(#p2c9d60c2e2)" style="fill: #e4dc96"/>
   </g>
   <g id="matplotlib.axis_3"/>
   <g id="matplotlib.axis_4">
    <g id="ytick_9">
     <g id="line2d_1">
      <defs>
       <path id="mfec7352640" d="M 0 0 
L 3.5 0 
" style="stroke: #000000; stroke-width: 0.8"/>
      </defs>
      <g>
       <use xlink:href="#mfec7352640" x="759.45359" y="800.55" style="stroke: #000000; stroke-width: 0.8"/>
      </g>
     </g>
     <g id="text_2">
      <!-- 0 -->
      <g transform="translate(766.45359 811.619603) scale(0.32 -0.32)">
       <defs>
        <path id="CMR17-30" d="M 2688 2025 
C 2688 2416 2682 3080 2413 3591 
C 2176 4039 1798 4198 1466 4198 
C 1158 4198 768 4058 525 3597 
C 269 3118 243 2524 243 2025 
C 243 1661 250 1106 448 619 
C 723 -39 1216 -128 1466 -128 
C 1760 -128 2208 -7 2470 600 
C 2662 1042 2688 1559 2688 2025 
z
M 1466 -26 
C 1056 -26 813 325 723 812 
C 653 1188 653 1738 653 2096 
C 653 2588 653 2997 736 3387 
C 858 3929 1216 4096 1466 4096 
C 1728 4096 2067 3923 2189 3400 
C 2272 3036 2278 2607 2278 2096 
C 2278 1680 2278 1169 2202 792 
C 2067 95 1690 -26 1466 -26 
z
" transform="scale(0.015625)"/>
       </defs>
       <use xlink:href="#CMR17-30" transform="scale(0.996264)"/>
      </g>
     </g>
    </g>
    <g id="ytick_10">
     <g id="line2d_2">
      <g>
       <use xlink:href="#mfec7352640" x="759.45359" y="695.25" style="stroke: #000000; stroke-width: 0.8"/>
      </g>
     </g>
     <g id="text_3">
      <!-- 1 -->
      <g transform="translate(766.45359 706.319603) scale(0.32 -0.32)">
       <use xlink:href="#CMR17-31" transform="scale(0.996264)"/>
      </g>
     </g>
    </g>
    <g id="ytick_11">
     <g id="line2d_3">
      <g>
       <use xlink:href="#mfec7352640" x="759.45359" y="589.95" style="stroke: #000000; stroke-width: 0.8"/>
      </g>
     </g>
     <g id="text_4">
      <!-- 2 -->
      <g transform="translate(766.45359 601.019603) scale(0.32 -0.32)">
       <defs>
        <path id="CMR17-32" d="M 2669 989 
L 2554 989 
C 2490 536 2438 459 2413 420 
C 2381 369 1920 369 1830 369 
L 602 369 
C 832 619 1280 1072 1824 1597 
C 2214 1967 2669 2402 2669 3035 
C 2669 3790 2067 4224 1395 4224 
C 691 4224 262 3604 262 3030 
C 262 2780 448 2748 525 2748 
C 589 2748 781 2787 781 3010 
C 781 3207 614 3264 525 3264 
C 486 3264 448 3258 422 3245 
C 544 3790 915 4058 1306 4058 
C 1862 4058 2227 3617 2227 3035 
C 2227 2479 1901 2000 1536 1584 
L 262 146 
L 262 0 
L 2515 0 
L 2669 989 
z
" transform="scale(0.015625)"/>
       </defs>
       <use xlink:href="#CMR17-32" transform="scale(0.996264)"/>
      </g>
     </g>
    </g>
    <g id="ytick_12">
     <g id="line2d_4">
      <g>
       <use xlink:href="#mfec7352640" x="759.45359" y="484.65" style="stroke: #000000; stroke-width: 0.8"/>
      </g>
     </g>
     <g id="text_5">
      <!-- 3 -->
      <g transform="translate(766.45359 495.719603) scale(0.32 -0.32)">
       <defs>
        <path id="CMR17-33" d="M 1414 2157 
C 1984 2157 2234 1662 2234 1090 
C 2234 320 1824 25 1453 25 
C 1114 25 563 194 390 693 
C 422 680 454 680 486 680 
C 640 680 755 782 755 948 
C 755 1133 614 1216 486 1216 
C 378 1216 211 1165 211 926 
C 211 335 787 -128 1466 -128 
C 2176 -128 2720 430 2720 1085 
C 2720 1707 2208 2157 1600 2227 
C 2086 2328 2554 2756 2554 3329 
C 2554 3820 2048 4179 1472 4179 
C 890 4179 378 3829 378 3329 
C 378 3110 544 3072 627 3072 
C 762 3072 877 3155 877 3321 
C 877 3486 762 3569 627 3569 
C 602 3569 570 3569 544 3557 
C 730 3959 1235 4032 1459 4032 
C 1683 4032 2106 3925 2106 3320 
C 2106 3143 2080 2828 1862 2550 
C 1670 2304 1453 2304 1242 2284 
C 1210 2284 1062 2269 1037 2269 
C 992 2263 966 2257 966 2208 
C 966 2163 973 2157 1101 2157 
L 1414 2157 
z
" transform="scale(0.015625)"/>
       </defs>
       <use xlink:href="#CMR17-33" transform="scale(0.996264)"/>
      </g>
     </g>
    </g>
    <g id="ytick_13">
     <g id="line2d_5">
      <g>
       <use xlink:href="#mfec7352640" x="759.45359" y="379.35" style="stroke: #000000; stroke-width: 0.8"/>
      </g>
     </g>
     <g id="text_6">
      <!-- 4 -->
      <g transform="translate(766.45359 390.419603) scale(0.32 -0.32)">
       <defs>
        <path id="CMR17-34" d="M 2150 4122 
C 2150 4256 2144 4256 2029 4256 
L 128 1254 
L 128 1088 
L 1779 1088 
L 1779 457 
C 1779 224 1766 160 1318 160 
L 1197 160 
L 1197 0 
C 1402 0 1747 0 1965 0 
C 2182 0 2528 0 2733 0 
L 2733 160 
L 2611 160 
C 2163 160 2150 224 2150 457 
L 2150 1088 
L 2803 1088 
L 2803 1254 
L 2150 1254 
L 2150 4122 
z
M 1798 3703 
L 1798 1254 
L 256 1254 
L 1798 3703 
z
" transform="scale(0.015625)"/>
       </defs>
       <use xlink:href="#CMR17-34" transform="scale(0.996264)"/>
      </g>
     </g>
    </g>
    <g id="ytick_14">
     <g id="line2d_6">
      <g>
       <use xlink:href="#mfec7352640" x="759.45359" y="274.05" style="stroke: #000000; stroke-width: 0.8"/>
      </g>
     </g>
     <g id="text_7">
      <!-- 5 -->
      <g transform="translate(766.45359 285.119603) scale(0.32 -0.32)">
       <defs>
        <path id="CMR17-35" d="M 730 3692 
C 794 3666 1056 3584 1325 3584 
C 1920 3584 2246 3911 2432 4100 
C 2432 4157 2432 4192 2394 4192 
C 2387 4192 2374 4192 2323 4163 
C 2099 4058 1837 3973 1517 3973 
C 1325 3973 1037 3999 723 4139 
C 653 4171 640 4171 634 4171 
C 602 4171 595 4164 595 4037 
L 595 2203 
C 595 2089 595 2057 659 2057 
C 691 2057 704 2070 736 2114 
C 941 2401 1222 2522 1542 2522 
C 1766 2522 2246 2382 2246 1289 
C 2246 1085 2246 715 2054 421 
C 1894 159 1645 25 1370 25 
C 947 25 518 320 403 814 
C 429 807 480 795 506 795 
C 589 795 749 840 749 1038 
C 749 1210 627 1280 506 1280 
C 358 1280 262 1190 262 1011 
C 262 454 704 -128 1382 -128 
C 2042 -128 2669 440 2669 1264 
C 2669 2030 2170 2624 1549 2624 
C 1222 2624 947 2503 730 2274 
L 730 3692 
z
" transform="scale(0.015625)"/>
       </defs>
       <use xlink:href="#CMR17-35" transform="scale(0.996264)"/>
      </g>
     </g>
    </g>
    <g id="ytick_15">
     <g id="line2d_7">
      <g>
       <use xlink:href="#mfec7352640" x="759.45359" y="168.75" style="stroke: #000000; stroke-width: 0.8"/>
      </g>
     </g>
     <g id="text_8">
      <!-- 6 -->
      <g transform="translate(766.45359 179.819603) scale(0.32 -0.32)">
       <use xlink:href="#CMR17-36" transform="scale(0.996264)"/>
      </g>
     </g>
    </g>
    <g id="ytick_16">
     <g id="line2d_8">
      <g>
       <use xlink:href="#mfec7352640" x="759.45359" y="63.45" style="stroke: #000000; stroke-width: 0.8"/>
      </g>
     </g>
     <g id="text_9">
      <!-- 7 -->
      <g transform="translate(766.45359 74.519603) scale(0.32 -0.32)">
       <use xlink:href="#CMR17-37" transform="scale(0.996264)"/>
      </g>
     </g>
    </g>
    <g id="ytick_17">
     <g id="line2d_9">
      <defs>
       <path id="mb2a18d1246" d="M 0 0 
L 2 0 
" style="stroke: #000000; stroke-width: 0.6"/>
      </defs>
      <g>
       <use xlink:href="#mb2a18d1246" x="759.45359" y="853.2" style="stroke: #000000; stroke-width: 0.6"/>
      </g>
     </g>
    </g>
    <g id="ytick_18">
     <g id="line2d_10">
      <g>
       <use xlink:href="#mb2a18d1246" x="759.45359" y="747.9" style="stroke: #000000; stroke-width: 0.6"/>
      </g>
     </g>
    </g>
    <g id="ytick_19">
     <g id="line2d_11">
      <g>
       <use xlink:href="#mb2a18d1246" x="759.45359" y="642.6" style="stroke: #000000; stroke-width: 0.6"/>
      </g>
     </g>
    </g>
    <g id="ytick_20">
     <g id="line2d_12">
      <g>
       <use xlink:href="#mb2a18d1246" x="759.45359" y="537.3" style="stroke: #000000; stroke-width: 0.6"/>
      </g>
     </g>
    </g>
    <g id="ytick_21">
     <g id="line2d_13">
      <g>
       <use xlink:href="#mb2a18d1246" x="759.45359" y="432" style="stroke: #000000; stroke-width: 0.6"/>
      </g>
     </g>
    </g>
    <g id="ytick_22">
     <g id="line2d_14">
      <g>
       <use xlink:href="#mb2a18d1246" x="759.45359" y="326.7" style="stroke: #000000; stroke-width: 0.6"/>
      </g>
     </g>
    </g>
    <g id="ytick_23">
     <g id="line2d_15">
      <g>
       <use xlink:href="#mb2a18d1246" x="759.45359" y="221.4" style="stroke: #000000; stroke-width: 0.6"/>
      </g>
     </g>
    </g>
    <g id="ytick_24">
     <g id="line2d_16">
      <g>
       <use xlink:href="#mb2a18d1246" x="759.45359" y="116.1" style="stroke: #000000; stroke-width: 0.6"/>
      </g>
     </g>
    </g>
    <g id="ytick_25">
     <g id="line2d_17">
      <g>
       <use xlink:href="#mb2a18d1246" x="759.45359" y="10.8" style="stroke: #000000; stroke-width: 0.6"/>
      </g>
     </g>
    </g>
    <g id="text_10">
     <!-- Node Depth -->
     <g transform="translate(828.899641 543.95779) rotate(-90) scale(0.46 -0.46)">
      <defs>
       <path id="CMR17-4e" d="M 1312 4250 
C 1267 4320 1261 4320 1139 4320 
L 326 4320 
L 326 4160 
L 448 4160 
C 704 4160 819 4129 838 4122 
L 838 610 
C 838 451 838 153 326 153 
L 326 -13 
C 474 0 742 0 902 0 
C 1062 0 1331 0 1478 -13 
L 1478 153 
C 966 153 966 451 966 610 
L 966 4033 
C 1011 3995 1011 3982 1056 3919 
L 3430 76 
C 3475 0 3494 0 3526 0 
C 3590 0 3590 19 3590 139 
L 3590 3705 
C 3590 3863 3590 4160 4102 4160 
L 4102 4326 
C 3955 4320 3686 4320 3526 4320 
C 3366 4320 3098 4320 2950 4326 
L 2950 4160 
C 3462 4160 3462 3862 3462 3703 
L 3462 763 
L 1312 4250 
z
" transform="scale(0.015625)"/>
       <path id="CMR17-6f" d="M 2758 1356 
C 2758 2176 2163 2816 1466 2816 
C 768 2816 173 2176 173 1356 
C 173 551 768 -64 1466 -64 
C 2163 -64 2758 551 2758 1356 
z
M 1466 51 
C 1165 51 909 230 762 480 
C 602 767 582 1126 582 1408 
C 582 1677 595 2010 762 2298 
C 890 2509 1139 2714 1466 2714 
C 1754 2714 1997 2554 2150 2330 
C 2349 2029 2349 1607 2349 1408 
C 2349 1158 2336 775 2163 467 
C 1984 173 1709 51 1466 51 
z
" transform="scale(0.015625)"/>
       <path id="CMR17-64" d="M 1869 4326 
L 1869 4160 
C 2246 4160 2304 4122 2304 3820 
L 2304 2345 
C 2278 2377 2016 2790 1498 2790 
C 845 2790 211 2208 211 1364 
C 211 525 806 -64 1434 -64 
C 1978 -64 2259 337 2291 380 
L 2291 -63 
L 3066 -63 
L 3066 128 
C 2688 128 2630 166 2630 473 
L 2630 4396 
L 1869 4326 
z
M 2291 755 
C 2291 563 2176 390 2029 262 
C 1811 70 1594 38 1472 38 
C 1286 38 621 134 621 1356 
C 621 2612 1363 2688 1530 2688 
C 1824 2688 2061 2522 2208 2291 
C 2291 2157 2291 2138 2291 2023 
L 2291 755 
z
" transform="scale(0.015625)"/>
       <path id="CMR17-44" d="M 333 4352 
L 333 4186 
C 774 4186 845 4186 845 3900 
L 845 452 
C 845 166 774 166 333 166 
L 333 0 
L 2368 0 
C 3398 0 4224 943 4224 2141 
C 4224 3346 3411 4352 2368 4352 
L 333 4352 
z
M 1523 166 
C 1267 166 1254 197 1254 414 
L 1254 3938 
C 1254 4155 1267 4186 1523 4186 
L 2240 4186 
C 2771 4186 3750 3874 3750 2141 
C 3750 1242 3488 879 3366 707 
C 3213 510 2848 166 2240 166 
L 1523 166 
z
" transform="scale(0.015625)"/>
       <path id="CMR17-70" d="M 1408 -1063 
C 998 -1063 973 -1037 973 -789 
L 973 402 
C 1158 134 1427 -38 1766 -38 
C 2406 -38 3053 523 3053 1388 
C 3053 2191 2496 2802 1837 2802 
C 1453 2802 1139 2592 960 2338 
L 960 2802 
L 198 2732 
L 198 2567 
C 576 2567 634 2528 634 2223 
L 634 -789 
C 634 -1031 608 -1063 198 -1063 
L 198 -1228 
C 352 -1216 634 -1216 800 -1216 
C 966 -1216 1254 -1216 1408 -1228 
L 1408 -1063 
z
M 973 2012 
C 973 2102 973 2235 1222 2471 
C 1254 2497 1472 2688 1792 2688 
C 2259 2688 2643 2108 2643 1382 
C 2643 656 2234 64 1728 64 
C 1498 64 1248 172 1056 472 
C 973 612 973 650 973 752 
L 973 2012 
z
" transform="scale(0.015625)"/>
       <path id="CMR17-74" d="M 966 2560 
L 1862 2560 
L 1862 2725 
L 966 2725 
L 966 3904 
L 851 3904 
C 838 3245 614 2668 70 2668 
L 70 2560 
L 627 2560 
L 627 771 
C 627 650 627 -64 1370 -64 
C 1747 -64 1965 306 1965 777 
L 1965 1140 
L 1850 1140 
L 1850 783 
C 1850 344 1677 51 1408 51 
C 1222 51 966 178 966 758 
L 966 2560 
z
" transform="scale(0.015625)"/>
       <path id="CMR17-68" d="M 2656 1933 
C 2656 2259 2592 2790 1837 2790 
C 1312 2790 1056 2368 979 2157 
L 973 2157 
L 973 4396 
L 211 4326 
L 211 4160 
C 589 4160 646 4122 646 3817 
L 646 426 
C 646 184 621 153 211 153 
L 211 -13 
C 365 0 646 0 813 0 
C 979 0 1267 0 1421 -13 
L 1421 153 
C 1011 153 986 178 986 428 
L 986 1658 
C 986 2247 1344 2688 1792 2688 
C 2266 2688 2317 2266 2317 1958 
L 2317 428 
C 2317 184 2291 153 1882 153 
L 1882 -13 
C 2035 0 2317 0 2483 0 
C 2650 0 2938 0 3091 -13 
L 3091 153 
C 2682 153 2656 178 2656 428 
L 2656 1933 
z
" transform="scale(0.015625)"/>
      </defs>
      <use xlink:href="#CMR17-4e" transform="scale(0.996264)"/>
      <use xlink:href="#CMR17-6f" transform="translate(69.07243 0) scale(0.996264)"/>
      <use xlink:href="#CMR17-64" transform="translate(117.365346 0) scale(0.996264)"/>
      <use xlink:href="#CMR17-65" transform="translate(168.260715 0) scale(0.996264)"/>
      <use xlink:href="#CMR17-44" transform="translate(238.822342 0) scale(0.996264)"/>
      <use xlink:href="#CMR17-65" transform="translate(309.215898 0) scale(0.996264)"/>
      <use xlink:href="#CMR17-70" transform="translate(349.701559 0) scale(0.996264)"/>
      <use xlink:href="#CMR17-74" transform="translate(400.596928 0) scale(0.996264)"/>
      <use xlink:href="#CMR17-68" transform="translate(435.877696 0) scale(0.996264)"/>
     </g>
    </g>
   </g>
   <g id="LineCollection_2"/>
   <g id="patch_8">
    <path d="M 717.33359 853.2 
L 738.39359 853.2 
L 759.45359 853.2 
L 759.45359 10.8 
L 738.39359 10.8 
L 717.33359 10.8 
L 717.33359 853.2 
z
" style="fill: none; stroke: #000000; stroke-width: 0.8; stroke-linejoin: miter; stroke-linecap: square"/>
   </g>
  </g>
 </g>
 <defs>
  <clipPath id="p33d97cc4dc">
   <rect x="10.8" y="99.513605" width="664.972791" height="664.972791"/>
  </clipPath>
  <clipPath id="p2c9d60c2e2">
   <rect x="717.33359" y="10.8" width="42.12" height="842.4"/>
  </clipPath>
 </defs>
</svg>
