<?xml version="1.0" encoding="utf-8" standalone="no"?>
<!DOCTYPE svg PUBLIC "-//W3C//DTD SVG 1.1//EN"
  "http://www.w3.org/Graphics/SVG/1.1/DTD/svg11.dtd">
<svg xmlns:xlink="http://www.w3.org/1999/xlink" width="864pt" height="864pt" viewBox="0 0 864 864" xmlns="http://www.w3.org/2000/svg" version="1.1">
 <metadata>
  <rdf:RDF xmlns:dc="http://purl.org/dc/elements/1.1/" xmlns:cc="http://creativecommons.org/ns#" xmlns:rdf="http://www.w3.org/1999/02/22-rdf-syntax-ns#">
   <cc:Work>
    <dc:type rdf:resource="http://purl.org/dc/dcmitype/StillImage"/>
    <dc:date>2026-06-09T22:33:55.153414</dc:date>
    <dc:format>image/svg+xml</dc:format>
    <dc:creator>
     <cc:Agent>
      <dc:title>Matplotlib v3.9.2, https://matplotlib.org/</dc:title>
     </cc:Agent>
    </dc:creator>
   </cc:Work>
  </rdf:RDF>
 </metadata>
 <defs>
  <style type="text/css">*{stroke-linejoin: round; stroke-linecap: butt}</style>
 </defs>
 <g id="figure_1">
  <g id="patch_1">
   <path d="M 0 864 
L 864 864 
L 864 0 
L 0 0 
z
" style="fill: #ffffff"/>
  </g>
  <g id="axes_1">
   <g id="patch_2">
    <path d="M 10.8 764.486395 
L 675.772791 764.486395 
L 675.772791 99.513605 
L 10.8 99.513605 
z
" style="fill: #ffffff"/>
   </g>
   <g id="LineCollection_1">
    <path d="M 645.336691 455.144796 
L 343.727529 431.991597 
" clip-path="url(#pe70eb3253f)" style="fill: none; stroke: #808080; stroke-opacity: 0.3"/>
    <path d="M 343.727529 431.991597 
L 645.336691 408.834198 
" clip-path="url(#pe70eb3253f)" style="fill: none; stroke: #808080; stroke-opacity: 0.3"/>
    <path d="M 343.727529 431.991597 
L 638.278558 363.078168 
" clip-path="url(#pe70eb3253f)" style="fill: none; stroke: #808080; stroke-opacity: 0.3"/>
    <path d="M 343.727529 431.991597 
L 624.288329 318.922822 
" clip-path="url(#pe70eb3253f)" style="fill: none; stroke: #808080; stroke-opacity: 0.3"/>
    <path d="M 343.727529 431.991597 
L 603.74412 277.414276 
" clip-path="url(#pe70eb3253f)" style="fill: none; stroke: #808080; stroke-opacity: 0.3"/>
    <path d="M 343.727529 431.991597 
L 577.108069 239.518822 
" clip-path="url(#pe70eb3253f)" style="fill: none; stroke: #808080; stroke-opacity: 0.3"/>
    <path d="M 343.727529 431.991597 
L 545.010367 206.160739 
" clip-path="url(#pe70eb3253f)" style="fill: none; stroke: #808080; stroke-opacity: 0.3"/>
    <path d="M 343.727529 431.991597 
L 508.165231 178.096257 
" clip-path="url(#pe70eb3253f)" style="fill: none; stroke: #808080; stroke-opacity: 0.3"/>
    <path d="M 343.727529 431.991597 
L 467.496938 155.955564 
" clip-path="url(#pe70eb3253f)" style="fill: none; stroke: #808080; stroke-opacity: 0.3"/>
    <path d="M 343.727529 431.991597 
L 423.887757 140.326841 
" clip-path="url(#pe70eb3253f)" style="fill: none; stroke: #808080; stroke-opacity: 0.3"/>
    <path d="M 343.727529 431.991597 
L 378.430018 131.504174 
" clip-path="url(#pe70eb3253f)" style="fill: none; stroke: #808080; stroke-opacity: 0.3"/>
    <path d="M 343.727529 431.991597 
L 332.174037 129.739641 
" clip-path="url(#pe70eb3253f)" style="fill: none; stroke: #808080; stroke-opacity: 0.3"/>
    <path d="M 343.727529 431.991597 
L 286.170132 135.033241 
" clip-path="url(#pe70eb3253f)" style="fill: none; stroke: #808080; stroke-opacity: 0.3"/>
    <path d="M 343.727529 431.991597 
L 241.510633 147.300949 
" clip-path="url(#pe70eb3253f)" style="fill: none; stroke: #808080; stroke-opacity: 0.3"/>
    <path d="M 343.727529 431.991597 
L 199.245859 166.248676 
" clip-path="url(#pe70eb3253f)" style="fill: none; stroke: #808080; stroke-opacity: 0.3"/>
    <path d="M 343.727529 431.991597 
L 160.384112 191.414282 
" clip-path="url(#pe70eb3253f)" style="fill: none; stroke: #808080; stroke-opacity: 0.3"/>
    <path d="M 343.727529 431.991597 
L 125.807662 222.251603 
" clip-path="url(#pe70eb3253f)" style="fill: none; stroke: #808080; stroke-opacity: 0.3"/>
    <path d="M 343.727529 431.991597 
L 96.314747 257.962396 
" clip-path="url(#pe70eb3253f)" style="fill: none; stroke: #808080; stroke-opacity: 0.3"/>
    <path d="M 343.727529 431.991597 
L 72.661598 297.790435 
" clip-path="url(#pe70eb3253f)" style="fill: none; stroke: #808080; stroke-opacity: 0.3"/>
    <path d="M 343.727529 431.991597 
L 55.352366 340.727412 
" clip-path="url(#pe70eb3253f)" style="fill: none; stroke: #808080; stroke-opacity: 0.3"/>
    <path d="M 343.727529 431.991597 
L 44.807179 385.807038 
" clip-path="url(#pe70eb3253f)" style="fill: none; stroke: #808080; stroke-opacity: 0.3"/>
    <path d="M 343.727529 431.991597 
L 41.236099 431.991597 
" clip-path="url(#pe70eb3253f)" style="fill: none; stroke: #808080; stroke-opacity: 0.3"/>
    <path d="M 343.727529 431.991597 
L 44.807179 478.167754 
" clip-path="url(#pe70eb3253f)" style="fill: none; stroke: #808080; stroke-opacity: 0.3"/>
    <path d="M 343.727529 431.991597 
L 55.352366 523.259984 
" clip-path="url(#pe70eb3253f)" style="fill: none; stroke: #808080; stroke-opacity: 0.3"/>
    <path d="M 343.727529 431.991597 
L 72.661598 566.213767 
" clip-path="url(#pe70eb3253f)" style="fill: none; stroke: #808080; stroke-opacity: 0.3"/>
    <path d="M 343.727529 431.991597 
L 96.314747 606.020798 
" clip-path="url(#pe70eb3253f)" style="fill: none; stroke: #808080; stroke-opacity: 0.3"/>
    <path d="M 343.727529 431.991597 
L 125.807662 641.748397 
" clip-path="url(#pe70eb3253f)" style="fill: none; stroke: #808080; stroke-opacity: 0.3"/>
    <path d="M 343.727529 431.991597 
L 160.384112 672.56051 
" clip-path="url(#pe70eb3253f)" style="fill: none; stroke: #808080; stroke-opacity: 0.3"/>
    <path d="M 343.727529 431.991597 
L 199.245859 697.734519 
" clip-path="url(#pe70eb3253f)" style="fill: none; stroke: #808080; stroke-opacity: 0.3"/>
    <path d="M 343.727529 431.991597 
L 241.510633 716.678045 
" clip-path="url(#pe70eb3253f)" style="fill: none; stroke: #808080; stroke-opacity: 0.3"/>
    <path d="M 343.727529 431.991597 
L 286.170132 728.949954 
" clip-path="url(#pe70eb3253f)" style="fill: none; stroke: #808080; stroke-opacity: 0.3"/>
    <path d="M 343.727529 431.991597 
L 332.174037 734.260359 
" clip-path="url(#pe70eb3253f)" style="fill: none; stroke: #808080; stroke-opacity: 0.3"/>
    <path d="M 343.727529 431.991597 
L 378.430018 732.487424 
" clip-path="url(#pe70eb3253f)" style="fill: none; stroke: #808080; stroke-opacity: 0.3"/>
    <path d="M 343.727529 431.991597 
L 423.887757 723.668958 
" clip-path="url(#pe70eb3253f)" style="fill: none; stroke: #808080; stroke-opacity: 0.3"/>
    <path d="M 343.727529 431.991597 
L 467.496938 708.015027 
" clip-path="url(#pe70eb3253f)" style="fill: none; stroke: #808080; stroke-opacity: 0.3"/>
    <path d="M 343.727529 431.991597 
L 508.165231 685.89114 
" clip-path="url(#pe70eb3253f)" style="fill: none; stroke: #808080; stroke-opacity: 0.3"/>
    <path d="M 343.727529 431.991597 
L 545.010367 657.818254 
" clip-path="url(#pe70eb3253f)" style="fill: none; stroke: #808080; stroke-opacity: 0.3"/>
    <path d="M 343.727529 431.991597 
L 577.108069 624.447568 
" clip-path="url(#pe70eb3253f)" style="fill: none; stroke: #808080; stroke-opacity: 0.3"/>
    <path d="M 343.727529 431.991597 
L 603.74412 586.568919 
" clip-path="url(#pe70eb3253f)" style="fill: none; stroke: #808080; stroke-opacity: 0.3"/>
    <path d="M 343.727529 431.991597 
L 624.288329 545.068775 
" clip-path="url(#pe70eb3253f)" style="fill: none; stroke: #808080; stroke-opacity: 0.3"/>
    <path d="M 343.727529 431.991597 
L 638.278558 500.913429 
" clip-path="url(#pe70eb3253f)" style="fill: none; stroke: #808080; stroke-opacity: 0.3"/>
   </g>
   <g id="matplotlib.axis_1">
    <g id="xtick_1"/>
    <g id="xtick_2"/>
    <g id="xtick_3"/>
    <g id="xtick_4"/>
    <g id="xtick_5"/>
    <g id="xtick_6"/>
    <g id="xtick_7"/>
   </g>
   <g id="matplotlib.axis_2">
    <g id="ytick_1"/>
    <g id="ytick_2"/>
    <g id="ytick_3"/>
    <g id="ytick_4"/>
    <g id="ytick_5"/>
    <g id="ytick_6"/>
    <g id="ytick_7"/>
    <g id="ytick_8"/>
   </g>
   <g id="PathCollection_1">
    <path d="M 645.336691 466.325135 
C 648.301752 466.325135 651.145771 465.147104 653.242385 463.05049 
C 655.339 460.953875 656.517031 458.109856 656.517031 455.144796 
C 656.517031 452.179735 655.339 449.335716 653.242385 447.239101 
C 651.145771 445.142487 648.301752 443.964456 645.336691 443.964456 
C 642.37163 443.964456 639.527612 445.142487 637.430997 447.239101 
C 635.334383 449.335716 634.156351 452.179735 634.156351 455.144796 
C 634.156351 458.109856 635.334383 460.953875 637.430997 463.05049 
C 639.527612 465.147104 642.37163 466.325135 645.336691 466.325135 
z
" clip-path="url(#pe70eb3253f)" style="fill: #ad35ca; stroke: #ad35ca"/>
    <path d="M 343.727529 439.062665 
C 345.602798 439.062665 347.401513 438.317613 348.727529 436.991597 
C 350.053544 435.665582 350.798596 433.866867 350.798596 431.991597 
C 350.798596 430.116328 350.053544 428.317613 348.727529 426.991597 
C 347.401513 425.665582 345.602798 424.92053 343.727529 424.92053 
C 341.85226 424.92053 340.053544 425.665582 338.727529 426.991597 
C 337.401513 428.317613 336.656461 430.116328 336.656461 431.991597 
C 336.656461 433.866867 337.401513 435.665582 338.727529 436.991597 
C 340.053544 438.317613 341.85226 439.062665 343.727529 439.062665 
z
" clip-path="url(#pe70eb3253f)" style="fill: #8f81b5; stroke: #8f81b5"/>
    <path d="M 645.336691 413.306334 
C 646.522716 413.306334 647.660323 412.835122 648.498969 411.996476 
C 649.337615 411.15783 649.808827 410.020222 649.808827 408.834198 
C 649.808827 407.648174 649.337615 406.510566 648.498969 405.67192 
C 647.660323 404.833275 646.522716 404.362062 645.336691 404.362062 
C 644.150667 404.362062 643.013059 404.833275 642.174414 405.67192 
C 641.335768 406.510566 640.864555 407.648174 640.864555 408.834198 
C 640.864555 410.020222 641.335768 411.15783 642.174414 411.996476 
C 643.013059 412.835122 644.150667 413.306334 645.336691 413.306334 
z
" clip-path="url(#pe70eb3253f)" style="fill: #879dba; stroke: #879dba"/>
    <path d="M 638.278558 367.550304 
C 639.464582 367.550304 640.60219 367.079092 641.440836 366.240446 
C 642.279481 365.4018 642.750694 364.264192 642.750694 363.078168 
C 642.750694 361.892144 642.279481 360.754536 641.440836 359.91589 
C 640.60219 359.077245 639.464582 358.606032 638.278558 358.606032 
C 637.092534 358.606032 635.954926 359.077245 635.11628 359.91589 
C 634.277634 360.754536 633.806422 361.892144 633.806422 363.078168 
C 633.806422 364.264192 634.277634 365.4018 635.11628 366.240446 
C 635.954926 367.079092 637.092534 367.550304 638.278558 367.550304 
z
" clip-path="url(#pe70eb3253f)" style="fill: #879dba; stroke: #879dba"/>
    <path d="M 624.288329 323.394958 
C 625.474354 323.394958 626.611961 322.923745 627.450607 322.0851 
C 628.289253 321.246454 628.760465 320.108846 628.760465 318.922822 
C 628.760465 317.736798 628.289253 316.59919 627.450607 315.760544 
C 626.611961 314.921898 625.474354 314.450686 624.288329 314.450686 
C 623.102305 314.450686 621.964697 314.921898 621.126052 315.760544 
C 620.287406 316.59919 619.816193 317.736798 619.816193 318.922822 
C 619.816193 320.108846 620.287406 321.246454 621.126052 322.0851 
C 621.964697 322.923745 623.102305 323.394958 624.288329 323.394958 
z
" clip-path="url(#pe70eb3253f)" style="fill: #879dba; stroke: #879dba"/>
    <path d="M 603.74412 281.886412 
C 604.930144 281.886412 606.067752 281.415199 606.906397 280.576554 
C 607.745043 279.737908 608.216256 278.6003 608.216256 277.414276 
C 608.216256 276.228252 607.745043 275.090644 606.906397 274.251998 
C 606.067752 273.413352 604.930144 272.94214 603.74412 272.94214 
C 602.558095 272.94214 601.420488 273.413352 600.581842 274.251998 
C 599.743196 275.090644 599.271984 276.228252 599.271984 277.414276 
C 599.271984 278.6003 599.743196 279.737908 600.581842 280.576554 
C 601.420488 281.415199 602.558095 281.886412 603.74412 281.886412 
z
" clip-path="url(#pe70eb3253f)" style="fill: #879dba; stroke: #879dba"/>
    <path d="M 577.108069 243.990958 
C 578.294093 243.990958 579.431701 243.519745 580.270347 242.681099 
C 581.108992 241.842454 581.580205 240.704846 581.580205 239.518822 
C 581.580205 238.332797 581.108992 237.19519 580.270347 236.356544 
C 579.431701 235.517898 578.294093 235.046686 577.108069 235.046686 
C 575.922045 235.046686 574.784437 235.517898 573.945791 236.356544 
C 573.107145 237.19519 572.635933 238.332797 572.635933 239.518822 
C 572.635933 240.704846 573.107145 241.842454 573.945791 242.681099 
C 574.784437 243.519745 575.922045 243.990958 577.108069 243.990958 
z
" clip-path="url(#pe70eb3253f)" style="fill: #879dba; stroke: #879dba"/>
    <path d="M 545.010367 210.632875 
C 546.196392 210.632875 547.333999 210.161663 548.172645 209.323017 
C 549.011291 208.484371 549.482503 207.346764 549.482503 206.160739 
C 549.482503 204.974715 549.011291 203.837107 548.172645 202.998462 
C 547.333999 202.159816 546.196392 201.688603 545.010367 201.688603 
C 543.824343 201.688603 542.686735 202.159816 541.84809 202.998462 
C 541.009444 203.837107 540.538231 204.974715 540.538231 206.160739 
C 540.538231 207.346764 541.009444 208.484371 541.84809 209.323017 
C 542.686735 210.161663 543.824343 210.632875 545.010367 210.632875 
z
" clip-path="url(#pe70eb3253f)" style="fill: #879dba; stroke: #879dba"/>
    <path d="M 508.165231 182.568393 
C 509.351255 182.568393 510.488862 182.09718 511.327508 181.258534 
C 512.166154 180.419888 512.637367 179.282281 512.637367 178.096257 
C 512.637367 176.910232 512.166154 175.772625 511.327508 174.933979 
C 510.488862 174.095333 509.351255 173.624121 508.165231 173.624121 
C 506.979206 173.624121 505.841599 174.095333 505.002953 174.933979 
C 504.164307 175.772625 503.693095 176.910232 503.693095 178.096257 
C 503.693095 179.282281 504.164307 180.419888 505.002953 181.258534 
C 505.841599 182.09718 506.979206 182.568393 508.165231 182.568393 
z
" clip-path="url(#pe70eb3253f)" style="fill: #879dba; stroke: #879dba"/>
    <path d="M 467.496938 160.4277 
C 468.682963 160.4277 469.82057 159.956488 470.659216 159.117842 
C 471.497862 158.279196 471.969074 157.141589 471.969074 155.955564 
C 471.969074 154.76954 471.497862 153.631933 470.659216 152.793287 
C 469.82057 151.954641 468.682963 151.483429 467.496938 151.483429 
C 466.310914 151.483429 465.173307 151.954641 464.334661 152.793287 
C 463.496015 153.631933 463.024803 154.76954 463.024803 155.955564 
C 463.024803 157.141589 463.496015 158.279196 464.334661 159.117842 
C 465.173307 159.956488 466.310914 160.4277 467.496938 160.4277 
z
" clip-path="url(#pe70eb3253f)" style="fill: #879dba; stroke: #879dba"/>
    <path d="M 423.887757 144.798977 
C 425.073782 144.798977 426.211389 144.327764 427.050035 143.489118 
C 427.888681 142.650472 428.359893 141.512865 428.359893 140.326841 
C 428.359893 139.140816 427.888681 138.003209 427.050035 137.164563 
C 426.211389 136.325917 425.073782 135.854705 423.887757 135.854705 
C 422.701733 135.854705 421.564126 136.325917 420.72548 137.164563 
C 419.886834 138.003209 419.415621 139.140816 419.415621 140.326841 
C 419.415621 141.512865 419.886834 142.650472 420.72548 143.489118 
C 421.564126 144.327764 422.701733 144.798977 423.887757 144.798977 
z
" clip-path="url(#pe70eb3253f)" style="fill: #879dba; stroke: #879dba"/>
    <path d="M 378.430018 135.97631 
C 379.616042 135.97631 380.753649 135.505097 381.592295 134.666452 
C 382.430941 133.827806 382.902154 132.690198 382.902154 131.504174 
C 382.902154 130.31815 382.430941 129.180542 381.592295 128.341896 
C 380.753649 127.50325 379.616042 127.032038 378.430018 127.032038 
C 377.243993 127.032038 376.106386 127.50325 375.26774 128.341896 
C 374.429094 129.180542 373.957882 130.31815 373.957882 131.504174 
C 373.957882 132.690198 374.429094 133.827806 375.26774 134.666452 
C 376.106386 135.505097 377.243993 135.97631 378.430018 135.97631 
z
" clip-path="url(#pe70eb3253f)" style="fill: #879dba; stroke: #879dba"/>
    <path d="M 332.174037 134.211777 
C 333.360061 134.211777 334.497668 133.740564 335.336314 132.901918 
C 336.17496 132.063272 336.646173 130.925665 336.646173 129.739641 
C 336.646173 128.553616 336.17496 127.416009 335.336314 126.577363 
C 334.497668 125.738717 333.360061 125.267505 332.174037 125.267505 
C 330.988012 125.267505 329.850405 125.738717 329.011759 126.577363 
C 328.173113 127.416009 327.701901 128.553616 327.701901 129.739641 
C 327.701901 130.925665 328.173113 132.063272 329.011759 132.901918 
C 329.850405 133.740564 330.988012 134.211777 332.174037 134.211777 
z
" clip-path="url(#pe70eb3253f)" style="fill: #879dba; stroke: #879dba"/>
    <path d="M 286.170132 139.505377 
C 287.356156 139.505377 288.493764 139.034164 289.332409 138.195518 
C 290.171055 137.356872 290.642268 136.219265 290.642268 135.033241 
C 290.642268 133.847216 290.171055 132.709609 289.332409 131.870963 
C 288.493764 131.032317 287.356156 130.561105 286.170132 130.561105 
C 284.984107 130.561105 283.8465 131.032317 283.007854 131.870963 
C 282.169208 132.709609 281.697996 133.847216 281.697996 135.033241 
C 281.697996 136.219265 282.169208 137.356872 283.007854 138.195518 
C 283.8465 139.034164 284.984107 139.505377 286.170132 139.505377 
z
" clip-path="url(#pe70eb3253f)" style="fill: #879dba; stroke: #879dba"/>
    <path d="M 241.510633 151.773085 
C 242.696658 151.773085 243.834265 151.301872 244.672911 150.463226 
C 245.511557 149.62458 245.982769 148.486973 245.982769 147.300949 
C 245.982769 146.114924 245.511557 144.977317 244.672911 144.138671 
C 243.834265 143.300025 242.696658 142.828813 241.510633 142.828813 
C 240.324609 142.828813 239.187001 143.300025 238.348356 144.138671 
C 237.50971 144.977317 237.038497 146.114924 237.038497 147.300949 
C 237.038497 148.486973 237.50971 149.62458 238.348356 150.463226 
C 239.187001 151.301872 240.324609 151.773085 241.510633 151.773085 
z
" clip-path="url(#pe70eb3253f)" style="fill: #879dba; stroke: #879dba"/>
    <path d="M 199.245859 170.720812 
C 200.431883 170.720812 201.56949 170.249599 202.408136 169.410953 
C 203.246782 168.572307 203.717994 167.4347 203.717994 166.248676 
C 203.717994 165.062651 203.246782 163.925044 202.408136 163.086398 
C 201.56949 162.247752 200.431883 161.77654 199.245859 161.77654 
C 198.059834 161.77654 196.922227 162.247752 196.083581 163.086398 
C 195.244935 163.925044 194.773723 165.062651 194.773723 166.248676 
C 194.773723 167.4347 195.244935 168.572307 196.083581 169.410953 
C 196.922227 170.249599 198.059834 170.720812 199.245859 170.720812 
z
" clip-path="url(#pe70eb3253f)" style="fill: #879dba; stroke: #879dba"/>
    <path d="M 160.384112 195.886418 
C 161.570137 195.886418 162.707744 195.415206 163.54639 194.57656 
C 164.385036 193.737914 164.856248 192.600306 164.856248 191.414282 
C 164.856248 190.228258 164.385036 189.09065 163.54639 188.252004 
C 162.707744 187.413359 161.570137 186.942146 160.384112 186.942146 
C 159.198088 186.942146 158.060481 187.413359 157.221835 188.252004 
C 156.383189 189.09065 155.911976 190.228258 155.911976 191.414282 
C 155.911976 192.600306 156.383189 193.737914 157.221835 194.57656 
C 158.060481 195.415206 159.198088 195.886418 160.384112 195.886418 
z
" clip-path="url(#pe70eb3253f)" style="fill: #879dba; stroke: #879dba"/>
    <path d="M 125.807662 226.723739 
C 126.993686 226.723739 128.131293 226.252526 128.969939 225.41388 
C 129.808585 224.575235 130.279797 223.437627 130.279797 222.251603 
C 130.279797 221.065578 129.808585 219.927971 128.969939 219.089325 
C 128.131293 218.250679 126.993686 217.779467 125.807662 217.779467 
C 124.621637 217.779467 123.48403 218.250679 122.645384 219.089325 
C 121.806738 219.927971 121.335526 221.065578 121.335526 222.251603 
C 121.335526 223.437627 121.806738 224.575235 122.645384 225.41388 
C 123.48403 226.252526 124.621637 226.723739 125.807662 226.723739 
z
" clip-path="url(#pe70eb3253f)" style="fill: #879dba; stroke: #879dba"/>
    <path d="M 96.314747 262.434532 
C 97.500771 262.434532 98.638379 261.96332 99.477025 261.124674 
C 100.315671 260.286028 100.786883 259.148421 100.786883 257.962396 
C 100.786883 256.776372 100.315671 255.638765 99.477025 254.800119 
C 98.638379 253.961473 97.500771 253.49026 96.314747 253.49026 
C 95.128723 253.49026 93.991115 253.961473 93.15247 254.800119 
C 92.313824 255.638765 91.842611 256.776372 91.842611 257.962396 
C 91.842611 259.148421 92.313824 260.286028 93.15247 261.124674 
C 93.991115 261.96332 95.128723 262.434532 96.314747 262.434532 
z
" clip-path="url(#pe70eb3253f)" style="fill: #879dba; stroke: #879dba"/>
    <path d="M 72.661598 302.262571 
C 73.847622 302.262571 74.98523 301.791358 75.823876 300.952712 
C 76.662521 300.114066 77.133734 298.976459 77.133734 297.790435 
C 77.133734 296.60441 76.662521 295.466803 75.823876 294.628157 
C 74.98523 293.789511 73.847622 293.318299 72.661598 293.318299 
C 71.475574 293.318299 70.337966 293.789511 69.49932 294.628157 
C 68.660674 295.466803 68.189462 296.60441 68.189462 297.790435 
C 68.189462 298.976459 68.660674 300.114066 69.49932 300.952712 
C 70.337966 301.791358 71.475574 302.262571 72.661598 302.262571 
z
" clip-path="url(#pe70eb3253f)" style="fill: #879dba; stroke: #879dba"/>
    <path d="M 55.352366 345.199548 
C 56.53839 345.199548 57.675998 344.728336 58.514644 343.88969 
C 59.35329 343.051044 59.824502 341.913437 59.824502 340.727412 
C 59.824502 339.541388 59.35329 338.403781 58.514644 337.565135 
C 57.675998 336.726489 56.53839 336.255277 55.352366 336.255277 
C 54.166342 336.255277 53.028734 336.726489 52.190088 337.565135 
C 51.351443 338.403781 50.88023 339.541388 50.88023 340.727412 
C 50.88023 341.913437 51.351443 343.051044 52.190088 343.88969 
C 53.028734 344.728336 54.166342 345.199548 55.352366 345.199548 
z
" clip-path="url(#pe70eb3253f)" style="fill: #879dba; stroke: #879dba"/>
    <path d="M 44.807179 390.279174 
C 45.993203 390.279174 47.130811 389.807961 47.969456 388.969316 
C 48.808102 388.13067 49.279315 386.993062 49.279315 385.807038 
C 49.279315 384.621014 48.808102 383.483406 47.969456 382.64476 
C 47.130811 381.806114 45.993203 381.334902 44.807179 381.334902 
C 43.621154 381.334902 42.483547 381.806114 41.644901 382.64476 
C 40.806255 383.483406 40.335043 384.621014 40.335043 385.807038 
C 40.335043 386.993062 40.806255 388.13067 41.644901 388.969316 
C 42.483547 389.807961 43.621154 390.279174 44.807179 390.279174 
z
" clip-path="url(#pe70eb3253f)" style="fill: #879dba; stroke: #879dba"/>
    <path d="M 41.236099 436.463733 
C 42.422124 436.463733 43.559731 435.992521 44.398377 435.153875 
C 45.237023 434.315229 45.708235 433.177622 45.708235 431.991597 
C 45.708235 430.805573 45.237023 429.667966 44.398377 428.82932 
C 43.559731 427.990674 42.422124 427.519462 41.236099 427.519462 
C 40.050075 427.519462 38.912468 427.990674 38.073822 428.82932 
C 37.235176 429.667966 36.763963 430.805573 36.763963 431.991597 
C 36.763963 433.177622 37.235176 434.315229 38.073822 435.153875 
C 38.912468 435.992521 40.050075 436.463733 41.236099 436.463733 
z
" clip-path="url(#pe70eb3253f)" style="fill: #879dba; stroke: #879dba"/>
    <path d="M 44.807179 482.63989 
C 45.993203 482.63989 47.130811 482.168678 47.969456 481.330032 
C 48.808102 480.491386 49.279315 479.353779 49.279315 478.167754 
C 49.279315 476.98173 48.808102 475.844123 47.969456 475.005477 
C 47.130811 474.166831 45.993203 473.695618 44.807179 473.695618 
C 43.621154 473.695618 42.483547 474.166831 41.644901 475.005477 
C 40.806255 475.844123 40.335043 476.98173 40.335043 478.167754 
C 40.335043 479.353779 40.806255 480.491386 41.644901 481.330032 
C 42.483547 482.168678 43.621154 482.63989 44.807179 482.63989 
z
" clip-path="url(#pe70eb3253f)" style="fill: #879dba; stroke: #879dba"/>
    <path d="M 55.352366 527.73212 
C 56.53839 527.73212 57.675998 527.260907 58.514644 526.422261 
C 59.35329 525.583616 59.824502 524.446008 59.824502 523.259984 
C 59.824502 522.073959 59.35329 520.936352 58.514644 520.097706 
C 57.675998 519.25906 56.53839 518.787848 55.352366 518.787848 
C 54.166342 518.787848 53.028734 519.25906 52.190088 520.097706 
C 51.351443 520.936352 50.88023 522.073959 50.88023 523.259984 
C 50.88023 524.446008 51.351443 525.583616 52.190088 526.422261 
C 53.028734 527.260907 54.166342 527.73212 55.352366 527.73212 
z
" clip-path="url(#pe70eb3253f)" style="fill: #879dba; stroke: #879dba"/>
    <path d="M 72.661598 570.685903 
C 73.847622 570.685903 74.98523 570.21469 75.823876 569.376044 
C 76.662521 568.537398 77.133734 567.399791 77.133734 566.213767 
C 77.133734 565.027742 76.662521 563.890135 75.823876 563.051489 
C 74.98523 562.212843 73.847622 561.741631 72.661598 561.741631 
C 71.475574 561.741631 70.337966 562.212843 69.49932 563.051489 
C 68.660674 563.890135 68.189462 565.027742 68.189462 566.213767 
C 68.189462 567.399791 68.660674 568.537398 69.49932 569.376044 
C 70.337966 570.21469 71.475574 570.685903 72.661598 570.685903 
z
" clip-path="url(#pe70eb3253f)" style="fill: #879dba; stroke: #879dba"/>
    <path d="M 96.314747 610.492934 
C 97.500771 610.492934 98.638379 610.021722 99.477025 609.183076 
C 100.315671 608.34443 100.786883 607.206823 100.786883 606.020798 
C 100.786883 604.834774 100.315671 603.697167 99.477025 602.858521 
C 98.638379 602.019875 97.500771 601.548663 96.314747 601.548663 
C 95.128723 601.548663 93.991115 602.019875 93.15247 602.858521 
C 92.313824 603.697167 91.842611 604.834774 91.842611 606.020798 
C 91.842611 607.206823 92.313824 608.34443 93.15247 609.183076 
C 93.991115 610.021722 95.128723 610.492934 96.314747 610.492934 
z
" clip-path="url(#pe70eb3253f)" style="fill: #879dba; stroke: #879dba"/>
    <path d="M 125.807662 646.220533 
C 126.993686 646.220533 128.131293 645.749321 128.969939 644.910675 
C 129.808585 644.072029 130.279797 642.934422 130.279797 641.748397 
C 130.279797 640.562373 129.808585 639.424765 128.969939 638.58612 
C 128.131293 637.747474 126.993686 637.276261 125.807662 637.276261 
C 124.621637 637.276261 123.48403 637.747474 122.645384 638.58612 
C 121.806738 639.424765 121.335526 640.562373 121.335526 641.748397 
C 121.335526 642.934422 121.806738 644.072029 122.645384 644.910675 
C 123.48403 645.749321 124.621637 646.220533 125.807662 646.220533 
z
" clip-path="url(#pe70eb3253f)" style="fill: #879dba; stroke: #879dba"/>
    <path d="M 160.384112 677.032646 
C 161.570137 677.032646 162.707744 676.561434 163.54639 675.722788 
C 164.385036 674.884142 164.856248 673.746535 164.856248 672.56051 
C 164.856248 671.374486 164.385036 670.236879 163.54639 669.398233 
C 162.707744 668.559587 161.570137 668.088374 160.384112 668.088374 
C 159.198088 668.088374 158.060481 668.559587 157.221835 669.398233 
C 156.383189 670.236879 155.911976 671.374486 155.911976 672.56051 
C 155.911976 673.746535 156.383189 674.884142 157.221835 675.722788 
C 158.060481 676.561434 159.198088 677.032646 160.384112 677.032646 
z
" clip-path="url(#pe70eb3253f)" style="fill: #879dba; stroke: #879dba"/>
    <path d="M 199.245859 702.206655 
C 200.431883 702.206655 201.56949 701.735443 202.408136 700.896797 
C 203.246782 700.058151 203.717994 698.920544 203.717994 697.734519 
C 203.717994 696.548495 203.246782 695.410887 202.408136 694.572242 
C 201.56949 693.733596 200.431883 693.262383 199.245859 693.262383 
C 198.059834 693.262383 196.922227 693.733596 196.083581 694.572242 
C 195.244935 695.410887 194.773723 696.548495 194.773723 697.734519 
C 194.773723 698.920544 195.244935 700.058151 196.083581 700.896797 
C 196.922227 701.735443 198.059834 702.206655 199.245859 702.206655 
z
" clip-path="url(#pe70eb3253f)" style="fill: #879dba; stroke: #879dba"/>
    <path d="M 241.510633 721.150181 
C 242.696658 721.150181 243.834265 720.678969 244.672911 719.840323 
C 245.511557 719.001677 245.982769 717.864069 245.982769 716.678045 
C 245.982769 715.492021 245.511557 714.354413 244.672911 713.515767 
C 243.834265 712.677122 242.696658 712.205909 241.510633 712.205909 
C 240.324609 712.205909 239.187001 712.677122 238.348356 713.515767 
C 237.50971 714.354413 237.038497 715.492021 237.038497 716.678045 
C 237.038497 717.864069 237.50971 719.001677 238.348356 719.840323 
C 239.187001 720.678969 240.324609 721.150181 241.510633 721.150181 
z
" clip-path="url(#pe70eb3253f)" style="fill: #879dba; stroke: #879dba"/>
    <path d="M 286.170132 733.42209 
C 287.356156 733.42209 288.493764 732.950878 289.332409 732.112232 
C 290.171055 731.273586 290.642268 730.135979 290.642268 728.949954 
C 290.642268 727.76393 290.171055 726.626322 289.332409 725.787677 
C 288.493764 724.949031 287.356156 724.477818 286.170132 724.477818 
C 284.984107 724.477818 283.8465 724.949031 283.007854 725.787677 
C 282.169208 726.626322 281.697996 727.76393 281.697996 728.949954 
C 281.697996 730.135979 282.169208 731.273586 283.007854 732.112232 
C 283.8465 732.950878 284.984107 733.42209 286.170132 733.42209 
z
" clip-path="url(#pe70eb3253f)" style="fill: #879dba; stroke: #879dba"/>
    <path d="M 332.174037 738.732495 
C 333.360061 738.732495 334.497668 738.261283 335.336314 737.422637 
C 336.17496 736.583991 336.646173 735.446384 336.646173 734.260359 
C 336.646173 733.074335 336.17496 731.936728 335.336314 731.098082 
C 334.497668 730.259436 333.360061 729.788223 332.174037 729.788223 
C 330.988012 729.788223 329.850405 730.259436 329.011759 731.098082 
C 328.173113 731.936728 327.701901 733.074335 327.701901 734.260359 
C 327.701901 735.446384 328.173113 736.583991 329.011759 737.422637 
C 329.850405 738.261283 330.988012 738.732495 332.174037 738.732495 
z
" clip-path="url(#pe70eb3253f)" style="fill: #879dba; stroke: #879dba"/>
    <path d="M 378.430018 736.959559 
C 379.616042 736.959559 380.753649 736.488347 381.592295 735.649701 
C 382.430941 734.811055 382.902154 733.673448 382.902154 732.487424 
C 382.902154 731.301399 382.430941 730.163792 381.592295 729.325146 
C 380.753649 728.4865 379.616042 728.015288 378.430018 728.015288 
C 377.243993 728.015288 376.106386 728.4865 375.26774 729.325146 
C 374.429094 730.163792 373.957882 731.301399 373.957882 732.487424 
C 373.957882 733.673448 374.429094 734.811055 375.26774 735.649701 
C 376.106386 736.488347 377.243993 736.959559 378.430018 736.959559 
z
" clip-path="url(#pe70eb3253f)" style="fill: #879dba; stroke: #879dba"/>
    <path d="M 423.887757 728.141094 
C 425.073782 728.141094 426.211389 727.669882 427.050035 726.831236 
C 427.888681 725.99259 428.359893 724.854982 428.359893 723.668958 
C 428.359893 722.482934 427.888681 721.345326 427.050035 720.50668 
C 426.211389 719.668035 425.073782 719.196822 423.887757 719.196822 
C 422.701733 719.196822 421.564126 719.668035 420.72548 720.50668 
C 419.886834 721.345326 419.415621 722.482934 419.415621 723.668958 
C 419.415621 724.854982 419.886834 725.99259 420.72548 726.831236 
C 421.564126 727.669882 422.701733 728.141094 423.887757 728.141094 
z
" clip-path="url(#pe70eb3253f)" style="fill: #879dba; stroke: #879dba"/>
    <path d="M 467.496938 712.487163 
C 468.682963 712.487163 469.82057 712.01595 470.659216 711.177304 
C 471.497862 710.338658 471.969074 709.201051 471.969074 708.015027 
C 471.969074 706.829002 471.497862 705.691395 470.659216 704.852749 
C 469.82057 704.014103 468.682963 703.542891 467.496938 703.542891 
C 466.310914 703.542891 465.173307 704.014103 464.334661 704.852749 
C 463.496015 705.691395 463.024803 706.829002 463.024803 708.015027 
C 463.024803 709.201051 463.496015 710.338658 464.334661 711.177304 
C 465.173307 712.01595 466.310914 712.487163 467.496938 712.487163 
z
" clip-path="url(#pe70eb3253f)" style="fill: #879dba; stroke: #879dba"/>
    <path d="M 508.165231 690.363276 
C 509.351255 690.363276 510.488862 689.892063 511.327508 689.053417 
C 512.166154 688.214771 512.637367 687.077164 512.637367 685.89114 
C 512.637367 684.705115 512.166154 683.567508 511.327508 682.728862 
C 510.488862 681.890216 509.351255 681.419004 508.165231 681.419004 
C 506.979206 681.419004 505.841599 681.890216 505.002953 682.728862 
C 504.164307 683.567508 503.693095 684.705115 503.693095 685.89114 
C 503.693095 687.077164 504.164307 688.214771 505.002953 689.053417 
C 505.841599 689.892063 506.979206 690.363276 508.165231 690.363276 
z
" clip-path="url(#pe70eb3253f)" style="fill: #879dba; stroke: #879dba"/>
    <path d="M 545.010367 662.29039 
C 546.196392 662.29039 547.333999 661.819178 548.172645 660.980532 
C 549.011291 660.141886 549.482503 659.004279 549.482503 657.818254 
C 549.482503 656.63223 549.011291 655.494623 548.172645 654.655977 
C 547.333999 653.817331 546.196392 653.346119 545.010367 653.346119 
C 543.824343 653.346119 542.686735 653.817331 541.84809 654.655977 
C 541.009444 655.494623 540.538231 656.63223 540.538231 657.818254 
C 540.538231 659.004279 541.009444 660.141886 541.84809 660.980532 
C 542.686735 661.819178 543.824343 662.29039 545.010367 662.29039 
z
" clip-path="url(#pe70eb3253f)" style="fill: #879dba; stroke: #879dba"/>
    <path d="M 577.108069 628.919704 
C 578.294093 628.919704 579.431701 628.448492 580.270347 627.609846 
C 581.108992 626.7712 581.580205 625.633592 581.580205 624.447568 
C 581.580205 623.261544 581.108992 622.123936 580.270347 621.28529 
C 579.431701 620.446645 578.294093 619.975432 577.108069 619.975432 
C 575.922045 619.975432 574.784437 620.446645 573.945791 621.28529 
C 573.107145 622.123936 572.635933 623.261544 572.635933 624.447568 
C 572.635933 625.633592 573.107145 626.7712 573.945791 627.609846 
C 574.784437 628.448492 575.922045 628.919704 577.108069 628.919704 
z
" clip-path="url(#pe70eb3253f)" style="fill: #879dba; stroke: #879dba"/>
    <path d="M 603.74412 591.041055 
C 604.930144 591.041055 606.067752 590.569843 606.906397 589.731197 
C 607.745043 588.892551 608.216256 587.754943 608.216256 586.568919 
C 608.216256 585.382895 607.745043 584.245287 606.906397 583.406641 
C 606.067752 582.567996 604.930144 582.096783 603.74412 582.096783 
C 602.558095 582.096783 601.420488 582.567996 600.581842 583.406641 
C 599.743196 584.245287 599.271984 585.382895 599.271984 586.568919 
C 599.271984 587.754943 599.743196 588.892551 600.581842 589.731197 
C 601.420488 590.569843 602.558095 591.041055 603.74412 591.041055 
z
" clip-path="url(#pe70eb3253f)" style="fill: #879dba; stroke: #879dba"/>
    <path d="M 624.288329 549.540911 
C 625.474354 549.540911 626.611961 549.069699 627.450607 548.231053 
C 628.289253 547.392407 628.760465 546.2548 628.760465 545.068775 
C 628.760465 543.882751 628.289253 542.745144 627.450607 541.906498 
C 626.611961 541.067852 625.474354 540.59664 624.288329 540.59664 
C 623.102305 540.59664 621.964697 541.067852 621.126052 541.906498 
C 620.287406 542.745144 619.816193 543.882751 619.816193 545.068775 
C 619.816193 546.2548 620.287406 547.392407 621.126052 548.231053 
C 621.964697 549.069699 623.102305 549.540911 624.288329 549.540911 
z
" clip-path="url(#pe70eb3253f)" style="fill: #879dba; stroke: #879dba"/>
    <path d="M 638.278558 505.385565 
C 639.464582 505.385565 640.60219 504.914353 641.440836 504.075707 
C 642.279481 503.237061 642.750694 502.099454 642.750694 500.913429 
C 642.750694 499.727405 642.279481 498.589798 641.440836 497.751152 
C 640.60219 496.912506 639.464582 496.441293 638.278558 496.441293 
C 637.092534 496.441293 635.954926 496.912506 635.11628 497.751152 
C 634.277634 498.589798 633.806422 499.727405 633.806422 500.913429 
C 633.806422 502.099454 634.277634 503.237061 635.11628 504.075707 
C 635.954926 504.914353 637.092534 505.385565 638.278558 505.385565 
z
" clip-path="url(#pe70eb3253f)" style="fill: #879dba; stroke: #879dba"/>
   </g>
   <g id="patch_3">
    <path d="M 10.8 764.486395 
L 10.8 99.513605 
" style="fill: none; stroke: #000000; stroke-width: 0.8; stroke-linejoin: miter; stroke-linecap: square"/>
   </g>
   <g id="patch_4">
    <path d="M 675.772791 764.486395 
L 675.772791 99.513605 
" style="fill: none; stroke: #000000; stroke-width: 0.8; stroke-linejoin: miter; stroke-linecap: square"/>
   </g>
   <g id="patch_5">
    <path d="M 10.8 764.486395 
L 675.772791 764.486395 
" style="fill: none; stroke: #000000; stroke-width: 0.8; stroke-linejoin: miter; stroke-linecap: square"/>
   </g>
   <g id="patch_6">
    <path d="M 10.8 99.513605 
L 675.772791 99.513605 
" style="fill: none; stroke: #000000; stroke-width: 0.8; stroke-linejoin: miter; stroke-linecap: square"/>
   </g>
   <g id="text_1">
    <!-- Year: 1803 -->
    <g transform="translate(17.449728 126.918828) scale(0.3 -0.3)">
     <defs>
      <path id="CMR17-59" d="M 3706 3766 
C 3955 4160 4301 4160 4416 4160 
L 4416 4332 
C 4269 4319 4102 4319 3942 4319 
C 3782 4319 3526 4319 3373 4332 
L 3373 4160 
C 3533 4160 3616 4077 3616 3957 
C 3616 3881 3584 3830 3533 3747 
L 2381 1912 
L 1120 3912 
C 1075 3988 1069 3994 1069 4039 
C 1069 4160 1293 4160 1382 4160 
L 1382 4319 
C 1178 4319 864 4319 653 4319 
C 486 4319 166 4319 13 4332 
L 13 4160 
C 378 4160 480 4141 595 3958 
L 2010 1728 
L 2010 445 
C 2010 160 1939 160 1498 160 
L 1498 0 
C 1683 0 2016 0 2214 0 
C 2413 0 2752 0 2938 0 
L 2938 160 
C 2477 160 2419 160 2419 471 
L 2419 1728 
L 3706 3766 
z
" transform="scale(0.015625)"/>
      <path id="CMR17-65" d="M 2438 1472 
C 2464 1498 2464 1511 2464 1576 
C 2464 2238 2118 2816 1389 2816 
C 710 2816 173 2169 173 1383 
C 173 551 781 -64 1459 -64 
C 2176 -64 2458 607 2458 740 
C 2458 784 2419 784 2406 784 
C 2362 784 2355 771 2330 696 
C 2189 265 1837 51 1504 51 
C 1229 51 954 203 781 480 
C 582 803 582 1176 582 1472 
L 2438 1472 
z
M 589 1568 
C 634 2505 1126 2714 1382 2714 
C 1818 2714 2112 2297 2118 1568 
L 589 1568 
z
" transform="scale(0.015625)"/>
      <path id="CMR17-61" d="M 2304 1653 
C 2304 2072 2304 2294 2035 2543 
C 1798 2752 1523 2816 1306 2816 
C 800 2816 435 2407 435 1971 
C 435 1728 627 1728 666 1728 
C 749 1728 896 1778 896 1954 
C 896 2112 774 2181 666 2181 
C 640 2181 608 2174 589 2168 
C 723 2592 1069 2714 1293 2714 
C 1613 2714 1965 2429 1965 1885 
L 1965 1600 
C 1587 1600 1133 1549 774 1357 
C 371 1133 256 813 256 570 
C 256 77 832 -64 1171 -64 
C 1523 -64 1850 139 1990 511 
C 2003 233 2182 -18 2464 -18 
C 2598 -18 2938 70 2938 567 
L 2938 920 
L 2822 920 
L 2822 562 
C 2822 178 2650 128 2566 128 
C 2304 128 2304 458 2304 738 
L 2304 1653 
z
M 1965 870 
C 1965 317 1568 38 1216 38 
C 896 38 646 275 646 570 
C 646 761 730 1100 1101 1305 
C 1408 1478 1760 1504 1965 1504 
L 1965 870 
z
" transform="scale(0.015625)"/>
      <path id="CMR17-72" d="M 960 1497 
C 960 2112 1222 2688 1702 2688 
C 1747 2688 1792 2682 1837 2662 
C 1837 2662 1696 2617 1696 2452 
C 1696 2298 1818 2234 1914 2234 
C 1990 2234 2131 2279 2131 2458 
C 2131 2663 1926 2790 1709 2790 
C 1222 2790 1011 2317 947 2093 
L 941 2093 
L 941 2790 
L 198 2720 
L 198 2554 
C 576 2554 634 2515 634 2208 
L 634 428 
C 634 184 608 153 198 153 
L 198 -13 
C 352 0 646 0 813 0 
C 998 0 1325 0 1498 -13 
L 1498 153 
C 1037 153 960 153 960 440 
L 960 1497 
z
" transform="scale(0.015625)"/>
      <path id="CMR17-3a" d="M 1062 2491 
C 1062 2650 934 2752 800 2752 
C 672 2752 538 2650 538 2491 
C 538 2332 666 2230 800 2230 
C 928 2230 1062 2332 1062 2491 
z
M 1062 261 
C 1062 420 934 522 800 522 
C 672 522 538 420 538 261 
C 538 102 666 0 800 0 
C 928 0 1062 102 1062 261 
z
" transform="scale(0.015625)"/>
      <path id="CMR17-31" d="M 1702 4058 
C 1702 4192 1696 4192 1606 4192 
C 1357 3916 979 3827 621 3827 
C 602 3827 570 3827 563 3808 
C 557 3795 557 3782 557 3648 
C 755 3648 1088 3686 1344 3839 
L 1344 461 
C 1344 236 1331 160 781 160 
L 589 160 
L 589 0 
C 896 0 1216 0 1523 0 
C 1830 0 2150 0 2458 0 
L 2458 160 
L 2266 160 
C 1715 160 1702 230 1702 458 
L 1702 4058 
z
" transform="scale(0.015625)"/>
      <path id="CMR17-38" d="M 1741 2264 
C 2144 2467 2554 2773 2554 3263 
C 2554 3841 1990 4179 1472 4179 
C 890 4179 378 3759 378 3180 
C 378 3021 416 2747 666 2505 
C 730 2442 998 2251 1171 2130 
C 883 1983 211 1634 211 934 
C 211 279 838 -128 1459 -128 
C 2144 -128 2720 362 2720 1010 
C 2720 1590 2330 1857 2074 2029 
L 1741 2264 
z
M 902 2822 
C 851 2854 595 3051 595 3351 
C 595 3739 998 4032 1459 4032 
C 1965 4032 2336 3676 2336 3262 
C 2336 2669 1670 2331 1638 2331 
C 1632 2331 1626 2331 1574 2370 
L 902 2822 
z
M 2080 1519 
C 2176 1449 2483 1240 2483 851 
C 2483 381 2010 25 1472 25 
C 890 25 448 438 448 940 
C 448 1443 838 1862 1280 2060 
L 2080 1519 
z
" transform="scale(0.015625)"/>
      <path id="CMR17-30" d="M 2688 2025 
C 2688 2416 2682 3080 2413 3591 
C 2176 4039 1798 4198 1466 4198 
C 1158 4198 768 4058 525 3597 
C 269 3118 243 2524 243 2025 
C 243 1661 250 1106 448 619 
C 723 -39 1216 -128 1466 -128 
C 1760 -128 2208 -7 2470 600 
C 2662 1042 2688 1559 2688 2025 
z
M 1466 -26 
C 1056 -26 813 325 723 812 
C 653 1188 653 1738 653 2096 
C 653 2588 653 2997 736 3387 
C 858 3929 1216 4096 1466 4096 
C 1728 4096 2067 3923 2189 3400 
C 2272 3036 2278 2607 2278 2096 
C 2278 1680 2278 1169 2202 792 
C 2067 95 1690 -26 1466 -26 
z
" transform="scale(0.015625)"/>
      <path id="CMR17-33" d="M 1414 2157 
C 1984 2157 2234 1662 2234 1090 
C 2234 320 1824 25 1453 25 
C 1114 25 563 194 390 693 
C 422 680 454 680 486 680 
C 640 680 755 782 755 948 
C 755 1133 614 1216 486 1216 
C 378 1216 211 1165 211 926 
C 211 335 787 -128 1466 -128 
C 2176 -128 2720 430 2720 1085 
C 2720 1707 2208 2157 1600 2227 
C 2086 2328 2554 2756 2554 3329 
C 2554 3820 2048 4179 1472 4179 
C 890 4179 378 3829 378 3329 
C 378 3110 544 3072 627 3072 
C 762 3072 877 3155 877 3321 
C 877 3486 762 3569 627 3569 
C 602 3569 570 3569 544 3557 
C 730 3959 1235 4032 1459 4032 
C 1683 4032 2106 3925 2106 3320 
C 2106 3143 2080 2828 1862 2550 
C 1670 2304 1453 2304 1242 2284 
C 1210 2284 1062 2269 1037 2269 
C 992 2263 966 2257 966 2208 
C 966 2163 973 2157 1101 2157 
L 1414 2157 
z
" transform="scale(0.015625)"/>
     </defs>
     <use xlink:href="#CMR17-59" transform="scale(0.996264)"/>
     <use xlink:href="#CMR17-65" transform="translate(61.265174 0) scale(0.996264)"/>
     <use xlink:href="#CMR17-61" transform="translate(101.750835 0) scale(0.996264)"/>
     <use xlink:href="#CMR17-72" transform="translate(147.441312 0) scale(0.996264)"/>
     <use xlink:href="#CMR17-3a" transform="translate(182.72208 0) scale(0.996264)"/>
     <use xlink:href="#CMR17-31" transform="translate(248.078799 0) scale(0.996264)"/>
     <use xlink:href="#CMR17-38" transform="translate(293.769276 0) scale(0.996264)"/>
     <use xlink:href="#CMR17-30" transform="translate(339.459753 0) scale(0.996264)"/>
     <use xlink:href="#CMR17-33" transform="translate(385.15023 0) scale(0.996264)"/>
    </g>
   </g>
  </g>
  <g id="axes_2">
   <g id="patch_7">
    <path d="M 717.33359 853.2 
L 759.45359 853.2 
L 759.45359 10.8 
L 717.33359 10.8 
z
" style="fill: #ffffff"/>
   </g>
   <g id="QuadMesh_1">
    <path d="M 717.33359 853.2 
L 759.45359 853.2 
L 759.45359 747.9 
L 717.33359 747.9 
L 717.33359 853.2 
" clip-path="url(#p0dfc12aaec)" style="fill: #ad35ca"/>
    <path d="M 717.33359 747.9 
L 759.45359 747.9 
L 759.45359 642.6 
L 717.33359 642.6 
L 717.33359 747.9 
" clip-path="url(#p0dfc12aaec)" style="fill: #8f81b5"/>
    <path d="M 717.33359 642.6 
L 759.45359 642.6 
L 759.45359 537.3 
L 717.33359 537.3 
L 717.33359 642.6 
" clip-path="url(#p0dfc12aaec)" style="fill: #879dba"/>
    <path d="M 717.33359 537.3 
L 759.45359 537.3 
L 759.45359 432 
L 717.33359 432 
L 717.33359 537.3 
" clip-path="url(#p0dfc12aaec)" style="fill: #7bb4be"/>
    <path d="M 717.33359 432 
L 759.45359 432 
L 759.45359 326.7 
L 717.33359 326.7 
L 717.33359 432 
" clip-path="url(#p0dfc12aaec)" style="fill: #79c6b7"/>
    <path d="M 717.33359 326.7 
L 759.45359 326.7 
L 759.45359 221.4 
L 717.33359 221.4 
L 717.33359 326.7 
" clip-path="url(#p0dfc12aaec)" style="fill: #a1ccad"/>
    <path d="M 717.33359 221.4 
L 759.45359 221.4 
L 759.45359 116.1 
L 717.33359 116.1 
L 717.33359 221.4 
" clip-path="url(#p0dfc12aaec)" style="fill: #c1d59b"/>
    <path d="M 717.33359 116.1 
L 759.45359 116.1 
L 759.45359 10.8 
L 717.33359 10.8 
L 717.33359 116.1 
" clip-path="url(#p0dfc12aaec)" style="fill: #e4dc96"/>
   </g>
   <g id="matplotlib.axis_3"/>
   <g id="matplotlib.axis_4">
    <g id="ytick_9">
     <g id="line2d_1">
      <defs>
       <path id="m7ac8784a8c" d="M 0 0 
L 3.5 0 
" style="stroke: #000000; stroke-width: 0.8"/>
      </defs>
      <g>
       <use xlink:href="#m7ac8784a8c" x="759.45359" y="800.55" style="stroke: #000000; stroke-width: 0.8"/>
      </g>
     </g>
     <g id="text_2">
      <!-- 0 -->
      <g transform="translate(766.45359 811.619603) scale(0.32 -0.32)">
       <use xlink:href="#CMR17-30" transform="scale(0.996264)"/>
      </g>
     </g>
    </g>
    <g id="ytick_10">
     <g id="line2d_2">
      <g>
       <use xlink:href="#m7ac8784a8c" x="759.45359" y="695.25" style="stroke: #000000; stroke-width: 0.8"/>
      </g>
     </g>
     <g id="text_3">
      <!-- 1 -->
      <g transform="translate(766.45359 706.319603) scale(0.32 -0.32)">
       <use xlink:href="#CMR17-31" transform="scale(0.996264)"/>
      </g>
     </g>
    </g>
    <g id="ytick_11">
     <g id="line2d_3">
      <g>
       <use xlink:href="#m7ac8784a8c" x="759.45359" y="589.95" style="stroke: #000000; stroke-width: 0.8"/>
      </g>
     </g>
     <g id="text_4">
      <!-- 2 -->
      <g transform="translate(766.45359 601.019603) scale(0.32 -0.32)">
       <defs>
        <path id="CMR17-32" d="M 2669 989 
L 2554 989 
C 2490 536 2438 459 2413 420 
C 2381 369 1920 369 1830 369 
L 602 369 
C 832 619 1280 1072 1824 1597 
C 2214 1967 2669 2402 2669 3035 
C 2669 3790 2067 4224 1395 4224 
C 691 4224 262 3604 262 3030 
C 262 2780 448 2748 525 2748 
C 589 2748 781 2787 781 3010 
C 781 3207 614 3264 525 3264 
C 486 3264 448 3258 422 3245 
C 544 3790 915 4058 1306 4058 
C 1862 4058 2227 3617 2227 3035 
C 2227 2479 1901 2000 1536 1584 
L 262 146 
L 262 0 
L 2515 0 
L 2669 989 
z
" transform="scale(0.015625)"/>
       </defs>
       <use xlink:href="#CMR17-32" transform="scale(0.996264)"/>
      </g>
     </g>
    </g>
    <g id="ytick_12">
     <g id="line2d_4">
      <g>
       <use xlink:href="#m7ac8784a8c" x="759.45359" y="484.65" style="stroke: #000000; stroke-width: 0.8"/>
      </g>
     </g>
     <g id="text_5">
      <!-- 3 -->
      <g transform="translate(766.45359 495.719603) scale(0.32 -0.32)">
       <use xlink:href="#CMR17-33" transform="scale(0.996264)"/>
      </g>
     </g>
    </g>
    <g id="ytick_13">
     <g id="line2d_5">
      <g>
       <use xlink:href="#m7ac8784a8c" x="759.45359" y="379.35" style="stroke: #000000; stroke-width: 0.8"/>
      </g>
     </g>
     <g id="text_6">
      <!-- 4 -->
      <g transform="translate(766.45359 390.419603) scale(0.32 -0.32)">
       <defs>
        <path id="CMR17-34" d="M 2150 4122 
C 2150 4256 2144 4256 2029 4256 
L 128 1254 
L 128 1088 
L 1779 1088 
L 1779 457 
C 1779 224 1766 160 1318 160 
L 1197 160 
L 1197 0 
C 1402 0 1747 0 1965 0 
C 2182 0 2528 0 2733 0 
L 2733 160 
L 2611 160 
C 2163 160 2150 224 2150 457 
L 2150 1088 
L 2803 1088 
L 2803 1254 
L 2150 1254 
L 2150 4122 
z
M 1798 3703 
L 1798 1254 
L 256 1254 
L 1798 3703 
z
" transform="scale(0.015625)"/>
       </defs>
       <use xlink:href="#CMR17-34" transform="scale(0.996264)"/>
      </g>
     </g>
    </g>
    <g id="ytick_14">
     <g id="line2d_6">
      <g>
       <use xlink:href="#m7ac8784a8c" x="759.45359" y="274.05" style="stroke: #000000; stroke-width: 0.8"/>
      </g>
     </g>
     <g id="text_7">
      <!-- 5 -->
      <g transform="translate(766.45359 285.119603) scale(0.32 -0.32)">
       <defs>
        <path id="CMR17-35" d="M 730 3692 
C 794 3666 1056 3584 1325 3584 
C 1920 3584 2246 3911 2432 4100 
C 2432 4157 2432 4192 2394 4192 
C 2387 4192 2374 4192 2323 4163 
C 2099 4058 1837 3973 1517 3973 
C 1325 3973 1037 3999 723 4139 
C 653 4171 640 4171 634 4171 
C 602 4171 595 4164 595 4037 
L 595 2203 
C 595 2089 595 2057 659 2057 
C 691 2057 704 2070 736 2114 
C 941 2401 1222 2522 1542 2522 
C 1766 2522 2246 2382 2246 1289 
C 2246 1085 2246 715 2054 421 
C 1894 159 1645 25 1370 25 
C 947 25 518 320 403 814 
C 429 807 480 795 506 795 
C 589 795 749 840 749 1038 
C 749 1210 627 1280 506 1280 
C 358 1280 262 1190 262 1011 
C 262 454 704 -128 1382 -128 
C 2042 -128 2669 440 2669 1264 
C 2669 2030 2170 2624 1549 2624 
C 1222 2624 947 2503 730 2274 
L 730 3692 
z
" transform="scale(0.015625)"/>
       </defs>
       <use xlink:href="#CMR17-35" transform="scale(0.996264)"/>
      </g>
     </g>
    </g>
    <g id="ytick_15">
     <g id="line2d_7">
      <g>
       <use xlink:href="#m7ac8784a8c" x="759.45359" y="168.75" style="stroke: #000000; stroke-width: 0.8"/>
      </g>
     </g>
     <g id="text_8">
      <!-- 6 -->
      <g transform="translate(766.45359 179.819603) scale(0.32 -0.32)">
       <defs>
        <path id="CMR17-36" d="M 678 2176 
C 678 3690 1395 4032 1811 4032 
C 1946 4032 2272 4009 2400 3776 
C 2298 3776 2106 3776 2106 3553 
C 2106 3381 2246 3323 2336 3323 
C 2394 3323 2566 3348 2566 3560 
C 2566 3954 2246 4179 1805 4179 
C 1043 4179 243 3390 243 1984 
C 243 253 966 -128 1478 -128 
C 2099 -128 2688 427 2688 1283 
C 2688 2081 2170 2662 1517 2662 
C 1126 2662 838 2407 678 1960 
L 678 2176 
z
M 1478 25 
C 691 25 691 1200 691 1436 
C 691 1896 909 2560 1504 2560 
C 1613 2560 1926 2560 2138 2120 
C 2253 1870 2253 1609 2253 1289 
C 2253 944 2253 690 2118 434 
C 1978 171 1773 25 1478 25 
z
" transform="scale(0.015625)"/>
       </defs>
       <use xlink:href="#CMR17-36" transform="scale(0.996264)"/>
      </g>
     </g>
    </g>
    <g id="ytick_16">
     <g id="line2d_8">
      <g>
       <use xlink:href="#m7ac8784a8c" x="759.45359" y="63.45" style="stroke: #000000; stroke-width: 0.8"/>
      </g>
     </g>
     <g id="text_9">
      <!-- 7 -->
      <g transform="translate(766.45359 74.519603) scale(0.32 -0.32)">
       <defs>
        <path id="CMR17-37" d="M 2886 3941 
L 2886 4081 
L 1382 4081 
C 634 4081 621 4165 595 4288 
L 480 4288 
L 294 3094 
L 410 3094 
C 429 3215 474 3540 550 3661 
C 589 3712 1062 3712 1171 3712 
L 2579 3712 
L 1869 2661 
C 1395 1954 1069 999 1069 165 
C 1069 89 1069 -128 1299 -128 
C 1530 -128 1530 89 1530 171 
L 1530 465 
C 1530 1508 1709 2196 2003 2636 
L 2886 3941 
z
" transform="scale(0.015625)"/>
       </defs>
       <use xlink:href="#CMR17-37" transform="scale(0.996264)"/>
      </g>
     </g>
    </g>
    <g id="ytick_17">
     <g id="line2d_9">
      <defs>
       <path id="m40fd450d00" d="M 0 0 
L 2 0 
" style="stroke: #000000; stroke-width: 0.6"/>
      </defs>
      <g>
       <use xlink:href="#m40fd450d00" x="759.45359" y="853.2" style="stroke: #000000; stroke-width: 0.6"/>
      </g>
     </g>
    </g>
    <g id="ytick_18">
     <g id="line2d_10">
      <g>
       <use xlink:href="#m40fd450d00" x="759.45359" y="747.9" style="stroke: #000000; stroke-width: 0.6"/>
      </g>
     </g>
    </g>
    <g id="ytick_19">
     <g id="line2d_11">
      <g>
       <use xlink:href="#m40fd450d00" x="759.45359" y="642.6" style="stroke: #000000; stroke-width: 0.6"/>
      </g>
     </g>
    </g>
    <g id="ytick_20">
     <g id="line2d_12">
      <g>
       <use xlink:href="#m40fd450d00" x="759.45359" y="537.3" style="stroke: #000000; stroke-width: 0.6"/>
      </g>
     </g>
    </g>
    <g id="ytick_21">
     <g id="line2d_13">
      <g>
       <use xlink:href="#m40fd450d00" x="759.45359" y="432" style="stroke: #000000; stroke-width: 0.6"/>
      </g>
     </g>
    </g>
    <g id="ytick_22">
     <g id="line2d_14">
      <g>
       <use xlink:href="#m40fd450d00" x="759.45359" y="326.7" style="stroke: #000000; stroke-width: 0.6"/>
      </g>
     </g>
    </g>
    <g id="ytick_23">
     <g id="line2d_15">
      <g>
       <use xlink:href="#m40fd450d00" x="759.45359" y="221.4" style="stroke: #000000; stroke-width: 0.6"/>
      </g>
     </g>
    </g>
    <g id="ytick_24">
     <g id="line2d_16">
      <g>
       <use xlink:href="#m40fd450d00" x="759.45359" y="116.1" style="stroke: #000000; stroke-width: 0.6"/>
      </g>
     </g>
    </g>
    <g id="ytick_25">
     <g id="line2d_17">
      <g>
       <use xlink:href="#m40fd450d00" x="759.45359" y="10.8" style="stroke: #000000; stroke-width: 0.6"/>
      </g>
     </g>
    </g>
    <g id="text_10">
     <!-- Node Depth -->
     <g transform="translate(828.899641 543.95779) rotate(-90) scale(0.46 -0.46)">
      <defs>
       <path id="CMR17-4e" d="M 1312 4250 
C 1267 4320 1261 4320 1139 4320 
L 326 4320 
L 326 4160 
L 448 4160 
C 704 4160 819 4129 838 4122 
L 838 610 
C 838 451 838 153 326 153 
L 326 -13 
C 474 0 742 0 902 0 
C 1062 0 1331 0 1478 -13 
L 1478 153 
C 966 153 966 451 966 610 
L 966 4033 
C 1011 3995 1011 3982 1056 3919 
L 3430 76 
C 3475 0 3494 0 3526 0 
C 3590 0 3590 19 3590 139 
L 3590 3705 
C 3590 3863 3590 4160 4102 4160 
L 4102 4326 
C 3955 4320 3686 4320 3526 4320 
C 3366 4320 3098 4320 2950 4326 
L 2950 4160 
C 3462 4160 3462 3862 3462 3703 
L 3462 763 
L 1312 4250 
z
" transform="scale(0.015625)"/>
       <path id="CMR17-6f" d="M 2758 1356 
C 2758 2176 2163 2816 1466 2816 
C 768 2816 173 2176 173 1356 
C 173 551 768 -64 1466 -64 
C 2163 -64 2758 551 2758 1356 
z
M 1466 51 
C 1165 51 909 230 762 480 
C 602 767 582 1126 582 1408 
C 582 1677 595 2010 762 2298 
C 890 2509 1139 2714 1466 2714 
C 1754 2714 1997 2554 2150 2330 
C 2349 2029 2349 1607 2349 1408 
C 2349 1158 2336 775 2163 467 
C 1984 173 1709 51 1466 51 
z
" transform="scale(0.015625)"/>
       <path id="CMR17-64" d="M 1869 4326 
L 1869 4160 
C 2246 4160 2304 4122 2304 3820 
L 2304 2345 
C 2278 2377 2016 2790 1498 2790 
C 845 2790 211 2208 211 1364 
C 211 525 806 -64 1434 -64 
C 1978 -64 2259 337 2291 380 
L 2291 -63 
L 3066 -63 
L 3066 128 
C 2688 128 2630 166 2630 473 
L 2630 4396 
L 1869 4326 
z
M 2291 755 
C 2291 563 2176 390 2029 262 
C 1811 70 1594 38 1472 38 
C 1286 38 621 134 621 1356 
C 621 2612 1363 2688 1530 2688 
C 1824 2688 2061 2522 2208 2291 
C 2291 2157 2291 2138 2291 2023 
L 2291 755 
z
" transform="scale(0.015625)"/>
       <path id="CMR17-44" d="M 333 4352 
L 333 4186 
C 774 4186 845 4186 845 3900 
L 845 452 
C 845 166 774 166 333 166 
L 333 0 
L 2368 0 
C 3398 0 4224 943 4224 2141 
C 4224 3346 3411 4352 2368 4352 
L 333 4352 
z
M 1523 166 
C 1267 166 1254 197 1254 414 
L 1254 3938 
C 1254 4155 1267 4186 1523 4186 
L 2240 4186 
C 2771 4186 3750 3874 3750 2141 
C 3750 1242 3488 879 3366 707 
C 3213 510 2848 166 2240 166 
L 1523 166 
z
" transform="scale(0.015625)"/>
       <path id="CMR17-70" d="M 1408 -1063 
C 998 -1063 973 -1037 973 -789 
L 973 402 
C 1158 134 1427 -38 1766 -38 
C 2406 -38 3053 523 3053 1388 
C 3053 2191 2496 2802 1837 2802 
C 1453 2802 1139 2592 960 2338 
L 960 2802 
L 198 2732 
L 198 2567 
C 576 2567 634 2528 634 2223 
L 634 -789 
C 634 -1031 608 -1063 198 -1063 
L 198 -1228 
C 352 -1216 634 -1216 800 -1216 
C 966 -1216 1254 -1216 1408 -1228 
L 1408 -1063 
z
M 973 2012 
C 973 2102 973 2235 1222 2471 
C 1254 2497 1472 2688 1792 2688 
C 2259 2688 2643 2108 2643 1382 
C 2643 656 2234 64 1728 64 
C 1498 64 1248 172 1056 472 
C 973 612 973 650 973 752 
L 973 2012 
z
" transform="scale(0.015625)"/>
       <path id="CMR17-74" d="M 966 2560 
L 1862 2560 
L 1862 2725 
L 966 2725 
L 966 3904 
L 851 3904 
C 838 3245 614 2668 70 2668 
L 70 2560 
L 627 2560 
L 627 771 
C 627 650 627 -64 1370 -64 
C 1747 -64 1965 306 1965 777 
L 1965 1140 
L 1850 1140 
L 1850 783 
C 1850 344 1677 51 1408 51 
C 1222 51 966 178 966 758 
L 966 2560 
z
" transform="scale(0.015625)"/>
       <path id="CMR17-68" d="M 2656 1933 
C 2656 2259 2592 2790 1837 2790 
C 1312 2790 1056 2368 979 2157 
L 973 2157 
L 973 4396 
L 211 4326 
L 211 4160 
C 589 4160 646 4122 646 3817 
L 646 426 
C 646 184 621 153 211 153 
L 211 -13 
C 365 0 646 0 813 0 
C 979 0 1267 0 1421 -13 
L 1421 153 
C 1011 153 986 178 986 428 
L 986 1658 
C 986 2247 1344 2688 1792 2688 
C 2266 2688 2317 2266 2317 1958 
L 2317 428 
C 2317 184 2291 153 1882 153 
L 1882 -13 
C 2035 0 2317 0 2483 0 
C 2650 0 2938 0 3091 -13 
L 3091 153 
C 2682 153 2656 178 2656 428 
L 2656 1933 
z
" transform="scale(0.015625)"/>
      </defs>
      <use xlink:href="#CMR17-4e" transform="scale(0.996264)"/>
      <use xlink:href="#CMR17-6f" transform="translate(69.07243 0) scale(0.996264)"/>
      <use xlink:href="#CMR17-64" transform="translate(117.365346 0) scale(0.996264)"/>
      <use xlink:href="#CMR17-65" transform="translate(168.260715 0) scale(0.996264)"/>
      <use xlink:href="#CMR17-44" transform="translate(238.822342 0) scale(0.996264)"/>
      <use xlink:href="#CMR17-65" transform="translate(309.215898 0) scale(0.996264)"/>
      <use xlink:href="#CMR17-70" transform="translate(349.701559 0) scale(0.996264)"/>
      <use xlink:href="#CMR17-74" transform="translate(400.596928 0) scale(0.996264)"/>
      <use xlink:href="#CMR17-68" transform="translate(435.877696 0) scale(0.996264)"/>
     </g>
    </g>
   </g>
   <g id="LineCollection_2"/>
   <g id="patch_8">
    <path d="M 717.33359 853.2 
L 738.39359 853.2 
L 759.45359 853.2 
L 759.45359 10.8 
L 738.39359 10.8 
L 717.33359 10.8 
L 717.33359 853.2 
z
" style="fill: none; stroke: #000000; stroke-width: 0.8; stroke-linejoin: miter; stroke-linecap: square"/>
   </g>
  </g>
 </g>
 <defs>
  <clipPath id="pe70eb3253f">
   <rect x="10.8" y="99.513605" width="664.972791" height="664.972791"/>
  </clipPath>
  <clipPath id="p0dfc12aaec">
   <rect x="717.33359" y="10.8" width="42.12" height="842.4"/>
  </clipPath>
 </defs>
</svg>
