<?xml version="1.0" encoding="utf-8" standalone="no"?>
<!DOCTYPE svg PUBLIC "-//W3C//DTD SVG 1.1//EN"
  "http://www.w3.org/Graphics/SVG/1.1/DTD/svg11.dtd">
<svg xmlns:xlink="http://www.w3.org/1999/xlink" width="864pt" height="864pt" viewBox="0 0 864 864" xmlns="http://www.w3.org/2000/svg" version="1.1">
 <metadata>
  <rdf:RDF xmlns:dc="http://purl.org/dc/elements/1.1/" xmlns:cc="http://creativecommons.org/ns#" xmlns:rdf="http://www.w3.org/1999/02/22-rdf-syntax-ns#">
   <cc:Work>
    <dc:type rdf:resource="http://purl.org/dc/dcmitype/StillImage"/>
    <dc:date>2026-06-09T22:33:56.985243</dc:date>
    <dc:format>image/svg+xml</dc:format>
    <dc:creator>
     <cc:Agent>
      <dc:title>Matplotlib v3.9.2, https://matplotlib.org/</dc:title>
     </cc:Agent>
    </dc:creator>
   </cc:Work>
  </rdf:RDF>
 </metadata>
 <defs>
  <style type="text/css">*{stroke-linejoin: round; stroke-linecap: butt}</style>
 </defs>
 <g id="figure_1">
  <g id="patch_1">
   <path d="M 0 864 
L 864 864 
L 864 0 
L 0 0 
z
" style="fill: #ffffff"/>
  </g>
  <g id="axes_1">
   <g id="patch_2">
    <path d="M 10.8 764.486395 
L 675.772791 764.486395 
L 675.772791 99.513605 
L 10.8 99.513605 
z
" style="fill: #ffffff"/>
   </g>
   <g id="LineCollection_1">
    <path d="M 644.707143 454.589764 
L 343.286395 432 
" clip-path="url(#p63377de413)" style="fill: none; stroke: #808080; stroke-opacity: 0.3"/>
    <path d="M 343.286395 432 
L 644.707143 409.410236 
" clip-path="url(#p63377de413)" style="fill: none; stroke: #808080; stroke-opacity: 0.3"/>
    <path d="M 343.286395 432 
L 637.990246 364.74707 
" clip-path="url(#p63377de413)" style="fill: none; stroke: #808080; stroke-opacity: 0.3"/>
    <path d="M 343.286395 432 
L 624.682394 321.591008 
" clip-path="url(#p63377de413)" style="fill: none; stroke: #808080; stroke-opacity: 0.3"/>
    <path d="M 343.286395 432 
L 605.077451 280.86982 
" clip-path="url(#p63377de413)" style="fill: none; stroke: #808080; stroke-opacity: 0.3"/>
    <path d="M 343.286395 432 
L 579.595224 243.549062 
" clip-path="url(#p63377de413)" style="fill: none; stroke: #808080; stroke-opacity: 0.3"/>
    <path d="M 343.286395 432 
L 548.907401 210.426364 
" clip-path="url(#p63377de413)" style="fill: none; stroke: #808080; stroke-opacity: 0.3"/>
    <path d="M 343.286395 432 
L 513.559731 182.257378 
" clip-path="url(#p63377de413)" style="fill: none; stroke: #808080; stroke-opacity: 0.3"/>
    <path d="M 343.286395 432 
L 474.433807 159.671812 
" clip-path="url(#p63377de413)" style="fill: none; stroke: #808080; stroke-opacity: 0.3"/>
    <path d="M 343.286395 432 
L 432.411221 143.173434 
" clip-path="url(#p63377de413)" style="fill: none; stroke: #808080; stroke-opacity: 0.3"/>
    <path d="M 343.286395 432 
L 388.331585 133.098089 
" clip-path="url(#p63377de413)" style="fill: none; stroke: #808080; stroke-opacity: 0.3"/>
    <path d="M 343.286395 432 
L 343.286395 129.739641 
" clip-path="url(#p63377de413)" style="fill: none; stroke: #808080; stroke-opacity: 0.3"/>
    <path d="M 343.286395 432 
L 298.241206 133.098089 
" clip-path="url(#p63377de413)" style="fill: none; stroke: #808080; stroke-opacity: 0.3"/>
    <path d="M 343.286395 432 
L 254.203551 143.173434 
" clip-path="url(#p63377de413)" style="fill: none; stroke: #808080; stroke-opacity: 0.3"/>
    <path d="M 343.286395 432 
L 212.138984 159.671812 
" clip-path="url(#p63377de413)" style="fill: none; stroke: #808080; stroke-opacity: 0.3"/>
    <path d="M 343.286395 432 
L 173.01306 182.257378 
" clip-path="url(#p63377de413)" style="fill: none; stroke: #808080; stroke-opacity: 0.3"/>
    <path d="M 343.286395 432 
L 137.70737 210.426364 
" clip-path="url(#p63377de413)" style="fill: none; stroke: #808080; stroke-opacity: 0.3"/>
    <path d="M 343.286395 432 
L 106.977567 243.549062 
" clip-path="url(#p63377de413)" style="fill: none; stroke: #808080; stroke-opacity: 0.3"/>
    <path d="M 343.286395 432 
L 81.53732 280.86982 
" clip-path="url(#p63377de413)" style="fill: none; stroke: #808080; stroke-opacity: 0.3"/>
    <path d="M 343.286395 432 
L 61.932377 321.591008 
" clip-path="url(#p63377de413)" style="fill: none; stroke: #808080; stroke-opacity: 0.3"/>
    <path d="M 343.286395 432 
L 48.624526 364.74707 
" clip-path="url(#p63377de413)" style="fill: none; stroke: #808080; stroke-opacity: 0.3"/>
    <path d="M 343.286395 432 
L 41.865648 409.410236 
" clip-path="url(#p63377de413)" style="fill: none; stroke: #808080; stroke-opacity: 0.3"/>
    <path d="M 343.286395 432 
L 41.865648 454.589764 
" clip-path="url(#p63377de413)" style="fill: none; stroke: #808080; stroke-opacity: 0.3"/>
    <path d="M 343.286395 432 
L 48.624526 499.261326 
" clip-path="url(#p63377de413)" style="fill: none; stroke: #808080; stroke-opacity: 0.3"/>
    <path d="M 343.286395 432 
L 61.932377 542.429983 
" clip-path="url(#p63377de413)" style="fill: none; stroke: #808080; stroke-opacity: 0.3"/>
    <path d="M 343.286395 432 
L 81.53732 583.13018 
" clip-path="url(#p63377de413)" style="fill: none; stroke: #808080; stroke-opacity: 0.3"/>
    <path d="M 343.286395 432 
L 106.977567 620.455136 
" clip-path="url(#p63377de413)" style="fill: none; stroke: #808080; stroke-opacity: 0.3"/>
    <path d="M 343.286395 432 
L 137.70737 653.573636 
" clip-path="url(#p63377de413)" style="fill: none; stroke: #808080; stroke-opacity: 0.3"/>
    <path d="M 343.286395 432 
L 173.01306 681.738424 
" clip-path="url(#p63377de413)" style="fill: none; stroke: #808080; stroke-opacity: 0.3"/>
    <path d="M 343.286395 432 
L 212.138984 704.328188 
" clip-path="url(#p63377de413)" style="fill: none; stroke: #808080; stroke-opacity: 0.3"/>
    <path d="M 343.286395 432 
L 254.203551 720.830764 
" clip-path="url(#p63377de413)" style="fill: none; stroke: #808080; stroke-opacity: 0.3"/>
    <path d="M 343.286395 432 
L 298.241206 730.885119 
" clip-path="url(#p63377de413)" style="fill: none; stroke: #808080; stroke-opacity: 0.3"/>
    <path d="M 343.286395 432 
L 343.286395 734.260359 
" clip-path="url(#p63377de413)" style="fill: none; stroke: #808080; stroke-opacity: 0.3"/>
    <path d="M 343.286395 432 
L 388.331585 730.885119 
" clip-path="url(#p63377de413)" style="fill: none; stroke: #808080; stroke-opacity: 0.3"/>
    <path d="M 343.286395 432 
L 432.411221 720.830764 
" clip-path="url(#p63377de413)" style="fill: none; stroke: #808080; stroke-opacity: 0.3"/>
    <path d="M 343.286395 432 
L 474.433807 704.328188 
" clip-path="url(#p63377de413)" style="fill: none; stroke: #808080; stroke-opacity: 0.3"/>
    <path d="M 343.286395 432 
L 513.559731 681.738424 
" clip-path="url(#p63377de413)" style="fill: none; stroke: #808080; stroke-opacity: 0.3"/>
    <path d="M 343.286395 432 
L 548.907401 653.573636 
" clip-path="url(#p63377de413)" style="fill: none; stroke: #808080; stroke-opacity: 0.3"/>
    <path d="M 343.286395 432 
L 579.595224 620.455136 
" clip-path="url(#p63377de413)" style="fill: none; stroke: #808080; stroke-opacity: 0.3"/>
    <path d="M 343.286395 432 
L 605.077451 583.13018 
" clip-path="url(#p63377de413)" style="fill: none; stroke: #808080; stroke-opacity: 0.3"/>
    <path d="M 343.286395 432 
L 624.682394 542.429983 
" clip-path="url(#p63377de413)" style="fill: none; stroke: #808080; stroke-opacity: 0.3"/>
    <path d="M 343.286395 432 
L 637.990246 499.261326 
" clip-path="url(#p63377de413)" style="fill: none; stroke: #808080; stroke-opacity: 0.3"/>
   </g>
   <g id="matplotlib.axis_1">
    <g id="xtick_1"/>
    <g id="xtick_2"/>
    <g id="xtick_3"/>
    <g id="xtick_4"/>
    <g id="xtick_5"/>
    <g id="xtick_6"/>
    <g id="xtick_7"/>
   </g>
   <g id="matplotlib.axis_2">
    <g id="ytick_1"/>
    <g id="ytick_2"/>
    <g id="ytick_3"/>
    <g id="ytick_4"/>
    <g id="ytick_5"/>
    <g id="ytick_6"/>
    <g id="ytick_7"/>
    <g id="ytick_8"/>
   </g>
   <g id="PathCollection_1">
    <path d="M 644.707143 465.770104 
C 647.672203 465.770104 650.516222 464.592073 652.612837 462.495458 
C 654.709451 460.398843 655.887483 457.554825 655.887483 454.589764 
C 655.887483 451.624703 654.709451 448.780684 652.612837 446.68407 
C 650.516222 444.587455 647.672203 443.409424 644.707143 443.409424 
C 641.742082 443.409424 638.898063 444.587455 636.801448 446.68407 
C 634.704834 448.780684 633.526803 451.624703 633.526803 454.589764 
C 633.526803 457.554825 634.704834 460.398843 636.801448 462.495458 
C 638.898063 464.592073 641.742082 465.770104 644.707143 465.770104 
z
" clip-path="url(#p63377de413)" style="fill: #ad35ca; stroke: #ad35ca"/>
    <path d="M 343.286395 439.071068 
C 345.161664 439.071068 346.96038 438.326015 348.286395 437 
C 349.612411 435.673985 350.357463 433.875269 350.357463 432 
C 350.357463 430.124731 349.612411 428.326015 348.286395 427 
C 346.96038 425.673985 345.161664 424.928932 343.286395 424.928932 
C 341.411126 424.928932 339.612411 425.673985 338.286395 427 
C 336.96038 428.326015 336.215328 430.124731 336.215328 432 
C 336.215328 433.875269 336.96038 435.673985 338.286395 437 
C 339.612411 438.326015 341.411126 439.071068 343.286395 439.071068 
z
" clip-path="url(#p63377de413)" style="fill: #8f81b5; stroke: #8f81b5"/>
    <path d="M 644.707143 413.882372 
C 645.893167 413.882372 647.030774 413.41116 647.86942 412.572514 
C 648.708066 411.733868 649.179279 410.596261 649.179279 409.410236 
C 649.179279 408.224212 648.708066 407.086604 647.86942 406.247959 
C 647.030774 405.409313 645.893167 404.9381 644.707143 404.9381 
C 643.521118 404.9381 642.383511 405.409313 641.544865 406.247959 
C 640.706219 407.086604 640.235007 408.224212 640.235007 409.410236 
C 640.235007 410.596261 640.706219 411.733868 641.544865 412.572514 
C 642.383511 413.41116 643.521118 413.882372 644.707143 413.882372 
z
" clip-path="url(#p63377de413)" style="fill: #879dba; stroke: #879dba"/>
    <path d="M 637.990246 369.219206 
C 639.17627 369.219206 640.313878 368.747994 641.152523 367.909348 
C 641.991169 367.070702 642.462382 365.933094 642.462382 364.74707 
C 642.462382 363.561046 641.991169 362.423438 641.152523 361.584792 
C 640.313878 360.746147 639.17627 360.274934 637.990246 360.274934 
C 636.804221 360.274934 635.666614 360.746147 634.827968 361.584792 
C 633.989322 362.423438 633.51811 363.561046 633.51811 364.74707 
C 633.51811 365.933094 633.989322 367.070702 634.827968 367.909348 
C 635.666614 368.747994 636.804221 369.219206 637.990246 369.219206 
z
" clip-path="url(#p63377de413)" style="fill: #879dba; stroke: #879dba"/>
    <path d="M 624.682394 326.063144 
C 625.868418 326.063144 627.006026 325.591931 627.844671 324.753285 
C 628.683317 323.914639 629.15453 322.777032 629.15453 321.591008 
C 629.15453 320.404983 628.683317 319.267376 627.844671 318.42873 
C 627.006026 317.590084 625.868418 317.118872 624.682394 317.118872 
C 623.49637 317.118872 622.358762 317.590084 621.520116 318.42873 
C 620.68147 319.267376 620.210258 320.404983 620.210258 321.591008 
C 620.210258 322.777032 620.68147 323.914639 621.520116 324.753285 
C 622.358762 325.591931 623.49637 326.063144 624.682394 326.063144 
z
" clip-path="url(#p63377de413)" style="fill: #879dba; stroke: #879dba"/>
    <path d="M 605.077451 285.341956 
C 606.263475 285.341956 607.401083 284.870744 608.239729 284.032098 
C 609.078375 283.193452 609.549587 282.055845 609.549587 280.86982 
C 609.549587 279.683796 609.078375 278.546188 608.239729 277.707543 
C 607.401083 276.868897 606.263475 276.397684 605.077451 276.397684 
C 603.891427 276.397684 602.753819 276.868897 601.915173 277.707543 
C 601.076528 278.546188 600.605315 279.683796 600.605315 280.86982 
C 600.605315 282.055845 601.076528 283.193452 601.915173 284.032098 
C 602.753819 284.870744 603.891427 285.341956 605.077451 285.341956 
z
" clip-path="url(#p63377de413)" style="fill: #879dba; stroke: #879dba"/>
    <path d="M 579.595224 248.021198 
C 580.781248 248.021198 581.918855 247.549986 582.757501 246.71134 
C 583.596147 245.872694 584.067359 244.735086 584.067359 243.549062 
C 584.067359 242.363038 583.596147 241.22543 582.757501 240.386784 
C 581.918855 239.548139 580.781248 239.076926 579.595224 239.076926 
C 578.409199 239.076926 577.271592 239.548139 576.432946 240.386784 
C 575.5943 241.22543 575.123088 242.363038 575.123088 243.549062 
C 575.123088 244.735086 575.5943 245.872694 576.432946 246.71134 
C 577.271592 247.549986 578.409199 248.021198 579.595224 248.021198 
z
" clip-path="url(#p63377de413)" style="fill: #879dba; stroke: #879dba"/>
    <path d="M 548.907401 214.8985 
C 550.093425 214.8985 551.231033 214.427288 552.069679 213.588642 
C 552.908324 212.749996 553.379537 211.612389 553.379537 210.426364 
C 553.379537 209.24034 552.908324 208.102732 552.069679 207.264087 
C 551.231033 206.425441 550.093425 205.954228 548.907401 205.954228 
C 547.721377 205.954228 546.583769 206.425441 545.745123 207.264087 
C 544.906477 208.102732 544.435265 209.24034 544.435265 210.426364 
C 544.435265 211.612389 544.906477 212.749996 545.745123 213.588642 
C 546.583769 214.427288 547.721377 214.8985 548.907401 214.8985 
z
" clip-path="url(#p63377de413)" style="fill: #879dba; stroke: #879dba"/>
    <path d="M 513.559731 186.729514 
C 514.745755 186.729514 515.883363 186.258302 516.722009 185.419656 
C 517.560655 184.58101 518.031867 183.443402 518.031867 182.257378 
C 518.031867 181.071354 517.560655 179.933746 516.722009 179.0951 
C 515.883363 178.256455 514.745755 177.785242 513.559731 177.785242 
C 512.373707 177.785242 511.236099 178.256455 510.397453 179.0951 
C 509.558808 179.933746 509.087595 181.071354 509.087595 182.257378 
C 509.087595 183.443402 509.558808 184.58101 510.397453 185.419656 
C 511.236099 186.258302 512.373707 186.729514 513.559731 186.729514 
z
" clip-path="url(#p63377de413)" style="fill: #879dba; stroke: #879dba"/>
    <path d="M 474.433807 164.143948 
C 475.619831 164.143948 476.757439 163.672736 477.596084 162.83409 
C 478.43473 161.995444 478.905943 160.857837 478.905943 159.671812 
C 478.905943 158.485788 478.43473 157.34818 477.596084 156.509535 
C 476.757439 155.670889 475.619831 155.199676 474.433807 155.199676 
C 473.247783 155.199676 472.110175 155.670889 471.271529 156.509535 
C 470.432883 157.34818 469.961671 158.485788 469.961671 159.671812 
C 469.961671 160.857837 470.432883 161.995444 471.271529 162.83409 
C 472.110175 163.672736 473.247783 164.143948 474.433807 164.143948 
z
" clip-path="url(#p63377de413)" style="fill: #879dba; stroke: #879dba"/>
    <path d="M 432.411221 147.64557 
C 433.597245 147.64557 434.734853 147.174358 435.573498 146.335712 
C 436.412144 145.497066 436.883357 144.359459 436.883357 143.173434 
C 436.883357 141.98741 436.412144 140.849803 435.573498 140.011157 
C 434.734853 139.172511 433.597245 138.701298 432.411221 138.701298 
C 431.225196 138.701298 430.087589 139.172511 429.248943 140.011157 
C 428.410297 140.849803 427.939085 141.98741 427.939085 143.173434 
C 427.939085 144.359459 428.410297 145.497066 429.248943 146.335712 
C 430.087589 147.174358 431.225196 147.64557 432.411221 147.64557 
z
" clip-path="url(#p63377de413)" style="fill: #879dba; stroke: #879dba"/>
    <path d="M 388.331585 137.570225 
C 389.517609 137.570225 390.655217 137.099013 391.493863 136.260367 
C 392.332509 135.421721 392.803721 134.284113 392.803721 133.098089 
C 392.803721 131.912065 392.332509 130.774457 391.493863 129.935811 
C 390.655217 129.097166 389.517609 128.625953 388.331585 128.625953 
C 387.145561 128.625953 386.007953 129.097166 385.169307 129.935811 
C 384.330662 130.774457 383.859449 131.912065 383.859449 133.098089 
C 383.859449 134.284113 384.330662 135.421721 385.169307 136.260367 
C 386.007953 137.099013 387.145561 137.570225 388.331585 137.570225 
z
" clip-path="url(#p63377de413)" style="fill: #879dba; stroke: #879dba"/>
    <path d="M 343.286395 134.211777 
C 344.47242 134.211777 345.610027 133.740564 346.448673 132.901918 
C 347.287319 132.063272 347.758531 130.925665 347.758531 129.739641 
C 347.758531 128.553616 347.287319 127.416009 346.448673 126.577363 
C 345.610027 125.738717 344.47242 125.267505 343.286395 125.267505 
C 342.100371 125.267505 340.962764 125.738717 340.124118 126.577363 
C 339.285472 127.416009 338.814259 128.553616 338.814259 129.739641 
C 338.814259 130.925665 339.285472 132.063272 340.124118 132.901918 
C 340.962764 133.740564 342.100371 134.211777 343.286395 134.211777 
z
" clip-path="url(#p63377de413)" style="fill: #879dba; stroke: #879dba"/>
    <path d="M 298.241206 137.570225 
C 299.42723 137.570225 300.564837 137.099013 301.403483 136.260367 
C 302.242129 135.421721 302.713342 134.284113 302.713342 133.098089 
C 302.713342 131.912065 302.242129 130.774457 301.403483 129.935811 
C 300.564837 129.097166 299.42723 128.625953 298.241206 128.625953 
C 297.055181 128.625953 295.917574 129.097166 295.078928 129.935811 
C 294.240282 130.774457 293.76907 131.912065 293.76907 133.098089 
C 293.76907 134.284113 294.240282 135.421721 295.078928 136.260367 
C 295.917574 137.099013 297.055181 137.570225 298.241206 137.570225 
z
" clip-path="url(#p63377de413)" style="fill: #879dba; stroke: #879dba"/>
    <path d="M 254.203551 147.64557 
C 255.389575 147.64557 256.527182 147.174358 257.365828 146.335712 
C 258.204474 145.497066 258.675686 144.359459 258.675686 143.173434 
C 258.675686 141.98741 258.204474 140.849803 257.365828 140.011157 
C 256.527182 139.172511 255.389575 138.701298 254.203551 138.701298 
C 253.017526 138.701298 251.879919 139.172511 251.041273 140.011157 
C 250.202627 140.849803 249.731415 141.98741 249.731415 143.173434 
C 249.731415 144.359459 250.202627 145.497066 251.041273 146.335712 
C 251.879919 147.174358 253.017526 147.64557 254.203551 147.64557 
z
" clip-path="url(#p63377de413)" style="fill: #879dba; stroke: #879dba"/>
    <path d="M 212.138984 164.143948 
C 213.325008 164.143948 214.462616 163.672736 215.301262 162.83409 
C 216.139907 161.995444 216.61112 160.857837 216.61112 159.671812 
C 216.61112 158.485788 216.139907 157.34818 215.301262 156.509535 
C 214.462616 155.670889 213.325008 155.199676 212.138984 155.199676 
C 210.95296 155.199676 209.815352 155.670889 208.976706 156.509535 
C 208.13806 157.34818 207.666848 158.485788 207.666848 159.671812 
C 207.666848 160.857837 208.13806 161.995444 208.976706 162.83409 
C 209.815352 163.672736 210.95296 164.143948 212.138984 164.143948 
z
" clip-path="url(#p63377de413)" style="fill: #879dba; stroke: #879dba"/>
    <path d="M 173.01306 186.729514 
C 174.199084 186.729514 175.336691 186.258302 176.175337 185.419656 
C 177.013983 184.58101 177.485195 183.443402 177.485195 182.257378 
C 177.485195 181.071354 177.013983 179.933746 176.175337 179.0951 
C 175.336691 178.256455 174.199084 177.785242 173.01306 177.785242 
C 171.827035 177.785242 170.689428 178.256455 169.850782 179.0951 
C 169.012136 179.933746 168.540924 181.071354 168.540924 182.257378 
C 168.540924 183.443402 169.012136 184.58101 169.850782 185.419656 
C 170.689428 186.258302 171.827035 186.729514 173.01306 186.729514 
z
" clip-path="url(#p63377de413)" style="fill: #879dba; stroke: #879dba"/>
    <path d="M 137.70737 214.8985 
C 138.893395 214.8985 140.031002 214.427288 140.869648 213.588642 
C 141.708294 212.749996 142.179506 211.612389 142.179506 210.426364 
C 142.179506 209.24034 141.708294 208.102732 140.869648 207.264087 
C 140.031002 206.425441 138.893395 205.954228 137.70737 205.954228 
C 136.521346 205.954228 135.383739 206.425441 134.545093 207.264087 
C 133.706447 208.102732 133.235234 209.24034 133.235234 210.426364 
C 133.235234 211.612389 133.706447 212.749996 134.545093 213.588642 
C 135.383739 214.427288 136.521346 214.8985 137.70737 214.8985 
z
" clip-path="url(#p63377de413)" style="fill: #879dba; stroke: #879dba"/>
    <path d="M 106.977567 248.021198 
C 108.163591 248.021198 109.301199 247.549986 110.139845 246.71134 
C 110.978491 245.872694 111.449703 244.735086 111.449703 243.549062 
C 111.449703 242.363038 110.978491 241.22543 110.139845 240.386784 
C 109.301199 239.548139 108.163591 239.076926 106.977567 239.076926 
C 105.791543 239.076926 104.653935 239.548139 103.815289 240.386784 
C 102.976644 241.22543 102.505431 242.363038 102.505431 243.549062 
C 102.505431 244.735086 102.976644 245.872694 103.815289 246.71134 
C 104.653935 247.549986 105.791543 248.021198 106.977567 248.021198 
z
" clip-path="url(#p63377de413)" style="fill: #879dba; stroke: #879dba"/>
    <path d="M 81.53732 285.341956 
C 82.723345 285.341956 83.860952 284.870744 84.699598 284.032098 
C 85.538244 283.193452 86.009456 282.055845 86.009456 280.86982 
C 86.009456 279.683796 85.538244 278.546188 84.699598 277.707543 
C 83.860952 276.868897 82.723345 276.397684 81.53732 276.397684 
C 80.351296 276.397684 79.213688 276.868897 78.375043 277.707543 
C 77.536397 278.546188 77.065184 279.683796 77.065184 280.86982 
C 77.065184 282.055845 77.536397 283.193452 78.375043 284.032098 
C 79.213688 284.870744 80.351296 285.341956 81.53732 285.341956 
z
" clip-path="url(#p63377de413)" style="fill: #879dba; stroke: #879dba"/>
    <path d="M 61.932377 326.063144 
C 63.118402 326.063144 64.256009 325.591931 65.094655 324.753285 
C 65.933301 323.914639 66.404513 322.777032 66.404513 321.591008 
C 66.404513 320.404983 65.933301 319.267376 65.094655 318.42873 
C 64.256009 317.590084 63.118402 317.118872 61.932377 317.118872 
C 60.746353 317.118872 59.608746 317.590084 58.7701 318.42873 
C 57.931454 319.267376 57.460242 320.404983 57.460242 321.591008 
C 57.460242 322.777032 57.931454 323.914639 58.7701 324.753285 
C 59.608746 325.591931 60.746353 326.063144 61.932377 326.063144 
z
" clip-path="url(#p63377de413)" style="fill: #879dba; stroke: #879dba"/>
    <path d="M 48.624526 369.219206 
C 49.81055 369.219206 50.948157 368.747994 51.786803 367.909348 
C 52.625449 367.070702 53.096661 365.933094 53.096661 364.74707 
C 53.096661 363.561046 52.625449 362.423438 51.786803 361.584792 
C 50.948157 360.746147 49.81055 360.274934 48.624526 360.274934 
C 47.438501 360.274934 46.300894 360.746147 45.462248 361.584792 
C 44.623602 362.423438 44.15239 363.561046 44.15239 364.74707 
C 44.15239 365.933094 44.623602 367.070702 45.462248 367.909348 
C 46.300894 368.747994 47.438501 369.219206 48.624526 369.219206 
z
" clip-path="url(#p63377de413)" style="fill: #879dba; stroke: #879dba"/>
    <path d="M 41.865648 413.882372 
C 43.051672 413.882372 44.18928 413.41116 45.027926 412.572514 
C 45.866572 411.733868 46.337784 410.596261 46.337784 409.410236 
C 46.337784 408.224212 45.866572 407.086604 45.027926 406.247959 
C 44.18928 405.409313 43.051672 404.9381 41.865648 404.9381 
C 40.679624 404.9381 39.542016 405.409313 38.70337 406.247959 
C 37.864725 407.086604 37.393512 408.224212 37.393512 409.410236 
C 37.393512 410.596261 37.864725 411.733868 38.70337 412.572514 
C 39.542016 413.41116 40.679624 413.882372 41.865648 413.882372 
z
" clip-path="url(#p63377de413)" style="fill: #879dba; stroke: #879dba"/>
    <path d="M 41.865648 459.0619 
C 43.051672 459.0619 44.18928 458.590687 45.027926 457.752041 
C 45.866572 456.913396 46.337784 455.775788 46.337784 454.589764 
C 46.337784 453.403739 45.866572 452.266132 45.027926 451.427486 
C 44.18928 450.58884 43.051672 450.117628 41.865648 450.117628 
C 40.679624 450.117628 39.542016 450.58884 38.70337 451.427486 
C 37.864725 452.266132 37.393512 453.403739 37.393512 454.589764 
C 37.393512 455.775788 37.864725 456.913396 38.70337 457.752041 
C 39.542016 458.590687 40.679624 459.0619 41.865648 459.0619 
z
" clip-path="url(#p63377de413)" style="fill: #879dba; stroke: #879dba"/>
    <path d="M 48.624526 503.733462 
C 49.81055 503.733462 50.948157 503.26225 51.786803 502.423604 
C 52.625449 501.584958 53.096661 500.44735 53.096661 499.261326 
C 53.096661 498.075302 52.625449 496.937694 51.786803 496.099048 
C 50.948157 495.260403 49.81055 494.78919 48.624526 494.78919 
C 47.438501 494.78919 46.300894 495.260403 45.462248 496.099048 
C 44.623602 496.937694 44.15239 498.075302 44.15239 499.261326 
C 44.15239 500.44735 44.623602 501.584958 45.462248 502.423604 
C 46.300894 503.26225 47.438501 503.733462 48.624526 503.733462 
z
" clip-path="url(#p63377de413)" style="fill: #879dba; stroke: #879dba"/>
    <path d="M 61.932377 546.902119 
C 63.118402 546.902119 64.256009 546.430906 65.094655 545.59226 
C 65.933301 544.753615 66.404513 543.616007 66.404513 542.429983 
C 66.404513 541.243958 65.933301 540.106351 65.094655 539.267705 
C 64.256009 538.429059 63.118402 537.957847 61.932377 537.957847 
C 60.746353 537.957847 59.608746 538.429059 58.7701 539.267705 
C 57.931454 540.106351 57.460242 541.243958 57.460242 542.429983 
C 57.460242 543.616007 57.931454 544.753615 58.7701 545.59226 
C 59.608746 546.430906 60.746353 546.902119 61.932377 546.902119 
z
" clip-path="url(#p63377de413)" style="fill: #879dba; stroke: #879dba"/>
    <path d="M 81.53732 587.602316 
C 82.723345 587.602316 83.860952 587.131103 84.699598 586.292457 
C 85.538244 585.453812 86.009456 584.316204 86.009456 583.13018 
C 86.009456 581.944155 85.538244 580.806548 84.699598 579.967902 
C 83.860952 579.129256 82.723345 578.658044 81.53732 578.658044 
C 80.351296 578.658044 79.213688 579.129256 78.375043 579.967902 
C 77.536397 580.806548 77.065184 581.944155 77.065184 583.13018 
C 77.065184 584.316204 77.536397 585.453812 78.375043 586.292457 
C 79.213688 587.131103 80.351296 587.602316 81.53732 587.602316 
z
" clip-path="url(#p63377de413)" style="fill: #879dba; stroke: #879dba"/>
    <path d="M 106.977567 624.927272 
C 108.163591 624.927272 109.301199 624.45606 110.139845 623.617414 
C 110.978491 622.778768 111.449703 621.64116 111.449703 620.455136 
C 111.449703 619.269112 110.978491 618.131504 110.139845 617.292858 
C 109.301199 616.454213 108.163591 615.983 106.977567 615.983 
C 105.791543 615.983 104.653935 616.454213 103.815289 617.292858 
C 102.976644 618.131504 102.505431 619.269112 102.505431 620.455136 
C 102.505431 621.64116 102.976644 622.778768 103.815289 623.617414 
C 104.653935 624.45606 105.791543 624.927272 106.977567 624.927272 
z
" clip-path="url(#p63377de413)" style="fill: #879dba; stroke: #879dba"/>
    <path d="M 137.70737 658.045772 
C 138.893395 658.045772 140.031002 657.574559 140.869648 656.735913 
C 141.708294 655.897268 142.179506 654.75966 142.179506 653.573636 
C 142.179506 652.387611 141.708294 651.250004 140.869648 650.411358 
C 140.031002 649.572712 138.893395 649.1015 137.70737 649.1015 
C 136.521346 649.1015 135.383739 649.572712 134.545093 650.411358 
C 133.706447 651.250004 133.235234 652.387611 133.235234 653.573636 
C 133.235234 654.75966 133.706447 655.897268 134.545093 656.735913 
C 135.383739 657.574559 136.521346 658.045772 137.70737 658.045772 
z
" clip-path="url(#p63377de413)" style="fill: #879dba; stroke: #879dba"/>
    <path d="M 173.01306 686.21056 
C 174.199084 686.21056 175.336691 685.739347 176.175337 684.900702 
C 177.013983 684.062056 177.485195 682.924448 177.485195 681.738424 
C 177.485195 680.5524 177.013983 679.414792 176.175337 678.576146 
C 175.336691 677.7375 174.199084 677.266288 173.01306 677.266288 
C 171.827035 677.266288 170.689428 677.7375 169.850782 678.576146 
C 169.012136 679.414792 168.540924 680.5524 168.540924 681.738424 
C 168.540924 682.924448 169.012136 684.062056 169.850782 684.900702 
C 170.689428 685.739347 171.827035 686.21056 173.01306 686.21056 
z
" clip-path="url(#p63377de413)" style="fill: #879dba; stroke: #879dba"/>
    <path d="M 212.138984 708.800324 
C 213.325008 708.800324 214.462616 708.329111 215.301262 707.490465 
C 216.139907 706.65182 216.61112 705.514212 216.61112 704.328188 
C 216.61112 703.142163 216.139907 702.004556 215.301262 701.16591 
C 214.462616 700.327264 213.325008 699.856052 212.138984 699.856052 
C 210.95296 699.856052 209.815352 700.327264 208.976706 701.16591 
C 208.13806 702.004556 207.666848 703.142163 207.666848 704.328188 
C 207.666848 705.514212 208.13806 706.65182 208.976706 707.490465 
C 209.815352 708.329111 210.95296 708.800324 212.138984 708.800324 
z
" clip-path="url(#p63377de413)" style="fill: #879dba; stroke: #879dba"/>
    <path d="M 254.203551 725.3029 
C 255.389575 725.3029 256.527182 724.831687 257.365828 723.993041 
C 258.204474 723.154396 258.675686 722.016788 258.675686 720.830764 
C 258.675686 719.644739 258.204474 718.507132 257.365828 717.668486 
C 256.527182 716.82984 255.389575 716.358628 254.203551 716.358628 
C 253.017526 716.358628 251.879919 716.82984 251.041273 717.668486 
C 250.202627 718.507132 249.731415 719.644739 249.731415 720.830764 
C 249.731415 722.016788 250.202627 723.154396 251.041273 723.993041 
C 251.879919 724.831687 253.017526 725.3029 254.203551 725.3029 
z
" clip-path="url(#p63377de413)" style="fill: #879dba; stroke: #879dba"/>
    <path d="M 298.241206 735.357255 
C 299.42723 735.357255 300.564837 734.886042 301.403483 734.047396 
C 302.242129 733.208751 302.713342 732.071143 302.713342 730.885119 
C 302.713342 729.699094 302.242129 728.561487 301.403483 727.722841 
C 300.564837 726.884195 299.42723 726.412983 298.241206 726.412983 
C 297.055181 726.412983 295.917574 726.884195 295.078928 727.722841 
C 294.240282 728.561487 293.76907 729.699094 293.76907 730.885119 
C 293.76907 732.071143 294.240282 733.208751 295.078928 734.047396 
C 295.917574 734.886042 297.055181 735.357255 298.241206 735.357255 
z
" clip-path="url(#p63377de413)" style="fill: #879dba; stroke: #879dba"/>
    <path d="M 343.286395 738.732495 
C 344.47242 738.732495 345.610027 738.261283 346.448673 737.422637 
C 347.287319 736.583991 347.758531 735.446384 347.758531 734.260359 
C 347.758531 733.074335 347.287319 731.936728 346.448673 731.098082 
C 345.610027 730.259436 344.47242 729.788223 343.286395 729.788223 
C 342.100371 729.788223 340.962764 730.259436 340.124118 731.098082 
C 339.285472 731.936728 338.814259 733.074335 338.814259 734.260359 
C 338.814259 735.446384 339.285472 736.583991 340.124118 737.422637 
C 340.962764 738.261283 342.100371 738.732495 343.286395 738.732495 
z
" clip-path="url(#p63377de413)" style="fill: #879dba; stroke: #879dba"/>
    <path d="M 388.331585 735.357255 
C 389.517609 735.357255 390.655217 734.886042 391.493863 734.047396 
C 392.332509 733.208751 392.803721 732.071143 392.803721 730.885119 
C 392.803721 729.699094 392.332509 728.561487 391.493863 727.722841 
C 390.655217 726.884195 389.517609 726.412983 388.331585 726.412983 
C 387.145561 726.412983 386.007953 726.884195 385.169307 727.722841 
C 384.330662 728.561487 383.859449 729.699094 383.859449 730.885119 
C 383.859449 732.071143 384.330662 733.208751 385.169307 734.047396 
C 386.007953 734.886042 387.145561 735.357255 388.331585 735.357255 
z
" clip-path="url(#p63377de413)" style="fill: #879dba; stroke: #879dba"/>
    <path d="M 432.411221 725.3029 
C 433.597245 725.3029 434.734853 724.831687 435.573498 723.993041 
C 436.412144 723.154396 436.883357 722.016788 436.883357 720.830764 
C 436.883357 719.644739 436.412144 718.507132 435.573498 717.668486 
C 434.734853 716.82984 433.597245 716.358628 432.411221 716.358628 
C 431.225196 716.358628 430.087589 716.82984 429.248943 717.668486 
C 428.410297 718.507132 427.939085 719.644739 427.939085 720.830764 
C 427.939085 722.016788 428.410297 723.154396 429.248943 723.993041 
C 430.087589 724.831687 431.225196 725.3029 432.411221 725.3029 
z
" clip-path="url(#p63377de413)" style="fill: #879dba; stroke: #879dba"/>
    <path d="M 474.433807 708.800324 
C 475.619831 708.800324 476.757439 708.329111 477.596084 707.490465 
C 478.43473 706.65182 478.905943 705.514212 478.905943 704.328188 
C 478.905943 703.142163 478.43473 702.004556 477.596084 701.16591 
C 476.757439 700.327264 475.619831 699.856052 474.433807 699.856052 
C 473.247783 699.856052 472.110175 700.327264 471.271529 701.16591 
C 470.432883 702.004556 469.961671 703.142163 469.961671 704.328188 
C 469.961671 705.514212 470.432883 706.65182 471.271529 707.490465 
C 472.110175 708.329111 473.247783 708.800324 474.433807 708.800324 
z
" clip-path="url(#p63377de413)" style="fill: #879dba; stroke: #879dba"/>
    <path d="M 513.559731 686.21056 
C 514.745755 686.21056 515.883363 685.739347 516.722009 684.900702 
C 517.560655 684.062056 518.031867 682.924448 518.031867 681.738424 
C 518.031867 680.5524 517.560655 679.414792 516.722009 678.576146 
C 515.883363 677.7375 514.745755 677.266288 513.559731 677.266288 
C 512.373707 677.266288 511.236099 677.7375 510.397453 678.576146 
C 509.558808 679.414792 509.087595 680.5524 509.087595 681.738424 
C 509.087595 682.924448 509.558808 684.062056 510.397453 684.900702 
C 511.236099 685.739347 512.373707 686.21056 513.559731 686.21056 
z
" clip-path="url(#p63377de413)" style="fill: #879dba; stroke: #879dba"/>
    <path d="M 548.907401 658.045772 
C 550.093425 658.045772 551.231033 657.574559 552.069679 656.735913 
C 552.908324 655.897268 553.379537 654.75966 553.379537 653.573636 
C 553.379537 652.387611 552.908324 651.250004 552.069679 650.411358 
C 551.231033 649.572712 550.093425 649.1015 548.907401 649.1015 
C 547.721377 649.1015 546.583769 649.572712 545.745123 650.411358 
C 544.906477 651.250004 544.435265 652.387611 544.435265 653.573636 
C 544.435265 654.75966 544.906477 655.897268 545.745123 656.735913 
C 546.583769 657.574559 547.721377 658.045772 548.907401 658.045772 
z
" clip-path="url(#p63377de413)" style="fill: #879dba; stroke: #879dba"/>
    <path d="M 579.595224 624.927272 
C 580.781248 624.927272 581.918855 624.45606 582.757501 623.617414 
C 583.596147 622.778768 584.067359 621.64116 584.067359 620.455136 
C 584.067359 619.269112 583.596147 618.131504 582.757501 617.292858 
C 581.918855 616.454213 580.781248 615.983 579.595224 615.983 
C 578.409199 615.983 577.271592 616.454213 576.432946 617.292858 
C 575.5943 618.131504 575.123088 619.269112 575.123088 620.455136 
C 575.123088 621.64116 575.5943 622.778768 576.432946 623.617414 
C 577.271592 624.45606 578.409199 624.927272 579.595224 624.927272 
z
" clip-path="url(#p63377de413)" style="fill: #879dba; stroke: #879dba"/>
    <path d="M 605.077451 587.602316 
C 606.263475 587.602316 607.401083 587.131103 608.239729 586.292457 
C 609.078375 585.453812 609.549587 584.316204 609.549587 583.13018 
C 609.549587 581.944155 609.078375 580.806548 608.239729 579.967902 
C 607.401083 579.129256 606.263475 578.658044 605.077451 578.658044 
C 603.891427 578.658044 602.753819 579.129256 601.915173 579.967902 
C 601.076528 580.806548 600.605315 581.944155 600.605315 583.13018 
C 600.605315 584.316204 601.076528 585.453812 601.915173 586.292457 
C 602.753819 587.131103 603.891427 587.602316 605.077451 587.602316 
z
" clip-path="url(#p63377de413)" style="fill: #879dba; stroke: #879dba"/>
    <path d="M 624.682394 546.902119 
C 625.868418 546.902119 627.006026 546.430906 627.844671 545.59226 
C 628.683317 544.753615 629.15453 543.616007 629.15453 542.429983 
C 629.15453 541.243958 628.683317 540.106351 627.844671 539.267705 
C 627.006026 538.429059 625.868418 537.957847 624.682394 537.957847 
C 623.49637 537.957847 622.358762 538.429059 621.520116 539.267705 
C 620.68147 540.106351 620.210258 541.243958 620.210258 542.429983 
C 620.210258 543.616007 620.68147 544.753615 621.520116 545.59226 
C 622.358762 546.430906 623.49637 546.902119 624.682394 546.902119 
z
" clip-path="url(#p63377de413)" style="fill: #879dba; stroke: #879dba"/>
    <path d="M 637.990246 503.733462 
C 639.17627 503.733462 640.313878 503.26225 641.152523 502.423604 
C 641.991169 501.584958 642.462382 500.44735 642.462382 499.261326 
C 642.462382 498.075302 641.991169 496.937694 641.152523 496.099048 
C 640.313878 495.260403 639.17627 494.78919 637.990246 494.78919 
C 636.804221 494.78919 635.666614 495.260403 634.827968 496.099048 
C 633.989322 496.937694 633.51811 498.075302 633.51811 499.261326 
C 633.51811 500.44735 633.989322 501.584958 634.827968 502.423604 
C 635.666614 503.26225 636.804221 503.733462 637.990246 503.733462 
z
" clip-path="url(#p63377de413)" style="fill: #879dba; stroke: #879dba"/>
   </g>
   <g id="patch_3">
    <path d="M 10.8 764.486395 
L 10.8 99.513605 
" style="fill: none; stroke: #000000; stroke-width: 0.8; stroke-linejoin: miter; stroke-linecap: square"/>
   </g>
   <g id="patch_4">
    <path d="M 675.772791 764.486395 
L 675.772791 99.513605 
" style="fill: none; stroke: #000000; stroke-width: 0.8; stroke-linejoin: miter; stroke-linecap: square"/>
   </g>
   <g id="patch_5">
    <path d="M 10.8 764.486395 
L 675.772791 764.486395 
" style="fill: none; stroke: #000000; stroke-width: 0.8; stroke-linejoin: miter; stroke-linecap: square"/>
   </g>
   <g id="patch_6">
    <path d="M 10.8 99.513605 
L 675.772791 99.513605 
" style="fill: none; stroke: #000000; stroke-width: 0.8; stroke-linejoin: miter; stroke-linecap: square"/>
   </g>
   <g id="text_1">
    <!-- Year: 1809 -->
    <g transform="translate(17.449728 126.918828) scale(0.3 -0.3)">
     <defs>
      <path id="CMR17-59" d="M 3706 3766 
C 3955 4160 4301 4160 4416 4160 
L 4416 4332 
C 4269 4319 4102 4319 3942 4319 
C 3782 4319 3526 4319 3373 4332 
L 3373 4160 
C 3533 4160 3616 4077 3616 3957 
C 3616 3881 3584 3830 3533 3747 
L 2381 1912 
L 1120 3912 
C 1075 3988 1069 3994 1069 4039 
C 1069 4160 1293 4160 1382 4160 
L 1382 4319 
C 1178 4319 864 4319 653 4319 
C 486 4319 166 4319 13 4332 
L 13 4160 
C 378 4160 480 4141 595 3958 
L 2010 1728 
L 2010 445 
C 2010 160 1939 160 1498 160 
L 1498 0 
C 1683 0 2016 0 2214 0 
C 2413 0 2752 0 2938 0 
L 2938 160 
C 2477 160 2419 160 2419 471 
L 2419 1728 
L 3706 3766 
z
" transform="scale(0.015625)"/>
      <path id="CMR17-65" d="M 2438 1472 
C 2464 1498 2464 1511 2464 1576 
C 2464 2238 2118 2816 1389 2816 
C 710 2816 173 2169 173 1383 
C 173 551 781 -64 1459 -64 
C 2176 -64 2458 607 2458 740 
C 2458 784 2419 784 2406 784 
C 2362 784 2355 771 2330 696 
C 2189 265 1837 51 1504 51 
C 1229 51 954 203 781 480 
C 582 803 582 1176 582 1472 
L 2438 1472 
z
M 589 1568 
C 634 2505 1126 2714 1382 2714 
C 1818 2714 2112 2297 2118 1568 
L 589 1568 
z
" transform="scale(0.015625)"/>
      <path id="CMR17-61" d="M 2304 1653 
C 2304 2072 2304 2294 2035 2543 
C 1798 2752 1523 2816 1306 2816 
C 800 2816 435 2407 435 1971 
C 435 1728 627 1728 666 1728 
C 749 1728 896 1778 896 1954 
C 896 2112 774 2181 666 2181 
C 640 2181 608 2174 589 2168 
C 723 2592 1069 2714 1293 2714 
C 1613 2714 1965 2429 1965 1885 
L 1965 1600 
C 1587 1600 1133 1549 774 1357 
C 371 1133 256 813 256 570 
C 256 77 832 -64 1171 -64 
C 1523 -64 1850 139 1990 511 
C 2003 233 2182 -18 2464 -18 
C 2598 -18 2938 70 2938 567 
L 2938 920 
L 2822 920 
L 2822 562 
C 2822 178 2650 128 2566 128 
C 2304 128 2304 458 2304 738 
L 2304 1653 
z
M 1965 870 
C 1965 317 1568 38 1216 38 
C 896 38 646 275 646 570 
C 646 761 730 1100 1101 1305 
C 1408 1478 1760 1504 1965 1504 
L 1965 870 
z
" transform="scale(0.015625)"/>
      <path id="CMR17-72" d="M 960 1497 
C 960 2112 1222 2688 1702 2688 
C 1747 2688 1792 2682 1837 2662 
C 1837 2662 1696 2617 1696 2452 
C 1696 2298 1818 2234 1914 2234 
C 1990 2234 2131 2279 2131 2458 
C 2131 2663 1926 2790 1709 2790 
C 1222 2790 1011 2317 947 2093 
L 941 2093 
L 941 2790 
L 198 2720 
L 198 2554 
C 576 2554 634 2515 634 2208 
L 634 428 
C 634 184 608 153 198 153 
L 198 -13 
C 352 0 646 0 813 0 
C 998 0 1325 0 1498 -13 
L 1498 153 
C 1037 153 960 153 960 440 
L 960 1497 
z
" transform="scale(0.015625)"/>
      <path id="CMR17-3a" d="M 1062 2491 
C 1062 2650 934 2752 800 2752 
C 672 2752 538 2650 538 2491 
C 538 2332 666 2230 800 2230 
C 928 2230 1062 2332 1062 2491 
z
M 1062 261 
C 1062 420 934 522 800 522 
C 672 522 538 420 538 261 
C 538 102 666 0 800 0 
C 928 0 1062 102 1062 261 
z
" transform="scale(0.015625)"/>
      <path id="CMR17-31" d="M 1702 4058 
C 1702 4192 1696 4192 1606 4192 
C 1357 3916 979 3827 621 3827 
C 602 3827 570 3827 563 3808 
C 557 3795 557 3782 557 3648 
C 755 3648 1088 3686 1344 3839 
L 1344 461 
C 1344 236 1331 160 781 160 
L 589 160 
L 589 0 
C 896 0 1216 0 1523 0 
C 1830 0 2150 0 2458 0 
L 2458 160 
L 2266 160 
C 1715 160 1702 230 1702 458 
L 1702 4058 
z
" transform="scale(0.015625)"/>
      <path id="CMR17-38" d="M 1741 2264 
C 2144 2467 2554 2773 2554 3263 
C 2554 3841 1990 4179 1472 4179 
C 890 4179 378 3759 378 3180 
C 378 3021 416 2747 666 2505 
C 730 2442 998 2251 1171 2130 
C 883 1983 211 1634 211 934 
C 211 279 838 -128 1459 -128 
C 2144 -128 2720 362 2720 1010 
C 2720 1590 2330 1857 2074 2029 
L 1741 2264 
z
M 902 2822 
C 851 2854 595 3051 595 3351 
C 595 3739 998 4032 1459 4032 
C 1965 4032 2336 3676 2336 3262 
C 2336 2669 1670 2331 1638 2331 
C 1632 2331 1626 2331 1574 2370 
L 902 2822 
z
M 2080 1519 
C 2176 1449 2483 1240 2483 851 
C 2483 381 2010 25 1472 25 
C 890 25 448 438 448 940 
C 448 1443 838 1862 1280 2060 
L 2080 1519 
z
" transform="scale(0.015625)"/>
      <path id="CMR17-30" d="M 2688 2025 
C 2688 2416 2682 3080 2413 3591 
C 2176 4039 1798 4198 1466 4198 
C 1158 4198 768 4058 525 3597 
C 269 3118 243 2524 243 2025 
C 243 1661 250 1106 448 619 
C 723 -39 1216 -128 1466 -128 
C 1760 -128 2208 -7 2470 600 
C 2662 1042 2688 1559 2688 2025 
z
M 1466 -26 
C 1056 -26 813 325 723 812 
C 653 1188 653 1738 653 2096 
C 653 2588 653 2997 736 3387 
C 858 3929 1216 4096 1466 4096 
C 1728 4096 2067 3923 2189 3400 
C 2272 3036 2278 2607 2278 2096 
C 2278 1680 2278 1169 2202 792 
C 2067 95 1690 -26 1466 -26 
z
" transform="scale(0.015625)"/>
      <path id="CMR17-39" d="M 2253 1864 
C 2253 464 1670 31 1190 31 
C 1043 31 685 31 538 294 
C 704 268 826 357 826 518 
C 826 692 685 749 595 749 
C 538 749 365 723 365 506 
C 365 71 742 -128 1203 -128 
C 1939 -128 2688 674 2688 2073 
C 2688 3817 1971 4179 1485 4179 
C 851 4179 243 3628 243 2778 
C 243 1991 762 1408 1414 1408 
C 1952 1408 2189 1903 2253 2112 
L 2253 1864 
z
M 1427 1510 
C 1254 1510 1011 1542 813 1922 
C 678 2169 678 2461 678 2771 
C 678 3146 678 3405 858 3684 
C 947 3817 1114 4032 1485 4032 
C 2240 4032 2240 2885 2240 2632 
C 2240 2182 2035 1510 1427 1510 
z
" transform="scale(0.015625)"/>
     </defs>
     <use xlink:href="#CMR17-59" transform="scale(0.996264)"/>
     <use xlink:href="#CMR17-65" transform="translate(61.265174 0) scale(0.996264)"/>
     <use xlink:href="#CMR17-61" transform="translate(101.750835 0) scale(0.996264)"/>
     <use xlink:href="#CMR17-72" transform="translate(147.441312 0) scale(0.996264)"/>
     <use xlink:href="#CMR17-3a" transform="translate(182.72208 0) scale(0.996264)"/>
     <use xlink:href="#CMR17-31" transform="translate(248.078799 0) scale(0.996264)"/>
     <use xlink:href="#CMR17-38" transform="translate(293.769276 0) scale(0.996264)"/>
     <use xlink:href="#CMR17-30" transform="translate(339.459753 0) scale(0.996264)"/>
     <use xlink:href="#CMR17-39" transform="translate(385.15023 0) scale(0.996264)"/>
    </g>
   </g>
  </g>
  <g id="axes_2">
   <g id="patch_7">
    <path d="M 717.33359 853.2 
L 759.45359 853.2 
L 759.45359 10.8 
L 717.33359 10.8 
z
" style="fill: #ffffff"/>
   </g>
   <g id="QuadMesh_1">
    <path d="M 717.33359 853.2 
L 759.45359 853.2 
L 759.45359 747.9 
L 717.33359 747.9 
L 717.33359 853.2 
" clip-path="url(#p2b81bd09ba)" style="fill: #ad35ca"/>
    <path d="M 717.33359 747.9 
L 759.45359 747.9 
L 759.45359 642.6 
L 717.33359 642.6 
L 717.33359 747.9 
" clip-path="url(#p2b81bd09ba)" style="fill: #8f81b5"/>
    <path d="M 717.33359 642.6 
L 759.45359 642.6 
L 759.45359 537.3 
L 717.33359 537.3 
L 717.33359 642.6 
" clip-path="url(#p2b81bd09ba)" style="fill: #879dba"/>
    <path d="M 717.33359 537.3 
L 759.45359 537.3 
L 759.45359 432 
L 717.33359 432 
L 717.33359 537.3 
" clip-path="url(#p2b81bd09ba)" style="fill: #7bb4be"/>
    <path d="M 717.33359 432 
L 759.45359 432 
L 759.45359 326.7 
L 717.33359 326.7 
L 717.33359 432 
" clip-path="url(#p2b81bd09ba)" style="fill: #79c6b7"/>
    <path d="M 717.33359 326.7 
L 759.45359 326.7 
L 759.45359 221.4 
L 717.33359 221.4 
L 717.33359 326.7 
" clip-path="url(#p2b81bd09ba)" style="fill: #a1ccad"/>
    <path d="M 717.33359 221.4 
L 759.45359 221.4 
L 759.45359 116.1 
L 717.33359 116.1 
L 717.33359 221.4 
" clip-path="url(#p2b81bd09ba)" style="fill: #c1d59b"/>
    <path d="M 717.33359 116.1 
L 759.45359 116.1 
L 759.45359 10.8 
L 717.33359 10.8 
L 717.33359 116.1 
" clip-path="url(#p2b81bd09ba)" style="fill: #e4dc96"/>
   </g>
   <g id="matplotlib.axis_3"/>
   <g id="matplotlib.axis_4">
    <g id="ytick_9">
     <g id="line2d_1">
      <defs>
       <path id="m30fee3b3e1" d="M 0 0 
L 3.5 0 
" style="stroke: #000000; stroke-width: 0.8"/>
      </defs>
      <g>
       <use xlink:href="#m30fee3b3e1" x="759.45359" y="800.55" style="stroke: #000000; stroke-width: 0.8"/>
      </g>
     </g>
     <g id="text_2">
      <!-- 0 -->
      <g transform="translate(766.45359 811.619603) scale(0.32 -0.32)">
       <use xlink:href="#CMR17-30" transform="scale(0.996264)"/>
      </g>
     </g>
    </g>
    <g id="ytick_10">
     <g id="line2d_2">
      <g>
       <use xlink:href="#m30fee3b3e1" x="759.45359" y="695.25" style="stroke: #000000; stroke-width: 0.8"/>
      </g>
     </g>
     <g id="text_3">
      <!-- 1 -->
      <g transform="translate(766.45359 706.319603) scale(0.32 -0.32)">
       <use xlink:href="#CMR17-31" transform="scale(0.996264)"/>
      </g>
     </g>
    </g>
    <g id="ytick_11">
     <g id="line2d_3">
      <g>
       <use xlink:href="#m30fee3b3e1" x="759.45359" y="589.95" style="stroke: #000000; stroke-width: 0.8"/>
      </g>
     </g>
     <g id="text_4">
      <!-- 2 -->
      <g transform="translate(766.45359 601.019603) scale(0.32 -0.32)">
       <defs>
        <path id="CMR17-32" d="M 2669 989 
L 2554 989 
C 2490 536 2438 459 2413 420 
C 2381 369 1920 369 1830 369 
L 602 369 
C 832 619 1280 1072 1824 1597 
C 2214 1967 2669 2402 2669 3035 
C 2669 3790 2067 4224 1395 4224 
C 691 4224 262 3604 262 3030 
C 262 2780 448 2748 525 2748 
C 589 2748 781 2787 781 3010 
C 781 3207 614 3264 525 3264 
C 486 3264 448 3258 422 3245 
C 544 3790 915 4058 1306 4058 
C 1862 4058 2227 3617 2227 3035 
C 2227 2479 1901 2000 1536 1584 
L 262 146 
L 262 0 
L 2515 0 
L 2669 989 
z
" transform="scale(0.015625)"/>
       </defs>
       <use xlink:href="#CMR17-32" transform="scale(0.996264)"/>
      </g>
     </g>
    </g>
    <g id="ytick_12">
     <g id="line2d_4">
      <g>
       <use xlink:href="#m30fee3b3e1" x="759.45359" y="484.65" style="stroke: #000000; stroke-width: 0.8"/>
      </g>
     </g>
     <g id="text_5">
      <!-- 3 -->
      <g transform="translate(766.45359 495.719603) scale(0.32 -0.32)">
       <defs>
        <path id="CMR17-33" d="M 1414 2157 
C 1984 2157 2234 1662 2234 1090 
C 2234 320 1824 25 1453 25 
C 1114 25 563 194 390 693 
C 422 680 454 680 486 680 
C 640 680 755 782 755 948 
C 755 1133 614 1216 486 1216 
C 378 1216 211 1165 211 926 
C 211 335 787 -128 1466 -128 
C 2176 -128 2720 430 2720 1085 
C 2720 1707 2208 2157 1600 2227 
C 2086 2328 2554 2756 2554 3329 
C 2554 3820 2048 4179 1472 4179 
C 890 4179 378 3829 378 3329 
C 378 3110 544 3072 627 3072 
C 762 3072 877 3155 877 3321 
C 877 3486 762 3569 627 3569 
C 602 3569 570 3569 544 3557 
C 730 3959 1235 4032 1459 4032 
C 1683 4032 2106 3925 2106 3320 
C 2106 3143 2080 2828 1862 2550 
C 1670 2304 1453 2304 1242 2284 
C 1210 2284 1062 2269 1037 2269 
C 992 2263 966 2257 966 2208 
C 966 2163 973 2157 1101 2157 
L 1414 2157 
z
" transform="scale(0.015625)"/>
       </defs>
       <use xlink:href="#CMR17-33" transform="scale(0.996264)"/>
      </g>
     </g>
    </g>
    <g id="ytick_13">
     <g id="line2d_5">
      <g>
       <use xlink:href="#m30fee3b3e1" x="759.45359" y="379.35" style="stroke: #000000; stroke-width: 0.8"/>
      </g>
     </g>
     <g id="text_6">
      <!-- 4 -->
      <g transform="translate(766.45359 390.419603) scale(0.32 -0.32)">
       <defs>
        <path id="CMR17-34" d="M 2150 4122 
C 2150 4256 2144 4256 2029 4256 
L 128 1254 
L 128 1088 
L 1779 1088 
L 1779 457 
C 1779 224 1766 160 1318 160 
L 1197 160 
L 1197 0 
C 1402 0 1747 0 1965 0 
C 2182 0 2528 0 2733 0 
L 2733 160 
L 2611 160 
C 2163 160 2150 224 2150 457 
L 2150 1088 
L 2803 1088 
L 2803 1254 
L 2150 1254 
L 2150 4122 
z
M 1798 3703 
L 1798 1254 
L 256 1254 
L 1798 3703 
z
" transform="scale(0.015625)"/>
       </defs>
       <use xlink:href="#CMR17-34" transform="scale(0.996264)"/>
      </g>
     </g>
    </g>
    <g id="ytick_14">
     <g id="line2d_6">
      <g>
       <use xlink:href="#m30fee3b3e1" x="759.45359" y="274.05" style="stroke: #000000; stroke-width: 0.8"/>
      </g>
     </g>
     <g id="text_7">
      <!-- 5 -->
      <g transform="translate(766.45359 285.119603) scale(0.32 -0.32)">
       <defs>
        <path id="CMR17-35" d="M 730 3692 
C 794 3666 1056 3584 1325 3584 
C 1920 3584 2246 3911 2432 4100 
C 2432 4157 2432 4192 2394 4192 
C 2387 4192 2374 4192 2323 4163 
C 2099 4058 1837 3973 1517 3973 
C 1325 3973 1037 3999 723 4139 
C 653 4171 640 4171 634 4171 
C 602 4171 595 4164 595 4037 
L 595 2203 
C 595 2089 595 2057 659 2057 
C 691 2057 704 2070 736 2114 
C 941 2401 1222 2522 1542 2522 
C 1766 2522 2246 2382 2246 1289 
C 2246 1085 2246 715 2054 421 
C 1894 159 1645 25 1370 25 
C 947 25 518 320 403 814 
C 429 807 480 795 506 795 
C 589 795 749 840 749 1038 
C 749 1210 627 1280 506 1280 
C 358 1280 262 1190 262 1011 
C 262 454 704 -128 1382 -128 
C 2042 -128 2669 440 2669 1264 
C 2669 2030 2170 2624 1549 2624 
C 1222 2624 947 2503 730 2274 
L 730 3692 
z
" transform="scale(0.015625)"/>
       </defs>
       <use xlink:href="#CMR17-35" transform="scale(0.996264)"/>
      </g>
     </g>
    </g>
    <g id="ytick_15">
     <g id="line2d_7">
      <g>
       <use xlink:href="#m30fee3b3e1" x="759.45359" y="168.75" style="stroke: #000000; stroke-width: 0.8"/>
      </g>
     </g>
     <g id="text_8">
      <!-- 6 -->
      <g transform="translate(766.45359 179.819603) scale(0.32 -0.32)">
       <defs>
        <path id="CMR17-36" d="M 678 2176 
C 678 3690 1395 4032 1811 4032 
C 1946 4032 2272 4009 2400 3776 
C 2298 3776 2106 3776 2106 3553 
C 2106 3381 2246 3323 2336 3323 
C 2394 3323 2566 3348 2566 3560 
C 2566 3954 2246 4179 1805 4179 
C 1043 4179 243 3390 243 1984 
C 243 253 966 -128 1478 -128 
C 2099 -128 2688 427 2688 1283 
C 2688 2081 2170 2662 1517 2662 
C 1126 2662 838 2407 678 1960 
L 678 2176 
z
M 1478 25 
C 691 25 691 1200 691 1436 
C 691 1896 909 2560 1504 2560 
C 1613 2560 1926 2560 2138 2120 
C 2253 1870 2253 1609 2253 1289 
C 2253 944 2253 690 2118 434 
C 1978 171 1773 25 1478 25 
z
" transform="scale(0.015625)"/>
       </defs>
       <use xlink:href="#CMR17-36" transform="scale(0.996264)"/>
      </g>
     </g>
    </g>
    <g id="ytick_16">
     <g id="line2d_8">
      <g>
       <use xlink:href="#m30fee3b3e1" x="759.45359" y="63.45" style="stroke: #000000; stroke-width: 0.8"/>
      </g>
     </g>
     <g id="text_9">
      <!-- 7 -->
      <g transform="translate(766.45359 74.519603) scale(0.32 -0.32)">
       <defs>
        <path id="CMR17-37" d="M 2886 3941 
L 2886 4081 
L 1382 4081 
C 634 4081 621 4165 595 4288 
L 480 4288 
L 294 3094 
L 410 3094 
C 429 3215 474 3540 550 3661 
C 589 3712 1062 3712 1171 3712 
L 2579 3712 
L 1869 2661 
C 1395 1954 1069 999 1069 165 
C 1069 89 1069 -128 1299 -128 
C 1530 -128 1530 89 1530 171 
L 1530 465 
C 1530 1508 1709 2196 2003 2636 
L 2886 3941 
z
" transform="scale(0.015625)"/>
       </defs>
       <use xlink:href="#CMR17-37" transform="scale(0.996264)"/>
      </g>
     </g>
    </g>
    <g id="ytick_17">
     <g id="line2d_9">
      <defs>
       <path id="m301c07fe77" d="M 0 0 
L 2 0 
" style="stroke: #000000; stroke-width: 0.6"/>
      </defs>
      <g>
       <use xlink:href="#m301c07fe77" x="759.45359" y="853.2" style="stroke: #000000; stroke-width: 0.6"/>
      </g>
     </g>
    </g>
    <g id="ytick_18">
     <g id="line2d_10">
      <g>
       <use xlink:href="#m301c07fe77" x="759.45359" y="747.9" style="stroke: #000000; stroke-width: 0.6"/>
      </g>
     </g>
    </g>
    <g id="ytick_19">
     <g id="line2d_11">
      <g>
       <use xlink:href="#m301c07fe77" x="759.45359" y="642.6" style="stroke: #000000; stroke-width: 0.6"/>
      </g>
     </g>
    </g>
    <g id="ytick_20">
     <g id="line2d_12">
      <g>
       <use xlink:href="#m301c07fe77" x="759.45359" y="537.3" style="stroke: #000000; stroke-width: 0.6"/>
      </g>
     </g>
    </g>
    <g id="ytick_21">
     <g id="line2d_13">
      <g>
       <use xlink:href="#m301c07fe77" x="759.45359" y="432" style="stroke: #000000; stroke-width: 0.6"/>
      </g>
     </g>
    </g>
    <g id="ytick_22">
     <g id="line2d_14">
      <g>
       <use xlink:href="#m301c07fe77" x="759.45359" y="326.7" style="stroke: #000000; stroke-width: 0.6"/>
      </g>
     </g>
    </g>
    <g id="ytick_23">
     <g id="line2d_15">
      <g>
       <use xlink:href="#m301c07fe77" x="759.45359" y="221.4" style="stroke: #000000; stroke-width: 0.6"/>
      </g>
     </g>
    </g>
    <g id="ytick_24">
     <g id="line2d_16">
      <g>
       <use xlink:href="#m301c07fe77" x="759.45359" y="116.1" style="stroke: #000000; stroke-width: 0.6"/>
      </g>
     </g>
    </g>
    <g id="ytick_25">
     <g id="line2d_17">
      <g>
       <use xlink:href="#m301c07fe77" x="759.45359" y="10.8" style="stroke: #000000; stroke-width: 0.6"/>
      </g>
     </g>
    </g>
    <g id="text_10">
     <!-- Node Depth -->
     <g transform="translate(828.899641 543.95779) rotate(-90) scale(0.46 -0.46)">
      <defs>
       <path id="CMR17-4e" d="M 1312 4250 
C 1267 4320 1261 4320 1139 4320 
L 326 4320 
L 326 4160 
L 448 4160 
C 704 4160 819 4129 838 4122 
L 838 610 
C 838 451 838 153 326 153 
L 326 -13 
C 474 0 742 0 902 0 
C 1062 0 1331 0 1478 -13 
L 1478 153 
C 966 153 966 451 966 610 
L 966 4033 
C 1011 3995 1011 3982 1056 3919 
L 3430 76 
C 3475 0 3494 0 3526 0 
C 3590 0 3590 19 3590 139 
L 3590 3705 
C 3590 3863 3590 4160 4102 4160 
L 4102 4326 
C 3955 4320 3686 4320 3526 4320 
C 3366 4320 3098 4320 2950 4326 
L 2950 4160 
C 3462 4160 3462 3862 3462 3703 
L 3462 763 
L 1312 4250 
z
" transform="scale(0.015625)"/>
       <path id="CMR17-6f" d="M 2758 1356 
C 2758 2176 2163 2816 1466 2816 
C 768 2816 173 2176 173 1356 
C 173 551 768 -64 1466 -64 
C 2163 -64 2758 551 2758 1356 
z
M 1466 51 
C 1165 51 909 230 762 480 
C 602 767 582 1126 582 1408 
C 582 1677 595 2010 762 2298 
C 890 2509 1139 2714 1466 2714 
C 1754 2714 1997 2554 2150 2330 
C 2349 2029 2349 1607 2349 1408 
C 2349 1158 2336 775 2163 467 
C 1984 173 1709 51 1466 51 
z
" transform="scale(0.015625)"/>
       <path id="CMR17-64" d="M 1869 4326 
L 1869 4160 
C 2246 4160 2304 4122 2304 3820 
L 2304 2345 
C 2278 2377 2016 2790 1498 2790 
C 845 2790 211 2208 211 1364 
C 211 525 806 -64 1434 -64 
C 1978 -64 2259 337 2291 380 
L 2291 -63 
L 3066 -63 
L 3066 128 
C 2688 128 2630 166 2630 473 
L 2630 4396 
L 1869 4326 
z
M 2291 755 
C 2291 563 2176 390 2029 262 
C 1811 70 1594 38 1472 38 
C 1286 38 621 134 621 1356 
C 621 2612 1363 2688 1530 2688 
C 1824 2688 2061 2522 2208 2291 
C 2291 2157 2291 2138 2291 2023 
L 2291 755 
z
" transform="scale(0.015625)"/>
       <path id="CMR17-44" d="M 333 4352 
L 333 4186 
C 774 4186 845 4186 845 3900 
L 845 452 
C 845 166 774 166 333 166 
L 333 0 
L 2368 0 
C 3398 0 4224 943 4224 2141 
C 4224 3346 3411 4352 2368 4352 
L 333 4352 
z
M 1523 166 
C 1267 166 1254 197 1254 414 
L 1254 3938 
C 1254 4155 1267 4186 1523 4186 
L 2240 4186 
C 2771 4186 3750 3874 3750 2141 
C 3750 1242 3488 879 3366 707 
C 3213 510 2848 166 2240 166 
L 1523 166 
z
" transform="scale(0.015625)"/>
       <path id="CMR17-70" d="M 1408 -1063 
C 998 -1063 973 -1037 973 -789 
L 973 402 
C 1158 134 1427 -38 1766 -38 
C 2406 -38 3053 523 3053 1388 
C 3053 2191 2496 2802 1837 2802 
C 1453 2802 1139 2592 960 2338 
L 960 2802 
L 198 2732 
L 198 2567 
C 576 2567 634 2528 634 2223 
L 634 -789 
C 634 -1031 608 -1063 198 -1063 
L 198 -1228 
C 352 -1216 634 -1216 800 -1216 
C 966 -1216 1254 -1216 1408 -1228 
L 1408 -1063 
z
M 973 2012 
C 973 2102 973 2235 1222 2471 
C 1254 2497 1472 2688 1792 2688 
C 2259 2688 2643 2108 2643 1382 
C 2643 656 2234 64 1728 64 
C 1498 64 1248 172 1056 472 
C 973 612 973 650 973 752 
L 973 2012 
z
" transform="scale(0.015625)"/>
       <path id="CMR17-74" d="M 966 2560 
L 1862 2560 
L 1862 2725 
L 966 2725 
L 966 3904 
L 851 3904 
C 838 3245 614 2668 70 2668 
L 70 2560 
L 627 2560 
L 627 771 
C 627 650 627 -64 1370 -64 
C 1747 -64 1965 306 1965 777 
L 1965 1140 
L 1850 1140 
L 1850 783 
C 1850 344 1677 51 1408 51 
C 1222 51 966 178 966 758 
L 966 2560 
z
" transform="scale(0.015625)"/>
       <path id="CMR17-68" d="M 2656 1933 
C 2656 2259 2592 2790 1837 2790 
C 1312 2790 1056 2368 979 2157 
L 973 2157 
L 973 4396 
L 211 4326 
L 211 4160 
C 589 4160 646 4122 646 3817 
L 646 426 
C 646 184 621 153 211 153 
L 211 -13 
C 365 0 646 0 813 0 
C 979 0 1267 0 1421 -13 
L 1421 153 
C 1011 153 986 178 986 428 
L 986 1658 
C 986 2247 1344 2688 1792 2688 
C 2266 2688 2317 2266 2317 1958 
L 2317 428 
C 2317 184 2291 153 1882 153 
L 1882 -13 
C 2035 0 2317 0 2483 0 
C 2650 0 2938 0 3091 -13 
L 3091 153 
C 2682 153 2656 178 2656 428 
L 2656 1933 
z
" transform="scale(0.015625)"/>
      </defs>
      <use xlink:href="#CMR17-4e" transform="scale(0.996264)"/>
      <use xlink:href="#CMR17-6f" transform="translate(69.07243 0) scale(0.996264)"/>
      <use xlink:href="#CMR17-64" transform="translate(117.365346 0) scale(0.996264)"/>
      <use xlink:href="#CMR17-65" transform="translate(168.260715 0) scale(0.996264)"/>
      <use xlink:href="#CMR17-44" transform="translate(238.822342 0) scale(0.996264)"/>
      <use xlink:href="#CMR17-65" transform="translate(309.215898 0) scale(0.996264)"/>
      <use xlink:href="#CMR17-70" transform="translate(349.701559 0) scale(0.996264)"/>
      <use xlink:href="#CMR17-74" transform="translate(400.596928 0) scale(0.996264)"/>
      <use xlink:href="#CMR17-68" transform="translate(435.877696 0) scale(0.996264)"/>
     </g>
    </g>
   </g>
   <g id="LineCollection_2"/>
   <g id="patch_8">
    <path d="M 717.33359 853.2 
L 738.39359 853.2 
L 759.45359 853.2 
L 759.45359 10.8 
L 738.39359 10.8 
L 717.33359 10.8 
L 717.33359 853.2 
z
" style="fill: none; stroke: #000000; stroke-width: 0.8; stroke-linejoin: miter; stroke-linecap: square"/>
   </g>
  </g>
 </g>
 <defs>
  <clipPath id="p63377de413">
   <rect x="10.8" y="99.513605" width="664.972791" height="664.972791"/>
  </clipPath>
  <clipPath id="p2b81bd09ba">
   <rect x="717.33359" y="10.8" width="42.12" height="842.4"/>
  </clipPath>
 </defs>
</svg>
