<?xml version="1.0" encoding="utf-8" standalone="no"?>
<!DOCTYPE svg PUBLIC "-//W3C//DTD SVG 1.1//EN"
  "http://www.w3.org/Graphics/SVG/1.1/DTD/svg11.dtd">
<svg xmlns:xlink="http://www.w3.org/1999/xlink" width="864pt" height="864pt" viewBox="0 0 864 864" xmlns="http://www.w3.org/2000/svg" version="1.1">
 <metadata>
  <rdf:RDF xmlns:dc="http://purl.org/dc/elements/1.1/" xmlns:cc="http://creativecommons.org/ns#" xmlns:rdf="http://www.w3.org/1999/02/22-rdf-syntax-ns#">
   <cc:Work>
    <dc:type rdf:resource="http://purl.org/dc/dcmitype/StillImage"/>
    <dc:date>2026-06-09T22:33:56.099654</dc:date>
    <dc:format>image/svg+xml</dc:format>
    <dc:creator>
     <cc:Agent>
      <dc:title>Matplotlib v3.9.2, https://matplotlib.org/</dc:title>
     </cc:Agent>
    </dc:creator>
   </cc:Work>
  </rdf:RDF>
 </metadata>
 <defs>
  <style type="text/css">*{stroke-linejoin: round; stroke-linecap: butt}</style>
 </defs>
 <g id="figure_1">
  <g id="patch_1">
   <path d="M 0 864 
L 864 864 
L 864 0 
L 0 0 
z
" style="fill: #ffffff"/>
  </g>
  <g id="axes_1">
   <g id="patch_2">
    <path d="M 10.8 764.486395 
L 675.772791 764.486395 
L 675.772791 99.513605 
L 10.8 99.513605 
z
" style="fill: #ffffff"/>
   </g>
   <g id="LineCollection_1">
    <path d="M 645.378727 453.091644 
L 343.643454 431.995799 
" clip-path="url(#pc3d095ee22)" style="fill: none; stroke: #808080; stroke-opacity: 0.3"/>
    <path d="M 343.643454 431.995799 
L 645.378727 410.895754 
" clip-path="url(#pc3d095ee22)" style="fill: none; stroke: #808080; stroke-opacity: 0.3"/>
    <path d="M 343.643454 431.995799 
L 639.497767 369.094728 
" clip-path="url(#pc3d095ee22)" style="fill: none; stroke: #808080; stroke-opacity: 0.3"/>
    <path d="M 343.643454 431.995799 
L 627.861867 328.558108 
" clip-path="url(#pc3d095ee22)" style="fill: none; stroke: #808080; stroke-opacity: 0.3"/>
    <path d="M 343.643454 431.995799 
L 610.723068 289.995811 
" clip-path="url(#pc3d095ee22)" style="fill: none; stroke: #808080; stroke-opacity: 0.3"/>
    <path d="M 343.643454 431.995799 
L 588.333412 254.205966 
" clip-path="url(#pc3d095ee22)" style="fill: none; stroke: #808080; stroke-opacity: 0.3"/>
    <path d="M 343.643454 431.995799 
L 561.238987 221.902691 
" clip-path="url(#pc3d095ee22)" style="fill: none; stroke: #808080; stroke-opacity: 0.3"/>
    <path d="M 343.643454 431.995799 
L 529.859863 193.674081 
" clip-path="url(#pc3d095ee22)" style="fill: none; stroke: #808080; stroke-opacity: 0.3"/>
    <path d="M 343.643454 431.995799 
L 494.868149 170.066226 
" clip-path="url(#pc3d095ee22)" style="fill: none; stroke: #808080; stroke-opacity: 0.3"/>
    <path d="M 343.643454 431.995799 
L 456.977961 151.583208 
" clip-path="url(#pc3d095ee22)" style="fill: none; stroke: #808080; stroke-opacity: 0.3"/>
    <path d="M 343.643454 431.995799 
L 416.819403 138.519074 
" clip-path="url(#pc3d095ee22)" style="fill: none; stroke: #808080; stroke-opacity: 0.3"/>
    <path d="M 343.643454 431.995799 
L 375.274619 131.209881 
" clip-path="url(#pc3d095ee22)" style="fill: none; stroke: #808080; stroke-opacity: 0.3"/>
    <path d="M 343.643454 431.995799 
L 333.099732 129.739641 
" clip-path="url(#pc3d095ee22)" style="fill: none; stroke: #808080; stroke-opacity: 0.3"/>
    <path d="M 343.643454 431.995799 
L 291.134879 134.150361 
" clip-path="url(#pc3d095ee22)" style="fill: none; stroke: #808080; stroke-opacity: 0.3"/>
    <path d="M 343.643454 431.995799 
L 250.220198 144.358028 
" clip-path="url(#pc3d095ee22)" style="fill: none; stroke: #808080; stroke-opacity: 0.3"/>
    <path d="M 343.643454 431.995799 
L 211.069804 160.152607 
" clip-path="url(#pc3d095ee22)" style="fill: none; stroke: #808080; stroke-opacity: 0.3"/>
    <path d="M 343.643454 431.995799 
L 174.523836 181.240051 
" clip-path="url(#pc3d095ee22)" style="fill: none; stroke: #808080; stroke-opacity: 0.3"/>
    <path d="M 343.643454 431.995799 
L 141.29641 207.242297 
" clip-path="url(#pc3d095ee22)" style="fill: none; stroke: #808080; stroke-opacity: 0.3"/>
    <path d="M 343.643454 431.995799 
L 111.975622 237.57125 
" clip-path="url(#pc3d095ee22)" style="fill: none; stroke: #808080; stroke-opacity: 0.3"/>
    <path d="M 343.643454 431.995799 
L 87.149568 271.722827 
" clip-path="url(#pc3d095ee22)" style="fill: none; stroke: #808080; stroke-opacity: 0.3"/>
    <path d="M 343.643454 431.995799 
L 67.364337 308.982911 
" clip-path="url(#pc3d095ee22)" style="fill: none; stroke: #808080; stroke-opacity: 0.3"/>
    <path d="M 343.643454 431.995799 
L 52.913977 348.637387 
" clip-path="url(#pc3d095ee22)" style="fill: none; stroke: #808080; stroke-opacity: 0.3"/>
    <path d="M 343.643454 431.995799 
L 44.17655 389.900725 
" clip-path="url(#pc3d095ee22)" style="fill: none; stroke: #808080; stroke-opacity: 0.3"/>
    <path d="M 343.643454 431.995799 
L 41.194063 431.995799 
" clip-path="url(#pc3d095ee22)" style="fill: none; stroke: #808080; stroke-opacity: 0.3"/>
    <path d="M 343.643454 431.995799 
L 44.17655 474.086673 
" clip-path="url(#pc3d095ee22)" style="fill: none; stroke: #808080; stroke-opacity: 0.3"/>
    <path d="M 343.643454 431.995799 
L 52.913977 515.362613 
" clip-path="url(#pc3d095ee22)" style="fill: none; stroke: #808080; stroke-opacity: 0.3"/>
    <path d="M 343.643454 431.995799 
L 67.364337 555.012888 
" clip-path="url(#pc3d095ee22)" style="fill: none; stroke: #808080; stroke-opacity: 0.3"/>
    <path d="M 343.643454 431.995799 
L 87.149568 592.268772 
" clip-path="url(#pc3d095ee22)" style="fill: none; stroke: #808080; stroke-opacity: 0.3"/>
    <path d="M 343.643454 431.995799 
L 111.975622 626.407747 
" clip-path="url(#pc3d095ee22)" style="fill: none; stroke: #808080; stroke-opacity: 0.3"/>
    <path d="M 343.643454 431.995799 
L 141.29641 656.757703 
" clip-path="url(#pc3d095ee22)" style="fill: none; stroke: #808080; stroke-opacity: 0.3"/>
    <path d="M 343.643454 431.995799 
L 174.523836 682.738946 
" clip-path="url(#pc3d095ee22)" style="fill: none; stroke: #808080; stroke-opacity: 0.3"/>
    <path d="M 343.643454 431.995799 
L 211.069804 703.834791 
" clip-path="url(#pc3d095ee22)" style="fill: none; stroke: #808080; stroke-opacity: 0.3"/>
    <path d="M 343.643454 431.995799 
L 250.220198 719.641972 
" clip-path="url(#pc3d095ee22)" style="fill: none; stroke: #808080; stroke-opacity: 0.3"/>
    <path d="M 343.643454 431.995799 
L 291.134879 729.849639 
" clip-path="url(#pc3d095ee22)" style="fill: none; stroke: #808080; stroke-opacity: 0.3"/>
    <path d="M 343.643454 431.995799 
L 333.099732 734.260359 
" clip-path="url(#pc3d095ee22)" style="fill: none; stroke: #808080; stroke-opacity: 0.3"/>
    <path d="M 343.643454 431.995799 
L 375.274619 732.785919 
" clip-path="url(#pc3d095ee22)" style="fill: none; stroke: #808080; stroke-opacity: 0.3"/>
    <path d="M 343.643454 431.995799 
L 416.819403 725.459922 
" clip-path="url(#pc3d095ee22)" style="fill: none; stroke: #808080; stroke-opacity: 0.3"/>
    <path d="M 343.643454 431.995799 
L 456.977961 712.420993 
" clip-path="url(#pc3d095ee22)" style="fill: none; stroke: #808080; stroke-opacity: 0.3"/>
    <path d="M 343.643454 431.995799 
L 494.868149 693.925373 
" clip-path="url(#pc3d095ee22)" style="fill: none; stroke: #808080; stroke-opacity: 0.3"/>
    <path d="M 343.643454 431.995799 
L 529.859863 670.33012 
" clip-path="url(#pc3d095ee22)" style="fill: none; stroke: #808080; stroke-opacity: 0.3"/>
    <path d="M 343.643454 431.995799 
L 561.238987 642.093108 
" clip-path="url(#pc3d095ee22)" style="fill: none; stroke: #808080; stroke-opacity: 0.3"/>
    <path d="M 343.643454 431.995799 
L 588.333412 609.76883 
" clip-path="url(#pc3d095ee22)" style="fill: none; stroke: #808080; stroke-opacity: 0.3"/>
    <path d="M 343.643454 431.995799 
L 610.723068 573.987387 
" clip-path="url(#pc3d095ee22)" style="fill: none; stroke: #808080; stroke-opacity: 0.3"/>
    <path d="M 343.643454 431.995799 
L 627.861867 535.437691 
" clip-path="url(#pc3d095ee22)" style="fill: none; stroke: #808080; stroke-opacity: 0.3"/>
    <path d="M 343.643454 431.995799 
L 639.497767 494.880068 
" clip-path="url(#pc3d095ee22)" style="fill: none; stroke: #808080; stroke-opacity: 0.3"/>
   </g>
   <g id="matplotlib.axis_1">
    <g id="xtick_1"/>
    <g id="xtick_2"/>
    <g id="xtick_3"/>
    <g id="xtick_4"/>
    <g id="xtick_5"/>
    <g id="xtick_6"/>
    <g id="xtick_7"/>
   </g>
   <g id="matplotlib.axis_2">
    <g id="ytick_1"/>
    <g id="ytick_2"/>
    <g id="ytick_3"/>
    <g id="ytick_4"/>
    <g id="ytick_5"/>
    <g id="ytick_6"/>
    <g id="ytick_7"/>
    <g id="ytick_8"/>
   </g>
   <g id="PathCollection_1">
    <path d="M 645.378727 464.271984 
C 648.343788 464.271984 651.187807 463.093953 653.284421 460.997338 
C 655.381036 458.900724 656.559067 456.056705 656.559067 453.091644 
C 656.559067 450.126583 655.381036 447.282565 653.284421 445.18595 
C 651.187807 443.089336 648.343788 441.911304 645.378727 441.911304 
C 642.413667 441.911304 639.569648 443.089336 637.473033 445.18595 
C 635.376419 447.282565 634.198387 450.126583 634.198387 453.091644 
C 634.198387 456.056705 635.376419 458.900724 637.473033 460.997338 
C 639.569648 463.093953 642.413667 464.271984 645.378727 464.271984 
z
" clip-path="url(#pc3d095ee22)" style="fill: #ad35ca; stroke: #ad35ca"/>
    <path d="M 343.643454 439.066867 
C 345.518723 439.066867 347.317438 438.321815 348.643454 436.995799 
C 349.969469 435.669784 350.714521 433.871068 350.714521 431.995799 
C 350.714521 430.12053 349.969469 428.321815 348.643454 426.995799 
C 347.317438 425.669784 345.518723 424.924732 343.643454 424.924732 
C 341.768185 424.924732 339.969469 425.669784 338.643454 426.995799 
C 337.317438 428.321815 336.572386 430.12053 336.572386 431.995799 
C 336.572386 433.871068 337.317438 435.669784 338.643454 436.995799 
C 339.969469 438.321815 341.768185 439.066867 343.643454 439.066867 
z
" clip-path="url(#pc3d095ee22)" style="fill: #8f81b5; stroke: #8f81b5"/>
    <path d="M 645.378727 415.36789 
C 646.564752 415.36789 647.702359 414.896677 648.541005 414.058031 
C 649.379651 413.219385 649.850863 412.081778 649.850863 410.895754 
C 649.850863 409.709729 649.379651 408.572122 648.541005 407.733476 
C 647.702359 406.89483 646.564752 406.423618 645.378727 406.423618 
C 644.192703 406.423618 643.055095 406.89483 642.21645 407.733476 
C 641.377804 408.572122 640.906591 409.709729 640.906591 410.895754 
C 640.906591 412.081778 641.377804 413.219385 642.21645 414.058031 
C 643.055095 414.896677 644.192703 415.36789 645.378727 415.36789 
z
" clip-path="url(#pc3d095ee22)" style="fill: #879dba; stroke: #879dba"/>
    <path d="M 639.497767 373.566863 
C 640.683791 373.566863 641.821399 373.095651 642.660045 372.257005 
C 643.49869 371.418359 643.969903 370.280752 643.969903 369.094728 
C 643.969903 367.908703 643.49869 366.771096 642.660045 365.93245 
C 641.821399 365.093804 640.683791 364.622592 639.497767 364.622592 
C 638.311743 364.622592 637.174135 365.093804 636.335489 365.93245 
C 635.496843 366.771096 635.025631 367.908703 635.025631 369.094728 
C 635.025631 370.280752 635.496843 371.418359 636.335489 372.257005 
C 637.174135 373.095651 638.311743 373.566863 639.497767 373.566863 
z
" clip-path="url(#pc3d095ee22)" style="fill: #879dba; stroke: #879dba"/>
    <path d="M 627.861867 333.030244 
C 629.047891 333.030244 630.185499 332.559031 631.024144 331.720386 
C 631.86279 330.88174 632.334003 329.744132 632.334003 328.558108 
C 632.334003 327.372084 631.86279 326.234476 631.024144 325.39583 
C 630.185499 324.557184 629.047891 324.085972 627.861867 324.085972 
C 626.675842 324.085972 625.538235 324.557184 624.699589 325.39583 
C 623.860943 326.234476 623.389731 327.372084 623.389731 328.558108 
C 623.389731 329.744132 623.860943 330.88174 624.699589 331.720386 
C 625.538235 332.559031 626.675842 333.030244 627.861867 333.030244 
z
" clip-path="url(#pc3d095ee22)" style="fill: #879dba; stroke: #879dba"/>
    <path d="M 610.723068 294.467947 
C 611.909092 294.467947 613.0467 293.996734 613.885346 293.158088 
C 614.723991 292.319442 615.195204 291.181835 615.195204 289.995811 
C 615.195204 288.809786 614.723991 287.672179 613.885346 286.833533 
C 613.0467 285.994887 611.909092 285.523675 610.723068 285.523675 
C 609.537044 285.523675 608.399436 285.994887 607.56079 286.833533 
C 606.722145 287.672179 606.250932 288.809786 606.250932 289.995811 
C 606.250932 291.181835 606.722145 292.319442 607.56079 293.158088 
C 608.399436 293.996734 609.537044 294.467947 610.723068 294.467947 
z
" clip-path="url(#pc3d095ee22)" style="fill: #879dba; stroke: #879dba"/>
    <path d="M 588.333412 258.678102 
C 589.519436 258.678102 590.657044 258.20689 591.495689 257.368244 
C 592.334335 256.529598 592.805548 255.39199 592.805548 254.205966 
C 592.805548 253.019942 592.334335 251.882334 591.495689 251.043688 
C 590.657044 250.205043 589.519436 249.73383 588.333412 249.73383 
C 587.147387 249.73383 586.00978 250.205043 585.171134 251.043688 
C 584.332488 251.882334 583.861276 253.019942 583.861276 254.205966 
C 583.861276 255.39199 584.332488 256.529598 585.171134 257.368244 
C 586.00978 258.20689 587.147387 258.678102 588.333412 258.678102 
z
" clip-path="url(#pc3d095ee22)" style="fill: #879dba; stroke: #879dba"/>
    <path d="M 561.238987 226.374827 
C 562.425012 226.374827 563.562619 225.903614 564.401265 225.064969 
C 565.239911 224.226323 565.711123 223.088715 565.711123 221.902691 
C 565.711123 220.716667 565.239911 219.579059 564.401265 218.740413 
C 563.562619 217.901767 562.425012 217.430555 561.238987 217.430555 
C 560.052963 217.430555 558.915355 217.901767 558.07671 218.740413 
C 557.238064 219.579059 556.766851 220.716667 556.766851 221.902691 
C 556.766851 223.088715 557.238064 224.226323 558.07671 225.064969 
C 558.915355 225.903614 560.052963 226.374827 561.238987 226.374827 
z
" clip-path="url(#pc3d095ee22)" style="fill: #879dba; stroke: #879dba"/>
    <path d="M 529.859863 198.146217 
C 531.045887 198.146217 532.183495 197.675005 533.022141 196.836359 
C 533.860786 195.997713 534.331999 194.860105 534.331999 193.674081 
C 534.331999 192.488057 533.860786 191.350449 533.022141 190.511803 
C 532.183495 189.673158 531.045887 189.201945 529.859863 189.201945 
C 528.673839 189.201945 527.536231 189.673158 526.697585 190.511803 
C 525.858939 191.350449 525.387727 192.488057 525.387727 193.674081 
C 525.387727 194.860105 525.858939 195.997713 526.697585 196.836359 
C 527.536231 197.675005 528.673839 198.146217 529.859863 198.146217 
z
" clip-path="url(#pc3d095ee22)" style="fill: #879dba; stroke: #879dba"/>
    <path d="M 494.868149 174.538362 
C 496.054173 174.538362 497.191781 174.067149 498.030426 173.228504 
C 498.869072 172.389858 499.340285 171.25225 499.340285 170.066226 
C 499.340285 168.880202 498.869072 167.742594 498.030426 166.903948 
C 497.191781 166.065302 496.054173 165.59409 494.868149 165.59409 
C 493.682124 165.59409 492.544517 166.065302 491.705871 166.903948 
C 490.867225 167.742594 490.396013 168.880202 490.396013 170.066226 
C 490.396013 171.25225 490.867225 172.389858 491.705871 173.228504 
C 492.544517 174.067149 493.682124 174.538362 494.868149 174.538362 
z
" clip-path="url(#pc3d095ee22)" style="fill: #879dba; stroke: #879dba"/>
    <path d="M 456.977961 156.055344 
C 458.163986 156.055344 459.301593 155.584131 460.140239 154.745485 
C 460.978885 153.906839 461.450097 152.769232 461.450097 151.583208 
C 461.450097 150.397183 460.978885 149.259576 460.140239 148.42093 
C 459.301593 147.582284 458.163986 147.111072 456.977961 147.111072 
C 455.791937 147.111072 454.654329 147.582284 453.815684 148.42093 
C 452.977038 149.259576 452.505825 150.397183 452.505825 151.583208 
C 452.505825 152.769232 452.977038 153.906839 453.815684 154.745485 
C 454.654329 155.584131 455.791937 156.055344 456.977961 156.055344 
z
" clip-path="url(#pc3d095ee22)" style="fill: #879dba; stroke: #879dba"/>
    <path d="M 416.819403 142.99121 
C 418.005428 142.99121 419.143035 142.519998 419.981681 141.681352 
C 420.820327 140.842706 421.291539 139.705099 421.291539 138.519074 
C 421.291539 137.33305 420.820327 136.195442 419.981681 135.356797 
C 419.143035 134.518151 418.005428 134.046938 416.819403 134.046938 
C 415.633379 134.046938 414.495772 134.518151 413.657126 135.356797 
C 412.81848 136.195442 412.347267 137.33305 412.347267 138.519074 
C 412.347267 139.705099 412.81848 140.842706 413.657126 141.681352 
C 414.495772 142.519998 415.633379 142.99121 416.819403 142.99121 
z
" clip-path="url(#pc3d095ee22)" style="fill: #879dba; stroke: #879dba"/>
    <path d="M 375.274619 135.682017 
C 376.460643 135.682017 377.598251 135.210804 378.436897 134.372158 
C 379.275543 133.533513 379.746755 132.395905 379.746755 131.209881 
C 379.746755 130.023856 379.275543 128.886249 378.436897 128.047603 
C 377.598251 127.208957 376.460643 126.737745 375.274619 126.737745 
C 374.088595 126.737745 372.950987 127.208957 372.112341 128.047603 
C 371.273696 128.886249 370.802483 130.023856 370.802483 131.209881 
C 370.802483 132.395905 371.273696 133.533513 372.112341 134.372158 
C 372.950987 135.210804 374.088595 135.682017 375.274619 135.682017 
z
" clip-path="url(#pc3d095ee22)" style="fill: #879dba; stroke: #879dba"/>
    <path d="M 333.099732 134.211777 
C 334.285756 134.211777 335.423364 133.740564 336.26201 132.901918 
C 337.100655 132.063272 337.571868 130.925665 337.571868 129.739641 
C 337.571868 128.553616 337.100655 127.416009 336.26201 126.577363 
C 335.423364 125.738717 334.285756 125.267505 333.099732 125.267505 
C 331.913708 125.267505 330.7761 125.738717 329.937454 126.577363 
C 329.098808 127.416009 328.627596 128.553616 328.627596 129.739641 
C 328.627596 130.925665 329.098808 132.063272 329.937454 132.901918 
C 330.7761 133.740564 331.913708 134.211777 333.099732 134.211777 
z
" clip-path="url(#pc3d095ee22)" style="fill: #879dba; stroke: #879dba"/>
    <path d="M 291.134879 138.622497 
C 292.320903 138.622497 293.458511 138.151284 294.297157 137.312639 
C 295.135802 136.473993 295.607015 135.336385 295.607015 134.150361 
C 295.607015 132.964337 295.135802 131.826729 294.297157 130.988083 
C 293.458511 130.149437 292.320903 129.678225 291.134879 129.678225 
C 289.948855 129.678225 288.811247 130.149437 287.972601 130.988083 
C 287.133955 131.826729 286.662743 132.964337 286.662743 134.150361 
C 286.662743 135.336385 287.133955 136.473993 287.972601 137.312639 
C 288.811247 138.151284 289.948855 138.622497 291.134879 138.622497 
z
" clip-path="url(#pc3d095ee22)" style="fill: #879dba; stroke: #879dba"/>
    <path d="M 250.220198 148.830164 
C 251.406222 148.830164 252.543829 148.358951 253.382475 147.520305 
C 254.221121 146.68166 254.692333 145.544052 254.692333 144.358028 
C 254.692333 143.172003 254.221121 142.034396 253.382475 141.19575 
C 252.543829 140.357104 251.406222 139.885892 250.220198 139.885892 
C 249.034173 139.885892 247.896566 140.357104 247.05792 141.19575 
C 246.219274 142.034396 245.748062 143.172003 245.748062 144.358028 
C 245.748062 145.544052 246.219274 146.68166 247.05792 147.520305 
C 247.896566 148.358951 249.034173 148.830164 250.220198 148.830164 
z
" clip-path="url(#pc3d095ee22)" style="fill: #879dba; stroke: #879dba"/>
    <path d="M 211.069804 164.624743 
C 212.255829 164.624743 213.393436 164.153531 214.232082 163.314885 
C 215.070728 162.476239 215.54194 161.338631 215.54194 160.152607 
C 215.54194 158.966583 215.070728 157.828975 214.232082 156.990329 
C 213.393436 156.151684 212.255829 155.680471 211.069804 155.680471 
C 209.88378 155.680471 208.746172 156.151684 207.907527 156.990329 
C 207.068881 157.828975 206.597668 158.966583 206.597668 160.152607 
C 206.597668 161.338631 207.068881 162.476239 207.907527 163.314885 
C 208.746172 164.153531 209.88378 164.624743 211.069804 164.624743 
z
" clip-path="url(#pc3d095ee22)" style="fill: #879dba; stroke: #879dba"/>
    <path d="M 174.523836 185.712187 
C 175.709861 185.712187 176.847468 185.240974 177.686114 184.402328 
C 178.52476 183.563682 178.995972 182.426075 178.995972 181.240051 
C 178.995972 180.054026 178.52476 178.916419 177.686114 178.077773 
C 176.847468 177.239127 175.709861 176.767915 174.523836 176.767915 
C 173.337812 176.767915 172.200204 177.239127 171.361559 178.077773 
C 170.522913 178.916419 170.0517 180.054026 170.0517 181.240051 
C 170.0517 182.426075 170.522913 183.563682 171.361559 184.402328 
C 172.200204 185.240974 173.337812 185.712187 174.523836 185.712187 
z
" clip-path="url(#pc3d095ee22)" style="fill: #879dba; stroke: #879dba"/>
    <path d="M 141.29641 211.714433 
C 142.482435 211.714433 143.620042 211.24322 144.458688 210.404575 
C 145.297334 209.565929 145.768546 208.428321 145.768546 207.242297 
C 145.768546 206.056273 145.297334 204.918665 144.458688 204.080019 
C 143.620042 203.241373 142.482435 202.770161 141.29641 202.770161 
C 140.110386 202.770161 138.972778 203.241373 138.134133 204.080019 
C 137.295487 204.918665 136.824274 206.056273 136.824274 207.242297 
C 136.824274 208.428321 137.295487 209.565929 138.134133 210.404575 
C 138.972778 211.24322 140.110386 211.714433 141.29641 211.714433 
z
" clip-path="url(#pc3d095ee22)" style="fill: #879dba; stroke: #879dba"/>
    <path d="M 111.975622 242.043386 
C 113.161646 242.043386 114.299254 241.572173 115.1379 240.733527 
C 115.976546 239.894881 116.447758 238.757274 116.447758 237.57125 
C 116.447758 236.385225 115.976546 235.247618 115.1379 234.408972 
C 114.299254 233.570326 113.161646 233.099114 111.975622 233.099114 
C 110.789598 233.099114 109.65199 233.570326 108.813344 234.408972 
C 107.974699 235.247618 107.503486 236.385225 107.503486 237.57125 
C 107.503486 238.757274 107.974699 239.894881 108.813344 240.733527 
C 109.65199 241.572173 110.789598 242.043386 111.975622 242.043386 
z
" clip-path="url(#pc3d095ee22)" style="fill: #879dba; stroke: #879dba"/>
    <path d="M 87.149568 276.194963 
C 88.335592 276.194963 89.4732 275.72375 90.311846 274.885104 
C 91.150491 274.046458 91.621704 272.908851 91.621704 271.722827 
C 91.621704 270.536802 91.150491 269.399195 90.311846 268.560549 
C 89.4732 267.721903 88.335592 267.250691 87.149568 267.250691 
C 85.963544 267.250691 84.825936 267.721903 83.98729 268.560549 
C 83.148644 269.399195 82.677432 270.536802 82.677432 271.722827 
C 82.677432 272.908851 83.148644 274.046458 83.98729 274.885104 
C 84.825936 275.72375 85.963544 276.194963 87.149568 276.194963 
z
" clip-path="url(#pc3d095ee22)" style="fill: #879dba; stroke: #879dba"/>
    <path d="M 67.364337 313.455047 
C 68.550361 313.455047 69.687969 312.983835 70.526615 312.145189 
C 71.365261 311.306543 71.836473 310.168936 71.836473 308.982911 
C 71.836473 307.796887 71.365261 306.659279 70.526615 305.820634 
C 69.687969 304.981988 68.550361 304.510775 67.364337 304.510775 
C 66.178313 304.510775 65.040705 304.981988 64.202059 305.820634 
C 63.363414 306.659279 62.892201 307.796887 62.892201 308.982911 
C 62.892201 310.168936 63.363414 311.306543 64.202059 312.145189 
C 65.040705 312.983835 66.178313 313.455047 67.364337 313.455047 
z
" clip-path="url(#pc3d095ee22)" style="fill: #879dba; stroke: #879dba"/>
    <path d="M 52.913977 353.109523 
C 54.100002 353.109523 55.237609 352.63831 56.076255 351.799664 
C 56.914901 350.961019 57.386113 349.823411 57.386113 348.637387 
C 57.386113 347.451362 56.914901 346.313755 56.076255 345.475109 
C 55.237609 344.636463 54.100002 344.165251 52.913977 344.165251 
C 51.727953 344.165251 50.590345 344.636463 49.7517 345.475109 
C 48.913054 346.313755 48.441841 347.451362 48.441841 348.637387 
C 48.441841 349.823411 48.913054 350.961019 49.7517 351.799664 
C 50.590345 352.63831 51.727953 353.109523 52.913977 353.109523 
z
" clip-path="url(#pc3d095ee22)" style="fill: #879dba; stroke: #879dba"/>
    <path d="M 44.17655 394.372861 
C 45.362575 394.372861 46.500182 393.901649 47.338828 393.063003 
C 48.177474 392.224357 48.648686 391.086749 48.648686 389.900725 
C 48.648686 388.714701 48.177474 387.577093 47.338828 386.738447 
C 46.500182 385.899802 45.362575 385.428589 44.17655 385.428589 
C 42.990526 385.428589 41.852919 385.899802 41.014273 386.738447 
C 40.175627 387.577093 39.704414 388.714701 39.704414 389.900725 
C 39.704414 391.086749 40.175627 392.224357 41.014273 393.063003 
C 41.852919 393.901649 42.990526 394.372861 44.17655 394.372861 
z
" clip-path="url(#pc3d095ee22)" style="fill: #879dba; stroke: #879dba"/>
    <path d="M 41.194063 436.467935 
C 42.380088 436.467935 43.517695 435.996723 44.356341 435.158077 
C 45.194987 434.319431 45.666199 433.181824 45.666199 431.995799 
C 45.666199 430.809775 45.194987 429.672167 44.356341 428.833522 
C 43.517695 427.994876 42.380088 427.523663 41.194063 427.523663 
C 40.008039 427.523663 38.870432 427.994876 38.031786 428.833522 
C 37.19314 429.672167 36.721927 430.809775 36.721927 431.995799 
C 36.721927 433.181824 37.19314 434.319431 38.031786 435.158077 
C 38.870432 435.996723 40.008039 436.467935 41.194063 436.467935 
z
" clip-path="url(#pc3d095ee22)" style="fill: #879dba; stroke: #879dba"/>
    <path d="M 44.17655 478.558809 
C 45.362575 478.558809 46.500182 478.087596 47.338828 477.24895 
C 48.177474 476.410305 48.648686 475.272697 48.648686 474.086673 
C 48.648686 472.900648 48.177474 471.763041 47.338828 470.924395 
C 46.500182 470.085749 45.362575 469.614537 44.17655 469.614537 
C 42.990526 469.614537 41.852919 470.085749 41.014273 470.924395 
C 40.175627 471.763041 39.704414 472.900648 39.704414 474.086673 
C 39.704414 475.272697 40.175627 476.410305 41.014273 477.24895 
C 41.852919 478.087596 42.990526 478.558809 44.17655 478.558809 
z
" clip-path="url(#pc3d095ee22)" style="fill: #879dba; stroke: #879dba"/>
    <path d="M 52.913977 519.834749 
C 54.100002 519.834749 55.237609 519.363537 56.076255 518.524891 
C 56.914901 517.686245 57.386113 516.548638 57.386113 515.362613 
C 57.386113 514.176589 56.914901 513.038981 56.076255 512.200336 
C 55.237609 511.36169 54.100002 510.890477 52.913977 510.890477 
C 51.727953 510.890477 50.590345 511.36169 49.7517 512.200336 
C 48.913054 513.038981 48.441841 514.176589 48.441841 515.362613 
C 48.441841 516.548638 48.913054 517.686245 49.7517 518.524891 
C 50.590345 519.363537 51.727953 519.834749 52.913977 519.834749 
z
" clip-path="url(#pc3d095ee22)" style="fill: #879dba; stroke: #879dba"/>
    <path d="M 67.364337 559.485024 
C 68.550361 559.485024 69.687969 559.013812 70.526615 558.175166 
C 71.365261 557.33652 71.836473 556.198912 71.836473 555.012888 
C 71.836473 553.826864 71.365261 552.689256 70.526615 551.85061 
C 69.687969 551.011965 68.550361 550.540752 67.364337 550.540752 
C 66.178313 550.540752 65.040705 551.011965 64.202059 551.85061 
C 63.363414 552.689256 62.892201 553.826864 62.892201 555.012888 
C 62.892201 556.198912 63.363414 557.33652 64.202059 558.175166 
C 65.040705 559.013812 66.178313 559.485024 67.364337 559.485024 
z
" clip-path="url(#pc3d095ee22)" style="fill: #879dba; stroke: #879dba"/>
    <path d="M 87.149568 596.740908 
C 88.335592 596.740908 89.4732 596.269696 90.311846 595.43105 
C 91.150491 594.592404 91.621704 593.454796 91.621704 592.268772 
C 91.621704 591.082748 91.150491 589.94514 90.311846 589.106494 
C 89.4732 588.267849 88.335592 587.796636 87.149568 587.796636 
C 85.963544 587.796636 84.825936 588.267849 83.98729 589.106494 
C 83.148644 589.94514 82.677432 591.082748 82.677432 592.268772 
C 82.677432 593.454796 83.148644 594.592404 83.98729 595.43105 
C 84.825936 596.269696 85.963544 596.740908 87.149568 596.740908 
z
" clip-path="url(#pc3d095ee22)" style="fill: #879dba; stroke: #879dba"/>
    <path d="M 111.975622 630.879883 
C 113.161646 630.879883 114.299254 630.40867 115.1379 629.570025 
C 115.976546 628.731379 116.447758 627.593771 116.447758 626.407747 
C 116.447758 625.221723 115.976546 624.084115 115.1379 623.245469 
C 114.299254 622.406823 113.161646 621.935611 111.975622 621.935611 
C 110.789598 621.935611 109.65199 622.406823 108.813344 623.245469 
C 107.974699 624.084115 107.503486 625.221723 107.503486 626.407747 
C 107.503486 627.593771 107.974699 628.731379 108.813344 629.570025 
C 109.65199 630.40867 110.789598 630.879883 111.975622 630.879883 
z
" clip-path="url(#pc3d095ee22)" style="fill: #879dba; stroke: #879dba"/>
    <path d="M 141.29641 661.229839 
C 142.482435 661.229839 143.620042 660.758627 144.458688 659.919981 
C 145.297334 659.081335 145.768546 657.943727 145.768546 656.757703 
C 145.768546 655.571679 145.297334 654.434071 144.458688 653.595425 
C 143.620042 652.75678 142.482435 652.285567 141.29641 652.285567 
C 140.110386 652.285567 138.972778 652.75678 138.134133 653.595425 
C 137.295487 654.434071 136.824274 655.571679 136.824274 656.757703 
C 136.824274 657.943727 137.295487 659.081335 138.134133 659.919981 
C 138.972778 660.758627 140.110386 661.229839 141.29641 661.229839 
z
" clip-path="url(#pc3d095ee22)" style="fill: #879dba; stroke: #879dba"/>
    <path d="M 174.523836 687.211082 
C 175.709861 687.211082 176.847468 686.739869 177.686114 685.901224 
C 178.52476 685.062578 178.995972 683.92497 178.995972 682.738946 
C 178.995972 681.552922 178.52476 680.415314 177.686114 679.576668 
C 176.847468 678.738022 175.709861 678.26681 174.523836 678.26681 
C 173.337812 678.26681 172.200204 678.738022 171.361559 679.576668 
C 170.522913 680.415314 170.0517 681.552922 170.0517 682.738946 
C 170.0517 683.92497 170.522913 685.062578 171.361559 685.901224 
C 172.200204 686.739869 173.337812 687.211082 174.523836 687.211082 
z
" clip-path="url(#pc3d095ee22)" style="fill: #879dba; stroke: #879dba"/>
    <path d="M 211.069804 708.306927 
C 212.255829 708.306927 213.393436 707.835714 214.232082 706.997069 
C 215.070728 706.158423 215.54194 705.020815 215.54194 703.834791 
C 215.54194 702.648767 215.070728 701.511159 214.232082 700.672513 
C 213.393436 699.833867 212.255829 699.362655 211.069804 699.362655 
C 209.88378 699.362655 208.746172 699.833867 207.907527 700.672513 
C 207.068881 701.511159 206.597668 702.648767 206.597668 703.834791 
C 206.597668 705.020815 207.068881 706.158423 207.907527 706.997069 
C 208.746172 707.835714 209.88378 708.306927 211.069804 708.306927 
z
" clip-path="url(#pc3d095ee22)" style="fill: #879dba; stroke: #879dba"/>
    <path d="M 250.220198 724.114108 
C 251.406222 724.114108 252.543829 723.642896 253.382475 722.80425 
C 254.221121 721.965604 254.692333 720.827997 254.692333 719.641972 
C 254.692333 718.455948 254.221121 717.31834 253.382475 716.479695 
C 252.543829 715.641049 251.406222 715.169836 250.220198 715.169836 
C 249.034173 715.169836 247.896566 715.641049 247.05792 716.479695 
C 246.219274 717.31834 245.748062 718.455948 245.748062 719.641972 
C 245.748062 720.827997 246.219274 721.965604 247.05792 722.80425 
C 247.896566 723.642896 249.034173 724.114108 250.220198 724.114108 
z
" clip-path="url(#pc3d095ee22)" style="fill: #879dba; stroke: #879dba"/>
    <path d="M 291.134879 734.321775 
C 292.320903 734.321775 293.458511 733.850563 294.297157 733.011917 
C 295.135802 732.173271 295.607015 731.035663 295.607015 729.849639 
C 295.607015 728.663615 295.135802 727.526007 294.297157 726.687361 
C 293.458511 725.848716 292.320903 725.377503 291.134879 725.377503 
C 289.948855 725.377503 288.811247 725.848716 287.972601 726.687361 
C 287.133955 727.526007 286.662743 728.663615 286.662743 729.849639 
C 286.662743 731.035663 287.133955 732.173271 287.972601 733.011917 
C 288.811247 733.850563 289.948855 734.321775 291.134879 734.321775 
z
" clip-path="url(#pc3d095ee22)" style="fill: #879dba; stroke: #879dba"/>
    <path d="M 333.099732 738.732495 
C 334.285756 738.732495 335.423364 738.261283 336.26201 737.422637 
C 337.100655 736.583991 337.571868 735.446384 337.571868 734.260359 
C 337.571868 733.074335 337.100655 731.936728 336.26201 731.098082 
C 335.423364 730.259436 334.285756 729.788223 333.099732 729.788223 
C 331.913708 729.788223 330.7761 730.259436 329.937454 731.098082 
C 329.098808 731.936728 328.627596 733.074335 328.627596 734.260359 
C 328.627596 735.446384 329.098808 736.583991 329.937454 737.422637 
C 330.7761 738.261283 331.913708 738.732495 333.099732 738.732495 
z
" clip-path="url(#pc3d095ee22)" style="fill: #879dba; stroke: #879dba"/>
    <path d="M 375.274619 737.258055 
C 376.460643 737.258055 377.598251 736.786842 378.436897 735.948196 
C 379.275543 735.10955 379.746755 733.971943 379.746755 732.785919 
C 379.746755 731.599894 379.275543 730.462287 378.436897 729.623641 
C 377.598251 728.784995 376.460643 728.313783 375.274619 728.313783 
C 374.088595 728.313783 372.950987 728.784995 372.112341 729.623641 
C 371.273696 730.462287 370.802483 731.599894 370.802483 732.785919 
C 370.802483 733.971943 371.273696 735.10955 372.112341 735.948196 
C 372.950987 736.786842 374.088595 737.258055 375.274619 737.258055 
z
" clip-path="url(#pc3d095ee22)" style="fill: #879dba; stroke: #879dba"/>
    <path d="M 416.819403 729.932058 
C 418.005428 729.932058 419.143035 729.460846 419.981681 728.6222 
C 420.820327 727.783554 421.291539 726.645947 421.291539 725.459922 
C 421.291539 724.273898 420.820327 723.13629 419.981681 722.297645 
C 419.143035 721.458999 418.005428 720.987786 416.819403 720.987786 
C 415.633379 720.987786 414.495772 721.458999 413.657126 722.297645 
C 412.81848 723.13629 412.347267 724.273898 412.347267 725.459922 
C 412.347267 726.645947 412.81848 727.783554 413.657126 728.6222 
C 414.495772 729.460846 415.633379 729.932058 416.819403 729.932058 
z
" clip-path="url(#pc3d095ee22)" style="fill: #879dba; stroke: #879dba"/>
    <path d="M 456.977961 716.893129 
C 458.163986 716.893129 459.301593 716.421917 460.140239 715.583271 
C 460.978885 714.744625 461.450097 713.607017 461.450097 712.420993 
C 461.450097 711.234969 460.978885 710.097361 460.140239 709.258715 
C 459.301593 708.42007 458.163986 707.948857 456.977961 707.948857 
C 455.791937 707.948857 454.654329 708.42007 453.815684 709.258715 
C 452.977038 710.097361 452.505825 711.234969 452.505825 712.420993 
C 452.505825 713.607017 452.977038 714.744625 453.815684 715.583271 
C 454.654329 716.421917 455.791937 716.893129 456.977961 716.893129 
z
" clip-path="url(#pc3d095ee22)" style="fill: #879dba; stroke: #879dba"/>
    <path d="M 494.868149 698.397509 
C 496.054173 698.397509 497.191781 697.926296 498.030426 697.08765 
C 498.869072 696.249004 499.340285 695.111397 499.340285 693.925373 
C 499.340285 692.739348 498.869072 691.601741 498.030426 690.763095 
C 497.191781 689.924449 496.054173 689.453237 494.868149 689.453237 
C 493.682124 689.453237 492.544517 689.924449 491.705871 690.763095 
C 490.867225 691.601741 490.396013 692.739348 490.396013 693.925373 
C 490.396013 695.111397 490.867225 696.249004 491.705871 697.08765 
C 492.544517 697.926296 493.682124 698.397509 494.868149 698.397509 
z
" clip-path="url(#pc3d095ee22)" style="fill: #879dba; stroke: #879dba"/>
    <path d="M 529.859863 674.802255 
C 531.045887 674.802255 532.183495 674.331043 533.022141 673.492397 
C 533.860786 672.653751 534.331999 671.516144 534.331999 670.33012 
C 534.331999 669.144095 533.860786 668.006488 533.022141 667.167842 
C 532.183495 666.329196 531.045887 665.857984 529.859863 665.857984 
C 528.673839 665.857984 527.536231 666.329196 526.697585 667.167842 
C 525.858939 668.006488 525.387727 669.144095 525.387727 670.33012 
C 525.387727 671.516144 525.858939 672.653751 526.697585 673.492397 
C 527.536231 674.331043 528.673839 674.802255 529.859863 674.802255 
z
" clip-path="url(#pc3d095ee22)" style="fill: #879dba; stroke: #879dba"/>
    <path d="M 561.238987 646.565244 
C 562.425012 646.565244 563.562619 646.094032 564.401265 645.255386 
C 565.239911 644.41674 565.711123 643.279133 565.711123 642.093108 
C 565.711123 640.907084 565.239911 639.769477 564.401265 638.930831 
C 563.562619 638.092185 562.425012 637.620972 561.238987 637.620972 
C 560.052963 637.620972 558.915355 638.092185 558.07671 638.930831 
C 557.238064 639.769477 556.766851 640.907084 556.766851 642.093108 
C 556.766851 643.279133 557.238064 644.41674 558.07671 645.255386 
C 558.915355 646.094032 560.052963 646.565244 561.238987 646.565244 
z
" clip-path="url(#pc3d095ee22)" style="fill: #879dba; stroke: #879dba"/>
    <path d="M 588.333412 614.240966 
C 589.519436 614.240966 590.657044 613.769753 591.495689 612.931107 
C 592.334335 612.092462 592.805548 610.954854 592.805548 609.76883 
C 592.805548 608.582805 592.334335 607.445198 591.495689 606.606552 
C 590.657044 605.767906 589.519436 605.296694 588.333412 605.296694 
C 587.147387 605.296694 586.00978 605.767906 585.171134 606.606552 
C 584.332488 607.445198 583.861276 608.582805 583.861276 609.76883 
C 583.861276 610.954854 584.332488 612.092462 585.171134 612.931107 
C 586.00978 613.769753 587.147387 614.240966 588.333412 614.240966 
z
" clip-path="url(#pc3d095ee22)" style="fill: #879dba; stroke: #879dba"/>
    <path d="M 610.723068 578.459523 
C 611.909092 578.459523 613.0467 577.98831 613.885346 577.149664 
C 614.723991 576.311018 615.195204 575.173411 615.195204 573.987387 
C 615.195204 572.801362 614.723991 571.663755 613.885346 570.825109 
C 613.0467 569.986463 611.909092 569.515251 610.723068 569.515251 
C 609.537044 569.515251 608.399436 569.986463 607.56079 570.825109 
C 606.722145 571.663755 606.250932 572.801362 606.250932 573.987387 
C 606.250932 575.173411 606.722145 576.311018 607.56079 577.149664 
C 608.399436 577.98831 609.537044 578.459523 610.723068 578.459523 
z
" clip-path="url(#pc3d095ee22)" style="fill: #879dba; stroke: #879dba"/>
    <path d="M 627.861867 539.909827 
C 629.047891 539.909827 630.185499 539.438615 631.024144 538.599969 
C 631.86279 537.761323 632.334003 536.623716 632.334003 535.437691 
C 632.334003 534.251667 631.86279 533.11406 631.024144 532.275414 
C 630.185499 531.436768 629.047891 530.965556 627.861867 530.965556 
C 626.675842 530.965556 625.538235 531.436768 624.699589 532.275414 
C 623.860943 533.11406 623.389731 534.251667 623.389731 535.437691 
C 623.389731 536.623716 623.860943 537.761323 624.699589 538.599969 
C 625.538235 539.438615 626.675842 539.909827 627.861867 539.909827 
z
" clip-path="url(#pc3d095ee22)" style="fill: #879dba; stroke: #879dba"/>
    <path d="M 639.497767 499.352204 
C 640.683791 499.352204 641.821399 498.880992 642.660045 498.042346 
C 643.49869 497.2037 643.969903 496.066093 643.969903 494.880068 
C 643.969903 493.694044 643.49869 492.556437 642.660045 491.717791 
C 641.821399 490.879145 640.683791 490.407932 639.497767 490.407932 
C 638.311743 490.407932 637.174135 490.879145 636.335489 491.717791 
C 635.496843 492.556437 635.025631 493.694044 635.025631 494.880068 
C 635.025631 496.066093 635.496843 497.2037 636.335489 498.042346 
C 637.174135 498.880992 638.311743 499.352204 639.497767 499.352204 
z
" clip-path="url(#pc3d095ee22)" style="fill: #879dba; stroke: #879dba"/>
   </g>
   <g id="patch_3">
    <path d="M 10.8 764.486395 
L 10.8 99.513605 
" style="fill: none; stroke: #000000; stroke-width: 0.8; stroke-linejoin: miter; stroke-linecap: square"/>
   </g>
   <g id="patch_4">
    <path d="M 675.772791 764.486395 
L 675.772791 99.513605 
" style="fill: none; stroke: #000000; stroke-width: 0.8; stroke-linejoin: miter; stroke-linecap: square"/>
   </g>
   <g id="patch_5">
    <path d="M 10.8 764.486395 
L 675.772791 764.486395 
" style="fill: none; stroke: #000000; stroke-width: 0.8; stroke-linejoin: miter; stroke-linecap: square"/>
   </g>
   <g id="patch_6">
    <path d="M 10.8 99.513605 
L 675.772791 99.513605 
" style="fill: none; stroke: #000000; stroke-width: 0.8; stroke-linejoin: miter; stroke-linecap: square"/>
   </g>
   <g id="text_1">
    <!-- Year: 1820 -->
    <g transform="translate(17.449728 126.918828) scale(0.3 -0.3)">
     <defs>
      <path id="CMR17-59" d="M 3706 3766 
C 3955 4160 4301 4160 4416 4160 
L 4416 4332 
C 4269 4319 4102 4319 3942 4319 
C 3782 4319 3526 4319 3373 4332 
L 3373 4160 
C 3533 4160 3616 4077 3616 3957 
C 3616 3881 3584 3830 3533 3747 
L 2381 1912 
L 1120 3912 
C 1075 3988 1069 3994 1069 4039 
C 1069 4160 1293 4160 1382 4160 
L 1382 4319 
C 1178 4319 864 4319 653 4319 
C 486 4319 166 4319 13 4332 
L 13 4160 
C 378 4160 480 4141 595 3958 
L 2010 1728 
L 2010 445 
C 2010 160 1939 160 1498 160 
L 1498 0 
C 1683 0 2016 0 2214 0 
C 2413 0 2752 0 2938 0 
L 2938 160 
C 2477 160 2419 160 2419 471 
L 2419 1728 
L 3706 3766 
z
" transform="scale(0.015625)"/>
      <path id="CMR17-65" d="M 2438 1472 
C 2464 1498 2464 1511 2464 1576 
C 2464 2238 2118 2816 1389 2816 
C 710 2816 173 2169 173 1383 
C 173 551 781 -64 1459 -64 
C 2176 -64 2458 607 2458 740 
C 2458 784 2419 784 2406 784 
C 2362 784 2355 771 2330 696 
C 2189 265 1837 51 1504 51 
C 1229 51 954 203 781 480 
C 582 803 582 1176 582 1472 
L 2438 1472 
z
M 589 1568 
C 634 2505 1126 2714 1382 2714 
C 1818 2714 2112 2297 2118 1568 
L 589 1568 
z
" transform="scale(0.015625)"/>
      <path id="CMR17-61" d="M 2304 1653 
C 2304 2072 2304 2294 2035 2543 
C 1798 2752 1523 2816 1306 2816 
C 800 2816 435 2407 435 1971 
C 435 1728 627 1728 666 1728 
C 749 1728 896 1778 896 1954 
C 896 2112 774 2181 666 2181 
C 640 2181 608 2174 589 2168 
C 723 2592 1069 2714 1293 2714 
C 1613 2714 1965 2429 1965 1885 
L 1965 1600 
C 1587 1600 1133 1549 774 1357 
C 371 1133 256 813 256 570 
C 256 77 832 -64 1171 -64 
C 1523 -64 1850 139 1990 511 
C 2003 233 2182 -18 2464 -18 
C 2598 -18 2938 70 2938 567 
L 2938 920 
L 2822 920 
L 2822 562 
C 2822 178 2650 128 2566 128 
C 2304 128 2304 458 2304 738 
L 2304 1653 
z
M 1965 870 
C 1965 317 1568 38 1216 38 
C 896 38 646 275 646 570 
C 646 761 730 1100 1101 1305 
C 1408 1478 1760 1504 1965 1504 
L 1965 870 
z
" transform="scale(0.015625)"/>
      <path id="CMR17-72" d="M 960 1497 
C 960 2112 1222 2688 1702 2688 
C 1747 2688 1792 2682 1837 2662 
C 1837 2662 1696 2617 1696 2452 
C 1696 2298 1818 2234 1914 2234 
C 1990 2234 2131 2279 2131 2458 
C 2131 2663 1926 2790 1709 2790 
C 1222 2790 1011 2317 947 2093 
L 941 2093 
L 941 2790 
L 198 2720 
L 198 2554 
C 576 2554 634 2515 634 2208 
L 634 428 
C 634 184 608 153 198 153 
L 198 -13 
C 352 0 646 0 813 0 
C 998 0 1325 0 1498 -13 
L 1498 153 
C 1037 153 960 153 960 440 
L 960 1497 
z
" transform="scale(0.015625)"/>
      <path id="CMR17-3a" d="M 1062 2491 
C 1062 2650 934 2752 800 2752 
C 672 2752 538 2650 538 2491 
C 538 2332 666 2230 800 2230 
C 928 2230 1062 2332 1062 2491 
z
M 1062 261 
C 1062 420 934 522 800 522 
C 672 522 538 420 538 261 
C 538 102 666 0 800 0 
C 928 0 1062 102 1062 261 
z
" transform="scale(0.015625)"/>
      <path id="CMR17-31" d="M 1702 4058 
C 1702 4192 1696 4192 1606 4192 
C 1357 3916 979 3827 621 3827 
C 602 3827 570 3827 563 3808 
C 557 3795 557 3782 557 3648 
C 755 3648 1088 3686 1344 3839 
L 1344 461 
C 1344 236 1331 160 781 160 
L 589 160 
L 589 0 
C 896 0 1216 0 1523 0 
C 1830 0 2150 0 2458 0 
L 2458 160 
L 2266 160 
C 1715 160 1702 230 1702 458 
L 1702 4058 
z
" transform="scale(0.015625)"/>
      <path id="CMR17-38" d="M 1741 2264 
C 2144 2467 2554 2773 2554 3263 
C 2554 3841 1990 4179 1472 4179 
C 890 4179 378 3759 378 3180 
C 378 3021 416 2747 666 2505 
C 730 2442 998 2251 1171 2130 
C 883 1983 211 1634 211 934 
C 211 279 838 -128 1459 -128 
C 2144 -128 2720 362 2720 1010 
C 2720 1590 2330 1857 2074 2029 
L 1741 2264 
z
M 902 2822 
C 851 2854 595 3051 595 3351 
C 595 3739 998 4032 1459 4032 
C 1965 4032 2336 3676 2336 3262 
C 2336 2669 1670 2331 1638 2331 
C 1632 2331 1626 2331 1574 2370 
L 902 2822 
z
M 2080 1519 
C 2176 1449 2483 1240 2483 851 
C 2483 381 2010 25 1472 25 
C 890 25 448 438 448 940 
C 448 1443 838 1862 1280 2060 
L 2080 1519 
z
" transform="scale(0.015625)"/>
      <path id="CMR17-32" d="M 2669 989 
L 2554 989 
C 2490 536 2438 459 2413 420 
C 2381 369 1920 369 1830 369 
L 602 369 
C 832 619 1280 1072 1824 1597 
C 2214 1967 2669 2402 2669 3035 
C 2669 3790 2067 4224 1395 4224 
C 691 4224 262 3604 262 3030 
C 262 2780 448 2748 525 2748 
C 589 2748 781 2787 781 3010 
C 781 3207 614 3264 525 3264 
C 486 3264 448 3258 422 3245 
C 544 3790 915 4058 1306 4058 
C 1862 4058 2227 3617 2227 3035 
C 2227 2479 1901 2000 1536 1584 
L 262 146 
L 262 0 
L 2515 0 
L 2669 989 
z
" transform="scale(0.015625)"/>
      <path id="CMR17-30" d="M 2688 2025 
C 2688 2416 2682 3080 2413 3591 
C 2176 4039 1798 4198 1466 4198 
C 1158 4198 768 4058 525 3597 
C 269 3118 243 2524 243 2025 
C 243 1661 250 1106 448 619 
C 723 -39 1216 -128 1466 -128 
C 1760 -128 2208 -7 2470 600 
C 2662 1042 2688 1559 2688 2025 
z
M 1466 -26 
C 1056 -26 813 325 723 812 
C 653 1188 653 1738 653 2096 
C 653 2588 653 2997 736 3387 
C 858 3929 1216 4096 1466 4096 
C 1728 4096 2067 3923 2189 3400 
C 2272 3036 2278 2607 2278 2096 
C 2278 1680 2278 1169 2202 792 
C 2067 95 1690 -26 1466 -26 
z
" transform="scale(0.015625)"/>
     </defs>
     <use xlink:href="#CMR17-59" transform="scale(0.996264)"/>
     <use xlink:href="#CMR17-65" transform="translate(61.265174 0) scale(0.996264)"/>
     <use xlink:href="#CMR17-61" transform="translate(101.750835 0) scale(0.996264)"/>
     <use xlink:href="#CMR17-72" transform="translate(147.441312 0) scale(0.996264)"/>
     <use xlink:href="#CMR17-3a" transform="translate(182.72208 0) scale(0.996264)"/>
     <use xlink:href="#CMR17-31" transform="translate(248.078799 0) scale(0.996264)"/>
     <use xlink:href="#CMR17-38" transform="translate(293.769276 0) scale(0.996264)"/>
     <use xlink:href="#CMR17-32" transform="translate(339.459753 0) scale(0.996264)"/>
     <use xlink:href="#CMR17-30" transform="translate(385.15023 0) scale(0.996264)"/>
    </g>
   </g>
  </g>
  <g id="axes_2">
   <g id="patch_7">
    <path d="M 717.33359 853.2 
L 759.45359 853.2 
L 759.45359 10.8 
L 717.33359 10.8 
z
" style="fill: #ffffff"/>
   </g>
   <g id="QuadMesh_1">
    <path d="M 717.33359 853.2 
L 759.45359 853.2 
L 759.45359 747.9 
L 717.33359 747.9 
L 717.33359 853.2 
" clip-path="url(#p9853604585)" style="fill: #ad35ca"/>
    <path d="M 717.33359 747.9 
L 759.45359 747.9 
L 759.45359 642.6 
L 717.33359 642.6 
L 717.33359 747.9 
" clip-path="url(#p9853604585)" style="fill: #8f81b5"/>
    <path d="M 717.33359 642.6 
L 759.45359 642.6 
L 759.45359 537.3 
L 717.33359 537.3 
L 717.33359 642.6 
" clip-path="url(#p9853604585)" style="fill: #879dba"/>
    <path d="M 717.33359 537.3 
L 759.45359 537.3 
L 759.45359 432 
L 717.33359 432 
L 717.33359 537.3 
" clip-path="url(#p9853604585)" style="fill: #7bb4be"/>
    <path d="M 717.33359 432 
L 759.45359 432 
L 759.45359 326.7 
L 717.33359 326.7 
L 717.33359 432 
" clip-path="url(#p9853604585)" style="fill: #79c6b7"/>
    <path d="M 717.33359 326.7 
L 759.45359 326.7 
L 759.45359 221.4 
L 717.33359 221.4 
L 717.33359 326.7 
" clip-path="url(#p9853604585)" style="fill: #a1ccad"/>
    <path d="M 717.33359 221.4 
L 759.45359 221.4 
L 759.45359 116.1 
L 717.33359 116.1 
L 717.33359 221.4 
" clip-path="url(#p9853604585)" style="fill: #c1d59b"/>
    <path d="M 717.33359 116.1 
L 759.45359 116.1 
L 759.45359 10.8 
L 717.33359 10.8 
L 717.33359 116.1 
" clip-path="url(#p9853604585)" style="fill: #e4dc96"/>
   </g>
   <g id="matplotlib.axis_3"/>
   <g id="matplotlib.axis_4">
    <g id="ytick_9">
     <g id="line2d_1">
      <defs>
       <path id="m71f6052249" d="M 0 0 
L 3.5 0 
" style="stroke: #000000; stroke-width: 0.8"/>
      </defs>
      <g>
       <use xlink:href="#m71f6052249" x="759.45359" y="800.55" style="stroke: #000000; stroke-width: 0.8"/>
      </g>
     </g>
     <g id="text_2">
      <!-- 0 -->
      <g transform="translate(766.45359 811.619603) scale(0.32 -0.32)">
       <use xlink:href="#CMR17-30" transform="scale(0.996264)"/>
      </g>
     </g>
    </g>
    <g id="ytick_10">
     <g id="line2d_2">
      <g>
       <use xlink:href="#m71f6052249" x="759.45359" y="695.25" style="stroke: #000000; stroke-width: 0.8"/>
      </g>
     </g>
     <g id="text_3">
      <!-- 1 -->
      <g transform="translate(766.45359 706.319603) scale(0.32 -0.32)">
       <use xlink:href="#CMR17-31" transform="scale(0.996264)"/>
      </g>
     </g>
    </g>
    <g id="ytick_11">
     <g id="line2d_3">
      <g>
       <use xlink:href="#m71f6052249" x="759.45359" y="589.95" style="stroke: #000000; stroke-width: 0.8"/>
      </g>
     </g>
     <g id="text_4">
      <!-- 2 -->
      <g transform="translate(766.45359 601.019603) scale(0.32 -0.32)">
       <use xlink:href="#CMR17-32" transform="scale(0.996264)"/>
      </g>
     </g>
    </g>
    <g id="ytick_12">
     <g id="line2d_4">
      <g>
       <use xlink:href="#m71f6052249" x="759.45359" y="484.65" style="stroke: #000000; stroke-width: 0.8"/>
      </g>
     </g>
     <g id="text_5">
      <!-- 3 -->
      <g transform="translate(766.45359 495.719603) scale(0.32 -0.32)">
       <defs>
        <path id="CMR17-33" d="M 1414 2157 
C 1984 2157 2234 1662 2234 1090 
C 2234 320 1824 25 1453 25 
C 1114 25 563 194 390 693 
C 422 680 454 680 486 680 
C 640 680 755 782 755 948 
C 755 1133 614 1216 486 1216 
C 378 1216 211 1165 211 926 
C 211 335 787 -128 1466 -128 
C 2176 -128 2720 430 2720 1085 
C 2720 1707 2208 2157 1600 2227 
C 2086 2328 2554 2756 2554 3329 
C 2554 3820 2048 4179 1472 4179 
C 890 4179 378 3829 378 3329 
C 378 3110 544 3072 627 3072 
C 762 3072 877 3155 877 3321 
C 877 3486 762 3569 627 3569 
C 602 3569 570 3569 544 3557 
C 730 3959 1235 4032 1459 4032 
C 1683 4032 2106 3925 2106 3320 
C 2106 3143 2080 2828 1862 2550 
C 1670 2304 1453 2304 1242 2284 
C 1210 2284 1062 2269 1037 2269 
C 992 2263 966 2257 966 2208 
C 966 2163 973 2157 1101 2157 
L 1414 2157 
z
" transform="scale(0.015625)"/>
       </defs>
       <use xlink:href="#CMR17-33" transform="scale(0.996264)"/>
      </g>
     </g>
    </g>
    <g id="ytick_13">
     <g id="line2d_5">
      <g>
       <use xlink:href="#m71f6052249" x="759.45359" y="379.35" style="stroke: #000000; stroke-width: 0.8"/>
      </g>
     </g>
     <g id="text_6">
      <!-- 4 -->
      <g transform="translate(766.45359 390.419603) scale(0.32 -0.32)">
       <defs>
        <path id="CMR17-34" d="M 2150 4122 
C 2150 4256 2144 4256 2029 4256 
L 128 1254 
L 128 1088 
L 1779 1088 
L 1779 457 
C 1779 224 1766 160 1318 160 
L 1197 160 
L 1197 0 
C 1402 0 1747 0 1965 0 
C 2182 0 2528 0 2733 0 
L 2733 160 
L 2611 160 
C 2163 160 2150 224 2150 457 
L 2150 1088 
L 2803 1088 
L 2803 1254 
L 2150 1254 
L 2150 4122 
z
M 1798 3703 
L 1798 1254 
L 256 1254 
L 1798 3703 
z
" transform="scale(0.015625)"/>
       </defs>
       <use xlink:href="#CMR17-34" transform="scale(0.996264)"/>
      </g>
     </g>
    </g>
    <g id="ytick_14">
     <g id="line2d_6">
      <g>
       <use xlink:href="#m71f6052249" x="759.45359" y="274.05" style="stroke: #000000; stroke-width: 0.8"/>
      </g>
     </g>
     <g id="text_7">
      <!-- 5 -->
      <g transform="translate(766.45359 285.119603) scale(0.32 -0.32)">
       <defs>
        <path id="CMR17-35" d="M 730 3692 
C 794 3666 1056 3584 1325 3584 
C 1920 3584 2246 3911 2432 4100 
C 2432 4157 2432 4192 2394 4192 
C 2387 4192 2374 4192 2323 4163 
C 2099 4058 1837 3973 1517 3973 
C 1325 3973 1037 3999 723 4139 
C 653 4171 640 4171 634 4171 
C 602 4171 595 4164 595 4037 
L 595 2203 
C 595 2089 595 2057 659 2057 
C 691 2057 704 2070 736 2114 
C 941 2401 1222 2522 1542 2522 
C 1766 2522 2246 2382 2246 1289 
C 2246 1085 2246 715 2054 421 
C 1894 159 1645 25 1370 25 
C 947 25 518 320 403 814 
C 429 807 480 795 506 795 
C 589 795 749 840 749 1038 
C 749 1210 627 1280 506 1280 
C 358 1280 262 1190 262 1011 
C 262 454 704 -128 1382 -128 
C 2042 -128 2669 440 2669 1264 
C 2669 2030 2170 2624 1549 2624 
C 1222 2624 947 2503 730 2274 
L 730 3692 
z
" transform="scale(0.015625)"/>
       </defs>
       <use xlink:href="#CMR17-35" transform="scale(0.996264)"/>
      </g>
     </g>
    </g>
    <g id="ytick_15">
     <g id="line2d_7">
      <g>
       <use xlink:href="#m71f6052249" x="759.45359" y="168.75" style="stroke: #000000; stroke-width: 0.8"/>
      </g>
     </g>
     <g id="text_8">
      <!-- 6 -->
      <g transform="translate(766.45359 179.819603) scale(0.32 -0.32)">
       <defs>
        <path id="CMR17-36" d="M 678 2176 
C 678 3690 1395 4032 1811 4032 
C 1946 4032 2272 4009 2400 3776 
C 2298 3776 2106 3776 2106 3553 
C 2106 3381 2246 3323 2336 3323 
C 2394 3323 2566 3348 2566 3560 
C 2566 3954 2246 4179 1805 4179 
C 1043 4179 243 3390 243 1984 
C 243 253 966 -128 1478 -128 
C 2099 -128 2688 427 2688 1283 
C 2688 2081 2170 2662 1517 2662 
C 1126 2662 838 2407 678 1960 
L 678 2176 
z
M 1478 25 
C 691 25 691 1200 691 1436 
C 691 1896 909 2560 1504 2560 
C 1613 2560 1926 2560 2138 2120 
C 2253 1870 2253 1609 2253 1289 
C 2253 944 2253 690 2118 434 
C 1978 171 1773 25 1478 25 
z
" transform="scale(0.015625)"/>
       </defs>
       <use xlink:href="#CMR17-36" transform="scale(0.996264)"/>
      </g>
     </g>
    </g>
    <g id="ytick_16">
     <g id="line2d_8">
      <g>
       <use xlink:href="#m71f6052249" x="759.45359" y="63.45" style="stroke: #000000; stroke-width: 0.8"/>
      </g>
     </g>
     <g id="text_9">
      <!-- 7 -->
      <g transform="translate(766.45359 74.519603) scale(0.32 -0.32)">
       <defs>
        <path id="CMR17-37" d="M 2886 3941 
L 2886 4081 
L 1382 4081 
C 634 4081 621 4165 595 4288 
L 480 4288 
L 294 3094 
L 410 3094 
C 429 3215 474 3540 550 3661 
C 589 3712 1062 3712 1171 3712 
L 2579 3712 
L 1869 2661 
C 1395 1954 1069 999 1069 165 
C 1069 89 1069 -128 1299 -128 
C 1530 -128 1530 89 1530 171 
L 1530 465 
C 1530 1508 1709 2196 2003 2636 
L 2886 3941 
z
" transform="scale(0.015625)"/>
       </defs>
       <use xlink:href="#CMR17-37" transform="scale(0.996264)"/>
      </g>
     </g>
    </g>
    <g id="ytick_17">
     <g id="line2d_9">
      <defs>
       <path id="ma8820cc436" d="M 0 0 
L 2 0 
" style="stroke: #000000; stroke-width: 0.6"/>
      </defs>
      <g>
       <use xlink:href="#ma8820cc436" x="759.45359" y="853.2" style="stroke: #000000; stroke-width: 0.6"/>
      </g>
     </g>
    </g>
    <g id="ytick_18">
     <g id="line2d_10">
      <g>
       <use xlink:href="#ma8820cc436" x="759.45359" y="747.9" style="stroke: #000000; stroke-width: 0.6"/>
      </g>
     </g>
    </g>
    <g id="ytick_19">
     <g id="line2d_11">
      <g>
       <use xlink:href="#ma8820cc436" x="759.45359" y="642.6" style="stroke: #000000; stroke-width: 0.6"/>
      </g>
     </g>
    </g>
    <g id="ytick_20">
     <g id="line2d_12">
      <g>
       <use xlink:href="#ma8820cc436" x="759.45359" y="537.3" style="stroke: #000000; stroke-width: 0.6"/>
      </g>
     </g>
    </g>
    <g id="ytick_21">
     <g id="line2d_13">
      <g>
       <use xlink:href="#ma8820cc436" x="759.45359" y="432" style="stroke: #000000; stroke-width: 0.6"/>
      </g>
     </g>
    </g>
    <g id="ytick_22">
     <g id="line2d_14">
      <g>
       <use xlink:href="#ma8820cc436" x="759.45359" y="326.7" style="stroke: #000000; stroke-width: 0.6"/>
      </g>
     </g>
    </g>
    <g id="ytick_23">
     <g id="line2d_15">
      <g>
       <use xlink:href="#ma8820cc436" x="759.45359" y="221.4" style="stroke: #000000; stroke-width: 0.6"/>
      </g>
     </g>
    </g>
    <g id="ytick_24">
     <g id="line2d_16">
      <g>
       <use xlink:href="#ma8820cc436" x="759.45359" y="116.1" style="stroke: #000000; stroke-width: 0.6"/>
      </g>
     </g>
    </g>
    <g id="ytick_25">
     <g id="line2d_17">
      <g>
       <use xlink:href="#ma8820cc436" x="759.45359" y="10.8" style="stroke: #000000; stroke-width: 0.6"/>
      </g>
     </g>
    </g>
    <g id="text_10">
     <!-- Node Depth -->
     <g transform="translate(828.899641 543.95779) rotate(-90) scale(0.46 -0.46)">
      <defs>
       <path id="CMR17-4e" d="M 1312 4250 
C 1267 4320 1261 4320 1139 4320 
L 326 4320 
L 326 4160 
L 448 4160 
C 704 4160 819 4129 838 4122 
L 838 610 
C 838 451 838 153 326 153 
L 326 -13 
C 474 0 742 0 902 0 
C 1062 0 1331 0 1478 -13 
L 1478 153 
C 966 153 966 451 966 610 
L 966 4033 
C 1011 3995 1011 3982 1056 3919 
L 3430 76 
C 3475 0 3494 0 3526 0 
C 3590 0 3590 19 3590 139 
L 3590 3705 
C 3590 3863 3590 4160 4102 4160 
L 4102 4326 
C 3955 4320 3686 4320 3526 4320 
C 3366 4320 3098 4320 2950 4326 
L 2950 4160 
C 3462 4160 3462 3862 3462 3703 
L 3462 763 
L 1312 4250 
z
" transform="scale(0.015625)"/>
       <path id="CMR17-6f" d="M 2758 1356 
C 2758 2176 2163 2816 1466 2816 
C 768 2816 173 2176 173 1356 
C 173 551 768 -64 1466 -64 
C 2163 -64 2758 551 2758 1356 
z
M 1466 51 
C 1165 51 909 230 762 480 
C 602 767 582 1126 582 1408 
C 582 1677 595 2010 762 2298 
C 890 2509 1139 2714 1466 2714 
C 1754 2714 1997 2554 2150 2330 
C 2349 2029 2349 1607 2349 1408 
C 2349 1158 2336 775 2163 467 
C 1984 173 1709 51 1466 51 
z
" transform="scale(0.015625)"/>
       <path id="CMR17-64" d="M 1869 4326 
L 1869 4160 
C 2246 4160 2304 4122 2304 3820 
L 2304 2345 
C 2278 2377 2016 2790 1498 2790 
C 845 2790 211 2208 211 1364 
C 211 525 806 -64 1434 -64 
C 1978 -64 2259 337 2291 380 
L 2291 -63 
L 3066 -63 
L 3066 128 
C 2688 128 2630 166 2630 473 
L 2630 4396 
L 1869 4326 
z
M 2291 755 
C 2291 563 2176 390 2029 262 
C 1811 70 1594 38 1472 38 
C 1286 38 621 134 621 1356 
C 621 2612 1363 2688 1530 2688 
C 1824 2688 2061 2522 2208 2291 
C 2291 2157 2291 2138 2291 2023 
L 2291 755 
z
" transform="scale(0.015625)"/>
       <path id="CMR17-44" d="M 333 4352 
L 333 4186 
C 774 4186 845 4186 845 3900 
L 845 452 
C 845 166 774 166 333 166 
L 333 0 
L 2368 0 
C 3398 0 4224 943 4224 2141 
C 4224 3346 3411 4352 2368 4352 
L 333 4352 
z
M 1523 166 
C 1267 166 1254 197 1254 414 
L 1254 3938 
C 1254 4155 1267 4186 1523 4186 
L 2240 4186 
C 2771 4186 3750 3874 3750 2141 
C 3750 1242 3488 879 3366 707 
C 3213 510 2848 166 2240 166 
L 1523 166 
z
" transform="scale(0.015625)"/>
       <path id="CMR17-70" d="M 1408 -1063 
C 998 -1063 973 -1037 973 -789 
L 973 402 
C 1158 134 1427 -38 1766 -38 
C 2406 -38 3053 523 3053 1388 
C 3053 2191 2496 2802 1837 2802 
C 1453 2802 1139 2592 960 2338 
L 960 2802 
L 198 2732 
L 198 2567 
C 576 2567 634 2528 634 2223 
L 634 -789 
C 634 -1031 608 -1063 198 -1063 
L 198 -1228 
C 352 -1216 634 -1216 800 -1216 
C 966 -1216 1254 -1216 1408 -1228 
L 1408 -1063 
z
M 973 2012 
C 973 2102 973 2235 1222 2471 
C 1254 2497 1472 2688 1792 2688 
C 2259 2688 2643 2108 2643 1382 
C 2643 656 2234 64 1728 64 
C 1498 64 1248 172 1056 472 
C 973 612 973 650 973 752 
L 973 2012 
z
" transform="scale(0.015625)"/>
       <path id="CMR17-74" d="M 966 2560 
L 1862 2560 
L 1862 2725 
L 966 2725 
L 966 3904 
L 851 3904 
C 838 3245 614 2668 70 2668 
L 70 2560 
L 627 2560 
L 627 771 
C 627 650 627 -64 1370 -64 
C 1747 -64 1965 306 1965 777 
L 1965 1140 
L 1850 1140 
L 1850 783 
C 1850 344 1677 51 1408 51 
C 1222 51 966 178 966 758 
L 966 2560 
z
" transform="scale(0.015625)"/>
       <path id="CMR17-68" d="M 2656 1933 
C 2656 2259 2592 2790 1837 2790 
C 1312 2790 1056 2368 979 2157 
L 973 2157 
L 973 4396 
L 211 4326 
L 211 4160 
C 589 4160 646 4122 646 3817 
L 646 426 
C 646 184 621 153 211 153 
L 211 -13 
C 365 0 646 0 813 0 
C 979 0 1267 0 1421 -13 
L 1421 153 
C 1011 153 986 178 986 428 
L 986 1658 
C 986 2247 1344 2688 1792 2688 
C 2266 2688 2317 2266 2317 1958 
L 2317 428 
C 2317 184 2291 153 1882 153 
L 1882 -13 
C 2035 0 2317 0 2483 0 
C 2650 0 2938 0 3091 -13 
L 3091 153 
C 2682 153 2656 178 2656 428 
L 2656 1933 
z
" transform="scale(0.015625)"/>
      </defs>
      <use xlink:href="#CMR17-4e" transform="scale(0.996264)"/>
      <use xlink:href="#CMR17-6f" transform="translate(69.07243 0) scale(0.996264)"/>
      <use xlink:href="#CMR17-64" transform="translate(117.365346 0) scale(0.996264)"/>
      <use xlink:href="#CMR17-65" transform="translate(168.260715 0) scale(0.996264)"/>
      <use xlink:href="#CMR17-44" transform="translate(238.822342 0) scale(0.996264)"/>
      <use xlink:href="#CMR17-65" transform="translate(309.215898 0) scale(0.996264)"/>
      <use xlink:href="#CMR17-70" transform="translate(349.701559 0) scale(0.996264)"/>
      <use xlink:href="#CMR17-74" transform="translate(400.596928 0) scale(0.996264)"/>
      <use xlink:href="#CMR17-68" transform="translate(435.877696 0) scale(0.996264)"/>
     </g>
    </g>
   </g>
   <g id="LineCollection_2"/>
   <g id="patch_8">
    <path d="M 717.33359 853.2 
L 738.39359 853.2 
L 759.45359 853.2 
L 759.45359 10.8 
L 738.39359 10.8 
L 717.33359 10.8 
L 717.33359 853.2 
z
" style="fill: none; stroke: #000000; stroke-width: 0.8; stroke-linejoin: miter; stroke-linecap: square"/>
   </g>
  </g>
 </g>
 <defs>
  <clipPath id="pc3d095ee22">
   <rect x="10.8" y="99.513605" width="664.972791" height="664.972791"/>
  </clipPath>
  <clipPath id="p9853604585">
   <rect x="717.33359" y="10.8" width="42.12" height="842.4"/>
  </clipPath>
 </defs>
</svg>
