<?xml version="1.0" encoding="utf-8" standalone="no"?>
<!DOCTYPE svg PUBLIC "-//W3C//DTD SVG 1.1//EN"
  "http://www.w3.org/Graphics/SVG/1.1/DTD/svg11.dtd">
<svg xmlns:xlink="http://www.w3.org/1999/xlink" width="864pt" height="864pt" viewBox="0 0 864 864" xmlns="http://www.w3.org/2000/svg" version="1.1">
 <metadata>
  <rdf:RDF xmlns:dc="http://purl.org/dc/elements/1.1/" xmlns:cc="http://creativecommons.org/ns#" xmlns:rdf="http://www.w3.org/1999/02/22-rdf-syntax-ns#">
   <cc:Work>
    <dc:type rdf:resource="http://purl.org/dc/dcmitype/StillImage"/>
    <dc:date>2026-06-09T22:33:58.311054</dc:date>
    <dc:format>image/svg+xml</dc:format>
    <dc:creator>
     <cc:Agent>
      <dc:title>Matplotlib v3.9.2, https://matplotlib.org/</dc:title>
     </cc:Agent>
    </dc:creator>
   </cc:Work>
  </rdf:RDF>
 </metadata>
 <defs>
  <style type="text/css">*{stroke-linejoin: round; stroke-linecap: butt}</style>
 </defs>
 <g id="figure_1">
  <g id="patch_1">
   <path d="M 0 864 
L 864 864 
L 864 0 
L 0 0 
z
" style="fill: #ffffff"/>
  </g>
  <g id="axes_1">
   <g id="patch_2">
    <path d="M 10.8 764.486395 
L 675.772791 764.486395 
L 675.772791 99.513605 
L 10.8 99.513605 
z
" style="fill: #ffffff"/>
   </g>
   <g id="LineCollection_1">
    <path d="M 645.546755 451.805731 
L 343.286395 431.995793 
" clip-path="url(#p9839cc6d55)" style="fill: none; stroke: #808080; stroke-opacity: 0.3"/>
    <path d="M 343.286395 431.995793 
L 645.546755 412.185855 
" clip-path="url(#p9839cc6d55)" style="fill: none; stroke: #808080; stroke-opacity: 0.3"/>
    <path d="M 343.286395 431.995793 
L 640.37236 372.915146 
" clip-path="url(#p9839cc6d55)" style="fill: none; stroke: #808080; stroke-opacity: 0.3"/>
    <path d="M 343.286395 431.995793 
L 630.107708 334.633041 
" clip-path="url(#p9839cc6d55)" style="fill: none; stroke: #808080; stroke-opacity: 0.3"/>
    <path d="M 343.286395 431.995793 
L 614.963139 298.033665 
" clip-path="url(#p9839cc6d55)" style="fill: none; stroke: #808080; stroke-opacity: 0.3"/>
    <path d="M 343.286395 431.995793 
L 595.148994 263.705975 
" clip-path="url(#p9839cc6d55)" style="fill: none; stroke: #808080; stroke-opacity: 0.3"/>
    <path d="M 343.286395 431.995793 
L 571.00182 232.280994 
" clip-path="url(#p9839cc6d55)" style="fill: none; stroke: #808080; stroke-opacity: 0.3"/>
    <path d="M 343.286395 431.995793 
L 542.984367 204.263541 
" clip-path="url(#p9839cc6d55)" style="fill: none; stroke: #808080; stroke-opacity: 0.3"/>
    <path d="M 343.286395 431.995793 
L 511.559386 180.158435 
" clip-path="url(#p9839cc6d55)" style="fill: none; stroke: #808080; stroke-opacity: 0.3"/>
    <path d="M 343.286395 431.995793 
L 477.273764 160.344291 
" clip-path="url(#p9839cc6d55)" style="fill: none; stroke: #808080; stroke-opacity: 0.3"/>
    <path d="M 343.286395 431.995793 
L 440.63232 145.199722 
" clip-path="url(#p9839cc6d55)" style="fill: none; stroke: #808080; stroke-opacity: 0.3"/>
    <path d="M 343.286395 431.995793 
L 402.392283 134.935069 
" clip-path="url(#p9839cc6d55)" style="fill: none; stroke: #808080; stroke-opacity: 0.3"/>
    <path d="M 343.286395 431.995793 
L 363.10054 129.760675 
" clip-path="url(#p9839cc6d55)" style="fill: none; stroke: #808080; stroke-opacity: 0.3"/>
    <path d="M 343.286395 431.995793 
L 323.472251 129.760675 
" clip-path="url(#p9839cc6d55)" style="fill: none; stroke: #808080; stroke-opacity: 0.3"/>
    <path d="M 343.286395 431.995793 
L 284.180507 134.935069 
" clip-path="url(#p9839cc6d55)" style="fill: none; stroke: #808080; stroke-opacity: 0.3"/>
    <path d="M 343.286395 431.995793 
L 245.94047 145.199722 
" clip-path="url(#p9839cc6d55)" style="fill: none; stroke: #808080; stroke-opacity: 0.3"/>
    <path d="M 343.286395 431.995793 
L 209.341095 160.344291 
" clip-path="url(#p9839cc6d55)" style="fill: none; stroke: #808080; stroke-opacity: 0.3"/>
    <path d="M 343.286395 431.995793 
L 175.013405 180.158435 
" clip-path="url(#p9839cc6d55)" style="fill: none; stroke: #808080; stroke-opacity: 0.3"/>
    <path d="M 343.286395 431.995793 
L 143.588424 204.263541 
" clip-path="url(#p9839cc6d55)" style="fill: none; stroke: #808080; stroke-opacity: 0.3"/>
    <path d="M 343.286395 431.995793 
L 115.570971 232.280994 
" clip-path="url(#p9839cc6d55)" style="fill: none; stroke: #808080; stroke-opacity: 0.3"/>
    <path d="M 343.286395 431.995793 
L 91.423797 263.705975 
" clip-path="url(#p9839cc6d55)" style="fill: none; stroke: #808080; stroke-opacity: 0.3"/>
    <path d="M 343.286395 431.995793 
L 71.65172 298.033665 
" clip-path="url(#p9839cc6d55)" style="fill: none; stroke: #808080; stroke-opacity: 0.3"/>
    <path d="M 343.286395 431.995793 
L 56.465083 334.633041 
" clip-path="url(#p9839cc6d55)" style="fill: none; stroke: #808080; stroke-opacity: 0.3"/>
    <path d="M 343.286395 431.995793 
L 46.20043 372.915146 
" clip-path="url(#p9839cc6d55)" style="fill: none; stroke: #808080; stroke-opacity: 0.3"/>
    <path d="M 343.286395 431.995793 
L 41.026036 412.185855 
" clip-path="url(#p9839cc6d55)" style="fill: none; stroke: #808080; stroke-opacity: 0.3"/>
    <path d="M 343.286395 431.995793 
L 41.026036 451.805731 
" clip-path="url(#p9839cc6d55)" style="fill: none; stroke: #808080; stroke-opacity: 0.3"/>
    <path d="M 343.286395 431.995793 
L 46.20043 491.089061 
" clip-path="url(#p9839cc6d55)" style="fill: none; stroke: #808080; stroke-opacity: 0.3"/>
    <path d="M 343.286395 431.995793 
L 56.465083 529.358546 
" clip-path="url(#p9839cc6d55)" style="fill: none; stroke: #808080; stroke-opacity: 0.3"/>
    <path d="M 343.286395 431.995793 
L 71.65172 565.962128 
" clip-path="url(#p9839cc6d55)" style="fill: none; stroke: #808080; stroke-opacity: 0.3"/>
    <path d="M 343.286395 431.995793 
L 91.423797 600.272991 
" clip-path="url(#p9839cc6d55)" style="fill: none; stroke: #808080; stroke-opacity: 0.3"/>
    <path d="M 343.286395 431.995793 
L 115.570971 631.706385 
" clip-path="url(#p9839cc6d55)" style="fill: none; stroke: #808080; stroke-opacity: 0.3"/>
    <path d="M 343.286395 431.995793 
L 143.588424 659.723838 
" clip-path="url(#p9839cc6d55)" style="fill: none; stroke: #808080; stroke-opacity: 0.3"/>
    <path d="M 343.286395 431.995793 
L 175.013405 683.841565 
" clip-path="url(#p9839cc6d55)" style="fill: none; stroke: #808080; stroke-opacity: 0.3"/>
    <path d="M 343.286395 431.995793 
L 209.341095 703.651502 
" clip-path="url(#p9839cc6d55)" style="fill: none; stroke: #808080; stroke-opacity: 0.3"/>
    <path d="M 343.286395 431.995793 
L 245.94047 718.812899 
" clip-path="url(#p9839cc6d55)" style="fill: none; stroke: #808080; stroke-opacity: 0.3"/>
    <path d="M 343.286395 431.995793 
L 284.180507 729.069138 
" clip-path="url(#p9839cc6d55)" style="fill: none; stroke: #808080; stroke-opacity: 0.3"/>
    <path d="M 343.286395 431.995793 
L 323.472251 734.239325 
" clip-path="url(#p9839cc6d55)" style="fill: none; stroke: #808080; stroke-opacity: 0.3"/>
    <path d="M 343.286395 431.995793 
L 363.10054 734.239325 
" clip-path="url(#p9839cc6d55)" style="fill: none; stroke: #808080; stroke-opacity: 0.3"/>
    <path d="M 343.286395 431.995793 
L 402.392283 729.069138 
" clip-path="url(#p9839cc6d55)" style="fill: none; stroke: #808080; stroke-opacity: 0.3"/>
    <path d="M 343.286395 431.995793 
L 440.63232 718.812899 
" clip-path="url(#p9839cc6d55)" style="fill: none; stroke: #808080; stroke-opacity: 0.3"/>
    <path d="M 343.286395 431.995793 
L 477.273764 703.651502 
" clip-path="url(#p9839cc6d55)" style="fill: none; stroke: #808080; stroke-opacity: 0.3"/>
    <path d="M 343.286395 431.995793 
L 511.559386 683.841565 
" clip-path="url(#p9839cc6d55)" style="fill: none; stroke: #808080; stroke-opacity: 0.3"/>
    <path d="M 343.286395 431.995793 
L 542.984367 659.723838 
" clip-path="url(#p9839cc6d55)" style="fill: none; stroke: #808080; stroke-opacity: 0.3"/>
    <path d="M 343.286395 431.995793 
L 571.00182 631.706385 
" clip-path="url(#p9839cc6d55)" style="fill: none; stroke: #808080; stroke-opacity: 0.3"/>
    <path d="M 343.286395 431.995793 
L 595.148994 600.272991 
" clip-path="url(#p9839cc6d55)" style="fill: none; stroke: #808080; stroke-opacity: 0.3"/>
    <path d="M 343.286395 431.995793 
L 614.963139 565.962128 
" clip-path="url(#p9839cc6d55)" style="fill: none; stroke: #808080; stroke-opacity: 0.3"/>
    <path d="M 343.286395 431.995793 
L 630.107708 529.358546 
" clip-path="url(#p9839cc6d55)" style="fill: none; stroke: #808080; stroke-opacity: 0.3"/>
    <path d="M 343.286395 431.995793 
L 640.37236 491.089061 
" clip-path="url(#p9839cc6d55)" style="fill: none; stroke: #808080; stroke-opacity: 0.3"/>
   </g>
   <g id="matplotlib.axis_1">
    <g id="xtick_1"/>
    <g id="xtick_2"/>
    <g id="xtick_3"/>
    <g id="xtick_4"/>
    <g id="xtick_5"/>
    <g id="xtick_6"/>
    <g id="xtick_7"/>
   </g>
   <g id="matplotlib.axis_2">
    <g id="ytick_1"/>
    <g id="ytick_2"/>
    <g id="ytick_3"/>
    <g id="ytick_4"/>
    <g id="ytick_5"/>
    <g id="ytick_6"/>
    <g id="ytick_7"/>
    <g id="ytick_8"/>
   </g>
   <g id="PathCollection_1">
    <path d="M 645.546755 462.986071 
C 648.511816 462.986071 651.355834 461.80804 653.452449 459.711425 
C 655.549063 457.614811 656.727095 454.770792 656.727095 451.805731 
C 656.727095 448.84067 655.549063 445.996651 653.452449 443.900037 
C 651.355834 441.803422 648.511816 440.625391 645.546755 440.625391 
C 642.581694 440.625391 639.737675 441.803422 637.641061 443.900037 
C 635.544446 445.996651 634.366415 448.84067 634.366415 451.805731 
C 634.366415 454.770792 635.544446 457.614811 637.641061 459.711425 
C 639.737675 461.80804 642.581694 462.986071 645.546755 462.986071 
z
" clip-path="url(#p9839cc6d55)" style="fill: #ad35ca; stroke: #ad35ca"/>
    <path d="M 343.286395 439.066861 
C 345.161664 439.066861 346.96038 438.321809 348.286395 436.995793 
C 349.612411 435.669778 350.357463 433.871062 350.357463 431.995793 
C 350.357463 430.120524 349.612411 428.321809 348.286395 426.995793 
C 346.96038 425.669778 345.161664 424.924725 343.286395 424.924725 
C 341.411126 424.924725 339.612411 425.669778 338.286395 426.995793 
C 336.96038 428.321809 336.215328 430.120524 336.215328 431.995793 
C 336.215328 433.871062 336.96038 435.669778 338.286395 436.995793 
C 339.612411 438.321809 341.411126 439.066861 343.286395 439.066861 
z
" clip-path="url(#p9839cc6d55)" style="fill: #8f81b5; stroke: #8f81b5"/>
    <path d="M 645.546755 416.657991 
C 646.732779 416.657991 647.870387 416.186779 648.709032 415.348133 
C 649.547678 414.509487 650.018891 413.37188 650.018891 412.185855 
C 650.018891 410.999831 649.547678 409.862224 648.709032 409.023578 
C 647.870387 408.184932 646.732779 407.713719 645.546755 407.713719 
C 644.36073 407.713719 643.223123 408.184932 642.384477 409.023578 
C 641.545831 409.862224 641.074619 410.999831 641.074619 412.185855 
C 641.074619 413.37188 641.545831 414.509487 642.384477 415.348133 
C 643.223123 416.186779 644.36073 416.657991 645.546755 416.657991 
z
" clip-path="url(#p9839cc6d55)" style="fill: #879dba; stroke: #879dba"/>
    <path d="M 640.37236 377.387282 
C 641.558385 377.387282 642.695992 376.91607 643.534638 376.077424 
C 644.373284 375.238778 644.844496 374.10117 644.844496 372.915146 
C 644.844496 371.729122 644.373284 370.591514 643.534638 369.752869 
C 642.695992 368.914223 641.558385 368.44301 640.37236 368.44301 
C 639.186336 368.44301 638.048728 368.914223 637.210083 369.752869 
C 636.371437 370.591514 635.900224 371.729122 635.900224 372.915146 
C 635.900224 374.10117 636.371437 375.238778 637.210083 376.077424 
C 638.048728 376.91607 639.186336 377.387282 640.37236 377.387282 
z
" clip-path="url(#p9839cc6d55)" style="fill: #879dba; stroke: #879dba"/>
    <path d="M 630.107708 339.105177 
C 631.293732 339.105177 632.43134 338.633964 633.269986 337.795318 
C 634.108631 336.956673 634.579844 335.819065 634.579844 334.633041 
C 634.579844 333.447016 634.108631 332.309409 633.269986 331.470763 
C 632.43134 330.632117 631.293732 330.160905 630.107708 330.160905 
C 628.921684 330.160905 627.784076 330.632117 626.94543 331.470763 
C 626.106784 332.309409 625.635572 333.447016 625.635572 334.633041 
C 625.635572 335.819065 626.106784 336.956673 626.94543 337.795318 
C 627.784076 338.633964 628.921684 339.105177 630.107708 339.105177 
z
" clip-path="url(#p9839cc6d55)" style="fill: #879dba; stroke: #879dba"/>
    <path d="M 614.963139 302.505801 
C 616.149163 302.505801 617.286771 302.034589 618.125416 301.195943 
C 618.964062 300.357297 619.435275 299.21969 619.435275 298.033665 
C 619.435275 296.847641 618.964062 295.710034 618.125416 294.871388 
C 617.286771 294.032742 616.149163 293.561529 614.963139 293.561529 
C 613.777114 293.561529 612.639507 294.032742 611.800861 294.871388 
C 610.962215 295.710034 610.491003 296.847641 610.491003 298.033665 
C 610.491003 299.21969 610.962215 300.357297 611.800861 301.195943 
C 612.639507 302.034589 613.777114 302.505801 614.963139 302.505801 
z
" clip-path="url(#p9839cc6d55)" style="fill: #879dba; stroke: #879dba"/>
    <path d="M 595.148994 268.178111 
C 596.335018 268.178111 597.472626 267.706899 598.311272 266.868253 
C 599.149918 266.029607 599.62113 264.892 599.62113 263.705975 
C 599.62113 262.519951 599.149918 261.382343 598.311272 260.543698 
C 597.472626 259.705052 596.335018 259.233839 595.148994 259.233839 
C 593.96297 259.233839 592.825362 259.705052 591.986716 260.543698 
C 591.148071 261.382343 590.676858 262.519951 590.676858 263.705975 
C 590.676858 264.892 591.148071 266.029607 591.986716 266.868253 
C 592.825362 267.706899 593.96297 268.178111 595.148994 268.178111 
z
" clip-path="url(#p9839cc6d55)" style="fill: #879dba; stroke: #879dba"/>
    <path d="M 571.00182 236.75313 
C 572.187844 236.75313 573.325452 236.281918 574.164098 235.443272 
C 575.002743 234.604626 575.473956 233.467019 575.473956 232.280994 
C 575.473956 231.09497 575.002743 229.957362 574.164098 229.118717 
C 573.325452 228.280071 572.187844 227.808858 571.00182 227.808858 
C 569.815796 227.808858 568.678188 228.280071 567.839542 229.118717 
C 567.000896 229.957362 566.529684 231.09497 566.529684 232.280994 
C 566.529684 233.467019 567.000896 234.604626 567.839542 235.443272 
C 568.678188 236.281918 569.815796 236.75313 571.00182 236.75313 
z
" clip-path="url(#p9839cc6d55)" style="fill: #879dba; stroke: #879dba"/>
    <path d="M 542.984367 208.735677 
C 544.170391 208.735677 545.307999 208.264465 546.146645 207.425819 
C 546.98529 206.587173 547.456503 205.449566 547.456503 204.263541 
C 547.456503 203.077517 546.98529 201.939909 546.146645 201.101264 
C 545.307999 200.262618 544.170391 199.791405 542.984367 199.791405 
C 541.798343 199.791405 540.660735 200.262618 539.822089 201.101264 
C 538.983443 201.939909 538.512231 203.077517 538.512231 204.263541 
C 538.512231 205.449566 538.983443 206.587173 539.822089 207.425819 
C 540.660735 208.264465 541.798343 208.735677 542.984367 208.735677 
z
" clip-path="url(#p9839cc6d55)" style="fill: #879dba; stroke: #879dba"/>
    <path d="M 511.559386 184.630571 
C 512.74541 184.630571 513.883018 184.159359 514.721664 183.320713 
C 515.560309 182.482067 516.031522 181.34446 516.031522 180.158435 
C 516.031522 178.972411 515.560309 177.834804 514.721664 176.996158 
C 513.883018 176.157512 512.74541 175.686299 511.559386 175.686299 
C 510.373362 175.686299 509.235754 176.157512 508.397108 176.996158 
C 507.558462 177.834804 507.08725 178.972411 507.08725 180.158435 
C 507.08725 181.34446 507.558462 182.482067 508.397108 183.320713 
C 509.235754 184.159359 510.373362 184.630571 511.559386 184.630571 
z
" clip-path="url(#p9839cc6d55)" style="fill: #879dba; stroke: #879dba"/>
    <path d="M 477.273764 164.816427 
C 478.459788 164.816427 479.597396 164.345214 480.436042 163.506568 
C 481.274688 162.667923 481.7459 161.530315 481.7459 160.344291 
C 481.7459 159.158266 481.274688 158.020659 480.436042 157.182013 
C 479.597396 156.343367 478.459788 155.872155 477.273764 155.872155 
C 476.08774 155.872155 474.950132 156.343367 474.111486 157.182013 
C 473.272841 158.020659 472.801628 159.158266 472.801628 160.344291 
C 472.801628 161.530315 473.272841 162.667923 474.111486 163.506568 
C 474.950132 164.345214 476.08774 164.816427 477.273764 164.816427 
z
" clip-path="url(#p9839cc6d55)" style="fill: #879dba; stroke: #879dba"/>
    <path d="M 440.63232 149.671858 
C 441.818345 149.671858 442.955952 149.200645 443.794598 148.361999 
C 444.633244 147.523353 445.104456 146.385746 445.104456 145.199722 
C 445.104456 144.013697 444.633244 142.87609 443.794598 142.037444 
C 442.955952 141.198798 441.818345 140.727586 440.63232 140.727586 
C 439.446296 140.727586 438.308689 141.198798 437.470043 142.037444 
C 436.631397 142.87609 436.160184 144.013697 436.160184 145.199722 
C 436.160184 146.385746 436.631397 147.523353 437.470043 148.361999 
C 438.308689 149.200645 439.446296 149.671858 440.63232 149.671858 
z
" clip-path="url(#p9839cc6d55)" style="fill: #879dba; stroke: #879dba"/>
    <path d="M 402.392283 139.407205 
C 403.578308 139.407205 404.715915 138.935993 405.554561 138.097347 
C 406.393207 137.258701 406.864419 136.121094 406.864419 134.935069 
C 406.864419 133.749045 406.393207 132.611437 405.554561 131.772792 
C 404.715915 130.934146 403.578308 130.462933 402.392283 130.462933 
C 401.206259 130.462933 400.068651 130.934146 399.230006 131.772792 
C 398.39136 132.611437 397.920147 133.749045 397.920147 134.935069 
C 397.920147 136.121094 398.39136 137.258701 399.230006 138.097347 
C 400.068651 138.935993 401.206259 139.407205 402.392283 139.407205 
z
" clip-path="url(#p9839cc6d55)" style="fill: #879dba; stroke: #879dba"/>
    <path d="M 363.10054 134.232811 
C 364.286564 134.232811 365.424172 133.761598 366.262818 132.922952 
C 367.101463 132.084307 367.572676 130.946699 367.572676 129.760675 
C 367.572676 128.57465 367.101463 127.437043 366.262818 126.598397 
C 365.424172 125.759751 364.286564 125.288539 363.10054 125.288539 
C 361.914516 125.288539 360.776908 125.759751 359.938262 126.598397 
C 359.099616 127.437043 358.628404 128.57465 358.628404 129.760675 
C 358.628404 130.946699 359.099616 132.084307 359.938262 132.922952 
C 360.776908 133.761598 361.914516 134.232811 363.10054 134.232811 
z
" clip-path="url(#p9839cc6d55)" style="fill: #879dba; stroke: #879dba"/>
    <path d="M 323.472251 134.232811 
C 324.658275 134.232811 325.795883 133.761598 326.634528 132.922952 
C 327.473174 132.084307 327.944387 130.946699 327.944387 129.760675 
C 327.944387 128.57465 327.473174 127.437043 326.634528 126.598397 
C 325.795883 125.759751 324.658275 125.288539 323.472251 125.288539 
C 322.286226 125.288539 321.148619 125.759751 320.309973 126.598397 
C 319.471327 127.437043 319.000115 128.57465 319.000115 129.760675 
C 319.000115 130.946699 319.471327 132.084307 320.309973 132.922952 
C 321.148619 133.761598 322.286226 134.232811 323.472251 134.232811 
z
" clip-path="url(#p9839cc6d55)" style="fill: #879dba; stroke: #879dba"/>
    <path d="M 284.180507 139.407205 
C 285.366532 139.407205 286.504139 138.935993 287.342785 138.097347 
C 288.181431 137.258701 288.652643 136.121094 288.652643 134.935069 
C 288.652643 133.749045 288.181431 132.611437 287.342785 131.772792 
C 286.504139 130.934146 285.366532 130.462933 284.180507 130.462933 
C 282.994483 130.462933 281.856876 130.934146 281.01823 131.772792 
C 280.179584 132.611437 279.708371 133.749045 279.708371 134.935069 
C 279.708371 136.121094 280.179584 137.258701 281.01823 138.097347 
C 281.856876 138.935993 282.994483 139.407205 284.180507 139.407205 
z
" clip-path="url(#p9839cc6d55)" style="fill: #879dba; stroke: #879dba"/>
    <path d="M 245.94047 149.671858 
C 247.126495 149.671858 248.264102 149.200645 249.102748 148.361999 
C 249.941394 147.523353 250.412606 146.385746 250.412606 145.199722 
C 250.412606 144.013697 249.941394 142.87609 249.102748 142.037444 
C 248.264102 141.198798 247.126495 140.727586 245.94047 140.727586 
C 244.754446 140.727586 243.616838 141.198798 242.778193 142.037444 
C 241.939547 142.87609 241.468334 144.013697 241.468334 145.199722 
C 241.468334 146.385746 241.939547 147.523353 242.778193 148.361999 
C 243.616838 149.200645 244.754446 149.671858 245.94047 149.671858 
z
" clip-path="url(#p9839cc6d55)" style="fill: #879dba; stroke: #879dba"/>
    <path d="M 209.341095 164.816427 
C 210.527119 164.816427 211.664727 164.345214 212.503372 163.506568 
C 213.342018 162.667923 213.813231 161.530315 213.813231 160.344291 
C 213.813231 159.158266 213.342018 158.020659 212.503372 157.182013 
C 211.664727 156.343367 210.527119 155.872155 209.341095 155.872155 
C 208.15507 155.872155 207.017463 156.343367 206.178817 157.182013 
C 205.340171 158.020659 204.868959 159.158266 204.868959 160.344291 
C 204.868959 161.530315 205.340171 162.667923 206.178817 163.506568 
C 207.017463 164.345214 208.15507 164.816427 209.341095 164.816427 
z
" clip-path="url(#p9839cc6d55)" style="fill: #879dba; stroke: #879dba"/>
    <path d="M 175.013405 184.630571 
C 176.199429 184.630571 177.337037 184.159359 178.175682 183.320713 
C 179.014328 182.482067 179.485541 181.34446 179.485541 180.158435 
C 179.485541 178.972411 179.014328 177.834804 178.175682 176.996158 
C 177.337037 176.157512 176.199429 175.686299 175.013405 175.686299 
C 173.82738 175.686299 172.689773 176.157512 171.851127 176.996158 
C 171.012481 177.834804 170.541269 178.972411 170.541269 180.158435 
C 170.541269 181.34446 171.012481 182.482067 171.851127 183.320713 
C 172.689773 184.159359 173.82738 184.630571 175.013405 184.630571 
z
" clip-path="url(#p9839cc6d55)" style="fill: #879dba; stroke: #879dba"/>
    <path d="M 143.588424 208.735677 
C 144.774448 208.735677 145.912056 208.264465 146.750701 207.425819 
C 147.589347 206.587173 148.06056 205.449566 148.06056 204.263541 
C 148.06056 203.077517 147.589347 201.939909 146.750701 201.101264 
C 145.912056 200.262618 144.774448 199.791405 143.588424 199.791405 
C 142.402399 199.791405 141.264792 200.262618 140.426146 201.101264 
C 139.5875 201.939909 139.116288 203.077517 139.116288 204.263541 
C 139.116288 205.449566 139.5875 206.587173 140.426146 207.425819 
C 141.264792 208.264465 142.402399 208.735677 143.588424 208.735677 
z
" clip-path="url(#p9839cc6d55)" style="fill: #879dba; stroke: #879dba"/>
    <path d="M 115.570971 236.75313 
C 116.756995 236.75313 117.894603 236.281918 118.733248 235.443272 
C 119.571894 234.604626 120.043107 233.467019 120.043107 232.280994 
C 120.043107 231.09497 119.571894 229.957362 118.733248 229.118717 
C 117.894603 228.280071 116.756995 227.808858 115.570971 227.808858 
C 114.384946 227.808858 113.247339 228.280071 112.408693 229.118717 
C 111.570047 229.957362 111.098835 231.09497 111.098835 232.280994 
C 111.098835 233.467019 111.570047 234.604626 112.408693 235.443272 
C 113.247339 236.281918 114.384946 236.75313 115.570971 236.75313 
z
" clip-path="url(#p9839cc6d55)" style="fill: #879dba; stroke: #879dba"/>
    <path d="M 91.423797 268.178111 
C 92.609821 268.178111 93.747428 267.706899 94.586074 266.868253 
C 95.42472 266.029607 95.895933 264.892 95.895933 263.705975 
C 95.895933 262.519951 95.42472 261.382343 94.586074 260.543698 
C 93.747428 259.705052 92.609821 259.233839 91.423797 259.233839 
C 90.237772 259.233839 89.100165 259.705052 88.261519 260.543698 
C 87.422873 261.382343 86.951661 262.519951 86.951661 263.705975 
C 86.951661 264.892 87.422873 266.029607 88.261519 266.868253 
C 89.100165 267.706899 90.237772 268.178111 91.423797 268.178111 
z
" clip-path="url(#p9839cc6d55)" style="fill: #879dba; stroke: #879dba"/>
    <path d="M 71.65172 302.505801 
C 72.837745 302.505801 73.975352 302.034589 74.813998 301.195943 
C 75.652644 300.357297 76.123856 299.21969 76.123856 298.033665 
C 76.123856 296.847641 75.652644 295.710034 74.813998 294.871388 
C 73.975352 294.032742 72.837745 293.561529 71.65172 293.561529 
C 70.465696 293.561529 69.328088 294.032742 68.489443 294.871388 
C 67.650797 295.710034 67.179584 296.847641 67.179584 298.033665 
C 67.179584 299.21969 67.650797 300.357297 68.489443 301.195943 
C 69.328088 302.034589 70.465696 302.505801 71.65172 302.505801 
z
" clip-path="url(#p9839cc6d55)" style="fill: #879dba; stroke: #879dba"/>
    <path d="M 56.465083 339.105177 
C 57.651107 339.105177 58.788715 338.633964 59.62736 337.795318 
C 60.466006 336.956673 60.937219 335.819065 60.937219 334.633041 
C 60.937219 333.447016 60.466006 332.309409 59.62736 331.470763 
C 58.788715 330.632117 57.651107 330.160905 56.465083 330.160905 
C 55.279059 330.160905 54.141451 330.632117 53.302805 331.470763 
C 52.464159 332.309409 51.992947 333.447016 51.992947 334.633041 
C 51.992947 335.819065 52.464159 336.956673 53.302805 337.795318 
C 54.141451 338.633964 55.279059 339.105177 56.465083 339.105177 
z
" clip-path="url(#p9839cc6d55)" style="fill: #879dba; stroke: #879dba"/>
    <path d="M 46.20043 377.387282 
C 47.386455 377.387282 48.524062 376.91607 49.362708 376.077424 
C 50.201354 375.238778 50.672566 374.10117 50.672566 372.915146 
C 50.672566 371.729122 50.201354 370.591514 49.362708 369.752869 
C 48.524062 368.914223 47.386455 368.44301 46.20043 368.44301 
C 45.014406 368.44301 43.876799 368.914223 43.038153 369.752869 
C 42.199507 370.591514 41.728294 371.729122 41.728294 372.915146 
C 41.728294 374.10117 42.199507 375.238778 43.038153 376.077424 
C 43.876799 376.91607 45.014406 377.387282 46.20043 377.387282 
z
" clip-path="url(#p9839cc6d55)" style="fill: #879dba; stroke: #879dba"/>
    <path d="M 41.026036 416.657991 
C 42.21206 416.657991 43.349668 416.186779 44.188314 415.348133 
C 45.026959 414.509487 45.498172 413.37188 45.498172 412.185855 
C 45.498172 410.999831 45.026959 409.862224 44.188314 409.023578 
C 43.349668 408.184932 42.21206 407.713719 41.026036 407.713719 
C 39.840012 407.713719 38.702404 408.184932 37.863758 409.023578 
C 37.025112 409.862224 36.5539 410.999831 36.5539 412.185855 
C 36.5539 413.37188 37.025112 414.509487 37.863758 415.348133 
C 38.702404 416.186779 39.840012 416.657991 41.026036 416.657991 
z
" clip-path="url(#p9839cc6d55)" style="fill: #879dba; stroke: #879dba"/>
    <path d="M 41.026036 456.277867 
C 42.21206 456.277867 43.349668 455.806654 44.188314 454.968009 
C 45.026959 454.129363 45.498172 452.991755 45.498172 451.805731 
C 45.498172 450.619707 45.026959 449.482099 44.188314 448.643453 
C 43.349668 447.804807 42.21206 447.333595 41.026036 447.333595 
C 39.840012 447.333595 38.702404 447.804807 37.863758 448.643453 
C 37.025112 449.482099 36.5539 450.619707 36.5539 451.805731 
C 36.5539 452.991755 37.025112 454.129363 37.863758 454.968009 
C 38.702404 455.806654 39.840012 456.277867 41.026036 456.277867 
z
" clip-path="url(#p9839cc6d55)" style="fill: #879dba; stroke: #879dba"/>
    <path d="M 46.20043 495.561197 
C 47.386455 495.561197 48.524062 495.089984 49.362708 494.251338 
C 50.201354 493.412692 50.672566 492.275085 50.672566 491.089061 
C 50.672566 489.903036 50.201354 488.765429 49.362708 487.926783 
C 48.524062 487.088137 47.386455 486.616925 46.20043 486.616925 
C 45.014406 486.616925 43.876799 487.088137 43.038153 487.926783 
C 42.199507 488.765429 41.728294 489.903036 41.728294 491.089061 
C 41.728294 492.275085 42.199507 493.412692 43.038153 494.251338 
C 43.876799 495.089984 45.014406 495.561197 46.20043 495.561197 
z
" clip-path="url(#p9839cc6d55)" style="fill: #879dba; stroke: #879dba"/>
    <path d="M 56.465083 533.830682 
C 57.651107 533.830682 58.788715 533.359469 59.62736 532.520823 
C 60.466006 531.682177 60.937219 530.54457 60.937219 529.358546 
C 60.937219 528.172521 60.466006 527.034914 59.62736 526.196268 
C 58.788715 525.357622 57.651107 524.88641 56.465083 524.88641 
C 55.279059 524.88641 54.141451 525.357622 53.302805 526.196268 
C 52.464159 527.034914 51.992947 528.172521 51.992947 529.358546 
C 51.992947 530.54457 52.464159 531.682177 53.302805 532.520823 
C 54.141451 533.359469 55.279059 533.830682 56.465083 533.830682 
z
" clip-path="url(#p9839cc6d55)" style="fill: #879dba; stroke: #879dba"/>
    <path d="M 71.65172 570.434264 
C 72.837745 570.434264 73.975352 569.963051 74.813998 569.124405 
C 75.652644 568.28576 76.123856 567.148152 76.123856 565.962128 
C 76.123856 564.776104 75.652644 563.638496 74.813998 562.79985 
C 73.975352 561.961204 72.837745 561.489992 71.65172 561.489992 
C 70.465696 561.489992 69.328088 561.961204 68.489443 562.79985 
C 67.650797 563.638496 67.179584 564.776104 67.179584 565.962128 
C 67.179584 567.148152 67.650797 568.28576 68.489443 569.124405 
C 69.328088 569.963051 70.465696 570.434264 71.65172 570.434264 
z
" clip-path="url(#p9839cc6d55)" style="fill: #879dba; stroke: #879dba"/>
    <path d="M 91.423797 604.745127 
C 92.609821 604.745127 93.747428 604.273914 94.586074 603.435268 
C 95.42472 602.596622 95.895933 601.459015 95.895933 600.272991 
C 95.895933 599.086966 95.42472 597.949359 94.586074 597.110713 
C 93.747428 596.272067 92.609821 595.800855 91.423797 595.800855 
C 90.237772 595.800855 89.100165 596.272067 88.261519 597.110713 
C 87.422873 597.949359 86.951661 599.086966 86.951661 600.272991 
C 86.951661 601.459015 87.422873 602.596622 88.261519 603.435268 
C 89.100165 604.273914 90.237772 604.745127 91.423797 604.745127 
z
" clip-path="url(#p9839cc6d55)" style="fill: #879dba; stroke: #879dba"/>
    <path d="M 115.570971 636.178521 
C 116.756995 636.178521 117.894603 635.707309 118.733248 634.868663 
C 119.571894 634.030017 120.043107 632.89241 120.043107 631.706385 
C 120.043107 630.520361 119.571894 629.382753 118.733248 628.544108 
C 117.894603 627.705462 116.756995 627.234249 115.570971 627.234249 
C 114.384946 627.234249 113.247339 627.705462 112.408693 628.544108 
C 111.570047 629.382753 111.098835 630.520361 111.098835 631.706385 
C 111.098835 632.89241 111.570047 634.030017 112.408693 634.868663 
C 113.247339 635.707309 114.384946 636.178521 115.570971 636.178521 
z
" clip-path="url(#p9839cc6d55)" style="fill: #879dba; stroke: #879dba"/>
    <path d="M 143.588424 664.195974 
C 144.774448 664.195974 145.912056 663.724762 146.750701 662.886116 
C 147.589347 662.04747 148.06056 660.909863 148.06056 659.723838 
C 148.06056 658.537814 147.589347 657.400206 146.750701 656.561561 
C 145.912056 655.722915 144.774448 655.251702 143.588424 655.251702 
C 142.402399 655.251702 141.264792 655.722915 140.426146 656.561561 
C 139.5875 657.400206 139.116288 658.537814 139.116288 659.723838 
C 139.116288 660.909863 139.5875 662.04747 140.426146 662.886116 
C 141.264792 663.724762 142.402399 664.195974 143.588424 664.195974 
z
" clip-path="url(#p9839cc6d55)" style="fill: #879dba; stroke: #879dba"/>
    <path d="M 175.013405 688.313701 
C 176.199429 688.313701 177.337037 687.842488 178.175682 687.003842 
C 179.014328 686.165196 179.485541 685.027589 179.485541 683.841565 
C 179.485541 682.65554 179.014328 681.517933 178.175682 680.679287 
C 177.337037 679.840641 176.199429 679.369429 175.013405 679.369429 
C 173.82738 679.369429 172.689773 679.840641 171.851127 680.679287 
C 171.012481 681.517933 170.541269 682.65554 170.541269 683.841565 
C 170.541269 685.027589 171.012481 686.165196 171.851127 687.003842 
C 172.689773 687.842488 173.82738 688.313701 175.013405 688.313701 
z
" clip-path="url(#p9839cc6d55)" style="fill: #879dba; stroke: #879dba"/>
    <path d="M 209.341095 708.123638 
C 210.527119 708.123638 211.664727 707.652426 212.503372 706.81378 
C 213.342018 705.975134 213.813231 704.837527 213.813231 703.651502 
C 213.813231 702.465478 213.342018 701.327871 212.503372 700.489225 
C 211.664727 699.650579 210.527119 699.179366 209.341095 699.179366 
C 208.15507 699.179366 207.017463 699.650579 206.178817 700.489225 
C 205.340171 701.327871 204.868959 702.465478 204.868959 703.651502 
C 204.868959 704.837527 205.340171 705.975134 206.178817 706.81378 
C 207.017463 707.652426 208.15507 708.123638 209.341095 708.123638 
z
" clip-path="url(#p9839cc6d55)" style="fill: #879dba; stroke: #879dba"/>
    <path d="M 245.94047 723.285035 
C 247.126495 723.285035 248.264102 722.813822 249.102748 721.975177 
C 249.941394 721.136531 250.412606 719.998923 250.412606 718.812899 
C 250.412606 717.626875 249.941394 716.489267 249.102748 715.650621 
C 248.264102 714.811975 247.126495 714.340763 245.94047 714.340763 
C 244.754446 714.340763 243.616838 714.811975 242.778193 715.650621 
C 241.939547 716.489267 241.468334 717.626875 241.468334 718.812899 
C 241.468334 719.998923 241.939547 721.136531 242.778193 721.975177 
C 243.616838 722.813822 244.754446 723.285035 245.94047 723.285035 
z
" clip-path="url(#p9839cc6d55)" style="fill: #879dba; stroke: #879dba"/>
    <path d="M 284.180507 733.541274 
C 285.366532 733.541274 286.504139 733.070061 287.342785 732.231415 
C 288.181431 731.392769 288.652643 730.255162 288.652643 729.069138 
C 288.652643 727.883113 288.181431 726.745506 287.342785 725.90686 
C 286.504139 725.068214 285.366532 724.597002 284.180507 724.597002 
C 282.994483 724.597002 281.856876 725.068214 281.01823 725.90686 
C 280.179584 726.745506 279.708371 727.883113 279.708371 729.069138 
C 279.708371 730.255162 280.179584 731.392769 281.01823 732.231415 
C 281.856876 733.070061 282.994483 733.541274 284.180507 733.541274 
z
" clip-path="url(#p9839cc6d55)" style="fill: #879dba; stroke: #879dba"/>
    <path d="M 323.472251 738.711461 
C 324.658275 738.711461 325.795883 738.240249 326.634528 737.401603 
C 327.473174 736.562957 327.944387 735.42535 327.944387 734.239325 
C 327.944387 733.053301 327.473174 731.915693 326.634528 731.077048 
C 325.795883 730.238402 324.658275 729.767189 323.472251 729.767189 
C 322.286226 729.767189 321.148619 730.238402 320.309973 731.077048 
C 319.471327 731.915693 319.000115 733.053301 319.000115 734.239325 
C 319.000115 735.42535 319.471327 736.562957 320.309973 737.401603 
C 321.148619 738.240249 322.286226 738.711461 323.472251 738.711461 
z
" clip-path="url(#p9839cc6d55)" style="fill: #879dba; stroke: #879dba"/>
    <path d="M 363.10054 738.711461 
C 364.286564 738.711461 365.424172 738.240249 366.262818 737.401603 
C 367.101463 736.562957 367.572676 735.42535 367.572676 734.239325 
C 367.572676 733.053301 367.101463 731.915693 366.262818 731.077048 
C 365.424172 730.238402 364.286564 729.767189 363.10054 729.767189 
C 361.914516 729.767189 360.776908 730.238402 359.938262 731.077048 
C 359.099616 731.915693 358.628404 733.053301 358.628404 734.239325 
C 358.628404 735.42535 359.099616 736.562957 359.938262 737.401603 
C 360.776908 738.240249 361.914516 738.711461 363.10054 738.711461 
z
" clip-path="url(#p9839cc6d55)" style="fill: #879dba; stroke: #879dba"/>
    <path d="M 402.392283 733.541274 
C 403.578308 733.541274 404.715915 733.070061 405.554561 732.231415 
C 406.393207 731.392769 406.864419 730.255162 406.864419 729.069138 
C 406.864419 727.883113 406.393207 726.745506 405.554561 725.90686 
C 404.715915 725.068214 403.578308 724.597002 402.392283 724.597002 
C 401.206259 724.597002 400.068651 725.068214 399.230006 725.90686 
C 398.39136 726.745506 397.920147 727.883113 397.920147 729.069138 
C 397.920147 730.255162 398.39136 731.392769 399.230006 732.231415 
C 400.068651 733.070061 401.206259 733.541274 402.392283 733.541274 
z
" clip-path="url(#p9839cc6d55)" style="fill: #879dba; stroke: #879dba"/>
    <path d="M 440.63232 723.285035 
C 441.818345 723.285035 442.955952 722.813822 443.794598 721.975177 
C 444.633244 721.136531 445.104456 719.998923 445.104456 718.812899 
C 445.104456 717.626875 444.633244 716.489267 443.794598 715.650621 
C 442.955952 714.811975 441.818345 714.340763 440.63232 714.340763 
C 439.446296 714.340763 438.308689 714.811975 437.470043 715.650621 
C 436.631397 716.489267 436.160184 717.626875 436.160184 718.812899 
C 436.160184 719.998923 436.631397 721.136531 437.470043 721.975177 
C 438.308689 722.813822 439.446296 723.285035 440.63232 723.285035 
z
" clip-path="url(#p9839cc6d55)" style="fill: #879dba; stroke: #879dba"/>
    <path d="M 477.273764 708.123638 
C 478.459788 708.123638 479.597396 707.652426 480.436042 706.81378 
C 481.274688 705.975134 481.7459 704.837527 481.7459 703.651502 
C 481.7459 702.465478 481.274688 701.327871 480.436042 700.489225 
C 479.597396 699.650579 478.459788 699.179366 477.273764 699.179366 
C 476.08774 699.179366 474.950132 699.650579 474.111486 700.489225 
C 473.272841 701.327871 472.801628 702.465478 472.801628 703.651502 
C 472.801628 704.837527 473.272841 705.975134 474.111486 706.81378 
C 474.950132 707.652426 476.08774 708.123638 477.273764 708.123638 
z
" clip-path="url(#p9839cc6d55)" style="fill: #879dba; stroke: #879dba"/>
    <path d="M 511.559386 688.313701 
C 512.74541 688.313701 513.883018 687.842488 514.721664 687.003842 
C 515.560309 686.165196 516.031522 685.027589 516.031522 683.841565 
C 516.031522 682.65554 515.560309 681.517933 514.721664 680.679287 
C 513.883018 679.840641 512.74541 679.369429 511.559386 679.369429 
C 510.373362 679.369429 509.235754 679.840641 508.397108 680.679287 
C 507.558462 681.517933 507.08725 682.65554 507.08725 683.841565 
C 507.08725 685.027589 507.558462 686.165196 508.397108 687.003842 
C 509.235754 687.842488 510.373362 688.313701 511.559386 688.313701 
z
" clip-path="url(#p9839cc6d55)" style="fill: #879dba; stroke: #879dba"/>
    <path d="M 542.984367 664.195974 
C 544.170391 664.195974 545.307999 663.724762 546.146645 662.886116 
C 546.98529 662.04747 547.456503 660.909863 547.456503 659.723838 
C 547.456503 658.537814 546.98529 657.400206 546.146645 656.561561 
C 545.307999 655.722915 544.170391 655.251702 542.984367 655.251702 
C 541.798343 655.251702 540.660735 655.722915 539.822089 656.561561 
C 538.983443 657.400206 538.512231 658.537814 538.512231 659.723838 
C 538.512231 660.909863 538.983443 662.04747 539.822089 662.886116 
C 540.660735 663.724762 541.798343 664.195974 542.984367 664.195974 
z
" clip-path="url(#p9839cc6d55)" style="fill: #879dba; stroke: #879dba"/>
    <path d="M 571.00182 636.178521 
C 572.187844 636.178521 573.325452 635.707309 574.164098 634.868663 
C 575.002743 634.030017 575.473956 632.89241 575.473956 631.706385 
C 575.473956 630.520361 575.002743 629.382753 574.164098 628.544108 
C 573.325452 627.705462 572.187844 627.234249 571.00182 627.234249 
C 569.815796 627.234249 568.678188 627.705462 567.839542 628.544108 
C 567.000896 629.382753 566.529684 630.520361 566.529684 631.706385 
C 566.529684 632.89241 567.000896 634.030017 567.839542 634.868663 
C 568.678188 635.707309 569.815796 636.178521 571.00182 636.178521 
z
" clip-path="url(#p9839cc6d55)" style="fill: #879dba; stroke: #879dba"/>
    <path d="M 595.148994 604.745127 
C 596.335018 604.745127 597.472626 604.273914 598.311272 603.435268 
C 599.149918 602.596622 599.62113 601.459015 599.62113 600.272991 
C 599.62113 599.086966 599.149918 597.949359 598.311272 597.110713 
C 597.472626 596.272067 596.335018 595.800855 595.148994 595.800855 
C 593.96297 595.800855 592.825362 596.272067 591.986716 597.110713 
C 591.148071 597.949359 590.676858 599.086966 590.676858 600.272991 
C 590.676858 601.459015 591.148071 602.596622 591.986716 603.435268 
C 592.825362 604.273914 593.96297 604.745127 595.148994 604.745127 
z
" clip-path="url(#p9839cc6d55)" style="fill: #879dba; stroke: #879dba"/>
    <path d="M 614.963139 570.434264 
C 616.149163 570.434264 617.286771 569.963051 618.125416 569.124405 
C 618.964062 568.28576 619.435275 567.148152 619.435275 565.962128 
C 619.435275 564.776104 618.964062 563.638496 618.125416 562.79985 
C 617.286771 561.961204 616.149163 561.489992 614.963139 561.489992 
C 613.777114 561.489992 612.639507 561.961204 611.800861 562.79985 
C 610.962215 563.638496 610.491003 564.776104 610.491003 565.962128 
C 610.491003 567.148152 610.962215 568.28576 611.800861 569.124405 
C 612.639507 569.963051 613.777114 570.434264 614.963139 570.434264 
z
" clip-path="url(#p9839cc6d55)" style="fill: #879dba; stroke: #879dba"/>
    <path d="M 630.107708 533.830682 
C 631.293732 533.830682 632.43134 533.359469 633.269986 532.520823 
C 634.108631 531.682177 634.579844 530.54457 634.579844 529.358546 
C 634.579844 528.172521 634.108631 527.034914 633.269986 526.196268 
C 632.43134 525.357622 631.293732 524.88641 630.107708 524.88641 
C 628.921684 524.88641 627.784076 525.357622 626.94543 526.196268 
C 626.106784 527.034914 625.635572 528.172521 625.635572 529.358546 
C 625.635572 530.54457 626.106784 531.682177 626.94543 532.520823 
C 627.784076 533.359469 628.921684 533.830682 630.107708 533.830682 
z
" clip-path="url(#p9839cc6d55)" style="fill: #879dba; stroke: #879dba"/>
    <path d="M 640.37236 495.561197 
C 641.558385 495.561197 642.695992 495.089984 643.534638 494.251338 
C 644.373284 493.412692 644.844496 492.275085 644.844496 491.089061 
C 644.844496 489.903036 644.373284 488.765429 643.534638 487.926783 
C 642.695992 487.088137 641.558385 486.616925 640.37236 486.616925 
C 639.186336 486.616925 638.048728 487.088137 637.210083 487.926783 
C 636.371437 488.765429 635.900224 489.903036 635.900224 491.089061 
C 635.900224 492.275085 636.371437 493.412692 637.210083 494.251338 
C 638.048728 495.089984 639.186336 495.561197 640.37236 495.561197 
z
" clip-path="url(#p9839cc6d55)" style="fill: #879dba; stroke: #879dba"/>
   </g>
   <g id="patch_3">
    <path d="M 10.8 764.486395 
L 10.8 99.513605 
" style="fill: none; stroke: #000000; stroke-width: 0.8; stroke-linejoin: miter; stroke-linecap: square"/>
   </g>
   <g id="patch_4">
    <path d="M 675.772791 764.486395 
L 675.772791 99.513605 
" style="fill: none; stroke: #000000; stroke-width: 0.8; stroke-linejoin: miter; stroke-linecap: square"/>
   </g>
   <g id="patch_5">
    <path d="M 10.8 764.486395 
L 675.772791 764.486395 
" style="fill: none; stroke: #000000; stroke-width: 0.8; stroke-linejoin: miter; stroke-linecap: square"/>
   </g>
   <g id="patch_6">
    <path d="M 10.8 99.513605 
L 675.772791 99.513605 
" style="fill: none; stroke: #000000; stroke-width: 0.8; stroke-linejoin: miter; stroke-linecap: square"/>
   </g>
   <g id="text_1">
    <!-- Year: 1830 -->
    <g transform="translate(17.449728 126.918828) scale(0.3 -0.3)">
     <defs>
      <path id="CMR17-59" d="M 3706 3766 
C 3955 4160 4301 4160 4416 4160 
L 4416 4332 
C 4269 4319 4102 4319 3942 4319 
C 3782 4319 3526 4319 3373 4332 
L 3373 4160 
C 3533 4160 3616 4077 3616 3957 
C 3616 3881 3584 3830 3533 3747 
L 2381 1912 
L 1120 3912 
C 1075 3988 1069 3994 1069 4039 
C 1069 4160 1293 4160 1382 4160 
L 1382 4319 
C 1178 4319 864 4319 653 4319 
C 486 4319 166 4319 13 4332 
L 13 4160 
C 378 4160 480 4141 595 3958 
L 2010 1728 
L 2010 445 
C 2010 160 1939 160 1498 160 
L 1498 0 
C 1683 0 2016 0 2214 0 
C 2413 0 2752 0 2938 0 
L 2938 160 
C 2477 160 2419 160 2419 471 
L 2419 1728 
L 3706 3766 
z
" transform="scale(0.015625)"/>
      <path id="CMR17-65" d="M 2438 1472 
C 2464 1498 2464 1511 2464 1576 
C 2464 2238 2118 2816 1389 2816 
C 710 2816 173 2169 173 1383 
C 173 551 781 -64 1459 -64 
C 2176 -64 2458 607 2458 740 
C 2458 784 2419 784 2406 784 
C 2362 784 2355 771 2330 696 
C 2189 265 1837 51 1504 51 
C 1229 51 954 203 781 480 
C 582 803 582 1176 582 1472 
L 2438 1472 
z
M 589 1568 
C 634 2505 1126 2714 1382 2714 
C 1818 2714 2112 2297 2118 1568 
L 589 1568 
z
" transform="scale(0.015625)"/>
      <path id="CMR17-61" d="M 2304 1653 
C 2304 2072 2304 2294 2035 2543 
C 1798 2752 1523 2816 1306 2816 
C 800 2816 435 2407 435 1971 
C 435 1728 627 1728 666 1728 
C 749 1728 896 1778 896 1954 
C 896 2112 774 2181 666 2181 
C 640 2181 608 2174 589 2168 
C 723 2592 1069 2714 1293 2714 
C 1613 2714 1965 2429 1965 1885 
L 1965 1600 
C 1587 1600 1133 1549 774 1357 
C 371 1133 256 813 256 570 
C 256 77 832 -64 1171 -64 
C 1523 -64 1850 139 1990 511 
C 2003 233 2182 -18 2464 -18 
C 2598 -18 2938 70 2938 567 
L 2938 920 
L 2822 920 
L 2822 562 
C 2822 178 2650 128 2566 128 
C 2304 128 2304 458 2304 738 
L 2304 1653 
z
M 1965 870 
C 1965 317 1568 38 1216 38 
C 896 38 646 275 646 570 
C 646 761 730 1100 1101 1305 
C 1408 1478 1760 1504 1965 1504 
L 1965 870 
z
" transform="scale(0.015625)"/>
      <path id="CMR17-72" d="M 960 1497 
C 960 2112 1222 2688 1702 2688 
C 1747 2688 1792 2682 1837 2662 
C 1837 2662 1696 2617 1696 2452 
C 1696 2298 1818 2234 1914 2234 
C 1990 2234 2131 2279 2131 2458 
C 2131 2663 1926 2790 1709 2790 
C 1222 2790 1011 2317 947 2093 
L 941 2093 
L 941 2790 
L 198 2720 
L 198 2554 
C 576 2554 634 2515 634 2208 
L 634 428 
C 634 184 608 153 198 153 
L 198 -13 
C 352 0 646 0 813 0 
C 998 0 1325 0 1498 -13 
L 1498 153 
C 1037 153 960 153 960 440 
L 960 1497 
z
" transform="scale(0.015625)"/>
      <path id="CMR17-3a" d="M 1062 2491 
C 1062 2650 934 2752 800 2752 
C 672 2752 538 2650 538 2491 
C 538 2332 666 2230 800 2230 
C 928 2230 1062 2332 1062 2491 
z
M 1062 261 
C 1062 420 934 522 800 522 
C 672 522 538 420 538 261 
C 538 102 666 0 800 0 
C 928 0 1062 102 1062 261 
z
" transform="scale(0.015625)"/>
      <path id="CMR17-31" d="M 1702 4058 
C 1702 4192 1696 4192 1606 4192 
C 1357 3916 979 3827 621 3827 
C 602 3827 570 3827 563 3808 
C 557 3795 557 3782 557 3648 
C 755 3648 1088 3686 1344 3839 
L 1344 461 
C 1344 236 1331 160 781 160 
L 589 160 
L 589 0 
C 896 0 1216 0 1523 0 
C 1830 0 2150 0 2458 0 
L 2458 160 
L 2266 160 
C 1715 160 1702 230 1702 458 
L 1702 4058 
z
" transform="scale(0.015625)"/>
      <path id="CMR17-38" d="M 1741 2264 
C 2144 2467 2554 2773 2554 3263 
C 2554 3841 1990 4179 1472 4179 
C 890 4179 378 3759 378 3180 
C 378 3021 416 2747 666 2505 
C 730 2442 998 2251 1171 2130 
C 883 1983 211 1634 211 934 
C 211 279 838 -128 1459 -128 
C 2144 -128 2720 362 2720 1010 
C 2720 1590 2330 1857 2074 2029 
L 1741 2264 
z
M 902 2822 
C 851 2854 595 3051 595 3351 
C 595 3739 998 4032 1459 4032 
C 1965 4032 2336 3676 2336 3262 
C 2336 2669 1670 2331 1638 2331 
C 1632 2331 1626 2331 1574 2370 
L 902 2822 
z
M 2080 1519 
C 2176 1449 2483 1240 2483 851 
C 2483 381 2010 25 1472 25 
C 890 25 448 438 448 940 
C 448 1443 838 1862 1280 2060 
L 2080 1519 
z
" transform="scale(0.015625)"/>
      <path id="CMR17-33" d="M 1414 2157 
C 1984 2157 2234 1662 2234 1090 
C 2234 320 1824 25 1453 25 
C 1114 25 563 194 390 693 
C 422 680 454 680 486 680 
C 640 680 755 782 755 948 
C 755 1133 614 1216 486 1216 
C 378 1216 211 1165 211 926 
C 211 335 787 -128 1466 -128 
C 2176 -128 2720 430 2720 1085 
C 2720 1707 2208 2157 1600 2227 
C 2086 2328 2554 2756 2554 3329 
C 2554 3820 2048 4179 1472 4179 
C 890 4179 378 3829 378 3329 
C 378 3110 544 3072 627 3072 
C 762 3072 877 3155 877 3321 
C 877 3486 762 3569 627 3569 
C 602 3569 570 3569 544 3557 
C 730 3959 1235 4032 1459 4032 
C 1683 4032 2106 3925 2106 3320 
C 2106 3143 2080 2828 1862 2550 
C 1670 2304 1453 2304 1242 2284 
C 1210 2284 1062 2269 1037 2269 
C 992 2263 966 2257 966 2208 
C 966 2163 973 2157 1101 2157 
L 1414 2157 
z
" transform="scale(0.015625)"/>
      <path id="CMR17-30" d="M 2688 2025 
C 2688 2416 2682 3080 2413 3591 
C 2176 4039 1798 4198 1466 4198 
C 1158 4198 768 4058 525 3597 
C 269 3118 243 2524 243 2025 
C 243 1661 250 1106 448 619 
C 723 -39 1216 -128 1466 -128 
C 1760 -128 2208 -7 2470 600 
C 2662 1042 2688 1559 2688 2025 
z
M 1466 -26 
C 1056 -26 813 325 723 812 
C 653 1188 653 1738 653 2096 
C 653 2588 653 2997 736 3387 
C 858 3929 1216 4096 1466 4096 
C 1728 4096 2067 3923 2189 3400 
C 2272 3036 2278 2607 2278 2096 
C 2278 1680 2278 1169 2202 792 
C 2067 95 1690 -26 1466 -26 
z
" transform="scale(0.015625)"/>
     </defs>
     <use xlink:href="#CMR17-59" transform="scale(0.996264)"/>
     <use xlink:href="#CMR17-65" transform="translate(61.265174 0) scale(0.996264)"/>
     <use xlink:href="#CMR17-61" transform="translate(101.750835 0) scale(0.996264)"/>
     <use xlink:href="#CMR17-72" transform="translate(147.441312 0) scale(0.996264)"/>
     <use xlink:href="#CMR17-3a" transform="translate(182.72208 0) scale(0.996264)"/>
     <use xlink:href="#CMR17-31" transform="translate(248.078799 0) scale(0.996264)"/>
     <use xlink:href="#CMR17-38" transform="translate(293.769276 0) scale(0.996264)"/>
     <use xlink:href="#CMR17-33" transform="translate(339.459753 0) scale(0.996264)"/>
     <use xlink:href="#CMR17-30" transform="translate(385.15023 0) scale(0.996264)"/>
    </g>
   </g>
  </g>
  <g id="axes_2">
   <g id="patch_7">
    <path d="M 717.33359 853.2 
L 759.45359 853.2 
L 759.45359 10.8 
L 717.33359 10.8 
z
" style="fill: #ffffff"/>
   </g>
   <g id="QuadMesh_1">
    <path d="M 717.33359 853.2 
L 759.45359 853.2 
L 759.45359 747.9 
L 717.33359 747.9 
L 717.33359 853.2 
" clip-path="url(#pda295e3b2c)" style="fill: #ad35ca"/>
    <path d="M 717.33359 747.9 
L 759.45359 747.9 
L 759.45359 642.6 
L 717.33359 642.6 
L 717.33359 747.9 
" clip-path="url(#pda295e3b2c)" style="fill: #8f81b5"/>
    <path d="M 717.33359 642.6 
L 759.45359 642.6 
L 759.45359 537.3 
L 717.33359 537.3 
L 717.33359 642.6 
" clip-path="url(#pda295e3b2c)" style="fill: #879dba"/>
    <path d="M 717.33359 537.3 
L 759.45359 537.3 
L 759.45359 432 
L 717.33359 432 
L 717.33359 537.3 
" clip-path="url(#pda295e3b2c)" style="fill: #7bb4be"/>
    <path d="M 717.33359 432 
L 759.45359 432 
L 759.45359 326.7 
L 717.33359 326.7 
L 717.33359 432 
" clip-path="url(#pda295e3b2c)" style="fill: #79c6b7"/>
    <path d="M 717.33359 326.7 
L 759.45359 326.7 
L 759.45359 221.4 
L 717.33359 221.4 
L 717.33359 326.7 
" clip-path="url(#pda295e3b2c)" style="fill: #a1ccad"/>
    <path d="M 717.33359 221.4 
L 759.45359 221.4 
L 759.45359 116.1 
L 717.33359 116.1 
L 717.33359 221.4 
" clip-path="url(#pda295e3b2c)" style="fill: #c1d59b"/>
    <path d="M 717.33359 116.1 
L 759.45359 116.1 
L 759.45359 10.8 
L 717.33359 10.8 
L 717.33359 116.1 
" clip-path="url(#pda295e3b2c)" style="fill: #e4dc96"/>
   </g>
   <g id="matplotlib.axis_3"/>
   <g id="matplotlib.axis_4">
    <g id="ytick_9">
     <g id="line2d_1">
      <defs>
       <path id="mf57c2f2732" d="M 0 0 
L 3.5 0 
" style="stroke: #000000; stroke-width: 0.8"/>
      </defs>
      <g>
       <use xlink:href="#mf57c2f2732" x="759.45359" y="800.55" style="stroke: #000000; stroke-width: 0.8"/>
      </g>
     </g>
     <g id="text_2">
      <!-- 0 -->
      <g transform="translate(766.45359 811.619603) scale(0.32 -0.32)">
       <use xlink:href="#CMR17-30" transform="scale(0.996264)"/>
      </g>
     </g>
    </g>
    <g id="ytick_10">
     <g id="line2d_2">
      <g>
       <use xlink:href="#mf57c2f2732" x="759.45359" y="695.25" style="stroke: #000000; stroke-width: 0.8"/>
      </g>
     </g>
     <g id="text_3">
      <!-- 1 -->
      <g transform="translate(766.45359 706.319603) scale(0.32 -0.32)">
       <use xlink:href="#CMR17-31" transform="scale(0.996264)"/>
      </g>
     </g>
    </g>
    <g id="ytick_11">
     <g id="line2d_3">
      <g>
       <use xlink:href="#mf57c2f2732" x="759.45359" y="589.95" style="stroke: #000000; stroke-width: 0.8"/>
      </g>
     </g>
     <g id="text_4">
      <!-- 2 -->
      <g transform="translate(766.45359 601.019603) scale(0.32 -0.32)">
       <defs>
        <path id="CMR17-32" d="M 2669 989 
L 2554 989 
C 2490 536 2438 459 2413 420 
C 2381 369 1920 369 1830 369 
L 602 369 
C 832 619 1280 1072 1824 1597 
C 2214 1967 2669 2402 2669 3035 
C 2669 3790 2067 4224 1395 4224 
C 691 4224 262 3604 262 3030 
C 262 2780 448 2748 525 2748 
C 589 2748 781 2787 781 3010 
C 781 3207 614 3264 525 3264 
C 486 3264 448 3258 422 3245 
C 544 3790 915 4058 1306 4058 
C 1862 4058 2227 3617 2227 3035 
C 2227 2479 1901 2000 1536 1584 
L 262 146 
L 262 0 
L 2515 0 
L 2669 989 
z
" transform="scale(0.015625)"/>
       </defs>
       <use xlink:href="#CMR17-32" transform="scale(0.996264)"/>
      </g>
     </g>
    </g>
    <g id="ytick_12">
     <g id="line2d_4">
      <g>
       <use xlink:href="#mf57c2f2732" x="759.45359" y="484.65" style="stroke: #000000; stroke-width: 0.8"/>
      </g>
     </g>
     <g id="text_5">
      <!-- 3 -->
      <g transform="translate(766.45359 495.719603) scale(0.32 -0.32)">
       <use xlink:href="#CMR17-33" transform="scale(0.996264)"/>
      </g>
     </g>
    </g>
    <g id="ytick_13">
     <g id="line2d_5">
      <g>
       <use xlink:href="#mf57c2f2732" x="759.45359" y="379.35" style="stroke: #000000; stroke-width: 0.8"/>
      </g>
     </g>
     <g id="text_6">
      <!-- 4 -->
      <g transform="translate(766.45359 390.419603) scale(0.32 -0.32)">
       <defs>
        <path id="CMR17-34" d="M 2150 4122 
C 2150 4256 2144 4256 2029 4256 
L 128 1254 
L 128 1088 
L 1779 1088 
L 1779 457 
C 1779 224 1766 160 1318 160 
L 1197 160 
L 1197 0 
C 1402 0 1747 0 1965 0 
C 2182 0 2528 0 2733 0 
L 2733 160 
L 2611 160 
C 2163 160 2150 224 2150 457 
L 2150 1088 
L 2803 1088 
L 2803 1254 
L 2150 1254 
L 2150 4122 
z
M 1798 3703 
L 1798 1254 
L 256 1254 
L 1798 3703 
z
" transform="scale(0.015625)"/>
       </defs>
       <use xlink:href="#CMR17-34" transform="scale(0.996264)"/>
      </g>
     </g>
    </g>
    <g id="ytick_14">
     <g id="line2d_6">
      <g>
       <use xlink:href="#mf57c2f2732" x="759.45359" y="274.05" style="stroke: #000000; stroke-width: 0.8"/>
      </g>
     </g>
     <g id="text_7">
      <!-- 5 -->
      <g transform="translate(766.45359 285.119603) scale(0.32 -0.32)">
       <defs>
        <path id="CMR17-35" d="M 730 3692 
C 794 3666 1056 3584 1325 3584 
C 1920 3584 2246 3911 2432 4100 
C 2432 4157 2432 4192 2394 4192 
C 2387 4192 2374 4192 2323 4163 
C 2099 4058 1837 3973 1517 3973 
C 1325 3973 1037 3999 723 4139 
C 653 4171 640 4171 634 4171 
C 602 4171 595 4164 595 4037 
L 595 2203 
C 595 2089 595 2057 659 2057 
C 691 2057 704 2070 736 2114 
C 941 2401 1222 2522 1542 2522 
C 1766 2522 2246 2382 2246 1289 
C 2246 1085 2246 715 2054 421 
C 1894 159 1645 25 1370 25 
C 947 25 518 320 403 814 
C 429 807 480 795 506 795 
C 589 795 749 840 749 1038 
C 749 1210 627 1280 506 1280 
C 358 1280 262 1190 262 1011 
C 262 454 704 -128 1382 -128 
C 2042 -128 2669 440 2669 1264 
C 2669 2030 2170 2624 1549 2624 
C 1222 2624 947 2503 730 2274 
L 730 3692 
z
" transform="scale(0.015625)"/>
       </defs>
       <use xlink:href="#CMR17-35" transform="scale(0.996264)"/>
      </g>
     </g>
    </g>
    <g id="ytick_15">
     <g id="line2d_7">
      <g>
       <use xlink:href="#mf57c2f2732" x="759.45359" y="168.75" style="stroke: #000000; stroke-width: 0.8"/>
      </g>
     </g>
     <g id="text_8">
      <!-- 6 -->
      <g transform="translate(766.45359 179.819603) scale(0.32 -0.32)">
       <defs>
        <path id="CMR17-36" d="M 678 2176 
C 678 3690 1395 4032 1811 4032 
C 1946 4032 2272 4009 2400 3776 
C 2298 3776 2106 3776 2106 3553 
C 2106 3381 2246 3323 2336 3323 
C 2394 3323 2566 3348 2566 3560 
C 2566 3954 2246 4179 1805 4179 
C 1043 4179 243 3390 243 1984 
C 243 253 966 -128 1478 -128 
C 2099 -128 2688 427 2688 1283 
C 2688 2081 2170 2662 1517 2662 
C 1126 2662 838 2407 678 1960 
L 678 2176 
z
M 1478 25 
C 691 25 691 1200 691 1436 
C 691 1896 909 2560 1504 2560 
C 1613 2560 1926 2560 2138 2120 
C 2253 1870 2253 1609 2253 1289 
C 2253 944 2253 690 2118 434 
C 1978 171 1773 25 1478 25 
z
" transform="scale(0.015625)"/>
       </defs>
       <use xlink:href="#CMR17-36" transform="scale(0.996264)"/>
      </g>
     </g>
    </g>
    <g id="ytick_16">
     <g id="line2d_8">
      <g>
       <use xlink:href="#mf57c2f2732" x="759.45359" y="63.45" style="stroke: #000000; stroke-width: 0.8"/>
      </g>
     </g>
     <g id="text_9">
      <!-- 7 -->
      <g transform="translate(766.45359 74.519603) scale(0.32 -0.32)">
       <defs>
        <path id="CMR17-37" d="M 2886 3941 
L 2886 4081 
L 1382 4081 
C 634 4081 621 4165 595 4288 
L 480 4288 
L 294 3094 
L 410 3094 
C 429 3215 474 3540 550 3661 
C 589 3712 1062 3712 1171 3712 
L 2579 3712 
L 1869 2661 
C 1395 1954 1069 999 1069 165 
C 1069 89 1069 -128 1299 -128 
C 1530 -128 1530 89 1530 171 
L 1530 465 
C 1530 1508 1709 2196 2003 2636 
L 2886 3941 
z
" transform="scale(0.015625)"/>
       </defs>
       <use xlink:href="#CMR17-37" transform="scale(0.996264)"/>
      </g>
     </g>
    </g>
    <g id="ytick_17">
     <g id="line2d_9">
      <defs>
       <path id="mfda03fad87" d="M 0 0 
L 2 0 
" style="stroke: #000000; stroke-width: 0.6"/>
      </defs>
      <g>
       <use xlink:href="#mfda03fad87" x="759.45359" y="853.2" style="stroke: #000000; stroke-width: 0.6"/>
      </g>
     </g>
    </g>
    <g id="ytick_18">
     <g id="line2d_10">
      <g>
       <use xlink:href="#mfda03fad87" x="759.45359" y="747.9" style="stroke: #000000; stroke-width: 0.6"/>
      </g>
     </g>
    </g>
    <g id="ytick_19">
     <g id="line2d_11">
      <g>
       <use xlink:href="#mfda03fad87" x="759.45359" y="642.6" style="stroke: #000000; stroke-width: 0.6"/>
      </g>
     </g>
    </g>
    <g id="ytick_20">
     <g id="line2d_12">
      <g>
       <use xlink:href="#mfda03fad87" x="759.45359" y="537.3" style="stroke: #000000; stroke-width: 0.6"/>
      </g>
     </g>
    </g>
    <g id="ytick_21">
     <g id="line2d_13">
      <g>
       <use xlink:href="#mfda03fad87" x="759.45359" y="432" style="stroke: #000000; stroke-width: 0.6"/>
      </g>
     </g>
    </g>
    <g id="ytick_22">
     <g id="line2d_14">
      <g>
       <use xlink:href="#mfda03fad87" x="759.45359" y="326.7" style="stroke: #000000; stroke-width: 0.6"/>
      </g>
     </g>
    </g>
    <g id="ytick_23">
     <g id="line2d_15">
      <g>
       <use xlink:href="#mfda03fad87" x="759.45359" y="221.4" style="stroke: #000000; stroke-width: 0.6"/>
      </g>
     </g>
    </g>
    <g id="ytick_24">
     <g id="line2d_16">
      <g>
       <use xlink:href="#mfda03fad87" x="759.45359" y="116.1" style="stroke: #000000; stroke-width: 0.6"/>
      </g>
     </g>
    </g>
    <g id="ytick_25">
     <g id="line2d_17">
      <g>
       <use xlink:href="#mfda03fad87" x="759.45359" y="10.8" style="stroke: #000000; stroke-width: 0.6"/>
      </g>
     </g>
    </g>
    <g id="text_10">
     <!-- Node Depth -->
     <g transform="translate(828.899641 543.95779) rotate(-90) scale(0.46 -0.46)">
      <defs>
       <path id="CMR17-4e" d="M 1312 4250 
C 1267 4320 1261 4320 1139 4320 
L 326 4320 
L 326 4160 
L 448 4160 
C 704 4160 819 4129 838 4122 
L 838 610 
C 838 451 838 153 326 153 
L 326 -13 
C 474 0 742 0 902 0 
C 1062 0 1331 0 1478 -13 
L 1478 153 
C 966 153 966 451 966 610 
L 966 4033 
C 1011 3995 1011 3982 1056 3919 
L 3430 76 
C 3475 0 3494 0 3526 0 
C 3590 0 3590 19 3590 139 
L 3590 3705 
C 3590 3863 3590 4160 4102 4160 
L 4102 4326 
C 3955 4320 3686 4320 3526 4320 
C 3366 4320 3098 4320 2950 4326 
L 2950 4160 
C 3462 4160 3462 3862 3462 3703 
L 3462 763 
L 1312 4250 
z
" transform="scale(0.015625)"/>
       <path id="CMR17-6f" d="M 2758 1356 
C 2758 2176 2163 2816 1466 2816 
C 768 2816 173 2176 173 1356 
C 173 551 768 -64 1466 -64 
C 2163 -64 2758 551 2758 1356 
z
M 1466 51 
C 1165 51 909 230 762 480 
C 602 767 582 1126 582 1408 
C 582 1677 595 2010 762 2298 
C 890 2509 1139 2714 1466 2714 
C 1754 2714 1997 2554 2150 2330 
C 2349 2029 2349 1607 2349 1408 
C 2349 1158 2336 775 2163 467 
C 1984 173 1709 51 1466 51 
z
" transform="scale(0.015625)"/>
       <path id="CMR17-64" d="M 1869 4326 
L 1869 4160 
C 2246 4160 2304 4122 2304 3820 
L 2304 2345 
C 2278 2377 2016 2790 1498 2790 
C 845 2790 211 2208 211 1364 
C 211 525 806 -64 1434 -64 
C 1978 -64 2259 337 2291 380 
L 2291 -63 
L 3066 -63 
L 3066 128 
C 2688 128 2630 166 2630 473 
L 2630 4396 
L 1869 4326 
z
M 2291 755 
C 2291 563 2176 390 2029 262 
C 1811 70 1594 38 1472 38 
C 1286 38 621 134 621 1356 
C 621 2612 1363 2688 1530 2688 
C 1824 2688 2061 2522 2208 2291 
C 2291 2157 2291 2138 2291 2023 
L 2291 755 
z
" transform="scale(0.015625)"/>
       <path id="CMR17-44" d="M 333 4352 
L 333 4186 
C 774 4186 845 4186 845 3900 
L 845 452 
C 845 166 774 166 333 166 
L 333 0 
L 2368 0 
C 3398 0 4224 943 4224 2141 
C 4224 3346 3411 4352 2368 4352 
L 333 4352 
z
M 1523 166 
C 1267 166 1254 197 1254 414 
L 1254 3938 
C 1254 4155 1267 4186 1523 4186 
L 2240 4186 
C 2771 4186 3750 3874 3750 2141 
C 3750 1242 3488 879 3366 707 
C 3213 510 2848 166 2240 166 
L 1523 166 
z
" transform="scale(0.015625)"/>
       <path id="CMR17-70" d="M 1408 -1063 
C 998 -1063 973 -1037 973 -789 
L 973 402 
C 1158 134 1427 -38 1766 -38 
C 2406 -38 3053 523 3053 1388 
C 3053 2191 2496 2802 1837 2802 
C 1453 2802 1139 2592 960 2338 
L 960 2802 
L 198 2732 
L 198 2567 
C 576 2567 634 2528 634 2223 
L 634 -789 
C 634 -1031 608 -1063 198 -1063 
L 198 -1228 
C 352 -1216 634 -1216 800 -1216 
C 966 -1216 1254 -1216 1408 -1228 
L 1408 -1063 
z
M 973 2012 
C 973 2102 973 2235 1222 2471 
C 1254 2497 1472 2688 1792 2688 
C 2259 2688 2643 2108 2643 1382 
C 2643 656 2234 64 1728 64 
C 1498 64 1248 172 1056 472 
C 973 612 973 650 973 752 
L 973 2012 
z
" transform="scale(0.015625)"/>
       <path id="CMR17-74" d="M 966 2560 
L 1862 2560 
L 1862 2725 
L 966 2725 
L 966 3904 
L 851 3904 
C 838 3245 614 2668 70 2668 
L 70 2560 
L 627 2560 
L 627 771 
C 627 650 627 -64 1370 -64 
C 1747 -64 1965 306 1965 777 
L 1965 1140 
L 1850 1140 
L 1850 783 
C 1850 344 1677 51 1408 51 
C 1222 51 966 178 966 758 
L 966 2560 
z
" transform="scale(0.015625)"/>
       <path id="CMR17-68" d="M 2656 1933 
C 2656 2259 2592 2790 1837 2790 
C 1312 2790 1056 2368 979 2157 
L 973 2157 
L 973 4396 
L 211 4326 
L 211 4160 
C 589 4160 646 4122 646 3817 
L 646 426 
C 646 184 621 153 211 153 
L 211 -13 
C 365 0 646 0 813 0 
C 979 0 1267 0 1421 -13 
L 1421 153 
C 1011 153 986 178 986 428 
L 986 1658 
C 986 2247 1344 2688 1792 2688 
C 2266 2688 2317 2266 2317 1958 
L 2317 428 
C 2317 184 2291 153 1882 153 
L 1882 -13 
C 2035 0 2317 0 2483 0 
C 2650 0 2938 0 3091 -13 
L 3091 153 
C 2682 153 2656 178 2656 428 
L 2656 1933 
z
" transform="scale(0.015625)"/>
      </defs>
      <use xlink:href="#CMR17-4e" transform="scale(0.996264)"/>
      <use xlink:href="#CMR17-6f" transform="translate(69.07243 0) scale(0.996264)"/>
      <use xlink:href="#CMR17-64" transform="translate(117.365346 0) scale(0.996264)"/>
      <use xlink:href="#CMR17-65" transform="translate(168.260715 0) scale(0.996264)"/>
      <use xlink:href="#CMR17-44" transform="translate(238.822342 0) scale(0.996264)"/>
      <use xlink:href="#CMR17-65" transform="translate(309.215898 0) scale(0.996264)"/>
      <use xlink:href="#CMR17-70" transform="translate(349.701559 0) scale(0.996264)"/>
      <use xlink:href="#CMR17-74" transform="translate(400.596928 0) scale(0.996264)"/>
      <use xlink:href="#CMR17-68" transform="translate(435.877696 0) scale(0.996264)"/>
     </g>
    </g>
   </g>
   <g id="LineCollection_2"/>
   <g id="patch_8">
    <path d="M 717.33359 853.2 
L 738.39359 853.2 
L 759.45359 853.2 
L 759.45359 10.8 
L 738.39359 10.8 
L 717.33359 10.8 
L 717.33359 853.2 
z
" style="fill: none; stroke: #000000; stroke-width: 0.8; stroke-linejoin: miter; stroke-linecap: square"/>
   </g>
  </g>
 </g>
 <defs>
  <clipPath id="p9839cc6d55">
   <rect x="10.8" y="99.513605" width="664.972791" height="664.972791"/>
  </clipPath>
  <clipPath id="pda295e3b2c">
   <rect x="717.33359" y="10.8" width="42.12" height="842.4"/>
  </clipPath>
 </defs>
</svg>
