<?xml version="1.0" encoding="utf-8" standalone="no"?>
<!DOCTYPE svg PUBLIC "-//W3C//DTD SVG 1.1//EN"
  "http://www.w3.org/Graphics/SVG/1.1/DTD/svg11.dtd">
<svg xmlns:xlink="http://www.w3.org/1999/xlink" width="720pt" height="432pt" viewBox="0 0 720 432" xmlns="http://www.w3.org/2000/svg" version="1.1">
 <metadata>
  <rdf:RDF xmlns:dc="http://purl.org/dc/elements/1.1/" xmlns:cc="http://creativecommons.org/ns#" xmlns:rdf="http://www.w3.org/1999/02/22-rdf-syntax-ns#">
   <cc:Work>
    <dc:type rdf:resource="http://purl.org/dc/dcmitype/StillImage"/>
    <dc:date>2026-04-30T08:41:40.506081</dc:date>
    <dc:format>image/svg+xml</dc:format>
    <dc:creator>
     <cc:Agent>
      <dc:title>Matplotlib v3.9.2, https://matplotlib.org/</dc:title>
     </cc:Agent>
    </dc:creator>
   </cc:Work>
  </rdf:RDF>
 </metadata>
 <defs>
  <style type="text/css">*{stroke-linejoin: round; stroke-linecap: butt}</style>
 </defs>
 <g id="figure_1">
  <g id="patch_1">
   <path d="M 0 432 
L 720 432 
L 720 0 
L 0 0 
z
" style="fill: #ffffff"/>
  </g>
  <g id="axes_1">
   <g id="patch_2">
    <path d="M 68.106811 370.546005 
L 651.893189 370.546005 
L 651.893189 40.711226 
L 68.106811 40.711226 
z
" style="fill: #ffffff"/>
   </g>
   <g id="PathCollection_1">
    <defs>
     <path id="m47d94d9215" d="M 0 3.162278 
C 0.838646 3.162278 1.643056 2.82908 2.236068 2.236068 
C 2.82908 1.643056 3.162278 0.838646 3.162278 0 
C 3.162278 -0.838646 2.82908 -1.643056 2.236068 -2.236068 
C 1.643056 -2.82908 0.838646 -3.162278 0 -3.162278 
C -0.838646 -3.162278 -1.643056 -2.82908 -2.236068 -2.236068 
C -2.82908 -1.643056 -3.162278 -0.838646 -3.162278 0 
C -3.162278 0.838646 -2.82908 1.643056 -2.236068 2.236068 
C -1.643056 2.82908 -0.838646 3.162278 0 3.162278 
z
" style="stroke: #ffffff; stroke-width: 0.7"/>
    </defs>
    <g clip-path="url(#p5ea2bc6c95)">
     <use xlink:href="#m47d94d9215" x="94.642556" y="341.811437" style="fill: #9c0412; stroke: #ffffff; stroke-width: 0.7"/>
     <use xlink:href="#m47d94d9215" x="100.605645" y="341.031296" style="fill: #9c0412; stroke: #ffffff; stroke-width: 0.7"/>
     <use xlink:href="#m47d94d9215" x="138.371873" y="349.977419" style="fill: #9c0412; stroke: #ffffff; stroke-width: 0.7"/>
     <use xlink:href="#m47d94d9215" x="160.236531" y="353.985337" style="fill: #9c0412; stroke: #ffffff; stroke-width: 0.7"/>
     <use xlink:href="#m47d94d9215" x="162.224227" y="355.553515" style="fill: #9c0412; stroke: #ffffff; stroke-width: 0.7"/>
     <use xlink:href="#m47d94d9215" x="166.199619" y="340.721367" style="fill: #9c0412; stroke: #ffffff; stroke-width: 0.7"/>
     <use xlink:href="#m47d94d9215" x="196.015063" y="333.552681" style="fill: #9c0412; stroke: #ffffff; stroke-width: 0.7"/>
     <use xlink:href="#m47d94d9215" x="201.978151" y="325.302016" style="fill: #9c0412; stroke: #ffffff; stroke-width: 0.7"/>
     <use xlink:href="#m47d94d9215" x="207.94124" y="333.906847" style="fill: #9c0412; stroke: #ffffff; stroke-width: 0.7"/>
     <use xlink:href="#m47d94d9215" x="221.855113" y="323.475207" style="fill: #9c0412; stroke: #ffffff; stroke-width: 0.7"/>
     <use xlink:href="#m47d94d9215" x="229.805898" y="323.04046" style="fill: #9c0412; stroke: #ffffff; stroke-width: 0.7"/>
     <use xlink:href="#m47d94d9215" x="235.768987" y="302.27622" style="fill: #9c0412; stroke: #ffffff; stroke-width: 0.7"/>
     <use xlink:href="#m47d94d9215" x="245.707468" y="302.610992" style="fill: #9c0412; stroke: #ffffff; stroke-width: 0.7"/>
     <use xlink:href="#m47d94d9215" x="249.68286" y="317.421283" style="fill: #9c0412; stroke: #ffffff; stroke-width: 0.7"/>
     <use xlink:href="#m47d94d9215" x="259.621341" y="284.207119" style="fill: #9c0412; stroke: #ffffff; stroke-width: 0.7"/>
     <use xlink:href="#m47d94d9215" x="303.350658" y="280.092998" style="fill: #9c0412; stroke: #ffffff; stroke-width: 0.7"/>
     <use xlink:href="#m47d94d9215" x="357.018456" y="266.753521" style="fill: #9c0412; stroke: #ffffff; stroke-width: 0.7"/>
     <use xlink:href="#m47d94d9215" x="368.944633" y="264.079689" style="fill: #9c0412; stroke: #ffffff; stroke-width: 0.7"/>
     <use xlink:href="#m47d94d9215" x="372.920025" y="266.235806" style="fill: #9c0412; stroke: #ffffff; stroke-width: 0.7"/>
     <use xlink:href="#m47d94d9215" x="380.87081" y="265.691281" style="fill: #9c0412; stroke: #ffffff; stroke-width: 0.7"/>
     <use xlink:href="#m47d94d9215" x="388.821595" y="250.354217" style="fill: #9c0412; stroke: #ffffff; stroke-width: 0.7"/>
     <use xlink:href="#m47d94d9215" x="392.796987" y="199.369642" style="fill: #9c0412; stroke: #ffffff; stroke-width: 0.7"/>
     <use xlink:href="#m47d94d9215" x="400.747772" y="196.371817" style="fill: #9c0412; stroke: #ffffff; stroke-width: 0.7"/>
     <use xlink:href="#m47d94d9215" x="404.723165" y="192.658959" style="fill: #9c0412; stroke: #ffffff; stroke-width: 0.7"/>
     <use xlink:href="#m47d94d9215" x="408.698557" y="189.899209" style="fill: #9c0412; stroke: #ffffff; stroke-width: 0.7"/>
     <use xlink:href="#m47d94d9215" x="410.686253" y="188.92727" style="fill: #9c0412; stroke: #ffffff; stroke-width: 0.7"/>
     <use xlink:href="#m47d94d9215" x="414.661646" y="187.50254" style="fill: #9c0412; stroke: #ffffff; stroke-width: 0.7"/>
     <use xlink:href="#m47d94d9215" x="416.649342" y="185.055291" style="fill: #9c0412; stroke: #ffffff; stroke-width: 0.7"/>
     <use xlink:href="#m47d94d9215" x="424.600127" y="185.022434" style="fill: #9c0412; stroke: #ffffff; stroke-width: 0.7"/>
     <use xlink:href="#m47d94d9215" x="428.575519" y="185.715301" style="fill: #9c0412; stroke: #ffffff; stroke-width: 0.7"/>
     <use xlink:href="#m47d94d9215" x="434.538608" y="183.139532" style="fill: #9c0412; stroke: #ffffff; stroke-width: 0.7"/>
     <use xlink:href="#m47d94d9215" x="452.427874" y="180.354776" style="fill: #9c0412; stroke: #ffffff; stroke-width: 0.7"/>
     <use xlink:href="#m47d94d9215" x="466.341747" y="156.731024" style="fill: #9c0412; stroke: #ffffff; stroke-width: 0.7"/>
     <use xlink:href="#m47d94d9215" x="482.243317" y="169.717485" style="fill: #9c0412; stroke: #ffffff; stroke-width: 0.7"/>
     <use xlink:href="#m47d94d9215" x="492.181798" y="167.437241" style="fill: #9c0412; stroke: #ffffff; stroke-width: 0.7"/>
     <use xlink:href="#m47d94d9215" x="512.05876" y="165.34011" style="fill: #9c0412; stroke: #ffffff; stroke-width: 0.7"/>
     <use xlink:href="#m47d94d9215" x="523.984937" y="164.743657" style="fill: #9c0412; stroke: #ffffff; stroke-width: 0.7"/>
     <use xlink:href="#m47d94d9215" x="547.837292" y="131.170485" style="fill: #9c0412; stroke: #ffffff; stroke-width: 0.7"/>
     <use xlink:href="#m47d94d9215" x="571.689646" y="129.839474" style="fill: #9c0412; stroke: #ffffff; stroke-width: 0.7"/>
     <use xlink:href="#m47d94d9215" x="587.591216" y="82.39209" style="fill: #9c0412; stroke: #ffffff; stroke-width: 0.7"/>
     <use xlink:href="#m47d94d9215" x="603.492786" y="77.053624" style="fill: #9c0412; stroke: #ffffff; stroke-width: 0.7"/>
     <use xlink:href="#m47d94d9215" x="607.468178" y="71.883737" style="fill: #9c0412; stroke: #ffffff; stroke-width: 0.7"/>
     <use xlink:href="#m47d94d9215" x="621.382052" y="56.913451" style="fill: #9c0412; stroke: #ffffff; stroke-width: 0.7"/>
     <use xlink:href="#m47d94d9215" x="625.357444" y="55.703716" style="fill: #9c0412; stroke: #ffffff; stroke-width: 0.7"/>
    </g>
   </g>
   <g id="matplotlib.axis_1">
    <g id="xtick_1">
     <g id="line2d_1">
      <defs>
       <path id="m01c208dce2" d="M 0 0 
L 0 3.5 
" style="stroke: #000000; stroke-width: 0.8"/>
      </defs>
      <g>
       <use xlink:href="#m01c208dce2" x="70.790201" y="370.546005" style="stroke: #000000; stroke-width: 0.8"/>
      </g>
     </g>
     <g id="text_1">
      <!-- $\mathdefault{1740}$ -->
      <g transform="translate(54.34163 389.999305) scale(0.18 -0.18)">
       <defs>
        <path id="CMR17-31" d="M 1702 4058 
C 1702 4192 1696 4192 1606 4192 
C 1357 3916 979 3827 621 3827 
C 602 3827 570 3827 563 3808 
C 557 3795 557 3782 557 3648 
C 755 3648 1088 3686 1344 3839 
L 1344 461 
C 1344 236 1331 160 781 160 
L 589 160 
L 589 0 
C 896 0 1216 0 1523 0 
C 1830 0 2150 0 2458 0 
L 2458 160 
L 2266 160 
C 1715 160 1702 230 1702 458 
L 1702 4058 
z
" transform="scale(0.015625)"/>
        <path id="CMR17-37" d="M 2886 3941 
L 2886 4081 
L 1382 4081 
C 634 4081 621 4165 595 4288 
L 480 4288 
L 294 3094 
L 410 3094 
C 429 3215 474 3540 550 3661 
C 589 3712 1062 3712 1171 3712 
L 2579 3712 
L 1869 2661 
C 1395 1954 1069 999 1069 165 
C 1069 89 1069 -128 1299 -128 
C 1530 -128 1530 89 1530 171 
L 1530 465 
C 1530 1508 1709 2196 2003 2636 
L 2886 3941 
z
" transform="scale(0.015625)"/>
        <path id="CMR17-34" d="M 2150 4122 
C 2150 4256 2144 4256 2029 4256 
L 128 1254 
L 128 1088 
L 1779 1088 
L 1779 457 
C 1779 224 1766 160 1318 160 
L 1197 160 
L 1197 0 
C 1402 0 1747 0 1965 0 
C 2182 0 2528 0 2733 0 
L 2733 160 
L 2611 160 
C 2163 160 2150 224 2150 457 
L 2150 1088 
L 2803 1088 
L 2803 1254 
L 2150 1254 
L 2150 4122 
z
M 1798 3703 
L 1798 1254 
L 256 1254 
L 1798 3703 
z
" transform="scale(0.015625)"/>
        <path id="CMR17-30" d="M 2688 2025 
C 2688 2416 2682 3080 2413 3591 
C 2176 4039 1798 4198 1466 4198 
C 1158 4198 768 4058 525 3597 
C 269 3118 243 2524 243 2025 
C 243 1661 250 1106 448 619 
C 723 -39 1216 -128 1466 -128 
C 1760 -128 2208 -7 2470 600 
C 2662 1042 2688 1559 2688 2025 
z
M 1466 -26 
C 1056 -26 813 325 723 812 
C 653 1188 653 1738 653 2096 
C 653 2588 653 2997 736 3387 
C 858 3929 1216 4096 1466 4096 
C 1728 4096 2067 3923 2189 3400 
C 2272 3036 2278 2607 2278 2096 
C 2278 1680 2278 1169 2202 792 
C 2067 95 1690 -26 1466 -26 
z
" transform="scale(0.015625)"/>
       </defs>
       <use xlink:href="#CMR17-31" transform="scale(0.996264)"/>
       <use xlink:href="#CMR17-37" transform="translate(45.690477 0) scale(0.996264)"/>
       <use xlink:href="#CMR17-34" transform="translate(91.380954 0) scale(0.996264)"/>
       <use xlink:href="#CMR17-30" transform="translate(137.071431 0) scale(0.996264)"/>
      </g>
     </g>
    </g>
    <g id="xtick_2">
     <g id="line2d_2">
      <g>
       <use xlink:href="#m01c208dce2" x="130.421088" y="370.546005" style="stroke: #000000; stroke-width: 0.8"/>
      </g>
     </g>
     <g id="text_2">
      <!-- $\mathdefault{1770}$ -->
      <g transform="translate(113.972516 389.999305) scale(0.18 -0.18)">
       <use xlink:href="#CMR17-31" transform="scale(0.996264)"/>
       <use xlink:href="#CMR17-37" transform="translate(45.690477 0) scale(0.996264)"/>
       <use xlink:href="#CMR17-37" transform="translate(91.380954 0) scale(0.996264)"/>
       <use xlink:href="#CMR17-30" transform="translate(137.071431 0) scale(0.996264)"/>
      </g>
     </g>
    </g>
    <g id="xtick_3">
     <g id="line2d_3">
      <g>
       <use xlink:href="#m01c208dce2" x="190.051974" y="370.546005" style="stroke: #000000; stroke-width: 0.8"/>
      </g>
     </g>
     <g id="text_3">
      <!-- $\mathdefault{1800}$ -->
      <g transform="translate(173.603402 389.999305) scale(0.18 -0.18)">
       <defs>
        <path id="CMR17-38" d="M 1741 2264 
C 2144 2467 2554 2773 2554 3263 
C 2554 3841 1990 4179 1472 4179 
C 890 4179 378 3759 378 3180 
C 378 3021 416 2747 666 2505 
C 730 2442 998 2251 1171 2130 
C 883 1983 211 1634 211 934 
C 211 279 838 -128 1459 -128 
C 2144 -128 2720 362 2720 1010 
C 2720 1590 2330 1857 2074 2029 
L 1741 2264 
z
M 902 2822 
C 851 2854 595 3051 595 3351 
C 595 3739 998 4032 1459 4032 
C 1965 4032 2336 3676 2336 3262 
C 2336 2669 1670 2331 1638 2331 
C 1632 2331 1626 2331 1574 2370 
L 902 2822 
z
M 2080 1519 
C 2176 1449 2483 1240 2483 851 
C 2483 381 2010 25 1472 25 
C 890 25 448 438 448 940 
C 448 1443 838 1862 1280 2060 
L 2080 1519 
z
" transform="scale(0.015625)"/>
       </defs>
       <use xlink:href="#CMR17-31" transform="scale(0.996264)"/>
       <use xlink:href="#CMR17-38" transform="translate(45.690477 0) scale(0.996264)"/>
       <use xlink:href="#CMR17-30" transform="translate(91.380954 0) scale(0.996264)"/>
       <use xlink:href="#CMR17-30" transform="translate(137.071431 0) scale(0.996264)"/>
      </g>
     </g>
    </g>
    <g id="xtick_4">
     <g id="line2d_4">
      <g>
       <use xlink:href="#m01c208dce2" x="249.68286" y="370.546005" style="stroke: #000000; stroke-width: 0.8"/>
      </g>
     </g>
     <g id="text_4">
      <!-- $\mathdefault{1830}$ -->
      <g transform="translate(233.234289 389.999305) scale(0.18 -0.18)">
       <defs>
        <path id="CMR17-33" d="M 1414 2157 
C 1984 2157 2234 1662 2234 1090 
C 2234 320 1824 25 1453 25 
C 1114 25 563 194 390 693 
C 422 680 454 680 486 680 
C 640 680 755 782 755 948 
C 755 1133 614 1216 486 1216 
C 378 1216 211 1165 211 926 
C 211 335 787 -128 1466 -128 
C 2176 -128 2720 430 2720 1085 
C 2720 1707 2208 2157 1600 2227 
C 2086 2328 2554 2756 2554 3329 
C 2554 3820 2048 4179 1472 4179 
C 890 4179 378 3829 378 3329 
C 378 3110 544 3072 627 3072 
C 762 3072 877 3155 877 3321 
C 877 3486 762 3569 627 3569 
C 602 3569 570 3569 544 3557 
C 730 3959 1235 4032 1459 4032 
C 1683 4032 2106 3925 2106 3320 
C 2106 3143 2080 2828 1862 2550 
C 1670 2304 1453 2304 1242 2284 
C 1210 2284 1062 2269 1037 2269 
C 992 2263 966 2257 966 2208 
C 966 2163 973 2157 1101 2157 
L 1414 2157 
z
" transform="scale(0.015625)"/>
       </defs>
       <use xlink:href="#CMR17-31" transform="scale(0.996264)"/>
       <use xlink:href="#CMR17-38" transform="translate(45.690477 0) scale(0.996264)"/>
       <use xlink:href="#CMR17-33" transform="translate(91.380954 0) scale(0.996264)"/>
       <use xlink:href="#CMR17-30" transform="translate(137.071431 0) scale(0.996264)"/>
      </g>
     </g>
    </g>
    <g id="xtick_5">
     <g id="line2d_5">
      <g>
       <use xlink:href="#m01c208dce2" x="309.313747" y="370.546005" style="stroke: #000000; stroke-width: 0.8"/>
      </g>
     </g>
     <g id="text_5">
      <!-- $\mathdefault{1860}$ -->
      <g transform="translate(292.865175 389.999305) scale(0.18 -0.18)">
       <defs>
        <path id="CMR17-36" d="M 678 2176 
C 678 3690 1395 4032 1811 4032 
C 1946 4032 2272 4009 2400 3776 
C 2298 3776 2106 3776 2106 3553 
C 2106 3381 2246 3323 2336 3323 
C 2394 3323 2566 3348 2566 3560 
C 2566 3954 2246 4179 1805 4179 
C 1043 4179 243 3390 243 1984 
C 243 253 966 -128 1478 -128 
C 2099 -128 2688 427 2688 1283 
C 2688 2081 2170 2662 1517 2662 
C 1126 2662 838 2407 678 1960 
L 678 2176 
z
M 1478 25 
C 691 25 691 1200 691 1436 
C 691 1896 909 2560 1504 2560 
C 1613 2560 1926 2560 2138 2120 
C 2253 1870 2253 1609 2253 1289 
C 2253 944 2253 690 2118 434 
C 1978 171 1773 25 1478 25 
z
" transform="scale(0.015625)"/>
       </defs>
       <use xlink:href="#CMR17-31" transform="scale(0.996264)"/>
       <use xlink:href="#CMR17-38" transform="translate(45.690477 0) scale(0.996264)"/>
       <use xlink:href="#CMR17-36" transform="translate(91.380954 0) scale(0.996264)"/>
       <use xlink:href="#CMR17-30" transform="translate(137.071431 0) scale(0.996264)"/>
      </g>
     </g>
    </g>
    <g id="xtick_6">
     <g id="line2d_6">
      <g>
       <use xlink:href="#m01c208dce2" x="368.944633" y="370.546005" style="stroke: #000000; stroke-width: 0.8"/>
      </g>
     </g>
     <g id="text_6">
      <!-- $\mathdefault{1890}$ -->
      <g transform="translate(352.496061 389.999305) scale(0.18 -0.18)">
       <defs>
        <path id="CMR17-39" d="M 2253 1864 
C 2253 464 1670 31 1190 31 
C 1043 31 685 31 538 294 
C 704 268 826 357 826 518 
C 826 692 685 749 595 749 
C 538 749 365 723 365 506 
C 365 71 742 -128 1203 -128 
C 1939 -128 2688 674 2688 2073 
C 2688 3817 1971 4179 1485 4179 
C 851 4179 243 3628 243 2778 
C 243 1991 762 1408 1414 1408 
C 1952 1408 2189 1903 2253 2112 
L 2253 1864 
z
M 1427 1510 
C 1254 1510 1011 1542 813 1922 
C 678 2169 678 2461 678 2771 
C 678 3146 678 3405 858 3684 
C 947 3817 1114 4032 1485 4032 
C 2240 4032 2240 2885 2240 2632 
C 2240 2182 2035 1510 1427 1510 
z
" transform="scale(0.015625)"/>
       </defs>
       <use xlink:href="#CMR17-31" transform="scale(0.996264)"/>
       <use xlink:href="#CMR17-38" transform="translate(45.690477 0) scale(0.996264)"/>
       <use xlink:href="#CMR17-39" transform="translate(91.380954 0) scale(0.996264)"/>
       <use xlink:href="#CMR17-30" transform="translate(137.071431 0) scale(0.996264)"/>
      </g>
     </g>
    </g>
    <g id="xtick_7">
     <g id="line2d_7">
      <g>
       <use xlink:href="#m01c208dce2" x="428.575519" y="370.546005" style="stroke: #000000; stroke-width: 0.8"/>
      </g>
     </g>
     <g id="text_7">
      <!-- $\mathdefault{1920}$ -->
      <g transform="translate(412.126947 389.999305) scale(0.18 -0.18)">
       <defs>
        <path id="CMR17-32" d="M 2669 989 
L 2554 989 
C 2490 536 2438 459 2413 420 
C 2381 369 1920 369 1830 369 
L 602 369 
C 832 619 1280 1072 1824 1597 
C 2214 1967 2669 2402 2669 3035 
C 2669 3790 2067 4224 1395 4224 
C 691 4224 262 3604 262 3030 
C 262 2780 448 2748 525 2748 
C 589 2748 781 2787 781 3010 
C 781 3207 614 3264 525 3264 
C 486 3264 448 3258 422 3245 
C 544 3790 915 4058 1306 4058 
C 1862 4058 2227 3617 2227 3035 
C 2227 2479 1901 2000 1536 1584 
L 262 146 
L 262 0 
L 2515 0 
L 2669 989 
z
" transform="scale(0.015625)"/>
       </defs>
       <use xlink:href="#CMR17-31" transform="scale(0.996264)"/>
       <use xlink:href="#CMR17-39" transform="translate(45.690477 0) scale(0.996264)"/>
       <use xlink:href="#CMR17-32" transform="translate(91.380954 0) scale(0.996264)"/>
       <use xlink:href="#CMR17-30" transform="translate(137.071431 0) scale(0.996264)"/>
      </g>
     </g>
    </g>
    <g id="xtick_8">
     <g id="line2d_8">
      <g>
       <use xlink:href="#m01c208dce2" x="488.206406" y="370.546005" style="stroke: #000000; stroke-width: 0.8"/>
      </g>
     </g>
     <g id="text_8">
      <!-- $\mathdefault{1950}$ -->
      <g transform="translate(471.757834 389.999305) scale(0.18 -0.18)">
       <defs>
        <path id="CMR17-35" d="M 730 3692 
C 794 3666 1056 3584 1325 3584 
C 1920 3584 2246 3911 2432 4100 
C 2432 4157 2432 4192 2394 4192 
C 2387 4192 2374 4192 2323 4163 
C 2099 4058 1837 3973 1517 3973 
C 1325 3973 1037 3999 723 4139 
C 653 4171 640 4171 634 4171 
C 602 4171 595 4164 595 4037 
L 595 2203 
C 595 2089 595 2057 659 2057 
C 691 2057 704 2070 736 2114 
C 941 2401 1222 2522 1542 2522 
C 1766 2522 2246 2382 2246 1289 
C 2246 1085 2246 715 2054 421 
C 1894 159 1645 25 1370 25 
C 947 25 518 320 403 814 
C 429 807 480 795 506 795 
C 589 795 749 840 749 1038 
C 749 1210 627 1280 506 1280 
C 358 1280 262 1190 262 1011 
C 262 454 704 -128 1382 -128 
C 2042 -128 2669 440 2669 1264 
C 2669 2030 2170 2624 1549 2624 
C 1222 2624 947 2503 730 2274 
L 730 3692 
z
" transform="scale(0.015625)"/>
       </defs>
       <use xlink:href="#CMR17-31" transform="scale(0.996264)"/>
       <use xlink:href="#CMR17-39" transform="translate(45.690477 0) scale(0.996264)"/>
       <use xlink:href="#CMR17-35" transform="translate(91.380954 0) scale(0.996264)"/>
       <use xlink:href="#CMR17-30" transform="translate(137.071431 0) scale(0.996264)"/>
      </g>
     </g>
    </g>
    <g id="xtick_9">
     <g id="line2d_9">
      <g>
       <use xlink:href="#m01c208dce2" x="547.837292" y="370.546005" style="stroke: #000000; stroke-width: 0.8"/>
      </g>
     </g>
     <g id="text_9">
      <!-- $\mathdefault{1980}$ -->
      <g transform="translate(531.38872 389.999305) scale(0.18 -0.18)">
       <use xlink:href="#CMR17-31" transform="scale(0.996264)"/>
       <use xlink:href="#CMR17-39" transform="translate(45.690477 0) scale(0.996264)"/>
       <use xlink:href="#CMR17-38" transform="translate(91.380954 0) scale(0.996264)"/>
       <use xlink:href="#CMR17-30" transform="translate(137.071431 0) scale(0.996264)"/>
      </g>
     </g>
    </g>
    <g id="xtick_10">
     <g id="line2d_10">
      <g>
       <use xlink:href="#m01c208dce2" x="607.468178" y="370.546005" style="stroke: #000000; stroke-width: 0.8"/>
      </g>
     </g>
     <g id="text_10">
      <!-- $\mathdefault{2010}$ -->
      <g transform="translate(591.019606 389.999305) scale(0.18 -0.18)">
       <use xlink:href="#CMR17-32" transform="scale(0.996264)"/>
       <use xlink:href="#CMR17-30" transform="translate(45.690477 0) scale(0.996264)"/>
       <use xlink:href="#CMR17-31" transform="translate(91.380954 0) scale(0.996264)"/>
       <use xlink:href="#CMR17-30" transform="translate(137.071431 0) scale(0.996264)"/>
      </g>
     </g>
    </g>
    <g id="text_11">
     <!-- Year -->
     <g transform="translate(341.7278 417.324366) scale(0.2 -0.2)">
      <defs>
       <path id="CMR17-59" d="M 3706 3766 
C 3955 4160 4301 4160 4416 4160 
L 4416 4332 
C 4269 4319 4102 4319 3942 4319 
C 3782 4319 3526 4319 3373 4332 
L 3373 4160 
C 3533 4160 3616 4077 3616 3957 
C 3616 3881 3584 3830 3533 3747 
L 2381 1912 
L 1120 3912 
C 1075 3988 1069 3994 1069 4039 
C 1069 4160 1293 4160 1382 4160 
L 1382 4319 
C 1178 4319 864 4319 653 4319 
C 486 4319 166 4319 13 4332 
L 13 4160 
C 378 4160 480 4141 595 3958 
L 2010 1728 
L 2010 445 
C 2010 160 1939 160 1498 160 
L 1498 0 
C 1683 0 2016 0 2214 0 
C 2413 0 2752 0 2938 0 
L 2938 160 
C 2477 160 2419 160 2419 471 
L 2419 1728 
L 3706 3766 
z
" transform="scale(0.015625)"/>
       <path id="CMR17-65" d="M 2438 1472 
C 2464 1498 2464 1511 2464 1576 
C 2464 2238 2118 2816 1389 2816 
C 710 2816 173 2169 173 1383 
C 173 551 781 -64 1459 -64 
C 2176 -64 2458 607 2458 740 
C 2458 784 2419 784 2406 784 
C 2362 784 2355 771 2330 696 
C 2189 265 1837 51 1504 51 
C 1229 51 954 203 781 480 
C 582 803 582 1176 582 1472 
L 2438 1472 
z
M 589 1568 
C 634 2505 1126 2714 1382 2714 
C 1818 2714 2112 2297 2118 1568 
L 589 1568 
z
" transform="scale(0.015625)"/>
       <path id="CMR17-61" d="M 2304 1653 
C 2304 2072 2304 2294 2035 2543 
C 1798 2752 1523 2816 1306 2816 
C 800 2816 435 2407 435 1971 
C 435 1728 627 1728 666 1728 
C 749 1728 896 1778 896 1954 
C 896 2112 774 2181 666 2181 
C 640 2181 608 2174 589 2168 
C 723 2592 1069 2714 1293 2714 
C 1613 2714 1965 2429 1965 1885 
L 1965 1600 
C 1587 1600 1133 1549 774 1357 
C 371 1133 256 813 256 570 
C 256 77 832 -64 1171 -64 
C 1523 -64 1850 139 1990 511 
C 2003 233 2182 -18 2464 -18 
C 2598 -18 2938 70 2938 567 
L 2938 920 
L 2822 920 
L 2822 562 
C 2822 178 2650 128 2566 128 
C 2304 128 2304 458 2304 738 
L 2304 1653 
z
M 1965 870 
C 1965 317 1568 38 1216 38 
C 896 38 646 275 646 570 
C 646 761 730 1100 1101 1305 
C 1408 1478 1760 1504 1965 1504 
L 1965 870 
z
" transform="scale(0.015625)"/>
       <path id="CMR17-72" d="M 960 1497 
C 960 2112 1222 2688 1702 2688 
C 1747 2688 1792 2682 1837 2662 
C 1837 2662 1696 2617 1696 2452 
C 1696 2298 1818 2234 1914 2234 
C 1990 2234 2131 2279 2131 2458 
C 2131 2663 1926 2790 1709 2790 
C 1222 2790 1011 2317 947 2093 
L 941 2093 
L 941 2790 
L 198 2720 
L 198 2554 
C 576 2554 634 2515 634 2208 
L 634 428 
C 634 184 608 153 198 153 
L 198 -13 
C 352 0 646 0 813 0 
C 998 0 1325 0 1498 -13 
L 1498 153 
C 1037 153 960 153 960 440 
L 960 1497 
z
" transform="scale(0.015625)"/>
      </defs>
      <use xlink:href="#CMR17-59" transform="scale(0.996264)"/>
      <use xlink:href="#CMR17-65" transform="translate(61.265174 0) scale(0.996264)"/>
      <use xlink:href="#CMR17-61" transform="translate(101.750835 0) scale(0.996264)"/>
      <use xlink:href="#CMR17-72" transform="translate(147.441312 0) scale(0.996264)"/>
     </g>
    </g>
   </g>
   <g id="matplotlib.axis_2">
    <g id="ytick_1">
     <g id="line2d_11">
      <defs>
       <path id="m4aef3a2c35" d="M 0 0 
L -3.5 0 
" style="stroke: #9c0412; stroke-width: 0.8"/>
      </defs>
      <g>
       <use xlink:href="#m4aef3a2c35" x="68.106811" y="343.075776" style="fill: #9c0412; stroke: #9c0412; stroke-width: 0.8"/>
      </g>
     </g>
     <g id="text_12">
      <!-- $\mathdefault{10^{3}}$ -->
      <g style="fill: #9c0412" transform="translate(38.51263 349.302426) scale(0.18 -0.18)">
       <use xlink:href="#CMR17-31" transform="scale(0.996264)"/>
       <use xlink:href="#CMR17-30" transform="translate(45.690477 0) scale(0.996264)"/>
       <use xlink:href="#CMR17-33" transform="translate(91.380954 36.153639) scale(0.697382)"/>
      </g>
     </g>
    </g>
    <g id="ytick_2">
     <g id="line2d_12">
      <g>
       <use xlink:href="#m4aef3a2c35" x="68.106811" y="159.670996" style="fill: #9c0412; stroke: #9c0412; stroke-width: 0.8"/>
      </g>
     </g>
     <g id="text_13">
      <!-- $\mathdefault{10^{4}}$ -->
      <g style="fill: #9c0412" transform="translate(38.51263 165.897646) scale(0.18 -0.18)">
       <use xlink:href="#CMR17-31" transform="scale(0.996264)"/>
       <use xlink:href="#CMR17-30" transform="translate(45.690477 0) scale(0.996264)"/>
       <use xlink:href="#CMR17-34" transform="translate(91.380954 36.153639) scale(0.697382)"/>
      </g>
     </g>
    </g>
    <g id="ytick_3">
     <g id="line2d_13">
      <defs>
       <path id="m075753775f" d="M 0 0 
L -2 0 
" style="stroke: #000000; stroke-width: 0.6"/>
      </defs>
      <g>
       <use xlink:href="#m075753775f" x="68.106811" y="360.849535" style="stroke: #000000; stroke-width: 0.6"/>
      </g>
     </g>
    </g>
    <g id="ytick_4">
     <g id="line2d_14">
      <g>
       <use xlink:href="#m075753775f" x="68.106811" y="351.467918" style="stroke: #000000; stroke-width: 0.6"/>
      </g>
     </g>
    </g>
    <g id="ytick_5">
     <g id="line2d_15">
      <g>
       <use xlink:href="#m075753775f" x="68.106811" y="287.865436" style="stroke: #000000; stroke-width: 0.6"/>
      </g>
     </g>
    </g>
    <g id="ytick_6">
     <g id="line2d_16">
      <g>
       <use xlink:href="#m075753775f" x="68.106811" y="255.569457" style="stroke: #000000; stroke-width: 0.6"/>
      </g>
     </g>
    </g>
    <g id="ytick_7">
     <g id="line2d_17">
      <g>
       <use xlink:href="#m075753775f" x="68.106811" y="232.655095" style="stroke: #000000; stroke-width: 0.6"/>
      </g>
     </g>
    </g>
    <g id="ytick_8">
     <g id="line2d_18">
      <g>
       <use xlink:href="#m075753775f" x="68.106811" y="214.881336" style="stroke: #000000; stroke-width: 0.6"/>
      </g>
     </g>
    </g>
    <g id="ytick_9">
     <g id="line2d_19">
      <g>
       <use xlink:href="#m075753775f" x="68.106811" y="200.359117" style="stroke: #000000; stroke-width: 0.6"/>
      </g>
     </g>
    </g>
    <g id="ytick_10">
     <g id="line2d_20">
      <g>
       <use xlink:href="#m075753775f" x="68.106811" y="188.080756" style="stroke: #000000; stroke-width: 0.6"/>
      </g>
     </g>
    </g>
    <g id="ytick_11">
     <g id="line2d_21">
      <g>
       <use xlink:href="#m075753775f" x="68.106811" y="177.444755" style="stroke: #000000; stroke-width: 0.6"/>
      </g>
     </g>
    </g>
    <g id="ytick_12">
     <g id="line2d_22">
      <g>
       <use xlink:href="#m075753775f" x="68.106811" y="168.063138" style="stroke: #000000; stroke-width: 0.6"/>
      </g>
     </g>
    </g>
    <g id="ytick_13">
     <g id="line2d_23">
      <g>
       <use xlink:href="#m075753775f" x="68.106811" y="104.460656" style="stroke: #000000; stroke-width: 0.6"/>
      </g>
     </g>
    </g>
    <g id="ytick_14">
     <g id="line2d_24">
      <g>
       <use xlink:href="#m075753775f" x="68.106811" y="72.164677" style="stroke: #000000; stroke-width: 0.6"/>
      </g>
     </g>
    </g>
    <g id="ytick_15">
     <g id="line2d_25">
      <g>
       <use xlink:href="#m075753775f" x="68.106811" y="49.250316" style="stroke: #000000; stroke-width: 0.6"/>
      </g>
     </g>
    </g>
    <g id="text_14">
     <!-- Number of Words -->
     <g style="fill: #9c0412" transform="translate(24.636997 276.810833) rotate(-90) scale(0.2 -0.2)">
      <defs>
       <path id="CMR17-4e" d="M 1312 4250 
C 1267 4320 1261 4320 1139 4320 
L 326 4320 
L 326 4160 
L 448 4160 
C 704 4160 819 4129 838 4122 
L 838 610 
C 838 451 838 153 326 153 
L 326 -13 
C 474 0 742 0 902 0 
C 1062 0 1331 0 1478 -13 
L 1478 153 
C 966 153 966 451 966 610 
L 966 4033 
C 1011 3995 1011 3982 1056 3919 
L 3430 76 
C 3475 0 3494 0 3526 0 
C 3590 0 3590 19 3590 139 
L 3590 3705 
C 3590 3863 3590 4160 4102 4160 
L 4102 4326 
C 3955 4320 3686 4320 3526 4320 
C 3366 4320 3098 4320 2950 4326 
L 2950 4160 
C 3462 4160 3462 3862 3462 3703 
L 3462 763 
L 1312 4250 
z
" transform="scale(0.015625)"/>
       <path id="CMR17-75" d="M 1882 2693 
L 1882 2528 
C 2259 2528 2317 2489 2317 2186 
L 2317 1032 
C 2317 500 2029 38 1555 38 
C 1030 38 986 348 986 678 
L 986 2763 
L 211 2693 
L 211 2528 
C 467 2528 640 2528 646 2274 
L 646 1058 
C 646 633 646 361 813 183 
C 896 101 1056 -64 1517 -64 
C 2061 -64 2272 377 2323 506 
L 2330 506 
L 2330 -63 
L 3091 -63 
L 3091 128 
C 2714 128 2656 166 2656 473 
L 2656 2763 
L 1882 2693 
z
" transform="scale(0.015625)"/>
       <path id="CMR17-6d" d="M 4326 1933 
C 4326 2252 4269 2790 3507 2790 
C 3072 2790 2771 2496 2656 2151 
L 2650 2151 
C 2573 2676 2195 2790 1837 2790 
C 1331 2790 1069 2400 973 2144 
L 966 2144 
L 966 2790 
L 211 2720 
L 211 2554 
C 589 2554 646 2515 646 2208 
L 646 428 
C 646 184 621 153 211 153 
L 211 -13 
C 365 0 646 0 813 0 
C 979 0 1267 0 1421 -13 
L 1421 153 
C 1011 153 986 178 986 428 
L 986 1658 
C 986 2247 1344 2688 1792 2688 
C 2266 2688 2317 2266 2317 1958 
L 2317 428 
C 2317 184 2291 153 1882 153 
L 1882 -13 
C 2035 0 2317 0 2483 0 
C 2650 0 2938 0 3091 -13 
L 3091 153 
C 2682 153 2656 178 2656 428 
L 2656 1658 
C 2656 2247 3014 2688 3462 2688 
C 3936 2688 3987 2266 3987 1958 
L 3987 428 
C 3987 184 3962 153 3552 153 
L 3552 -13 
C 3706 0 3987 0 4154 0 
C 4320 0 4608 0 4762 -13 
L 4762 153 
C 4352 153 4326 178 4326 428 
L 4326 1933 
z
" transform="scale(0.015625)"/>
       <path id="CMR17-62" d="M 960 4396 
L 198 4326 
L 198 4160 
C 576 4160 634 4122 634 3817 
L 634 -13 
L 749 -13 
L 934 441 
C 1120 141 1395 -64 1766 -64 
C 2406 -64 3053 500 3053 1370 
C 3053 2188 2477 2790 1830 2790 
C 1434 2790 1152 2579 960 2330 
L 960 4396 
z
M 973 2004 
C 973 2118 973 2138 1062 2272 
C 1312 2657 1670 2688 1792 2688 
C 1984 2688 2643 2585 2643 1376 
C 2643 108 1888 38 1734 38 
C 1536 38 1248 114 1043 486 
C 973 608 973 621 973 735 
L 973 2004 
z
" transform="scale(0.015625)"/>
       <path id="CMR17-6f" d="M 2758 1356 
C 2758 2176 2163 2816 1466 2816 
C 768 2816 173 2176 173 1356 
C 173 551 768 -64 1466 -64 
C 2163 -64 2758 551 2758 1356 
z
M 1466 51 
C 1165 51 909 230 762 480 
C 602 767 582 1126 582 1408 
C 582 1677 595 2010 762 2298 
C 890 2509 1139 2714 1466 2714 
C 1754 2714 1997 2554 2150 2330 
C 2349 2029 2349 1607 2349 1408 
C 2349 1158 2336 775 2163 467 
C 1984 173 1709 51 1466 51 
z
" transform="scale(0.015625)"/>
       <path id="CMR17-66" d="M 979 2560 
L 1709 2560 
L 1709 2725 
L 966 2725 
L 966 3494 
C 966 4022 1235 4352 1510 4352 
C 1594 4352 1690 4327 1754 4282 
C 1702 4269 1568 4225 1568 4067 
C 1568 3901 1696 3850 1786 3850 
C 1875 3850 2003 3901 2003 4067 
C 2003 4308 1773 4454 1517 4454 
C 1152 4454 653 4156 653 3481 
L 653 2725 
L 141 2725 
L 141 2560 
L 653 2560 
L 653 427 
C 653 184 627 153 218 153 
L 218 -13 
C 371 0 666 0 832 0 
C 1018 0 1344 0 1517 -13 
L 1517 153 
C 1056 153 979 153 979 439 
L 979 2560 
z
" transform="scale(0.015625)"/>
       <path id="CMR17-57" d="M 5523 3764 
C 5581 3936 5677 4160 6048 4160 
L 6048 4326 
C 5939 4326 5715 4326 5600 4326 
C 5440 4326 5158 4326 5005 4332 
L 5005 4160 
C 5293 4160 5414 4000 5414 3847 
C 5414 3802 5408 3777 5382 3707 
L 4390 555 
L 3347 3873 
C 3328 3937 3322 3963 3322 3988 
C 3322 4160 3603 4160 3725 4160 
L 3725 4326 
C 3539 4326 3219 4326 3021 4326 
C 2861 4326 2573 4326 2426 4332 
L 2426 4160 
C 2720 4160 2797 4141 2861 4027 
C 2886 3969 2989 3638 2989 3619 
C 2989 3593 2976 3555 2970 3536 
L 2029 561 
L 986 3867 
C 954 3957 954 3969 954 3982 
C 954 4160 1235 4160 1363 4160 
L 1363 4326 
C 1178 4326 858 4326 659 4326 
C 493 4326 211 4326 58 4332 
L 58 4160 
C 442 4160 467 4122 531 3918 
L 1779 -20 
C 1811 -115 1811 -128 1869 -128 
C 1920 -128 1939 -115 1965 -26 
L 3053 3433 
L 4141 -26 
C 4166 -115 4186 -128 4237 -128 
C 4294 -128 4294 -115 4326 -20 
L 5523 3764 
z
" transform="scale(0.015625)"/>
       <path id="CMR17-64" d="M 1869 4326 
L 1869 4160 
C 2246 4160 2304 4122 2304 3820 
L 2304 2345 
C 2278 2377 2016 2790 1498 2790 
C 845 2790 211 2208 211 1364 
C 211 525 806 -64 1434 -64 
C 1978 -64 2259 337 2291 380 
L 2291 -63 
L 3066 -63 
L 3066 128 
C 2688 128 2630 166 2630 473 
L 2630 4396 
L 1869 4326 
z
M 2291 755 
C 2291 563 2176 390 2029 262 
C 1811 70 1594 38 1472 38 
C 1286 38 621 134 621 1356 
C 621 2612 1363 2688 1530 2688 
C 1824 2688 2061 2522 2208 2291 
C 2291 2157 2291 2138 2291 2023 
L 2291 755 
z
" transform="scale(0.015625)"/>
       <path id="CMR17-73" d="M 1978 2697 
C 1978 2813 1971 2819 1933 2819 
C 1907 2819 1901 2813 1824 2717 
C 1805 2691 1747 2626 1728 2601 
C 1523 2819 1235 2819 1126 2819 
C 416 2819 160 2447 160 2076 
C 160 1498 813 1365 998 1325 
C 1402 1243 1542 1217 1677 1101 
C 1760 1025 1901 884 1901 654 
C 1901 384 1747 38 1158 38 
C 602 38 403 460 288 1021 
C 269 1110 269 1117 218 1117 
C 166 1117 160 1110 160 983 
L 160 63 
C 160 -51 166 -58 205 -58 
C 237 -58 243 -51 275 0 
C 314 57 410 211 448 276 
C 576 103 800 -64 1158 -64 
C 1792 -64 2131 283 2131 784 
C 2131 1112 1958 1285 1875 1362 
C 1683 1561 1459 1606 1190 1657 
C 838 1735 390 1825 390 2217 
C 390 2383 480 2737 1126 2737 
C 1811 2737 1850 2094 1862 1888 
C 1869 1856 1901 1849 1920 1849 
C 1978 1849 1978 1869 1978 1978 
L 1978 2697 
z
" transform="scale(0.015625)"/>
      </defs>
      <use xlink:href="#CMR17-4e" transform="scale(0.996264)"/>
      <use xlink:href="#CMR17-75" transform="translate(69.07243 0) scale(0.996264)"/>
      <use xlink:href="#CMR17-6d" transform="translate(119.9678 0) scale(0.996264)"/>
      <use xlink:href="#CMR17-62" transform="translate(194.284936 0) scale(0.996264)"/>
      <use xlink:href="#CMR17-65" transform="translate(247.782744 0) scale(0.996264)"/>
      <use xlink:href="#CMR17-72" transform="translate(288.268404 0) scale(0.996264)"/>
      <use xlink:href="#CMR17-6f" transform="translate(353.625139 0) scale(0.996264)"/>
      <use xlink:href="#CMR17-66" transform="translate(399.315616 0) scale(0.996264)"/>
      <use xlink:href="#CMR17-57" transform="translate(456.865095 0) scale(0.996264)"/>
      <use xlink:href="#CMR17-6f" transform="translate(544.154489 0) scale(0.996264)"/>
      <use xlink:href="#CMR17-72" transform="translate(589.844966 0) scale(0.996264)"/>
      <use xlink:href="#CMR17-64" transform="translate(625.125734 0) scale(0.996264)"/>
      <use xlink:href="#CMR17-73" transform="translate(676.021104 0) scale(0.996264)"/>
     </g>
    </g>
   </g>
   <g id="line2d_26">
    <path d="M 94.642556 341.811437 
L 100.605645 341.031296 
L 138.371873 349.977419 
L 160.236531 353.985337 
L 162.224227 355.553515 
L 166.199619 340.721367 
L 196.015063 333.552681 
L 201.978151 325.302016 
L 207.94124 333.906847 
L 221.855113 323.475207 
L 229.805898 323.04046 
L 235.768987 302.27622 
L 245.707468 302.610992 
L 249.68286 317.421283 
L 259.621341 284.207119 
L 303.350658 280.092998 
L 357.018456 266.753521 
L 368.944633 264.079689 
L 372.920025 266.235806 
L 380.87081 265.691281 
L 388.821595 250.354217 
L 392.796987 199.369642 
L 400.747772 196.371817 
L 404.723165 192.658959 
L 408.698557 189.899209 
L 410.686253 188.92727 
L 414.661646 187.50254 
L 416.649342 185.055291 
L 424.600127 185.022434 
L 428.575519 185.715301 
L 434.538608 183.139532 
L 452.427874 180.354776 
L 466.341747 156.731024 
L 482.243317 169.717485 
L 492.181798 167.437241 
L 512.05876 165.34011 
L 523.984937 164.743657 
L 547.837292 131.170485 
L 571.689646 129.839474 
L 587.591216 82.39209 
L 603.492786 77.053624 
L 607.468178 71.883737 
L 621.382052 56.913451 
L 625.357444 55.703716 
" clip-path="url(#p5ea2bc6c95)" style="fill: none; stroke: #9c0412; stroke-width: 2.5; stroke-linecap: square"/>
   </g>
   <g id="patch_3">
    <path d="M 68.106811 370.546005 
L 68.106811 40.711226 
" style="fill: none; stroke: #000000; stroke-width: 0.8; stroke-linejoin: miter; stroke-linecap: square"/>
   </g>
   <g id="patch_4">
    <path d="M 651.893189 370.546005 
L 651.893189 40.711226 
" style="fill: none; stroke: #000000; stroke-width: 0.8; stroke-linejoin: miter; stroke-linecap: square"/>
   </g>
   <g id="patch_5">
    <path d="M 68.106811 370.546005 
L 651.893189 370.546005 
" style="fill: none; stroke: #000000; stroke-width: 0.8; stroke-linejoin: miter; stroke-linecap: square"/>
   </g>
   <g id="patch_6">
    <path d="M 68.106811 40.711226 
L 651.893189 40.711226 
" style="fill: none; stroke: #000000; stroke-width: 0.8; stroke-linejoin: miter; stroke-linecap: square"/>
   </g>
   <g id="text_15">
    <!-- Number of Words and Number of Leaves (log scale) over Year -->
    <g transform="translate(62.283467 28.711226) scale(0.24 -0.24)">
     <defs>
      <path id="CMR17-6e" d="M 2656 1933 
C 2656 2259 2592 2790 1837 2790 
C 1331 2790 1069 2400 973 2144 
L 966 2144 
L 966 2790 
L 211 2720 
L 211 2554 
C 589 2554 646 2515 646 2208 
L 646 428 
C 646 184 621 153 211 153 
L 211 -13 
C 365 0 646 0 813 0 
C 979 0 1267 0 1421 -13 
L 1421 153 
C 1011 153 986 178 986 428 
L 986 1658 
C 986 2247 1344 2688 1792 2688 
C 2266 2688 2317 2266 2317 1958 
L 2317 428 
C 2317 184 2291 153 1882 153 
L 1882 -13 
C 2035 0 2317 0 2483 0 
C 2650 0 2938 0 3091 -13 
L 3091 153 
C 2682 153 2656 178 2656 428 
L 2656 1933 
z
" transform="scale(0.015625)"/>
      <path id="CMR17-4c" d="M 3469 1615 
L 3354 1615 
C 3302 983 3219 166 2125 166 
L 1530 166 
C 1274 166 1261 197 1261 414 
L 1261 3898 
C 1261 4129 1274 4192 1760 4192 
L 1901 4192 
L 1901 4352 
C 1638 4352 1331 4352 1069 4352 
C 870 4352 512 4352 326 4352 
L 326 4192 
C 768 4192 838 4192 838 3905 
L 838 452 
C 838 166 768 166 326 166 
L 326 0 
L 3315 0 
L 3469 1615 
z
" transform="scale(0.015625)"/>
      <path id="CMR17-76" d="M 2502 2163 
C 2560 2304 2662 2560 3034 2560 
L 3034 2726 
C 2912 2726 2752 2726 2630 2726 
C 2496 2726 2285 2726 2157 2732 
L 2157 2566 
C 2317 2553 2406 2477 2406 2311 
C 2406 2253 2406 2240 2368 2151 
L 1664 377 
L 902 2286 
C 864 2369 864 2381 864 2407 
C 864 2560 1075 2560 1171 2560 
L 1171 2732 
C 1018 2726 736 2726 576 2726 
C 403 2726 205 2726 64 2732 
L 64 2560 
C 307 2560 442 2560 518 2362 
L 1446 44 
C 1485 -51 1491 -64 1549 -64 
C 1606 -64 1613 -51 1651 44 
L 2502 2163 
z
" transform="scale(0.015625)"/>
      <path id="CMR17-28" d="M 1958 -1561 
C 1958 -1555 1958 -1542 1939 -1523 
C 1645 -1224 858 -407 858 1581 
C 858 3569 1632 4379 1946 4697 
C 1946 4704 1958 4717 1958 4736 
C 1958 4755 1939 4768 1914 4768 
C 1843 4768 1299 4296 986 3594 
C 666 2887 576 2199 576 1588 
C 576 1128 621 351 1005 -471 
C 1312 -1135 1837 -1600 1914 -1600 
C 1946 -1600 1958 -1587 1958 -1561 
z
" transform="scale(0.015625)"/>
      <path id="CMR17-6c" d="M 979 4396 
L 218 4326 
L 218 4160 
C 595 4160 653 4122 653 3817 
L 653 426 
C 653 184 627 153 218 153 
L 218 -13 
C 371 0 653 0 813 0 
C 979 0 1261 0 1414 -13 
L 1414 153 
C 1005 153 979 178 979 426 
L 979 4396 
z
" transform="scale(0.015625)"/>
      <path id="CMR17-67" d="M 710 1164 
C 832 1068 1043 960 1299 960 
C 1805 960 2240 1357 2240 1888 
C 2240 2054 2189 2310 1997 2509 
C 2176 2692 2438 2752 2586 2752 
C 2611 2752 2650 2752 2682 2734 
C 2656 2728 2598 2703 2598 2605 
C 2598 2527 2656 2471 2739 2471 
C 2835 2471 2886 2533 2886 2614 
C 2886 2731 2790 2854 2586 2854 
C 2330 2854 2106 2738 1926 2580 
C 1734 2753 1504 2816 1299 2816 
C 794 2816 358 2419 358 1888 
C 358 1522 570 1292 634 1228 
C 442 1004 442 743 442 711 
C 442 545 506 302 723 168 
C 390 85 128 -169 128 -486 
C 128 -943 736 -1280 1466 -1280 
C 2170 -1280 2803 -956 2803 -479 
C 2803 384 1856 384 1363 384 
C 1216 384 954 384 922 391 
C 723 423 589 602 589 826 
C 589 883 589 1024 710 1164 
z
M 1299 1068 
C 736 1068 736 1760 736 1889 
C 736 2016 736 2708 1299 2708 
C 1862 2708 1862 2016 1862 1889 
C 1862 1760 1862 1068 1299 1068 
z
M 1466 -1171 
C 826 -1171 384 -835 384 -486 
C 384 -289 493 -105 634 -4 
C 794 104 858 104 1293 104 
C 1818 104 2547 104 2547 -486 
C 2547 -835 2106 -1171 1466 -1171 
z
" transform="scale(0.015625)"/>
      <path id="CMR17-63" d="M 2234 2240 
C 2112 2240 1933 2240 1933 2017 
C 1933 1838 2080 1787 2163 1787 
C 2208 1787 2394 1807 2394 2024 
C 2394 2467 1958 2803 1466 2803 
C 787 2803 211 2178 211 1363 
C 211 516 813 -64 1466 -64 
C 2259 -64 2458 677 2458 748 
C 2458 774 2451 793 2406 793 
C 2362 793 2355 787 2330 703 
C 2163 180 1798 51 1523 51 
C 1114 51 621 427 621 1369 
C 621 2338 1094 2688 1472 2688 
C 1722 2688 2093 2573 2234 2240 
z
" transform="scale(0.015625)"/>
      <path id="CMR17-29" d="M 1683 1581 
C 1683 2040 1638 2817 1254 3639 
C 947 4303 422 4768 346 4768 
C 326 4768 301 4761 301 4729 
C 301 4717 307 4710 314 4697 
C 621 4378 1402 3568 1402 1584 
C 1402 -407 627 -1217 314 -1537 
C 307 -1549 301 -1556 301 -1568 
C 301 -1600 326 -1600 346 -1600 
C 416 -1600 960 -1128 1274 -426 
C 1594 281 1683 969 1683 1581 
z
" transform="scale(0.015625)"/>
     </defs>
     <use xlink:href="#CMR17-4e" transform="scale(0.996264)"/>
     <use xlink:href="#CMR17-75" transform="translate(69.07243 0) scale(0.996264)"/>
     <use xlink:href="#CMR17-6d" transform="translate(119.9678 0) scale(0.996264)"/>
     <use xlink:href="#CMR17-62" transform="translate(194.284936 0) scale(0.996264)"/>
     <use xlink:href="#CMR17-65" transform="translate(247.782744 0) scale(0.996264)"/>
     <use xlink:href="#CMR17-72" transform="translate(288.268404 0) scale(0.996264)"/>
     <use xlink:href="#CMR17-6f" transform="translate(353.625139 0) scale(0.996264)"/>
     <use xlink:href="#CMR17-66" transform="translate(399.315616 0) scale(0.996264)"/>
     <use xlink:href="#CMR17-57" transform="translate(456.865095 0) scale(0.996264)"/>
     <use xlink:href="#CMR17-6f" transform="translate(544.154489 0) scale(0.996264)"/>
     <use xlink:href="#CMR17-72" transform="translate(589.844966 0) scale(0.996264)"/>
     <use xlink:href="#CMR17-64" transform="translate(625.125734 0) scale(0.996264)"/>
     <use xlink:href="#CMR17-73" transform="translate(676.021104 0) scale(0.996264)"/>
     <use xlink:href="#CMR17-61" transform="translate(741.898408 0) scale(0.996264)"/>
     <use xlink:href="#CMR17-6e" transform="translate(787.588885 0) scale(0.996264)"/>
     <use xlink:href="#CMR17-64" transform="translate(838.484255 0) scale(0.996264)"/>
     <use xlink:href="#CMR17-4e" transform="translate(919.455591 0) scale(0.996264)"/>
     <use xlink:href="#CMR17-75" transform="translate(988.528021 0) scale(0.996264)"/>
     <use xlink:href="#CMR17-6d" transform="translate(1039.42339 0) scale(0.996264)"/>
     <use xlink:href="#CMR17-62" transform="translate(1113.740526 0) scale(0.996264)"/>
     <use xlink:href="#CMR17-65" transform="translate(1167.238335 0) scale(0.996264)"/>
     <use xlink:href="#CMR17-72" transform="translate(1207.723995 0) scale(0.996264)"/>
     <use xlink:href="#CMR17-6f" transform="translate(1273.080729 0) scale(0.996264)"/>
     <use xlink:href="#CMR17-66" transform="translate(1318.771206 0) scale(0.996264)"/>
     <use xlink:href="#CMR17-4c" transform="translate(1376.320685 0) scale(0.996264)"/>
     <use xlink:href="#CMR17-65" transform="translate(1433.702093 0) scale(0.996264)"/>
     <use xlink:href="#CMR17-61" transform="translate(1474.187754 0) scale(0.996264)"/>
     <use xlink:href="#CMR17-76" transform="translate(1517.275777 0) scale(0.996264)"/>
     <use xlink:href="#CMR17-65" transform="translate(1562.966239 0) scale(0.996264)"/>
     <use xlink:href="#CMR17-73" transform="translate(1603.451899 0) scale(0.996264)"/>
     <use xlink:href="#CMR17-28" transform="translate(1669.329203 0) scale(0.996264)"/>
     <use xlink:href="#CMR17-6c" transform="translate(1704.609971 0) scale(0.996264)"/>
     <use xlink:href="#CMR17-6f" transform="translate(1729.481029 0) scale(0.996264)"/>
     <use xlink:href="#CMR17-67" transform="translate(1775.171507 0) scale(0.996264)"/>
     <use xlink:href="#CMR17-73" transform="translate(1850.93795 0) scale(0.996264)"/>
     <use xlink:href="#CMR17-63" transform="translate(1886.739288 0) scale(0.996264)"/>
     <use xlink:href="#CMR17-61" transform="translate(1927.224948 0) scale(0.996264)"/>
     <use xlink:href="#CMR17-6c" transform="translate(1972.915425 0) scale(0.996264)"/>
     <use xlink:href="#CMR17-65" transform="translate(1997.786484 0) scale(0.996264)"/>
     <use xlink:href="#CMR17-29" transform="translate(2038.272144 0) scale(0.996264)"/>
     <use xlink:href="#CMR17-6f" transform="translate(2103.628878 0) scale(0.996264)"/>
     <use xlink:href="#CMR17-76" transform="translate(2146.716901 0) scale(0.996264)"/>
     <use xlink:href="#CMR17-65" transform="translate(2192.407363 0) scale(0.996264)"/>
     <use xlink:href="#CMR17-72" transform="translate(2232.893024 0) scale(0.996264)"/>
     <use xlink:href="#CMR17-59" transform="translate(2298.249758 0) scale(0.996264)"/>
     <use xlink:href="#CMR17-65" transform="translate(2359.514932 0) scale(0.996264)"/>
     <use xlink:href="#CMR17-61" transform="translate(2400.000593 0) scale(0.996264)"/>
     <use xlink:href="#CMR17-72" transform="translate(2445.69107 0) scale(0.996264)"/>
    </g>
   </g>
   <g id="legend_1">
    <g id="line2d_27">
     <path d="M 82.506811 60.711226 
L 98.506811 60.711226 
L 114.506811 60.711226 
" style="fill: none; stroke: #9c0412; stroke-width: 2.5; stroke-linecap: square"/>
    </g>
    <g id="text_16">
     <!-- Number of Words -->
     <g transform="translate(127.306811 66.311226) scale(0.16 -0.16)">
      <use xlink:href="#CMR17-4e" transform="scale(0.996264)"/>
      <use xlink:href="#CMR17-75" transform="translate(69.07243 0) scale(0.996264)"/>
      <use xlink:href="#CMR17-6d" transform="translate(119.9678 0) scale(0.996264)"/>
      <use xlink:href="#CMR17-62" transform="translate(194.284936 0) scale(0.996264)"/>
      <use xlink:href="#CMR17-65" transform="translate(247.782744 0) scale(0.996264)"/>
      <use xlink:href="#CMR17-72" transform="translate(288.268404 0) scale(0.996264)"/>
      <use xlink:href="#CMR17-6f" transform="translate(353.625139 0) scale(0.996264)"/>
      <use xlink:href="#CMR17-66" transform="translate(399.315616 0) scale(0.996264)"/>
      <use xlink:href="#CMR17-57" transform="translate(456.865095 0) scale(0.996264)"/>
      <use xlink:href="#CMR17-6f" transform="translate(544.154489 0) scale(0.996264)"/>
      <use xlink:href="#CMR17-72" transform="translate(589.844966 0) scale(0.996264)"/>
      <use xlink:href="#CMR17-64" transform="translate(625.125734 0) scale(0.996264)"/>
      <use xlink:href="#CMR17-73" transform="translate(676.021104 0) scale(0.996264)"/>
     </g>
    </g>
    <g id="line2d_28">
     <path d="M 82.506811 83.010703 
L 98.506811 83.010703 
L 114.506811 83.010703 
" style="fill: none; stroke: #4c78a8; stroke-width: 2.5; stroke-linecap: square"/>
    </g>
    <g id="text_17">
     <!-- Number of Leaves -->
     <g transform="translate(127.306811 88.610703) scale(0.16 -0.16)">
      <use xlink:href="#CMR17-4e" transform="scale(0.996264)"/>
      <use xlink:href="#CMR17-75" transform="translate(69.07243 0) scale(0.996264)"/>
      <use xlink:href="#CMR17-6d" transform="translate(119.9678 0) scale(0.996264)"/>
      <use xlink:href="#CMR17-62" transform="translate(194.284936 0) scale(0.996264)"/>
      <use xlink:href="#CMR17-65" transform="translate(247.782744 0) scale(0.996264)"/>
      <use xlink:href="#CMR17-72" transform="translate(288.268404 0) scale(0.996264)"/>
      <use xlink:href="#CMR17-6f" transform="translate(353.625139 0) scale(0.996264)"/>
      <use xlink:href="#CMR17-66" transform="translate(399.315616 0) scale(0.996264)"/>
      <use xlink:href="#CMR17-4c" transform="translate(456.865095 0) scale(0.996264)"/>
      <use xlink:href="#CMR17-65" transform="translate(514.246502 0) scale(0.996264)"/>
      <use xlink:href="#CMR17-61" transform="translate(554.732163 0) scale(0.996264)"/>
      <use xlink:href="#CMR17-76" transform="translate(597.820186 0) scale(0.996264)"/>
      <use xlink:href="#CMR17-65" transform="translate(643.510648 0) scale(0.996264)"/>
      <use xlink:href="#CMR17-73" transform="translate(683.996308 0) scale(0.996264)"/>
     </g>
    </g>
   </g>
  </g>
  <g id="axes_2">
   <g id="PathCollection_2">
    <defs>
     <path id="mb0720a7b19" d="M 0 3.162278 
C 0.838646 3.162278 1.643056 2.82908 2.236068 2.236068 
C 2.82908 1.643056 3.162278 0.838646 3.162278 0 
C 3.162278 -0.838646 2.82908 -1.643056 2.236068 -2.236068 
C 1.643056 -2.82908 0.838646 -3.162278 0 -3.162278 
C -0.838646 -3.162278 -1.643056 -2.82908 -2.236068 -2.236068 
C -2.82908 -1.643056 -3.162278 -0.838646 -3.162278 0 
C -3.162278 0.838646 -2.82908 1.643056 -2.236068 2.236068 
C -1.643056 2.82908 -0.838646 3.162278 0 3.162278 
z
" style="stroke: #ffffff; stroke-width: 0.7"/>
    </defs>
    <g clip-path="url(#p5ea2bc6c95)">
     <use xlink:href="#mb0720a7b19" x="94.642556" y="355.553515" style="fill: #4c78a8; stroke: #ffffff; stroke-width: 0.7"/>
     <use xlink:href="#mb0720a7b19" x="100.605645" y="350.487438" style="fill: #4c78a8; stroke: #ffffff; stroke-width: 0.7"/>
     <use xlink:href="#mb0720a7b19" x="138.371873" y="352.983221" style="fill: #4c78a8; stroke: #ffffff; stroke-width: 0.7"/>
     <use xlink:href="#mb0720a7b19" x="160.236531" y="355.553515" style="fill: #4c78a8; stroke: #ffffff; stroke-width: 0.7"/>
     <use xlink:href="#mb0720a7b19" x="162.224227" y="352.983221" style="fill: #4c78a8; stroke: #ffffff; stroke-width: 0.7"/>
     <use xlink:href="#mb0720a7b19" x="166.199619" y="345.702959" style="fill: #4c78a8; stroke: #ffffff; stroke-width: 0.7"/>
     <use xlink:href="#mb0720a7b19" x="196.015063" y="338.990589" style="fill: #4c78a8; stroke: #ffffff; stroke-width: 0.7"/>
     <use xlink:href="#mb0720a7b19" x="201.978151" y="328.849649" style="fill: #4c78a8; stroke: #ffffff; stroke-width: 0.7"/>
     <use xlink:href="#mb0720a7b19" x="207.94124" y="336.864592" style="fill: #4c78a8; stroke: #ffffff; stroke-width: 0.7"/>
     <use xlink:href="#mb0720a7b19" x="221.855113" y="330.784527" style="fill: #4c78a8; stroke: #ffffff; stroke-width: 0.7"/>
     <use xlink:href="#mb0720a7b19" x="229.805898" y="330.784527" style="fill: #4c78a8; stroke: #ffffff; stroke-width: 0.7"/>
     <use xlink:href="#mb0720a7b19" x="235.768987" y="310.020842" style="fill: #4c78a8; stroke: #ffffff; stroke-width: 0.7"/>
     <use xlink:href="#mb0720a7b19" x="245.707468" y="311.572208" style="fill: #4c78a8; stroke: #ffffff; stroke-width: 0.7"/>
     <use xlink:href="#mb0720a7b19" x="249.68286" y="325.105647" style="fill: #4c78a8; stroke: #ffffff; stroke-width: 0.7"/>
     <use xlink:href="#mb0720a7b19" x="259.621341" y="302.657513" style="fill: #4c78a8; stroke: #ffffff; stroke-width: 0.7"/>
     <use xlink:href="#mb0720a7b19" x="303.350658" y="308.496935" style="fill: #4c78a8; stroke: #ffffff; stroke-width: 0.7"/>
     <use xlink:href="#mb0720a7b19" x="357.018456" y="294.579861" style="fill: #4c78a8; stroke: #ffffff; stroke-width: 0.7"/>
     <use xlink:href="#mb0720a7b19" x="368.944633" y="294.579861" style="fill: #4c78a8; stroke: #ffffff; stroke-width: 0.7"/>
     <use xlink:href="#mb0720a7b19" x="372.920025" y="293.304305" style="fill: #4c78a8; stroke: #ffffff; stroke-width: 0.7"/>
     <use xlink:href="#mb0720a7b19" x="380.87081" y="293.304305" style="fill: #4c78a8; stroke: #ffffff; stroke-width: 0.7"/>
     <use xlink:href="#mb0720a7b19" x="388.821595" y="282.602461" style="fill: #4c78a8; stroke: #ffffff; stroke-width: 0.7"/>
     <use xlink:href="#mb0720a7b19" x="392.796987" y="205.747815" style="fill: #4c78a8; stroke: #ffffff; stroke-width: 0.7"/>
     <use xlink:href="#mb0720a7b19" x="400.747772" y="203.935149" style="fill: #4c78a8; stroke: #ffffff; stroke-width: 0.7"/>
     <use xlink:href="#mb0720a7b19" x="404.723165" y="201.285756" style="fill: #4c78a8; stroke: #ffffff; stroke-width: 0.7"/>
     <use xlink:href="#mb0720a7b19" x="408.698557" y="197.87547" style="fill: #4c78a8; stroke: #ffffff; stroke-width: 0.7"/>
     <use xlink:href="#mb0720a7b19" x="410.686253" y="197.043594" style="fill: #4c78a8; stroke: #ffffff; stroke-width: 0.7"/>
     <use xlink:href="#mb0720a7b19" x="414.661646" y="196.219679" style="fill: #4c78a8; stroke: #ffffff; stroke-width: 0.7"/>
     <use xlink:href="#mb0720a7b19" x="416.649342" y="194.595131" style="fill: #4c78a8; stroke: #ffffff; stroke-width: 0.7"/>
     <use xlink:href="#mb0720a7b19" x="424.600127" y="194.193739" style="fill: #4c78a8; stroke: #ffffff; stroke-width: 0.7"/>
     <use xlink:href="#mb0720a7b19" x="428.575519" y="196.219679" style="fill: #4c78a8; stroke: #ffffff; stroke-width: 0.7"/>
     <use xlink:href="#mb0720a7b19" x="434.538608" y="192.606625" style="fill: #4c78a8; stroke: #ffffff; stroke-width: 0.7"/>
     <use xlink:href="#mb0720a7b19" x="452.427874" y="188.762305" style="fill: #4c78a8; stroke: #ffffff; stroke-width: 0.7"/>
     <use xlink:href="#mb0720a7b19" x="466.341747" y="172.067887" style="fill: #4c78a8; stroke: #ffffff; stroke-width: 0.7"/>
     <use xlink:href="#mb0720a7b19" x="482.243317" y="197.458527" style="fill: #4c78a8; stroke: #ffffff; stroke-width: 0.7"/>
     <use xlink:href="#mb0720a7b19" x="492.181798" y="193.794209" style="fill: #4c78a8; stroke: #ffffff; stroke-width: 0.7"/>
     <use xlink:href="#mb0720a7b19" x="512.05876" y="193.396525" style="fill: #4c78a8; stroke: #ffffff; stroke-width: 0.7"/>
     <use xlink:href="#mb0720a7b19" x="523.984937" y="191.048239" style="fill: #4c78a8; stroke: #ffffff; stroke-width: 0.7"/>
     <use xlink:href="#mb0720a7b19" x="547.837292" y="142.480944" style="fill: #4c78a8; stroke: #ffffff; stroke-width: 0.7"/>
     <use xlink:href="#mb0720a7b19" x="571.689646" y="144.03231" style="fill: #4c78a8; stroke: #ffffff; stroke-width: 0.7"/>
     <use xlink:href="#mb0720a7b19" x="587.591216" y="87.542591" style="fill: #4c78a8; stroke: #ffffff; stroke-width: 0.7"/>
     <use xlink:href="#mb0720a7b19" x="603.492786" y="79.463207" style="fill: #4c78a8; stroke: #ffffff; stroke-width: 0.7"/>
     <use xlink:href="#mb0720a7b19" x="607.468178" y="72.271502" style="fill: #4c78a8; stroke: #ffffff; stroke-width: 0.7"/>
     <use xlink:href="#mb0720a7b19" x="621.382052" y="57.403883" style="fill: #4c78a8; stroke: #ffffff; stroke-width: 0.7"/>
     <use xlink:href="#mb0720a7b19" x="625.357444" y="55.703716" style="fill: #4c78a8; stroke: #ffffff; stroke-width: 0.7"/>
    </g>
   </g>
   <g id="matplotlib.axis_3">
    <g id="ytick_16">
     <g id="line2d_29">
      <defs>
       <path id="mc9b1cdd268" d="M 0 0 
L 3.5 0 
" style="stroke: #4c78a8; stroke-width: 0.8"/>
      </defs>
      <g>
       <use xlink:href="#mc9b1cdd268" x="651.893189" y="260.099353" style="fill: #4c78a8; stroke: #4c78a8; stroke-width: 0.8"/>
      </g>
     </g>
     <g id="text_18">
      <!-- $\mathdefault{10^{2}}$ -->
      <g style="fill: #4c78a8" transform="translate(658.893189 266.326003) scale(0.18 -0.18)">
       <use xlink:href="#CMR17-31" transform="scale(0.996264)"/>
       <use xlink:href="#CMR17-30" transform="translate(45.690477 0) scale(0.996264)"/>
       <use xlink:href="#CMR17-32" transform="translate(91.380954 36.153639) scale(0.697382)"/>
      </g>
     </g>
    </g>
    <g id="ytick_17">
     <g id="line2d_30">
      <g>
       <use xlink:href="#mc9b1cdd268" x="651.893189" y="61.850286" style="fill: #4c78a8; stroke: #4c78a8; stroke-width: 0.8"/>
      </g>
     </g>
     <g id="text_19">
      <!-- $\mathdefault{10^{3}}$ -->
      <g style="fill: #4c78a8" transform="translate(658.893189 68.076936) scale(0.18 -0.18)">
       <use xlink:href="#CMR17-31" transform="scale(0.996264)"/>
       <use xlink:href="#CMR17-30" transform="translate(45.690477 0) scale(0.996264)"/>
       <use xlink:href="#CMR17-33" transform="translate(91.380954 36.153639) scale(0.697382)"/>
      </g>
     </g>
    </g>
    <g id="ytick_18">
     <g id="line2d_31">
      <defs>
       <path id="m45462d7270" d="M 0 0 
L 2 0 
" style="stroke: #000000; stroke-width: 0.6"/>
      </defs>
      <g>
       <use xlink:href="#m45462d7270" x="651.893189" y="363.759577" style="stroke: #000000; stroke-width: 0.6"/>
      </g>
     </g>
    </g>
    <g id="ytick_19">
     <g id="line2d_32">
      <g>
       <use xlink:href="#m45462d7270" x="651.893189" y="338.990589" style="stroke: #000000; stroke-width: 0.6"/>
      </g>
     </g>
    </g>
    <g id="ytick_20">
     <g id="line2d_33">
      <g>
       <use xlink:href="#m45462d7270" x="651.893189" y="319.778269" style="stroke: #000000; stroke-width: 0.6"/>
      </g>
     </g>
    </g>
    <g id="ytick_21">
     <g id="line2d_34">
      <g>
       <use xlink:href="#m45462d7270" x="651.893189" y="304.080661" style="stroke: #000000; stroke-width: 0.6"/>
      </g>
     </g>
    </g>
    <g id="ytick_22">
     <g id="line2d_35">
      <g>
       <use xlink:href="#m45462d7270" x="651.893189" y="290.808522" style="stroke: #000000; stroke-width: 0.6"/>
      </g>
     </g>
    </g>
    <g id="ytick_23">
     <g id="line2d_36">
      <g>
       <use xlink:href="#m45462d7270" x="651.893189" y="279.311673" style="stroke: #000000; stroke-width: 0.6"/>
      </g>
     </g>
    </g>
    <g id="ytick_24">
     <g id="line2d_37">
      <g>
       <use xlink:href="#m45462d7270" x="651.893189" y="269.170733" style="stroke: #000000; stroke-width: 0.6"/>
      </g>
     </g>
    </g>
    <g id="ytick_25">
     <g id="line2d_38">
      <g>
       <use xlink:href="#m45462d7270" x="651.893189" y="200.420437" style="stroke: #000000; stroke-width: 0.6"/>
      </g>
     </g>
    </g>
    <g id="ytick_26">
     <g id="line2d_39">
      <g>
       <use xlink:href="#m45462d7270" x="651.893189" y="165.51051" style="stroke: #000000; stroke-width: 0.6"/>
      </g>
     </g>
    </g>
    <g id="ytick_27">
     <g id="line2d_40">
      <g>
       <use xlink:href="#m45462d7270" x="651.893189" y="140.741522" style="stroke: #000000; stroke-width: 0.6"/>
      </g>
     </g>
    </g>
    <g id="ytick_28">
     <g id="line2d_41">
      <g>
       <use xlink:href="#m45462d7270" x="651.893189" y="121.529202" style="stroke: #000000; stroke-width: 0.6"/>
      </g>
     </g>
    </g>
    <g id="ytick_29">
     <g id="line2d_42">
      <g>
       <use xlink:href="#m45462d7270" x="651.893189" y="105.831594" style="stroke: #000000; stroke-width: 0.6"/>
      </g>
     </g>
    </g>
    <g id="ytick_30">
     <g id="line2d_43">
      <g>
       <use xlink:href="#m45462d7270" x="651.893189" y="92.559455" style="stroke: #000000; stroke-width: 0.6"/>
      </g>
     </g>
    </g>
    <g id="ytick_31">
     <g id="line2d_44">
      <g>
       <use xlink:href="#m45462d7270" x="651.893189" y="81.062606" style="stroke: #000000; stroke-width: 0.6"/>
      </g>
     </g>
    </g>
    <g id="ytick_32">
     <g id="line2d_45">
      <g>
       <use xlink:href="#m45462d7270" x="651.893189" y="70.921666" style="stroke: #000000; stroke-width: 0.6"/>
      </g>
     </g>
    </g>
    <g id="text_20">
     <!-- Number of Leaves -->
     <g style="fill: #4c78a8" transform="translate(705.324366 277.608341) rotate(-90) scale(0.2 -0.2)">
      <use xlink:href="#CMR17-4e" transform="scale(0.996264)"/>
      <use xlink:href="#CMR17-75" transform="translate(69.07243 0) scale(0.996264)"/>
      <use xlink:href="#CMR17-6d" transform="translate(119.9678 0) scale(0.996264)"/>
      <use xlink:href="#CMR17-62" transform="translate(194.284936 0) scale(0.996264)"/>
      <use xlink:href="#CMR17-65" transform="translate(247.782744 0) scale(0.996264)"/>
      <use xlink:href="#CMR17-72" transform="translate(288.268404 0) scale(0.996264)"/>
      <use xlink:href="#CMR17-6f" transform="translate(353.625139 0) scale(0.996264)"/>
      <use xlink:href="#CMR17-66" transform="translate(399.315616 0) scale(0.996264)"/>
      <use xlink:href="#CMR17-4c" transform="translate(456.865095 0) scale(0.996264)"/>
      <use xlink:href="#CMR17-65" transform="translate(514.246502 0) scale(0.996264)"/>
      <use xlink:href="#CMR17-61" transform="translate(554.732163 0) scale(0.996264)"/>
      <use xlink:href="#CMR17-76" transform="translate(597.820186 0) scale(0.996264)"/>
      <use xlink:href="#CMR17-65" transform="translate(643.510648 0) scale(0.996264)"/>
      <use xlink:href="#CMR17-73" transform="translate(683.996308 0) scale(0.996264)"/>
     </g>
    </g>
   </g>
   <g id="line2d_46">
    <path d="M 94.642556 355.553515 
L 100.605645 350.487438 
L 138.371873 352.983221 
L 160.236531 355.553515 
L 162.224227 352.983221 
L 166.199619 345.702959 
L 196.015063 338.990589 
L 201.978151 328.849649 
L 207.94124 336.864592 
L 221.855113 330.784527 
L 229.805898 330.784527 
L 235.768987 310.020842 
L 245.707468 311.572208 
L 249.68286 325.105647 
L 259.621341 302.657513 
L 303.350658 308.496935 
L 357.018456 294.579861 
L 368.944633 294.579861 
L 372.920025 293.304305 
L 380.87081 293.304305 
L 388.821595 282.602461 
L 392.796987 205.747815 
L 400.747772 203.935149 
L 404.723165 201.285756 
L 408.698557 197.87547 
L 410.686253 197.043594 
L 414.661646 196.219679 
L 416.649342 194.595131 
L 424.600127 194.193739 
L 428.575519 196.219679 
L 434.538608 192.606625 
L 452.427874 188.762305 
L 466.341747 172.067887 
L 482.243317 197.458527 
L 492.181798 193.794209 
L 512.05876 193.396525 
L 523.984937 191.048239 
L 547.837292 142.480944 
L 571.689646 144.03231 
L 587.591216 87.542591 
L 603.492786 79.463207 
L 607.468178 72.271502 
L 621.382052 57.403883 
L 625.357444 55.703716 
" clip-path="url(#p5ea2bc6c95)" style="fill: none; stroke: #4c78a8; stroke-width: 2.5; stroke-linecap: square"/>
   </g>
   <g id="patch_7">
    <path d="M 68.106811 370.546005 
L 68.106811 40.711226 
" style="fill: none; stroke: #000000; stroke-width: 0.8; stroke-linejoin: miter; stroke-linecap: square"/>
   </g>
   <g id="patch_8">
    <path d="M 651.893189 370.546005 
L 651.893189 40.711226 
" style="fill: none; stroke: #000000; stroke-width: 0.8; stroke-linejoin: miter; stroke-linecap: square"/>
   </g>
   <g id="patch_9">
    <path d="M 68.106811 370.546005 
L 651.893189 370.546005 
" style="fill: none; stroke: #000000; stroke-width: 0.8; stroke-linejoin: miter; stroke-linecap: square"/>
   </g>
   <g id="patch_10">
    <path d="M 68.106811 40.711226 
L 651.893189 40.711226 
" style="fill: none; stroke: #000000; stroke-width: 0.8; stroke-linejoin: miter; stroke-linecap: square"/>
   </g>
  </g>
 </g>
 <defs>
  <clipPath id="p5ea2bc6c95">
   <rect x="68.106811" y="40.711226" width="583.786377" height="329.834779"/>
  </clipPath>
 </defs>
</svg>
