<?xml version="1.0" encoding="utf-8" standalone="no"?>
<!DOCTYPE svg PUBLIC "-//W3C//DTD SVG 1.1//EN"
  "http://www.w3.org/Graphics/SVG/1.1/DTD/svg11.dtd">
<svg xmlns:xlink="http://www.w3.org/1999/xlink" width="576pt" height="576pt" viewBox="0 0 576 576" xmlns="http://www.w3.org/2000/svg" version="1.1">
 <metadata>
  <rdf:RDF xmlns:dc="http://purl.org/dc/elements/1.1/" xmlns:cc="http://creativecommons.org/ns#" xmlns:rdf="http://www.w3.org/1999/02/22-rdf-syntax-ns#">
   <cc:Work>
    <dc:type rdf:resource="http://purl.org/dc/dcmitype/StillImage"/>
    <dc:date>2026-04-05T23:27:24.191423</dc:date>
    <dc:format>image/svg+xml</dc:format>
    <dc:creator>
     <cc:Agent>
      <dc:title>Matplotlib v3.9.2, https://matplotlib.org/</dc:title>
     </cc:Agent>
    </dc:creator>
   </cc:Work>
  </rdf:RDF>
 </metadata>
 <defs>
  <style type="text/css">*{stroke-linejoin: round; stroke-linecap: butt}</style>
 </defs>
 <g id="figure_1">
  <g id="patch_1">
   <path d="M 0 576 
L 576 576 
L 576 0 
L 0 0 
z
" style="fill: #ffffff"/>
  </g>
  <g id="axes_1">
   <g id="patch_2">
    <path d="M 100.8 460.8 
L 475.2 460.8 
L 475.2 86.4 
L 100.8 86.4 
z
" style="fill: #ffffff"/>
   </g>
   <g id="matplotlib.axis_1">
    <g id="xtick_1">
     <g id="line2d_1">
      <defs>
       <path id="m8a0d0574ec" d="M 0 0 
L 0 3.5 
" style="stroke: #000000; stroke-width: 0.8"/>
      </defs>
      <g>
       <use xlink:href="#m8a0d0574ec" x="145.565217" y="460.8" style="stroke: #000000; stroke-width: 0.8"/>
      </g>
     </g>
     <g id="text_1">
      <!-- $\mathdefault{1850}$ -->
      <g transform="translate(127.289027 481.636997) scale(0.2 -0.2)">
       <defs>
        <path id="CMR17-31" d="M 1702 4058 
C 1702 4192 1696 4192 1606 4192 
C 1357 3916 979 3827 621 3827 
C 602 3827 570 3827 563 3808 
C 557 3795 557 3782 557 3648 
C 755 3648 1088 3686 1344 3839 
L 1344 461 
C 1344 236 1331 160 781 160 
L 589 160 
L 589 0 
C 896 0 1216 0 1523 0 
C 1830 0 2150 0 2458 0 
L 2458 160 
L 2266 160 
C 1715 160 1702 230 1702 458 
L 1702 4058 
z
" transform="scale(0.015625)"/>
        <path id="CMR17-38" d="M 1741 2264 
C 2144 2467 2554 2773 2554 3263 
C 2554 3841 1990 4179 1472 4179 
C 890 4179 378 3759 378 3180 
C 378 3021 416 2747 666 2505 
C 730 2442 998 2251 1171 2130 
C 883 1983 211 1634 211 934 
C 211 279 838 -128 1459 -128 
C 2144 -128 2720 362 2720 1010 
C 2720 1590 2330 1857 2074 2029 
L 1741 2264 
z
M 902 2822 
C 851 2854 595 3051 595 3351 
C 595 3739 998 4032 1459 4032 
C 1965 4032 2336 3676 2336 3262 
C 2336 2669 1670 2331 1638 2331 
C 1632 2331 1626 2331 1574 2370 
L 902 2822 
z
M 2080 1519 
C 2176 1449 2483 1240 2483 851 
C 2483 381 2010 25 1472 25 
C 890 25 448 438 448 940 
C 448 1443 838 1862 1280 2060 
L 2080 1519 
z
" transform="scale(0.015625)"/>
        <path id="CMR17-35" d="M 730 3692 
C 794 3666 1056 3584 1325 3584 
C 1920 3584 2246 3911 2432 4100 
C 2432 4157 2432 4192 2394 4192 
C 2387 4192 2374 4192 2323 4163 
C 2099 4058 1837 3973 1517 3973 
C 1325 3973 1037 3999 723 4139 
C 653 4171 640 4171 634 4171 
C 602 4171 595 4164 595 4037 
L 595 2203 
C 595 2089 595 2057 659 2057 
C 691 2057 704 2070 736 2114 
C 941 2401 1222 2522 1542 2522 
C 1766 2522 2246 2382 2246 1289 
C 2246 1085 2246 715 2054 421 
C 1894 159 1645 25 1370 25 
C 947 25 518 320 403 814 
C 429 807 480 795 506 795 
C 589 795 749 840 749 1038 
C 749 1210 627 1280 506 1280 
C 358 1280 262 1190 262 1011 
C 262 454 704 -128 1382 -128 
C 2042 -128 2669 440 2669 1264 
C 2669 2030 2170 2624 1549 2624 
C 1222 2624 947 2503 730 2274 
L 730 3692 
z
" transform="scale(0.015625)"/>
        <path id="CMR17-30" d="M 2688 2025 
C 2688 2416 2682 3080 2413 3591 
C 2176 4039 1798 4198 1466 4198 
C 1158 4198 768 4058 525 3597 
C 269 3118 243 2524 243 2025 
C 243 1661 250 1106 448 619 
C 723 -39 1216 -128 1466 -128 
C 1760 -128 2208 -7 2470 600 
C 2662 1042 2688 1559 2688 2025 
z
M 1466 -26 
C 1056 -26 813 325 723 812 
C 653 1188 653 1738 653 2096 
C 653 2588 653 2997 736 3387 
C 858 3929 1216 4096 1466 4096 
C 1728 4096 2067 3923 2189 3400 
C 2272 3036 2278 2607 2278 2096 
C 2278 1680 2278 1169 2202 792 
C 2067 95 1690 -26 1466 -26 
z
" transform="scale(0.015625)"/>
       </defs>
       <use xlink:href="#CMR17-31" transform="scale(0.996264)"/>
       <use xlink:href="#CMR17-38" transform="translate(45.690477 0) scale(0.996264)"/>
       <use xlink:href="#CMR17-35" transform="translate(91.380954 0) scale(0.996264)"/>
       <use xlink:href="#CMR17-30" transform="translate(137.071431 0) scale(0.996264)"/>
      </g>
     </g>
    </g>
    <g id="xtick_2">
     <g id="line2d_2">
      <g>
       <use xlink:href="#m8a0d0574ec" x="238.055336" y="460.8" style="stroke: #000000; stroke-width: 0.8"/>
      </g>
     </g>
     <g id="text_2">
      <!-- $\mathdefault{1900}$ -->
      <g transform="translate(219.779145 481.636997) scale(0.2 -0.2)">
       <defs>
        <path id="CMR17-39" d="M 2253 1864 
C 2253 464 1670 31 1190 31 
C 1043 31 685 31 538 294 
C 704 268 826 357 826 518 
C 826 692 685 749 595 749 
C 538 749 365 723 365 506 
C 365 71 742 -128 1203 -128 
C 1939 -128 2688 674 2688 2073 
C 2688 3817 1971 4179 1485 4179 
C 851 4179 243 3628 243 2778 
C 243 1991 762 1408 1414 1408 
C 1952 1408 2189 1903 2253 2112 
L 2253 1864 
z
M 1427 1510 
C 1254 1510 1011 1542 813 1922 
C 678 2169 678 2461 678 2771 
C 678 3146 678 3405 858 3684 
C 947 3817 1114 4032 1485 4032 
C 2240 4032 2240 2885 2240 2632 
C 2240 2182 2035 1510 1427 1510 
z
" transform="scale(0.015625)"/>
       </defs>
       <use xlink:href="#CMR17-31" transform="scale(0.996264)"/>
       <use xlink:href="#CMR17-39" transform="translate(45.690477 0) scale(0.996264)"/>
       <use xlink:href="#CMR17-30" transform="translate(91.380954 0) scale(0.996264)"/>
       <use xlink:href="#CMR17-30" transform="translate(137.071431 0) scale(0.996264)"/>
      </g>
     </g>
    </g>
    <g id="xtick_3">
     <g id="line2d_3">
      <g>
       <use xlink:href="#m8a0d0574ec" x="330.545455" y="460.8" style="stroke: #000000; stroke-width: 0.8"/>
      </g>
     </g>
     <g id="text_3">
      <!-- $\mathdefault{1950}$ -->
      <g transform="translate(312.269264 481.636997) scale(0.2 -0.2)">
       <use xlink:href="#CMR17-31" transform="scale(0.996264)"/>
       <use xlink:href="#CMR17-39" transform="translate(45.690477 0) scale(0.996264)"/>
       <use xlink:href="#CMR17-35" transform="translate(91.380954 0) scale(0.996264)"/>
       <use xlink:href="#CMR17-30" transform="translate(137.071431 0) scale(0.996264)"/>
      </g>
     </g>
    </g>
    <g id="xtick_4">
     <g id="line2d_4">
      <g>
       <use xlink:href="#m8a0d0574ec" x="423.035573" y="460.8" style="stroke: #000000; stroke-width: 0.8"/>
      </g>
     </g>
     <g id="text_4">
      <!-- $\mathdefault{2000}$ -->
      <g transform="translate(404.759382 481.636997) scale(0.2 -0.2)">
       <defs>
        <path id="CMR17-32" d="M 2669 989 
L 2554 989 
C 2490 536 2438 459 2413 420 
C 2381 369 1920 369 1830 369 
L 602 369 
C 832 619 1280 1072 1824 1597 
C 2214 1967 2669 2402 2669 3035 
C 2669 3790 2067 4224 1395 4224 
C 691 4224 262 3604 262 3030 
C 262 2780 448 2748 525 2748 
C 589 2748 781 2787 781 3010 
C 781 3207 614 3264 525 3264 
C 486 3264 448 3258 422 3245 
C 544 3790 915 4058 1306 4058 
C 1862 4058 2227 3617 2227 3035 
C 2227 2479 1901 2000 1536 1584 
L 262 146 
L 262 0 
L 2515 0 
L 2669 989 
z
" transform="scale(0.015625)"/>
       </defs>
       <use xlink:href="#CMR17-32" transform="scale(0.996264)"/>
       <use xlink:href="#CMR17-30" transform="translate(45.690477 0) scale(0.996264)"/>
       <use xlink:href="#CMR17-30" transform="translate(91.380954 0) scale(0.996264)"/>
       <use xlink:href="#CMR17-30" transform="translate(137.071431 0) scale(0.996264)"/>
      </g>
     </g>
    </g>
    <g id="text_5">
     <!-- Year -->
     <g transform="translate(260.591703 516.268126) scale(0.3 -0.3)">
      <defs>
       <path id="CMR17-59" d="M 3706 3766 
C 3955 4160 4301 4160 4416 4160 
L 4416 4332 
C 4269 4319 4102 4319 3942 4319 
C 3782 4319 3526 4319 3373 4332 
L 3373 4160 
C 3533 4160 3616 4077 3616 3957 
C 3616 3881 3584 3830 3533 3747 
L 2381 1912 
L 1120 3912 
C 1075 3988 1069 3994 1069 4039 
C 1069 4160 1293 4160 1382 4160 
L 1382 4319 
C 1178 4319 864 4319 653 4319 
C 486 4319 166 4319 13 4332 
L 13 4160 
C 378 4160 480 4141 595 3958 
L 2010 1728 
L 2010 445 
C 2010 160 1939 160 1498 160 
L 1498 0 
C 1683 0 2016 0 2214 0 
C 2413 0 2752 0 2938 0 
L 2938 160 
C 2477 160 2419 160 2419 471 
L 2419 1728 
L 3706 3766 
z
" transform="scale(0.015625)"/>
       <path id="CMR17-65" d="M 2438 1472 
C 2464 1498 2464 1511 2464 1576 
C 2464 2238 2118 2816 1389 2816 
C 710 2816 173 2169 173 1383 
C 173 551 781 -64 1459 -64 
C 2176 -64 2458 607 2458 740 
C 2458 784 2419 784 2406 784 
C 2362 784 2355 771 2330 696 
C 2189 265 1837 51 1504 51 
C 1229 51 954 203 781 480 
C 582 803 582 1176 582 1472 
L 2438 1472 
z
M 589 1568 
C 634 2505 1126 2714 1382 2714 
C 1818 2714 2112 2297 2118 1568 
L 589 1568 
z
" transform="scale(0.015625)"/>
       <path id="CMR17-61" d="M 2304 1653 
C 2304 2072 2304 2294 2035 2543 
C 1798 2752 1523 2816 1306 2816 
C 800 2816 435 2407 435 1971 
C 435 1728 627 1728 666 1728 
C 749 1728 896 1778 896 1954 
C 896 2112 774 2181 666 2181 
C 640 2181 608 2174 589 2168 
C 723 2592 1069 2714 1293 2714 
C 1613 2714 1965 2429 1965 1885 
L 1965 1600 
C 1587 1600 1133 1549 774 1357 
C 371 1133 256 813 256 570 
C 256 77 832 -64 1171 -64 
C 1523 -64 1850 139 1990 511 
C 2003 233 2182 -18 2464 -18 
C 2598 -18 2938 70 2938 567 
L 2938 920 
L 2822 920 
L 2822 562 
C 2822 178 2650 128 2566 128 
C 2304 128 2304 458 2304 738 
L 2304 1653 
z
M 1965 870 
C 1965 317 1568 38 1216 38 
C 896 38 646 275 646 570 
C 646 761 730 1100 1101 1305 
C 1408 1478 1760 1504 1965 1504 
L 1965 870 
z
" transform="scale(0.015625)"/>
       <path id="CMR17-72" d="M 960 1497 
C 960 2112 1222 2688 1702 2688 
C 1747 2688 1792 2682 1837 2662 
C 1837 2662 1696 2617 1696 2452 
C 1696 2298 1818 2234 1914 2234 
C 1990 2234 2131 2279 2131 2458 
C 2131 2663 1926 2790 1709 2790 
C 1222 2790 1011 2317 947 2093 
L 941 2093 
L 941 2790 
L 198 2720 
L 198 2554 
C 576 2554 634 2515 634 2208 
L 634 428 
C 634 184 608 153 198 153 
L 198 -13 
C 352 0 646 0 813 0 
C 998 0 1325 0 1498 -13 
L 1498 153 
C 1037 153 960 153 960 440 
L 960 1497 
z
" transform="scale(0.015625)"/>
      </defs>
      <use xlink:href="#CMR17-59" transform="scale(0.996264)"/>
      <use xlink:href="#CMR17-65" transform="translate(61.265174 0) scale(0.996264)"/>
      <use xlink:href="#CMR17-61" transform="translate(101.750835 0) scale(0.996264)"/>
      <use xlink:href="#CMR17-72" transform="translate(147.441312 0) scale(0.996264)"/>
     </g>
    </g>
   </g>
   <g id="matplotlib.axis_2">
    <g id="ytick_1">
     <g id="line2d_5">
      <defs>
       <path id="m3a2bdb2c79" d="M 0 0 
L -3.5 0 
" style="stroke: #000000; stroke-width: 0.8"/>
      </defs>
      <g>
       <use xlink:href="#m3a2bdb2c79" x="100.8" y="418.275452" style="stroke: #000000; stroke-width: 0.8"/>
      </g>
     </g>
     <g id="text_6">
      <!-- $\mathdefault{−0.1}$ -->
      <g transform="translate(54.606886 425.193951) scale(0.2 -0.2)">
       <defs>
        <path id="CMSY10-0" d="M 4218 1472 
C 4326 1472 4442 1472 4442 1600 
C 4442 1728 4326 1728 4218 1728 
L 755 1728 
C 646 1728 531 1728 531 1600 
C 531 1472 646 1472 755 1472 
L 4218 1472 
z
" transform="scale(0.015625)"/>
        <path id="CMMI12-3a" d="M 1178 307 
C 1178 492 1024 619 870 619 
C 685 619 557 466 557 313 
C 557 128 710 0 864 0 
C 1050 0 1178 153 1178 307 
z
" transform="scale(0.015625)"/>
       </defs>
       <use xlink:href="#CMSY10-0" transform="scale(0.996264)"/>
       <use xlink:href="#CMR17-30" transform="translate(77.487468 0) scale(0.996264)"/>
       <use xlink:href="#CMMI12-3a" transform="translate(123.177945 0) scale(0.996264)"/>
       <use xlink:href="#CMR17-31" transform="translate(150.275122 0) scale(0.996264)"/>
      </g>
     </g>
    </g>
    <g id="ytick_2">
     <g id="line2d_6">
      <g>
       <use xlink:href="#m3a2bdb2c79" x="100.8" y="341.756355" style="stroke: #000000; stroke-width: 0.8"/>
      </g>
     </g>
     <g id="text_7">
      <!-- $\mathdefault{0.0}$ -->
      <g transform="translate(70.104374 348.674853) scale(0.2 -0.2)">
       <use xlink:href="#CMR17-30" transform="scale(0.996264)"/>
       <use xlink:href="#CMMI12-3a" transform="translate(45.690477 0) scale(0.996264)"/>
       <use xlink:href="#CMR17-30" transform="translate(72.787654 0) scale(0.996264)"/>
      </g>
     </g>
    </g>
    <g id="ytick_3">
     <g id="line2d_7">
      <g>
       <use xlink:href="#m3a2bdb2c79" x="100.8" y="265.237257" style="stroke: #000000; stroke-width: 0.8"/>
      </g>
     </g>
     <g id="text_8">
      <!-- $\mathdefault{0.1}$ -->
      <g transform="translate(70.104374 272.155755) scale(0.2 -0.2)">
       <use xlink:href="#CMR17-30" transform="scale(0.996264)"/>
       <use xlink:href="#CMMI12-3a" transform="translate(45.690477 0) scale(0.996264)"/>
       <use xlink:href="#CMR17-31" transform="translate(72.787654 0) scale(0.996264)"/>
      </g>
     </g>
    </g>
    <g id="ytick_4">
     <g id="line2d_8">
      <g>
       <use xlink:href="#m3a2bdb2c79" x="100.8" y="188.718159" style="stroke: #000000; stroke-width: 0.8"/>
      </g>
     </g>
     <g id="text_9">
      <!-- $\mathdefault{0.2}$ -->
      <g transform="translate(70.104374 195.636658) scale(0.2 -0.2)">
       <use xlink:href="#CMR17-30" transform="scale(0.996264)"/>
       <use xlink:href="#CMMI12-3a" transform="translate(45.690477 0) scale(0.996264)"/>
       <use xlink:href="#CMR17-32" transform="translate(72.787654 0) scale(0.996264)"/>
      </g>
     </g>
    </g>
    <g id="ytick_5">
     <g id="line2d_9">
      <g>
       <use xlink:href="#m3a2bdb2c79" x="100.8" y="112.199062" style="stroke: #000000; stroke-width: 0.8"/>
      </g>
     </g>
     <g id="text_10">
      <!-- $\mathdefault{0.3}$ -->
      <g transform="translate(70.104374 119.11756) scale(0.2 -0.2)">
       <defs>
        <path id="CMR17-33" d="M 1414 2157 
C 1984 2157 2234 1662 2234 1090 
C 2234 320 1824 25 1453 25 
C 1114 25 563 194 390 693 
C 422 680 454 680 486 680 
C 640 680 755 782 755 948 
C 755 1133 614 1216 486 1216 
C 378 1216 211 1165 211 926 
C 211 335 787 -128 1466 -128 
C 2176 -128 2720 430 2720 1085 
C 2720 1707 2208 2157 1600 2227 
C 2086 2328 2554 2756 2554 3329 
C 2554 3820 2048 4179 1472 4179 
C 890 4179 378 3829 378 3329 
C 378 3110 544 3072 627 3072 
C 762 3072 877 3155 877 3321 
C 877 3486 762 3569 627 3569 
C 602 3569 570 3569 544 3557 
C 730 3959 1235 4032 1459 4032 
C 1683 4032 2106 3925 2106 3320 
C 2106 3143 2080 2828 1862 2550 
C 1670 2304 1453 2304 1242 2284 
C 1210 2284 1062 2269 1037 2269 
C 992 2263 966 2257 966 2208 
C 966 2163 973 2157 1101 2157 
L 1414 2157 
z
" transform="scale(0.015625)"/>
       </defs>
       <use xlink:href="#CMR17-30" transform="scale(0.996264)"/>
       <use xlink:href="#CMMI12-3a" transform="translate(45.690477 0) scale(0.996264)"/>
       <use xlink:href="#CMR17-33" transform="translate(72.787654 0) scale(0.996264)"/>
      </g>
     </g>
    </g>
    <g id="text_11">
     <!-- $\rho_{NM}$ -->
     <g transform="translate(38.793436 300.351048) rotate(-90) scale(0.3 -0.3)">
      <defs>
       <path id="CMMI12-1a" d="M 198 -1107 
C 192 -1139 179 -1177 179 -1216 
C 179 -1312 256 -1376 352 -1376 
C 448 -1376 538 -1312 576 -1222 
C 602 -1164 781 -397 986 390 
C 1114 70 1350 -64 1600 -64 
C 2323 -64 3142 830 3142 1795 
C 3142 2478 2726 2816 2285 2816 
C 1722 2816 1037 2235 826 1385 
L 198 -1107 
z
M 1594 64 
C 1158 64 1050 569 1050 645 
C 1050 684 1210 1295 1229 1391 
C 1555 2670 2182 2670 2278 2670 
C 2566 2670 2726 2410 2726 2036 
C 2726 1712 2554 1084 2445 819 
C 2253 381 1920 64 1594 64 
z
" transform="scale(0.015625)"/>
       <path id="CMMI12-4e" d="M 4736 3698 
C 4806 3974 4909 4166 5395 4166 
C 5414 4166 5491 4166 5491 4279 
C 5491 4352 5434 4352 5408 4352 
C 5280 4352 4954 4352 4826 4352 
L 4518 4352 
C 4429 4352 4314 4352 4224 4352 
C 4186 4352 4109 4352 4109 4230 
C 4109 4166 4160 4166 4205 4166 
C 4589 4166 4614 4019 4614 3903 
C 4614 3846 4608 3826 4589 3737 
L 3866 850 
L 2496 4249 
C 2451 4352 2445 4352 2304 4352 
L 1523 4352 
C 1395 4352 1338 4352 1338 4230 
C 1338 4166 1382 4166 1504 4166 
C 1536 4166 1914 4166 1914 4115 
C 1914 4102 1901 4051 1894 4032 
L 1043 635 
C 966 320 813 186 390 186 
C 358 186 294 186 294 67 
C 294 0 358 0 378 0 
C 506 0 832 0 960 0 
L 1267 0 
C 1357 0 1466 0 1555 0 
C 1600 0 1670 0 1670 122 
C 1670 180 1606 186 1581 186 
C 1370 186 1165 224 1165 454 
C 1165 505 1178 562 1190 613 
L 2054 4032 
C 2093 3968 2093 3956 2118 3898 
L 3642 115 
C 3674 38 3686 0 3744 0 
C 3808 0 3814 19 3840 128 
L 4736 3698 
z
" transform="scale(0.015625)"/>
       <path id="CMMI12-4d" d="M 5811 3886 
C 5869 4103 5882 4167 6336 4167 
C 6458 4167 6515 4167 6515 4288 
C 6515 4352 6470 4352 6349 4352 
L 5581 4352 
C 5421 4352 5414 4346 5344 4243 
L 3008 562 
L 2528 4211 
C 2509 4352 2502 4352 2336 4352 
L 1542 4352 
C 1421 4352 1363 4352 1363 4231 
C 1363 4167 1421 4167 1517 4167 
C 1907 4167 1907 4116 1907 4046 
C 1907 4034 1907 3995 1882 3899 
L 1062 634 
C 986 327 838 186 410 186 
C 390 186 314 186 314 73 
C 314 0 371 0 397 0 
C 525 0 851 0 979 0 
L 1286 0 
C 1376 0 1485 0 1574 0 
C 1619 0 1690 0 1690 122 
C 1690 180 1626 186 1600 186 
C 1389 186 1184 224 1184 454 
C 1184 518 1184 524 1210 613 
L 2093 4129 
L 2099 4129 
L 2630 172 
C 2650 19 2656 0 2714 0 
C 2784 0 2816 51 2848 109 
L 5421 4161 
L 5427 4161 
L 4499 473 
C 4442 250 4429 186 3981 186 
C 3859 186 3795 186 3795 70 
C 3795 0 3853 0 3891 0 
C 4000 0 4128 0 4237 0 
L 4992 0 
C 5101 0 5235 0 5344 0 
C 5395 0 5466 0 5466 122 
C 5466 186 5408 186 5312 186 
C 4922 186 4922 234 4922 294 
C 4922 301 4922 345 4934 396 
L 5811 3886 
z
" transform="scale(0.015625)"/>
      </defs>
      <use xlink:href="#CMMI12-1a" transform="scale(0.996264)"/>
      <use xlink:href="#CMMI12-4e" transform="translate(50.314373 -14.943915) scale(0.697382)"/>
      <use xlink:href="#CMMI12-4d" transform="translate(112.279346 -14.943915) scale(0.697382)"/>
     </g>
    </g>
   </g>
   <g id="LineCollection_1">
    <path d="M 117.818182 341.756355 
L 117.818182 341.756355 
" clip-path="url(#p6e2eba7356)" style="fill: none; stroke: #9c0313; stroke-width: 1.2"/>
    <path d="M 158.513834 341.756355 
L 158.513834 341.756355 
" clip-path="url(#p6e2eba7356)" style="fill: none; stroke: #9c0313; stroke-width: 1.2"/>
    <path d="M 208.458498 437.405227 
L 208.458498 341.756355 
" clip-path="url(#p6e2eba7356)" style="fill: none; stroke: #9c0313; stroke-width: 1.2"/>
    <path d="M 219.557312 426.777574 
L 219.557312 341.756355 
" clip-path="url(#p6e2eba7356)" style="fill: none; stroke: #9c0313; stroke-width: 1.2"/>
    <path d="M 223.256917 437.405227 
L 223.256917 341.756355 
" clip-path="url(#p6e2eba7356)" style="fill: none; stroke: #9c0313; stroke-width: 1.2"/>
    <path d="M 230.656126 437.405227 
L 230.656126 341.756355 
" clip-path="url(#p6e2eba7356)" style="fill: none; stroke: #9c0313; stroke-width: 1.2"/>
    <path d="M 238.055336 443.781818 
L 238.055336 341.756355 
" clip-path="url(#p6e2eba7356)" style="fill: none; stroke: #9c0313; stroke-width: 1.2"/>
    <path d="M 241.754941 341.756355 
L 241.754941 290.743623 
" clip-path="url(#p6e2eba7356)" style="fill: none; stroke: #9c0313; stroke-width: 1.2"/>
    <path d="M 249.15415 341.756355 
L 249.15415 290.743623 
" clip-path="url(#p6e2eba7356)" style="fill: none; stroke: #9c0313; stroke-width: 1.2"/>
    <path d="M 252.853755 341.756355 
L 252.853755 302.515792 
" clip-path="url(#p6e2eba7356)" style="fill: none; stroke: #9c0313; stroke-width: 1.2"/>
    <path d="M 256.55336 302.515792 
L 256.55336 267.103577 
" clip-path="url(#p6e2eba7356)" style="fill: none; stroke: #9c0313; stroke-width: 1.2"/>
    <path d="M 258.403162 302.515792 
L 258.403162 267.103577 
" clip-path="url(#p6e2eba7356)" style="fill: none; stroke: #9c0313; stroke-width: 1.2"/>
    <path d="M 262.102767 302.515792 
L 262.102767 267.103577 
" clip-path="url(#p6e2eba7356)" style="fill: none; stroke: #9c0313; stroke-width: 1.2"/>
    <path d="M 263.952569 306.166077 
L 263.952569 244.0724 
" clip-path="url(#p6e2eba7356)" style="fill: none; stroke: #9c0313; stroke-width: 1.2"/>
    <path d="M 271.351779 306.974947 
L 271.351779 246.107483 
" clip-path="url(#p6e2eba7356)" style="fill: none; stroke: #9c0313; stroke-width: 1.2"/>
    <path d="M 275.051383 307.844482 
L 275.051383 275.218009 
" clip-path="url(#p6e2eba7356)" style="fill: none; stroke: #9c0313; stroke-width: 1.2"/>
    <path d="M 280.600791 309.195037 
L 280.600791 251.733887 
" clip-path="url(#p6e2eba7356)" style="fill: none; stroke: #9c0313; stroke-width: 1.2"/>
    <path d="M 297.249012 270.575799 
L 297.249012 239.730891 
" clip-path="url(#p6e2eba7356)" style="fill: none; stroke: #9c0313; stroke-width: 1.2"/>
    <path d="M 310.197628 224.034666 
L 310.197628 186.500215 
" clip-path="url(#p6e2eba7356)" style="fill: none; stroke: #9c0313; stroke-width: 1.2"/>
    <path d="M 324.996047 400.617199 
L 324.996047 315.370459 
" clip-path="url(#p6e2eba7356)" style="fill: none; stroke: #9c0313; stroke-width: 1.2"/>
    <path d="M 334.245059 341.756355 
L 334.245059 267.705615 
" clip-path="url(#p6e2eba7356)" style="fill: none; stroke: #9c0313; stroke-width: 1.2"/>
    <path d="M 352.743083 393.633709 
L 352.743083 318.212017 
" clip-path="url(#p6e2eba7356)" style="fill: none; stroke: #9c0313; stroke-width: 1.2"/>
    <path d="M 363.841897 341.756355 
L 363.841897 266.491669 
" clip-path="url(#p6e2eba7356)" style="fill: none; stroke: #9c0313; stroke-width: 1.2"/>
    <path d="M 386.039526 230.859112 
L 386.039526 162.880542 
" clip-path="url(#p6e2eba7356)" style="fill: none; stroke: #9c0313; stroke-width: 1.2"/>
    <path d="M 408.237154 230.859112 
L 408.237154 162.880542 
" clip-path="url(#p6e2eba7356)" style="fill: none; stroke: #9c0313; stroke-width: 1.2"/>
    <path d="M 423.035573 190.096882 
L 423.035573 130.24015 
" clip-path="url(#p6e2eba7356)" style="fill: none; stroke: #9c0313; stroke-width: 1.2"/>
    <path d="M 437.833992 160.893033 
L 437.833992 103.418182 
" clip-path="url(#p6e2eba7356)" style="fill: none; stroke: #9c0313; stroke-width: 1.2"/>
    <path d="M 441.533597 178.254009 
L 441.533597 118.085146 
" clip-path="url(#p6e2eba7356)" style="fill: none; stroke: #9c0313; stroke-width: 1.2"/>
    <path d="M 454.482213 212.16756 
L 454.482213 160.377753 
" clip-path="url(#p6e2eba7356)" style="fill: none; stroke: #9c0313; stroke-width: 1.2"/>
    <path d="M 458.181818 212.687997 
L 458.181818 152.545495 
" clip-path="url(#p6e2eba7356)" style="fill: none; stroke: #9c0313; stroke-width: 1.2"/>
   </g>
   <g id="line2d_10">
    <defs>
     <path id="mad7e923b9b" d="M 4 0 
L -4 -0 
" style="stroke: #9c0313"/>
    </defs>
    <g clip-path="url(#p6e2eba7356)">
     <use xlink:href="#mad7e923b9b" x="117.818182" y="341.756355" style="fill: #9c0313; stroke: #9c0313"/>
     <use xlink:href="#mad7e923b9b" x="158.513834" y="341.756355" style="fill: #9c0313; stroke: #9c0313"/>
     <use xlink:href="#mad7e923b9b" x="208.458498" y="437.405227" style="fill: #9c0313; stroke: #9c0313"/>
     <use xlink:href="#mad7e923b9b" x="219.557312" y="426.777574" style="fill: #9c0313; stroke: #9c0313"/>
     <use xlink:href="#mad7e923b9b" x="223.256917" y="437.405227" style="fill: #9c0313; stroke: #9c0313"/>
     <use xlink:href="#mad7e923b9b" x="230.656126" y="437.405227" style="fill: #9c0313; stroke: #9c0313"/>
     <use xlink:href="#mad7e923b9b" x="238.055336" y="443.781818" style="fill: #9c0313; stroke: #9c0313"/>
     <use xlink:href="#mad7e923b9b" x="241.754941" y="341.756355" style="fill: #9c0313; stroke: #9c0313"/>
     <use xlink:href="#mad7e923b9b" x="249.15415" y="341.756355" style="fill: #9c0313; stroke: #9c0313"/>
     <use xlink:href="#mad7e923b9b" x="252.853755" y="341.756355" style="fill: #9c0313; stroke: #9c0313"/>
     <use xlink:href="#mad7e923b9b" x="256.55336" y="302.515792" style="fill: #9c0313; stroke: #9c0313"/>
     <use xlink:href="#mad7e923b9b" x="258.403162" y="302.515792" style="fill: #9c0313; stroke: #9c0313"/>
     <use xlink:href="#mad7e923b9b" x="262.102767" y="302.515792" style="fill: #9c0313; stroke: #9c0313"/>
     <use xlink:href="#mad7e923b9b" x="263.952569" y="306.166077" style="fill: #9c0313; stroke: #9c0313"/>
     <use xlink:href="#mad7e923b9b" x="271.351779" y="306.974947" style="fill: #9c0313; stroke: #9c0313"/>
     <use xlink:href="#mad7e923b9b" x="275.051383" y="307.844482" style="fill: #9c0313; stroke: #9c0313"/>
     <use xlink:href="#mad7e923b9b" x="280.600791" y="309.195037" style="fill: #9c0313; stroke: #9c0313"/>
     <use xlink:href="#mad7e923b9b" x="297.249012" y="270.575799" style="fill: #9c0313; stroke: #9c0313"/>
     <use xlink:href="#mad7e923b9b" x="310.197628" y="224.034666" style="fill: #9c0313; stroke: #9c0313"/>
     <use xlink:href="#mad7e923b9b" x="324.996047" y="400.617199" style="fill: #9c0313; stroke: #9c0313"/>
     <use xlink:href="#mad7e923b9b" x="334.245059" y="341.756355" style="fill: #9c0313; stroke: #9c0313"/>
     <use xlink:href="#mad7e923b9b" x="352.743083" y="393.633709" style="fill: #9c0313; stroke: #9c0313"/>
     <use xlink:href="#mad7e923b9b" x="363.841897" y="341.756355" style="fill: #9c0313; stroke: #9c0313"/>
     <use xlink:href="#mad7e923b9b" x="386.039526" y="230.859112" style="fill: #9c0313; stroke: #9c0313"/>
     <use xlink:href="#mad7e923b9b" x="408.237154" y="230.859112" style="fill: #9c0313; stroke: #9c0313"/>
     <use xlink:href="#mad7e923b9b" x="423.035573" y="190.096882" style="fill: #9c0313; stroke: #9c0313"/>
     <use xlink:href="#mad7e923b9b" x="437.833992" y="160.893033" style="fill: #9c0313; stroke: #9c0313"/>
     <use xlink:href="#mad7e923b9b" x="441.533597" y="178.254009" style="fill: #9c0313; stroke: #9c0313"/>
     <use xlink:href="#mad7e923b9b" x="454.482213" y="212.16756" style="fill: #9c0313; stroke: #9c0313"/>
     <use xlink:href="#mad7e923b9b" x="458.181818" y="212.687997" style="fill: #9c0313; stroke: #9c0313"/>
    </g>
   </g>
   <g id="line2d_11">
    <g clip-path="url(#p6e2eba7356)">
     <use xlink:href="#mad7e923b9b" x="117.818182" y="341.756355" style="fill: #9c0313; stroke: #9c0313"/>
     <use xlink:href="#mad7e923b9b" x="158.513834" y="341.756355" style="fill: #9c0313; stroke: #9c0313"/>
     <use xlink:href="#mad7e923b9b" x="208.458498" y="341.756355" style="fill: #9c0313; stroke: #9c0313"/>
     <use xlink:href="#mad7e923b9b" x="219.557312" y="341.756355" style="fill: #9c0313; stroke: #9c0313"/>
     <use xlink:href="#mad7e923b9b" x="223.256917" y="341.756355" style="fill: #9c0313; stroke: #9c0313"/>
     <use xlink:href="#mad7e923b9b" x="230.656126" y="341.756355" style="fill: #9c0313; stroke: #9c0313"/>
     <use xlink:href="#mad7e923b9b" x="238.055336" y="341.756355" style="fill: #9c0313; stroke: #9c0313"/>
     <use xlink:href="#mad7e923b9b" x="241.754941" y="290.743623" style="fill: #9c0313; stroke: #9c0313"/>
     <use xlink:href="#mad7e923b9b" x="249.15415" y="290.743623" style="fill: #9c0313; stroke: #9c0313"/>
     <use xlink:href="#mad7e923b9b" x="252.853755" y="302.515792" style="fill: #9c0313; stroke: #9c0313"/>
     <use xlink:href="#mad7e923b9b" x="256.55336" y="267.103577" style="fill: #9c0313; stroke: #9c0313"/>
     <use xlink:href="#mad7e923b9b" x="258.403162" y="267.103577" style="fill: #9c0313; stroke: #9c0313"/>
     <use xlink:href="#mad7e923b9b" x="262.102767" y="267.103577" style="fill: #9c0313; stroke: #9c0313"/>
     <use xlink:href="#mad7e923b9b" x="263.952569" y="244.0724" style="fill: #9c0313; stroke: #9c0313"/>
     <use xlink:href="#mad7e923b9b" x="271.351779" y="246.107483" style="fill: #9c0313; stroke: #9c0313"/>
     <use xlink:href="#mad7e923b9b" x="275.051383" y="275.218009" style="fill: #9c0313; stroke: #9c0313"/>
     <use xlink:href="#mad7e923b9b" x="280.600791" y="251.733887" style="fill: #9c0313; stroke: #9c0313"/>
     <use xlink:href="#mad7e923b9b" x="297.249012" y="239.730891" style="fill: #9c0313; stroke: #9c0313"/>
     <use xlink:href="#mad7e923b9b" x="310.197628" y="186.500215" style="fill: #9c0313; stroke: #9c0313"/>
     <use xlink:href="#mad7e923b9b" x="324.996047" y="315.370459" style="fill: #9c0313; stroke: #9c0313"/>
     <use xlink:href="#mad7e923b9b" x="334.245059" y="267.705615" style="fill: #9c0313; stroke: #9c0313"/>
     <use xlink:href="#mad7e923b9b" x="352.743083" y="318.212017" style="fill: #9c0313; stroke: #9c0313"/>
     <use xlink:href="#mad7e923b9b" x="363.841897" y="266.491669" style="fill: #9c0313; stroke: #9c0313"/>
     <use xlink:href="#mad7e923b9b" x="386.039526" y="162.880542" style="fill: #9c0313; stroke: #9c0313"/>
     <use xlink:href="#mad7e923b9b" x="408.237154" y="162.880542" style="fill: #9c0313; stroke: #9c0313"/>
     <use xlink:href="#mad7e923b9b" x="423.035573" y="130.24015" style="fill: #9c0313; stroke: #9c0313"/>
     <use xlink:href="#mad7e923b9b" x="437.833992" y="103.418182" style="fill: #9c0313; stroke: #9c0313"/>
     <use xlink:href="#mad7e923b9b" x="441.533597" y="118.085146" style="fill: #9c0313; stroke: #9c0313"/>
     <use xlink:href="#mad7e923b9b" x="454.482213" y="160.377753" style="fill: #9c0313; stroke: #9c0313"/>
     <use xlink:href="#mad7e923b9b" x="458.181818" y="152.545495" style="fill: #9c0313; stroke: #9c0313"/>
    </g>
   </g>
   <g id="line2d_12">
    <path d="M 100.8 341.756355 
L 475.2 341.756355 
" clip-path="url(#p6e2eba7356)" style="fill: none; stroke-dasharray: 3.7,1.6; stroke-dashoffset: 0; stroke: #9c0313"/>
   </g>
   <g id="line2d_13">
    <defs>
     <path id="m7470e1c6d3" d="M 0 3 
C 0.795609 3 1.55874 2.683901 2.12132 2.12132 
C 2.683901 1.55874 3 0.795609 3 0 
C 3 -0.795609 2.683901 -1.55874 2.12132 -2.12132 
C 1.55874 -2.683901 0.795609 -3 0 -3 
C -0.795609 -3 -1.55874 -2.683901 -2.12132 -2.12132 
C -2.683901 -1.55874 -3 -0.795609 -3 0 
C -3 0.795609 -2.683901 1.55874 -2.12132 2.12132 
C -1.55874 2.683901 -0.795609 3 0 3 
z
" style="stroke: #000000"/>
    </defs>
    <g clip-path="url(#p6e2eba7356)">
     <use xlink:href="#m7470e1c6d3" x="117.818182" y="341.756355" style="stroke: #000000"/>
     <use xlink:href="#m7470e1c6d3" x="158.513834" y="341.756355" style="stroke: #000000"/>
     <use xlink:href="#m7470e1c6d3" x="208.458498" y="341.756355" style="stroke: #000000"/>
     <use xlink:href="#m7470e1c6d3" x="219.557312" y="341.756355" style="stroke: #000000"/>
     <use xlink:href="#m7470e1c6d3" x="223.256917" y="341.756355" style="stroke: #000000"/>
     <use xlink:href="#m7470e1c6d3" x="230.656126" y="341.756355" style="stroke: #000000"/>
     <use xlink:href="#m7470e1c6d3" x="238.055336" y="341.756355" style="stroke: #000000"/>
     <use xlink:href="#m7470e1c6d3" x="241.754941" y="290.743623" style="stroke: #000000"/>
     <use xlink:href="#m7470e1c6d3" x="249.15415" y="290.743623" style="stroke: #000000"/>
     <use xlink:href="#m7470e1c6d3" x="252.853755" y="302.515792" style="stroke: #000000"/>
     <use xlink:href="#m7470e1c6d3" x="256.55336" y="267.103577" style="stroke: #000000"/>
     <use xlink:href="#m7470e1c6d3" x="258.403162" y="267.103577" style="stroke: #000000"/>
     <use xlink:href="#m7470e1c6d3" x="262.102767" y="267.103577" style="stroke: #000000"/>
     <use xlink:href="#m7470e1c6d3" x="263.952569" y="244.0724" style="stroke: #000000"/>
     <use xlink:href="#m7470e1c6d3" x="271.351779" y="246.107483" style="stroke: #000000"/>
     <use xlink:href="#m7470e1c6d3" x="275.051383" y="275.218009" style="stroke: #000000"/>
     <use xlink:href="#m7470e1c6d3" x="280.600791" y="251.733887" style="stroke: #000000"/>
     <use xlink:href="#m7470e1c6d3" x="297.249012" y="239.730891" style="stroke: #000000"/>
     <use xlink:href="#m7470e1c6d3" x="310.197628" y="186.500215" style="stroke: #000000"/>
     <use xlink:href="#m7470e1c6d3" x="324.996047" y="341.756355" style="stroke: #000000"/>
     <use xlink:href="#m7470e1c6d3" x="334.245059" y="290.743623" style="stroke: #000000"/>
     <use xlink:href="#m7470e1c6d3" x="352.743083" y="341.756355" style="stroke: #000000"/>
     <use xlink:href="#m7470e1c6d3" x="363.841897" y="289.879" style="stroke: #000000"/>
     <use xlink:href="#m7470e1c6d3" x="386.039526" y="178.515613" style="stroke: #000000"/>
     <use xlink:href="#m7470e1c6d3" x="408.237154" y="178.515613" style="stroke: #000000"/>
     <use xlink:href="#m7470e1c6d3" x="423.035573" y="158.633728" style="stroke: #000000"/>
     <use xlink:href="#m7470e1c6d3" x="437.833992" y="125.933259" style="stroke: #000000"/>
     <use xlink:href="#m7470e1c6d3" x="441.533597" y="144.287716" style="stroke: #000000"/>
     <use xlink:href="#m7470e1c6d3" x="454.482213" y="182.832075" style="stroke: #000000"/>
     <use xlink:href="#m7470e1c6d3" x="458.181818" y="174.280594" style="stroke: #000000"/>
    </g>
   </g>
   <g id="patch_3">
    <path d="M 100.8 460.8 
L 100.8 86.4 
" style="fill: none; stroke: #000000; stroke-width: 0.8; stroke-linejoin: miter; stroke-linecap: square"/>
   </g>
   <g id="patch_4">
    <path d="M 475.2 460.8 
L 475.2 86.4 
" style="fill: none; stroke: #000000; stroke-width: 0.8; stroke-linejoin: miter; stroke-linecap: square"/>
   </g>
   <g id="patch_5">
    <path d="M 100.8 460.8 
L 475.2 460.8 
" style="fill: none; stroke: #000000; stroke-width: 0.8; stroke-linejoin: miter; stroke-linecap: square"/>
   </g>
   <g id="patch_6">
    <path d="M 100.8 86.4 
L 475.2 86.4 
" style="fill: none; stroke: #000000; stroke-width: 0.8; stroke-linejoin: miter; stroke-linecap: square"/>
   </g>
  </g>
 </g>
 <defs>
  <clipPath id="p6e2eba7356">
   <rect x="100.8" y="86.4" width="374.4" height="374.4"/>
  </clipPath>
 </defs>
</svg>
